<?xml version="1.0" encoding="UTF-8" standalone="no"?>
<!DOCTYPE svg PUBLIC "-//W3C//DTD SVG 1.1//EN"
 "http://www.w3.org/Graphics/SVG/1.1/DTD/svg11.dtd">
<!-- Generated by graphviz version 2.43.0 (0)
 -->
<!-- Title: G Pages: 1 -->
<svg width="3074pt" height="2576pt"
 viewBox="0.00 0.00 3073.85 2576.22" xmlns="http://www.w3.org/2000/svg" xmlns:xlink="http://www.w3.org/1999/xlink">
<g id="graph0" class="graph" transform="scale(1 1) rotate(0) translate(131.97 2375.72)">
<title>G</title>
<polygon fill="#dae2ff" stroke="transparent" points="-131.97,200.5 -131.97,-2375.72 2941.88,-2375.72 2941.88,200.5 -131.97,200.5"/>
<polygon fill="#fbb4ae" stroke="#fbb4ae" points="1097.47,-1237.43 1082.02,-1211.68 1069.08,-1188.03 997.31,-1204.16 994.94,-1204.77 980.58,-1208.94 971.99,-1211.72 914.32,-1297.15 948.92,-1337.39 962.3,-1351.71 972.21,-1361.37 972.59,-1361.7 982.56,-1371.65 985.11,-1374.57 991.42,-1381.01 1002.77,-1391.22 1015.25,-1400.93 1026.34,-1408.19 1040.14,-1415.51 1045.67,-1417.74 1057.34,-1421.02 1070.35,-1423.09 1076.88,-1423.33 1084.34,-1422.67 1090.21,-1422.92 1092.13,-1422.77 1102.12,-1423.27 1107.19,-1422.89 1116.83,-1423.44 1128.62,-1425.63 1137.29,-1428.37 1199.95,-1456.39 1215.4,-1450.74 1222.08,-1447.87 1238.56,-1439.75 1249.92,-1433.45 1251.94,-1432.2 1256.45,-1429.13 1250.8,-1420.39 1234.39,-1397.43 1232.08,-1394.57 1223.06,-1384.68 1207.99,-1370.24 1204.87,-1367.72 1202.42,-1365.26 1147.04,-1295.4 1137.29,-1287.11 1129.14,-1278.9 1120.57,-1268.84 1099.69,-1240.76 1097.47,-1237.43 1097.47,-1237.43"/>
<polygon fill="#fdd9a7" stroke="#fdd9a7" points="721.27,-634.22 710.93,-634.22 710.26,-634.62 515.51,-634.62 514.99,-597.72 531.86,-536.9 617.95,-414.43 688.27,-410.31 705.11,-410.14 707.63,-410.05 719.67,-410.21 738.99,-410 744.52,-410.07 763.46,-408.93 765.28,-408.73 792,-425.54 805.47,-433.05 964.26,-437.16 969.48,-437.04 980.9,-437.35 981.98,-437.43 982.89,-437.46 1002.79,-437.04 1003.52,-437.06 1005.25,-437.2 1007.56,-437.27 1008.52,-437.25 1019.13,-437.59 1031.27,-437.38 1032.06,-437.32 1037.42,-437.24 1039.13,-437.12 1058.45,-436.83 1058.89,-436.8 1079.16,-434.49 1080.46,-434.28 1100.12,-430.09 1118.68,-424.28 1133.31,-418.99 1260.77,-366.61 1265.81,-368.22 1268.52,-369.16 1282.62,-368.6 1291.18,-368.66 1304.71,-368.43 1311.43,-368.47 1325.78,-367.88 1334.12,-367.33 1347.51,-366.14 1348.54,-599.37 1349.12,-599.71 1346.44,-639.29 1345.91,-639.34 1338.54,-638.64 1331.08,-639.23 1328.31,-638.97 1320.14,-639.6 1321.92,-678.52 1322.29,-678.75 1316.34,-746.41 1310.08,-679.03 1300.11,-679.03 1299.98,-678.96 1290.24,-678.96 1289.05,-678.24 1289.05,-678.24 1290.24,-678.96 1281.32,-793.78 1281.04,-793.57 1265.64,-783.33 1261.29,-780.78 1249.41,-774.67 1237.51,-769.46 1225.57,-765.13 1211.41,-761.08 1207.42,-760.24 1194,-758.45 1177.89,-757.53 1183.69,-678.72 1183.48,-678.59 1172.26,-678.59 1171.7,-678.26 1171.7,-678.26 1172.26,-678.59 1183.48,-678.59 1183.69,-678.72 1177.89,-757.53 1194,-758.45 1207.42,-760.24 1211.41,-761.08 1225.57,-765.13 1237.51,-769.46 1249.41,-774.67 1261.29,-780.78 1265.64,-783.33 1281.04,-793.57 1281.32,-793.78 1290.24,-678.96 1299.98,-678.96 1300.11,-679.03 1310.08,-679.03 1316.34,-746.41 1322.29,-678.75 1321.92,-678.52 1320.14,-639.6 1328.31,-638.97 1331.08,-639.23 1338.54,-638.64 1345.91,-639.34 1346.44,-639.29 1349.12,-599.71 1348.54,-599.37 1347.51,-366.14 1372.28,-363.35 1375.91,-362.86 1376.48,-362.77 1378.05,-362.48 1404.45,-357 1436.41,-348.85 1442.6,-346.98 1471.3,-336.93 1487.7,-330.41 1495.64,-327.07 1496.6,-327.43 1512.85,-333.12 1524.31,-336.87 1524.88,-337.04 1543.53,-341.89 1573.02,-348.89 1572.34,-402.48 1558.78,-599.46 1549.03,-599.46 1548.39,-599.83 1538.88,-599.83 1538.82,-599.86 1532.33,-709.64 1527.36,-600.09 1517.38,-600.09 1516.96,-599.84 1506.66,-599.84 1506.45,-599.71 1496.31,-599.71 1496.1,-599.59 1489.37,-599.59 1485.36,-604.41 1490.46,-707.99 1476.78,-707.74 1468.36,-714.59 1448.56,-727.28 1439.65,-732.21 1440.62,-810.97 1444.47,-815.31 1450.77,-815.31 1451.14,-815.1 1460.48,-815.1 1460.48,-815.1 1451.14,-815.1 1450.77,-815.31 1444.47,-815.31 1440.62,-810.97 1439.65,-732.21 1448.56,-727.28 1468.36,-714.59 1476.78,-707.74 1490.46,-707.99 1485.36,-604.41 1489.37,-599.59 1496.1,-599.59 1496.31,-599.71 1506.45,-599.71 1506.66,-599.84 1516.96,-599.84 1517.38,-600.09 1527.36,-600.09 1532.33,-709.64 1538.82,-599.86 1538.88,-599.83 1548.39,-599.83 1549.03,-599.46 1558.78,-599.46 1572.34,-402.48 1573.02,-348.89 1594.68,-352.55 1611.27,-354.61 1616.44,-355.13 1636.1,-356.68 1640.78,-359.75 1662.47,-372.64 1775.7,-432.69 1873.21,-599.75 1944.61,-710.5 1895.22,-825.89 1877.41,-833.5 1868.49,-836.94 1846.07,-844.68 1839.67,-846.76 1823.69,-851.63 1809.46,-855.67 1791.95,-859.94 1744.93,-870.43 1640.02,-974.38 1627.07,-981.61 1625.83,-983.15 1493.12,-1163.79 1430.95,-1182.98 1404.5,-1170.12 1390.41,-1163.78 1374.36,-1157.73 1354.43,-1150.94 1352.35,-1150.31 1333.96,-1145.4 1329.05,-1144.27 1319.05,-1142.34 1318.36,-1142.23 1293.56,-1139.23 1284.39,-1138.46 1256.77,-1138.15 1255.02,-1138.01 1254.06,-1137.96 1246.44,-1137.88 1243.83,-1137.76 1236.31,-1137.68 1229.2,-1137.87 1229.16,-1137.87 1215.95,-1138.22 1210.38,-1138.16 1210.31,-1138.16 1132.59,-1137.41 1069.08,-1188.03 997.31,-1204.16 994.94,-1204.77 980.58,-1208.94 971.99,-1211.72 965.91,-1203.76 952.96,-1187.83 947.74,-1181.84 940.97,-1174.61 924.42,-1158.2 923.2,-1156.8 916.37,-1149.61 913.9,-1147.23 893.89,-1129.71 800.47,-1056.59 783.61,-1041.78 774.07,-1032.54 767.91,-1026 766.87,-1025.05 764.75,-1024.98 772.39,-892.37 782.27,-892.37 782.97,-891.95 792.78,-891.95 792.99,-891.83 803.94,-891.83 804.01,-891.78 810.77,-891.78 814.79,-896.76 825.28,-896.76 829.37,-892.07 835.23,-892.07 835.41,-891.96 846.98,-891.96 847.1,-892.04 847.1,-892.04 846.98,-891.96 835.41,-891.96 835.23,-892.07 829.37,-892.07 825.28,-896.76 814.79,-896.76 810.77,-891.78 804.01,-891.78 803.94,-891.83 792.99,-891.83 792.78,-891.95 782.97,-891.95 782.27,-892.37 772.39,-892.37 764.75,-1024.98 764.54,-1024.98 763.77,-1024.96 748.17,-1025.17 726.08,-1023.6 721.76,-1023.11 702.66,-1019.33 682.98,-1014.6 681.5,-1014.18 677.55,-1012.9 654.3,-1004.36 634.11,-995.23 618.6,-986.9 599.34,-975.74 590.26,-969.71 560.33,-948.58 558.41,-947.07 539.4,-915.33 457.29,-847.81 490.05,-758.29 513.9,-683.18 515.51,-634.62 710.26,-634.62 710.93,-634.22 721.27,-634.22 721.3,-634.2 731.24,-634.2 732.51,-634.98 741.6,-634.98 742.25,-634.59 753.08,-634.59 753.18,-634.52 762.92,-634.52 763.58,-634.92 773.73,-634.92 774.78,-634.28 783.6,-634.28 784.77,-635 794.5,-635 795.62,-634.31 804.95,-634.31 805.98,-634.93 815.91,-634.93 816.67,-634.48 822.56,-634.48 826.69,-639.28 837.14,-639.28 841.24,-634.67 847.07,-634.67 847.56,-634.96 857.91,-634.96 858.28,-634.74 868.86,-634.74 869.06,-634.62 878.91,-634.62 879.5,-634.97 889.08,-634.97 889.85,-634.5 900.4,-634.5 901.1,-634.93 910.84,-634.93 911.25,-634.69 911.25,-634.69 910.84,-634.93 901.1,-634.93 900.4,-634.5 889.85,-634.5 889.08,-634.97 879.5,-634.97 878.91,-634.62 869.06,-634.62 868.86,-634.74 858.28,-634.74 857.91,-634.96 847.56,-634.96 847.07,-634.67 841.24,-634.67 837.43,-630.34 837.43,-630.34 841.24,-634.67 837.14,-639.28 826.69,-639.28 822.56,-634.48 816.67,-634.48 815.91,-634.93 805.98,-634.93 804.95,-634.31 795.62,-634.31 794.5,-635 784.77,-635 783.6,-634.28 774.78,-634.28 773.73,-634.92 763.58,-634.92 762.92,-634.52 753.18,-634.52 753.08,-634.59 742.25,-634.59 741.6,-634.98 732.51,-634.98 731.24,-634.2 721.3,-634.2 721.27,-634.22 721.27,-634.22"/>
<polygon fill="#ccebc5" stroke="#ccebc5" points="2288.38,-1400.35 2279.54,-1400.2 2278.45,-1400.11 2272.61,-1400 2260.38,-1400.59 2257.6,-1400.54 2250.37,-1399.92 2246.05,-1399.83 2243.92,-1399.93 2235.63,-1399.76 2227.03,-1400.15 2225.54,-1400.32 2224.17,-1400.38 2214.21,-1400.16 2213.87,-1400.18 2207.95,-1400.04 2200.17,-1400.38 2190.79,-1400.16 2187.7,-1399.88 2186.15,-1399.84 2173.13,-1400.38 2170.27,-1400.31 2048.19,-1389.15 1997.84,-1343.79 1992.78,-1351.63 1969.15,-1385.9 1969.01,-1386.11 1947.88,-1414.68 1943.95,-1419.48 1933.07,-1431.46 1922.38,-1441.93 1909.85,-1452.71 1903.1,-1457.68 1897.02,-1461.45 1885.74,-1470.11 1885.74,-1470.11 1897.02,-1461.45 1903.1,-1457.68 1909.85,-1452.71 1922.38,-1441.93 1933.07,-1431.46 1943.95,-1419.48 1947.88,-1414.68 1969.01,-1386.11 1969.15,-1385.9 1992.78,-1351.63 1997.84,-1343.79 1993.53,-1329.6 2005.95,-1310.6 2006.29,-1310.01 1999.69,-1148.1 2000.19,-1142.3 1991.2,-921.82 1919.67,-851.12 1918.83,-994.6 1912.22,-1147.95 1901.54,-1147.95 1901.5,-1147.97 1891.73,-1147.97 1891.11,-1148.34 1879.94,-1148.34 1879.92,-1148.36 1869.82,-1148.36 1869.57,-1148.21 1869.57,-1148.21 1869.82,-1148.36 1879.92,-1148.36 1879.94,-1148.34 1891.11,-1148.34 1891.73,-1147.97 1901.5,-1147.97 1901.54,-1147.95 1912.22,-1147.95 1918.83,-994.6 1919.67,-851.12 1916.62,-847.88 1910.19,-841.44 1895.22,-825.89 1877.41,-833.5 1868.49,-836.94 1846.07,-844.68 1839.67,-846.76 1823.69,-851.63 1809.46,-855.67 1791.95,-859.94 1744.93,-870.43 1640.02,-974.38 1627.07,-981.61 1625.83,-983.15 1493.12,-1163.79 1530.33,-1201.1 1686.73,-1201.1 1686.74,-1201.09 1698.31,-1201.09 1698.69,-1201.32 1704.27,-1201.32 1708.13,-1196.83 1708.13,-1196.83 1704.27,-1201.32 1698.69,-1201.32 1698.31,-1201.09 1686.74,-1201.09 1686.73,-1201.1 1530.33,-1201.1 1493.12,-1163.79 1430.95,-1182.98 1405.35,-1277.55 1415.8,-1296.32 1422.92,-1307.83 1435.04,-1325.33 1463.6,-1361.6 1498.71,-1424.2 1526.93,-1460.04 1533.63,-1469.69 1545.02,-1488.18 1548.1,-1362.07 1558.36,-1362.07 1559.11,-1361.62 1569.05,-1361.62 1574.6,-1241.26 1580.67,-1245.81 1589.77,-1251.94 1602.83,-1259.75 1605.22,-1261 1625.25,-1270 1623.3,-1356.97 1634.15,-1356.97 1635.01,-1273.65 1642.97,-1276.01 1645.22,-1361.42 1655.06,-1361.42 1660.89,-1289.49 1660.89,-1289.49 1655.06,-1361.42 1645.22,-1361.42 1642.97,-1276.01 1635.01,-1273.65 1634.15,-1356.97 1623.3,-1356.97 1625.25,-1270 1605.22,-1261 1602.83,-1259.75 1589.77,-1251.94 1580.67,-1245.81 1574.6,-1241.26 1569.05,-1361.62 1559.11,-1361.62 1558.36,-1362.07 1548.1,-1362.07 1545.02,-1488.18 1548.49,-1494.44 1509.22,-1523.47 1498.81,-1603.9 1498.57,-1623.8 1481.89,-1752.68 1476.72,-1760.6 1410.89,-1849.78 1396.76,-1870.85 1391.46,-1879.48 1411.32,-1907.87 1630.29,-1945.27 1658.91,-1951.03 1665.63,-1952.78 1684.56,-1958.29 1693.98,-1961.6 1709.36,-1955.97 1728.54,-1950.12 1734,-1948.62 1751.87,-1944.81 1854.86,-1925.98 1951.11,-1962.51 1961.66,-1966.84 1983,-1976.26 1983.91,-1976.69 1990.39,-1979.95 2001.42,-1985.84 2006.22,-1988.55 2022.2,-1985.05 2034.28,-1983.01 2053.4,-1980.26 2070.98,-1978.6 2104.64,-1977.11 2114.43,-1977.41 2139.18,-1978.79 2142.42,-1979.13 2154.49,-1974.82 2173.57,-1969.07 2189.33,-1964.77 2213.71,-1958.81 2284.95,-1926.02 2353.74,-1826.95 2363.44,-1758.1 2370.1,-1723.75 2387.68,-1688.14 2476.93,-1645.42 2595.44,-1493.13 2592.2,-1490 2589.68,-1487.36 2580.15,-1477.83 2446.65,-1415.09 2434.55,-1410.21 2432.02,-1409.35 2418.13,-1405.56 2400.41,-1401.87 2397.24,-1401.43 2383.62,-1400.39 2374.98,-1400.3 2374.34,-1400.25 2364.61,-1400.15 2362.05,-1400.29 2352.45,-1400.17 2350.4,-1400.28 2339.27,-1400.14 2336.92,-1399.96 2327.82,-1400.44 2318.75,-1400.31 2314.43,-1400.53 2309.33,-1400.45 2305.61,-1400.15 2299.5,-1400.06 2293.99,-1400.33 2290.12,-1400.27 2288.38,-1400.35 2288.38,-1400.35"/>
<polygon fill="#d8d6d9" stroke="#d8d6d9" points="146.18,-1506.86 144.96,-1506.97 -59.28,-1509.46 -45.95,-1584.2 -37.16,-1652.61 16.96,-1731.85 80.82,-1763.94 145.67,-1767.36 148.23,-1767.57 175.68,-1770.71 191.68,-1774.03 286.3,-1857.31 302.05,-1862.04 346.11,-1855.44 367.79,-1852.86 393.96,-1851.37 406.04,-1851.43 429.58,-1853 452.29,-1855.93 465.12,-1858.38 484.62,-1862.7 489.15,-1863.85 488.14,-1673.7 600.01,-1673.7 597.39,-1670.54 596.98,-1670.09 589.99,-1663.27 573.06,-1648.54 573.06,-1648.54 589.99,-1663.27 596.98,-1670.09 597.39,-1670.54 600.01,-1673.7 488.14,-1673.7 489.15,-1863.85 541.27,-1878.61 664.44,-1751.25 744.05,-1734.86 748.27,-1733.85 778.97,-1725.43 793.01,-1720.63 804.92,-1716.17 848.69,-1671.31 815.3,-1558 796.33,-1475.6 765.5,-1370.97 765.71,-1370.84 793.71,-1355.35 914.32,-1297.15 971.99,-1211.72 965.91,-1203.76 952.96,-1187.83 947.74,-1181.84 940.97,-1174.61 924.42,-1158.2 923.2,-1156.8 916.37,-1149.61 913.9,-1147.23 893.89,-1129.71 800.47,-1056.59 783.61,-1041.78 774.07,-1032.54 767.91,-1026 766.87,-1025.05 764.75,-1024.98 764.54,-1024.98 763.77,-1024.96 748.17,-1025.17 726.08,-1023.6 721.76,-1023.11 702.66,-1019.33 682.98,-1014.6 681.5,-1014.18 677.55,-1012.9 654.3,-1004.36 634.11,-995.23 618.6,-986.9 599.34,-975.74 590.26,-969.71 560.33,-948.58 558.41,-947.07 539.4,-915.33 457.29,-847.81 425.69,-854.51 401.63,-859.06 408.73,-1108.41 408.3,-1108.67 398.2,-1108.67 397.98,-1108.54 397.98,-1108.54 398.2,-1108.67 408.3,-1108.67 408.73,-1108.41 401.63,-859.06 392.01,-860.65 388.23,-861.1 363.5,-863.48 348.07,-864.61 333.84,-865.32 331.16,-865.39 327.74,-865.4 323.21,-867.38 321.55,-1108.49 321.81,-1108.65 322.6,-1108.65 322.6,-1108.65 321.81,-1108.65 321.55,-1108.49 323.21,-867.38 314.98,-870.74 300.13,-876.41 287.66,-880.82 285.37,-882.15 284.86,-882.43 273.95,-888.04 265.7,-892.02 248.77,-902.59 245.29,-904.62 121.87,-972.46 61.52,-1050.86 -87.48,-1096.9 -97.66,-1112.36 -120.54,-1244.5 -127.97,-1278.12 -88.59,-1409.49 -90.93,-1429.9 -93.7,-1447.74 -59.28,-1509.46 144.96,-1506.97 146.18,-1506.86 146.21,-1506.86 153.82,-1430.08 152.72,-1429.43 152.72,-1429.43 153.82,-1430.08 146.21,-1506.86 146.18,-1506.86 146.18,-1506.86"/>
<polygon fill="#fbb4ae" stroke="#fbb4ae" points="581.51,-2034.16 556.07,-1928.9 541.27,-1878.61 664.44,-1751.25 744.05,-1734.86 748.27,-1733.85 778.97,-1725.43 793.01,-1720.63 804.92,-1716.17 848.69,-1671.31 920.28,-1669 959,-1685.41 980.23,-1693.57 993.71,-1697.67 1014.99,-1703.29 1085.9,-1719.15 1091.32,-1720.57 1094.98,-1721.67 1115.29,-1728.57 1131.44,-1734.68 1136.13,-1736.63 1155.31,-1745.35 1159.49,-1747.41 1183.69,-1761.21 1198.33,-1770.12 1206.82,-1775.61 1207.85,-1776.31 1208.12,-1776.51 1248.79,-1831.52 1252.24,-1835.94 1342.43,-1861.92 1366.92,-1870.12 1391.46,-1879.48 1411.32,-1907.87 1391.71,-2078.7 1387.38,-2144.11 1361.6,-2231.19 1349.12,-2247.32 1308.76,-2279.15 1200.85,-2295.49 1194.08,-2282.09 1183.27,-2263.26 1166.63,-2236.17 1155.8,-2219.84 1144.98,-2204.84 1144.98,-2204.84 1155.8,-2219.84 1166.63,-2236.17 1183.27,-2263.26 1194.08,-2282.09 1200.85,-2295.49 1168.92,-2319.2 1022.06,-2358.92 1010.62,-2362.72 1006.7,-2363.45 992.05,-2366.59 973.17,-2371.72 970.9,-2371.27 960.63,-2369.5 950.54,-2368.04 927.05,-2365.94 912.23,-2365.43 890.45,-2365.27 866.12,-2365.77 770.73,-2299.5 761.09,-2290.83 626.34,-2251.41 548.34,-2174.71 566.64,-2104.7 760.46,-2104.7 765.49,-2253.43 772.19,-2105.02 782.58,-2105.02 782.58,-2105.02 772.19,-2105.02 765.49,-2253.43 760.46,-2104.7 566.64,-2104.7 581.51,-2034.16 581.51,-2034.16"/>
<polygon fill="#e8cfd0" stroke="#e8cfd0" points="694.28,131.83 672.42,132.7 594.74,140.21 546.73,102.61 469.86,-15.54 467.15,-58.94 468.14,-63.3 484.58,-156.09 484.15,-160.54 487.06,-185.47 488.28,-203.07 510.28,-264.85 617.95,-414.43 688.27,-410.31 705.11,-410.14 707.63,-410.05 719.67,-410.21 738.99,-410 744.52,-410.07 763.46,-408.93 765.28,-408.73 792,-425.54 805.47,-433.05 964.26,-437.16 969.48,-437.04 971.96,-323.12 971.96,-323.12 969.48,-437.04 980.9,-437.35 981.98,-437.43 982.89,-437.46 1002.79,-437.04 1003.52,-437.06 1005.25,-437.2 1007.56,-437.27 1008.52,-437.25 1019.13,-437.59 1031.27,-437.38 1032.06,-437.32 1037.42,-437.24 1039.13,-437.12 1058.45,-436.83 1058.89,-436.8 1079.16,-434.49 1080.46,-434.28 1100.12,-430.09 1118.68,-424.28 1133.31,-418.99 1260.77,-366.61 1265.81,-368.22 1268.52,-369.16 1282.62,-368.6 1291.18,-368.66 1304.71,-368.43 1311.43,-368.47 1325.78,-367.88 1334.12,-367.33 1347.51,-366.14 1372.28,-363.35 1375.91,-362.86 1376.48,-362.77 1378.05,-362.48 1404.45,-357 1436.41,-348.85 1442.6,-346.98 1471.3,-336.93 1487.7,-330.41 1495.64,-327.07 1484.28,-137.3 1483.3,-39.19 1482.71,-37.42 1459.92,-0.68 1360.96,49.22 1252.91,196.5 1170.84,189.36 1165.13,189.02 1158.86,188.81 1129.65,189.42 1111.75,190.76 1107.44,191.2 982.47,121.4 937.03,121.62 917.25,122.31 900.54,123.4 899.1,123.57 886.81,125.47 875.17,124.84 871.9,124.76 846.6,124.87 844.9,124.93 835.66,125.51 833.95,125.67 810.45,128.54 796.26,131.11 789.48,132.54 782.2,131.79 764.43,130.48 750.17,130.24 743.85,130.32 726.67,131.01 723.57,131.22 713.79,132.17 712.9,132.13 694.28,131.83 694.28,131.83"/>
<polygon fill="#bbd7d9" stroke="#bbd7d9" points="962.3,-1351.71 972.21,-1361.37 972.59,-1361.7 982.56,-1371.65 985.11,-1374.57 991.42,-1381.01 1002.77,-1391.22 1015.25,-1400.93 1026.34,-1408.19 1040.14,-1415.51 1045.67,-1417.74 1057.34,-1421.02 1070.35,-1423.09 1076.88,-1423.33 1084.34,-1422.67 1090.21,-1422.92 1092.13,-1422.77 1102.12,-1423.27 1107.19,-1422.89 1116.83,-1423.44 1128.62,-1425.63 1137.29,-1428.37 1199.95,-1456.39 1215.4,-1450.74 1222.08,-1447.87 1238.56,-1439.75 1249.92,-1433.45 1251.94,-1432.2 1256.45,-1429.13 1268.48,-1428.9 1262.14,-1301.43 1262.14,-1301.43 1268.48,-1428.9 1256.45,-1429.13 1250.8,-1420.39 1234.39,-1397.43 1232.08,-1394.57 1223.06,-1384.68 1207.99,-1370.24 1204.87,-1367.72 1202.42,-1365.26 1147.04,-1295.4 1137.29,-1287.11 1129.14,-1278.9 1120.57,-1268.84 1099.69,-1240.76 1097.47,-1237.43 1082.02,-1211.68 1069.08,-1188.03 1132.59,-1137.41 1210.31,-1138.16 1210.38,-1138.16 1215.95,-1138.22 1229.16,-1137.87 1229.2,-1137.87 1236.31,-1137.68 1243.83,-1137.76 1246.44,-1137.88 1254.06,-1137.96 1255.02,-1138.01 1256.77,-1138.15 1284.39,-1138.46 1293.56,-1139.23 1318.36,-1142.23 1319.05,-1142.34 1329.05,-1144.27 1333.96,-1145.4 1352.35,-1150.31 1354.43,-1150.94 1374.36,-1157.73 1390.41,-1163.78 1404.5,-1170.12 1430.95,-1182.98 1405.35,-1277.55 1415.8,-1296.32 1422.92,-1307.83 1435.04,-1325.33 1463.6,-1361.6 1498.71,-1424.2 1526.93,-1460.04 1533.63,-1469.69 1545.02,-1488.18 1548.49,-1494.44 1509.22,-1523.47 1498.81,-1603.9 1498.57,-1623.8 1481.89,-1752.68 1476.72,-1760.6 1410.89,-1849.78 1396.76,-1870.85 1391.46,-1879.48 1366.92,-1870.12 1367.93,-1711.64 1367.93,-1711.64 1366.92,-1870.12 1342.43,-1861.92 1342.91,-1837.55 1342.91,-1837.55 1342.43,-1861.92 1252.24,-1835.94 1248.79,-1831.52 1208.12,-1776.51 1207.85,-1776.31 1206.82,-1775.61 1198.33,-1770.12 1183.69,-1761.21 1159.49,-1747.41 1161.15,-1682.83 1161.15,-1682.83 1159.49,-1747.41 1155.31,-1745.35 1136.13,-1736.63 1131.44,-1734.68 1115.29,-1728.57 1094.98,-1721.67 1091.32,-1720.57 1085.9,-1719.15 1014.99,-1703.29 993.71,-1697.67 980.23,-1693.57 959,-1685.41 920.28,-1669 848.69,-1671.31 815.3,-1558 796.33,-1475.6 765.5,-1370.97 765.71,-1370.84 793.71,-1355.35 914.32,-1297.15 948.92,-1337.39 962.3,-1351.71 962.3,-1351.71"/>
<polygon fill="#cbc5d1" stroke="#cbc5d1" points="2697.1,-1087.52 2699.8,-1176.49 2710.03,-1176.76 2719.42,-1177.65 2728.63,-1179.14 2890.36,-1216.26 2882.85,-1265.5 2875.96,-1332.45 2807.41,-1433.68 2702.5,-1480.8 2679.3,-1491.94 2677.53,-1491.76 2656.82,-1490.62 2647.67,-1490.34 2617.13,-1490.88 2612.06,-1491.22 2595.44,-1493.13 2592.2,-1490 2589.68,-1487.36 2580.15,-1477.83 2446.65,-1415.09 2434.55,-1410.21 2432.02,-1409.35 2418.13,-1405.56 2400.41,-1401.87 2397.24,-1401.43 2383.62,-1400.39 2374.98,-1400.3 2374.34,-1400.25 2364.61,-1400.15 2362.05,-1400.29 2352.45,-1400.17 2350.4,-1400.28 2339.27,-1400.14 2336.92,-1399.96 2327.82,-1400.44 2318.75,-1400.31 2314.43,-1400.53 2309.33,-1400.45 2305.61,-1400.15 2299.5,-1400.06 2293.99,-1400.33 2290.12,-1400.27 2288.38,-1400.35 2279.54,-1400.2 2278.45,-1400.11 2272.61,-1400 2260.38,-1400.59 2257.6,-1400.54 2250.37,-1399.92 2246.05,-1399.83 2243.92,-1399.93 2235.63,-1399.76 2227.03,-1400.15 2225.54,-1400.32 2224.17,-1400.38 2214.21,-1400.16 2213.87,-1400.18 2207.95,-1400.04 2200.17,-1400.38 2190.79,-1400.16 2187.7,-1399.88 2186.15,-1399.84 2173.13,-1400.38 2170.27,-1400.31 2048.19,-1389.15 1997.84,-1343.79 1993.53,-1329.6 2005.95,-1310.6 2006.29,-1310.01 2072.48,-1263.14 2089.08,-1252.54 2098.6,-1247.15 2112.5,-1240.26 2117.45,-1238.16 2130.7,-1233.49 2136.88,-1231.75 2149,-1229.19 2149,-1229.19 2136.88,-1231.75 2130.7,-1233.49 2117.45,-1238.16 2112.5,-1240.26 2098.6,-1247.15 2089.08,-1252.54 2072.48,-1263.14 2006.29,-1310.01 1999.69,-1148.1 2000.19,-1142.3 1991.2,-921.82 1919.67,-851.12 1916.62,-847.88 1910.19,-841.44 1895.22,-825.89 1944.61,-710.5 2066.01,-640.49 2217.9,-635.63 2218.23,-635.61 2223.64,-635.15 2247.21,-632.55 2256.93,-631.22 2280.12,-627.45 2280.15,-627.45 2295.64,-623.72 2297.71,-847.88 2298.06,-848.09 2292.23,-968.69 2286.65,-848.3 2276.68,-848.3 2276.43,-848.15 2276.43,-848.15 2276.68,-848.3 2286.65,-848.3 2292.23,-968.69 2298.06,-848.09 2297.71,-847.88 2295.64,-623.72 2306.07,-620.94 2318.03,-617.44 2319.14,-617.93 2346.57,-629.51 2443.45,-642.31 2463.32,-643.71 2473.97,-644.12 2481.17,-644.18 2496.51,-643.83 2503.15,-643.47 2518.98,-642.13 2578.14,-635.27 2629.47,-668.46 2698.43,-729.69 2746.41,-738.12 2915.83,-838.68 2936.12,-868.4 2937.88,-926.95 2932.8,-937.46 2923.67,-958.36 2912.39,-1069.08 2909.2,-1087.4 2894.3,-1210.3 2890.36,-1216.26 2728.63,-1179.14 2719.42,-1177.65 2710.03,-1176.76 2699.8,-1176.49 2697.1,-1087.52 2696.97,-1087.44 2687.34,-1087.44 2680.9,-1159.9 2675.37,-1092.09 2679.28,-1087.1 2675.55,-1082.65 2678.18,-1012.23 2679.21,-1012.14 2683.66,-1012.09 2685.13,-937.52 2685.04,-937.47 2685.04,-937.47 2685.13,-937.52 2683.66,-1012.09 2679.21,-1012.14 2678.18,-1012.23 2662.49,-1012.35 2664.31,-937.56 2664.21,-937.5 2653.84,-937.5 2653.8,-937.53 2642.98,-937.53 2642.77,-937.66 2633.16,-937.66 2633.08,-937.61 2622.64,-937.61 2622.21,-937.35 2615.51,-937.35 2611.86,-933 2611.86,-933 2615.51,-937.35 2611.55,-942.19 2601.75,-942.19 2597.93,-937.66 2590.52,-937.66 2590.4,-937.59 2581.14,-937.59 2580.86,-937.75 2569.87,-937.75 2569.83,-937.73 2560.12,-937.73 2559.79,-937.92 2549.77,-937.92 2548.62,-937.24 2548.62,-937.24 2549.77,-937.92 2559.79,-937.92 2560.12,-937.73 2569.83,-937.73 2569.87,-937.75 2580.86,-937.75 2581.14,-937.59 2590.4,-937.59 2590.52,-937.66 2597.93,-937.66 2601.75,-942.19 2611.55,-942.19 2615.51,-937.35 2622.21,-937.35 2622.64,-937.61 2633.08,-937.61 2633.16,-937.66 2642.77,-937.66 2642.98,-937.53 2653.8,-937.53 2653.84,-937.5 2664.21,-937.5 2664.31,-937.56 2662.49,-1012.35 2678.18,-1012.23 2675.55,-1082.65 2679.28,-1087.1 2675.37,-1092.09 2680.9,-1159.9 2687.34,-1087.44 2696.97,-1087.44 2697.1,-1087.52 2697.1,-1087.52"/>
<polyline fill="none" stroke="#000000" points="1102.12,-1423.27 1092.13,-1422.77 1090.21,-1422.92 1084.34,-1422.67 1076.88,-1423.33 1070.35,-1423.09 1057.34,-1421.02 1045.67,-1417.74 1040.14,-1415.51 1026.34,-1408.19 1015.25,-1400.93 1002.77,-1391.22 991.42,-1381.01 985.11,-1374.57 982.56,-1371.65 972.59,-1361.7 972.21,-1361.37 962.3,-1351.71 948.92,-1337.39 914.32,-1297.15 971.99,-1211.72 980.58,-1208.94 994.94,-1204.77 997.31,-1204.16 1069.08,-1188.03 1082.02,-1211.68 1097.47,-1237.43 1099.69,-1240.76 1120.57,-1268.84 1129.14,-1278.9 1137.29,-1287.11 1147.04,-1295.4 1202.42,-1365.26 1204.87,-1367.72 1207.99,-1370.24 1223.06,-1384.68 1232.08,-1394.57 1234.39,-1397.43 1250.8,-1420.39 1256.45,-1429.13 1251.94,-1432.2 1249.92,-1433.45 1238.56,-1439.75 1222.08,-1447.87 1215.4,-1450.74 1199.95,-1456.39 1137.29,-1428.37 1128.62,-1425.63 1116.83,-1423.44 1107.19,-1422.89 1102.12,-1423.27 "/>
<polyline fill="none" stroke="#000000" points="1210.31,-1138.16 1132.59,-1137.41 1069.08,-1188.03 997.31,-1204.16 994.94,-1204.77 980.58,-1208.94 971.99,-1211.72 965.91,-1203.76 952.96,-1187.83 947.74,-1181.84 940.97,-1174.61 924.42,-1158.2 923.2,-1156.8 916.37,-1149.61 913.9,-1147.23 893.89,-1129.71 800.47,-1056.59 783.61,-1041.78 774.07,-1032.54 767.91,-1026 766.87,-1025.05 764.75,-1024.98 764.54,-1024.98 763.77,-1024.96 748.17,-1025.17 726.08,-1023.6 721.76,-1023.11 702.66,-1019.33 682.98,-1014.6 681.5,-1014.18 677.55,-1012.9 654.3,-1004.36 634.11,-995.23 618.6,-986.9 599.34,-975.74 590.26,-969.71 560.33,-948.58 558.41,-947.07 539.4,-915.33 457.29,-847.81 490.05,-758.29 513.9,-683.18 515.51,-634.62 514.99,-597.72 531.86,-536.9 617.95,-414.43 688.27,-410.31 705.11,-410.14 707.63,-410.05 719.67,-410.21 738.99,-410 744.52,-410.07 763.46,-408.93 765.28,-408.73 792,-425.54 805.47,-433.05 964.26,-437.16 969.48,-437.04 980.9,-437.35 981.98,-437.43 982.89,-437.46 1002.79,-437.04 1003.52,-437.06 1005.25,-437.2 1007.56,-437.27 1008.52,-437.25 1019.13,-437.59 1031.27,-437.38 1032.06,-437.32 1037.42,-437.24 1039.13,-437.12 1058.45,-436.83 1058.89,-436.8 1079.16,-434.49 1080.46,-434.28 1100.12,-430.09 1118.68,-424.28 1133.31,-418.99 1260.77,-366.61 1265.81,-368.22 1268.52,-369.16 1282.62,-368.6 1291.18,-368.66 1304.71,-368.43 1311.43,-368.47 1325.78,-367.88 1334.12,-367.33 1347.51,-366.14 1372.28,-363.35 1375.91,-362.86 1376.48,-362.77 1378.05,-362.48 1404.45,-357 1436.41,-348.85 1442.6,-346.98 1471.3,-336.93 1487.7,-330.41 1495.64,-327.07 1496.6,-327.43 1512.85,-333.12 1524.31,-336.87 1524.88,-337.04 1543.53,-341.89 1573.02,-348.89 1594.68,-352.55 1611.27,-354.61 1616.44,-355.13 1636.1,-356.68 1640.78,-359.75 1662.47,-372.64 1775.7,-432.69 1873.21,-599.75 1944.61,-710.5 1895.22,-825.89 1877.41,-833.5 1868.49,-836.94 1846.07,-844.68 1839.67,-846.76 1823.69,-851.63 1809.46,-855.67 1791.95,-859.94 1744.93,-870.43 1640.02,-974.38 1627.07,-981.61 1625.83,-983.15 1493.12,-1163.79 1430.95,-1182.98 1404.5,-1170.12 1390.41,-1163.78 1374.36,-1157.73 1354.43,-1150.94 1352.35,-1150.31 1333.96,-1145.4 1329.05,-1144.27 1319.05,-1142.34 1318.36,-1142.23 1293.56,-1139.23 1284.39,-1138.46 1256.77,-1138.15 1255.02,-1138.01 1254.06,-1137.96 1246.44,-1137.88 1243.83,-1137.76 1236.31,-1137.68 1229.2,-1137.87 1229.16,-1137.87 1215.95,-1138.22 1210.38,-1138.16 1210.31,-1138.16 "/>
<polyline fill="none" stroke="#000000" points="1734,-1948.62 1728.54,-1950.12 1709.36,-1955.97 1693.98,-1961.6 1684.56,-1958.29 1665.63,-1952.78 1658.91,-1951.03 1630.29,-1945.27 1411.32,-1907.87 1391.46,-1879.48 1396.76,-1870.85 1410.89,-1849.78 1476.72,-1760.6 1481.89,-1752.68 1498.57,-1623.8 1498.81,-1603.9 1509.22,-1523.47 1548.49,-1494.44 1545.02,-1488.18 1533.63,-1469.69 1526.93,-1460.04 1498.71,-1424.2 1463.6,-1361.6 1435.04,-1325.33 1422.92,-1307.83 1415.8,-1296.32 1405.35,-1277.55 1430.95,-1182.98 1493.12,-1163.79 1625.83,-983.15 1627.07,-981.61 1640.02,-974.38 1744.93,-870.43 1791.95,-859.94 1809.46,-855.67 1823.69,-851.63 1839.67,-846.76 1846.07,-844.68 1868.49,-836.94 1877.41,-833.5 1895.22,-825.89 1910.19,-841.44 1916.62,-847.88 1919.67,-851.12 1991.2,-921.82 2000.19,-1142.3 1999.69,-1148.1 2006.29,-1310.01 2005.95,-1310.6 1993.53,-1329.6 1997.84,-1343.79 2048.19,-1389.15 2170.27,-1400.31 2173.13,-1400.38 2186.15,-1399.84 2187.7,-1399.88 2190.79,-1400.16 2200.17,-1400.38 2207.95,-1400.04 2213.87,-1400.18 2214.21,-1400.16 2224.17,-1400.38 2225.54,-1400.32 2227.03,-1400.15 2235.63,-1399.76 2243.92,-1399.93 2246.05,-1399.83 2250.37,-1399.92 2257.6,-1400.54 2260.38,-1400.59 2272.61,-1400 2278.45,-1400.11 2279.54,-1400.2 2288.38,-1400.35 2290.12,-1400.27 2293.99,-1400.33 2299.5,-1400.06 2305.61,-1400.15 2309.33,-1400.45 2314.43,-1400.53 2318.75,-1400.31 2327.82,-1400.44 2336.92,-1399.96 2339.27,-1400.14 2350.4,-1400.28 2352.45,-1400.17 2362.05,-1400.29 2364.61,-1400.15 2374.34,-1400.25 2374.98,-1400.3 2383.62,-1400.39 2397.24,-1401.43 2400.41,-1401.87 2418.13,-1405.56 2432.02,-1409.35 2434.55,-1410.21 2446.65,-1415.09 2580.15,-1477.83 2589.68,-1487.36 2592.2,-1490 2595.44,-1493.13 2476.93,-1645.42 2387.68,-1688.14 2370.1,-1723.75 2363.44,-1758.1 2353.74,-1826.95 2284.95,-1926.02 2213.71,-1958.81 2189.33,-1964.77 2173.57,-1969.07 2154.49,-1974.82 2142.42,-1979.13 2139.18,-1978.79 2114.43,-1977.41 2104.64,-1977.11 2070.98,-1978.6 2053.4,-1980.26 2034.28,-1983.01 2022.2,-1985.05 2006.22,-1988.55 2001.42,-1985.84 1990.39,-1979.95 1983.91,-1976.69 1983,-1976.26 1961.66,-1966.84 1951.11,-1962.51 1854.86,-1925.98 1751.87,-1944.81 1734,-1948.62 "/>
<polyline fill="none" stroke="#000000" points="796.33,-1475.6 765.5,-1370.97 765.71,-1370.84 793.71,-1355.35 914.32,-1297.15 971.99,-1211.72 965.91,-1203.76 952.96,-1187.83 947.74,-1181.84 940.97,-1174.61 924.42,-1158.2 923.2,-1156.8 916.37,-1149.61 913.9,-1147.23 893.89,-1129.71 800.47,-1056.59 783.61,-1041.78 774.07,-1032.54 767.91,-1026 766.87,-1025.05 764.75,-1024.98 764.54,-1024.98 763.77,-1024.96 748.17,-1025.17 726.08,-1023.6 721.76,-1023.11 702.66,-1019.33 682.98,-1014.6 681.5,-1014.18 677.55,-1012.9 654.3,-1004.36 634.11,-995.23 618.6,-986.9 599.34,-975.74 590.26,-969.71 560.33,-948.58 558.41,-947.07 539.4,-915.33 457.29,-847.81 425.69,-854.51 401.63,-859.06 392.01,-860.65 388.23,-861.1 363.5,-863.48 348.07,-864.61 333.84,-865.32 331.16,-865.39 327.74,-865.4 323.21,-867.38 314.98,-870.74 300.13,-876.41 287.66,-880.82 285.37,-882.15 284.86,-882.43 273.95,-888.04 265.7,-892.02 248.77,-902.59 245.29,-904.62 121.87,-972.46 61.52,-1050.86 -87.48,-1096.9 -97.66,-1112.36 -120.54,-1244.5 -127.97,-1278.12 -88.59,-1409.49 -90.93,-1429.9 -93.7,-1447.74 -59.28,-1509.46 -45.95,-1584.2 -37.16,-1652.61 16.96,-1731.85 80.82,-1763.94 145.67,-1767.36 148.23,-1767.57 175.68,-1770.71 191.68,-1774.03 286.3,-1857.31 302.05,-1862.04 346.11,-1855.44 367.79,-1852.86 393.96,-1851.37 406.04,-1851.43 429.58,-1853 452.29,-1855.93 465.12,-1858.38 484.62,-1862.7 489.15,-1863.85 541.27,-1878.61 664.44,-1751.25 744.05,-1734.86 748.27,-1733.85 778.97,-1725.43 793.01,-1720.63 804.92,-1716.17 848.69,-1671.31 815.3,-1558 796.33,-1475.6 "/>
<polyline fill="none" stroke="#000000" points="993.71,-1697.67 980.23,-1693.57 959,-1685.41 920.28,-1669 848.69,-1671.31 804.92,-1716.17 793.01,-1720.63 778.97,-1725.43 748.27,-1733.85 744.05,-1734.86 664.44,-1751.25 541.27,-1878.61 556.07,-1928.9 581.51,-2034.16 566.64,-2104.7 548.34,-2174.71 626.34,-2251.41 761.09,-2290.83 770.73,-2299.5 866.12,-2365.77 890.45,-2365.27 912.23,-2365.43 927.05,-2365.94 950.54,-2368.04 960.63,-2369.5 970.9,-2371.27 973.17,-2371.72 992.05,-2366.59 1006.7,-2363.45 1010.62,-2362.72 1022.06,-2358.92 1168.92,-2319.2 1200.85,-2295.49 1308.76,-2279.15 1349.12,-2247.32 1361.6,-2231.19 1387.38,-2144.11 1391.71,-2078.7 1411.32,-1907.87 1391.46,-1879.48 1366.92,-1870.12 1342.43,-1861.92 1252.24,-1835.94 1248.79,-1831.52 1208.12,-1776.51 1207.85,-1776.31 1206.82,-1775.61 1198.33,-1770.12 1183.69,-1761.21 1159.49,-1747.41 1155.31,-1745.35 1136.13,-1736.63 1131.44,-1734.68 1115.29,-1728.57 1094.98,-1721.67 1091.32,-1720.57 1085.9,-1719.15 1014.99,-1703.29 993.71,-1697.67 "/>
<polyline fill="none" stroke="#000000" points="1002.79,-437.04 1003.52,-437.06 1005.25,-437.2 1007.56,-437.27 1008.52,-437.25 1019.13,-437.59 1031.27,-437.38 1032.06,-437.32 1037.42,-437.24 1039.13,-437.12 1058.45,-436.83 1058.89,-436.8 1079.16,-434.49 1080.46,-434.28 1100.12,-430.09 1118.68,-424.28 1133.31,-418.99 1260.77,-366.61 1265.81,-368.22 1268.52,-369.16 1282.62,-368.6 1291.18,-368.66 1304.71,-368.43 1311.43,-368.47 1325.78,-367.88 1334.12,-367.33 1347.51,-366.14 1372.28,-363.35 1375.91,-362.86 1376.48,-362.77 1378.05,-362.48 1404.45,-357 1436.41,-348.85 1442.6,-346.98 1471.3,-336.93 1487.7,-330.41 1495.64,-327.07 1484.28,-137.3 1483.3,-39.19 1482.71,-37.42 1459.92,-0.68 1360.96,49.22 1252.91,196.5 1170.84,189.36 1165.13,189.02 1158.86,188.81 1129.65,189.42 1111.75,190.76 1107.44,191.2 982.47,121.4 937.03,121.62 917.25,122.31 900.54,123.4 899.1,123.57 886.81,125.47 875.17,124.84 871.9,124.76 846.6,124.87 844.9,124.93 835.66,125.51 833.95,125.67 810.45,128.54 796.26,131.11 789.48,132.54 782.2,131.79 764.43,130.48 750.17,130.24 743.85,130.32 726.67,131.01 723.57,131.22 713.79,132.17 712.9,132.13 694.28,131.83 672.42,132.7 594.74,140.21 546.73,102.61 469.86,-15.54 467.15,-58.94 468.14,-63.3 484.58,-156.09 484.15,-160.54 487.06,-185.47 488.28,-203.07 510.28,-264.85 617.95,-414.43 688.27,-410.31 705.11,-410.14 707.63,-410.05 719.67,-410.21 738.99,-410 744.52,-410.07 763.46,-408.93 765.28,-408.73 792,-425.54 805.47,-433.05 964.26,-437.16 969.48,-437.04 980.9,-437.35 981.98,-437.43 982.89,-437.46 1002.79,-437.04 "/>
<polyline fill="none" stroke="#000000" points="1232.08,-1394.57 1234.39,-1397.43 1250.8,-1420.39 1256.45,-1429.13 1251.94,-1432.2 1249.92,-1433.45 1238.56,-1439.75 1222.08,-1447.87 1215.4,-1450.74 1199.95,-1456.39 1137.29,-1428.37 1128.62,-1425.63 1116.83,-1423.44 1107.19,-1422.89 1102.12,-1423.27 1092.13,-1422.77 1090.21,-1422.92 1084.34,-1422.67 1076.88,-1423.33 1070.35,-1423.09 1057.34,-1421.02 1045.67,-1417.74 1040.14,-1415.51 1026.34,-1408.19 1015.25,-1400.93 1002.77,-1391.22 991.42,-1381.01 985.11,-1374.57 982.56,-1371.65 972.59,-1361.7 972.21,-1361.37 962.3,-1351.71 948.92,-1337.39 914.32,-1297.15 793.71,-1355.35 765.71,-1370.84 765.5,-1370.97 796.33,-1475.6 815.3,-1558 848.69,-1671.31 920.28,-1669 959,-1685.41 980.23,-1693.57 993.71,-1697.67 1014.99,-1703.29 1085.9,-1719.15 1091.32,-1720.57 1094.98,-1721.67 1115.29,-1728.57 1131.44,-1734.68 1136.13,-1736.63 1155.31,-1745.35 1159.49,-1747.41 1183.69,-1761.21 1198.33,-1770.12 1206.82,-1775.61 1207.85,-1776.31 1208.12,-1776.51 1248.79,-1831.52 1252.24,-1835.94 1342.43,-1861.92 1366.92,-1870.12 1391.46,-1879.48 1396.76,-1870.85 1410.89,-1849.78 1476.72,-1760.6 1481.89,-1752.68 1498.57,-1623.8 1498.81,-1603.9 1509.22,-1523.47 1548.49,-1494.44 1545.02,-1488.18 1533.63,-1469.69 1526.93,-1460.04 1498.71,-1424.2 1463.6,-1361.6 1435.04,-1325.33 1422.92,-1307.83 1415.8,-1296.32 1405.35,-1277.55 1430.95,-1182.98 1404.5,-1170.12 1390.41,-1163.78 1374.36,-1157.73 1354.43,-1150.94 1352.35,-1150.31 1333.96,-1145.4 1329.05,-1144.27 1319.05,-1142.34 1318.36,-1142.23 1293.56,-1139.23 1284.39,-1138.46 1256.77,-1138.15 1255.02,-1138.01 1254.06,-1137.96 1246.44,-1137.88 1243.83,-1137.76 1236.31,-1137.68 1229.2,-1137.87 1229.16,-1137.87 1215.95,-1138.22 1210.38,-1138.16 1210.31,-1138.16 1132.59,-1137.41 1069.08,-1188.03 1082.02,-1211.68 1097.47,-1237.43 1099.69,-1240.76 1120.57,-1268.84 1129.14,-1278.9 1137.29,-1287.11 1147.04,-1295.4 1202.42,-1365.26 1204.87,-1367.72 1207.99,-1370.24 1223.06,-1384.68 1232.08,-1394.57 "/>
<polyline fill="none" stroke="#000000" points="2346.57,-629.51 2443.45,-642.31 2463.32,-643.71 2473.97,-644.12 2481.17,-644.18 2496.51,-643.83 2503.15,-643.47 2518.98,-642.13 2578.14,-635.27 2629.47,-668.46 2698.43,-729.69 2746.41,-738.12 2915.83,-838.68 2936.12,-868.4 2937.88,-926.95 2932.8,-937.46 2923.67,-958.36 2912.39,-1069.08 2909.2,-1087.4 2894.3,-1210.3 2890.36,-1216.26 2882.85,-1265.5 2875.96,-1332.45 2807.41,-1433.68 2702.5,-1480.8 2679.3,-1491.94 2677.53,-1491.76 2656.82,-1490.62 2647.67,-1490.34 2617.13,-1490.88 2612.06,-1491.22 2595.44,-1493.13 2592.2,-1490 2589.68,-1487.36 2580.15,-1477.83 2446.65,-1415.09 2434.55,-1410.21 2432.02,-1409.35 2418.13,-1405.56 2400.41,-1401.87 2397.24,-1401.43 2383.62,-1400.39 2374.98,-1400.3 2374.34,-1400.25 2364.61,-1400.15 2362.05,-1400.29 2352.45,-1400.17 2350.4,-1400.28 2339.27,-1400.14 2336.92,-1399.96 2327.82,-1400.44 2318.75,-1400.31 2314.43,-1400.53 2309.33,-1400.45 2305.61,-1400.15 2299.5,-1400.06 2293.99,-1400.33 2290.12,-1400.27 2288.38,-1400.35 2279.54,-1400.2 2278.45,-1400.11 2272.61,-1400 2260.38,-1400.59 2257.6,-1400.54 2250.37,-1399.92 2246.05,-1399.83 2243.92,-1399.93 2235.63,-1399.76 2227.03,-1400.15 2225.54,-1400.32 2224.17,-1400.38 2214.21,-1400.16 2213.87,-1400.18 2207.95,-1400.04 2200.17,-1400.38 2190.79,-1400.16 2187.7,-1399.88 2186.15,-1399.84 2173.13,-1400.38 2170.27,-1400.31 2048.19,-1389.15 1997.84,-1343.79 1993.53,-1329.6 2005.95,-1310.6 2006.29,-1310.01 1999.69,-1148.1 2000.19,-1142.3 1991.2,-921.82 1919.67,-851.12 1916.62,-847.88 1910.19,-841.44 1895.22,-825.89 1944.61,-710.5 2066.01,-640.49 2217.9,-635.63 2218.23,-635.61 2223.64,-635.15 2247.21,-632.55 2256.93,-631.22 2280.12,-627.45 2280.15,-627.45 2295.64,-623.72 2306.07,-620.94 2318.03,-617.44 2319.14,-617.93 2346.57,-629.51 "/>
<!-- Books&#45;&gt;Management -->
<g id="edge1" class="edge">
<title>Books&#45;&gt;Management</title>
<path fill="none" stroke="#555555" stroke-opacity="0.133333" d="M1111.5,-1340.1C1112.6,-1252.5 1116.1,-972.2 1117.4,-874.06"/>
<polygon fill="#555555" fill-opacity="0.133333" stroke="#555555" stroke-opacity="0.133333" points="1120.9,-873.84 1117.5,-863.81 1113.9,-873.78 1120.9,-873.84"/>
</g>
<!-- Books&#45;&gt;Programming -->
<g id="edge2" class="edge">
<title>Books&#45;&gt;Programming</title>
<path fill="none" stroke="#555555" stroke-opacity="0.133333" d="M1176.8,-1373.4C1286.4,-1384.9 1508.6,-1408.2 1647.9,-1422.7"/>
<polygon fill="#555555" fill-opacity="0.133333" stroke="#555555" stroke-opacity="0.133333" points="1647.88,-1426.22 1658.2,-1423.8 1648.63,-1419.26 1647.88,-1426.22"/>
</g>
<!-- Books&#45;&gt;Linux -->
<g id="edge3" class="edge">
<title>Books&#45;&gt;Linux</title>
<path fill="none" stroke="#555555" stroke-opacity="0.133333" d="M1043.1,-1368.1C929.73,-1370.7 703.54,-1376 591.57,-1378.5"/>
<polygon fill="#555555" fill-opacity="0.133333" stroke="#555555" stroke-opacity="0.133333" points="591.31,-1375.01 581.42,-1378.8 591.52,-1382 591.31,-1375.01"/>
</g>
<!-- Books&#45;&gt;Texts -->
<g id="edge4" class="edge">
<title>Books&#45;&gt;Texts</title>
<path fill="none" stroke="#555555" stroke-opacity="0.133333" d="M1104.5,-1392.9C1083.4,-1476.7 1017.8,-1736.5 994.25,-1829.7"/>
<polygon fill="#555555" fill-opacity="0.133333" stroke="#555555" stroke-opacity="0.133333" points="990.83,-1828.95 991.79,-1839.5 997.62,-1830.65 990.83,-1828.95"/>
</g>
<!-- Management&#45;&gt;The Mythical Man&#45;Month -->
<g id="edge5" class="edge">
<title>Management&#45;&gt;The Mythical Man&#45;Month</title>
<path fill="none" stroke="#555555" stroke-opacity="0.133333" d="M1025.2,-856.02C988.48,-862.48 946.44,-869.88 910,-876.3"/>
<polygon fill="#555555" fill-opacity="0.133333" stroke="#555555" stroke-opacity="0.133333" points="909.12,-872.9 899.88,-878.08 910.34,-879.79 909.12,-872.9"/>
</g>
<!-- Management&#45;&gt;Agile technologies, Extreme Programming and RUP. -->
<g id="edge6" class="edge">
<title>Management&#45;&gt;Agile technologies, Extreme Programming and RUP.</title>
<path fill="none" stroke="#555555" stroke-opacity="0.133333" d="M1085.3,-816.39C1030.5,-777.12 920.54,-698.23 865.23,-658.56"/>
<polygon fill="#555555" fill-opacity="0.133333" stroke="#555555" stroke-opacity="0.133333" points="867.01,-655.53 856.84,-652.54 862.92,-661.21 867.01,-655.53"/>
</g>
<!-- Management&#45;&gt;Human factor. Successful projects and commands. -->
<g id="edge7" class="edge">
<title>Management&#45;&gt;Human factor. Successful projects and commands.</title>
<path fill="none" stroke="#555555" stroke-opacity="0.133333" d="M1138.4,-815.95C1164.2,-786.23 1208.2,-735.51 1234.9,-704.73"/>
<polygon fill="#555555" fill-opacity="0.133333" stroke="#555555" stroke-opacity="0.133333" points="1237.73,-706.81 1241.7,-696.99 1232.47,-702.19 1237.73,-706.81"/>
</g>
<!-- Management&#45;&gt;Scrum and XP, notes from frontline -->
<g id="edge8" class="edge">
<title>Management&#45;&gt;Scrum and XP, notes from frontline</title>
<path fill="none" stroke="#555555" stroke-opacity="0.133333" d="M1111.8,-815.51C1098.8,-763.09 1068.2,-639.34 1054.4,-583.7"/>
<polygon fill="#555555" fill-opacity="0.133333" stroke="#555555" stroke-opacity="0.133333" points="1057.75,-582.66 1051.9,-573.83 1050.96,-584.38 1057.75,-582.66"/>
</g>
<!-- Management&#45;&gt;The Phoenix Project: A Novel about IT, DevOps, and Helping Your Business Win -->
<g id="edge9" class="edge">
<title>Management&#45;&gt;The Phoenix Project: A Novel about IT, DevOps, and Helping Your Business Win</title>
<path fill="none" stroke="#555555" stroke-opacity="0.133333" d="M1152.9,-816.49C1221.9,-770.81 1374.6,-669.72 1444.4,-623.57"/>
<polygon fill="#555555" fill-opacity="0.133333" stroke="#555555" stroke-opacity="0.133333" points="1446.43,-626.42 1452.8,-617.95 1442.54,-620.6 1446.43,-626.42"/>
</g>
<!-- Management&#45;&gt;Jedi Techniques of Personal Effectiveness -->
<g id="edge10" class="edge">
<title>Management&#45;&gt;Jedi Techniques of Personal Effectiveness</title>
<path fill="none" stroke="#555555" stroke-opacity="0.133333" d="M1148.8,-863.08C1184,-889.54 1240.9,-932.43 1276.4,-959.15"/>
<polygon fill="#555555" fill-opacity="0.133333" stroke="#555555" stroke-opacity="0.133333" points="1274.4,-962.03 1284.5,-965.24 1278.61,-956.43 1274.4,-962.03"/>
</g>
<!-- Management&#45;&gt;Ruthless Management -->
<g id="edge11" class="edge">
<title>Management&#45;&gt;Ruthless Management</title>
<path fill="none" stroke="#555555" stroke-opacity="0.133333" d="M1095.9,-863.69C1063.9,-898.85 1004.4,-964.16 971.46,-1000.3"/>
<polygon fill="#555555" fill-opacity="0.133333" stroke="#555555" stroke-opacity="0.133333" points="968.6,-998.24 964.47,-1008 973.78,-1002.95 968.6,-998.24"/>
</g>
<!-- Management&#45;&gt;Ideal Executive -->
<g id="edge12" class="edge">
<title>Management&#45;&gt;Ideal Executive</title>
<path fill="none" stroke="#555555" stroke-opacity="0.133333" d="M1234.3,-830.83C1271.5,-827.99 1312,-824.89 1346.9,-822.23"/>
<polygon fill="#555555" fill-opacity="0.133333" stroke="#555555" stroke-opacity="0.133333" points="1347.39,-825.7 1357.1,-821.46 1346.86,-818.72 1347.39,-825.7"/>
</g>
<!-- Management&#45;&gt;The first 90 days -->
<g id="edge13" class="edge">
<title>Management&#45;&gt;The first 90 days</title>
<path fill="none" stroke="#555555" stroke-opacity="0.133333" d="M1034.5,-821.65C968.08,-807.24 876.1,-787.28 813.22,-773.64"/>
<polygon fill="#555555" fill-opacity="0.133333" stroke="#555555" stroke-opacity="0.133333" points="813.91,-770.21 803.39,-771.5 812.42,-777.05 813.91,-770.21"/>
</g>
<!-- Management&#45;&gt;Goldratt -->
<g id="edge14" class="edge">
<title>Management&#45;&gt;Goldratt</title>
<path fill="none" stroke="#555555" stroke-opacity="0.133333" d="M1112.6,-815.52C1094.3,-730.54 1033,-445.69 1012.2,-348.81"/>
<polygon fill="#555555" fill-opacity="0.133333" stroke="#555555" stroke-opacity="0.133333" points="1015.61,-348.04 1010.1,-338.99 1008.77,-349.5 1015.61,-348.04"/>
</g>
<!-- Management&#45;&gt;People -->
<g id="edge15" class="edge">
<title>Management&#45;&gt;People</title>
<path fill="none" stroke="#555555" stroke-opacity="0.133333" d="M1124.1,-863.89C1143.8,-940.18 1204.9,-1175.9 1227.5,-1262.8"/>
<polygon fill="#555555" fill-opacity="0.133333" stroke="#555555" stroke-opacity="0.133333" points="1224.14,-1263.78 1230,-1272.6 1230.92,-1262.05 1224.14,-1263.78"/>
</g>
<!-- Programming&#45;&gt;SRE. How google runs production software. -->
<g id="edge16" class="edge">
<title>Programming&#45;&gt;SRE. How google runs production software.</title>
<path fill="none" stroke="#555555" stroke-opacity="0.133333" d="M1882.1,-1447.7C1954.9,-1455.6 2050.5,-1466 2128.6,-1474.6"/>
<polygon fill="#555555" fill-opacity="0.133333" stroke="#555555" stroke-opacity="0.133333" points="2128.69,-1478.13 2139,-1475.7 2129.42,-1471.17 2128.69,-1478.13"/>
</g>
<!-- Programming&#45;&gt;The Pragmatic Programmer -->
<g id="edge17" class="edge">
<title>Programming&#45;&gt;The Pragmatic Programmer</title>
<path fill="none" stroke="#555555" stroke-opacity="0.133333" d="M1778,-1411.6C1794.2,-1358.6 1832.9,-1232 1850.1,-1175.8"/>
<polygon fill="#555555" fill-opacity="0.133333" stroke="#555555" stroke-opacity="0.133333" points="1853.49,-1176.69 1853.1,-1166.1 1846.8,-1174.62 1853.49,-1176.69"/>
</g>
<!-- Programming&#45;&gt;Facts and Fallacies of Software Engineering -->
<g id="edge18" class="edge">
<title>Programming&#45;&gt;Facts and Fallacies of Software Engineering</title>
<path fill="none" stroke="#555555" stroke-opacity="0.133333" d="M1726.9,-1412.8C1709.6,-1403.7 1689.8,-1393.4 1672.5,-1384.3"/>
<polygon fill="#555555" fill-opacity="0.133333" stroke="#555555" stroke-opacity="0.133333" points="1673.69,-1380.98 1663.2,-1379.5 1670.48,-1387.2 1673.69,-1380.98"/>
</g>
<!-- Programming&#45;&gt;Clean Code -->
<g id="edge19" class="edge">
<title>Programming&#45;&gt;Clean Code</title>
<path fill="none" stroke="#555555" stroke-opacity="0.133333" d="M1764.8,-1411.4C1754.2,-1367.6 1731.8,-1275.7 1720.5,-1229.2"/>
<polygon fill="#555555" fill-opacity="0.133333" stroke="#555555" stroke-opacity="0.133333" points="1723.86,-1228.19 1718.1,-1219.3 1717.05,-1229.84 1723.86,-1228.19"/>
</g>
<!-- Programming&#45;&gt;Extreme programming -->
<g id="edge20" class="edge">
<title>Programming&#45;&gt;Extreme programming</title>
<path fill="none" stroke="#555555" stroke-opacity="0.133333" d="M1753.4,-1459.4C1727.7,-1494.8 1679.8,-1560.9 1653.1,-1597.6"/>
<polygon fill="#555555" fill-opacity="0.133333" stroke="#555555" stroke-opacity="0.133333" points="1650.2,-1595.64 1647.2,-1605.8 1655.88,-1599.73 1650.2,-1595.64"/>
</g>
<!-- Programming&#45;&gt;Cracking the code Interview -->
<g id="edge21" class="edge">
<title>Programming&#45;&gt;Cracking the code Interview</title>
<path fill="none" stroke="#555555" stroke-opacity="0.133333" d="M1806.4,-1458.9C1830.3,-1474.5 1861.7,-1494.9 1885.6,-1510.6"/>
<polygon fill="#555555" fill-opacity="0.133333" stroke="#555555" stroke-opacity="0.133333" points="1883.8,-1513.61 1894.1,-1516.1 1887.61,-1507.73 1883.8,-1513.61"/>
</g>
<!-- Programming&#45;&gt;Distributed Systems, v3 -->
<g id="edge22" class="edge">
<title>Programming&#45;&gt;Distributed Systems, v3</title>
<path fill="none" stroke="#555555" stroke-opacity="0.133333" d="M1765.1,-1459.7C1751.5,-1518.7 1716.7,-1669.7 1702.3,-1732.5"/>
<polygon fill="#555555" fill-opacity="0.133333" stroke="#555555" stroke-opacity="0.133333" points="1698.83,-1731.97 1700,-1742.5 1705.65,-1733.54 1698.83,-1731.97"/>
</g>
<!-- Programming&#45;&gt;97 Things Every Software Architect Should Know -->
<g id="edge23" class="edge">
<title>Programming&#45;&gt;97 Things Every Software Architect Should Know</title>
<path fill="none" stroke="#555555" stroke-opacity="0.133333" d="M1792.6,-1459.3C1847.1,-1518.3 1988.6,-1671.5 2045,-1732.5"/>
<polygon fill="#555555" fill-opacity="0.133333" stroke="#555555" stroke-opacity="0.133333" points="2042.65,-1735.12 2052,-1740.1 2047.8,-1730.37 2042.65,-1735.12"/>
</g>
<!-- Programming&#45;&gt;The Clean Architecture -->
<g id="edge24" class="edge">
<title>Programming&#45;&gt;The Clean Architecture</title>
<path fill="none" stroke="#555555" stroke-opacity="0.133333" d="M1811.5,-1458.5C1883.2,-1498.8 2031,-1581.9 2102.2,-1621.9"/>
<polygon fill="#555555" fill-opacity="0.133333" stroke="#555555" stroke-opacity="0.133333" points="2100.87,-1625.16 2111.3,-1627 2104.29,-1619.06 2100.87,-1625.16"/>
</g>
<!-- Programming&#45;&gt;Languages -->
<g id="edge25" class="edge">
<title>Programming&#45;&gt;Languages</title>
<path fill="none" stroke="#555555" stroke-opacity="0.133333" d="M1812.2,-1412.7C1920,-1353.2 2208.4,-1194.1 2321.6,-1131.6"/>
<polygon fill="#555555" fill-opacity="0.133333" stroke="#555555" stroke-opacity="0.133333" points="2323.37,-1134.62 2330.4,-1126.7 2319.96,-1128.51 2323.37,-1134.62"/>
</g>
<!-- Linux&#45;&gt;Linux kernel primer -->
<g id="edge26" class="edge">
<title>Linux&#45;&gt;Linux kernel primer</title>
<path fill="none" stroke="#555555" stroke-opacity="0.133333" d="M473.06,-1387.9C420.97,-1395.6 340.2,-1407.5 278.1,-1416.7"/>
<polygon fill="#555555" fill-opacity="0.133333" stroke="#555555" stroke-opacity="0.133333" points="277.29,-1413.28 267.91,-1418.2 278.31,-1420.21 277.29,-1413.28"/>
</g>
<!-- Linux&#45;&gt;Linux Advanced Routing and Traffic Control -->
<g id="edge27" class="edge">
<title>Linux&#45;&gt;Linux Advanced Routing and Traffic Control</title>
<path fill="none" stroke="#555555" stroke-opacity="0.133333" d="M498.32,-1400C446.56,-1437.8 334.42,-1519.7 278.75,-1560.3"/>
<polygon fill="#555555" fill-opacity="0.133333" stroke="#555555" stroke-opacity="0.133333" points="276.6,-1557.54 270.64,-1566.3 280.76,-1563.17 276.6,-1557.54"/>
</g>
<!-- Linux&#45;&gt;Unix in a nutshell -->
<g id="edge28" class="edge">
<title>Linux&#45;&gt;Unix in a nutshell</title>
<path fill="none" stroke="#555555" stroke-opacity="0.133333" d="M502.75,-1359.3C482.39,-1340.9 452.59,-1314 431.05,-1294.5"/>
<polygon fill="#555555" fill-opacity="0.133333" stroke="#555555" stroke-opacity="0.133333" points="433.26,-1291.78 423.52,-1287.6 428.53,-1296.94 433.26,-1291.78"/>
</g>
<!-- Linux&#45;&gt;Art of the Unix programming -->
<g id="edge29" class="edge">
<title>Linux&#45;&gt;Art of the Unix programming</title>
<path fill="none" stroke="#555555" stroke-opacity="0.133333" d="M517.55,-1402.6C498.51,-1455.7 450.9,-1588.4 430.18,-1646.1"/>
<polygon fill="#555555" fill-opacity="0.133333" stroke="#555555" stroke-opacity="0.133333" points="426.82,-1645.11 426.75,-1655.7 433.41,-1647.46 426.82,-1645.11"/>
</g>
<!-- Linux&#45;&gt;Advanced Linux programming -->
<g id="edge30" class="edge">
<title>Linux&#45;&gt;Advanced Linux programming</title>
<path fill="none" stroke="#555555" stroke-opacity="0.133333" d="M483.73,-1364.9C416.31,-1340.5 283.65,-1292.5 207.72,-1265.1"/>
<polygon fill="#555555" fill-opacity="0.133333" stroke="#555555" stroke-opacity="0.133333" points="208.89,-1261.8 198.3,-1261.6 206.45,-1268.36 208.89,-1261.8"/>
</g>
<!-- Linux&#45;&gt;Network Performance Tuning (RHEL) -->
<g id="edge31" class="edge">
<title>Linux&#45;&gt;Network Performance Tuning (RHEL)</title>
<path fill="none" stroke="#555555" stroke-opacity="0.133333" d="M510.16,-1358.3C475.05,-1309 389.48,-1188.7 351.35,-1135.1"/>
<polygon fill="#555555" fill-opacity="0.133333" stroke="#555555" stroke-opacity="0.133333" points="354.09,-1132.92 345.44,-1126.8 348.39,-1136.98 354.09,-1132.92"/>
</g>
<!-- Linux&#45;&gt;Packagecloud blog posts: Monitoring and tuning Linux networking stack: sending data &amp; receiving data -->
<g id="edge32" class="edge">
<title>Linux&#45;&gt;Packagecloud blog posts: Monitoring and tuning Linux networking stack: sending data &amp; receiving data</title>
<path fill="none" stroke="#555555" stroke-opacity="0.133333" d="M528.65,-1357.2C534.03,-1316.2 545.28,-1230.7 551.12,-1186.3"/>
<polygon fill="#555555" fill-opacity="0.133333" stroke="#555555" stroke-opacity="0.133333" points="554.61,-1186.57 552.44,-1176.2 547.67,-1185.66 554.61,-1186.57"/>
</g>
<!-- Linux&#45;&gt;Linux Kernel, Robert Love -->
<g id="edge33" class="edge">
<title>Linux&#45;&gt;Linux Kernel, Robert Love</title>
<path fill="none" stroke="#555555" stroke-opacity="0.133333" d="M535.06,-1402.6C548.65,-1435.1 573.74,-1495.2 588.45,-1530.3"/>
<polygon fill="#555555" fill-opacity="0.133333" stroke="#555555" stroke-opacity="0.133333" points="585.41,-1532.11 592.48,-1540 591.88,-1529.42 585.41,-1532.11"/>
</g>
<!-- Texts&#45;&gt;  -->
<g id="edge34" class="edge">
<title>Texts&#45;&gt; </title>
<path fill="none" stroke="#555555" stroke-opacity="0.133333" d="M967.88,-1886.6C933,-1931.7 856.04,-2031.4 819.48,-2078.7"/>
<polygon fill="#555555" fill-opacity="0.133333" stroke="#555555" stroke-opacity="0.133333" points="816.65,-2076.63 813.35,-2086.7 822.21,-2080.89 816.65,-2076.63"/>
</g>
<!-- Texts&#45;&gt;    -->
<g id="edge35" class="edge">
<title>Texts&#45;&gt;   </title>
<path fill="none" stroke="#555555" stroke-opacity="0.133333" d="M1002.6,-1886.5C1032.1,-1926.9 1092.9,-2010.2 1124,-2052.6"/>
<polygon fill="#555555" fill-opacity="0.133333" stroke="#555555" stroke-opacity="0.133333" points="1121.22,-2054.73 1129.9,-2060.8 1126.9,-2050.64 1121.22,-2054.73"/>
</g>
<!-- Texts&#45;&gt;   -->
<g id="edge36" class="edge">
<title>Texts&#45;&gt;  </title>
<path fill="none" stroke="#555555" stroke-opacity="0.133333" d="M983.97,-1887.5C979.9,-1942.9 969.86,-2079.2 965.5,-2138.5"/>
<polygon fill="#555555" fill-opacity="0.133333" stroke="#555555" stroke-opacity="0.133333" points="962,-2138.37 964.76,-2148.6 968.98,-2138.88 962,-2138.37"/>
</g>
<!-- Texts&#45;&gt; -->
<g id="edge37" class="edge">
<title>Texts&#45;&gt;</title>
<path fill="none" stroke="#555555" stroke-opacity="0.133333" d="M939.42,-1877.4C904.69,-1887.9 857.13,-1902.2 821.01,-1913.1"/>
<polygon fill="#555555" fill-opacity="0.133333" stroke="#555555" stroke-opacity="0.133333" points="819.69,-1909.84 811.14,-1916.1 821.73,-1916.54 819.69,-1909.84"/>
</g>
<!-- Goldratt&#45;&gt;Isn&#39;t It Obvious? Retailing and the Theory of Constraints -->
<g id="edge38" class="edge">
<title>Goldratt&#45;&gt;Isn&#39;t It Obvious? Retailing and the Theory of Constraints</title>
<path fill="none" stroke="#555555" stroke-opacity="0.133333" d="M986.89,-293.79C948.84,-247.04 861.28,-139.47 820.68,-89.58"/>
<polygon fill="#555555" fill-opacity="0.133333" stroke="#555555" stroke-opacity="0.133333" points="823.15,-87.07 814.12,-81.53 817.72,-91.49 823.15,-87.07"/>
</g>
<!-- Goldratt&#45;&gt;The Choice -->
<g id="edge39" class="edge">
<title>Goldratt&#45;&gt;The Choice</title>
<path fill="none" stroke="#555555" stroke-opacity="0.133333" d="M1036.4,-295.36C1087.2,-261.37 1187.5,-194.38 1239.6,-159.54"/>
<polygon fill="#555555" fill-opacity="0.133333" stroke="#555555" stroke-opacity="0.133333" points="1241.81,-162.28 1248.2,-153.83 1237.93,-156.45 1241.81,-162.28"/>
</g>
<!-- Goldratt&#45;&gt;The Goal -->
<g id="edge40" class="edge">
<title>Goldratt&#45;&gt;The Goal</title>
<path fill="none" stroke="#555555" stroke-opacity="0.133333" d="M962,-297.36C904.82,-272.35 804.62,-228.53 748.07,-203.8"/>
<polygon fill="#555555" fill-opacity="0.133333" stroke="#555555" stroke-opacity="0.133333" points="749.27,-200.51 738.71,-199.71 746.47,-206.92 749.27,-200.51"/>
</g>
<!-- Goldratt&#45;&gt;Critical Chain -->
<g id="edge41" class="edge">
<title>Goldratt&#45;&gt;Critical Chain</title>
<path fill="none" stroke="#555555" stroke-opacity="0.133333" d="M1015.8,-293.82C1041.2,-240.03 1105.7,-103.81 1133.4,-45.34"/>
<polygon fill="#555555" fill-opacity="0.133333" stroke="#555555" stroke-opacity="0.133333" points="1136.71,-46.53 1137.9,-36.01 1130.4,-43.49 1136.71,-46.53"/>
</g>
<!-- People&#45;&gt;The Inmates Are Running the Asylum -->
<g id="edge42" class="edge">
<title>People&#45;&gt;The Inmates Are Running the Asylum</title>
<path fill="none" stroke="#555555" stroke-opacity="0.133333" d="M1230.3,-1317.9C1218.2,-1366.1 1189.8,-1478.9 1176.5,-1531.7"/>
<polygon fill="#555555" fill-opacity="0.133333" stroke="#555555" stroke-opacity="0.133333" points="1173.03,-1531.15 1174,-1541.7 1179.82,-1532.85 1173.03,-1531.15"/>
</g>
<!-- People&#45;&gt;Game theory, the art of strategy -->
<g id="edge43" class="edge">
<title>People&#45;&gt;Game theory, the art of strategy</title>
<path fill="none" stroke="#555555" stroke-opacity="0.133333" d="M1211.4,-1316.4C1172.4,-1349.9 1096.2,-1415.3 1054.6,-1450.9"/>
<polygon fill="#555555" fill-opacity="0.133333" stroke="#555555" stroke-opacity="0.133333" points="1052.11,-1448.43 1046.8,-1457.6 1056.67,-1453.74 1052.11,-1448.43"/>
</g>
<!-- People&#45;&gt;Republic (Plato) -->
<g id="edge44" class="edge">
<title>People&#45;&gt;Republic (Plato)</title>
<path fill="none" stroke="#555555" stroke-opacity="0.133333" d="M1246.3,-1317.8C1272.1,-1373.2 1338.6,-1516.5 1366.5,-1576.7"/>
<polygon fill="#555555" fill-opacity="0.133333" stroke="#555555" stroke-opacity="0.133333" points="1363.39,-1578.32 1370.8,-1585.9 1369.74,-1575.36 1363.39,-1578.32"/>
</g>
<!-- People&#45;&gt;Politics -->
<g id="edge45" class="edge">
<title>People&#45;&gt;Politics</title>
<path fill="none" stroke="#555555" stroke-opacity="0.133333" d="M1265,-1315.8C1298.8,-1339.5 1354.3,-1378.5 1388.7,-1402.7"/>
<polygon fill="#555555" fill-opacity="0.133333" stroke="#555555" stroke-opacity="0.133333" points="1386.8,-1405.64 1397,-1408.5 1390.81,-1399.9 1386.8,-1405.64"/>
</g>
<!-- Languages&#45;&gt;An Introducion to programming on Go -->
<g id="edge46" class="edge">
<title>Languages&#45;&gt;An Introducion to programming on Go</title>
<path fill="none" stroke="#555555" stroke-opacity="0.133333" d="M2398.9,-1084.2C2443.7,-1052.6 2526.6,-994.04 2573,-961.26"/>
<polygon fill="#555555" fill-opacity="0.133333" stroke="#555555" stroke-opacity="0.133333" points="2575.06,-964.09 2581.2,-955.46 2571.01,-958.38 2575.06,-964.09"/>
</g>
<!-- Languages&#45;&gt;C Programming language -->
<g id="edge47" class="edge">
<title>Languages&#45;&gt;C Programming language</title>
<path fill="none" stroke="#555555" stroke-opacity="0.133333" d="M2462.1,-1100.1C2487.2,-1098.6 2514.7,-1096.9 2541.2,-1095.3"/>
<polygon fill="#555555" fill-opacity="0.133333" stroke="#555555" stroke-opacity="0.133333" points="2541.62,-1098.78 2551.4,-1094.7 2541.21,-1091.79 2541.62,-1098.78"/>
</g>
<!-- Languages&#45;&gt;Dive into python -->
<g id="edge48" class="edge">
<title>Languages&#45;&gt;Dive into python</title>
<path fill="none" stroke="#555555" stroke-opacity="0.133333" d="M2377.2,-1083.3C2397.2,-1033 2445.4,-912 2467.1,-857.47"/>
<polygon fill="#555555" fill-opacity="0.133333" stroke="#555555" stroke-opacity="0.133333" points="2470.38,-858.69 2470.8,-848.1 2463.87,-856.12 2470.38,-858.69"/>
</g>
<!-- Languages&#45;&gt;Advanced Bash Scripting Guide -->
<g id="edge49" class="edge">
<title>Languages&#45;&gt;Advanced Bash Scripting Guide</title>
<path fill="none" stroke="#555555" stroke-opacity="0.133333" d="M2401.9,-1127.2C2449.1,-1157.2 2534.5,-1211.3 2583.2,-1242.2"/>
<polygon fill="#555555" fill-opacity="0.133333" stroke="#555555" stroke-opacity="0.133333" points="2581.58,-1245.31 2591.9,-1247.7 2585.32,-1239.4 2581.58,-1245.31"/>
</g>
<!-- Languages&#45;&gt;The main question of coding, refactoring and everything. -->
<g id="edge50" class="edge">
<title>Languages&#45;&gt;The main question of coding, refactoring and everything.</title>
<path fill="none" stroke="#555555" stroke-opacity="0.133333" d="M2362.3,-1128.6C2352.6,-1166.3 2333,-1241.9 2322.5,-1282.8"/>
<polygon fill="#555555" fill-opacity="0.133333" stroke="#555555" stroke-opacity="0.133333" points="2319.08,-1282.04 2319.9,-1292.6 2325.85,-1283.83 2319.08,-1282.04"/>
</g>
<!-- Languages&#45;&gt;Enough rope to shoot yourself in the foot -->
<g id="edge51" class="edge">
<title>Languages&#45;&gt;Enough rope to shoot yourself in the foot</title>
<path fill="none" stroke="#555555" stroke-opacity="0.133333" d="M2374.1,-1128.5C2378.7,-1146.2 2385.1,-1170.9 2390.1,-1189.8"/>
<polygon fill="#555555" fill-opacity="0.133333" stroke="#555555" stroke-opacity="0.133333" points="2386.74,-1190.78 2392.6,-1199.6 2393.52,-1189.05 2386.74,-1190.78"/>
</g>
<!-- Languages&#45;&gt;Learning SQL, O&#39;Reilly -->
<g id="edge52" class="edge">
<title>Languages&#45;&gt;Learning SQL, O&#39;Reilly</title>
<path fill="none" stroke="#555555" stroke-opacity="0.133333" d="M2359.1,-1083C2340.3,-1035.6 2297.2,-926.85 2276.9,-875.59"/>
<polygon fill="#555555" fill-opacity="0.133333" stroke="#555555" stroke-opacity="0.133333" points="2280.08,-874.11 2273.1,-866.14 2273.58,-876.72 2280.08,-874.11"/>
</g>
<!-- Languages&#45;&gt;C++ today. Beast is back -->
<g id="edge53" class="edge">
<title>Languages&#45;&gt;C++ today. Beast is back</title>
<path fill="none" stroke="#555555" stroke-opacity="0.133333" d="M2287.6,-1118.5C2269.4,-1121.3 2249.7,-1124.4 2230.9,-1127.3"/>
<polygon fill="#555555" fill-opacity="0.133333" stroke="#555555" stroke-opacity="0.133333" points="2230.13,-1123.88 2220.8,-1128.9 2231.22,-1130.79 2230.13,-1123.88"/>
</g>
<!-- Books -->
<g id="node1" class="node">
<title>Books</title>
<text text-anchor="middle" x="1111.1" y="-1360.3" font-family="Helvetica,sans-Serif" font-weight="bold" font-size="26.00">Books</text>
</g>
<!-- Management -->
<g id="node2" class="node">
<title>Management</title>
<text text-anchor="middle" x="1117.8" y="-833.52" font-family="Helvetica,sans-Serif" font-weight="bold" font-size="24.00">Management</text>
</g>
<!-- Programming -->
<g id="node3" class="node">
<title>Programming</title>
<text text-anchor="middle" x="1770.7" y="-1429.4" font-family="Helvetica,sans-Serif" font-weight="bold" font-size="24.00">Programming</text>
</g>
<!-- Linux -->
<g id="node4" class="node">
<title>Linux</title>
<text text-anchor="middle" x="525.64" y="-1374.5" font-family="Helvetica,sans-Serif" font-weight="bold" font-size="22.00">Linux</text>
</g>
<!-- Texts -->
<g id="node5" class="node">
<title>Texts</title>
<text text-anchor="middle" x="985.74" y="-1857.2" font-family="Helvetica,sans-Serif" font-weight="bold" font-size="24.00">Texts</text>
</g>
<!-- The Mythical Man&#45;Month -->
<g id="node6" class="node">
<title>The Mythical Man&#45;Month</title>
<text text-anchor="middle" x="819.89" y="-888.46" font-family="Helvetica,sans-Serif" font-weight="bold" font-size="14.00">The Mythical Man&#45;Month</text>
</g>
<!-- Agile technologies, Extreme Programming and RUP. -->
<g id="node7" class="node">
<title>Agile technologies, Extreme Programming and RUP.</title>
<text text-anchor="middle" x="831.85" y="-630.92" font-family="Helvetica,sans-Serif" font-weight="bold" font-size="14.00">Agile technologies, Extreme Programming and RUP.</text>
</g>
<!-- Human factor. Successful projects and commands. -->
<g id="node8" class="node">
<title>Human factor. Successful projects and commands.</title>
<text text-anchor="middle" x="1257.6" y="-674.93" font-family="Helvetica,sans-Serif" font-weight="bold" font-size="14.00">Human factor. Successful projects and commands.</text>
</g>
<!-- Scrum and XP, notes from frontline -->
<g id="node9" class="node">
<title>Scrum and XP, notes from frontline</title>
<text text-anchor="middle" x="1047.4" y="-552.04" font-family="Helvetica,sans-Serif" font-weight="bold" font-size="14.00">Scrum and XP, notes from frontline</text>
</g>
<!-- The Phoenix Project: A Novel about IT, DevOps, and Helping Your Business Win -->
<g id="node10" class="node">
<title>The Phoenix Project: A Novel about IT, DevOps, and Helping Your Business Win</title>
<text text-anchor="middle" x="1480.3" y="-596.05" font-family="Helvetica,sans-Serif" font-weight="bold" font-size="14.00">The Phoenix Project: A Novel about IT, DevOps, and Helping Your Business Win</text>
</g>
<!-- Jedi Techniques of Personal Effectiveness -->
<g id="node11" class="node">
<title>Jedi Techniques of Personal Effectiveness</title>
<text text-anchor="middle" x="1308.3" y="-979.45" font-family="Helvetica,sans-Serif" font-weight="bold" font-size="14.00">Jedi Techniques of Personal Effectiveness</text>
</g>
<!-- Ruthless Management -->
<g id="node12" class="node">
<title>Ruthless Management</title>
<text text-anchor="middle" x="948.05" y="-1022.3" font-family="Helvetica,sans-Serif" font-weight="bold" font-size="14.00">Ruthless Management</text>
</g>
<!-- Ideal Executive -->
<g id="node13" class="node">
<title>Ideal Executive</title>
<text text-anchor="middle" x="1435.4" y="-811.78" font-family="Helvetica,sans-Serif" font-weight="bold" font-size="14.00">Ideal Executive</text>
</g>
<!-- The first 90 days -->
<g id="node14" class="node">
<title>The first 90 days</title>
<text text-anchor="middle" x="742.49" y="-754.59" font-family="Helvetica,sans-Serif" font-weight="bold" font-size="14.00">The first 90 days</text>
</g>
<!-- Goldratt -->
<g id="node15" class="node">
<title>Goldratt</title>
<text text-anchor="middle" x="1005.2" y="-310.63" font-family="Helvetica,sans-Serif" font-weight="bold" font-size="22.00">Goldratt</text>
</g>
<!-- People -->
<g id="node16" class="node">
<title>People</title>
<text text-anchor="middle" x="1235.9" y="-1289.8" font-family="Helvetica,sans-Serif" font-weight="bold" font-size="22.00">People</text>
</g>
<!-- SRE. How google runs production software. -->
<g id="node17" class="node">
<title>SRE. How google runs production software.</title>
<text text-anchor="middle" x="2270" y="-1486.3" font-family="Helvetica,sans-Serif" font-weight="bold" font-size="14.00">SRE. How google runs production software.</text>
</g>
<!-- The Pragmatic Programmer -->
<g id="node18" class="node">
<title>The Pragmatic Programmer</title>
<text text-anchor="middle" x="1858.6" y="-1144.4" font-family="Helvetica,sans-Serif" font-weight="bold" font-size="14.00">The Pragmatic Programmer</text>
</g>
<!-- Facts and Fallacies of Software Engineering -->
<g id="node19" class="node">
<title>Facts and Fallacies of Software Engineering</title>
<text text-anchor="middle" x="1628.8" y="-1357.9" font-family="Helvetica,sans-Serif" font-weight="bold" font-size="14.00">Facts and Fallacies of Software Engineering</text>
</g>
<!-- Clean Code -->
<g id="node20" class="node">
<title>Clean Code</title>
<text text-anchor="middle" x="1713.7" y="-1197.4" font-family="Helvetica,sans-Serif" font-weight="bold" font-size="14.00">Clean Code</text>
</g>
<!-- Extreme programming -->
<g id="node21" class="node">
<title>Extreme programming</title>
<text text-anchor="middle" x="1634.1" y="-1620.1" font-family="Helvetica,sans-Serif" font-weight="bold" font-size="14.00">Extreme programming</text>
</g>
<!-- Cracking the code Interview -->
<g id="node22" class="node">
<title>Cracking the code Interview</title>
<text text-anchor="middle" x="1921.6" y="-1530.3" font-family="Helvetica,sans-Serif" font-weight="bold" font-size="14.00">Cracking the code Interview</text>
</g>
<!-- Distributed Systems, v3 -->
<g id="node23" class="node">
<title>Distributed Systems, v3</title>
<text text-anchor="middle" x="1695.8" y="-1756.9" font-family="Helvetica,sans-Serif" font-weight="bold" font-size="14.00">Distributed Systems, v3</text>
</g>
<!-- 97 Things Every Software Architect Should Know -->
<g id="node24" class="node">
<title>97 Things Every Software Architect Should Know</title>
<text text-anchor="middle" x="2068.6" y="-1754.4" font-family="Helvetica,sans-Serif" font-weight="bold" font-size="14.00">97 Things Every Software Architect Should Know</text>
</g>
<!-- The Clean Architecture -->
<g id="node25" class="node">
<title>The Clean Architecture</title>
<text text-anchor="middle" x="2142.3" y="-1640.8" font-family="Helvetica,sans-Serif" font-weight="bold" font-size="14.00">The Clean Architecture</text>
</g>
<!-- Languages -->
<g id="node26" class="node">
<title>Languages</title>
<text text-anchor="middle" x="2368.2" y="-1100.3" font-family="Helvetica,sans-Serif" font-weight="bold" font-size="22.00">Languages</text>
</g>
<!-- Linux kernel primer -->
<g id="node27" class="node">
<title>Linux kernel primer</title>
<text text-anchor="middle" x="189.12" y="-1426.2" font-family="Helvetica,sans-Serif" font-weight="bold" font-size="14.00">Linux kernel primer</text>
</g>
<!-- Linux Advanced Routing and Traffic Control -->
<g id="node28" class="node">
<title>Linux Advanced Routing and Traffic Control</title>
<text text-anchor="middle" x="246.03" y="-1580.5" font-family="Helvetica,sans-Serif" font-weight="bold" font-size="14.00">Linux Advanced Routing and Traffic Control</text>
</g>
<!-- Unix in a nutshell -->
<g id="node29" class="node">
<title>Unix in a nutshell</title>
<text text-anchor="middle" x="403.94" y="-1266.2" font-family="Helvetica,sans-Serif" font-weight="bold" font-size="14.00">Unix in a nutshell</text>
</g>
<!-- Art of the Unix programming -->
<g id="node30" class="node">
<title>Art of the Unix programming</title>
<text text-anchor="middle" x="420.29" y="-1670" font-family="Helvetica,sans-Serif" font-weight="bold" font-size="14.00">Art of the Unix programming</text>
</g>
<!-- Advanced Linux programming -->
<g id="node31" class="node">
<title>Advanced Linux programming</title>
<text text-anchor="middle" x="150.79" y="-1240.8" font-family="Helvetica,sans-Serif" font-weight="bold" font-size="14.00">Advanced Linux programming</text>
</g>
<!-- Network Performance Tuning (RHEL) -->
<g id="node32" class="node">
<title>Network Performance Tuning (RHEL)</title>
<text text-anchor="middle" x="332.47" y="-1104.8" font-family="Helvetica,sans-Serif" font-weight="bold" font-size="14.00">Network Performance Tuning (RHEL)</text>
</g>
<!-- Packagecloud blog posts: Monitoring and tuning Linux networking stack: sending data &amp; receiving data -->
<g id="node33" class="node">
<title>Packagecloud blog posts: Monitoring and tuning Linux networking stack: sending data &amp; receiving data</title>
<text text-anchor="middle" x="554.82" y="-1154.5" font-family="Helvetica,sans-Serif" font-weight="bold" font-size="14.00">Packagecloud blog posts: Monitoring and tuning Linux networking stack: sending data &amp; receiving data</text>
</g>
<!-- Linux Kernel, Robert Love -->
<g id="node34" class="node">
<title>Linux Kernel, Robert Love</title>
<text text-anchor="middle" x="600.03" y="-1554.3" font-family="Helvetica,sans-Serif" font-weight="bold" font-size="14.00">Linux Kernel, Robert Love</text>
</g>
<!--   -->
<g id="node35" class="node">
<title> </title>
<text text-anchor="middle" x="799.43" y="-2101" font-family="Helvetica,sans-Serif" font-weight="bold" font-size="14.00"> </text>
</g>
<!--     -->
<g id="node36" class="node">
<title>   </title>
<text text-anchor="middle" x="1143" y="-2075" font-family="Helvetica,sans-Serif" font-weight="bold" font-size="14.00">   </text>
</g>
<!--    -->
<g id="node37" class="node">
<title>  </title>
<text text-anchor="middle" x="963.42" y="-2163" font-family="Helvetica,sans-Serif" font-weight="bold" font-size="14.00">  </text>
</g>
<!--  -->
<g id="node38" class="node">
<title></title>
<text text-anchor="middle" x="768.57" y="-1925.2" font-family="Helvetica,sans-Serif" font-weight="bold" font-size="14.00"></text>
</g>
<!-- Isn&#39;t It Obvious? Retailing and the Theory of Constraints -->
<g id="node39" class="node">
<title>Isn&#39;t It Obvious? Retailing and the Theory of Constraints</title>
<text text-anchor="middle" x="799.29" y="-59.6" font-family="Helvetica,sans-Serif" font-weight="bold" font-size="14.00">Isn&#39;t It Obvious? Retailing and the Theory of Constraints</text>
</g>
<!-- The Choice -->
<g id="node40" class="node">
<title>The Choice</title>
<text text-anchor="middle" x="1272.9" y="-133.6" font-family="Helvetica,sans-Serif" font-weight="bold" font-size="14.00">The Choice</text>
</g>
<!-- The Goal -->
<g id="node41" class="node">
<title>The Goal</title>
<text text-anchor="middle" x="706.16" y="-181.77" font-family="Helvetica,sans-Serif" font-weight="bold" font-size="14.00">The Goal</text>
</g>
<!-- Critical Chain -->
<g id="node42" class="node">
<title>Critical Chain</title>
<text text-anchor="middle" x="1146.4" y="-14.3" font-family="Helvetica,sans-Serif" font-weight="bold" font-size="14.00">Critical Chain</text>
</g>
<!-- The Inmates Are Running the Asylum -->
<g id="node43" class="node">
<title>The Inmates Are Running the Asylum</title>
<text text-anchor="middle" x="1169.5" y="-1556.2" font-family="Helvetica,sans-Serif" font-weight="bold" font-size="14.00">The Inmates Are Running the Asylum</text>
</g>
<!-- Game theory, the art of strategy -->
<g id="node44" class="node">
<title>Game theory, the art of strategy</title>
<text text-anchor="middle" x="1025.9" y="-1471.9" font-family="Helvetica,sans-Serif" font-weight="bold" font-size="14.00">Game theory, the art of strategy</text>
</g>
<!-- Republic (Plato) -->
<g id="node45" class="node">
<title>Republic (Plato)</title>
<text text-anchor="middle" x="1379.2" y="-1600.2" font-family="Helvetica,sans-Serif" font-weight="bold" font-size="14.00">Republic (Plato)</text>
</g>
<!-- Politics -->
<g id="node46" class="node">
<title>Politics</title>
<text text-anchor="middle" x="1419.3" y="-1420.5" font-family="Helvetica,sans-Serif" font-weight="bold" font-size="14.00">Politics</text>
</g>
<!-- An Introducion to programming on Go -->
<g id="node47" class="node">
<title>An Introducion to programming on Go</title>
<text text-anchor="middle" x="2606.7" y="-933.76" font-family="Helvetica,sans-Serif" font-weight="bold" font-size="14.00">An Introducion to programming on Go</text>
</g>
<!-- C Programming language -->
<g id="node48" class="node">
<title>C Programming language</title>
<text text-anchor="middle" x="2670.3" y="-1083.7" font-family="Helvetica,sans-Serif" font-weight="bold" font-size="14.00">C Programming language</text>
</g>
<!-- Dive into python -->
<g id="node49" class="node">
<title>Dive into python</title>
<text text-anchor="middle" x="2478" y="-826.32" font-family="Helvetica,sans-Serif" font-weight="bold" font-size="14.00">Dive into python</text>
</g>
<!-- Advanced Bash Scripting Guide -->
<g id="node50" class="node">
<title>Advanced Bash Scripting Guide</title>
<text text-anchor="middle" x="2619.9" y="-1261.8" font-family="Helvetica,sans-Serif" font-weight="bold" font-size="14.00">Advanced Bash Scripting Guide</text>
</g>
<!-- The main question of coding, refactoring and everything. -->
<g id="node51" class="node">
<title>The main question of coding, refactoring and everything.</title>
<text text-anchor="middle" x="2315.3" y="-1306.9" font-family="Helvetica,sans-Serif" font-weight="bold" font-size="14.00">The main question of coding, refactoring and everything.</text>
</g>
<!-- Enough rope to shoot yourself in the foot -->
<g id="node52" class="node">
<title>Enough rope to shoot yourself in the foot</title>
<text text-anchor="middle" x="2397.4" y="-1214.1" font-family="Helvetica,sans-Serif" font-weight="bold" font-size="14.00">Enough rope to shoot yourself in the foot</text>
</g>
<!-- Learning SQL, O&#39;Reilly -->
<g id="node53" class="node">
<title>Learning SQL, O&#39;Reilly</title>
<text text-anchor="middle" x="2265.9" y="-844.18" font-family="Helvetica,sans-Serif" font-weight="bold" font-size="14.00">Learning SQL, O&#39;Reilly</text>
</g>
<!-- C++ today. Beast is back -->
<g id="node54" class="node">
<title>C++ today. Beast is back</title>
<text text-anchor="middle" x="2135.1" y="-1138.6" font-family="Helvetica,sans-Serif" font-weight="bold" font-size="14.00">C++ today. Beast is back</text>
</g>
</g>
</svg>
