<?xml version="1.0" encoding="UTF-8" standalone="no"?>
<!DOCTYPE svg PUBLIC "-//W3C//DTD SVG 1.1//EN"
 "http://www.w3.org/Graphics/SVG/1.1/DTD/svg11.dtd">
<!-- Generated by graphviz version 2.41.20171130.1738 (20171130.1738)
 -->
<!-- Title: G Pages: 1 -->
<svg width="2534pt" height="1941pt"
 viewBox="0.00 0.00 2533.85 1940.53" xmlns="http://www.w3.org/2000/svg" xmlns:xlink="http://www.w3.org/1999/xlink">
<g id="graph0" class="graph" transform="scale(1 1) rotate(0) translate(113.97 1732.67)">
<title>G</title>
<polygon fill="#dae2ff" stroke="transparent" points="-113.97,207.86 -113.97,-1732.67 2419.87,-1732.67 2419.87,207.86 -113.97,207.86"/>
<polygon fill="#fbb4ae" stroke="#fbb4ae" points="1305.77,-582.15 1309.31,-580.55 1363.85,-554.19 1424.57,-569.38 1429.26,-570.65 1526.12,-694.75 1529.69,-708.39 1548.3,-773.65 1531.91,-790.06 1523.11,-798.5 1504.66,-815.46 1503.34,-816.62 1500.02,-819.4 1486.66,-830.01 1479.3,-836.56 1462.94,-849.6 1442.19,-864.25 1438.04,-866.98 1421.49,-876.37 1418.36,-878 1406.01,-883.88 1395.01,-888.61 1389.6,-890.68 1378.87,-894.31 1367.67,-897.58 1364.88,-898.26 1353.5,-900.54 1315.1,-906.45 1306.48,-908.23 1292.84,-911.74 1277.88,-917.14 1260.25,-924.43 1149.16,-975.93 1107.77,-994.01 1104.91,-815.26 1105.02,-806.42 1104.81,-793.95 1104.87,-788.99 1098.34,-648.61 1257.96,-599.55 1281.59,-591.58 1286.12,-589.92 1305.77,-582.15 1305.77,-582.15"/>
<polygon fill="#fed9a6" stroke="#fed9a6" points="842.53,-64.46 844.42,-59.54 878.93,37.51 937.58,99.05 1024.7,100.81 1025.61,100.85 1038.98,102.23 1048.91,100.91 1061.16,99.96 1060.47,-61.89 1060.52,-61.92 1060.31,-183.16 1069.67,-62.26 1077.45,-62.26 1077.73,-62.14 1085.05,-62.14 1085.2,-62.07 1085.2,-62.07 1085.05,-62.14 1077.73,-62.14 1077.45,-62.26 1069.67,-62.26 1060.31,-183.16 1060.52,-61.92 1060.47,-61.89 1061.16,99.96 1069.51,99.55 1072.92,99.47 1090.77,99.58 1110.25,100.78 1112.88,101.02 1132.19,103.82 1144.52,106.29 1148.7,107.25 1152.03,107.52 1163.34,108.76 1163.97,108.84 1168.67,107.93 1181.11,105.84 1188.83,104.76 1204.24,103.01 1206.87,102.79 1210.44,102.58 1218.37,102.33 1244.25,102.93 1250.67,103.44 1261.84,101.37 1276.24,99.52 1281.03,99.03 1283.17,18.17 1280.53,-61.96 1281.27,-62.32 1288.76,-62.32 1290.04,-61.69 1297.14,-61.69 1297.76,-62 1306.64,-62 1305.07,-96.61 1310.38,-96.87 1314.27,-96.42 1320.27,-96.72 1322.91,-96.42 1328.91,-96.73 1332.63,-96.3 1338.34,-96.6 1337.1,-130.96 1345.83,-130.96 1345.88,-95.75 1353.76,-93.57 1364.29,-88.91 1362.23,-131.14 1371.3,-131.14 1370.18,-85.36 1377.78,-79.51 1379.68,-126.57 1387.63,-126.57 1391.34,-66.75 1394.14,-63.68 1396.66,-131.25 1404.81,-131.25 1404.86,-131.27 1412.89,-131.27 1412.89,-131.27 1404.86,-131.27 1404.81,-131.25 1396.66,-131.25 1394.14,-63.68 1391.34,-66.75 1387.63,-126.57 1379.68,-126.57 1377.78,-79.51 1370.18,-85.36 1371.3,-131.14 1362.23,-131.14 1364.29,-88.91 1353.76,-93.57 1345.88,-95.75 1345.83,-130.96 1337.1,-130.96 1338.34,-96.6 1332.63,-96.3 1328.91,-96.73 1322.91,-96.42 1320.27,-96.72 1314.27,-96.42 1310.38,-96.87 1305.07,-96.61 1306.64,-62 1297.76,-62 1297.14,-61.69 1290.04,-61.69 1288.76,-62.32 1281.27,-62.32 1280.53,-61.96 1283.17,18.17 1281.03,99.03 1300.45,98.17 1326.25,98.47 1352.68,101 1420.25,96.96 1447.06,117.34 1560.45,156.58 1585.23,166.62 1590.19,168.77 1591.45,169.35 1601.01,174.05 1632.3,191.31 1636.98,194.3 1651.28,203.86 1654.92,201.35 1654.26,-17.59 1646.11,-17.59 1644.77,-18.23 1638.37,-18.23 1637.56,-17.08 1628.47,-12.56 1628.47,-12.56 1637.56,-17.08 1638.37,-18.23 1644.77,-18.23 1646.11,-17.59 1654.26,-17.59 1654.92,201.35 1661.55,196.97 1678.54,186.26 1688.88,180.37 1700.92,173.85 1771.3,137.88 1828.53,92.2 1852.35,48.54 1933.39,-3.7 1949.96,-23.21 1981.54,-118.51 1840.14,-118.51 1814.69,-113.35 1808.02,-118.45 1805.91,-118.45 1805.6,-118.6 1798.03,-118.6 1797.42,-118.31 1789.12,-118.31 1788.76,-118.48 1780.73,-118.48 1780.44,-118.62 1772.97,-118.62 1771.86,-120.19 1763.48,-124.09 1763.89,-197.63 1761.35,-197.88 1760.89,-197.9 1760.16,-276.66 1760.88,-277.01 1755.69,-347.36 1751.23,-276.86 1743.27,-276.86 1742.98,-276.72 1735.65,-276.72 1728.47,-360.04 1726.19,-276.63 1725.85,-276.46 1718.27,-276.46 1714.51,-388.62 1713.9,-388.62 1709.14,-276.42 1708.31,-276.42 1701.05,-281.78 1675.91,-276.61 1611.99,-276.61 1618.07,-320.87 1606.12,-320.87 1606.12,-320.87 1618.07,-320.87 1611.99,-276.61 1675.91,-276.61 1701.05,-281.78 1708.31,-276.42 1709.14,-276.42 1713.9,-388.62 1710.03,-388.79 1701.78,-388.78 1697.97,-388.94 1694.9,-388.92 1691.34,-498.01 1691.34,-498.01 1694.9,-388.92 1697.97,-388.94 1701.78,-388.78 1710.03,-388.79 1713.9,-388.62 1714.51,-388.62 1718.27,-276.46 1725.85,-276.46 1726.19,-276.63 1728.47,-360.04 1735.65,-276.72 1742.98,-276.72 1743.27,-276.86 1751.23,-276.86 1755.69,-347.36 1760.88,-277.01 1760.16,-276.66 1760.89,-197.9 1761.35,-197.88 1763.89,-197.63 1763.48,-124.09 1771.86,-120.19 1772.97,-118.62 1780.44,-118.62 1780.73,-118.48 1788.76,-118.48 1789.12,-118.31 1797.42,-118.31 1798.03,-118.6 1805.6,-118.6 1805.91,-118.45 1808.02,-118.45 1814.69,-113.35 1840.14,-118.51 1981.54,-118.51 1982.74,-121.55 1903.93,-171.79 1891.74,-178.82 1881.3,-183.59 1867.59,-189.03 1865.24,-189.83 1849.53,-194.17 1842.47,-195.69 1822.8,-197.56 1817.04,-197.75 1814.69,-197.69 1810.57,-274.85 1811.82,-276.69 1810.35,-278.81 1802.68,-282.22 1802.68,-282.22 1810.35,-278.81 1811.82,-276.69 1810.57,-274.85 1814.69,-197.69 1817.04,-197.75 1822.8,-197.56 1842.47,-195.69 1849.53,-194.17 1865.24,-189.83 1867.59,-189.03 1881.3,-183.59 1891.74,-178.82 1903.93,-171.79 1982.74,-121.55 2025.24,-154.83 2075.62,-268.89 2081.96,-282.26 2082.2,-284.46 2085.23,-306.61 2019.17,-347.72 1995.96,-360.06 1993.43,-361.28 1972.76,-369.41 1970.55,-370.17 1970.3,-370.24 1950.66,-375.27 1943.01,-376.88 1943.01,-376.88 1950.66,-375.27 1970.3,-370.24 1970.55,-370.17 1972.76,-369.41 1993.43,-361.28 1995.96,-360.06 2019.17,-347.72 2085.23,-306.61 2172.59,-389.67 2188.94,-483.76 2193.83,-504.9 2195.79,-597.02 2191.78,-599.28 2183.79,-603.56 2156.54,-616.6 2144.18,-621.79 2143.34,-622.1 2124.52,-628.4 2106.15,-634.02 2061.07,-646.51 2051.4,-660.27 1985.14,-767.87 1964.36,-799.03 1901.83,-793.89 1885.06,-793.09 1881.59,-793.17 1868.32,-792.94 1866.85,-792.86 1859.07,-792.95 1855.74,-792.86 1850.49,-792.9 1841.27,-793.29 1836.09,-793.09 1829.99,-793.08 1827.66,-793.15 1810.85,-794.28 1808.48,-794.52 1792.19,-796.75 1784.97,-797.99 1776.63,-799.71 1769.87,-801.35 1761.65,-803.62 1750.29,-807.16 1651.51,-841.34 1548.3,-773.65 1529.69,-708.39 1526.12,-694.75 1429.26,-570.65 1424.57,-569.38 1363.85,-554.19 1275.14,-341.08 1259.95,-309.54 1136.85,-259.97 1126.85,-260.45 1126.14,-260.51 1113.71,-261.95 1096.98,-264.26 1077.46,-268.28 1059.22,-272.45 1038.57,-278.57 1022.5,-284.05 1014.48,-286.96 988.73,-296.9 977.84,-284.42 826.33,-103.37 842.53,-64.46 842.53,-64.46"/>
<polygon fill="#b3cde3" stroke="#b3cde3" points="451.21,-1403.8 444.01,-1403.29 370.73,-1400.11 349.91,-1394.66 335.84,-1382.8 282.48,-1270.56 309.68,-1243.9 316.12,-1238 320.65,-1233.22 335.11,-1219.02 342.56,-1212.3 349.99,-1206.17 358.56,-1199.74 370.47,-1191.73 374.79,-1189.16 382.98,-1184.9 393.98,-1180.01 404.4,-1176.17 410.96,-1174.26 449,-1166.03 468.72,-1158.9 475.93,-1155.26 496.26,-1143.48 501.5,-1139.71 510.44,-1132.61 511.51,-1127.39 520.52,-1092.15 524.91,-1089.81 528.8,-1087.95 542.73,-1082.05 547.87,-1080.15 558.57,-1076.78 564.22,-1075.31 582.81,-1071.48 590.95,-1070.69 604.87,-1070.11 612.61,-1070.21 612.77,-1070.2 630.48,-1068.56 634.72,-1067.94 641.54,-1066.59 648.91,-1064.74 659.62,-1061.48 669.53,-1057.94 681.12,-1053.19 685.3,-1051.26 694.67,-1046.45 700.82,-1042.62 704.1,-1021.63 705.19,-1016.32 706.54,-1007.88 713.69,-944.7 705.09,-939.89 688.59,-929.64 671.17,-919.93 671.03,-919.86 665.11,-917.35 645.85,-910.39 641.28,-909.05 633.64,-907.3 622.45,-905.47 621.87,-905.42 606.08,-904.9 602.92,-905 595.27,-904.75 593.33,-904.56 584.89,-904.84 571.7,-904.42 571.35,-904.38 559.4,-902.44 550.61,-900.43 539.79,-897.25 533.32,-894.93 524.01,-890.99 513.54,-885.86 503.07,-880.06 501.54,-879.11 497.2,-876.14 493.29,-863.52 488.76,-845.91 558.79,-833.65 558.79,-833.65 488.76,-845.91 476.09,-810.18 507.86,-790.04 516.27,-784.02 526.22,-777.76 534.21,-773.43 542.24,-769.76 546.55,-768.16 561.22,-763.94 571.93,-761.78 575.69,-761.35 587.47,-761.01 592.22,-761.28 593,-761.26 607.11,-759.64 618.56,-757.34 626.84,-754.98 631.99,-753.07 642.82,-748.13 651.25,-743.57 657.6,-739.6 665.75,-733.78 680.91,-721.63 685.33,-717.72 705.94,-697.73 714.46,-691.03 749.57,-702.16 767.36,-696.6 777.67,-693.8 787.21,-691.59 794.86,-690.13 807.6,-688.22 824.03,-687.09 833.69,-686.82 835.86,-686.67 841.88,-686.49 849.51,-686.9 855.2,-686.73 864.82,-686.85 870.93,-686.67 877.67,-686.75 883.73,-686.57 890.03,-686.13 890.25,-691.09 899.95,-803.98 900.33,-804.51 900.02,-804.95 900.02,-804.95 900.33,-804.51 899.95,-803.98 890.25,-691.09 890.03,-686.13 909.92,-683.11 920.61,-681.05 940.49,-675.6 944.36,-674.38 1068.21,-630.35 1098.34,-648.61 1104.87,-788.99 1104.81,-793.95 1105.02,-806.42 1104.91,-815.26 1107.77,-994.01 1106.3,-997.04 1106.78,-1044.15 1106.28,-1102.66 1105.36,-1104.93 1103.77,-1109.04 1061.04,-1153.19 1061.03,-1153.19 1059.52,-1154 1046.52,-1160.58 1036.35,-1165.49 1014.04,-1175.22 999.61,-1181.17 997.09,-1182.15 992.95,-1183.47 964.11,-1207.49 958.2,-1212.17 798.28,-1345.94 776.37,-1363.3 756.1,-1408.93 640.14,-1403.7 622.06,-1400.89 608.73,-1399.2 598.84,-1398.22 586.96,-1397.38 590.27,-1238.48 598.53,-1238.48 598.83,-1238.34 606.91,-1238.34 607.5,-1238.06 610.46,-1238.06 615.28,-1242.46 694.1,-1243.13 708.21,-1257.26 721.84,-1273.8 739.67,-1299.35 754.12,-1323.24 771.24,-1353.34 774.37,-1359.16 774.34,-1291.56 769.76,-1159.44 770.82,-1158.92 776.02,-1158.92 778.18,-1156.42 782.17,-1083.47 807.28,-1088.02 824.86,-1092.48 824.85,-1089.7 829.4,-1016.8 837.89,-1016.8 842.68,-1011.64 838.79,-1007.86 838.79,-1007.86 842.68,-1011.64 837.89,-1016.8 829.4,-1016.8 824.85,-1089.7 824.86,-1092.48 807.28,-1088.02 782.17,-1083.47 778.18,-1156.42 776.02,-1158.92 770.82,-1158.92 769.76,-1159.44 774.34,-1291.56 774.37,-1359.16 771.24,-1353.34 754.12,-1323.24 739.67,-1299.35 721.84,-1273.8 708.21,-1257.26 694.1,-1243.13 615.28,-1242.46 610.46,-1238.06 607.5,-1238.06 606.91,-1238.34 598.83,-1238.34 598.53,-1238.48 590.27,-1238.48 586.96,-1397.38 574.56,-1396.85 575.82,-1329.91 575.82,-1329.91 574.56,-1396.85 572.56,-1396.88 558.01,-1397.49 542.03,-1398.62 534.47,-1399.37 519.02,-1401.77 518.53,-1315.53 522.76,-1239.81 530.69,-1243.48 530.69,-1243.48 522.76,-1239.81 518.53,-1315.53 519.02,-1401.77 500.27,-1405.74 493.52,-1407.36 489.53,-1408.43 488.83,-1408.64 480.69,-1407.18 476.42,-1406.53 466.49,-1405.29 451.21,-1403.8 451.21,-1403.8"/>
<polygon fill="#decbe4" stroke="#decbe4" points="1014.04,-1175.22 999.61,-1181.17 997.09,-1182.15 992.95,-1183.47 964.11,-1207.49 958.2,-1212.17 798.28,-1345.94 776.37,-1363.3 756.1,-1408.93 779.41,-1462.91 790.68,-1490.8 825.92,-1547.59 849.53,-1562.35 880.59,-1605.63 909.5,-1648.36 971.62,-1695 1024.65,-1722.38 1051.51,-1716.78 1053.44,-1716.42 1068.93,-1714.01 1080.89,-1712.46 1086.84,-1711.84 1091.8,-1711.46 1100.34,-1711.03 1117.99,-1711.07 1125,-1711.27 1138.77,-1712.02 1161.5,-1714.47 1161.38,-1655.22 1159.34,-1606.86 1161.43,-1539.4 1170.32,-1539.4 1164.65,-1452.67 1164.57,-1444.88 1182.74,-1447.72 1196.63,-1448.44 1201,-1448.43 1203.23,-1448.31 1209.6,-1448.31 1219.02,-1448.79 1219.95,-1448.78 1220.42,-1448.81 1229.64,-1448.79 1237.39,-1448.37 1237.57,-1448.35 1238.79,-1448.28 1242.21,-1448.27 1244.68,-1448.39 1249.06,-1448.38 1255.3,-1359.72 1263,-1363.17 1271.99,-1358.83 1272.85,-1357.62 1272.14,-1356.62 1272.14,-1356.62 1272.85,-1357.62 1271.99,-1358.83 1263,-1363.17 1269.78,-1445.28 1269.87,-1448.35 1281.14,-1448.3 1281.74,-1448.33 1284.23,-1448.32 1291.91,-1442.51 1291.91,-1442.51 1284.23,-1448.32 1281.74,-1448.33 1281.14,-1448.3 1269.87,-1448.35 1269.78,-1445.28 1263,-1363.17 1255.3,-1359.72 1249.06,-1448.38 1244.68,-1448.39 1242.21,-1448.27 1238.79,-1448.28 1237.57,-1448.35 1237.39,-1448.37 1229.64,-1448.79 1220.42,-1448.81 1219.95,-1448.78 1219.02,-1448.79 1209.6,-1448.31 1203.23,-1448.31 1201,-1448.43 1196.63,-1448.44 1182.74,-1447.72 1164.57,-1444.88 1164.65,-1452.67 1170.32,-1539.4 1161.43,-1539.4 1159.34,-1606.86 1161.38,-1655.22 1161.5,-1714.47 1179.18,-1717.77 1192.43,-1720.59 1197.42,-1721.79 1201.32,-1722.93 1214.92,-1718.95 1234.71,-1714.22 1250.05,-1711.39 1259.7,-1709.87 1265.96,-1709.05 1280.19,-1707.96 1290.97,-1707.42 1300.12,-1707.22 1303.34,-1707.23 1325.11,-1707.91 1329.49,-1708.29 1340.18,-1709.48 1345.14,-1710.17 1360.79,-1712.78 1372.68,-1715.39 1373.51,-1715.49 1391.7,-1718.11 1414.83,-1723.26 1434.56,-1728.67 1436.93,-1727.39 1440.34,-1725.74 1498.36,-1699.42 1582.52,-1636.28 1630.83,-1618.78 1660.57,-1575.27 1839.82,-1490.32 1843.02,-1485.04 1864.19,-1440.89 1885.36,-1399.2 1891.54,-1382.64 1903.86,-1371.97 1892.97,-1196.2 1893.03,-1179.2 1888.16,-1100.63 1885.68,-1099.34 1860.03,-1087.01 1847.42,-1081.98 1838.94,-1078.94 1748.44,-1050.18 1751.53,-1191.48 1746.34,-1196.34 1751.4,-1200.92 1752.61,-1318.1 1849.44,-1363.96 1663.14,-1397.49 1660.06,-1401.22 1654.34,-1401.22 1651.51,-1515.39 1644.85,-1401.17 1644.64,-1401.06 1636.9,-1401.06 1636.64,-1400.94 1628.01,-1400.94 1628,-1400.94 1618.92,-1400.94 1618.82,-1400.99 1614.88,-1400.99 1610.58,-1396.85 1610.58,-1396.85 1614.88,-1400.99 1618.82,-1400.99 1618.92,-1400.94 1628,-1400.94 1628.01,-1400.94 1636.64,-1400.94 1636.9,-1401.06 1644.64,-1401.06 1644.85,-1401.17 1651.51,-1515.39 1654.34,-1401.22 1660.06,-1401.22 1663.14,-1397.49 1658.52,-1298.58 1671.55,-1298.68 1673.01,-1201.51 1651.16,-1196.2 1622.62,-1196.2 1599.77,-1102.14 1579.05,-1107.03 1557.59,-1111.14 1547.24,-1112.18 1541.73,-1112.49 1538.28,-1212.67 1529.57,-1216.73 1528.77,-1217.85 1530.24,-1220.09 1538.12,-1223.82 1538.12,-1223.82 1530.24,-1220.09 1528.77,-1217.85 1529.57,-1216.73 1538.28,-1212.67 1541.73,-1112.49 1547.24,-1112.18 1557.59,-1111.14 1579.05,-1107.03 1599.77,-1102.14 1622.62,-1196.2 1651.16,-1196.2 1673.01,-1201.51 1671.55,-1298.68 1658.52,-1298.58 1663.14,-1397.49 1849.44,-1363.96 1752.61,-1318.1 1751.4,-1200.92 1746.34,-1196.34 1742.58,-1196.34 1742.51,-1196.3 1734.3,-1196.3 1733.78,-1196.05 1725.54,-1196.05 1723.27,-1275.35 1716.14,-1200.96 1721.22,-1195.86 1716.91,-1191.84 1716.91,-1191.84 1721.22,-1195.86 1716.14,-1200.96 1723.27,-1275.35 1725.54,-1196.05 1733.78,-1196.05 1734.3,-1196.3 1742.51,-1196.3 1742.58,-1196.34 1746.34,-1196.34 1751.53,-1191.48 1748.44,-1050.18 1745.99,-1049.32 1737.53,-1046.02 1727.46,-1041.74 1708.65,-1033.07 1697.32,-1027.05 1694.31,-1025.34 1684.71,-980.79 1681.43,-963.01 1670.61,-912.34 1651.51,-841.34 1548.3,-773.65 1531.91,-790.06 1523.11,-798.5 1504.66,-815.46 1503.34,-816.62 1500.02,-819.4 1492.57,-1006.89 1485.27,-1006.89 1479.76,-960.26 1474.56,-1007.21 1467.68,-1007.21 1467.26,-1007.41 1458.75,-1007.41 1457.36,-1006.71 1450.42,-1006.71 1449.93,-1006.04 1440.9,-1001.69 1440.9,-1001.69 1449.93,-1006.04 1450.42,-1006.71 1457.36,-1006.71 1458.75,-1007.41 1467.26,-1007.41 1467.68,-1007.21 1474.56,-1007.21 1479.76,-960.26 1485.27,-1006.89 1492.57,-1006.89 1500.02,-819.4 1486.66,-830.01 1479.3,-836.56 1462.94,-849.6 1442.19,-864.25 1438.04,-866.98 1421.49,-876.37 1418.36,-878 1406.01,-883.88 1395.01,-888.61 1389.6,-890.68 1378.87,-894.31 1367.67,-897.58 1364.88,-898.26 1353.5,-900.54 1315.1,-906.45 1306.48,-908.23 1292.84,-911.74 1277.88,-917.14 1260.25,-924.43 1149.16,-975.93 1107.77,-994.01 1106.3,-997.04 1106.78,-1044.15 1106.28,-1102.66 1105.36,-1104.93 1103.77,-1109.04 1061.04,-1153.19 1061.03,-1153.19 1059.52,-1154 1046.52,-1160.58 1036.35,-1165.49 1014.04,-1175.22 1014.04,-1175.22"/>
<polygon fill="#fbb4ae" stroke="#fbb4ae" points="2372,-880.39 2374.34,-805.46 2376.16,-784.76 2333.34,-684.63 2231.46,-614.46 2206.92,-602.89 2206.36,-708.61 2210.41,-800.01 2201.15,-805.67 2201.05,-805.62 2193.11,-805.62 2192.87,-805.5 2184.3,-805.5 2184.17,-805.44 2175.47,-805.44 2174.94,-805.18 2171.44,-805.18 2167.12,-801.18 2167.12,-801.18 2171.44,-805.18 2174.94,-805.18 2175.47,-805.44 2184.17,-805.44 2184.3,-805.5 2192.87,-805.5 2193.11,-805.62 2201.05,-805.62 2201.15,-805.67 2210.41,-800.01 2206.36,-708.61 2206.92,-602.89 2195.79,-597.02 2191.78,-599.28 2183.79,-603.56 2156.54,-616.6 2144.18,-621.79 2143.34,-622.1 2124.52,-628.4 2106.15,-634.02 2061.07,-646.51 2051.4,-660.27 1985.14,-767.87 1964.36,-799.03 1901.83,-793.89 1885.06,-793.09 1881.59,-793.17 1877.99,-920.82 1877.99,-920.82 1881.59,-793.17 1868.32,-792.94 1866.85,-792.86 1859.07,-792.95 1855.74,-792.86 1850.49,-792.9 1841.27,-793.29 1836.09,-793.09 1829.99,-793.08 1827.66,-793.15 1810.85,-794.28 1808.48,-794.52 1792.19,-796.75 1784.97,-797.99 1776.63,-799.71 1769.87,-801.35 1761.65,-803.62 1750.29,-807.16 1651.51,-841.34 1670.61,-912.34 1681.43,-963.01 1684.71,-980.79 1694.31,-1025.34 1697.32,-1027.05 1708.65,-1033.07 1727.46,-1041.74 1737.53,-1046.02 1745.99,-1049.32 1748.44,-1050.18 1838.94,-1078.94 1847.42,-1081.98 1860.03,-1087.01 1885.68,-1099.34 1888.16,-1100.63 1893.03,-1179.2 1892.97,-1196.2 1903.86,-1371.97 2035.69,-1365.46 2054.67,-1365.43 2059.35,-1362.97 2060,-1362.67 2076.63,-1355.41 2080.21,-1353.96 2090.44,-1350.1 2102.22,-1345.13 2102.82,-1344.89 2199.48,-1310.05 2281.84,-1194.63 2312.12,-1186.4 2388.63,-1090.77 2398.05,-1052.52 2415.87,-988.78 2411.27,-968.17 2406.03,-941.1 2381.51,-895.28 2372,-880.39 2247.61,-905.93 2242.25,-906.79 2242.25,-906.79 2247.61,-905.93 2372,-880.39 2372,-880.39"/>
<polygon fill="#b3cde3" stroke="#b3cde3" points="598.83,-534.57 590.38,-527.16 585.87,-521.58 531.31,-465.53 530.56,-464.61 529.37,-463.57 514.24,-447.99 500.27,-431.59 499.4,-431.63 495.91,-431.64 494.15,-431.55 491.08,-431.54 486.85,-431.31 482.59,-431.28 476.52,-431.54 471.87,-431.5 469.68,-431.59 465.03,-431.53 462.52,-431.36 453.06,-431.21 447.82,-431.39 447,-431.45 436.25,-431.21 431.81,-431.32 418.96,-432.29 370.48,-438.29 317.37,-410.81 303.19,-402.79 300.52,-401.15 287.42,-392.46 278.85,-386.36 267.83,-377.98 270.88,-538.33 261.76,-533.61 252.34,-538.58 252.04,-539.04 243.59,-539.04 243.23,-539.22 234.8,-539.22 234.71,-539.26 225.77,-539.26 225.52,-539.39 217.03,-539.39 212.71,-616.73 210.25,-615.65 152.75,-594.69 150.79,-593.84 150.79,-593.84 152.75,-594.69 210.25,-615.65 212.71,-616.73 217.03,-539.39 225.52,-539.39 225.77,-539.26 234.71,-539.26 234.8,-539.22 243.23,-539.22 243.59,-539.04 252.04,-539.04 252.34,-538.58 261.76,-533.61 270.88,-538.33 267.83,-377.98 258.89,-370.76 246.85,-359.86 244.67,-357.99 231.94,-346.47 230.66,-347 221.65,-350.49 218.9,-351.47 213.45,-353.28 116.57,-382.57 33.06,-490.08 32.35,-490.31 -88.08,-571.86 -96.3,-671.69 -99.22,-692.39 -94.11,-756.06 -104.44,-777.92 -109.09,-852.8 -109.97,-862.59 -109.09,-866.34 -97.13,-924.71 -47.45,-1010.04 -4.6,-1034.59 51.82,-991.36 62.56,-983.73 71.64,-977.77 92.29,-966.5 101.13,-962.18 112.66,-957.83 124.16,-954.13 134.72,-951.31 138.08,-950.6 170.16,-945.62 189.62,-941.43 190.68,-941.07 203.91,-894.23 205.42,-883.1 216.25,-832.55 220.13,-818.8 223.54,-817.57 225.99,-816.84 230.8,-815.68 245.11,-813.08 254.91,-811.88 266.61,-811.14 275.08,-811.61 280.89,-811.58 284.05,-811.37 284.27,-811.34 279.66,-728.62 272.28,-728.62 270.97,-726.6 262.85,-722.66 262.85,-722.66 270.97,-726.6 272.28,-728.62 279.66,-728.62 284.27,-811.34 291.94,-810.84 302.51,-811.4 306.26,-811.38 306.37,-811.38 313.02,-811.33 314.11,-811.26 324.21,-811.18 329.37,-810.82 332.71,-810.79 339.49,-811.13 341.68,-811.37 342.11,-811.39 348.05,-811.33 349.23,-811.39 359.82,-811.27 361.04,-811.18 374.1,-811.03 375.84,-810.9 387.1,-809.43 394.52,-808.01 450.51,-793.95 438.36,-728.14 437.36,-712.34 433.04,-682.61 422.69,-636.65 440.53,-627.86 449.97,-623.77 467.61,-617.21 477.32,-614.78 492.13,-611.98 494.93,-611.62 507.26,-610.79 512.85,-610.76 520.41,-611.16 523.64,-611.15 524.61,-611.09 529.93,-611.07 532.78,-610.89 544.39,-610.88 552.77,-610.38 553.73,-610.27 576.43,-606.22 578.44,-605.75 582.25,-604.63 637.6,-585.03 631.34,-575.12 617.52,-555.21 617.41,-555.06 605.67,-541.51 598.83,-534.57 598.83,-534.57"/>
<polygon fill="#ccebc5" stroke="#ccebc5" points="713.69,-944.7 705.09,-939.89 688.59,-929.64 671.17,-919.93 671.03,-919.86 665.11,-917.35 645.85,-910.39 641.28,-909.05 633.64,-907.3 622.45,-905.47 621.87,-905.42 606.08,-904.9 602.92,-905 595.27,-904.75 593.33,-904.56 584.89,-904.84 571.7,-904.42 571.35,-904.38 559.4,-902.44 550.61,-900.43 539.79,-897.25 533.32,-894.93 524.01,-890.99 513.54,-885.86 503.07,-880.06 501.54,-879.11 497.2,-876.14 493.29,-863.52 488.76,-845.91 476.09,-810.18 507.86,-790.04 516.27,-784.02 526.22,-777.76 534.21,-773.43 542.24,-769.76 546.55,-768.16 561.22,-763.94 571.93,-761.78 575.69,-761.35 587.47,-761.01 592.22,-761.28 593,-761.26 607.11,-759.64 618.56,-757.34 626.84,-754.98 631.99,-753.07 642.82,-748.13 651.25,-743.57 657.6,-739.6 665.75,-733.78 680.91,-721.63 685.33,-717.72 705.94,-697.73 714.46,-691.03 749.57,-702.16 767.36,-696.6 777.67,-693.8 787.21,-691.59 794.86,-690.13 807.6,-688.22 807.94,-658.67 813.56,-573.73 808.92,-569.06 804.41,-569.06 804.64,-499.9 799.34,-502.95 782.57,-510.95 780.94,-511.56 780.94,-511.56 782.57,-510.95 799.34,-502.95 804.64,-499.9 804.41,-569.06 808.92,-569.06 813.56,-573.73 807.94,-658.67 807.6,-688.22 824.03,-687.09 833.69,-686.82 835.86,-686.67 841.88,-686.49 849.51,-686.9 855.2,-686.73 864.82,-686.85 870.93,-686.67 877.67,-686.75 883.73,-686.57 890.03,-686.13 909.92,-683.11 920.61,-681.05 940.49,-675.6 944.36,-674.38 1068.21,-630.35 1045.17,-579.51 1036.45,-558.87 962.14,-368.71 988.17,-298.31 988.73,-296.9 977.84,-284.42 826.33,-103.37 766.28,-111.32 749.6,-113.1 740.34,-115.17 734.43,-116.17 724.94,-117.52 703.98,-119.95 687.03,-120.54 687.53,-291.03 687.82,-291.17 685.18,-367.67 685.48,-377.68 669.73,-378.25 676.32,-463.81 676.77,-464.44 675.53,-466.22 667.12,-470.19 667.12,-470.19 675.53,-466.22 676.77,-464.44 676.32,-463.81 669.73,-378.25 685.48,-377.68 685.18,-367.67 687.82,-291.17 687.53,-291.03 687.03,-120.54 681.98,-120.59 664.09,-120.25 656.09,-119.67 633.53,-117.42 629.86,-116.96 628.09,-116.69 623.18,-115.8 607.59,-112.57 589.47,-107.84 588.53,-107.57 578.13,-104.3 575.89,-104.76 563.44,-107.04 554.23,-108.5 553.95,-108.53 531.37,-110.94 498.16,-113.64 412.44,-133.04 399.2,-131.56 350.13,-153.97 288.47,-225.81 259.6,-274.59 246.22,-310.79 231.94,-346.47 244.67,-357.99 246.85,-359.86 258.89,-370.76 267.83,-377.98 278.85,-386.36 287.42,-392.46 300.52,-401.15 303.19,-402.79 317.37,-410.81 370.48,-438.29 418.96,-432.29 431.81,-431.32 436.25,-431.21 447,-431.45 447.82,-431.39 453.06,-431.21 462.52,-431.36 465.03,-431.53 469.68,-431.59 471.87,-431.5 476.52,-431.54 482.59,-431.28 486.85,-431.31 491.08,-431.54 494.15,-431.55 495.91,-431.64 499.4,-431.63 500.27,-431.59 514.24,-447.99 529.37,-463.57 530.56,-464.61 531.31,-465.53 585.87,-521.58 588.29,-470.08 588.29,-470.08 585.87,-521.58 590.38,-527.16 598.83,-534.57 605.67,-541.51 617.41,-555.06 617.52,-555.21 631.34,-575.12 637.6,-585.03 582.25,-604.63 578.44,-605.75 576.43,-606.22 553.73,-610.27 552.77,-610.38 544.39,-610.88 532.78,-610.89 529.93,-611.07 524.61,-611.09 523.64,-611.15 520.41,-611.16 512.85,-610.76 507.26,-610.79 494.93,-611.62 492.13,-611.98 477.32,-614.78 467.61,-617.21 449.97,-623.77 440.53,-627.86 422.69,-636.65 433.04,-682.61 437.36,-712.34 438.36,-728.14 450.51,-793.95 394.52,-808.01 387.1,-809.43 375.84,-810.9 374.1,-811.03 361.04,-811.18 359.82,-811.27 349.23,-811.39 348.05,-811.33 342.11,-811.39 341.68,-811.37 339.49,-811.13 332.71,-810.79 329.37,-810.82 324.21,-811.18 314.11,-811.26 313.02,-811.33 306.37,-811.38 306.26,-811.38 302.51,-811.4 291.94,-810.84 284.27,-811.34 284.05,-811.37 280.89,-811.58 275.08,-811.61 266.61,-811.14 254.91,-811.88 245.11,-813.08 230.8,-815.68 225.99,-816.84 223.54,-817.57 220.13,-818.8 216.25,-832.55 205.42,-883.1 203.91,-894.23 190.68,-941.07 189.62,-941.43 170.16,-945.62 138.08,-950.6 134.72,-951.31 124.16,-954.13 112.66,-957.83 101.13,-962.18 92.29,-966.5 71.64,-977.77 62.56,-983.73 51.82,-991.36 -4.6,-1034.59 -4.07,-1035.7 49.08,-1164.94 159.13,-1211.9 172.52,-1212.14 175.34,-1212.27 186.59,-1190.3 195.67,-1173.91 204.13,-1159.86 208.79,-1152.8 218.88,-1138.84 222.53,-1133.21 227.79,-1125.96 227.79,-1125.96 222.53,-1133.21 218.88,-1138.84 208.79,-1152.8 204.13,-1159.86 195.67,-1173.91 186.59,-1190.3 175.34,-1212.27 282.48,-1270.56 309.68,-1243.9 316.12,-1238 320.65,-1233.22 335.11,-1219.02 342.56,-1212.3 349.99,-1206.17 358.56,-1199.74 370.47,-1191.73 374.79,-1189.16 382.98,-1184.9 393.98,-1180.01 404.4,-1176.17 410.96,-1174.26 449,-1166.03 468.72,-1158.9 475.93,-1155.26 496.26,-1143.48 501.5,-1139.71 510.44,-1132.61 511.51,-1127.39 520.52,-1092.15 524.91,-1089.81 528.8,-1087.95 542.73,-1082.05 547.87,-1080.15 558.57,-1076.78 564.22,-1075.31 582.81,-1071.48 590.95,-1070.69 604.87,-1070.11 612.61,-1070.21 612.77,-1070.2 630.48,-1068.56 634.72,-1067.94 641.54,-1066.59 648.91,-1064.74 659.62,-1061.48 669.53,-1057.94 681.12,-1053.19 685.3,-1051.26 694.67,-1046.45 700.82,-1042.62 704.1,-1021.63 705.19,-1016.32 706.54,-1007.88 713.69,-944.7 713.69,-944.7"/>
<polyline fill="none" stroke="#000000" points="1277.88,-917.14 1260.25,-924.43 1149.16,-975.93 1107.77,-994.01 1104.91,-815.26 1105.02,-806.42 1104.81,-793.95 1104.87,-788.99 1098.34,-648.61 1257.96,-599.55 1281.59,-591.58 1286.12,-589.92 1305.77,-582.15 1309.31,-580.55 1363.85,-554.19 1424.57,-569.38 1429.26,-570.65 1526.12,-694.75 1529.69,-708.39 1548.3,-773.65 1531.91,-790.06 1523.11,-798.5 1504.66,-815.46 1503.34,-816.62 1500.02,-819.4 1486.66,-830.01 1479.3,-836.56 1462.94,-849.6 1442.19,-864.25 1438.04,-866.98 1421.49,-876.37 1418.36,-878 1406.01,-883.88 1395.01,-888.61 1389.6,-890.68 1378.87,-894.31 1367.67,-897.58 1364.88,-898.26 1353.5,-900.54 1315.1,-906.45 1306.48,-908.23 1292.84,-911.74 1277.88,-917.14 "/>
<polyline fill="none" stroke="#000000" points="1429.26,-570.65 1526.12,-694.75 1529.69,-708.39 1548.3,-773.65 1651.51,-841.34 1750.29,-807.16 1761.65,-803.62 1769.87,-801.35 1776.63,-799.71 1784.97,-797.99 1792.19,-796.75 1808.48,-794.52 1810.85,-794.28 1827.66,-793.15 1829.99,-793.08 1836.09,-793.09 1841.27,-793.29 1850.49,-792.9 1855.74,-792.86 1859.07,-792.95 1866.85,-792.86 1868.32,-792.94 1881.59,-793.17 1885.06,-793.09 1901.83,-793.89 1964.36,-799.03 1985.14,-767.87 2051.4,-660.27 2061.07,-646.51 2106.15,-634.02 2124.52,-628.4 2143.34,-622.1 2144.18,-621.79 2156.54,-616.6 2183.79,-603.56 2191.78,-599.28 2195.79,-597.02 2193.83,-504.9 2188.94,-483.76 2172.59,-389.67 2085.23,-306.61 2082.2,-284.46 2081.96,-282.26 2075.62,-268.89 2025.24,-154.83 1982.74,-121.55 1981.54,-118.51 1949.96,-23.21 1933.39,-3.7 1852.35,48.54 1828.53,92.2 1771.3,137.88 1700.92,173.85 1688.88,180.37 1678.54,186.26 1661.55,196.97 1654.92,201.35 1651.28,203.86 1636.98,194.3 1632.3,191.31 1601.01,174.05 1591.45,169.35 1590.19,168.77 1585.23,166.62 1560.45,156.58 1447.06,117.34 1420.25,96.96 1352.68,101 1326.25,98.47 1300.45,98.17 1281.03,99.03 1276.24,99.52 1261.84,101.37 1250.67,103.44 1244.25,102.93 1218.37,102.33 1210.44,102.58 1206.87,102.79 1204.24,103.01 1188.83,104.76 1181.11,105.84 1168.67,107.93 1163.97,108.84 1163.34,108.76 1152.03,107.52 1148.7,107.25 1144.52,106.29 1132.19,103.82 1112.88,101.02 1110.25,100.78 1090.77,99.58 1072.92,99.47 1069.51,99.55 1061.16,99.96 1048.91,100.91 1038.98,102.23 1025.61,100.85 1024.7,100.81 937.58,99.05 878.93,37.51 844.42,-59.54 842.53,-64.46 826.33,-103.37 977.84,-284.42 988.73,-296.9 1014.48,-286.96 1022.5,-284.05 1038.57,-278.57 1059.22,-272.45 1077.46,-268.28 1096.98,-264.26 1113.71,-261.95 1126.14,-260.51 1126.85,-260.45 1136.85,-259.97 1259.95,-309.54 1275.14,-341.08 1363.85,-554.19 1424.57,-569.38 1429.26,-570.65 "/>
<polyline fill="none" stroke="#000000" points="621.87,-905.42 606.08,-904.9 602.92,-905 595.27,-904.75 593.33,-904.56 584.89,-904.84 571.7,-904.42 571.35,-904.38 559.4,-902.44 550.61,-900.43 539.79,-897.25 533.32,-894.93 524.01,-890.99 513.54,-885.86 503.07,-880.06 501.54,-879.11 497.2,-876.14 493.29,-863.52 488.76,-845.91 476.09,-810.18 507.86,-790.04 516.27,-784.02 526.22,-777.76 534.21,-773.43 542.24,-769.76 546.55,-768.16 561.22,-763.94 571.93,-761.78 575.69,-761.35 587.47,-761.01 592.22,-761.28 593,-761.26 607.11,-759.64 618.56,-757.34 626.84,-754.98 631.99,-753.07 642.82,-748.13 651.25,-743.57 657.6,-739.6 665.75,-733.78 680.91,-721.63 685.33,-717.72 705.94,-697.73 714.46,-691.03 749.57,-702.16 767.36,-696.6 777.67,-693.8 787.21,-691.59 794.86,-690.13 807.6,-688.22 824.03,-687.09 833.69,-686.82 835.86,-686.67 841.88,-686.49 849.51,-686.9 855.2,-686.73 864.82,-686.85 870.93,-686.67 877.67,-686.75 883.73,-686.57 890.03,-686.13 909.92,-683.11 920.61,-681.05 940.49,-675.6 944.36,-674.38 1068.21,-630.35 1098.34,-648.61 1104.87,-788.99 1104.81,-793.95 1105.02,-806.42 1104.91,-815.26 1107.77,-994.01 1106.3,-997.04 1106.78,-1044.15 1106.28,-1102.66 1105.36,-1104.93 1103.77,-1109.04 1061.04,-1153.19 1061.03,-1153.19 1059.52,-1154 1046.52,-1160.58 1036.35,-1165.49 1014.04,-1175.22 999.61,-1181.17 997.09,-1182.15 992.95,-1183.47 964.11,-1207.49 958.2,-1212.17 798.28,-1345.94 776.37,-1363.3 756.1,-1408.93 640.14,-1403.7 622.06,-1400.89 608.73,-1399.2 598.84,-1398.22 586.96,-1397.38 574.56,-1396.85 572.56,-1396.88 558.01,-1397.49 542.03,-1398.62 534.47,-1399.37 519.02,-1401.77 500.27,-1405.74 493.52,-1407.36 489.53,-1408.43 488.83,-1408.64 480.69,-1407.18 476.42,-1406.53 466.49,-1405.29 451.21,-1403.8 444.01,-1403.29 370.73,-1400.11 349.91,-1394.66 335.84,-1382.8 282.48,-1270.56 309.68,-1243.9 316.12,-1238 320.65,-1233.22 335.11,-1219.02 342.56,-1212.3 349.99,-1206.17 358.56,-1199.74 370.47,-1191.73 374.79,-1189.16 382.98,-1184.9 393.98,-1180.01 404.4,-1176.17 410.96,-1174.26 449,-1166.03 468.72,-1158.9 475.93,-1155.26 496.26,-1143.48 501.5,-1139.71 510.44,-1132.61 511.51,-1127.39 520.52,-1092.15 524.91,-1089.81 528.8,-1087.95 542.73,-1082.05 547.87,-1080.15 558.57,-1076.78 564.22,-1075.31 582.81,-1071.48 590.95,-1070.69 604.87,-1070.11 612.61,-1070.21 612.77,-1070.2 630.48,-1068.56 634.72,-1067.94 641.54,-1066.59 648.91,-1064.74 659.62,-1061.48 669.53,-1057.94 681.12,-1053.19 685.3,-1051.26 694.67,-1046.45 700.82,-1042.62 704.1,-1021.63 705.19,-1016.32 706.54,-1007.88 713.69,-944.7 705.09,-939.89 688.59,-929.64 671.17,-919.93 671.03,-919.86 665.11,-917.35 645.85,-910.39 641.28,-909.05 633.64,-907.3 622.45,-905.47 621.87,-905.42 "/>
<polyline fill="none" stroke="#000000" points="1106.28,-1102.66 1105.36,-1104.93 1103.77,-1109.04 1061.04,-1153.19 1061.03,-1153.19 1059.52,-1154 1046.52,-1160.58 1036.35,-1165.49 1014.04,-1175.22 999.61,-1181.17 997.09,-1182.15 992.95,-1183.47 964.11,-1207.49 958.2,-1212.17 798.28,-1345.94 776.37,-1363.3 756.1,-1408.93 779.41,-1462.91 790.68,-1490.8 825.92,-1547.59 849.53,-1562.35 880.59,-1605.63 909.5,-1648.36 971.62,-1695 1024.65,-1722.38 1051.51,-1716.78 1053.44,-1716.42 1068.93,-1714.01 1080.89,-1712.46 1086.84,-1711.84 1091.8,-1711.46 1100.34,-1711.03 1117.99,-1711.07 1125,-1711.27 1138.77,-1712.02 1161.5,-1714.47 1179.18,-1717.77 1192.43,-1720.59 1197.42,-1721.79 1201.32,-1722.93 1214.92,-1718.95 1234.71,-1714.22 1250.05,-1711.39 1259.7,-1709.87 1265.96,-1709.05 1280.19,-1707.96 1290.97,-1707.42 1300.12,-1707.22 1303.34,-1707.23 1325.11,-1707.91 1329.49,-1708.29 1340.18,-1709.48 1345.14,-1710.17 1360.79,-1712.78 1372.68,-1715.39 1373.51,-1715.49 1391.7,-1718.11 1414.83,-1723.26 1434.56,-1728.67 1436.93,-1727.39 1440.34,-1725.74 1498.36,-1699.42 1582.52,-1636.28 1630.83,-1618.78 1660.57,-1575.27 1839.82,-1490.32 1843.02,-1485.04 1864.19,-1440.89 1885.36,-1399.2 1891.54,-1382.64 1903.86,-1371.97 1892.97,-1196.2 1893.03,-1179.2 1888.16,-1100.63 1885.68,-1099.34 1860.03,-1087.01 1847.42,-1081.98 1838.94,-1078.94 1748.44,-1050.18 1745.99,-1049.32 1737.53,-1046.02 1727.46,-1041.74 1708.65,-1033.07 1697.32,-1027.05 1694.31,-1025.34 1684.71,-980.79 1681.43,-963.01 1670.61,-912.34 1651.51,-841.34 1548.3,-773.65 1531.91,-790.06 1523.11,-798.5 1504.66,-815.46 1503.34,-816.62 1500.02,-819.4 1486.66,-830.01 1479.3,-836.56 1462.94,-849.6 1442.19,-864.25 1438.04,-866.98 1421.49,-876.37 1418.36,-878 1406.01,-883.88 1395.01,-888.61 1389.6,-890.68 1378.87,-894.31 1367.67,-897.58 1364.88,-898.26 1353.5,-900.54 1315.1,-906.45 1306.48,-908.23 1292.84,-911.74 1277.88,-917.14 1260.25,-924.43 1149.16,-975.93 1107.77,-994.01 1106.3,-997.04 1106.78,-1044.15 1106.28,-1102.66 "/>
<polyline fill="none" stroke="#000000" points="1838.94,-1078.94 1748.44,-1050.18 1745.99,-1049.32 1737.53,-1046.02 1727.46,-1041.74 1708.65,-1033.07 1697.32,-1027.05 1694.31,-1025.34 1684.71,-980.79 1681.43,-963.01 1670.61,-912.34 1651.51,-841.34 1750.29,-807.16 1761.65,-803.62 1769.87,-801.35 1776.63,-799.71 1784.97,-797.99 1792.19,-796.75 1808.48,-794.52 1810.85,-794.28 1827.66,-793.15 1829.99,-793.08 1836.09,-793.09 1841.27,-793.29 1850.49,-792.9 1855.74,-792.86 1859.07,-792.95 1866.85,-792.86 1868.32,-792.94 1881.59,-793.17 1885.06,-793.09 1901.83,-793.89 1964.36,-799.03 1985.14,-767.87 2051.4,-660.27 2061.07,-646.51 2106.15,-634.02 2124.52,-628.4 2143.34,-622.1 2144.18,-621.79 2156.54,-616.6 2183.79,-603.56 2191.78,-599.28 2195.79,-597.02 2206.92,-602.89 2231.46,-614.46 2333.34,-684.63 2376.16,-784.76 2374.34,-805.46 2372,-880.39 2381.51,-895.28 2406.03,-941.1 2411.27,-968.17 2415.87,-988.78 2398.05,-1052.52 2388.63,-1090.77 2312.12,-1186.4 2281.84,-1194.63 2199.48,-1310.05 2102.82,-1344.89 2102.22,-1345.13 2090.44,-1350.1 2080.21,-1353.96 2076.63,-1355.41 2060,-1362.67 2059.35,-1362.97 2054.67,-1365.43 2035.69,-1365.46 1903.86,-1371.97 1892.97,-1196.2 1893.03,-1179.2 1888.16,-1100.63 1885.68,-1099.34 1860.03,-1087.01 1847.42,-1081.98 1838.94,-1078.94 "/>
<polyline fill="none" stroke="#000000" points="71.64,-977.77 62.56,-983.73 51.82,-991.36 -4.6,-1034.59 -47.45,-1010.04 -97.13,-924.71 -109.09,-866.34 -109.97,-862.59 -109.09,-852.8 -104.44,-777.92 -94.11,-756.06 -99.22,-692.39 -96.3,-671.69 -88.08,-571.86 32.35,-490.31 33.06,-490.08 116.57,-382.57 213.45,-353.28 218.9,-351.47 221.65,-350.49 230.66,-347 231.94,-346.47 244.67,-357.99 246.85,-359.86 258.89,-370.76 267.83,-377.98 278.85,-386.36 287.42,-392.46 300.52,-401.15 303.19,-402.79 317.37,-410.81 370.48,-438.29 418.96,-432.29 431.81,-431.32 436.25,-431.21 447,-431.45 447.82,-431.39 453.06,-431.21 462.52,-431.36 465.03,-431.53 469.68,-431.59 471.87,-431.5 476.52,-431.54 482.59,-431.28 486.85,-431.31 491.08,-431.54 494.15,-431.55 495.91,-431.64 499.4,-431.63 500.27,-431.59 514.24,-447.99 529.37,-463.57 530.56,-464.61 531.31,-465.53 585.87,-521.58 590.38,-527.16 598.83,-534.57 605.67,-541.51 617.41,-555.06 617.52,-555.21 631.34,-575.12 637.6,-585.03 582.25,-604.63 578.44,-605.75 576.43,-606.22 553.73,-610.27 552.77,-610.38 544.39,-610.88 532.78,-610.89 529.93,-611.07 524.61,-611.09 523.64,-611.15 520.41,-611.16 512.85,-610.76 507.26,-610.79 494.93,-611.62 492.13,-611.98 477.32,-614.78 467.61,-617.21 449.97,-623.77 440.53,-627.86 422.69,-636.65 433.04,-682.61 437.36,-712.34 438.36,-728.14 450.51,-793.95 394.52,-808.01 387.1,-809.43 375.84,-810.9 374.1,-811.03 361.04,-811.18 359.82,-811.27 349.23,-811.39 348.05,-811.33 342.11,-811.39 341.68,-811.37 339.49,-811.13 332.71,-810.79 329.37,-810.82 324.21,-811.18 314.11,-811.26 313.02,-811.33 306.37,-811.38 306.26,-811.38 302.51,-811.4 291.94,-810.84 284.27,-811.34 284.05,-811.37 280.89,-811.58 275.08,-811.61 266.61,-811.14 254.91,-811.88 245.11,-813.08 230.8,-815.68 225.99,-816.84 223.54,-817.57 220.13,-818.8 216.25,-832.55 205.42,-883.1 203.91,-894.23 190.68,-941.07 189.62,-941.43 170.16,-945.62 138.08,-950.6 134.72,-951.31 124.16,-954.13 112.66,-957.83 101.13,-962.18 92.29,-966.5 71.64,-977.77 "/>
<polyline fill="none" stroke="#000000" points="542.24,-769.76 546.55,-768.16 561.22,-763.94 571.93,-761.78 575.69,-761.35 587.47,-761.01 592.22,-761.28 593,-761.26 607.11,-759.64 618.56,-757.34 626.84,-754.98 631.99,-753.07 642.82,-748.13 651.25,-743.57 657.6,-739.6 665.75,-733.78 680.91,-721.63 685.33,-717.72 705.94,-697.73 714.46,-691.03 749.57,-702.16 767.36,-696.6 777.67,-693.8 787.21,-691.59 794.86,-690.13 807.6,-688.22 824.03,-687.09 833.69,-686.82 835.86,-686.67 841.88,-686.49 849.51,-686.9 855.2,-686.73 864.82,-686.85 870.93,-686.67 877.67,-686.75 883.73,-686.57 890.03,-686.13 909.92,-683.11 920.61,-681.05 940.49,-675.6 944.36,-674.38 1068.21,-630.35 1045.17,-579.51 1036.45,-558.87 962.14,-368.71 988.17,-298.31 988.73,-296.9 977.84,-284.42 826.33,-103.37 766.28,-111.32 749.6,-113.1 740.34,-115.17 734.43,-116.17 724.94,-117.52 703.98,-119.95 687.03,-120.54 681.98,-120.59 664.09,-120.25 656.09,-119.67 633.53,-117.42 629.86,-116.96 628.09,-116.69 623.18,-115.8 607.59,-112.57 589.47,-107.84 588.53,-107.57 578.13,-104.3 575.89,-104.76 563.44,-107.04 554.23,-108.5 553.95,-108.53 531.37,-110.94 498.16,-113.64 412.44,-133.04 399.2,-131.56 350.13,-153.97 288.47,-225.81 259.6,-274.59 246.22,-310.79 231.94,-346.47 244.67,-357.99 246.85,-359.86 258.89,-370.76 267.83,-377.98 278.85,-386.36 287.42,-392.46 300.52,-401.15 303.19,-402.79 317.37,-410.81 370.48,-438.29 418.96,-432.29 431.81,-431.32 436.25,-431.21 447,-431.45 447.82,-431.39 453.06,-431.21 462.52,-431.36 465.03,-431.53 469.68,-431.59 471.87,-431.5 476.52,-431.54 482.59,-431.28 486.85,-431.31 491.08,-431.54 494.15,-431.55 495.91,-431.64 499.4,-431.63 500.27,-431.59 514.24,-447.99 529.37,-463.57 530.56,-464.61 531.31,-465.53 585.87,-521.58 590.38,-527.16 598.83,-534.57 605.67,-541.51 617.41,-555.06 617.52,-555.21 631.34,-575.12 637.6,-585.03 582.25,-604.63 578.44,-605.75 576.43,-606.22 553.73,-610.27 552.77,-610.38 544.39,-610.88 532.78,-610.89 529.93,-611.07 524.61,-611.09 523.64,-611.15 520.41,-611.16 512.85,-610.76 507.26,-610.79 494.93,-611.62 492.13,-611.98 477.32,-614.78 467.61,-617.21 449.97,-623.77 440.53,-627.86 422.69,-636.65 433.04,-682.61 437.36,-712.34 438.36,-728.14 450.51,-793.95 394.52,-808.01 387.1,-809.43 375.84,-810.9 374.1,-811.03 361.04,-811.18 359.82,-811.27 349.23,-811.39 348.05,-811.33 342.11,-811.39 341.68,-811.37 339.49,-811.13 332.71,-810.79 329.37,-810.82 324.21,-811.18 314.11,-811.26 313.02,-811.33 306.37,-811.38 306.26,-811.38 302.51,-811.4 291.94,-810.84 284.27,-811.34 284.05,-811.37 280.89,-811.58 275.08,-811.61 266.61,-811.14 254.91,-811.88 245.11,-813.08 230.8,-815.68 225.99,-816.84 223.54,-817.57 220.13,-818.8 216.25,-832.55 205.42,-883.1 203.91,-894.23 190.68,-941.07 189.62,-941.43 170.16,-945.62 138.08,-950.6 134.72,-951.31 124.16,-954.13 112.66,-957.83 101.13,-962.18 92.29,-966.5 71.64,-977.77 62.56,-983.73 51.82,-991.36 -4.6,-1034.59 -4.07,-1035.7 49.08,-1164.94 159.13,-1211.9 172.52,-1212.14 175.34,-1212.27 282.48,-1270.56 309.68,-1243.9 316.12,-1238 320.65,-1233.22 335.11,-1219.02 342.56,-1212.3 349.99,-1206.17 358.56,-1199.74 370.47,-1191.73 374.79,-1189.16 382.98,-1184.9 393.98,-1180.01 404.4,-1176.17 410.96,-1174.26 449,-1166.03 468.72,-1158.9 475.93,-1155.26 496.26,-1143.48 501.5,-1139.71 510.44,-1132.61 511.51,-1127.39 520.52,-1092.15 524.91,-1089.81 528.8,-1087.95 542.73,-1082.05 547.87,-1080.15 558.57,-1076.78 564.22,-1075.31 582.81,-1071.48 590.95,-1070.69 604.87,-1070.11 612.61,-1070.21 612.77,-1070.2 630.48,-1068.56 634.72,-1067.94 641.54,-1066.59 648.91,-1064.74 659.62,-1061.48 669.53,-1057.94 681.12,-1053.19 685.3,-1051.26 694.67,-1046.45 700.82,-1042.62 704.1,-1021.63 705.19,-1016.32 706.54,-1007.88 713.69,-944.7 705.09,-939.89 688.59,-929.64 671.17,-919.93 671.03,-919.86 665.11,-917.35 645.85,-910.39 641.28,-909.05 633.64,-907.3 622.45,-905.47 621.87,-905.42 606.08,-904.9 602.92,-905 595.27,-904.75 593.33,-904.56 584.89,-904.84 571.7,-904.42 571.35,-904.38 559.4,-902.44 550.61,-900.43 539.79,-897.25 533.32,-894.93 524.01,-890.99 513.54,-885.86 503.07,-880.06 501.54,-879.11 497.2,-876.14 493.29,-863.52 488.76,-845.91 476.09,-810.18 507.86,-790.04 516.27,-784.02 526.22,-777.76 534.21,-773.43 542.24,-769.76 "/>
<!-- Books&#45;&gt;Management -->
<g id="edge1" class="edge">
<title>Books&#45;&gt;Management</title>
<path fill="none" stroke="#555555" stroke-opacity="0.133333" d="M1302,-767.62C1334.7,-686.48 1431.9,-446.06 1468.4,-355.71"/>
<polygon fill="#555555" fill-opacity="0.133333" stroke="#555555" stroke-opacity="0.133333" points="1471.74,-356.78 1472.3,-346.2 1465.27,-354.12 1471.74,-356.78"/>
</g>
<!-- Books&#45;&gt;Programming -->
<g id="edge2" class="edge">
<title>Books&#45;&gt;Programming</title>
<path fill="none" stroke="#555555" stroke-opacity="0.133333" d="M1232.4,-797.51C1124.4,-802.52 891.8,-813.29 751.68,-819.78"/>
<polygon fill="#555555" fill-opacity="0.133333" stroke="#555555" stroke-opacity="0.133333" points="751.16,-816.3 741.33,-820.26 751.48,-823.29 751.16,-816.3"/>
</g>
<!-- Books&#45;&gt;Linux -->
<g id="edge3" class="edge">
<title>Books&#45;&gt;Linux</title>
<path fill="none" stroke="#555555" stroke-opacity="0.133333" d="M1295.9,-822.3C1309.2,-896.86 1346.1,-1102.8 1360.7,-1184.7"/>
<polygon fill="#555555" fill-opacity="0.133333" stroke="#555555" stroke-opacity="0.133333" points="1357.33,-1185.71 1362.6,-1194.9 1364.21,-1184.43 1357.33,-1185.71"/>
</g>
<!-- Books&#45;&gt;Texts -->
<g id="edge4" class="edge">
<title>Books&#45;&gt;Texts</title>
<path fill="none" stroke="#555555" stroke-opacity="0.133333" d="M1343.6,-807.32C1450.9,-832.87 1694.3,-890.79 1803.5,-916.77"/>
<polygon fill="#555555" fill-opacity="0.133333" stroke="#555555" stroke-opacity="0.133333" points="1802.76,-920.19 1813.3,-919.11 1804.39,-913.38 1802.76,-920.19"/>
</g>
<!-- Management&#45;&gt;The Mythical Man&#45;Month -->
<g id="edge5" class="edge">
<title>Management&#45;&gt;The Mythical Man&#45;Month</title>
<path fill="none" stroke="#555555" stroke-opacity="0.133333" d="M1516.1,-296.66C1570.5,-257.53 1676.9,-180.84 1730.7,-142.1"/>
<polygon fill="#555555" fill-opacity="0.133333" stroke="#555555" stroke-opacity="0.133333" points="1732.81,-144.89 1738.9,-136.22 1728.73,-139.2 1732.81,-144.89"/>
</g>
<!-- Management&#45;&gt;Agile technologies, Extreme Programming and RUP. -->
<g id="edge6" class="edge">
<title>Management&#45;&gt;Agile technologies, Extreme Programming and RUP.</title>
<path fill="none" stroke="#555555" stroke-opacity="0.133333" d="M1570.8,-308.66C1605,-303.94 1644.6,-298.45 1681.4,-293.37"/>
<polygon fill="#555555" fill-opacity="0.133333" stroke="#555555" stroke-opacity="0.133333" points="1682.18,-296.8 1691.6,-291.95 1681.21,-289.86 1682.18,-296.8"/>
</g>
<!-- Management&#45;&gt;Human factor. Successful projects and commands. -->
<g id="edge7" class="edge">
<title>Management&#45;&gt;Human factor. Successful projects and commands.</title>
<path fill="none" stroke="#555555" stroke-opacity="0.133333" d="M1469.2,-295.3C1450.6,-259.59 1416.9,-195.04 1397.9,-158.48"/>
<polygon fill="#555555" fill-opacity="0.133333" stroke="#555555" stroke-opacity="0.133333" points="1400.86,-156.6 1393.1,-149.39 1394.67,-159.87 1400.86,-156.6"/>
</g>
<!-- Management&#45;&gt;Scrum and XP, notes from frontline -->
<g id="edge8" class="edge">
<title>Management&#45;&gt;Scrum and XP, notes from frontline</title>
<path fill="none" stroke="#555555" stroke-opacity="0.133333" d="M1494.7,-295.57C1521.9,-239.26 1587.2,-103.96 1615.3,-45.58"/>
<polygon fill="#555555" fill-opacity="0.133333" stroke="#555555" stroke-opacity="0.133333" points="1618.61,-46.78 1619.8,-36.25 1612.3,-43.74 1618.61,-46.78"/>
</g>
<!-- Management&#45;&gt;The Phoenix Project: A Novel about IT, DevOps, and Helping Your Business Win -->
<g id="edge9" class="edge">
<title>Management&#45;&gt;The Phoenix Project: A Novel about IT, DevOps, and Helping Your Business Win</title>
<path fill="none" stroke="#555555" stroke-opacity="0.133333" d="M1453.3,-296.28C1394.6,-246.86 1262.8,-136 1204.1,-86.59"/>
<polygon fill="#555555" fill-opacity="0.133333" stroke="#555555" stroke-opacity="0.133333" points="1206.21,-83.79 1196.3,-80.04 1201.71,-89.15 1206.21,-83.79"/>
</g>
<!-- Management&#45;&gt;People -->
<g id="edge10" class="edge">
<title>Management&#45;&gt;People</title>
<path fill="none" stroke="#555555" stroke-opacity="0.133333" d="M1510.1,-345.58C1547.8,-379.37 1615.3,-439.85 1655.2,-475.53"/>
<polygon fill="#555555" fill-opacity="0.133333" stroke="#555555" stroke-opacity="0.133333" points="1652.94,-478.2 1662.7,-482.32 1657.64,-473.01 1652.94,-478.2"/>
</g>
<!-- Programming&#45;&gt;SRE. How google runs production software. -->
<g id="edge11" class="edge">
<title>Programming&#45;&gt;SRE. How google runs production software.</title>
<path fill="none" stroke="#555555" stroke-opacity="0.133333" d="M631.17,-850.58C612.2,-923.79 557.71,-1134.2 538.03,-1210.1"/>
<polygon fill="#555555" fill-opacity="0.133333" stroke="#555555" stroke-opacity="0.133333" points="534.59,-1209.44 535.49,-1220 541.37,-1211.18 534.59,-1209.44"/>
</g>
<!-- Programming&#45;&gt;The Pragmatic Programmer -->
<g id="edge12" class="edge">
<title>Programming&#45;&gt;The Pragmatic Programmer</title>
<path fill="none" stroke="#555555" stroke-opacity="0.133333" d="M737.96,-816.94C751.02,-815.88 764.47,-814.79 777.71,-813.72"/>
<polygon fill="#555555" fill-opacity="0.133333" stroke="#555555" stroke-opacity="0.133333" points="778.11,-817.2 787.79,-812.9 777.54,-810.22 778.11,-817.2"/>
</g>
<!-- Programming&#45;&gt;Facts and Fallacies of Software Engineering -->
<g id="edge13" class="edge">
<title>Programming&#45;&gt;Facts and Fallacies of Software Engineering</title>
<path fill="none" stroke="#555555" stroke-opacity="0.133333" d="M642.08,-850.73C652.39,-912.15 678.41,-1067.2 689.14,-1131.1"/>
<polygon fill="#555555" fill-opacity="0.133333" stroke="#555555" stroke-opacity="0.133333" points="685.73,-1131.92 690.84,-1141.2 692.63,-1130.76 685.73,-1131.92"/>
</g>
<!-- Programming&#45;&gt;Clean Code -->
<g id="edge14" class="edge">
<title>Programming&#45;&gt;Clean Code</title>
<path fill="none" stroke="#555555" stroke-opacity="0.133333" d="M663.79,-849.9C701.5,-885.89 770.91,-952.13 808.28,-987.81"/>
<polygon fill="#555555" fill-opacity="0.133333" stroke="#555555" stroke-opacity="0.133333" points="806.1,-990.57 815.75,-994.94 810.93,-985.5 806.1,-990.57"/>
</g>
<!-- Programming&#45;&gt;Extreme programming -->
<g id="edge15" class="edge">
<title>Programming&#45;&gt;Extreme programming</title>
<path fill="none" stroke="#555555" stroke-opacity="0.133333" d="M535.67,-831.57C439.07,-837.73 294.91,-846.92 198.42,-853.08"/>
<polygon fill="#555555" fill-opacity="0.133333" stroke="#555555" stroke-opacity="0.133333" points="198.12,-849.59 188.36,-853.72 198.56,-856.58 198.12,-849.59"/>
</g>
<!-- Programming&#45;&gt;Cracking the code Interview -->
<g id="edge16" class="edge">
<title>Programming&#45;&gt;Cracking the code Interview</title>
<path fill="none" stroke="#555555" stroke-opacity="0.133333" d="M605.71,-800.68C534.53,-746.56 364.06,-616.94 293.31,-563.14"/>
<polygon fill="#555555" fill-opacity="0.133333" stroke="#555555" stroke-opacity="0.133333" points="295.27,-560.23 285.19,-556.97 291.03,-565.81 295.27,-560.23"/>
</g>
<!-- Programming&#45;&gt;Distributed Systems, v3 -->
<g id="edge17" class="edge">
<title>Programming&#45;&gt;Distributed Systems, v3</title>
<path fill="none" stroke="#555555" stroke-opacity="0.133333" d="M570.43,-805.48C467.61,-775.59 272.93,-718.98 172.97,-689.92"/>
<polygon fill="#555555" fill-opacity="0.133333" stroke="#555555" stroke-opacity="0.133333" points="173.88,-686.54 163.3,-687.11 171.93,-693.26 173.88,-686.54"/>
</g>
<!-- Programming&#45;&gt;97 Things Every Software Architect Should Know -->
<g id="edge18" class="edge">
<title>Programming&#45;&gt;97 Things Every Software Architect Should Know</title>
<path fill="none" stroke="#555555" stroke-opacity="0.133333" d="M565.45,-806.37C500.34,-789.55 404.99,-764.92 338.75,-747.8"/>
<polygon fill="#555555" fill-opacity="0.133333" stroke="#555555" stroke-opacity="0.133333" points="339.35,-744.34 328.79,-745.23 337.6,-751.12 339.35,-744.34"/>
</g>
<!-- Programming&#45;&gt;The Clean Architecture -->
<g id="edge19" class="edge">
<title>Programming&#45;&gt;The Clean Architecture</title>
<path fill="none" stroke="#555555" stroke-opacity="0.133333" d="M625,-799.66C597.05,-744.06 530.64,-611.98 501.78,-554.58"/>
<polygon fill="#555555" fill-opacity="0.133333" stroke="#555555" stroke-opacity="0.133333" points="504.78,-552.76 497.16,-545.4 498.53,-555.91 504.78,-552.76"/>
</g>
<!-- Programming&#45;&gt;Languages -->
<g id="edge20" class="edge">
<title>Programming&#45;&gt;Languages</title>
<path fill="none" stroke="#555555" stroke-opacity="0.133333" d="M620.69,-799.9C607.11,-779.9 588.02,-751.78 573.3,-730.1"/>
<polygon fill="#555555" fill-opacity="0.133333" stroke="#555555" stroke-opacity="0.133333" points="576,-727.85 567.49,-721.54 570.21,-731.78 576,-727.85"/>
</g>
<!-- Linux&#45;&gt;Linux kernel primer -->
<g id="edge21" class="edge">
<title>Linux&#45;&gt;Linux kernel primer</title>
<path fill="none" stroke="#555555" stroke-opacity="0.133333" d="M1415.2,-1215.7C1467.8,-1212.2 1552.9,-1206.7 1618.6,-1202.3"/>
<polygon fill="#555555" fill-opacity="0.133333" stroke="#555555" stroke-opacity="0.133333" points="1619.12,-1205.78 1628.9,-1201.7 1618.71,-1198.79 1619.12,-1205.78"/>
</g>
<!-- Linux&#45;&gt;Linux Advanced Routing and Traffic Control -->
<g id="edge22" class="edge">
<title>Linux&#45;&gt;Linux Advanced Routing and Traffic Control</title>
<path fill="none" stroke="#555555" stroke-opacity="0.133333" d="M1375.2,-1195C1389,-1155.5 1416.4,-1076.9 1431.1,-1035"/>
<polygon fill="#555555" fill-opacity="0.133333" stroke="#555555" stroke-opacity="0.133333" points="1434.42,-1036.09 1434.4,-1025.5 1427.81,-1033.8 1434.42,-1036.09"/>
</g>
<!-- Linux&#45;&gt;Unix in a nutshell -->
<g id="edge23" class="edge">
<title>Linux&#45;&gt;Unix in a nutshell</title>
<path fill="none" stroke="#555555" stroke-opacity="0.133333" d="M1416,-1218.7C1426.6,-1218.7 1438,-1218.6 1449.6,-1218.6"/>
<polygon fill="#555555" fill-opacity="0.133333" stroke="#555555" stroke-opacity="0.133333" points="1449.74,-1222.1 1459.7,-1218.5 1449.67,-1215.1 1449.74,-1222.1"/>
</g>
<!-- Linux&#45;&gt;Art of the Unix programming -->
<g id="edge24" class="edge">
<title>Linux&#45;&gt;Art of the Unix programming</title>
<path fill="none" stroke="#555555" stroke-opacity="0.133333" d="M1393.3,-1239.1C1437.7,-1272.9 1526.9,-1340.9 1574.4,-1377.1"/>
<polygon fill="#555555" fill-opacity="0.133333" stroke="#555555" stroke-opacity="0.133333" points="1572.43,-1380 1582.5,-1383.3 1576.69,-1374.44 1572.43,-1380"/>
</g>
<!-- Linux&#45;&gt;Advanced Linux programming -->
<g id="edge25" class="edge">
<title>Linux&#45;&gt;Advanced Linux programming</title>
<path fill="none" stroke="#555555" stroke-opacity="0.133333" d="M1350,-1241.5C1331.7,-1266 1302.4,-1305.2 1283.1,-1331.2"/>
<polygon fill="#555555" fill-opacity="0.133333" stroke="#555555" stroke-opacity="0.133333" points="1280.14,-1329.31 1276.9,-1339.4 1285.72,-1333.53 1280.14,-1329.31"/>
</g>
<!-- Linux&#45;&gt;Network Performance Tuning (RHEL) -->
<g id="edge26" class="edge">
<title>Linux&#45;&gt;Network Performance Tuning (RHEL)</title>
<path fill="none" stroke="#555555" stroke-opacity="0.133333" d="M1373.7,-1242.9C1387.6,-1291.2 1418.7,-1399.8 1433.5,-1451.3"/>
<polygon fill="#555555" fill-opacity="0.133333" stroke="#555555" stroke-opacity="0.133333" points="1430.19,-1452.45 1436.3,-1461.1 1436.92,-1450.52 1430.19,-1452.45"/>
</g>
<!-- Linux&#45;&gt;Packagecloud blog posts: Monitoring and tuning Linux networking stack: sending data &amp; receiving data -->
<g id="edge27" class="edge">
<title>Linux&#45;&gt;Packagecloud blog posts: Monitoring and tuning Linux networking stack: sending data &amp; receiving data</title>
<path fill="none" stroke="#555555" stroke-opacity="0.133333" d="M1357.9,-1242.7C1336.2,-1300.8 1280.4,-1449.7 1257.2,-1511.7"/>
<polygon fill="#555555" fill-opacity="0.133333" stroke="#555555" stroke-opacity="0.133333" points="1253.87,-1510.61 1253.6,-1521.2 1260.42,-1513.09 1253.87,-1510.61"/>
</g>
<!-- Linux&#45;&gt;Linux Kernel, Robert Love -->
<g id="edge28" class="edge">
<title>Linux&#45;&gt;Linux Kernel, Robert Love</title>
<path fill="none" stroke="#555555" stroke-opacity="0.133333" d="M1333.7,-1236.7C1271.4,-1270.3 1137,-1342.6 1068.8,-1379.3"/>
<polygon fill="#555555" fill-opacity="0.133333" stroke="#555555" stroke-opacity="0.133333" points="1066.78,-1376.42 1059.7,-1384.3 1070.15,-1382.55 1066.78,-1376.42"/>
</g>
<!-- Texts&#45;&gt;  -->
<g id="edge29" class="edge">
<title>Texts&#45;&gt; </title>
<path fill="none" stroke="#555555" stroke-opacity="0.133333" d="M1878,-953.29C1917.5,-1000.2 2005.7,-1105.1 2046.6,-1153.7"/>
<polygon fill="#555555" fill-opacity="0.133333" stroke="#555555" stroke-opacity="0.133333" points="2044.07,-1156.13 2053.2,-1161.5 2049.41,-1151.61 2044.07,-1156.13"/>
</g>
<!-- Texts&#45;&gt;    -->
<g id="edge30" class="edge">
<title>Texts&#45;&gt;   </title>
<path fill="none" stroke="#555555" stroke-opacity="0.133333" d="M1897.1,-913.95C1951.8,-891.57 2051.6,-850.74 2112,-826.05"/>
<polygon fill="#555555" fill-opacity="0.133333" stroke="#555555" stroke-opacity="0.133333" points="2113.38,-829.27 2121.3,-822.23 2110.72,-822.79 2113.38,-829.27"/>
</g>
<!-- Texts&#45;&gt;   -->
<g id="edge31" class="edge">
<title>Texts&#45;&gt;  </title>
<path fill="none" stroke="#555555" stroke-opacity="0.133333" d="M1903.4,-940.73C1960.2,-954.48 2058.6,-978.26 2125.9,-994.54"/>
<polygon fill="#555555" fill-opacity="0.133333" stroke="#555555" stroke-opacity="0.133333" points="2125.46,-998.03 2136,-996.98 2127.1,-991.23 2125.46,-998.03"/>
</g>
<!-- People&#45;&gt;The Inmates Are Running the Asylum -->
<g id="edge32" class="edge">
<title>People&#45;&gt;The Inmates Are Running the Asylum</title>
<path fill="none" stroke="#555555" stroke-opacity="0.133333" d="M1707.2,-526.79C1732.5,-555.37 1776,-604.34 1802.6,-634.35"/>
<polygon fill="#555555" fill-opacity="0.133333" stroke="#555555" stroke-opacity="0.133333" points="1800.05,-636.75 1809.3,-641.92 1805.29,-632.11 1800.05,-636.75"/>
</g>
<!-- People&#45;&gt;Game theory, the art of strategy -->
<g id="edge33" class="edge">
<title>People&#45;&gt;Game theory, the art of strategy</title>
<path fill="none" stroke="#555555" stroke-opacity="0.133333" d="M1740.8,-500.09C1768,-498.06 1802.3,-495.52 1835.7,-493.04"/>
<polygon fill="#555555" fill-opacity="0.133333" stroke="#555555" stroke-opacity="0.133333" points="1836.28,-496.51 1846,-492.28 1835.77,-489.53 1836.28,-496.51"/>
</g>
<!-- Languages&#45;&gt;An Introducion to programming on Go -->
<g id="edge34" class="edge">
<title>Languages&#45;&gt;An Introducion to programming on Go</title>
<path fill="none" stroke="#555555" stroke-opacity="0.133333" d="M549.35,-721.88C545.1,-774.05 535.06,-897.06 530.52,-952.72"/>
<polygon fill="#555555" fill-opacity="0.133333" stroke="#555555" stroke-opacity="0.133333" points="527.01,-952.66 529.69,-962.91 533.99,-953.23 527.01,-952.66"/>
</g>
<!-- Languages&#45;&gt;C Programming language -->
<g id="edge35" class="edge">
<title>Languages&#45;&gt;C Programming language</title>
<path fill="none" stroke="#555555" stroke-opacity="0.133333" d="M540.24,-721.55C507.4,-792.11 410.71,-999.84 375.72,-1075"/>
<polygon fill="#555555" fill-opacity="0.133333" stroke="#555555" stroke-opacity="0.133333" points="372.44,-1073.76 371.39,-1084.3 378.78,-1076.71 372.44,-1073.76"/>
</g>
<!-- Languages&#45;&gt;Dive into python -->
<g id="edge36" class="edge">
<title>Languages&#45;&gt;Dive into python</title>
<path fill="none" stroke="#555555" stroke-opacity="0.133333" d="M527.66,-720.97C465.32,-782.16 296.97,-947.43 232.57,-1010.7"/>
<polygon fill="#555555" fill-opacity="0.133333" stroke="#555555" stroke-opacity="0.133333" points="229.92,-1008.4 225.24,-1017.9 234.83,-1013.39 229.92,-1008.4"/>
</g>
<!-- Languages&#45;&gt;Advanced Bash Scripting Guide -->
<g id="edge37" class="edge">
<title>Languages&#45;&gt;Advanced Bash Scripting Guide</title>
<path fill="none" stroke="#555555" stroke-opacity="0.133333" d="M525.97,-720.66C484.77,-757.92 403.61,-831.32 361.24,-869.63"/>
<polygon fill="#555555" fill-opacity="0.133333" stroke="#555555" stroke-opacity="0.133333" points="358.87,-867.06 353.8,-876.36 363.56,-872.25 358.87,-867.06"/>
</g>
<!-- Languages&#45;&gt;The main question of coding, refactoring and everything. -->
<g id="edge38" class="edge">
<title>Languages&#45;&gt;The main question of coding, refactoring and everything.</title>
<path fill="none" stroke="#555555" stroke-opacity="0.133333" d="M557.1,-673.53C574.06,-602.53 623.6,-395.09 641.68,-319.38"/>
<polygon fill="#555555" fill-opacity="0.133333" stroke="#555555" stroke-opacity="0.133333" points="645.1,-320.14 644.01,-309.6 638.29,-318.52 645.1,-320.14"/>
</g>
<!-- Languages&#45;&gt;Enough rope to shoot yourself in the foot -->
<g id="edge39" class="edge">
<title>Languages&#45;&gt;Enough rope to shoot yourself in the foot</title>
<path fill="none" stroke="#555555" stroke-opacity="0.133333" d="M563.26,-673.66C584.96,-629.89 630.75,-537.56 653.5,-491.68"/>
<polygon fill="#555555" fill-opacity="0.133333" stroke="#555555" stroke-opacity="0.133333" points="656.68,-493.14 657.99,-482.63 650.41,-490.03 656.68,-493.14"/>
</g>
<!-- Languages&#45;&gt;Learning SQL, O&#39;Reilly -->
<g id="edge40" class="edge">
<title>Languages&#45;&gt;Learning SQL, O&#39;Reilly</title>
<path fill="none" stroke="#555555" stroke-opacity="0.133333" d="M545.76,-673.68C530.83,-609.16 489.95,-432.5 473.98,-363.5"/>
<polygon fill="#555555" fill-opacity="0.133333" stroke="#555555" stroke-opacity="0.133333" points="477.3,-362.33 471.64,-353.38 470.48,-363.91 477.3,-362.33"/>
</g>
<!-- Languages&#45;&gt;C++ today. Beast is back -->
<g id="edge41" class="edge">
<title>Languages&#45;&gt;C++ today. Beast is back</title>
<path fill="none" stroke="#555555" stroke-opacity="0.133333" d="M593.53,-677.34C642.59,-653.64 723.21,-614.69 773.22,-590.53"/>
<polygon fill="#555555" fill-opacity="0.133333" stroke="#555555" stroke-opacity="0.133333" points="775.01,-593.55 782.49,-586.05 771.96,-587.25 775.01,-593.55"/>
</g>
<!-- Books -->
<g id="node1" class="node">
<title>Books</title>
<text text-anchor="middle" x="1291" y="-786.9" font-family="Helvetica,sans-Serif" font-weight="bold" font-size="26.00">Books</text>
</g>
<!-- Management -->
<g id="node2" class="node">
<title>Management</title>
<text text-anchor="middle" x="1482.5" y="-313.27" font-family="Helvetica,sans-Serif" font-weight="bold" font-size="24.00">Management</text>
</g>
<!-- Programming -->
<g id="node3" class="node">
<title>Programming</title>
<text text-anchor="middle" x="637.77" y="-817.46" font-family="Helvetica,sans-Serif" font-weight="bold" font-size="24.00">Programming</text>
</g>
<!-- Linux -->
<g id="node4" class="node">
<title>Linux</title>
<text text-anchor="middle" x="1366.9" y="-1212.1" font-family="Helvetica,sans-Serif" font-weight="bold" font-size="22.00">Linux</text>
</g>
<!-- Texts -->
<g id="node5" class="node">
<title>Texts</title>
<text text-anchor="middle" x="1858.3" y="-922.22" font-family="Helvetica,sans-Serif" font-weight="bold" font-size="24.00">Texts</text>
</g>
<!-- The Mythical Man&#45;Month -->
<g id="node6" class="node">
<title>The Mythical Man&#45;Month</title>
<text text-anchor="middle" x="1763.5" y="-113.91" font-family="Helvetica,sans-Serif" font-weight="bold" font-size="14.00">The Mythical Man&#45;Month</text>
</g>
<!-- Agile technologies, Extreme Programming and RUP. -->
<g id="node7" class="node">
<title>Agile technologies, Extreme Programming and RUP.</title>
<text text-anchor="middle" x="1802.5" y="-272.01" font-family="Helvetica,sans-Serif" font-weight="bold" font-size="14.00">Agile technologies, Extreme Programming and RUP.</text>
</g>
<!-- Human factor. Successful projects and commands. -->
<g id="node8" class="node">
<title>Human factor. Successful projects and commands.</title>
<text text-anchor="middle" x="1383.7" y="-126.71" font-family="Helvetica,sans-Serif" font-weight="bold" font-size="14.00">Human factor. Successful projects and commands.</text>
</g>
<!-- Scrum and XP, notes from frontline -->
<g id="node9" class="node">
<title>Scrum and XP, notes from frontline</title>
<text text-anchor="middle" x="1628.6" y="-13.4" font-family="Helvetica,sans-Serif" font-weight="bold" font-size="14.00">Scrum and XP, notes from frontline</text>
</g>
<!-- The Phoenix Project: A Novel about IT, DevOps, and Helping Your Business Win -->
<g id="node10" class="node">
<title>The Phoenix Project: A Novel about IT, DevOps, and Helping Your Business Win</title>
<text text-anchor="middle" x="1174.9" y="-57.41" font-family="Helvetica,sans-Serif" font-weight="bold" font-size="14.00">The Phoenix Project: A Novel about IT, DevOps, and Helping Your Business Win</text>
</g>
<!-- People -->
<g id="node11" class="node">
<title>People</title>
<text text-anchor="middle" x="1687" y="-497.27" font-family="Helvetica,sans-Serif" font-weight="bold" font-size="22.00">People</text>
</g>
<!-- SRE. How google runs production software. -->
<g id="node12" class="node">
<title>SRE. How google runs production software.</title>
<text text-anchor="middle" x="530.83" y="-1233.4" font-family="Helvetica,sans-Serif" font-weight="bold" font-size="14.00">SRE. How google runs production software.</text>
</g>
<!-- The Pragmatic Programmer -->
<g id="node13" class="node">
<title>The Pragmatic Programmer</title>
<text text-anchor="middle" x="890.34" y="-800" font-family="Helvetica,sans-Serif" font-weight="bold" font-size="14.00">The Pragmatic Programmer</text>
</g>
<!-- Facts and Fallacies of Software Engineering -->
<g id="node14" class="node">
<title>Facts and Fallacies of Software Engineering</title>
<text text-anchor="middle" x="693.88" y="-1154.7" font-family="Helvetica,sans-Serif" font-weight="bold" font-size="14.00">Facts and Fallacies of Software Engineering</text>
</g>
<!-- Clean Code -->
<g id="node15" class="node">
<title>Clean Code</title>
<text text-anchor="middle" x="833.71" y="-1007.5" font-family="Helvetica,sans-Serif" font-weight="bold" font-size="14.00">Clean Code</text>
</g>
<!-- Extreme programming -->
<g id="node16" class="node">
<title>Extreme programming</title>
<text text-anchor="middle" x="96.6" y="-854.97" font-family="Helvetica,sans-Serif" font-weight="bold" font-size="14.00">Extreme programming</text>
</g>
<!-- Cracking the code Interview -->
<g id="node17" class="node">
<title>Cracking the code Interview</title>
<text text-anchor="middle" x="261.7" y="-534.51" font-family="Helvetica,sans-Serif" font-weight="bold" font-size="14.00">Cracking the code Interview</text>
</g>
<!-- Distributed Systems, v3 -->
<g id="node18" class="node">
<title>Distributed Systems, v3</title>
<text text-anchor="middle" x="110.27" y="-667.09" font-family="Helvetica,sans-Serif" font-weight="bold" font-size="14.00">Distributed Systems, v3</text>
</g>
<!-- 97 Things Every Software Architect Should Know -->
<g id="node19" class="node">
<title>97 Things Every Software Architect Should Know</title>
<text text-anchor="middle" x="262.65" y="-723.54" font-family="Helvetica,sans-Serif" font-weight="bold" font-size="14.00">97 Things Every Software Architect Should Know</text>
</g>
<!-- The Clean Architecture -->
<g id="node20" class="node">
<title>The Clean Architecture</title>
<text text-anchor="middle" x="487.99" y="-522.56" font-family="Helvetica,sans-Serif" font-weight="bold" font-size="14.00">The Clean Architecture</text>
</g>
<!-- Languages -->
<g id="node21" class="node">
<title>Languages</title>
<text text-anchor="middle" x="551.32" y="-690.93" font-family="Helvetica,sans-Serif" font-weight="bold" font-size="22.00">Languages</text>
</g>
<!-- Linux kernel primer -->
<g id="node22" class="node">
<title>Linux kernel primer</title>
<text text-anchor="middle" x="1712.2" y="-1191.6" font-family="Helvetica,sans-Serif" font-weight="bold" font-size="14.00">Linux kernel primer</text>
</g>
<!-- Linux Advanced Routing and Traffic Control -->
<g id="node23" class="node">
<title>Linux Advanced Routing and Traffic Control</title>
<text text-anchor="middle" x="1440.8" y="-1002.6" font-family="Helvetica,sans-Serif" font-weight="bold" font-size="14.00">Linux Advanced Routing and Traffic Control</text>
</g>
<!-- Unix in a nutshell -->
<g id="node24" class="node">
<title>Unix in a nutshell</title>
<text text-anchor="middle" x="1538.4" y="-1213.7" font-family="Helvetica,sans-Serif" font-weight="bold" font-size="14.00">Unix in a nutshell</text>
</g>
<!-- Art of the Unix programming -->
<g id="node25" class="node">
<title>Art of the Unix programming</title>
<text text-anchor="middle" x="1605.9" y="-1396.5" font-family="Helvetica,sans-Serif" font-weight="bold" font-size="14.00">Art of the Unix programming</text>
</g>
<!-- Advanced Linux programming -->
<g id="node26" class="node">
<title>Advanced Linux programming</title>
<text text-anchor="middle" x="1263.3" y="-1353" font-family="Helvetica,sans-Serif" font-weight="bold" font-size="14.00">Advanced Linux programming</text>
</g>
<!-- Network Performance Tuning (RHEL) -->
<g id="node27" class="node">
<title>Network Performance Tuning (RHEL)</title>
<text text-anchor="middle" x="1441.5" y="-1474.7" font-family="Helvetica,sans-Serif" font-weight="bold" font-size="14.00">Network Performance Tuning (RHEL)</text>
</g>
<!-- Packagecloud blog posts: Monitoring and tuning Linux networking stack: sending data &amp; receiving data -->
<g id="node28" class="node">
<title>Packagecloud blog posts: Monitoring and tuning Linux networking stack: sending data &amp; receiving data</title>
<text text-anchor="middle" x="1246.8" y="-1534.8" font-family="Helvetica,sans-Serif" font-weight="bold" font-size="14.00">Packagecloud blog posts: Monitoring and tuning Linux networking stack: sending data &amp; receiving data</text>
</g>
<!-- Linux Kernel, Robert Love -->
<g id="node29" class="node">
<title>Linux Kernel, Robert Love</title>
<text text-anchor="middle" x="1027.4" y="-1397" font-family="Helvetica,sans-Serif" font-weight="bold" font-size="14.00">Linux Kernel, Robert Love</text>
</g>
<!--   -->
<g id="node30" class="node">
<title> </title>
<text text-anchor="middle" x="2068.1" y="-1174.6" font-family="Helvetica,sans-Serif" font-weight="bold" font-size="14.00"> </text>
</g>
<!--     -->
<g id="node31" class="node">
<title>   </title>
<text text-anchor="middle" x="2162.3" y="-800.86" font-family="Helvetica,sans-Serif" font-weight="bold" font-size="14.00">   </text>
</g>
<!--    -->
<g id="node32" class="node">
<title>  </title>
<text text-anchor="middle" x="2198" y="-1007.4" font-family="Helvetica,sans-Serif" font-weight="bold" font-size="14.00">  </text>
</g>
<!-- The Inmates Are Running the Asylum -->
<g id="node33" class="node">
<title>The Inmates Are Running the Asylum</title>
<text text-anchor="middle" x="1825.6" y="-655.67" font-family="Helvetica,sans-Serif" font-weight="bold" font-size="14.00">The Inmates Are Running the Asylum</text>
</g>
<!-- Game theory, the art of strategy -->
<g id="node34" class="node">
<title>Game theory, the art of strategy</title>
<text text-anchor="middle" x="1960.8" y="-479.16" font-family="Helvetica,sans-Serif" font-weight="bold" font-size="14.00">Game theory, the art of strategy</text>
</g>
<!-- An Introducion to programming on Go -->
<g id="node35" class="node">
<title>An Introducion to programming on Go</title>
<text text-anchor="middle" x="528.22" y="-976.35" font-family="Helvetica,sans-Serif" font-weight="bold" font-size="14.00">An Introducion to programming on Go</text>
</g>
<!-- C Programming language -->
<g id="node36" class="node">
<title>C Programming language</title>
<text text-anchor="middle" x="362.89" y="-1098" font-family="Helvetica,sans-Serif" font-weight="bold" font-size="14.00">C Programming language</text>
</g>
<!-- Dive into python -->
<g id="node37" class="node">
<title>Dive into python</title>
<text text-anchor="middle" x="207.03" y="-1031.1" font-family="Helvetica,sans-Serif" font-weight="bold" font-size="14.00">Dive into python</text>
</g>
<!-- Advanced Bash Scripting Guide -->
<g id="node38" class="node">
<title>Advanced Bash Scripting Guide</title>
<text text-anchor="middle" x="334.04" y="-889.63" font-family="Helvetica,sans-Serif" font-weight="bold" font-size="14.00">Advanced Bash Scripting Guide</text>
</g>
<!-- The main question of coding, refactoring and everything. -->
<g id="node39" class="node">
<title>The main question of coding, refactoring and everything.</title>
<text text-anchor="middle" x="648.38" y="-286.71" font-family="Helvetica,sans-Serif" font-weight="bold" font-size="14.00">The main question of coding, refactoring and everything.</text>
</g>
<!-- Enough rope to shoot yourself in the foot -->
<g id="node40" class="node">
<title>Enough rope to shoot yourself in the foot</title>
<text text-anchor="middle" x="666.92" y="-460.01" font-family="Helvetica,sans-Serif" font-weight="bold" font-size="14.00">Enough rope to shoot yourself in the foot</text>
</g>
<!-- Learning SQL, O&#39;Reilly -->
<g id="node41" class="node">
<title>Learning SQL, O&#39;Reilly</title>
<text text-anchor="middle" x="467.47" y="-330.76" font-family="Helvetica,sans-Serif" font-weight="bold" font-size="14.00">Learning SQL, O&#39;Reilly</text>
</g>
<!-- C++ today. Beast is back -->
<g id="node42" class="node">
<title>C++ today. Beast is back</title>
<text text-anchor="middle" x="817.69" y="-564.44" font-family="Helvetica,sans-Serif" font-weight="bold" font-size="14.00">C++ today. Beast is back</text>
</g>
</g>
</svg>
