<?xml version="1.0" encoding="UTF-8" standalone="no"?>
<!DOCTYPE svg PUBLIC "-//W3C//DTD SVG 1.1//EN"
 "http://www.w3.org/Graphics/SVG/1.1/DTD/svg11.dtd">
<!-- Generated by graphviz version 2.40.1 (20161225.0304)
 -->
<!-- Title: G Pages: 1 -->
<svg width="2554pt" height="2264pt"
 viewBox="0.00 0.00 2553.90 2264.43" xmlns="http://www.w3.org/2000/svg" xmlns:xlink="http://www.w3.org/1999/xlink">
<g id="graph0" class="graph" transform="scale(1 1) rotate(0) translate(138.1632 2068.4358)">
<title>G</title>
<polygon fill="#dae2ff" stroke="transparent" points="-138.1632,195.9979 -138.1632,-2068.4358 2415.7349,-2068.4358 2415.7349,195.9979 -138.1632,195.9979"/>
<polygon fill="#ccebc5" stroke="#ccebc5" points="675.8752,-1750.6561 687.286,-1742.0686 699.4556,-1732.3441 708.6077,-1725.4349 712.9136,-1722.5573 719.0089,-1718.7377 732.9372,-1710.5852 743.0477,-1705.0966 752.8968,-1700.1713 758.7645,-1697.4894 764.6652,-1695.0437 779.0653,-1689.6835 787.1211,-1687.0321 805.0497,-1682.6545 816.4636,-1680.8402 823.0565,-1680.0725 843.5914,-1678.5531 857.1945,-1676.9569 868.4798,-1675.1459 889.0281,-1670.0729 880.5139,-1785.4386 885.0865,-1785.4386 889.4521,-1789.6428 889.4521,-1789.6428 885.0865,-1785.4386 880.5139,-1785.4386 889.0281,-1670.0729 891.2125,-1669.4412 894.2134,-1668.4448 898.4469,-1666.8547 921.1202,-1657.3319 930.9444,-1652.3641 938.5021,-1615.2 942.5606,-1572.8 967.9384,-1428.8619 840.7177,-1374.9648 831.2081,-1321.6656 818.9045,-1239.126 818.1209,-1232.4573 815.8343,-1216.9089 788.7491,-1085.4558 798.1879,-1080.6279 812.5321,-1073.6373 819.759,-1070.2922 822.8521,-1068.9362 830.9341,-1065.5874 852.2731,-1057.7668 969.235,-1017.7479 984.4249,-1012.1804 987.0053,-1011.1725 998.5999,-1006.3618 1021.5441,-995.7227 1049.5289,-981.4006 1062.6235,-982.4193 1071.6779,-983.2867 1083.2528,-984.6044 1102.1721,-987.0988 1181.4583,-998.9688 1184.7084,-1001.3259 1256.0082,-1142.045 1206.3259,-1222.1 1124.2822,-1378.5688 1115.1033,-1395.0231 1105.9232,-1410.5675 1253.1519,-1549.7606 1257.5306,-1584.7096 1260.4601,-1615.2 1126.3331,-1615.2 1097.947,-1608.6078 1089.1481,-1612.7229 1088.0782,-1613.9492 1088.0782,-1616.6429 1089.0729,-1617.7628 1089.0729,-1617.7628 1088.0782,-1616.6429 1088.0782,-1613.9492 1089.1481,-1612.7229 1097.947,-1608.6078 1126.3331,-1615.2 1260.4601,-1615.2 1260.5527,-1615.7354 1370.9083,-1725.9983 1415.9094,-1768.3649 1424.4537,-1776.7611 1386.7762,-1835.1925 1355.5554,-1886.5961 1268.0754,-1968.4044 1219.9244,-1913.9316 1198.8405,-1891.7108 1198.8868,-1888.3374 1195.526,-1778.006 1191.6958,-1778.006 1187.1647,-1773.6906 1187.1647,-1773.6906 1191.6958,-1778.006 1186.9335,-1782.6343 1177.8406,-1782.6343 1173.0125,-1777.967 1169.7767,-1777.967 1169.3335,-1778.1874 1169.3335,-1778.1874 1169.7767,-1777.967 1173.0125,-1777.967 1177.8406,-1782.6343 1186.9335,-1782.6343 1191.6958,-1778.006 1195.526,-1778.006 1198.8868,-1888.3374 1198.8405,-1891.7108 1219.9244,-1913.9316 1268.0754,-1968.4044 1258.4688,-1993.64 1225.9423,-2028.9849 1156.0659,-2061.0298 1151.4072,-2062.0571 1093.3994,-2057.9063 1087.1976,-2057.6235 1072.2863,-2057.3318 1057.254,-2057.4287 1032.754,-2059.5012 1018.7171,-2061.4177 1011.4998,-2062.7786 1011.2845,-2062.8247 990.3777,-2062.6663 948.9736,-2064.4358 882.494,-2046.6456 839.6812,-2022.3324 817.3275,-1980.9192 755.0315,-1939.0292 670.4661,-1832.9456 633.7065,-1789.2314 634.4498,-1788.4304 640.1001,-1782.5797 663.3947,-1761.267 672.3298,-1753.4633 675.8752,-1750.6561 675.8752,-1750.6561"/>
<polygon fill="#decbe4" stroke="#decbe4" points="334.4635,-682.837 289.2365,-602.7491 275.8928,-580.5524 278.9996,-547.7078 286.5139,-518.5168 304.2421,-441.1295 314.9498,-444.45 344.0242,-444.45 496.0267,-449.074 495.6715,-502.4857 503.0081,-502.5524 507.8958,-503.0151 512.4968,-502.6301 512.7767,-444.8357 521.0025,-444.8357 521.5953,-444.5569 529.0378,-444.5569 529.1556,-444.6122 537.7921,-444.6122 537.9915,-444.7074 546.4835,-444.7074 546.9553,-444.4871 553.7479,-444.4871 554.439,-444.163 563.3137,-444.163 563.8532,-444.4129 570.9473,-444.4129 578.0314,-262.9093 579.7647,-444.3302 583.072,-444.3302 587.8961,-448.8132 596.2945,-448.8132 600.8414,-444.3319 604.7133,-444.3319 604.8356,-444.3916 613.4249,-444.3916 613.5288,-444.3418 621.0077,-444.3418 621.8461,-444.7465 629.4888,-444.7465 633.3941,-529.59 634.5659,-530.465 645.8157,-539.8568 649.2735,-543.0402 654.2638,-547.1855 655.0598,-444.7671 662.9702,-444.7671 664.0522,-444.2514 670.9918,-444.2514 676.1105,-383.2245 680.7528,-444.1667 688.3511,-439.1531 709.3644,-444.45 730.2983,-444.45 730.2983,-444.45 709.3644,-444.45 688.3511,-439.1531 680.7528,-444.1667 676.1105,-383.2245 670.9918,-444.2514 664.0522,-444.2514 662.9702,-444.7671 655.0598,-444.7671 654.2638,-547.1855 649.2735,-543.0402 645.8157,-539.8568 634.5659,-530.465 638.668,-444.7425 637.3038,-444.0823 642.988,-392.3796 644.4878,-275.8669 656.7305,-287.4217 809.4461,-278.317 804.0712,-381.8186 801.9685,-381.9012 808.5779,-486.2082 806.9523,-488.4378 808.4972,-490.5768 816.1027,-493.9277 816.1027,-493.9277 808.4972,-490.5768 806.9523,-488.4378 808.5779,-486.2082 801.9685,-381.9012 804.0712,-381.8186 809.4461,-278.317 656.7305,-287.4217 644.4878,-275.8669 642.988,-392.3796 637.3038,-444.0823 638.668,-444.7425 634.5659,-530.465 633.3941,-529.59 629.4888,-444.7465 621.8461,-444.7465 621.0077,-444.3418 613.5288,-444.3418 613.4249,-444.3916 604.8356,-444.3916 604.7133,-444.3319 600.8414,-444.3319 596.2945,-448.8132 587.8961,-448.8132 583.072,-444.3302 579.7647,-444.3302 578.0314,-262.9093 570.9473,-444.4129 563.8532,-444.4129 563.3137,-444.163 554.439,-444.163 553.7479,-444.4871 546.9553,-444.4871 546.4835,-444.7074 537.9915,-444.7074 537.7921,-444.6122 529.1556,-444.6122 529.0378,-444.5569 521.5953,-444.5569 521.0025,-444.8357 512.7767,-444.8357 512.4968,-502.6301 507.8958,-503.0151 503.0081,-502.5524 495.6715,-502.4857 496.0267,-449.074 344.0242,-444.45 314.9498,-444.45 304.2421,-441.1295 302.8096,-427.6374 364.6198,-333.9091 441.4708,-261.2294 498.061,-233.5872 503.5702,-231.4024 507.8548,-229.6008 511.0518,-228.1796 535.6395,-216.0396 549.1977,-208.3519 524.0396,-78.2586 522.45,-58.5541 516.1522,-.6104 525.7599,21.8174 568.4866,129.9253 685.5598,168.9415 702.5679,175.0485 717.2789,181.0829 723.0038,181.2647 727.1086,181.5723 751.6114,184.4715 751.7297,184.473 772.494,185.6165 772.1799,123.9053 773.6567,66.5443 771.2613,-17.9541 767.9246,-17.9541 763.0163,-13.3538 755.2009,-13.3538 751.6674,167.6435 746.6729,-17.7609 739.3171,-17.7609 728.8978,136.1897 730.6213,-18.0873 730.6178,-18.0889 722.3521,-18.0889 721.8948,137.0638 713.6594,-17.9532 706.501,-17.9532 706.501,-17.9532 713.6594,-17.9532 721.8948,137.0638 722.3521,-18.0889 730.6178,-18.0889 730.6213,-18.0873 728.8978,136.1897 739.3171,-17.7609 746.6729,-17.7609 751.6674,167.6435 755.2009,-13.3538 763.0163,-13.3538 767.9246,-17.9541 771.2613,-17.9541 773.6567,66.5443 772.1799,123.9053 772.494,185.6165 783.9891,186.9814 799.3887,189.1376 815.0598,191.9979 823.8524,187.274 823.7626,181.7158 823.7626,181.7158 823.8524,187.274 945.1871,131.571 955.3174,122.7218 952.1075,114.1573 935.1744,74.8645 928.3826,61.4787 928.3826,61.4787 935.1744,74.8645 952.1075,114.1573 955.3174,122.7218 962.5682,120.2537 976.0796,116.0038 973.2193,-65.9772 966.3755,-65.9772 965.1925,-64.4023 956.9839,-60.7134 956.9839,-60.7134 965.1925,-64.4023 966.3755,-65.9772 973.2193,-65.9772 976.0796,116.0038 976.5148,115.8783 996.9199,110.5185 1012.1653,107.3095 1074.1199,97.4914 1178.9049,28.0277 1194.5969,-3.966 1195.402,-7.4139 1192.2594,-48.1222 1190.4229,-84.072 1188.7219,-152.7533 1130.9041,-285.9461 1234.2983,-373.5244 1327.4497,-481.4971 1314.0461,-527.5536 1311.4011,-537.4406 1103.4277,-536.991 1102.7583,-638.1957 1097.4146,-638.0656 1094.8439,-532.5989 1087.2371,-532.5989 1086.4651,-532.2336 1079.0282,-532.2336 1078.491,-532.4933 1069.5752,-532.4933 1069.4751,-532.5407 1061.4547,-532.5407 1061.4524,-532.5418 1053.899,-532.5418 1053.4006,-532.7708 1045.506,-532.7708 1044.2776,-532.1921 1037.1792,-532.1921 1037.0817,-532.2373 1034.5005,-594.4478 1027.3328,-532.5621 1021.5296,-532.5621 1020.101,-534.4383 1012.0565,-537.9867 1002.5233,-533.372 1002.2252,-532.9783 996.038,-532.9783 990.6978,-577.8727 985.7114,-532.5217 979.2196,-532.5217 978.251,-532.0717 978.251,-532.0717 979.2196,-532.5217 973.9623,-587.0809 969.242,-532.4592 962.5788,-532.4592 961.7304,-532.0634 953.1785,-532.0634 954.7688,-447.0428 943.2488,-463.8041 937.7285,-470.7392 936.4934,-532.1538 937.4719,-532.6073 944.8863,-532.6073 946.2954,-638.2084 941.0032,-638.3701 939.3799,-638.3505 931.9229,-637.942 929.4045,-636.0942 920.8284,-630.8958 839.2068,-586.4795 837.5328,-586.5387 836.3511,-623.9977 839.1607,-680.7906 839.1607,-680.7906 836.3511,-623.9977 837.5328,-586.5387 839.2068,-586.4795 920.8284,-630.8958 929.4045,-636.0942 931.9229,-637.942 921.661,-653.1018 916.5498,-659.8893 910.4871,-667.0851 904.7423,-673.1218 892.7723,-684.1292 888.7433,-687.27 887.1373,-689.3764 874.3546,-703.3066 870.7426,-706.3332 870.7426,-706.3332 874.3546,-703.3066 887.1373,-689.3764 888.7433,-687.27 892.7723,-684.1292 904.7423,-673.1218 910.4871,-667.0851 916.5498,-659.8893 921.661,-653.1018 931.9229,-637.942 939.3799,-638.3505 941.0032,-638.3701 946.2954,-638.2084 944.8863,-532.6073 937.4719,-532.6073 936.4934,-532.1538 937.7285,-470.7392 943.2488,-463.8041 954.7688,-447.0428 953.1785,-532.0634 961.7304,-532.0634 962.5788,-532.4592 969.242,-532.4592 973.9623,-587.0809 973.7095,-637.9629 972.2928,-638.0639 972.2928,-638.0639 973.7095,-637.9629 973.9623,-587.0809 979.2196,-532.5217 985.7114,-532.5217 990.6978,-577.8727 996.038,-532.9783 1002.2252,-532.9783 1002.5233,-533.372 1012.0565,-537.9867 1020.101,-534.4383 1021.5296,-532.5621 1027.3328,-532.5621 1034.5005,-594.4478 1037.0817,-532.2373 1037.1792,-532.1921 1044.2776,-532.1921 1045.506,-532.7708 1053.4006,-532.7708 1053.899,-532.5418 1061.4524,-532.5418 1061.4547,-532.5407 1069.4751,-532.5407 1069.5752,-532.4933 1078.491,-532.4933 1079.0282,-532.2336 1086.4651,-532.2336 1087.2371,-532.5989 1094.8439,-532.5989 1097.4146,-638.0656 1102.7583,-638.1957 1103.4277,-536.991 1311.4011,-537.4406 1302.7878,-572.7388 1228.4122,-646.6804 1222.3274,-690.0016 1217.3578,-737.6782 1209.4774,-792.307 1206.6111,-819.8933 1181.4583,-998.9688 1102.1721,-987.0988 1083.2528,-984.6044 1071.6779,-983.2867 1062.6235,-982.4193 1049.5289,-981.4006 1021.5441,-995.7227 998.5999,-1006.3618 987.0053,-1011.1725 984.4249,-1012.1804 969.235,-1017.7479 852.2731,-1057.7668 830.9341,-1065.5874 822.8521,-1068.9362 819.759,-1070.2922 812.5321,-1073.6373 798.1879,-1080.6279 788.7491,-1085.4558 779.7089,-1082.74 769.4479,-1080.2891 750.1443,-1076.0712 730.3255,-1072.5542 725.7444,-1071.9294 701.3428,-1069.5969 682.6557,-1068.5762 684.0613,-994.8052 690.9703,-860.1686 698.6643,-863.621 698.6643,-863.621 690.9703,-860.1686 684.0613,-994.8052 682.6557,-1068.5762 675.6931,-1068.4808 674.5011,-1026.2429 674.5011,-1026.2429 675.6931,-1068.4808 664.1038,-1068.7966 660.9586,-1068.8179 656.8524,-1068.7614 653.4879,-1068.6459 641.9609,-1068.4867 641.9217,-1068.4869 640.2916,-1068.4645 640.2484,-1068.4629 632.3762,-1068.3536 631.9411,-1068.3564 629.3086,-1068.4277 626.0292,-1068.4491 612.7107,-1068.8092 606.4454,-1068.7214 602.3118,-1066.371 586.1433,-1058.0438 571.1243,-1051.1122 567.0112,-1049.3246 554.4846,-1044.2139 428.0192,-999.3553 414.8814,-993.9968 409.0772,-991.4754 403.0422,-988.6928 397.0916,-985.7894 376.1787,-975.0204 369.9972,-971.6757 309.2676,-935.5912 332.233,-874.1836 334.7823,-770.8651 500.3789,-730.5047 503.1789,-727.0386 508.7722,-727.0386 509.1625,-727.23 509.0847,-798.6646 514.1434,-797.1901 514.1434,-797.1901 509.0847,-798.6646 509.1625,-727.23 508.7722,-727.0386 503.1789,-727.0386 500.3789,-730.5047 334.7823,-770.8651 334.4875,-683.6031 334.4635,-682.837 334.4635,-682.837"/>
<polygon fill="#fed9a6" stroke="#fed9a6" points="2207.998,-1076.4156 2225.7422,-1087.2809 2339.7961,-1153.8718 2396.8901,-1246.7952 2411.7349,-1269.6096 2387.6584,-1338.7415 2370.8462,-1391.6292 2324.3035,-1448.9087 2219.5449,-1495.8267 2219.3113,-1495.9375 2215.2322,-1497.9789 2197.3542,-1503.4978 2187.7825,-1506.6709 2124.7703,-1597.6761 2109.8572,-1666.7952 2068.4221,-1703.9124 1921.9183,-1755.4139 1898.5592,-1764.2639 1885.5813,-1770.23 1884.0284,-1569.9056 1876.7172,-1569.9056 1875.5812,-1568.3466 1867.3309,-1564.5806 1867.3309,-1564.5806 1875.5812,-1568.3466 1876.7172,-1569.9056 1884.0284,-1569.9056 1885.5813,-1770.23 1884.3037,-1770.8521 1870.4359,-1769.0446 1867.4403,-1768.7219 1857.2366,-1767.8536 1844.1692,-1767.3314 1715.3713,-1820.3307 1690.0762,-1819.8073 1691.0951,-1771.8658 1689.3877,-1633.9061 1685.524,-1633.9061 1680.9083,-1629.6597 1672.399,-1629.6597 1668.4336,-1554.2057 1667.517,-1554.1385 1665.2534,-1554.2451 1660.3026,-1554.1769 1654.5199,-1554.4457 1651.8199,-1554.4061 1645.9858,-1548.5748 1645.9858,-1548.5748 1651.8199,-1554.4061 1654.5199,-1554.4457 1660.3026,-1554.1769 1665.2534,-1554.2451 1667.517,-1554.1385 1668.4336,-1554.2057 1672.399,-1629.6597 1680.9083,-1629.6597 1685.524,-1633.9061 1689.3877,-1633.9061 1691.0951,-1771.8658 1690.0762,-1819.8073 1689.6589,-1819.8191 1671.6445,-1820.7719 1670.0571,-1820.8947 1658.7708,-1819.9076 1612.6453,-1818.1449 1500.8027,-1767.9579 1494.9895,-1768.1041 1470.9211,-1769.7439 1450.0625,-1772.0599 1448.7833,-1772.2292 1444.3376,-1772.9128 1434.3789,-1774.6578 1431.4805,-1775.2279 1424.4537,-1776.7611 1415.9094,-1768.3649 1370.9083,-1725.9983 1260.5527,-1615.7354 1260.4601,-1615.2 1257.5306,-1584.7096 1253.1519,-1549.7606 1105.9232,-1410.5675 1115.1033,-1395.0231 1302.2067,-1391.1101 1303.4929,-1505.4281 1311.3717,-1386.7688 1318.8884,-1386.7688 1319.22,-1386.9218 1327.72,-1386.9218 1327.9056,-1386.8356 1335.0858,-1386.8356 1336.2095,-1388.3678 1344.8492,-1392.3334 1352.9077,-1388.6793 1354.2325,-1386.7809 1353.0142,-1385.0027 1344.9763,-1381.2415 1344.9763,-1381.2415 1353.0142,-1385.0027 1354.2325,-1386.7809 1352.9077,-1388.6793 1344.8492,-1392.3334 1336.2095,-1388.3678 1335.0858,-1386.8356 1327.9056,-1386.8356 1327.72,-1386.9218 1319.22,-1386.9218 1318.8884,-1386.7688 1311.3717,-1386.7688 1303.4929,-1505.4281 1302.2067,-1391.1101 1115.1033,-1395.0231 1124.2822,-1378.5688 1206.3259,-1222.1 1256.0082,-1142.045 1270.9769,-1147.8514 1420.3422,-1157.4399 1450.3793,-1158.5563 1454.1228,-1158.391 1467.0327,-1158.4897 1469.3618,-1158.5679 1472.8339,-1158.7744 1476.6702,-1158.7947 1480.4978,-1158.7112 1487.3069,-1158.3774 1503.7328,-1158.4252 1504.1438,-1158.437 1506.6935,-1158.4414 1513.6062,-1158.6327 1517.6444,-1158.8492 1518.7198,-1158.8777 1519.1028,-1179.673 1519.1028,-1179.673 1518.7198,-1158.8777 1532.7753,-1158.4871 1546.7664,-1158.8239 1562.5237,-1159.611 1589.1515,-1147.4498 1672.8459,-1150.5721 1688.8683,-1150.6417 1691.2355,-1150.729 1694.0864,-1150.7397 1699.6209,-1150.9407 1699.8796,-1150.9415 1704.6111,-1150.8005 1715.453,-1150.83 1715.9967,-1150.8491 1726.786,-1150.8726 1728.2992,-1150.8259 1728.7349,-1150.8267 1729.8685,-1149.8311 1731.2625,-1148.5157 1751.0792,-1132.1473 1758.974,-1126.1162 1763.8221,-1122.7117 1781.9713,-1112.0975 1791.3717,-1107.1735 1797.6736,-1104.2588 1807.2148,-1100.4229 1825.6771,-1095.2062 1829.5223,-1094.3547 1837.0552,-1093.1394 1861.6753,-1090.6471 1867.7905,-1089.6556 1879.8816,-1086.9553 1881.6115,-1086.4645 1894.6759,-1081.9467 1902.3352,-1078.8314 1912.5071,-1074.0725 1919.981,-1070.1241 1920.4064,-1069.8735 1938.5449,-1058.0267 1947.9266,-1051.3346 1994.3899,-1015.421 2002.1309,-1016.6256 2015.2511,-1019.0433 2042.3831,-1026.3876 2065.542,-1034.6532 2068.0769,-1035.6296 2144.8467,-1067.4083 2152.6936,-1066.0015 2166.001,-1063.3546 2164.7874,-1201.7238 2159.3997,-1293.8483 2160.0803,-1294.1658 2156.9478,-1466.2932 2150.4587,-1458.3365 2145.3062,-1452.3513 2143.2432,-1294.0464 2136.2449,-1294.0464 2134.7866,-1296.0341 2127.0513,-1299.4221 2127.0513,-1299.4221 2134.7866,-1296.0341 2136.2449,-1294.0464 2143.2432,-1294.0464 2145.3062,-1452.3513 2141.0039,-1447.6251 2122.4199,-1428.3497 2102.3787,-1410.141 2104.0107,-1363.1737 2101.667,-1293.9182 2101.667,-1293.9182 2104.0107,-1363.1737 2102.3787,-1410.141 2096.1082,-1405.2706 2093.4661,-1293.7607 2085.5227,-1293.7607 2085.0056,-1293.9952 2077.1699,-1293.9952 2077.1416,-1293.9827 2077.1416,-1293.9827 2077.1699,-1293.9952 2085.0056,-1293.9952 2085.5227,-1293.7607 2093.4661,-1293.7607 2096.1082,-1405.2706 2092.9963,-1403.0492 2089.6216,-1400.3955 2076.667,-1391.0719 2070.4026,-1386.9969 2055.4063,-1378.2653 2055.8931,-1342.3555 2061.6255,-1293.943 2061.2361,-1293.7634 2061.2361,-1293.7634 2061.6255,-1293.943 2055.8931,-1342.3555 2055.4063,-1378.2653 2070.4026,-1386.9969 2076.667,-1391.0719 2089.6216,-1400.3955 2092.9963,-1403.0492 1990.1893,-1429.2948 1987.7112,-1432.1846 1982.6625,-1432.1846 1981.9963,-1432.5111 1973.3174,-1432.5111 1972.2596,-1431.9778 1964.5498,-1431.9778 1964.4524,-1432.0254 1956.3445,-1432.0254 1955.4572,-1430.7506 1946.7098,-1426.6068 1948.9854,-1334.6183 1936.843,-1325.5935 1936.9926,-1321.2072 1936.5201,-1287.5 1855.7328,-1287.5 1839.7296,-1282.1171 1831.151,-1287.3512 1830.8876,-1287.2242 1822.5986,-1287.2242 1824.7678,-1373.163 1824.7678,-1373.163 1822.5986,-1287.2242 1830.8876,-1287.2242 1831.151,-1287.3512 1839.7296,-1282.1171 1855.7328,-1287.5 1936.5201,-1287.5 1936.9926,-1321.2072 1936.843,-1325.5935 1930.1195,-1330.838 1919.3777,-1337.6935 1919.3777,-1337.6935 1930.1195,-1330.838 1936.843,-1325.5935 1948.9854,-1334.6183 1946.7098,-1426.6068 1955.4572,-1430.7506 1956.3445,-1432.0254 1964.4524,-1432.0254 1964.5498,-1431.9778 1972.2596,-1431.9778 1973.3174,-1432.5111 1981.9963,-1432.5111 1982.6625,-1432.1846 1987.7112,-1432.1846 1990.1893,-1429.2948 2092.9963,-1403.0492 2096.1082,-1405.2706 2102.3787,-1410.141 2122.4199,-1428.3497 2141.0039,-1447.6251 2145.3062,-1452.3513 2150.4587,-1458.3365 2156.9478,-1466.2932 2160.0803,-1294.1658 2159.3997,-1293.8483 2164.7874,-1201.7238 2166.001,-1063.3546 2173.9004,-1061.474 2182.5005,-1059.0865 2200.4814,-1071.6051 2207.998,-1076.4156 2207.998,-1076.4156"/>
<polygon fill="#b3cde3" stroke="#b3cde3" points="-110.7179,-1573.9861 -108.3297,-1511.2012 -121.5728,-1484.2017 -122.5578,-1457.5292 62.6732,-1403.1915 64.8202,-1400.7037 69.6566,-1400.7037 75.9983,-1456.9811 79.4693,-1400.6565 87.3558,-1400.6565 88.0487,-1400.3301 95.0148,-1400.3301 95.5945,-1400.5996 103.2487,-1400.5996 104.2747,-1400.1067 107.4876,-1400.1067 112.1925,-1404.681 112.1925,-1404.681 107.4876,-1400.1067 104.2747,-1400.1067 103.2487,-1400.5996 95.5945,-1400.5996 95.0148,-1400.3301 88.0487,-1400.3301 87.3558,-1400.6565 79.4693,-1400.6565 75.9983,-1456.9811 69.6566,-1400.7037 64.8202,-1400.7037 62.6732,-1403.1915 -122.5578,-1457.5292 -129.781,-1341.1519 -134.1632,-1290.3783 -120.9261,-1263.1528 -79.0434,-1231.3938 -52.8372,-1183.3779 26.0413,-1091.5709 134.5931,-1055.5593 151.8656,-1048.9417 152.1484,-1243.7883 144.9506,-1243.7883 144.8754,-1243.8232 144.2265,-1244.75 141.7482,-1322.0618 141.4119,-1322.0853 145.9511,-1400.198 146.2077,-1400.3158 152.9028,-1400.3158 153.5671,-1400.01 161.2537,-1400.01 162.0376,-1400.3904 167.3934,-1400.3904 170.6299,-1404.1134 170.6299,-1404.1134 167.3934,-1400.3904 162.0376,-1400.3904 161.2537,-1400.01 153.5671,-1400.01 152.9028,-1400.3158 146.2077,-1400.3158 145.9511,-1400.198 141.4119,-1322.0853 141.7482,-1322.0618 144.2265,-1244.75 144.8754,-1243.8232 144.9506,-1243.7883 152.1484,-1243.7883 152.3828,-1243.8916 159.8144,-1243.8916 160.0403,-1243.7909 168.2318,-1243.7909 168.9749,-1244.1305 164.6232,-1322.1147 167.5964,-1322.4314 167.363,-1333.9365 170.6188,-1396.6885 245.1168,-1384.0675 242.3507,-1387.7115 244.0411,-1464.0168 244.5335,-1464.2438 251.9887,-1464.2438 252.2053,-1464.3406 259.9144,-1464.3406 260.344,-1464.146 267.8335,-1464.146 268.0842,-1464.2637 273.1863,-1562.2186 276.947,-1468.6759 285.0551,-1468.6759 289.9491,-1464.2194 292.7939,-1464.2194 293.1005,-1464.0762 301.4128,-1464.0762 301.6258,-1463.9757 309.8149,-1463.9757 310.2944,-1464.1989 317.2956,-1464.1989 317.2956,-1464.1989 310.2944,-1464.1989 309.8149,-1463.9757 301.6258,-1463.9757 301.4128,-1464.0762 293.1005,-1464.0762 292.7939,-1464.2194 289.9491,-1464.2194 285.0551,-1468.6759 276.947,-1468.6759 273.1863,-1562.2186 268.0842,-1464.2637 267.8335,-1464.146 260.344,-1464.146 259.9144,-1464.3406 252.2053,-1464.3406 251.9887,-1464.2438 244.5335,-1464.2438 244.0411,-1464.0168 242.3507,-1387.7115 245.1168,-1384.0675 170.6188,-1396.6885 167.363,-1333.9365 167.5964,-1322.4314 164.6232,-1322.1147 168.9749,-1244.1305 168.2318,-1243.7909 160.0403,-1243.7909 159.8144,-1243.8916 152.3828,-1243.8916 152.1484,-1243.7883 151.8656,-1048.9417 165.8443,-1043.23 173.8113,-1039.7745 178.5929,-1037.5806 186.3706,-1033.8152 191.7407,-1031.0795 194.1687,-1123.8752 192.8938,-1244.0472 193.0887,-1244.1368 201.2545,-1244.1368 201.7242,-1243.9232 207.8883,-1243.9232 209.5973,-1246.2087 217.4783,-1249.6078 225.0522,-1246.3253 226.6678,-1244.0427 233.7643,-1244.0427 234.7902,-1243.5552 241.5937,-1243.5552 241.8893,-1243.6915 241.8893,-1243.6915 241.5937,-1243.5552 234.7902,-1243.5552 233.7643,-1244.0427 226.6678,-1244.0427 225.0522,-1246.3253 217.4783,-1249.6078 209.5973,-1246.2087 207.8883,-1243.9232 201.7242,-1243.9232 201.2545,-1244.1368 193.0887,-1244.1368 192.8938,-1244.0472 194.1687,-1123.8752 191.7407,-1031.0795 212.4947,-1019.4371 214.8927,-1017.9695 261.2587,-958.4977 297.5273,-940.4996 309.2676,-935.5912 369.9972,-971.6757 376.1787,-975.0204 397.0916,-985.7894 403.0422,-988.6928 409.0772,-991.4754 414.8814,-993.9968 428.0192,-999.3553 554.4846,-1044.2139 567.0112,-1049.3246 571.1243,-1051.1122 586.1433,-1058.0438 602.3118,-1066.371 606.4454,-1068.7214 612.7107,-1068.8092 626.0292,-1068.4491 629.3086,-1068.4277 631.9411,-1068.3564 632.3762,-1068.3536 640.2484,-1068.4629 640.2916,-1068.4645 641.9217,-1068.4869 641.9609,-1068.4867 653.4879,-1068.6459 656.8524,-1068.7614 660.9586,-1068.8179 664.1038,-1068.7966 675.6931,-1068.4808 682.6557,-1068.5762 701.3428,-1069.5969 725.7444,-1071.9294 730.3255,-1072.5542 750.1443,-1076.0712 769.4479,-1080.2891 779.7089,-1082.74 788.7491,-1085.4558 815.8343,-1216.9089 818.1209,-1232.4573 818.9045,-1239.126 831.2081,-1321.6656 840.7177,-1374.9648 967.9384,-1428.8619 942.5606,-1572.8 938.5021,-1615.2 930.9444,-1652.3641 921.1202,-1657.3319 898.4469,-1666.8547 894.2134,-1668.4448 891.2125,-1669.4412 889.0281,-1670.0729 868.4798,-1675.1459 857.1945,-1676.9569 843.5914,-1678.5531 823.0565,-1680.0725 816.4636,-1680.8402 805.0497,-1682.6545 804.9003,-1665.7036 804.9003,-1665.7036 805.0497,-1682.6545 787.1211,-1687.0321 779.0653,-1689.6835 764.6652,-1695.0437 758.7645,-1697.4894 752.8968,-1700.1713 743.0477,-1705.0966 732.9372,-1710.5852 719.0089,-1718.7377 712.9136,-1722.5573 708.6077,-1725.4349 708.0077,-1702.7716 708.0077,-1702.7716 708.6077,-1725.4349 699.4556,-1732.3441 687.286,-1742.0686 675.8752,-1750.6561 672.3298,-1753.4633 672.1018,-1693.2576 672.1018,-1693.2576 672.3298,-1753.4633 663.3947,-1761.267 640.1001,-1782.5797 640.8553,-1724.2943 634.2181,-1577.0914 642.729,-1577.0914 647.5073,-1572.5114 642.9764,-1568.4406 642.9764,-1568.4406 647.5073,-1572.5114 642.729,-1577.0914 634.2181,-1577.0914 640.8553,-1724.2943 640.1001,-1782.5797 634.4498,-1788.4304 633.7065,-1789.2314 625.7501,-1788.6959 617.3171,-1773.5104 603.672,-1750.144 601.1581,-1746.0725 592.5732,-1732.9218 578.6629,-1713.9686 566.4629,-1698.3962 554.1108,-1683.7368 545.3802,-1674.9368 543.6262,-1673.3196 532.9625,-1662.4679 535.2928,-1573.0608 535.1093,-1572.9757 526.8413,-1572.9757 526.4649,-1573.1511 518.6838,-1573.1511 518.3712,-1573.2959 518.3712,-1573.2959 518.6838,-1573.1511 526.4649,-1573.1511 526.8413,-1572.9757 535.1093,-1572.9757 535.2928,-1573.0608 532.9625,-1662.4679 543.6262,-1673.3196 545.3802,-1674.9368 554.1108,-1683.7368 566.4629,-1698.3962 578.6629,-1713.9686 592.5732,-1732.9218 601.1581,-1746.0725 603.672,-1750.144 617.3171,-1773.5104 625.7501,-1788.6959 570.5506,-1813.4498 450.5136,-1839.7367 438.4785,-1842.6925 416.7165,-1849.1969 408.2976,-1852.1577 392.274,-1858.2194 391.5183,-1781.6904 398.9688,-1672.7119 406.9244,-1669.1399 408.3929,-1667.1484 407.7946,-1666.3632 398.7776,-1662.0358 390.3347,-1666.1449 391.6462,-1599.6666 383.5057,-1593.1252 379.2066,-1589.201 452.0707,-1576.4725 453.6577,-1619.8607 457.5716,-1620.0671 469.5729,-1622.01 477.1472,-1624.0555 477.1472,-1624.0555 469.5729,-1622.01 457.5716,-1620.0671 453.6577,-1619.8607 452.0707,-1576.4725 379.2066,-1589.201 383.5057,-1593.1252 391.6462,-1599.6666 390.3347,-1666.1449 398.7776,-1662.0358 407.7946,-1666.3632 408.3929,-1667.1484 406.9244,-1669.1399 398.9688,-1672.7119 391.5183,-1781.6904 392.274,-1858.2194 372.4281,-1867.3135 368.2977,-1869.3153 359.7773,-1865.926 344.6809,-1860.6696 279.8714,-1839.7174 208.8107,-1786.1552 182.9851,-1782.4231 170.9924,-1781.307 151.949,-1780.025 140.9904,-1779.8527 115.7349,-1780.7579 111.5771,-1781.0139 107.4361,-1781.3754 99.6806,-1782.2518 93.6735,-1781.2692 83.7541,-1780.162 73.6859,-1779.2992 -54.7928,-1771.626 -116.7605,-1659.1298 -114.4505,-1632.9309 -110.7179,-1573.9861 -110.7179,-1573.9861"/>
<polygon fill="#fbb4ae" stroke="#fbb4ae" points="1394.9607,-777.4694 1401.9641,-777.4694 1401.9641,-777.4694 1394.9607,-777.4694 1393.9104,-776.98 1386.2634,-776.98 1387.2281,-664.0706 1401.3837,-676.3887 1403.3912,-677.9836 1411.0685,-683.5334 1414.3782,-685.6904 1425.9562,-692.4402 1440.1664,-699.7197 1452.8923,-704.4141 1452.0303,-776.9445 1448.8179,-776.9445 1444.2888,-772.8872 1444.2888,-772.8872 1448.8179,-776.9445 1452.0303,-776.9445 1452.8923,-704.4141 1460.9591,-706.811 1467.6519,-708.3205 1477.6166,-709.8583 1476.687,-776.9051 1477.0859,-777.0907 1475.5857,-825.0709 1480.6904,-821.17 1486.6329,-821.17 1486.6329,-821.17 1480.6904,-821.17 1475.5857,-825.0709 1477.0859,-777.0907 1484.6478,-777.0907 1485.1675,-776.8475 1493.3481,-776.8475 1494.0531,-777.1735 1500.8329,-777.1735 1501.6165,-776.8139 1509.7274,-776.8139 1510.1858,-777.0226 1509,-799.3846 1517.9438,-799.1047 1518.8541,-799.3651 1525.6973,-799.0281 1528.1606,-799.699 1535.5612,-799.2034 1536.3777,-799.4025 1542.0946,-798.9316 1544.9233,-799.5798 1553.4203,-798.7202 1562.4231,-794.8022 1562.3954,-815.6359 1553.8763,-819.7602 1552.941,-821.1478 1554.0256,-822.765 1562.4137,-826.7652 1571.0602,-822.6569 1572.1254,-821.1337 1579.907,-821.1337 1580.001,-821.0894 1587.963,-821.0894 1588.0967,-821.1533 1597.662,-821.1533 1597.7307,-821.1859 1597.7307,-821.1859 1597.662,-821.1533 1588.0967,-821.1533 1587.963,-821.0894 1580.001,-821.0894 1579.907,-821.1337 1572.1254,-821.1337 1571.0602,-822.6569 1562.4137,-826.7652 1554.0256,-822.765 1552.941,-821.1478 1553.8763,-819.7602 1562.3954,-815.6359 1562.4231,-794.8022 1553.4203,-798.7202 1544.9233,-799.5798 1542.0946,-798.9316 1536.3777,-799.4025 1535.5612,-799.2034 1528.1606,-799.699 1525.6973,-799.0281 1518.8541,-799.3651 1517.9438,-799.1047 1509,-799.3846 1510.1858,-777.0226 1509.7274,-776.8139 1501.6165,-776.8139 1500.8329,-777.1735 1494.0531,-777.1735 1493.3481,-776.8475 1485.1675,-776.8475 1484.6478,-777.0907 1477.0859,-777.0907 1476.687,-776.9051 1477.6166,-709.8583 1484.1567,-710.3997 1492.5355,-710.4951 1494.749,-649.2087 1494.749,-649.2087 1492.5355,-710.4951 1484.1567,-710.3997 1477.6166,-709.8583 1467.6519,-708.3205 1460.9591,-706.811 1452.8923,-704.4141 1440.1664,-699.7197 1425.9562,-692.4402 1414.3782,-685.6904 1411.0685,-683.5334 1403.3912,-677.9836 1401.3837,-676.3887 1387.2281,-664.0706 1386.2634,-776.98 1393.9104,-776.98 1394.9607,-777.4694 1391.0962,-863.9102 1385.7798,-777.197 1378.2478,-777.197 1378.136,-777.2462 1370.811,-777.2462 1361.2014,-870.7393 1361.7162,-777.1131 1361.1373,-776.8369 1353.837,-776.8369 1353.1941,-777.1412 1345.4506,-777.1412 1345.3326,-777.197 1339.0184,-777.197 1336.7778,-780.0251 1206.6111,-819.8933 1209.4774,-792.307 1217.3578,-737.6782 1222.3274,-690.0016 1228.4122,-646.6804 1302.7878,-572.7388 1311.4011,-537.4406 1314.0461,-527.5536 1327.4497,-481.4971 1439.7924,-454.0184 1499.1481,-447.125 1510.2607,-445.3339 1512.0159,-445.0114 1530.567,-441.1816 1543.0328,-438.328 1562.8248,-432.9083 1568.8337,-430.9946 1569.4818,-430.7736 1585.1136,-425.0865 1586.2871,-474.3151 1586.2871,-474.3151 1585.1136,-425.0865 1596.5508,-420.4054 1605.7175,-416.4442 1614.7354,-408.3916 1705.25,-399.5831 1742.8984,-411.5223 1749.8969,-413.5526 1754.2996,-414.7112 1770.9453,-418.6461 1783.0573,-420.8569 1803.8073,-424.0857 1800.7125,-532.5102 1793.7408,-598.9473 1794.8185,-599.5048 1792.9697,-687.6062 1784.9714,-599.4202 1781.8669,-599.4202 1777.2075,-595.0132 1777.2075,-595.0132 1781.8669,-599.4202 1784.9714,-599.4202 1792.9697,-687.6062 1794.8185,-599.5048 1793.7408,-598.9473 1800.7125,-532.5102 1803.8073,-424.0857 1868.2151,-430.6196 1972.4216,-475.0893 1964.4039,-490.4728 1964.2961,-522.4688 1959.4017,-683.2136 1951.4261,-679.5068 1942.8409,-683.6387 1941.9469,-684.9067 1943.4603,-687.0451 1950.9583,-690.3613 1950.9583,-690.3613 1943.4603,-687.0451 1941.9469,-684.9067 1942.8409,-683.6387 1951.4261,-679.5068 1959.4017,-683.2136 1964.2961,-522.4688 1964.4039,-490.4728 1972.4216,-475.0893 1973.3239,-475.0211 1976.0627,-474.7568 1990.8285,-481.7663 2015.77,-491.6985 2123.0063,-531.6193 2138.1257,-547.3044 2162.7424,-594.4078 2175.8889,-684.89 2182.106,-715.6037 2217.1177,-757.5216 2230.2964,-816.8604 2236.1348,-840.0039 2228.95,-890.3428 2221.2983,-957.7888 2182.5005,-1059.0865 2173.9004,-1061.474 2166.001,-1063.3546 2152.6936,-1066.0015 2144.8467,-1067.4083 2068.0769,-1035.6296 2065.542,-1034.6532 2058.6604,-853.7697 2051.2949,-853.7697 2051.2949,-853.7697 2058.6604,-853.7697 2065.542,-1034.6532 2042.3831,-1026.3876 2015.2511,-1019.0433 2015.2955,-1011.8878 2014.7073,-985.7339 2007.1667,-854.0861 1998.9288,-854.0861 1998.3419,-853.8072 1990.5015,-853.8072 1990.3656,-853.7454 1982.965,-853.7454 1982.9263,-853.7269 1982.9263,-853.7269 1982.965,-853.7454 1990.3656,-853.7454 1990.5015,-853.8072 1998.3419,-853.8072 1998.9288,-854.0861 2007.1667,-854.0861 2014.7073,-985.7339 2015.2955,-1011.8878 2015.2511,-1019.0433 2002.1309,-1016.6256 1994.3899,-1015.421 1947.9266,-1051.3346 1938.5449,-1058.0267 1920.4064,-1069.8735 1919.981,-1070.1241 1912.5071,-1074.0725 1902.3352,-1078.8314 1894.6759,-1081.9467 1881.6115,-1086.4645 1879.8816,-1086.9553 1867.7905,-1089.6556 1861.6753,-1090.6471 1837.0552,-1093.1394 1829.5223,-1094.3547 1825.6771,-1095.2062 1807.2148,-1100.4229 1807.2754,-1098.1018 1807.2754,-1098.1018 1807.2148,-1100.4229 1797.6736,-1104.2588 1791.3717,-1107.1735 1781.9713,-1112.0975 1763.8221,-1122.7117 1765.0784,-1091.6056 1765.0784,-1091.6056 1763.8221,-1122.7117 1758.974,-1126.1162 1751.0792,-1132.1473 1731.2625,-1148.5157 1729.8685,-1149.8311 1728.7349,-1150.8267 1728.2992,-1150.8259 1726.786,-1150.8726 1715.9967,-1150.8491 1715.453,-1150.83 1704.6111,-1150.8005 1699.8796,-1150.9415 1699.6209,-1150.9407 1694.0864,-1150.7397 1691.2355,-1150.729 1688.8683,-1150.6417 1672.8459,-1150.5721 1589.1515,-1147.4498 1562.5237,-1159.611 1546.7664,-1158.8239 1532.7753,-1158.4871 1518.7198,-1158.8777 1517.6444,-1158.8492 1513.6062,-1158.6327 1506.6935,-1158.4414 1504.1438,-1158.437 1503.7328,-1158.4252 1487.3069,-1158.3774 1480.4978,-1158.7112 1476.6702,-1158.7947 1472.8339,-1158.7744 1469.3618,-1158.5679 1467.0327,-1158.4897 1454.1228,-1158.391 1450.3793,-1158.5563 1420.3422,-1157.4399 1270.9769,-1147.8514 1256.0082,-1142.045 1184.7084,-1001.3259 1181.4583,-998.9688 1206.6111,-819.8933 1336.7778,-780.0251 1339.0184,-777.197 1345.3326,-777.197 1345.4506,-777.1412 1353.1941,-777.1412 1353.837,-776.8369 1361.1373,-776.8369 1361.7162,-777.1131 1361.2014,-870.7393 1370.811,-777.2462 1378.136,-777.2462 1378.2478,-777.197 1385.7798,-777.197 1391.0962,-863.9102 1394.9607,-777.4694 1394.9607,-777.4694"/>
<polyline fill="none" stroke="#000000" points="1021.5441,-995.7227 1049.5289,-981.4006 1062.6235,-982.4193 1071.6779,-983.2867 1083.2528,-984.6044 1102.1721,-987.0988 1181.4583,-998.9688 1184.7084,-1001.3259 1256.0082,-1142.045 1206.3259,-1222.1 1124.2822,-1378.5688 1115.1033,-1395.0231 1105.9232,-1410.5675 1253.1519,-1549.7606 1257.5306,-1584.7096 1260.4601,-1615.2 1260.5527,-1615.7354 1370.9083,-1725.9983 1415.9094,-1768.3649 1424.4537,-1776.7611 1386.7762,-1835.1925 1355.5554,-1886.5961 1268.0754,-1968.4044 1258.4688,-1993.64 1225.9423,-2028.9849 1156.0659,-2061.0298 1151.4072,-2062.0571 1093.3994,-2057.9063 1087.1976,-2057.6235 1072.2863,-2057.3318 1057.254,-2057.4287 1032.754,-2059.5012 1018.7171,-2061.4177 1011.4998,-2062.7786 1011.2845,-2062.8247 990.3777,-2062.6663 948.9736,-2064.4358 882.494,-2046.6456 839.6812,-2022.3324 817.3275,-1980.9192 755.0315,-1939.0292 670.4661,-1832.9456 633.7065,-1789.2314 634.4498,-1788.4304 640.1001,-1782.5797 663.3947,-1761.267 672.3298,-1753.4633 675.8752,-1750.6561 687.286,-1742.0686 699.4556,-1732.3441 708.6077,-1725.4349 712.9136,-1722.5573 719.0089,-1718.7377 732.9372,-1710.5852 743.0477,-1705.0966 752.8968,-1700.1713 758.7645,-1697.4894 764.6652,-1695.0437 779.0653,-1689.6835 787.1211,-1687.0321 805.0497,-1682.6545 816.4636,-1680.8402 823.0565,-1680.0725 843.5914,-1678.5531 857.1945,-1676.9569 868.4798,-1675.1459 889.0281,-1670.0729 891.2125,-1669.4412 894.2134,-1668.4448 898.4469,-1666.8547 921.1202,-1657.3319 930.9444,-1652.3641 938.5021,-1615.2 942.5606,-1572.8 967.9384,-1428.8619 840.7177,-1374.9648 831.2081,-1321.6656 818.9045,-1239.126 818.1209,-1232.4573 815.8343,-1216.9089 788.7491,-1085.4558 798.1879,-1080.6279 812.5321,-1073.6373 819.759,-1070.2922 822.8521,-1068.9362 830.9341,-1065.5874 852.2731,-1057.7668 969.235,-1017.7479 984.4249,-1012.1804 987.0053,-1011.1725 998.5999,-1006.3618 1021.5441,-995.7227 "/>
<polyline fill="none" stroke="#000000" points="769.4479,-1080.2891 779.7089,-1082.74 788.7491,-1085.4558 798.1879,-1080.6279 812.5321,-1073.6373 819.759,-1070.2922 822.8521,-1068.9362 830.9341,-1065.5874 852.2731,-1057.7668 969.235,-1017.7479 984.4249,-1012.1804 987.0053,-1011.1725 998.5999,-1006.3618 1021.5441,-995.7227 1049.5289,-981.4006 1062.6235,-982.4193 1071.6779,-983.2867 1083.2528,-984.6044 1102.1721,-987.0988 1181.4583,-998.9688 1206.6111,-819.8933 1209.4774,-792.307 1217.3578,-737.6782 1222.3274,-690.0016 1228.4122,-646.6804 1302.7878,-572.7388 1311.4011,-537.4406 1314.0461,-527.5536 1327.4497,-481.4971 1234.2983,-373.5244 1130.9041,-285.9461 1188.7219,-152.7533 1190.4229,-84.072 1192.2594,-48.1222 1195.402,-7.4139 1194.5969,-3.966 1178.9049,28.0277 1074.1199,97.4914 1012.1653,107.3095 996.9199,110.5185 976.5148,115.8783 976.0796,116.0038 962.5682,120.2537 955.3174,122.7218 945.1871,131.571 823.8524,187.274 815.0598,191.9979 799.3887,189.1376 783.9891,186.9814 772.494,185.6165 751.7297,184.473 751.6114,184.4715 727.1086,181.5723 723.0038,181.2647 717.2789,181.0829 702.5679,175.0485 685.5598,168.9415 568.4866,129.9253 525.7599,21.8174 516.1522,-.6104 522.45,-58.5541 524.0396,-78.2586 549.1977,-208.3519 535.6395,-216.0396 511.0518,-228.1796 507.8548,-229.6008 503.5702,-231.4024 498.061,-233.5872 441.4708,-261.2294 364.6198,-333.9091 302.8096,-427.6374 304.2421,-441.1295 286.5139,-518.5168 278.9996,-547.7078 275.8928,-580.5524 289.2365,-602.7491 334.4635,-682.837 334.4875,-683.6031 334.7823,-770.8651 332.233,-874.1836 309.2676,-935.5912 369.9972,-971.6757 376.1787,-975.0204 397.0916,-985.7894 403.0422,-988.6928 409.0772,-991.4754 414.8814,-993.9968 428.0192,-999.3553 554.4846,-1044.2139 567.0112,-1049.3246 571.1243,-1051.1122 586.1433,-1058.0438 602.3118,-1066.371 606.4454,-1068.7214 612.7107,-1068.8092 626.0292,-1068.4491 629.3086,-1068.4277 631.9411,-1068.3564 632.3762,-1068.3536 640.2484,-1068.4629 640.2916,-1068.4645 641.9217,-1068.4869 641.9609,-1068.4867 653.4879,-1068.6459 656.8524,-1068.7614 660.9586,-1068.8179 664.1038,-1068.7966 675.6931,-1068.4808 682.6557,-1068.5762 701.3428,-1069.5969 725.7444,-1071.9294 730.3255,-1072.5542 750.1443,-1076.0712 769.4479,-1080.2891 "/>
<polyline fill="none" stroke="#000000" points="1480.4978,-1158.7112 1487.3069,-1158.3774 1503.7328,-1158.4252 1504.1438,-1158.437 1506.6935,-1158.4414 1513.6062,-1158.6327 1517.6444,-1158.8492 1518.7198,-1158.8777 1532.7753,-1158.4871 1546.7664,-1158.8239 1562.5237,-1159.611 1589.1515,-1147.4498 1672.8459,-1150.5721 1688.8683,-1150.6417 1691.2355,-1150.729 1694.0864,-1150.7397 1699.6209,-1150.9407 1699.8796,-1150.9415 1704.6111,-1150.8005 1715.453,-1150.83 1715.9967,-1150.8491 1726.786,-1150.8726 1728.2992,-1150.8259 1728.7349,-1150.8267 1729.8685,-1149.8311 1731.2625,-1148.5157 1751.0792,-1132.1473 1758.974,-1126.1162 1763.8221,-1122.7117 1781.9713,-1112.0975 1791.3717,-1107.1735 1797.6736,-1104.2588 1807.2148,-1100.4229 1825.6771,-1095.2062 1829.5223,-1094.3547 1837.0552,-1093.1394 1861.6753,-1090.6471 1867.7905,-1089.6556 1879.8816,-1086.9553 1881.6115,-1086.4645 1894.6759,-1081.9467 1902.3352,-1078.8314 1912.5071,-1074.0725 1919.981,-1070.1241 1920.4064,-1069.8735 1938.5449,-1058.0267 1947.9266,-1051.3346 1994.3899,-1015.421 2002.1309,-1016.6256 2015.2511,-1019.0433 2042.3831,-1026.3876 2065.542,-1034.6532 2068.0769,-1035.6296 2144.8467,-1067.4083 2152.6936,-1066.0015 2166.001,-1063.3546 2173.9004,-1061.474 2182.5005,-1059.0865 2200.4814,-1071.6051 2207.998,-1076.4156 2225.7422,-1087.2809 2339.7961,-1153.8718 2396.8901,-1246.7952 2411.7349,-1269.6096 2387.6584,-1338.7415 2370.8462,-1391.6292 2324.3035,-1448.9087 2219.5449,-1495.8267 2219.3113,-1495.9375 2215.2322,-1497.9789 2197.3542,-1503.4978 2187.7825,-1506.6709 2124.7703,-1597.6761 2109.8572,-1666.7952 2068.4221,-1703.9124 1921.9183,-1755.4139 1898.5592,-1764.2639 1885.5813,-1770.23 1884.3037,-1770.8521 1870.4359,-1769.0446 1867.4403,-1768.7219 1857.2366,-1767.8536 1844.1692,-1767.3314 1715.3713,-1820.3307 1690.0762,-1819.8073 1689.6589,-1819.8191 1671.6445,-1820.7719 1670.0571,-1820.8947 1658.7708,-1819.9076 1612.6453,-1818.1449 1500.8027,-1767.9579 1494.9895,-1768.1041 1470.9211,-1769.7439 1450.0625,-1772.0599 1448.7833,-1772.2292 1444.3376,-1772.9128 1434.3789,-1774.6578 1431.4805,-1775.2279 1424.4537,-1776.7611 1415.9094,-1768.3649 1370.9083,-1725.9983 1260.5527,-1615.7354 1260.4601,-1615.2 1257.5306,-1584.7096 1253.1519,-1549.7606 1105.9232,-1410.5675 1115.1033,-1395.0231 1124.2822,-1378.5688 1206.3259,-1222.1 1256.0082,-1142.045 1270.9769,-1147.8514 1420.3422,-1157.4399 1450.3793,-1158.5563 1454.1228,-1158.391 1467.0327,-1158.4897 1469.3618,-1158.5679 1472.8339,-1158.7744 1476.6702,-1158.7947 1480.4978,-1158.7112 "/>
<polyline fill="none" stroke="#000000" points="428.0192,-999.3553 414.8814,-993.9968 409.0772,-991.4754 403.0422,-988.6928 397.0916,-985.7894 376.1787,-975.0204 369.9972,-971.6757 309.2676,-935.5912 297.5273,-940.4996 261.2587,-958.4977 214.8927,-1017.9695 212.4947,-1019.4371 191.7407,-1031.0795 186.3706,-1033.8152 178.5929,-1037.5806 173.8113,-1039.7745 165.8443,-1043.23 151.8656,-1048.9417 134.5931,-1055.5593 26.0413,-1091.5709 -52.8372,-1183.3779 -79.0434,-1231.3938 -120.9261,-1263.1528 -134.1632,-1290.3783 -129.781,-1341.1519 -122.5578,-1457.5292 -121.5728,-1484.2017 -108.3297,-1511.2012 -110.7179,-1573.9861 -114.4505,-1632.9309 -116.7605,-1659.1298 -54.7928,-1771.626 73.6859,-1779.2992 83.7541,-1780.162 93.6735,-1781.2692 99.6806,-1782.2518 107.4361,-1781.3754 111.5771,-1781.0139 115.7349,-1780.7579 140.9904,-1779.8527 151.949,-1780.025 170.9924,-1781.307 182.9851,-1782.4231 208.8107,-1786.1552 279.8714,-1839.7174 344.6809,-1860.6696 359.7773,-1865.926 368.2977,-1869.3153 372.4281,-1867.3135 392.274,-1858.2194 408.2976,-1852.1577 416.7165,-1849.1969 438.4785,-1842.6925 450.5136,-1839.7367 570.5506,-1813.4498 625.7501,-1788.6959 633.7065,-1789.2314 634.4498,-1788.4304 640.1001,-1782.5797 663.3947,-1761.267 672.3298,-1753.4633 675.8752,-1750.6561 687.286,-1742.0686 699.4556,-1732.3441 708.6077,-1725.4349 712.9136,-1722.5573 719.0089,-1718.7377 732.9372,-1710.5852 743.0477,-1705.0966 752.8968,-1700.1713 758.7645,-1697.4894 764.6652,-1695.0437 779.0653,-1689.6835 787.1211,-1687.0321 805.0497,-1682.6545 816.4636,-1680.8402 823.0565,-1680.0725 843.5914,-1678.5531 857.1945,-1676.9569 868.4798,-1675.1459 889.0281,-1670.0729 891.2125,-1669.4412 894.2134,-1668.4448 898.4469,-1666.8547 921.1202,-1657.3319 930.9444,-1652.3641 938.5021,-1615.2 942.5606,-1572.8 967.9384,-1428.8619 840.7177,-1374.9648 831.2081,-1321.6656 818.9045,-1239.126 818.1209,-1232.4573 815.8343,-1216.9089 788.7491,-1085.4558 779.7089,-1082.74 769.4479,-1080.2891 750.1443,-1076.0712 730.3255,-1072.5542 725.7444,-1071.9294 701.3428,-1069.5969 682.6557,-1068.5762 675.6931,-1068.4808 664.1038,-1068.7966 660.9586,-1068.8179 656.8524,-1068.7614 653.4879,-1068.6459 641.9609,-1068.4867 641.9217,-1068.4869 640.2916,-1068.4645 640.2484,-1068.4629 632.3762,-1068.3536 631.9411,-1068.3564 629.3086,-1068.4277 626.0292,-1068.4491 612.7107,-1068.8092 606.4454,-1068.7214 602.3118,-1066.371 586.1433,-1058.0438 571.1243,-1051.1122 567.0112,-1049.3246 554.4846,-1044.2139 428.0192,-999.3553 "/>
<polyline fill="none" stroke="#000000" points="1704.6111,-1150.8005 1715.453,-1150.83 1715.9967,-1150.8491 1726.786,-1150.8726 1728.2992,-1150.8259 1728.7349,-1150.8267 1729.8685,-1149.8311 1731.2625,-1148.5157 1751.0792,-1132.1473 1758.974,-1126.1162 1763.8221,-1122.7117 1781.9713,-1112.0975 1791.3717,-1107.1735 1797.6736,-1104.2588 1807.2148,-1100.4229 1825.6771,-1095.2062 1829.5223,-1094.3547 1837.0552,-1093.1394 1861.6753,-1090.6471 1867.7905,-1089.6556 1879.8816,-1086.9553 1881.6115,-1086.4645 1894.6759,-1081.9467 1902.3352,-1078.8314 1912.5071,-1074.0725 1919.981,-1070.1241 1920.4064,-1069.8735 1938.5449,-1058.0267 1947.9266,-1051.3346 1994.3899,-1015.421 2002.1309,-1016.6256 2015.2511,-1019.0433 2042.3831,-1026.3876 2065.542,-1034.6532 2068.0769,-1035.6296 2144.8467,-1067.4083 2152.6936,-1066.0015 2166.001,-1063.3546 2173.9004,-1061.474 2182.5005,-1059.0865 2221.2983,-957.7888 2228.95,-890.3428 2236.1348,-840.0039 2230.2964,-816.8604 2217.1177,-757.5216 2182.106,-715.6037 2175.8889,-684.89 2162.7424,-594.4078 2138.1257,-547.3044 2123.0063,-531.6193 2015.77,-491.6985 1990.8285,-481.7663 1976.0627,-474.7568 1973.3239,-475.0211 1972.4216,-475.0893 1868.2151,-430.6196 1803.8073,-424.0857 1783.0573,-420.8569 1770.9453,-418.6461 1754.2996,-414.7112 1749.8969,-413.5526 1742.8984,-411.5223 1705.25,-399.5831 1614.7354,-408.3916 1605.7175,-416.4442 1596.5508,-420.4054 1585.1136,-425.0865 1569.4818,-430.7736 1568.8337,-430.9946 1562.8248,-432.9083 1543.0328,-438.328 1530.567,-441.1816 1512.0159,-445.0114 1510.2607,-445.3339 1499.1481,-447.125 1439.7924,-454.0184 1327.4497,-481.4971 1314.0461,-527.5536 1311.4011,-537.4406 1302.7878,-572.7388 1228.4122,-646.6804 1222.3274,-690.0016 1217.3578,-737.6782 1209.4774,-792.307 1206.6111,-819.8933 1181.4583,-998.9688 1184.7084,-1001.3259 1256.0082,-1142.045 1270.9769,-1147.8514 1420.3422,-1157.4399 1450.3793,-1158.5563 1454.1228,-1158.391 1467.0327,-1158.4897 1469.3618,-1158.5679 1472.8339,-1158.7744 1476.6702,-1158.7947 1480.4978,-1158.7112 1487.3069,-1158.3774 1503.7328,-1158.4252 1504.1438,-1158.437 1506.6935,-1158.4414 1513.6062,-1158.6327 1517.6444,-1158.8492 1518.7198,-1158.8777 1532.7753,-1158.4871 1546.7664,-1158.8239 1562.5237,-1159.611 1589.1515,-1147.4498 1672.8459,-1150.5721 1688.8683,-1150.6417 1691.2355,-1150.729 1694.0864,-1150.7397 1699.6209,-1150.9407 1699.8796,-1150.9415 1704.6111,-1150.8005 "/>
<!-- Books&#45;&gt;Management -->
<g id="edge1" class="edge">
<title>Books&#45;&gt;Management</title>
<path fill="none" stroke="#555555" stroke-opacity="0.133333" d="M987.37,-1196.3C953.79,-1108.2 843.65,-819.53 805.98,-720.76"/>
<polygon fill="#555555" fill-opacity="0.133333" stroke="#555555" stroke-opacity="0.133333" points="809.1943,-719.3659 802.36,-711.27 802.6539,-721.8608 809.1943,-719.3659"/>
</g>
<!-- Books&#45;&gt;Programming -->
<g id="edge2" class="edge">
<title>Books&#45;&gt;Programming</title>
<path fill="none" stroke="#555555" stroke-opacity="0.133333" d="M1049.1,-1234C1131.7,-1253 1293.9,-1290.3 1393.4,-1313.1"/>
<polygon fill="#555555" fill-opacity="0.133333" stroke="#555555" stroke-opacity="0.133333" points="1392.8699,-1316.5694 1403.4,-1315.4 1394.439,-1309.7475 1392.8699,-1316.5694"/>
</g>
<!-- Books&#45;&gt;Linux -->
<g id="edge3" class="edge">
<title>Books&#45;&gt;Linux</title>
<path fill="none" stroke="#555555" stroke-opacity="0.133333" d="M950.16,-1237.7C853.98,-1269.7 635.67,-1342.4 537.17,-1375.1"/>
<polygon fill="#555555" fill-opacity="0.133333" stroke="#555555" stroke-opacity="0.133333" points="535.7939,-1371.8709 527.45,-1378.4 538.0444,-1378.4993 535.7939,-1371.8709"/>
</g>
<!-- Books&#45;&gt;Texts -->
<g id="edge4" class="edge">
<title>Books&#45;&gt;Texts</title>
<path fill="none" stroke="#555555" stroke-opacity="0.133333" d="M1002.5,-1248.2C1016.5,-1317 1054.4,-1503.3 1070.1,-1580.7"/>
<polygon fill="#555555" fill-opacity="0.133333" stroke="#555555" stroke-opacity="0.133333" points="1066.7553,-1581.8112 1072.2,-1590.9 1073.6115,-1580.3996 1066.7553,-1581.8112"/>
</g>
<!-- Management&#45;&gt;The Mythical Man&#45;Month -->
<g id="edge5" class="edge">
<title>Management&#45;&gt;The Mythical Man&#45;Month</title>
<path fill="none" stroke="#555555" stroke-opacity="0.133333" d="M745.47,-666.13C692.77,-642.79 608.45,-605.43 555.75,-582.09"/>
<polygon fill="#555555" fill-opacity="0.133333" stroke="#555555" stroke-opacity="0.133333" points="556.8507,-578.7496 546.29,-577.9 554.0159,-585.1499 556.8507,-578.7496"/>
</g>
<!-- Management&#45;&gt;Agile technologies, Extreme Programming and RUP. -->
<g id="edge6" class="edge">
<title>Management&#45;&gt;Agile technologies, Extreme Programming and RUP.</title>
<path fill="none" stroke="#555555" stroke-opacity="0.133333" d="M773.57,-663.55C735.74,-617.84 653.03,-517.92 613.75,-470.46"/>
<polygon fill="#555555" fill-opacity="0.133333" stroke="#555555" stroke-opacity="0.133333" points="616.2424,-467.982 607.17,-462.51 610.8498,-472.4453 616.2424,-467.982"/>
</g>
<!-- Management&#45;&gt;Human factor. Successful projects and commands. -->
<g id="edge7" class="edge">
<title>Management&#45;&gt;Human factor. Successful projects and commands.</title>
<path fill="none" stroke="#555555" stroke-opacity="0.133333" d="M825.44,-664.44C866.34,-635.47 936.53,-585.75 978.08,-556.33"/>
<polygon fill="#555555" fill-opacity="0.133333" stroke="#555555" stroke-opacity="0.133333" points="980.3548,-559.0077 986.49,-550.37 976.3073,-553.2965 980.3548,-559.0077"/>
</g>
<!-- Management&#45;&gt;Scrum and XP, notes from frontline -->
<g id="edge8" class="edge">
<title>Management&#45;&gt;Scrum and XP, notes from frontline</title>
<path fill="none" stroke="#555555" stroke-opacity="0.133333" d="M796.04,-662.9C800.33,-625.94 808.48,-555.89 813.03,-516.75"/>
<polygon fill="#555555" fill-opacity="0.133333" stroke="#555555" stroke-opacity="0.133333" points="816.534,-516.9168 814.21,-506.58 809.5807,-516.1099 816.534,-516.9168"/>
</g>
<!-- Management&#45;&gt;The Phoenix Project: A Novel about IT, DevOps, and Helping Your Business Win -->
<g id="edge9" class="edge">
<title>Management&#45;&gt;The Phoenix Project: A Novel about IT, DevOps, and Helping Your Business Win</title>
<path fill="none" stroke="#555555" stroke-opacity="0.133333" d="M779.88,-711.4C762.5,-742.89 732.15,-797.87 713.94,-830.86"/>
<polygon fill="#555555" fill-opacity="0.133333" stroke="#555555" stroke-opacity="0.133333" points="710.6905,-829.5041 708.92,-839.95 716.8182,-832.8882 710.6905,-829.5041"/>
</g>
<!-- Management&#45;&gt;Goldratt: Isn&#39;t It Obvious? Retailing and the Theory of Constraints -->
<g id="edge10" class="edge">
<title>Management&#45;&gt;Goldratt: Isn&#39;t It Obvious? Retailing and the Theory of Constraints</title>
<path fill="none" stroke="#555555" stroke-opacity="0.133333" d="M854.02,-706.52C870.79,-711.83 889.05,-717.61 906.06,-722.99"/>
<polygon fill="#555555" fill-opacity="0.133333" stroke="#555555" stroke-opacity="0.133333" points="905.3199,-726.4269 915.91,-726.11 907.4337,-719.7537 905.3199,-726.4269"/>
</g>
<!-- Management&#45;&gt;Goldratt: The Choice -->
<g id="edge11" class="edge">
<title>Management&#45;&gt;Goldratt: The Choice</title>
<path fill="none" stroke="#555555" stroke-opacity="0.133333" d="M709.68,-700.42C680.18,-705.07 647.13,-710.27 618.04,-714.85"/>
<polygon fill="#555555" fill-opacity="0.133333" stroke="#555555" stroke-opacity="0.133333" points="617.2648,-711.4288 607.93,-716.44 618.3524,-718.3438 617.2648,-711.4288"/>
</g>
<!-- Management&#45;&gt;People -->
<g id="edge12" class="edge">
<title>Management&#45;&gt;People</title>
<path fill="none" stroke="#555555" stroke-opacity="0.133333" d="M795.44,-663.21C802.01,-592.72 821.22,-386.61 828.74,-305.91"/>
<polygon fill="#555555" fill-opacity="0.133333" stroke="#555555" stroke-opacity="0.133333" points="832.2372,-306.1016 829.68,-295.82 825.2674,-305.4522 832.2372,-306.1016"/>
</g>
<!-- Programming&#45;&gt;SRE. How google runs production software. -->
<g id="edge13" class="edge">
<title>Programming&#45;&gt;SRE. How google runs production software.</title>
<path fill="none" stroke="#555555" stroke-opacity="0.133333" d="M1564.3,-1318.7C1593.3,-1314.1 1625.8,-1308.9 1655.9,-1304"/>
<polygon fill="#555555" fill-opacity="0.133333" stroke="#555555" stroke-opacity="0.133333" points="1656.7632,-1307.4075 1666.1,-1302.4 1655.6784,-1300.492 1656.7632,-1307.4075"/>
</g>
<!-- Programming&#45;&gt;The Pragmatic Programmer -->
<g id="edge14" class="edge">
<title>Programming&#45;&gt;The Pragmatic Programmer</title>
<path fill="none" stroke="#555555" stroke-opacity="0.133333" d="M1514.8,-1355.1C1589,-1400.4 1755.4,-1501.9 1829.8,-1547.3"/>
<polygon fill="#555555" fill-opacity="0.133333" stroke="#555555" stroke-opacity="0.133333" points="1828.139,-1550.3864 1838.5,-1552.6 1831.7808,-1544.4083 1828.139,-1550.3864"/>
</g>
<!-- Programming&#45;&gt;Facts and Fallacies of Software Engineering -->
<g id="edge15" class="edge">
<title>Programming&#45;&gt;Facts and Fallacies of Software Engineering</title>
<path fill="none" stroke="#555555" stroke-opacity="0.133333" d="M1479.9,-1356.9C1483.6,-1400.1 1491.2,-1490 1495,-1535.9"/>
<polygon fill="#555555" fill-opacity="0.133333" stroke="#555555" stroke-opacity="0.133333" points="1491.5262,-1536.3501 1495.9,-1546 1498.4985,-1535.7288 1491.5262,-1536.3501"/>
</g>
<!-- Programming&#45;&gt;Clean Code -->
<g id="edge16" class="edge">
<title>Programming&#45;&gt;Clean Code</title>
<path fill="none" stroke="#555555" stroke-opacity="0.133333" d="M1493.6,-1356.4C1530.3,-1412.1 1621.2,-1550.1 1659.3,-1608"/>
<polygon fill="#555555" fill-opacity="0.133333" stroke="#555555" stroke-opacity="0.133333" points="1656.5102,-1610.1299 1664.9,-1616.6 1662.3762,-1606.3101 1656.5102,-1610.1299"/>
</g>
<!-- Programming&#45;&gt;Extreme programming -->
<g id="edge17" class="edge">
<title>Programming&#45;&gt;Extreme programming</title>
<path fill="none" stroke="#555555" stroke-opacity="0.133333" d="M1532,-1311.7C1614.4,-1280.1 1770.1,-1220.4 1850.8,-1189.4"/>
<polygon fill="#555555" fill-opacity="0.133333" stroke="#555555" stroke-opacity="0.133333" points="1852.1892,-1192.6165 1860.3,-1185.8 1849.7086,-1186.0708 1852.1892,-1192.6165"/>
</g>
<!-- Programming&#45;&gt;Cracking the code Interview -->
<g id="edge18" class="edge">
<title>Programming&#45;&gt;Cracking the code Interview</title>
<path fill="none" stroke="#555555" stroke-opacity="0.133333" d="M1513.5,-1355.3C1554.6,-1381.6 1622,-1424.6 1663.4,-1451.1"/>
<polygon fill="#555555" fill-opacity="0.133333" stroke="#555555" stroke-opacity="0.133333" points="1661.7771,-1454.2148 1672.1,-1456.6 1665.5177,-1448.298 1661.7771,-1454.2148"/>
</g>
<!-- Programming&#45;&gt;Distributed Systems, v3 -->
<g id="edge19" class="edge">
<title>Programming&#45;&gt;Distributed Systems, v3</title>
<path fill="none" stroke="#555555" stroke-opacity="0.133333" d="M1555,-1348.9C1643.2,-1367.7 1786.4,-1398.2 1873.1,-1416.6"/>
<polygon fill="#555555" fill-opacity="0.133333" stroke="#555555" stroke-opacity="0.133333" points="1872.5815,-1420.0696 1883.1,-1418.8 1874.0856,-1413.233 1872.5815,-1420.0696"/>
</g>
<!-- Programming&#45;&gt;97 Things Every Software Architect Should Know -->
<g id="edge20" class="edge">
<title>Programming&#45;&gt;97 Things Every Software Architect Should Know</title>
<path fill="none" stroke="#555555" stroke-opacity="0.133333" d="M1580,-1326.4C1680.5,-1320.4 1836.1,-1311.2 1955.6,-1304"/>
<polygon fill="#555555" fill-opacity="0.133333" stroke="#555555" stroke-opacity="0.133333" points="1955.7873,-1307.4951 1965.6,-1303.5 1955.4377,-1300.5038 1955.7873,-1307.4951"/>
</g>
<!-- Programming&#45;&gt;The Clean Architecture -->
<g id="edge21" class="edge">
<title>Programming&#45;&gt;The Clean Architecture</title>
<path fill="none" stroke="#555555" stroke-opacity="0.133333" d="M1426,-1353.6C1415.5,-1357.9 1404.5,-1362.4 1394.1,-1366.6"/>
<polygon fill="#555555" fill-opacity="0.133333" stroke="#555555" stroke-opacity="0.133333" points="1392.6684,-1363.405 1384.8,-1370.5 1395.3755,-1369.8604 1392.6684,-1363.405"/>
</g>
<!-- Programming&#45;&gt;Languages -->
<g id="edge22" class="edge">
<title>Programming&#45;&gt;Languages</title>
<path fill="none" stroke="#555555" stroke-opacity="0.133333" d="M1490.1,-1308.6C1529.9,-1231.4 1654.9,-988.48 1699.7,-901.32"/>
<polygon fill="#555555" fill-opacity="0.133333" stroke="#555555" stroke-opacity="0.133333" points="1702.9348,-902.683 1704.4,-892.19 1696.7111,-899.4791 1702.9348,-902.683"/>
</g>
<!-- Linux&#45;&gt;Linux kernel primer -->
<g id="edge23" class="edge">
<title>Linux&#45;&gt;Linux kernel primer</title>
<path fill="none" stroke="#555555" stroke-opacity="0.133333" d="M512.42,-1372.1C537.02,-1352.8 574.56,-1323.4 600.89,-1302.8"/>
<polygon fill="#555555" fill-opacity="0.133333" stroke="#555555" stroke-opacity="0.133333" points="603.3274,-1305.3356 609.02,-1296.4 598.9976,-1299.8354 603.3274,-1305.3356"/>
</g>
<!-- Linux&#45;&gt;Linux Advanced Routing and Traffic Control -->
<g id="edge24" class="edge">
<title>Linux&#45;&gt;Linux Advanced Routing and Traffic Control</title>
<path fill="none" stroke="#555555" stroke-opacity="0.133333" d="M455.57,-1374.3C406.71,-1347.6 313.09,-1296.3 258.95,-1266.7"/>
<polygon fill="#555555" fill-opacity="0.133333" stroke="#555555" stroke-opacity="0.133333" points="260.4155,-1263.5127 249.96,-1261.8 257.0654,-1269.659 260.4155,-1263.5127"/>
</g>
<!-- Linux&#45;&gt;Unix in a nutshell -->
<g id="edge25" class="edge">
<title>Linux&#45;&gt;Unix in a nutshell</title>
<path fill="none" stroke="#555555" stroke-opacity="0.133333" d="M477.76,-1369.3C461.57,-1331.2 428.77,-1254.1 411.27,-1213"/>
<polygon fill="#555555" fill-opacity="0.133333" stroke="#555555" stroke-opacity="0.133333" points="414.4062,-1211.4311 407.27,-1203.6 407.9651,-1214.172 414.4062,-1211.4311"/>
</g>
<!-- Linux&#45;&gt;Art of the Unix programming -->
<g id="edge26" class="edge">
<title>Linux&#45;&gt;Art of the Unix programming</title>
<path fill="none" stroke="#555555" stroke-opacity="0.133333" d="M437.66,-1392.9C387.81,-1394 308.96,-1395.9 241.85,-1397.4"/>
<polygon fill="#555555" fill-opacity="0.133333" stroke="#555555" stroke-opacity="0.133333" points="241.5032,-1393.9086 231.61,-1397.7 241.7082,-1400.9056 241.5032,-1393.9086"/>
</g>
<!-- Linux&#45;&gt;Advanced Linux programming -->
<g id="edge27" class="edge">
<title>Linux&#45;&gt;Advanced Linux programming</title>
<path fill="none" stroke="#555555" stroke-opacity="0.133333" d="M456.74,-1409.7C391.53,-1448.2 238.9,-1538.2 167.21,-1580.5"/>
<polygon fill="#555555" fill-opacity="0.133333" stroke="#555555" stroke-opacity="0.133333" points="165.3431,-1577.537 158.47,-1585.6 168.8711,-1583.583 165.3431,-1577.537"/>
</g>
<!-- Linux&#45;&gt;Network Performance Tuning (RHEL) -->
<g id="edge28" class="edge">
<title>Linux&#45;&gt;Network Performance Tuning (RHEL)</title>
<path fill="none" stroke="#555555" stroke-opacity="0.133333" d="M448,-1405.5C417.2,-1416.3 373.9,-1431.6 339.09,-1443.8"/>
<polygon fill="#555555" fill-opacity="0.133333" stroke="#555555" stroke-opacity="0.133333" points="337.7634,-1440.5568 329.51,-1447.2 340.1047,-1447.1537 337.7634,-1440.5568"/>
</g>
<!-- Linux&#45;&gt;Packagecloud blog posts: Monitoring and tuning Linux networking stack: sending data &amp; receiving data -->
<g id="edge29" class="edge">
<title>Linux&#45;&gt;Packagecloud blog posts: Monitoring and tuning Linux networking stack: sending data &amp; receiving data</title>
<path fill="none" stroke="#555555" stroke-opacity="0.133333" d="M505.25,-1413.2C533.07,-1446.5 586.53,-1510.5 616.6,-1546.5"/>
<polygon fill="#555555" fill-opacity="0.133333" stroke="#555555" stroke-opacity="0.133333" points="614.2654,-1549.165 623.36,-1554.6 619.6397,-1544.6798 614.2654,-1549.165"/>
</g>
<!-- Linux&#45;&gt;Linux Kernel, Robert Love -->
<g id="edge30" class="edge">
<title>Linux&#45;&gt;Linux Kernel, Robert Love</title>
<path fill="none" stroke="#555555" stroke-opacity="0.133333" d="M480.06,-1414.3C463.95,-1464.4 425.22,-1584.9 407.66,-1639.5"/>
<polygon fill="#555555" fill-opacity="0.133333" stroke="#555555" stroke-opacity="0.133333" points="404.2702,-1638.6086 404.54,-1649.2 410.934,-1640.752 404.2702,-1638.6086"/>
</g>
<!-- Texts&#45;&gt;  -->
<g id="edge31" class="edge">
<title>Texts&#45;&gt; </title>
<path fill="none" stroke="#555555" stroke-opacity="0.133333" d="M1092,-1638.2C1111.3,-1668.1 1144.9,-1720.1 1165.3,-1751.6"/>
<polygon fill="#555555" fill-opacity="0.133333" stroke="#555555" stroke-opacity="0.133333" points="1162.5445,-1753.7857 1170.9,-1760.3 1168.4305,-1749.997 1162.5445,-1753.7857"/>
</g>
<!-- Texts&#45;&gt;    -->
<g id="edge32" class="edge">
<title>Texts&#45;&gt;   </title>
<path fill="none" stroke="#555555" stroke-opacity="0.133333" d="M1053.9,-1636.7C1019.8,-1668.3 956.55,-1727.1 920.57,-1760.5"/>
<polygon fill="#555555" fill-opacity="0.133333" stroke="#555555" stroke-opacity="0.133333" points="917.8648,-1758.2351 912.91,-1767.6 922.6234,-1763.369 917.8648,-1758.2351"/>
</g>
<!-- Texts&#45;&gt;   -->
<g id="edge33" class="edge">
<title>Texts&#45;&gt;  </title>
<path fill="none" stroke="#555555" stroke-opacity="0.133333" d="M1073.8,-1639.4C1067,-1689.7 1051.2,-1805.4 1043.9,-1859.2"/>
<polygon fill="#555555" fill-opacity="0.133333" stroke="#555555" stroke-opacity="0.133333" points="1040.3924,-1859.0169 1042.5,-1869.4 1047.3274,-1859.9688 1040.3924,-1859.0169"/>
</g>
<!-- People&#45;&gt;The Inmates Are Running the Asylum -->
<g id="edge34" class="edge">
<title>People&#45;&gt;The Inmates Are Running the Asylum</title>
<path fill="none" stroke="#555555" stroke-opacity="0.133333" d="M825.36,-250.35C812.05,-203.6 781.55,-96.489 767.09,-45.698"/>
<polygon fill="#555555" fill-opacity="0.133333" stroke="#555555" stroke-opacity="0.133333" points="770.4448,-44.6992 764.34,-36.04 763.7124,-46.6162 770.4448,-44.6992"/>
</g>
<!-- People&#45;&gt;Game theory, the art of strategy -->
<g id="edge35" class="edge">
<title>People&#45;&gt;Game theory, the art of strategy</title>
<path fill="none" stroke="#555555" stroke-opacity="0.133333" d="M845.18,-250.84C868.31,-212.58 915.69,-134.2 940.63,-92.937"/>
<polygon fill="#555555" fill-opacity="0.133333" stroke="#555555" stroke-opacity="0.133333" points="943.7057,-94.6144 945.88,-84.245 937.7139,-90.9952 943.7057,-94.6144"/>
</g>
<!-- Languages&#45;&gt;An Introducion to programming on Go -->
<g id="edge36" class="edge">
<title>Languages&#45;&gt;An Introducion to programming on Go</title>
<path fill="none" stroke="#555555" stroke-opacity="0.133333" d="M1701,-847.31C1673,-805.37 1612.9,-715.37 1582.9,-670.5"/>
<polygon fill="#555555" fill-opacity="0.133333" stroke="#555555" stroke-opacity="0.133333" points="1585.8237,-668.5759 1577.4,-662.15 1579.9779,-672.4264 1585.8237,-668.5759"/>
</g>
<!-- Languages&#45;&gt;C Programming language -->
<g id="edge37" class="edge">
<title>Languages&#45;&gt;C Programming language</title>
<path fill="none" stroke="#555555" stroke-opacity="0.133333" d="M1794.8,-865.64C1830.5,-863.76 1873.2,-861.51 1911.8,-859.47"/>
<polygon fill="#555555" fill-opacity="0.133333" stroke="#555555" stroke-opacity="0.133333" points="1912.297,-862.9488 1922.1,-858.93 1911.9304,-855.9584 1912.297,-862.9488"/>
</g>
<!-- Languages&#45;&gt;Dive into python -->
<g id="edge38" class="edge">
<title>Languages&#45;&gt;Dive into python</title>
<path fill="none" stroke="#555555" stroke-opacity="0.133333" d="M1720.8,-846.75C1731.1,-797.3 1755.4,-681.2 1766.6,-627.54"/>
<polygon fill="#555555" fill-opacity="0.133333" stroke="#555555" stroke-opacity="0.133333" points="1770.0422,-628.1795 1768.7,-617.67 1763.1955,-626.7227 1770.0422,-628.1795"/>
</g>
<!-- Languages&#45;&gt;Advanced Bash Scripting Guide -->
<g id="edge39" class="edge">
<title>Languages&#45;&gt;Advanced Bash Scripting Guide</title>
<path fill="none" stroke="#555555" stroke-opacity="0.133333" d="M1743.4,-848.22C1787.6,-813.52 1874.2,-745.5 1920.5,-709.15"/>
<polygon fill="#555555" fill-opacity="0.133333" stroke="#555555" stroke-opacity="0.133333" points="1922.9235,-711.6958 1928.6,-702.75 1918.5838,-706.2034 1922.9235,-711.6958"/>
</g>
<!-- Languages&#45;&gt;The main question of coding, refactoring and everything. -->
<g id="edge40" class="edge">
<title>Languages&#45;&gt;The main question of coding, refactoring and everything.</title>
<path fill="none" stroke="#555555" stroke-opacity="0.133333" d="M1664.3,-852.48C1618.2,-837.01 1550.6,-814.32 1501.6,-797.89"/>
<polygon fill="#555555" fill-opacity="0.133333" stroke="#555555" stroke-opacity="0.133333" points="1502.6941,-794.5654 1492.1,-794.69 1500.4595,-801.1991 1502.6941,-794.5654"/>
</g>
<!-- Languages&#45;&gt;Enough rope to shoot yourself in the foot -->
<g id="edge41" class="edge">
<title>Languages&#45;&gt;Enough rope to shoot yourself in the foot</title>
<path fill="none" stroke="#555555" stroke-opacity="0.133333" d="M1723.4,-892.36C1731.8,-917.69 1745.4,-958.8 1754.4,-986.17"/>
<polygon fill="#555555" fill-opacity="0.133333" stroke="#555555" stroke-opacity="0.133333" points="1751.1586,-987.5182 1757.6,-995.93 1757.8102,-985.3372 1751.1586,-987.5182"/>
</g>
<!-- Languages&#45;&gt;Learning SQL, O&#39;Reilly -->
<g id="edge42" class="edge">
<title>Languages&#45;&gt;Learning SQL, O&#39;Reilly</title>
<path fill="none" stroke="#555555" stroke-opacity="0.133333" d="M1662.7,-852.92C1649.3,-848.69 1634.9,-844.11 1621.2,-839.8"/>
<polygon fill="#555555" fill-opacity="0.133333" stroke="#555555" stroke-opacity="0.133333" points="1622.0909,-836.4104 1611.5,-836.7 1619.9599,-843.0781 1622.0909,-836.4104"/>
</g>
<!-- Languages&#45;&gt;C++ today. Beast is back -->
<g id="edge43" class="edge">
<title>Languages&#45;&gt;C++ today. Beast is back</title>
<path fill="none" stroke="#555555" stroke-opacity="0.133333" d="M1678.2,-890.01C1639,-911.02 1577.7,-943.8 1537.3,-965.43"/>
<polygon fill="#555555" fill-opacity="0.133333" stroke="#555555" stroke-opacity="0.133333" points="1535.3854,-962.484 1528.2,-970.27 1538.6725,-968.6643 1535.3854,-962.484"/>
</g>
<!-- Books -->
<g id="node1" class="node">
<title>Books</title>
<text text-anchor="middle" x="997.21" y="-1215.8" font-family="Helvetica,sans-Serif" font-weight="bold" font-size="26.00" fill="#000000">Books</text>
</g>
<!-- Management -->
<g id="node2" class="node">
<title>Management</title>
<text text-anchor="middle" x="793.2" y="-681.07" font-family="Helvetica,sans-Serif" font-weight="bold" font-size="24.00" fill="#000000">Management</text>
</g>
<!-- Programming -->
<g id="node3" class="node">
<title>Programming</title>
<text text-anchor="middle" x="1477.8" y="-1326.3" font-family="Helvetica,sans-Serif" font-weight="bold" font-size="24.00" fill="#000000">Programming</text>
</g>
<!-- Linux -->
<g id="node4" class="node">
<title>Linux</title>
<text text-anchor="middle" x="487.31" y="-1386.1" font-family="Helvetica,sans-Serif" font-weight="bold" font-size="22.00" fill="#000000">Linux</text>
</g>
<!-- Texts -->
<g id="node5" class="node">
<title>Texts</title>
<text text-anchor="middle" x="1077.1" y="-1609" font-family="Helvetica,sans-Serif" font-weight="bold" font-size="24.00" fill="#000000">Texts</text>
</g>
<!-- The Mythical Man&#45;Month -->
<g id="node6" class="node">
<title>The Mythical Man&#45;Month</title>
<text text-anchor="middle" x="508.01" y="-557.24" font-family="Helvetica,sans-Serif" font-weight="bold" font-size="14.00" fill="#000000">The Mythical Man&#45;Month</text>
</g>
<!-- Agile technologies, Extreme Programming and RUP. -->
<g id="node7" class="node">
<title>Agile technologies, Extreme Programming and RUP.</title>
<text text-anchor="middle" x="592.23" y="-440.75" font-family="Helvetica,sans-Serif" font-weight="bold" font-size="14.00" fill="#000000">Agile technologies, Extreme Programming and RUP.</text>
</g>
<!-- Human factor. Successful projects and commands. -->
<g id="node8" class="node">
<title>Human factor. Successful projects and commands.</title>
<text text-anchor="middle" x="1011.7" y="-528.8" font-family="Helvetica,sans-Serif" font-weight="bold" font-size="14.00" fill="#000000">Human factor. Successful projects and commands.</text>
</g>
<!-- Scrum and XP, notes from frontline -->
<g id="node9" class="node">
<title>Scrum and XP, notes from frontline</title>
<text text-anchor="middle" x="816.32" y="-484.78" font-family="Helvetica,sans-Serif" font-weight="bold" font-size="14.00" fill="#000000">Scrum and XP, notes from frontline</text>
</g>
<!-- The Phoenix Project: A Novel about IT, DevOps, and Helping Your Business Win -->
<g id="node10" class="node">
<title>The Phoenix Project: A Novel about IT, DevOps, and Helping Your Business Win</title>
<text text-anchor="middle" x="698.85" y="-854.49" font-family="Helvetica,sans-Serif" font-weight="bold" font-size="14.00" fill="#000000">The Phoenix Project: A Novel about IT, DevOps, and Helping Your Business Win</text>
</g>
<!-- Goldratt: Isn&#39;t It Obvious? Retailing and the Theory of Constraints -->
<g id="node11" class="node">
<title>Goldratt: Isn&#39;t It Obvious? Retailing and the Theory of Constraints</title>
<text text-anchor="middle" x="971.36" y="-739.96" font-family="Helvetica,sans-Serif" font-weight="bold" font-size="14.00" fill="#000000">Goldratt: Isn&#39;t It Obvious? Retailing and the Theory of Constraints</text>
</g>
<!-- Goldratt: The Choice -->
<g id="node12" class="node">
<title>Goldratt: The Choice</title>
<text text-anchor="middle" x="539.18" y="-723.57" font-family="Helvetica,sans-Serif" font-weight="bold" font-size="14.00" fill="#000000">Goldratt: The Choice</text>
</g>
<!-- People -->
<g id="node13" class="node">
<title>People</title>
<text text-anchor="middle" x="831.81" y="-267.37" font-family="Helvetica,sans-Serif" font-weight="bold" font-size="22.00" fill="#000000">People</text>
</g>
<!-- SRE. How google runs production software. -->
<g id="node14" class="node">
<title>SRE. How google runs production software.</title>
<text text-anchor="middle" x="1759.7" y="-1283.8" font-family="Helvetica,sans-Serif" font-weight="bold" font-size="14.00" fill="#000000">SRE. How google runs production software.</text>
</g>
<!-- The Pragmatic Programmer -->
<g id="node15" class="node">
<title>The Pragmatic Programmer</title>
<text text-anchor="middle" x="1867.1" y="-1566.4" font-family="Helvetica,sans-Serif" font-weight="bold" font-size="14.00" fill="#000000">The Pragmatic Programmer</text>
</g>
<!-- Facts and Fallacies of Software Engineering -->
<g id="node16" class="node">
<title>Facts and Fallacies of Software Engineering</title>
<text text-anchor="middle" x="1497.4" y="-1560.5" font-family="Helvetica,sans-Serif" font-weight="bold" font-size="14.00" fill="#000000">Facts and Fallacies of Software Engineering</text>
</g>
<!-- Clean Code -->
<g id="node17" class="node">
<title>Clean Code</title>
<text text-anchor="middle" x="1676.5" y="-1630.6" font-family="Helvetica,sans-Serif" font-weight="bold" font-size="14.00" fill="#000000">Clean Code</text>
</g>
<!-- Extreme programming -->
<g id="node18" class="node">
<title>Extreme programming</title>
<text text-anchor="middle" x="1902.4" y="-1165.9" font-family="Helvetica,sans-Serif" font-weight="bold" font-size="14.00" fill="#000000">Extreme programming</text>
</g>
<!-- Cracking the code Interview -->
<g id="node19" class="node">
<title>Cracking the code Interview</title>
<text text-anchor="middle" x="1699.6" y="-1470.5" font-family="Helvetica,sans-Serif" font-weight="bold" font-size="14.00" fill="#000000">Cracking the code Interview</text>
</g>
<!-- Distributed Systems, v3 -->
<g id="node20" class="node">
<title>Distributed Systems, v3</title>
<text text-anchor="middle" x="1946.8" y="-1428.6" font-family="Helvetica,sans-Serif" font-weight="bold" font-size="14.00" fill="#000000">Distributed Systems, v3</text>
</g>
<!-- 97 Things Every Software Architect Should Know -->
<g id="node21" class="node">
<title>97 Things Every Software Architect Should Know</title>
<text text-anchor="middle" x="2126.8" y="-1290.2" font-family="Helvetica,sans-Serif" font-weight="bold" font-size="14.00" fill="#000000">97 Things Every Software Architect Should Know</text>
</g>
<!-- The Clean Architecture -->
<g id="node22" class="node">
<title>The Clean Architecture</title>
<text text-anchor="middle" x="1344.8" y="-1383" font-family="Helvetica,sans-Serif" font-weight="bold" font-size="14.00" fill="#000000">The Clean Architecture</text>
</g>
<!-- Languages -->
<g id="node23" class="node">
<title>Languages</title>
<text text-anchor="middle" x="1716" y="-864.2" font-family="Helvetica,sans-Serif" font-weight="bold" font-size="22.00" fill="#000000">Languages</text>
</g>
<!-- Linux kernel primer -->
<g id="node24" class="node">
<title>Linux kernel primer</title>
<text text-anchor="middle" x="631.47" y="-1275.2" font-family="Helvetica,sans-Serif" font-weight="bold" font-size="14.00" fill="#000000">Linux kernel primer</text>
</g>
<!-- Linux Advanced Routing and Traffic Control -->
<g id="node25" class="node">
<title>Linux Advanced Routing and Traffic Control</title>
<text text-anchor="middle" x="217.5" y="-1240.3" font-family="Helvetica,sans-Serif" font-weight="bold" font-size="14.00" fill="#000000">Linux Advanced Routing and Traffic Control</text>
</g>
<!-- Unix in a nutshell -->
<g id="node26" class="node">
<title>Unix in a nutshell</title>
<text text-anchor="middle" x="399.64" y="-1181.9" font-family="Helvetica,sans-Serif" font-weight="bold" font-size="14.00" fill="#000000">Unix in a nutshell</text>
</g>
<!-- Art of the Unix programming -->
<g id="node27" class="node">
<title>Art of the Unix programming</title>
<text text-anchor="middle" x="116.34" y="-1396.7" font-family="Helvetica,sans-Serif" font-weight="bold" font-size="14.00" fill="#000000">Art of the Unix programming</text>
</g>
<!-- Advanced Linux programming -->
<g id="node28" class="node">
<title>Advanced Linux programming</title>
<text text-anchor="middle" x="128.74" y="-1599.5" font-family="Helvetica,sans-Serif" font-weight="bold" font-size="14.00" fill="#000000">Advanced Linux programming</text>
</g>
<!-- Network Performance Tuning (RHEL) -->
<g id="node29" class="node">
<title>Network Performance Tuning (RHEL)</title>
<text text-anchor="middle" x="280.89" y="-1460.5" font-family="Helvetica,sans-Serif" font-weight="bold" font-size="14.00" fill="#000000">Network Performance Tuning (RHEL)</text>
</g>
<!-- Packagecloud blog posts: Monitoring and tuning Linux networking stack: sending data &amp; receiving data -->
<g id="node30" class="node">
<title>Packagecloud blog posts: Monitoring and tuning Linux networking stack: sending data &amp; receiving data</title>
<text text-anchor="middle" x="638.56" y="-1569.1" font-family="Helvetica,sans-Serif" font-weight="bold" font-size="14.00" fill="#000000">Packagecloud blog posts: Monitoring and tuning Linux networking stack: sending data &amp; receiving data</text>
</g>
<!-- Linux Kernel, Robert Love -->
<g id="node31" class="node">
<title>Linux Kernel, Robert Love</title>
<text text-anchor="middle" x="398.73" y="-1663.6" font-family="Helvetica,sans-Serif" font-weight="bold" font-size="14.00" fill="#000000">Linux Kernel, Robert Love</text>
</g>
<!--   -->
<g id="node32" class="node">
<title> </title>
<text text-anchor="middle" x="1182.4" y="-1774.4" font-family="Helvetica,sans-Serif" font-weight="bold" font-size="14.00" fill="#000000"> </text>
</g>
<!--     -->
<g id="node33" class="node">
<title>   </title>
<text text-anchor="middle" x="893.77" y="-1781.7" font-family="Helvetica,sans-Serif" font-weight="bold" font-size="14.00" fill="#000000">   </text>
</g>
<!--    -->
<g id="node34" class="node">
<title>  </title>
<text text-anchor="middle" x="1040" y="-1883.9" font-family="Helvetica,sans-Serif" font-weight="bold" font-size="14.00" fill="#000000">  </text>
</g>
<!-- The Inmates Are Running the Asylum -->
<g id="node35" class="node">
<title>The Inmates Are Running the Asylum</title>
<text text-anchor="middle" x="759.21" y="-14.3" font-family="Helvetica,sans-Serif" font-weight="bold" font-size="14.00" fill="#000000">The Inmates Are Running the Asylum</text>
</g>
<!-- Game theory, the art of strategy -->
<g id="node36" class="node">
<title>Game theory, the art of strategy</title>
<text text-anchor="middle" x="956.81" y="-62.469" font-family="Helvetica,sans-Serif" font-weight="bold" font-size="14.00" fill="#000000">Game theory, the art of strategy</text>
</g>
<!-- An Introducion to programming on Go -->
<g id="node37" class="node">
<title>An Introducion to programming on Go</title>
<text text-anchor="middle" x="1565.2" y="-640.23" font-family="Helvetica,sans-Serif" font-weight="bold" font-size="14.00" fill="#000000">An Introducion to programming on Go</text>
</g>
<!-- C Programming language -->
<g id="node38" class="node">
<title>C Programming language</title>
<text text-anchor="middle" x="2020.5" y="-850.04" font-family="Helvetica,sans-Serif" font-weight="bold" font-size="14.00" fill="#000000">C Programming language</text>
</g>
<!-- Dive into python -->
<g id="node39" class="node">
<title>Dive into python</title>
<text text-anchor="middle" x="1772.5" y="-595.73" font-family="Helvetica,sans-Serif" font-weight="bold" font-size="14.00" fill="#000000">Dive into python</text>
</g>
<!-- Advanced Bash Scripting Guide -->
<g id="node40" class="node">
<title>Advanced Bash Scripting Guide</title>
<text text-anchor="middle" x="1951.3" y="-681.19" font-family="Helvetica,sans-Serif" font-weight="bold" font-size="14.00" fill="#000000">Advanced Bash Scripting Guide</text>
</g>
<!-- The main question of coding, refactoring and everything. -->
<g id="node41" class="node">
<title>The main question of coding, refactoring and everything.</title>
<text text-anchor="middle" x="1439.8" y="-773.44" font-family="Helvetica,sans-Serif" font-weight="bold" font-size="14.00" fill="#000000">The main question of coding, refactoring and everything.</text>
</g>
<!-- Enough rope to shoot yourself in the foot -->
<g id="node42" class="node">
<title>Enough rope to shoot yourself in the foot</title>
<text text-anchor="middle" x="1763.7" y="-1010.5" font-family="Helvetica,sans-Serif" font-weight="bold" font-size="14.00" fill="#000000">Enough rope to shoot yourself in the foot</text>
</g>
<!-- Learning SQL, O&#39;Reilly -->
<g id="node43" class="node">
<title>Learning SQL, O&#39;Reilly</title>
<text text-anchor="middle" x="1562.4" y="-817.47" font-family="Helvetica,sans-Serif" font-weight="bold" font-size="14.00" fill="#000000">Learning SQL, O&#39;Reilly</text>
</g>
<!-- C++ today. Beast is back -->
<g id="node44" class="node">
<title>C++ today. Beast is back</title>
<text text-anchor="middle" x="1496.3" y="-983.65" font-family="Helvetica,sans-Serif" font-weight="bold" font-size="14.00" fill="#000000">C++ today. Beast is back</text>
</g>
</g>
</svg>
