<?xml version="1.0" encoding="UTF-8" standalone="no"?>
<!DOCTYPE svg PUBLIC "-//W3C//DTD SVG 1.1//EN"
 "http://www.w3.org/Graphics/SVG/1.1/DTD/svg11.dtd">
<!-- Generated by graphviz version 2.41.20171130.1738 (20171130.1738)
 -->
<!-- Title: G Pages: 1 -->
<svg width="2381pt" height="1849pt"
 viewBox="0.00 0.00 2381.03 1849.08" xmlns="http://www.w3.org/2000/svg" xmlns:xlink="http://www.w3.org/1999/xlink">
<g id="graph0" class="graph" transform="scale(1 1) rotate(0) translate(82.97 1691.7)">
<title>G</title>
<polygon fill="#dae2ff" stroke="transparent" points="-82.97,157.39 -82.97,-1691.7 2298.05,-1691.7 2298.05,157.39 -82.97,157.39"/>
<polygon fill="#fdd9a7" stroke="#fdd9a7" points="1399.42,-1160.26 1395.83,-1157.5 1389.75,-1149.7 1356.33,-1119.03 1350.97,-1112.3 1347.11,-1109.39 1347.35,-1157.72 1338.08,-1157.72 1337.46,-1157.41 1329.91,-1157.41 1329.91,-1157.41 1337.46,-1157.41 1338.08,-1157.72 1347.35,-1157.72 1347.11,-1109.39 1341.11,-1103.64 1322.44,-1081.64 1308.84,-1060.26 1308.73,-1060.06 1311.79,-1048.99 1339.74,-969.72 1339.27,-951.44 1328.47,-924.31 1283.83,-833.68 1289.7,-811.91 1289.44,-793.03 1262.95,-712.67 1255.17,-687.09 1190.53,-599.34 1115.13,-589.88 1102.23,-588.56 1079.23,-586.75 1050.81,-586.5 1050.62,-586.5 1048.76,-586.48 1045.19,-586.27 1040.23,-586.22 1028.42,-586.37 1024.92,-586.33 1023.82,-586.29 1019.06,-586.23 998.13,-586.45 997.83,-586.45 873.35,-590.59 818.85,-630.96 839.71,-796.01 840.83,-812.04 842.64,-813.9 929.62,-908.31 909.04,-983.83 902.86,-1024.5 878.52,-1113.82 977.52,-1182.2 1000.34,-1199.08 1006.56,-1204.25 1013.2,-1200.2 1032.41,-1189.22 1032.57,-1139.52 1032.57,-1139.52 1032.41,-1189.22 1013.2,-1200.2 1006.56,-1204.25 1000.96,-1246.7 998.75,-1275.93 1004.43,-1288.9 1047.68,-1405.6 1067.83,-1451.57 1162.11,-1451.31 1165.08,-1450.17 1187.42,-1443.16 1187.97,-1443.01 1204.12,-1439.08 1208.91,-1438.08 1222.12,-1435.8 1235.36,-1433.98 1291.21,-1428.27 1416.76,-1346.14 1364.91,-1296.36 1356.56,-1288.9 1344.11,-1275.99 1338.15,-1270.32 1324.49,-1258.42 1318.2,-1253.47 1315.7,-1251.72 1295.57,-1239.11 1293.48,-1237.99 1281.06,-1232.26 1282.97,-1157.22 1282.95,-1157.21 1273.83,-1157.21 1271.5,-1092.48 1266.29,-1095.73 1254.32,-1101.83 1217.26,-1116.3 1199.99,-1125.29 1183.77,-1137.85 1185.4,-1061.3 1182.61,-1058.12 1182.61,-1056.48 1184.44,-1054.42 1184.44,-1054.42 1182.61,-1056.48 1182.61,-1058.12 1185.4,-1061.3 1194.54,-1064.73 1194.54,-1064.73 1185.4,-1061.3 1183.77,-1137.85 1199.99,-1125.29 1217.26,-1116.3 1254.32,-1101.83 1266.29,-1095.73 1271.5,-1092.48 1273.83,-1157.21 1282.95,-1157.21 1282.97,-1157.22 1281.06,-1232.26 1293.48,-1237.99 1295.57,-1239.11 1315.7,-1251.72 1318.2,-1253.47 1324.49,-1258.42 1338.15,-1270.32 1344.11,-1275.99 1356.56,-1288.9 1364.91,-1296.36 1416.76,-1346.14 1493.89,-1340.44 1489.98,-1328.35 1469.18,-1272.84 1461.54,-1255.76 1442.26,-1216.47 1424.19,-1187.37 1410.91,-1171.56 1399.42,-1160.26 1399.42,-1160.26"/>
<polygon fill="#bbd7d9" stroke="#bbd7d9" points="2040.19,-1132.51 2048.99,-1132.27 2055.61,-1132.6 2061.19,-1132.44 2075.77,-1132.57 2077.33,-1132.46 2095.21,-1131.92 2097.34,-1131.77 2114.05,-1129.97 2117.93,-1129.4 2141.46,-1124.11 2146.18,-1122.87 2217.12,-1101.46 2218.3,-1002.5 2222.64,-945.2 2216.54,-935.2 2158.71,-866.07 2113.12,-837.01 2087.65,-777.44 2055.72,-749.17 2053.01,-743.42 2016.62,-652.24 1950.15,-571.09 1899.17,-592.56 1897.23,-593.31 1878.57,-599.7 1871.33,-601.89 1866.01,-603.29 1851.2,-606.6 1840.41,-608.59 1825.06,-610.8 1812.54,-611.62 1797.76,-611.99 1797.58,-612.01 1786.24,-611.85 1786.12,-611.84 1778.6,-611.73 1778.45,-611.73 1767.46,-611.57 1764.46,-611.65 1758.7,-612.03 1744.6,-612.39 1734.77,-613.04 1720.52,-615.1 1709.65,-617.11 1697.03,-619.95 1682.61,-623.76 1677.48,-625.52 1665.79,-630 1663.52,-635.62 1660.3,-644.69 1633.7,-665.84 1621.45,-676.76 1612.57,-683.94 1599.05,-693.75 1584.97,-702.76 1582.39,-704.19 1572.89,-708.64 1564.58,-711.83 1554.65,-714.81 1546.71,-716.53 1532.54,-718.4 1529.43,-718.55 1520.79,-718.23 1514.76,-718.61 1508.97,-718.48 1498.17,-719.32 1489.45,-720.87 1475.56,-724.72 1322.83,-782.23 1289.44,-793.03 1289.7,-811.91 1283.83,-833.68 1328.47,-924.31 1339.27,-951.44 1339.74,-969.72 1311.79,-1048.99 1308.73,-1060.06 1308.84,-1060.26 1322.44,-1081.64 1341.11,-1103.64 1347.11,-1109.39 1350.97,-1112.3 1356.33,-1119.03 1389.75,-1149.7 1395.83,-1157.5 1399.42,-1160.26 1410.91,-1171.56 1424.19,-1187.37 1442.26,-1216.47 1461.54,-1255.76 1469.18,-1272.84 1469.63,-1240.82 1469.63,-1240.82 1469.18,-1272.84 1489.98,-1328.35 1493.89,-1340.44 1496.14,-1341.05 1510.43,-1323.02 1522.81,-1308.84 1529.84,-1301.17 1544.74,-1285.77 1555.26,-1275.5 1557.15,-1273.35 1656.79,-1166.56 1662.24,-1165.17 1660.54,-1047.64 1651.69,-1047.64 1651.59,-1047.7 1642.05,-1047.7 1641.3,-1047.31 1633.79,-1047.31 1633.7,-1047.26 1629.55,-980.26 1621.9,-983.12 1620.54,-983.51 1620.54,-983.51 1621.9,-983.12 1629.55,-980.26 1633.7,-1047.26 1633.79,-1047.31 1641.3,-1047.31 1642.05,-1047.7 1651.59,-1047.7 1651.69,-1047.64 1660.54,-1047.64 1662.24,-1165.17 1716.46,-1153.75 1719.52,-1152.95 1737.78,-1147.22 1742.6,-1145.47 1755.96,-1139.91 1761.55,-1137.29 1772.33,-1137.41 1773.95,-1137.36 1780.69,-1137.39 1785.08,-1137.57 1798.21,-1138.6 1804.43,-1139.31 1814.03,-1140.76 1841.66,-1146.97 1842.64,-1146.58 1850.94,-1143.91 1854.41,-1142.93 1878.45,-1137.03 1891.67,-1134.8 1898.23,-1133.94 1899.53,-1133.82 1926.24,-1132.35 1926.78,-1132.36 1934.63,-1132.22 1935.18,-1132.19 1938.56,-1132.13 1946.85,-1132.29 1952.27,-1132.6 1960.58,-1132.76 1967.29,-1132.62 1969.61,-1132.67 1972.57,-1132.6 1974.35,-1132.5 1986.16,-1132.69 1993.62,-1132.52 1997.15,-1132.58 2003.95,-1132.94 2004.58,-1132.95 2011.53,-1132.51 2021.61,-1132.26 2029.28,-1132.65 2029.43,-1132.66 2036.44,-1132.47 2040.19,-1132.51 2040.19,-1132.51"/>
<polygon fill="#cbc5d1" stroke="#cbc5d1" points="216.21,-1269.38 209.02,-1272.17 196.26,-1281.15 198.23,-1250.2 206.59,-1246.14 207.74,-1244.31 206.71,-1242.7 212,-1172.5 215.6,-1172.56 221.29,-1166.5 227.49,-1160.9 227.91,-1160.36 240.39,-1147.09 245.49,-1142.86 256.9,-1135.8 267.11,-1131.75 275,-1130.39 284.52,-1130.85 284.73,-1130.81 291.32,-1131.11 296.88,-1130.1 302.44,-1130.35 303.54,-1130.15 312.34,-1130.51 323.69,-1128.43 330.84,-1125.56 339.24,-1120.31 351.56,-1109.76 360.55,-1100.1 361.1,-1099.68 361.63,-1099.2 365.05,-1099.2 373.49,-1098.43 375.74,-1098.44 384.36,-1099.25 389.31,-1099.26 393.63,-1098.89 396.04,-1098.9 396.54,-1098.95 405.83,-1099.01 420.81,-1097.75 428.33,-1096.44 431.96,-1095.49 446.02,-1090.48 456.41,-1085.84 456.73,-1085.67 461.48,-1050.91 462.37,-1050.18 464.44,-1048.07 465.53,-1047.14 476.71,-1034.95 484.95,-1027.8 497.26,-1019.78 504.67,-1016.64 514.36,-1014.67 523.7,-1014.82 532.79,-1012.95 541.45,-1009.23 550.65,-1003.18 563.22,-992.02 570.12,-984.41 572.08,-982.88 576.21,-979.03 586.26,-967.97 586.09,-929.24 570.7,-921.57 511.5,-901.11 504.06,-898 504.01,-897.98 484.92,-887.13 481.67,-885.04 508.84,-838.31 567.66,-838.31 567.84,-838.21 567.84,-838.21 567.66,-838.31 508.84,-838.31 481.67,-885.04 472.49,-885.42 468.97,-885.38 465.94,-885.53 462.98,-885.52 461.66,-885.45 445.5,-895.9 376.49,-934.93 365.18,-942.25 357.17,-942.14 354.61,-941.96 353.96,-941.95 353.05,-847.32 362.5,-847.32 362.43,-782.01 367.64,-786.43 367.64,-786.43 362.43,-782.01 362.5,-847.32 353.05,-847.32 353.96,-941.95 347.06,-942.22 343.88,-941.98 333.57,-941.77 327.8,-941.96 324.11,-942.29 312.75,-942 310.85,-942.06 310.16,-942.12 303.06,-942.31 298.2,-942.16 280.1,-942.61 272.01,-943.69 264.26,-945.15 250.81,-948.42 235.6,-952.96 226.92,-956.49 235.69,-1029.9 226.69,-1040.52 220.91,-1046.18 214.41,-1051.3 207.24,-1060.31 201.95,-1065.2 189.89,-1072.82 180.87,-1075.67 171.75,-1075.73 161.38,-1079.14 149.31,-1086.97 143.47,-1092.48 137.5,-1100.1 134.42,-1102.59 117.12,-1120.18 117,-1120.33 103.79,-1139.09 93.16,-1156.37 154.61,-1170.62 159.58,-1171.4 165.65,-1171.91 178.37,-1172.06 179.61,-1172.17 187.8,-1172.28 190.51,-1172.12 197.85,-1172.23 199.21,-1172.15 210.23,-1172.33 212,-1172.5 206.71,-1242.7 207.74,-1244.31 206.59,-1246.14 198.23,-1250.2 196.26,-1281.15 190.82,-1286.55 185.69,-1293.3 176.99,-1300.48 166.2,-1311.35 161.88,-1316.45 155.05,-1325.83 115.25,-1388.49 59.72,-1356.67 2.34,-1290.67 -2.35,-1244.4 -8.89,-1204.22 -54.96,-1161.73 -65.49,-1131.14 -78.97,-1063.55 -78.29,-1051.3 -78.86,-993.58 -19.45,-884.77 21.22,-868.35 32.01,-847.31 86.46,-725.39 174.83,-672.08 200.92,-675.56 214.09,-676.93 239.12,-678.08 259.01,-677.83 267.16,-677.02 283.89,-679.4 294.64,-680.29 430.14,-626.37 441.4,-620.91 465.79,-608 509.4,-581.18 609.47,-617.55 613.02,-618.93 613.5,-618.94 622.34,-618.67 624.92,-618.65 643.19,-618.93 635.08,-838.2 630.18,-838.2 626.11,-833.99 626.11,-833.99 630.18,-838.2 635.08,-838.2 643.19,-618.93 648.09,-618.89 650.97,-618.8 654.62,-618.52 656.54,-618.42 661.62,-618.26 686.36,-618.6 686.37,-618.6 693.13,-618.84 705.92,-619.59 721.59,-620.87 818.85,-630.96 839.71,-796.01 840.83,-812.04 842.64,-813.9 929.62,-908.31 909.04,-983.83 902.86,-1024.5 878.52,-1113.82 837.18,-1115.21 828.05,-1115.17 822.83,-1114.95 809.7,-1115.4 806.77,-1115.39 803.07,-1115.23 798.31,-1115.22 796.43,-1115.14 790.45,-1115.12 787.67,-1115.22 784.95,-1115.21 778.08,-1114.93 775.13,-1114.93 762.19,-1115.39 759.01,-1115.27 757.85,-1115.26 751.41,-985.06 752.23,-983.75 751.74,-982.98 742.51,-978.17 740.6,-896.22 731.32,-900.52 724.76,-903.06 719.62,-904.69 702.7,-908.81 702.7,-908.81 719.62,-904.69 724.76,-903.06 731.32,-900.52 740.6,-896.22 742.51,-978.17 751.74,-982.98 752.23,-983.75 751.41,-985.06 757.85,-1115.26 757.39,-1115.28 740.93,-1115.26 739.56,-1115.31 733.95,-1115.31 733.66,-1115.32 650.35,-1169.18 615.89,-1155.92 609.66,-1153.88 597.58,-1150.6 579.3,-1147.69 564.88,-1146.21 552.92,-1158.06 549.63,-1160.9 541.39,-1170.12 536.02,-1175.23 525.04,-1183.98 510.62,-1193.19 504.03,-1196.29 495.9,-1198.8 484.06,-1200.59 473.69,-1200.48 466.65,-1201.49 458.18,-1204.05 443.8,-1210.7 439.02,-1213.64 427.06,-1222.94 416.73,-1232.59 415.75,-1232.24 410.26,-1230.75 397.57,-1228.35 384.07,-1226.93 378.34,-1226.82 377.28,-1226.88 375.24,-1226.85 365.86,-1227.47 360.9,-1227.39 357.12,-1227.03 350.7,-1226.95 346.81,-1227.22 343.05,-1227.19 338.94,-1226.81 332.2,-1226.76 329.38,-1226.98 324.39,-1226.96 320.01,-1226.58 315.44,-1226.58 306.95,-1227.28 305.78,-1227.28 304.11,-1229.26 294.65,-1238.76 287.76,-1244.4 285.16,-1247.77 275.49,-1257.48 265.16,-1264.75 256.76,-1268.07 246.63,-1269.01 244.69,-1268.61 237.35,-1269.29 234.11,-1268.62 229.19,-1269.06 226.28,-1268.46 216.21,-1269.38 216.21,-1269.38"/>
<polygon fill="#ccebc5" stroke="#ccebc5" points="374.84,136.9 386.48,134.62 398.7,133.04 420.28,130.98 431.19,130.67 435.48,130.69 448.49,131.19 451.39,131.4 451.65,131.37 462.28,130.38 481.89,129.24 499.75,129.4 511.7,130.32 527.24,132.05 531.37,132.2 558.54,135.93 568.75,138 576.07,139.74 585.06,142.17 607.8,149.09 618.35,153 619.31,153.39 627.06,149.78 633.94,146.82 659.57,137.59 667.09,135.14 671.1,133.98 700.19,127.59 713.71,125.58 714.34,125.51 824.97,116.83 859.44,90.14 874.52,73.71 887.65,70.19 999.32,83.11 1003.26,82.58 1012.64,81.65 1025.14,80.86 1038.89,80.48 1042.23,80.51 1060.44,81.31 1065.7,81.93 1088,85.32 1099.72,87.94 1106.27,88.4 1116.35,89.78 1126.88,87.53 1132.16,86.59 1136.04,86.04 1152.9,84.21 1168.98,83.04 1172.54,83.03 1197.49,83.84 1275.47,64.5 1316.06,23.42 1330.17,-62.55 1346.34,-133.55 1339.49,-168.18 1342.74,-193.59 1349.45,-231.49 1283.36,-324.02 1277.39,-375.73 1275.13,-413.33 1274.38,-419.79 1228.27,-524.23 1190.53,-599.34 1115.13,-589.88 1102.23,-588.56 1079.23,-586.75 1050.81,-586.5 1050.62,-586.5 1048.76,-586.48 1045.19,-586.27 1040.23,-586.22 1028.42,-586.37 1024.92,-586.33 1023.82,-586.29 1023.56,-375.77 1023.03,-375.49 1023.03,-375.49 1023.56,-375.77 1023.82,-586.29 1019.06,-586.23 1013.91,-375.73 1005.39,-375.73 1005.3,-375.68 1005.3,-375.68 1005.39,-375.73 1013.91,-375.73 1019.06,-586.23 998.13,-586.45 997.83,-586.45 873.35,-590.59 818.85,-630.96 721.59,-620.87 705.92,-619.59 693.13,-618.84 686.37,-618.6 686.36,-618.6 685.8,-559.21 685.8,-559.21 686.36,-618.6 661.62,-618.26 662.16,-588.08 660.58,-403.34 670.32,-403.34 674.53,-398.91 670.47,-394.75 670.47,-394.75 674.53,-398.91 670.32,-403.34 660.58,-403.34 662.16,-588.08 661.62,-618.26 656.54,-618.42 654.62,-618.52 650.97,-618.8 648.09,-618.89 643.19,-618.93 624.92,-618.65 622.34,-618.67 613.5,-618.94 613.02,-618.93 609.47,-617.55 509.4,-581.18 452.31,-438.63 439.27,-431.43 351.78,-386.7 298.02,-311.66 293.82,-296.07 295.37,-270.03 295.26,-189.6 271.65,-172.03 199.63,-102.28 176.22,-29.24 175.41,-18 170.62,17.66 190.06,73.42 217.95,108.99 318.01,135.29 345.29,143.41 346.67,143.96 364.46,139.28 374.84,136.9 374.84,136.9"/>
<polygon fill="#e8cfd0" stroke="#e8cfd0" points="2141.46,-1124.11 2146.18,-1122.87 2217.12,-1101.46 2264.47,-1142.78 2292.97,-1180.41 2291.41,-1262.7 2294.05,-1321.63 2266.08,-1402.63 2266.76,-1410.4 2267.49,-1415.61 2265.94,-1497.69 2265.87,-1497.91 2238.77,-1523.28 2227.78,-1530.09 2086.88,-1563.42 2086.63,-1563.49 2065.01,-1570.1 2062.03,-1571.11 2007.25,-1643.02 1959.27,-1674.95 1929.68,-1671.66 1917.42,-1666.97 1908.62,-1663.91 1881.75,-1656.38 1879.06,-1655.72 1785.2,-1635.95 1778.49,-1637.65 1737.43,-1631.26 1724.72,-1629.76 1717.61,-1629.19 1706.7,-1628.74 1699.37,-1628.71 1683.14,-1629.27 1666.81,-1630.45 1613.29,-1606.98 1565.78,-1581.23 1539.46,-1479.9 1511.72,-1395.68 1501.84,-1348.53 1496.14,-1341.05 1510.43,-1323.02 1522.81,-1308.84 1529.84,-1301.17 1544.74,-1285.77 1555.26,-1275.5 1557.15,-1273.35 1656.79,-1166.56 1662.24,-1165.17 1716.46,-1153.75 1719.52,-1152.95 1737.78,-1147.22 1742.6,-1145.47 1755.96,-1139.91 1761.55,-1137.29 1772.33,-1137.41 1773.95,-1137.36 1780.69,-1137.39 1785.08,-1137.57 1798.21,-1138.6 1804.43,-1139.31 1814.03,-1140.76 1841.66,-1146.97 1842.64,-1146.58 1850.94,-1143.91 1854.41,-1142.93 1878.45,-1137.03 1891.67,-1134.8 1898.23,-1133.94 1899.53,-1133.82 1926.24,-1132.35 1926.78,-1132.36 1934.63,-1132.22 1935.18,-1132.19 1938.56,-1132.13 1946.85,-1132.29 1952.27,-1132.6 1960.58,-1132.76 1967.29,-1132.62 1969.61,-1132.67 1972.57,-1132.6 1974.35,-1132.5 1986.16,-1132.69 1993.62,-1132.52 1997.15,-1132.58 2003.95,-1132.94 2004.58,-1132.95 2011.53,-1132.51 2021.61,-1132.26 2029.28,-1132.65 2029.43,-1132.66 2036.44,-1132.47 2040.19,-1132.51 2048.99,-1132.27 2055.61,-1132.6 2061.19,-1132.44 2075.77,-1132.57 2077.33,-1132.46 2095.21,-1131.92 2097.34,-1131.77 2114.05,-1129.97 2117.93,-1129.4 2141.46,-1124.11 2141.46,-1124.11"/>
<polygon fill="#fbb4ae" stroke="#fbb4ae" points="1954.15,-552.92 1953.16,-480.22 1954.22,-457.05 1885.26,-358.58 1844.06,-326.27 1813.92,-311.39 1812.64,-311.15 1790.28,-316.41 1789.81,-316.5 1787.9,-316.83 1765.21,-319.95 1755.87,-320.93 1750.22,-321.33 1732.17,-322.05 1730.01,-322.07 1701.18,-320.39 1697.73,-320.07 1670.8,-315.87 1662.94,-314.13 1651.25,-311.17 1643.64,-308.99 1634.43,-300.27 1612.38,-284.24 1587.69,-273.41 1499.56,-270.74 1499.3,-270.72 1492.77,-270.02 1473.17,-267.11 1475.86,-407.31 1465.7,-413.26 1465.7,-413.26 1475.86,-407.31 1473.17,-267.11 1462.17,-265.05 1441.36,-259.52 1349.45,-231.49 1283.36,-324.02 1277.39,-375.73 1275.13,-413.33 1444.66,-413.33 1444.71,-413.36 1443.21,-468.77 1444.44,-468.94 1440.78,-523.97 1441.53,-524.36 1451.25,-524.36 1451.43,-524.27 1459.85,-524.27 1459.85,-524.27 1464.49,-524.27 1468.73,-528.45 1468.73,-528.45 1464.49,-524.27 1459.85,-524.27 1459.85,-524.27 1451.43,-524.27 1451.25,-524.36 1441.53,-524.36 1440.78,-523.97 1444.44,-468.94 1443.21,-468.77 1444.71,-413.36 1444.66,-413.33 1275.13,-413.33 1274.38,-419.79 1228.27,-524.23 1190.53,-599.34 1255.17,-687.09 1262.95,-712.67 1289.44,-793.03 1322.83,-782.23 1475.56,-724.72 1489.45,-720.87 1498.17,-719.32 1508.97,-718.48 1514.76,-718.61 1520.79,-718.23 1529.43,-718.55 1532.54,-718.4 1546.71,-716.53 1554.65,-714.81 1564.58,-711.83 1572.89,-708.64 1582.39,-704.19 1584.97,-702.76 1599.05,-693.75 1612.57,-683.94 1621.45,-676.76 1633.7,-665.84 1660.3,-644.69 1663.52,-635.62 1665.79,-630 1677.48,-625.52 1682.61,-623.76 1697.03,-619.95 1709.65,-617.11 1720.52,-615.1 1734.77,-613.04 1734.4,-569.11 1728.56,-484.92 1732.81,-480.19 1729.01,-475.98 1729.01,-475.98 1732.81,-480.19 1728.56,-484.92 1734.4,-569.11 1734.77,-613.04 1744.6,-612.39 1758.7,-612.03 1764.46,-611.65 1767.46,-611.57 1778.45,-611.73 1778.6,-611.73 1786.12,-611.84 1786.24,-611.85 1797.58,-612.01 1797.76,-611.99 1812.54,-611.62 1825.06,-610.8 1840.41,-608.59 1851.2,-606.6 1866.01,-603.29 1871.33,-601.89 1878.57,-599.7 1897.23,-593.31 1899.17,-592.56 1950.15,-571.09 1954.15,-552.92 1954.15,-552.92"/>
<polygon fill="#cbc5d1" stroke="#cbc5d1" points="677.71,-1362.53 685.35,-1358.88 727.76,-1343.09 742.95,-1335.87 754.2,-1329.44 756.39,-1327.98 758.55,-1326.32 749.25,-1313.75 743.51,-1307.17 730.19,-1294.4 699.2,-1246.7 686.96,-1234.96 676.63,-1222.89 664.16,-1205.72 649.96,-1179.89 642.43,-1193.01 634,-1206.01 629.12,-1212.59 625.23,-1217.14 618.03,-1227.35 606.71,-1240.78 596.19,-1250.75 586.77,-1257.39 553.43,-1294.4 553.01,-1294.69 543.64,-1303.11 534.18,-1313.56 522.43,-1328.98 522.2,-1328.77 514.31,-1322.38 504.39,-1315.49 497.09,-1311.26 481.77,-1304.11 445.18,-1291.35 435.54,-1286.9 431.51,-1291.04 428.85,-1293.3 426.8,-1295.84 415.32,-1307.33 406.62,-1313.85 397.09,-1318.66 386.59,-1321.34 376.65,-1321.36 376.51,-1321.32 368.32,-1321.26 366.31,-1321.73 358.46,-1321.59 358,-1321.69 349.4,-1321.45 339.13,-1323.64 330.81,-1327.39 322.05,-1333.45 311.97,-1342.87 306.08,-1349.8 301.11,-1353.78 292.3,-1362.25 287.06,-1368.11 275.17,-1383.46 266.3,-1396.37 258.79,-1408.53 257.77,-1410.35 317.94,-1427.3 320.75,-1427.91 337.55,-1430.47 345.34,-1431.14 351.09,-1431.27 355.5,-1431.08 369.06,-1431.4 370.83,-1431.33 374.53,-1431.43 374.75,-1431.42 378.2,-1431.51 384.44,-1431.27 394.07,-1431.55 400.82,-1431.3 404.45,-1431.66 411.4,-1431.88 419.8,-1431.6 421.5,-1431.44 424.41,-1431.34 426.56,-1431.14 427.92,-1431.1 441.85,-1431.61 447.48,-1431.46 448.52,-1431.5 460.34,-1431.18 463.83,-1430.87 473.03,-1429.43 485.97,-1426.56 498.24,-1423.04 503.58,-1421.17 513.21,-1417.15 524.58,-1411.67 537.18,-1404.78 546.94,-1398.82 598.05,-1412.56 611.45,-1416.83 612.32,-1417.15 616.93,-1412.42 620.54,-1409.03 624.57,-1405.6 637.67,-1392.28 649.89,-1381.17 657.61,-1375.01 664.29,-1370.4 677.71,-1362.53 677.71,-1362.53"/>
<polygon fill="#d8d6d9" stroke="#d8d6d9" points="382.39,-1512.91 383.05,-1512.55 391.7,-1512.55 394.07,-1431.55 384.44,-1431.27 378.2,-1431.51 374.75,-1431.42 374.53,-1431.43 370.83,-1431.33 369.06,-1431.4 355.5,-1431.08 351.09,-1431.27 345.34,-1431.14 337.55,-1430.47 320.75,-1427.91 317.94,-1427.3 257.77,-1410.35 258.79,-1408.53 266.3,-1396.37 275.17,-1383.46 287.06,-1368.11 292.3,-1362.25 301.11,-1353.78 306.08,-1349.8 311.97,-1342.87 322.05,-1333.45 330.81,-1327.39 339.13,-1323.64 349.4,-1321.45 358,-1321.69 358.46,-1321.59 366.31,-1321.73 368.32,-1321.26 376.51,-1321.32 376.65,-1321.36 386.59,-1321.34 397.09,-1318.66 406.62,-1313.85 415.32,-1307.33 426.8,-1295.84 428.85,-1293.3 431.51,-1291.04 435.54,-1286.9 445.18,-1291.35 481.77,-1304.11 497.09,-1311.26 504.39,-1315.49 514.31,-1322.38 522.2,-1328.77 522.43,-1328.98 534.18,-1313.56 543.64,-1303.11 553.01,-1294.69 553.43,-1294.4 586.77,-1257.39 596.19,-1250.75 606.71,-1240.78 618.03,-1227.35 625.23,-1217.14 629.12,-1212.59 634,-1206.01 642.43,-1193.01 649.96,-1179.89 664.16,-1205.72 676.63,-1222.89 686.96,-1234.96 699.2,-1246.7 730.19,-1294.4 743.51,-1307.17 749.25,-1313.75 758.55,-1326.32 756.39,-1327.98 754.2,-1329.44 742.95,-1335.87 727.76,-1343.09 685.35,-1358.88 677.71,-1362.53 664.29,-1370.4 657.61,-1375.01 649.89,-1381.17 637.67,-1392.28 624.57,-1405.6 620.54,-1409.03 616.93,-1412.42 612.32,-1417.15 625.35,-1444.68 625.35,-1444.68 612.32,-1417.15 611.45,-1416.83 598.05,-1412.56 546.94,-1398.82 537.18,-1404.78 524.58,-1411.67 513.21,-1417.15 503.58,-1421.17 498.24,-1423.04 485.97,-1426.56 473.03,-1429.43 463.83,-1430.87 460.34,-1431.18 448.52,-1431.5 447.48,-1431.46 441.85,-1431.61 427.92,-1431.1 426.56,-1431.14 424.41,-1431.34 421.5,-1431.44 419.8,-1431.6 411.4,-1431.88 404.45,-1431.66 400.82,-1431.3 394.07,-1431.55 391.7,-1512.55 383.05,-1512.55 382.39,-1512.91 372.94,-1512.91 372.92,-1512.92 363.51,-1512.92 366.98,-1683.6 376.55,-1681.57 383.1,-1680.39 398.42,-1678.54 420.7,-1676.54 428.01,-1676.33 459.77,-1677.35 471.37,-1678.78 487.58,-1681.28 490.12,-1681.75 499.63,-1680.07 523.71,-1677.31 530.12,-1676.96 532.01,-1676.58 630.45,-1659.71 635.51,-1661.82 713.38,-1682.21 723.48,-1678.1 736.48,-1673.7 752.94,-1668.69 776.9,-1663.03 790.36,-1660.77 794.54,-1660.22 805.82,-1659.1 820.99,-1658.13 879.35,-1656.36 923.51,-1619.31 953.18,-1585.38 970.65,-1544.56 1059.53,-1463.24 1067.83,-1451.57 1047.68,-1405.6 887.98,-1405.6 887.74,-1405.48 879.25,-1405.48 879.2,-1405.46 870.54,-1405.46 870.45,-1405.5 870.45,-1405.5 870.54,-1405.46 879.2,-1405.46 879.25,-1405.48 887.74,-1405.48 887.98,-1405.6 1047.68,-1405.6 1004.43,-1288.9 998.75,-1275.93 1000.96,-1246.7 1006.56,-1204.25 1000.34,-1199.08 977.52,-1182.2 878.52,-1113.82 837.18,-1115.21 828.05,-1115.17 822.83,-1114.95 809.7,-1115.4 806.77,-1115.39 803.07,-1115.23 798.31,-1115.22 796.43,-1115.14 790.45,-1115.12 787.67,-1115.22 784.95,-1115.21 778.08,-1114.93 775.13,-1114.93 762.19,-1115.39 759.01,-1115.27 757.85,-1115.26 757.39,-1115.28 740.93,-1115.26 739.56,-1115.31 733.95,-1115.31 733.66,-1115.32 650.35,-1169.18 615.89,-1155.92 609.66,-1153.88 597.58,-1150.6 579.3,-1147.69 564.88,-1146.21 552.92,-1158.06 549.63,-1160.9 541.39,-1170.12 536.02,-1175.23 525.04,-1183.98 510.62,-1193.19 504.03,-1196.29 495.9,-1198.8 484.06,-1200.59 473.69,-1200.48 466.65,-1201.49 458.18,-1204.05 443.8,-1210.7 439.02,-1213.64 427.06,-1222.94 416.73,-1232.59 415.75,-1232.24 410.26,-1230.75 397.57,-1228.35 384.07,-1226.93 378.34,-1226.82 377.28,-1226.88 375.24,-1226.85 365.86,-1227.47 360.9,-1227.39 357.12,-1227.03 350.7,-1226.95 346.81,-1227.22 343.05,-1227.19 338.94,-1226.81 332.2,-1226.76 329.38,-1226.98 324.39,-1226.96 320.01,-1226.58 315.44,-1226.58 306.95,-1227.28 305.78,-1227.28 304.11,-1229.26 294.65,-1238.76 287.76,-1244.4 285.16,-1247.77 275.49,-1257.48 265.16,-1264.75 256.76,-1268.07 246.63,-1269.01 244.69,-1268.61 237.35,-1269.29 234.11,-1268.62 229.19,-1269.06 226.28,-1268.46 216.21,-1269.38 209.02,-1272.17 196.26,-1281.15 190.82,-1286.55 185.69,-1293.3 176.99,-1300.48 166.2,-1311.35 161.88,-1316.45 155.05,-1325.83 115.25,-1388.49 166.43,-1447.35 162.09,-1512.9 161.71,-1515.87 174.84,-1595.77 190.93,-1623.93 273.66,-1667.21 314.42,-1676.85 332.11,-1681.61 348.46,-1687.06 350.07,-1687.7 366.98,-1683.6 363.51,-1512.92 372.92,-1512.92 372.94,-1512.91 382.39,-1512.91 382.39,-1512.91"/>
<polygon fill="#d8d6d9" stroke="#d8d6d9" points="134.42,-1102.59 137.5,-1100.1 143.47,-1092.48 149.31,-1086.97 161.38,-1079.14 171.75,-1075.73 180.87,-1075.67 189.89,-1072.82 201.95,-1065.2 207.24,-1060.31 214.41,-1051.3 220.91,-1046.18 226.69,-1040.52 235.69,-1029.9 226.92,-956.49 235.6,-952.96 250.81,-948.42 264.26,-945.15 272.01,-943.69 280.1,-942.61 298.2,-942.16 303.06,-942.31 310.16,-942.12 310.85,-942.06 312.75,-942 324.11,-942.29 327.8,-941.96 333.57,-941.77 343.88,-941.98 347.06,-942.22 353.96,-941.95 354.61,-941.96 357.17,-942.14 365.18,-942.25 376.49,-934.93 445.5,-895.9 461.66,-885.45 462.98,-885.52 465.94,-885.53 468.97,-885.38 472.49,-885.42 481.67,-885.04 484.92,-887.13 504.01,-897.98 504.06,-898 511.5,-901.11 570.7,-921.57 586.09,-929.24 586.26,-967.97 576.21,-979.03 572.08,-982.88 570.12,-984.41 563.22,-992.02 550.65,-1003.18 541.45,-1009.23 532.79,-1012.95 523.7,-1014.82 514.36,-1014.67 504.67,-1016.64 497.26,-1019.78 484.95,-1027.8 476.71,-1034.95 465.53,-1047.14 464.44,-1048.07 462.37,-1050.18 461.48,-1050.91 456.73,-1085.67 456.41,-1085.84 446.02,-1090.48 431.96,-1095.49 428.33,-1096.44 420.81,-1097.75 405.83,-1099.01 396.54,-1098.95 396.04,-1098.9 393.63,-1098.89 389.31,-1099.26 384.36,-1099.25 375.74,-1098.44 373.49,-1098.43 365.05,-1099.2 361.63,-1099.2 361.1,-1099.68 360.55,-1100.1 351.56,-1109.76 339.24,-1120.31 330.84,-1125.56 323.69,-1128.43 312.34,-1130.51 303.54,-1130.15 302.44,-1130.35 296.88,-1130.1 291.32,-1131.11 284.73,-1130.81 284.52,-1130.85 275,-1130.39 267.11,-1131.75 256.9,-1135.8 245.49,-1142.86 240.39,-1147.09 227.91,-1160.36 227.49,-1160.9 221.29,-1166.5 215.6,-1172.56 212,-1172.5 210.23,-1172.33 199.21,-1172.15 197.85,-1172.23 190.51,-1172.12 187.8,-1172.28 179.61,-1172.17 178.37,-1172.06 165.65,-1171.91 159.58,-1171.4 154.61,-1170.62 93.16,-1156.37 103.79,-1139.09 117,-1120.33 117.12,-1120.18 134.42,-1102.59 134.42,-1102.59"/>
<polyline fill="none" stroke="#000000" points="1028.42,-586.37 1024.92,-586.33 1023.82,-586.29 1019.06,-586.23 998.13,-586.45 997.83,-586.45 873.35,-590.59 818.85,-630.96 839.71,-796.01 840.83,-812.04 842.64,-813.9 929.62,-908.31 909.04,-983.83 902.86,-1024.5 878.52,-1113.82 977.52,-1182.2 1000.34,-1199.08 1006.56,-1204.25 1000.96,-1246.7 998.75,-1275.93 1004.43,-1288.9 1047.68,-1405.6 1067.83,-1451.57 1162.11,-1451.31 1165.08,-1450.17 1187.42,-1443.16 1187.97,-1443.01 1204.12,-1439.08 1208.91,-1438.08 1222.12,-1435.8 1235.36,-1433.98 1291.21,-1428.27 1416.76,-1346.14 1493.89,-1340.44 1489.98,-1328.35 1469.18,-1272.84 1461.54,-1255.76 1442.26,-1216.47 1424.19,-1187.37 1410.91,-1171.56 1399.42,-1160.26 1395.83,-1157.5 1389.75,-1149.7 1356.33,-1119.03 1350.97,-1112.3 1347.11,-1109.39 1341.11,-1103.64 1322.44,-1081.64 1308.84,-1060.26 1308.73,-1060.06 1311.79,-1048.99 1339.74,-969.72 1339.27,-951.44 1328.47,-924.31 1283.83,-833.68 1289.7,-811.91 1289.44,-793.03 1262.95,-712.67 1255.17,-687.09 1190.53,-599.34 1115.13,-589.88 1102.23,-588.56 1079.23,-586.75 1050.81,-586.5 1050.62,-586.5 1048.76,-586.48 1045.19,-586.27 1040.23,-586.22 1028.42,-586.37 "/>
<polyline fill="none" stroke="#000000" points="1564.58,-711.83 1572.89,-708.64 1582.39,-704.19 1584.97,-702.76 1599.05,-693.75 1612.57,-683.94 1621.45,-676.76 1633.7,-665.84 1660.3,-644.69 1663.52,-635.62 1665.79,-630 1677.48,-625.52 1682.61,-623.76 1697.03,-619.95 1709.65,-617.11 1720.52,-615.1 1734.77,-613.04 1744.6,-612.39 1758.7,-612.03 1764.46,-611.65 1767.46,-611.57 1778.45,-611.73 1778.6,-611.73 1786.12,-611.84 1786.24,-611.85 1797.58,-612.01 1797.76,-611.99 1812.54,-611.62 1825.06,-610.8 1840.41,-608.59 1851.2,-606.6 1866.01,-603.29 1871.33,-601.89 1878.57,-599.7 1897.23,-593.31 1899.17,-592.56 1950.15,-571.09 2016.62,-652.24 2053.01,-743.42 2055.72,-749.17 2087.65,-777.44 2113.12,-837.01 2158.71,-866.07 2216.54,-935.2 2222.64,-945.2 2218.3,-1002.5 2217.12,-1101.46 2146.18,-1122.87 2141.46,-1124.11 2117.93,-1129.4 2114.05,-1129.97 2097.34,-1131.77 2095.21,-1131.92 2077.33,-1132.46 2075.77,-1132.57 2061.19,-1132.44 2055.61,-1132.6 2048.99,-1132.27 2040.19,-1132.51 2036.44,-1132.47 2029.43,-1132.66 2029.28,-1132.65 2021.61,-1132.26 2011.53,-1132.51 2004.58,-1132.95 2003.95,-1132.94 1997.15,-1132.58 1993.62,-1132.52 1986.16,-1132.69 1974.35,-1132.5 1972.57,-1132.6 1969.61,-1132.67 1967.29,-1132.62 1960.58,-1132.76 1952.27,-1132.6 1946.85,-1132.29 1938.56,-1132.13 1935.18,-1132.19 1934.63,-1132.22 1926.78,-1132.36 1926.24,-1132.35 1899.53,-1133.82 1898.23,-1133.94 1891.67,-1134.8 1878.45,-1137.03 1854.41,-1142.93 1850.94,-1143.91 1842.64,-1146.58 1841.66,-1146.97 1814.03,-1140.76 1804.43,-1139.31 1798.21,-1138.6 1785.08,-1137.57 1780.69,-1137.39 1773.95,-1137.36 1772.33,-1137.41 1761.55,-1137.29 1755.96,-1139.91 1742.6,-1145.47 1737.78,-1147.22 1719.52,-1152.95 1716.46,-1153.75 1662.24,-1165.17 1656.79,-1166.56 1557.15,-1273.35 1555.26,-1275.5 1544.74,-1285.77 1529.84,-1301.17 1522.81,-1308.84 1510.43,-1323.02 1496.14,-1341.05 1493.89,-1340.44 1489.98,-1328.35 1469.18,-1272.84 1461.54,-1255.76 1442.26,-1216.47 1424.19,-1187.37 1410.91,-1171.56 1399.42,-1160.26 1395.83,-1157.5 1389.75,-1149.7 1356.33,-1119.03 1350.97,-1112.3 1347.11,-1109.39 1341.11,-1103.64 1322.44,-1081.64 1308.84,-1060.26 1308.73,-1060.06 1311.79,-1048.99 1339.74,-969.72 1339.27,-951.44 1328.47,-924.31 1283.83,-833.68 1289.7,-811.91 1289.44,-793.03 1322.83,-782.23 1475.56,-724.72 1489.45,-720.87 1498.17,-719.32 1508.97,-718.48 1514.76,-718.61 1520.79,-718.23 1529.43,-718.55 1532.54,-718.4 1546.71,-716.53 1554.65,-714.81 1564.58,-711.83 "/>
<polyline fill="none" stroke="#aaaaaa" points="579.3,-1147.69 597.58,-1150.6 609.66,-1153.88 615.89,-1155.92 650.35,-1169.18 733.66,-1115.32 733.95,-1115.31 739.56,-1115.31 740.93,-1115.26 757.39,-1115.28 757.85,-1115.26 759.01,-1115.27 762.19,-1115.39 775.13,-1114.93 778.08,-1114.93 784.95,-1115.21 787.67,-1115.22 790.45,-1115.12 796.43,-1115.14 798.31,-1115.22 803.07,-1115.23 806.77,-1115.39 809.7,-1115.4 822.83,-1114.95 828.05,-1115.17 837.18,-1115.21 878.52,-1113.82 902.86,-1024.5 909.04,-983.83 929.62,-908.31 842.64,-813.9 840.83,-812.04 839.71,-796.01 818.85,-630.96 721.59,-620.87 705.92,-619.59 693.13,-618.84 686.37,-618.6 686.36,-618.6 661.62,-618.26 656.54,-618.42 654.62,-618.52 650.97,-618.8 648.09,-618.89 643.19,-618.93 624.92,-618.65 622.34,-618.67 613.5,-618.94 613.02,-618.93 609.47,-617.55 509.4,-581.18 465.79,-608 441.4,-620.91 430.14,-626.37 294.64,-680.29 283.89,-679.4 267.16,-677.02 259.01,-677.83 239.12,-678.08 214.09,-676.93 200.92,-675.56 174.83,-672.08 86.46,-725.39 32.01,-847.31 21.22,-868.35 -19.45,-884.77 -78.86,-993.58 -78.29,-1051.3 -78.97,-1063.55 -65.49,-1131.14 -54.96,-1161.73 -8.89,-1204.22 -2.35,-1244.4 2.34,-1290.67 59.72,-1356.67 115.25,-1388.49 155.05,-1325.83 161.88,-1316.45 166.2,-1311.35 176.99,-1300.48 185.69,-1293.3 190.82,-1286.55 196.26,-1281.15 209.02,-1272.17 216.21,-1269.38 226.28,-1268.46 229.19,-1269.06 234.11,-1268.62 237.35,-1269.29 244.69,-1268.61 246.63,-1269.01 256.76,-1268.07 265.16,-1264.75 275.49,-1257.48 285.16,-1247.77 287.76,-1244.4 294.65,-1238.76 304.11,-1229.26 305.78,-1227.28 306.95,-1227.28 315.44,-1226.58 320.01,-1226.58 324.39,-1226.96 329.38,-1226.98 332.2,-1226.76 338.94,-1226.81 343.05,-1227.19 346.81,-1227.22 350.7,-1226.95 357.12,-1227.03 360.9,-1227.39 365.86,-1227.47 375.24,-1226.85 377.28,-1226.88 378.34,-1226.82 384.07,-1226.93 397.57,-1228.35 410.26,-1230.75 415.75,-1232.24 416.73,-1232.59 427.06,-1222.94 439.02,-1213.64 443.8,-1210.7 458.18,-1204.05 466.65,-1201.49 473.69,-1200.48 484.06,-1200.59 495.9,-1198.8 504.03,-1196.29 510.62,-1193.19 525.04,-1183.98 536.02,-1175.23 541.39,-1170.12 549.63,-1160.9 552.92,-1158.06 564.88,-1146.21 579.3,-1147.69 "/>
<polyline fill="none" stroke="#000000" points="576.21,-979.03 572.08,-982.88 570.12,-984.41 563.22,-992.02 550.65,-1003.18 541.45,-1009.23 532.79,-1012.95 523.7,-1014.82 514.36,-1014.67 504.67,-1016.64 497.26,-1019.78 484.95,-1027.8 476.71,-1034.95 465.53,-1047.14 464.44,-1048.07 462.37,-1050.18 461.48,-1050.91 456.73,-1085.67 456.41,-1085.84 446.02,-1090.48 431.96,-1095.49 428.33,-1096.44 420.81,-1097.75 405.83,-1099.01 396.54,-1098.95 396.04,-1098.9 393.63,-1098.89 389.31,-1099.26 384.36,-1099.25 375.74,-1098.44 373.49,-1098.43 365.05,-1099.2 361.63,-1099.2 361.1,-1099.68 360.55,-1100.1 351.56,-1109.76 339.24,-1120.31 330.84,-1125.56 323.69,-1128.43 312.34,-1130.51 303.54,-1130.15 302.44,-1130.35 296.88,-1130.1 291.32,-1131.11 284.73,-1130.81 284.52,-1130.85 275,-1130.39 267.11,-1131.75 256.9,-1135.8 245.49,-1142.86 240.39,-1147.09 227.91,-1160.36 227.49,-1160.9 221.29,-1166.5 215.6,-1172.56 212,-1172.5 210.23,-1172.33 199.21,-1172.15 197.85,-1172.23 190.51,-1172.12 187.8,-1172.28 179.61,-1172.17 178.37,-1172.06 165.65,-1171.91 159.58,-1171.4 154.61,-1170.62 93.16,-1156.37 103.79,-1139.09 117,-1120.33 117.12,-1120.18 134.42,-1102.59 137.5,-1100.1 143.47,-1092.48 149.31,-1086.97 161.38,-1079.14 171.75,-1075.73 180.87,-1075.67 189.89,-1072.82 201.95,-1065.2 207.24,-1060.31 214.41,-1051.3 220.91,-1046.18 226.69,-1040.52 235.69,-1029.9 226.92,-956.49 235.6,-952.96 250.81,-948.42 264.26,-945.15 272.01,-943.69 280.1,-942.61 298.2,-942.16 303.06,-942.31 310.16,-942.12 310.85,-942.06 312.75,-942 324.11,-942.29 327.8,-941.96 333.57,-941.77 343.88,-941.98 347.06,-942.22 353.96,-941.95 354.61,-941.96 357.17,-942.14 365.18,-942.25 376.49,-934.93 445.5,-895.9 461.66,-885.45 462.98,-885.52 465.94,-885.53 468.97,-885.38 472.49,-885.42 481.67,-885.04 484.92,-887.13 504.01,-897.98 504.06,-898 511.5,-901.11 570.7,-921.57 586.09,-929.24 586.26,-967.97 576.21,-979.03 "/>
<polyline fill="none" stroke="#000000" points="873.35,-590.59 997.83,-586.45 998.13,-586.45 1019.06,-586.23 1023.82,-586.29 1024.92,-586.33 1028.42,-586.37 1040.23,-586.22 1045.19,-586.27 1048.76,-586.48 1050.62,-586.5 1050.81,-586.5 1079.23,-586.75 1102.23,-588.56 1115.13,-589.88 1190.53,-599.34 1228.27,-524.23 1274.38,-419.79 1275.13,-413.33 1277.39,-375.73 1283.36,-324.02 1349.45,-231.49 1342.74,-193.59 1339.49,-168.18 1346.34,-133.55 1330.17,-62.55 1316.06,23.42 1275.47,64.5 1197.49,83.84 1172.54,83.03 1168.98,83.04 1152.9,84.21 1136.04,86.04 1132.16,86.59 1126.88,87.53 1116.35,89.78 1106.27,88.4 1099.72,87.94 1088,85.32 1065.7,81.93 1060.44,81.31 1042.23,80.51 1038.89,80.48 1025.14,80.86 1012.64,81.65 1003.26,82.58 999.32,83.11 887.65,70.19 874.52,73.71 859.44,90.14 824.97,116.83 714.34,125.51 713.71,125.58 700.19,127.59 671.1,133.98 667.09,135.14 659.57,137.59 633.94,146.82 627.06,149.78 619.31,153.39 618.35,153 607.8,149.09 585.06,142.17 576.07,139.74 568.75,138 558.54,135.93 531.37,132.2 527.24,132.05 511.7,130.32 499.75,129.4 481.89,129.24 462.28,130.38 451.65,131.37 451.39,131.4 448.49,131.19 435.48,130.69 431.19,130.67 420.28,130.98 398.7,133.04 386.48,134.62 374.84,136.9 364.46,139.28 346.67,143.96 345.29,143.41 318.01,135.29 217.95,108.99 190.06,73.42 170.62,17.66 175.41,-18 176.22,-29.24 199.63,-102.28 271.65,-172.03 295.26,-189.6 295.37,-270.03 293.82,-296.07 298.02,-311.66 351.78,-386.7 439.27,-431.43 452.31,-438.63 509.4,-581.18 609.47,-617.55 613.02,-618.93 613.5,-618.94 622.34,-618.67 624.92,-618.65 643.19,-618.93 648.09,-618.89 650.97,-618.8 654.62,-618.52 656.54,-618.42 661.62,-618.26 686.36,-618.6 686.37,-618.6 693.13,-618.84 705.92,-619.59 721.59,-620.87 818.85,-630.96 873.35,-590.59 "/>
<polyline fill="none" stroke="#000000" points="1742.6,-1145.47 1737.78,-1147.22 1719.52,-1152.95 1716.46,-1153.75 1662.24,-1165.17 1656.79,-1166.56 1557.15,-1273.35 1555.26,-1275.5 1544.74,-1285.77 1529.84,-1301.17 1522.81,-1308.84 1510.43,-1323.02 1496.14,-1341.05 1501.84,-1348.53 1511.72,-1395.68 1539.46,-1479.9 1565.78,-1581.23 1613.29,-1606.98 1666.81,-1630.45 1683.14,-1629.27 1699.37,-1628.71 1706.7,-1628.74 1717.61,-1629.19 1724.72,-1629.76 1737.43,-1631.26 1778.49,-1637.65 1785.2,-1635.95 1879.06,-1655.72 1881.75,-1656.38 1908.62,-1663.91 1917.42,-1666.97 1929.68,-1671.66 1959.27,-1674.95 2007.25,-1643.02 2062.03,-1571.11 2065.01,-1570.1 2086.63,-1563.49 2086.88,-1563.42 2227.78,-1530.09 2238.77,-1523.28 2265.87,-1497.91 2265.94,-1497.69 2267.49,-1415.61 2266.76,-1410.4 2266.08,-1402.63 2294.05,-1321.63 2291.41,-1262.7 2292.97,-1180.41 2264.47,-1142.78 2217.12,-1101.46 2146.18,-1122.87 2141.46,-1124.11 2117.93,-1129.4 2114.05,-1129.97 2097.34,-1131.77 2095.21,-1131.92 2077.33,-1132.46 2075.77,-1132.57 2061.19,-1132.44 2055.61,-1132.6 2048.99,-1132.27 2040.19,-1132.51 2036.44,-1132.47 2029.43,-1132.66 2029.28,-1132.65 2021.61,-1132.26 2011.53,-1132.51 2004.58,-1132.95 2003.95,-1132.94 1997.15,-1132.58 1993.62,-1132.52 1986.16,-1132.69 1974.35,-1132.5 1972.57,-1132.6 1969.61,-1132.67 1967.29,-1132.62 1960.58,-1132.76 1952.27,-1132.6 1946.85,-1132.29 1938.56,-1132.13 1935.18,-1132.19 1934.63,-1132.22 1926.78,-1132.36 1926.24,-1132.35 1899.53,-1133.82 1898.23,-1133.94 1891.67,-1134.8 1878.45,-1137.03 1854.41,-1142.93 1850.94,-1143.91 1842.64,-1146.58 1841.66,-1146.97 1814.03,-1140.76 1804.43,-1139.31 1798.21,-1138.6 1785.08,-1137.57 1780.69,-1137.39 1773.95,-1137.36 1772.33,-1137.41 1761.55,-1137.29 1755.96,-1139.91 1742.6,-1145.47 "/>
<polyline fill="none" stroke="#000000" points="1475.56,-724.72 1322.83,-782.23 1289.44,-793.03 1262.95,-712.67 1255.17,-687.09 1190.53,-599.34 1228.27,-524.23 1274.38,-419.79 1275.13,-413.33 1277.39,-375.73 1283.36,-324.02 1349.45,-231.49 1441.36,-259.52 1462.17,-265.05 1473.17,-267.11 1492.77,-270.02 1499.3,-270.72 1499.56,-270.74 1587.69,-273.41 1612.38,-284.24 1634.43,-300.27 1643.64,-308.99 1651.25,-311.17 1662.94,-314.13 1670.8,-315.87 1697.73,-320.07 1701.18,-320.39 1730.01,-322.07 1732.17,-322.05 1750.22,-321.33 1755.87,-320.93 1765.21,-319.95 1787.9,-316.83 1789.81,-316.5 1790.28,-316.41 1812.64,-311.15 1813.92,-311.39 1844.06,-326.27 1885.26,-358.58 1954.22,-457.05 1953.16,-480.22 1954.15,-552.92 1950.15,-571.09 1899.17,-592.56 1897.23,-593.31 1878.57,-599.7 1871.33,-601.89 1866.01,-603.29 1851.2,-606.6 1840.41,-608.59 1825.06,-610.8 1812.54,-611.62 1797.76,-611.99 1797.58,-612.01 1786.24,-611.85 1786.12,-611.84 1778.6,-611.73 1778.45,-611.73 1767.46,-611.57 1764.46,-611.65 1758.7,-612.03 1744.6,-612.39 1734.77,-613.04 1720.52,-615.1 1709.65,-617.11 1697.03,-619.95 1682.61,-623.76 1677.48,-625.52 1665.79,-630 1663.52,-635.62 1660.3,-644.69 1633.7,-665.84 1621.45,-676.76 1612.57,-683.94 1599.05,-693.75 1584.97,-702.76 1582.39,-704.19 1572.89,-708.64 1564.58,-711.83 1554.65,-714.81 1546.71,-716.53 1532.54,-718.4 1529.43,-718.55 1520.79,-718.23 1514.76,-718.61 1508.97,-718.48 1498.17,-719.32 1489.45,-720.87 1475.56,-724.72 "/>
<polyline fill="none" stroke="#000000" points="400.82,-1431.3 404.45,-1431.66 411.4,-1431.88 419.8,-1431.6 421.5,-1431.44 424.41,-1431.34 426.56,-1431.14 427.92,-1431.1 441.85,-1431.61 447.48,-1431.46 448.52,-1431.5 460.34,-1431.18 463.83,-1430.87 473.03,-1429.43 485.97,-1426.56 498.24,-1423.04 503.58,-1421.17 513.21,-1417.15 524.58,-1411.67 537.18,-1404.78 546.94,-1398.82 598.05,-1412.56 611.45,-1416.83 612.32,-1417.15 616.93,-1412.42 620.54,-1409.03 624.57,-1405.6 637.67,-1392.28 649.89,-1381.17 657.61,-1375.01 664.29,-1370.4 677.71,-1362.53 685.35,-1358.88 727.76,-1343.09 742.95,-1335.87 754.2,-1329.44 756.39,-1327.98 758.55,-1326.32 749.25,-1313.75 743.51,-1307.17 730.19,-1294.4 699.2,-1246.7 686.96,-1234.96 676.63,-1222.89 664.16,-1205.72 649.96,-1179.89 642.43,-1193.01 634,-1206.01 629.12,-1212.59 625.23,-1217.14 618.03,-1227.35 606.71,-1240.78 596.19,-1250.75 586.77,-1257.39 553.43,-1294.4 553.01,-1294.69 543.64,-1303.11 534.18,-1313.56 522.43,-1328.98 522.2,-1328.77 514.31,-1322.38 504.39,-1315.49 497.09,-1311.26 481.77,-1304.11 445.18,-1291.35 435.54,-1286.9 431.51,-1291.04 428.85,-1293.3 426.8,-1295.84 415.32,-1307.33 406.62,-1313.85 397.09,-1318.66 386.59,-1321.34 376.65,-1321.36 376.51,-1321.32 368.32,-1321.26 366.31,-1321.73 358.46,-1321.59 358,-1321.69 349.4,-1321.45 339.13,-1323.64 330.81,-1327.39 322.05,-1333.45 311.97,-1342.87 306.08,-1349.8 301.11,-1353.78 292.3,-1362.25 287.06,-1368.11 275.17,-1383.46 266.3,-1396.37 258.79,-1408.53 257.77,-1410.35 317.94,-1427.3 320.75,-1427.91 337.55,-1430.47 345.34,-1431.14 351.09,-1431.27 355.5,-1431.08 369.06,-1431.4 370.83,-1431.33 374.53,-1431.43 374.75,-1431.42 378.2,-1431.51 384.44,-1431.27 394.07,-1431.55 400.82,-1431.3 "/>
<polyline fill="none" stroke="#aaaaaa" points="504.39,-1315.49 497.09,-1311.26 481.77,-1304.11 445.18,-1291.35 435.54,-1286.9 431.51,-1291.04 428.85,-1293.3 426.8,-1295.84 415.32,-1307.33 406.62,-1313.85 397.09,-1318.66 386.59,-1321.34 376.65,-1321.36 376.51,-1321.32 368.32,-1321.26 366.31,-1321.73 358.46,-1321.59 358,-1321.69 349.4,-1321.45 339.13,-1323.64 330.81,-1327.39 322.05,-1333.45 311.97,-1342.87 306.08,-1349.8 301.11,-1353.78 292.3,-1362.25 287.06,-1368.11 275.17,-1383.46 266.3,-1396.37 258.79,-1408.53 257.77,-1410.35 317.94,-1427.3 320.75,-1427.91 337.55,-1430.47 345.34,-1431.14 351.09,-1431.27 355.5,-1431.08 369.06,-1431.4 370.83,-1431.33 374.53,-1431.43 374.75,-1431.42 378.2,-1431.51 384.44,-1431.27 394.07,-1431.55 400.82,-1431.3 404.45,-1431.66 411.4,-1431.88 419.8,-1431.6 421.5,-1431.44 424.41,-1431.34 426.56,-1431.14 427.92,-1431.1 441.85,-1431.61 447.48,-1431.46 448.52,-1431.5 460.34,-1431.18 463.83,-1430.87 473.03,-1429.43 485.97,-1426.56 498.24,-1423.04 503.58,-1421.17 513.21,-1417.15 524.58,-1411.67 537.18,-1404.78 546.94,-1398.82 598.05,-1412.56 611.45,-1416.83 612.32,-1417.15 616.93,-1412.42 620.54,-1409.03 624.57,-1405.6 637.67,-1392.28 649.89,-1381.17 657.61,-1375.01 664.29,-1370.4 677.71,-1362.53 685.35,-1358.88 727.76,-1343.09 742.95,-1335.87 754.2,-1329.44 756.39,-1327.98 758.55,-1326.32 749.25,-1313.75 743.51,-1307.17 730.19,-1294.4 699.2,-1246.7 686.96,-1234.96 676.63,-1222.89 664.16,-1205.72 649.96,-1179.89 642.43,-1193.01 634,-1206.01 629.12,-1212.59 625.23,-1217.14 618.03,-1227.35 606.71,-1240.78 596.19,-1250.75 586.77,-1257.39 553.43,-1294.4 553.01,-1294.69 543.64,-1303.11 534.18,-1313.56 522.43,-1328.98 522.2,-1328.77 514.31,-1322.38 504.39,-1315.49 "/>
<polyline fill="none" stroke="#000000" points="525.04,-1183.98 510.62,-1193.19 504.03,-1196.29 495.9,-1198.8 484.06,-1200.59 473.69,-1200.48 466.65,-1201.49 458.18,-1204.05 443.8,-1210.7 439.02,-1213.64 427.06,-1222.94 416.73,-1232.59 415.75,-1232.24 410.26,-1230.75 397.57,-1228.35 384.07,-1226.93 378.34,-1226.82 377.28,-1226.88 375.24,-1226.85 365.86,-1227.47 360.9,-1227.39 357.12,-1227.03 350.7,-1226.95 346.81,-1227.22 343.05,-1227.19 338.94,-1226.81 332.2,-1226.76 329.38,-1226.98 324.39,-1226.96 320.01,-1226.58 315.44,-1226.58 306.95,-1227.28 305.78,-1227.28 304.11,-1229.26 294.65,-1238.76 287.76,-1244.4 285.16,-1247.77 275.49,-1257.48 265.16,-1264.75 256.76,-1268.07 246.63,-1269.01 244.69,-1268.61 237.35,-1269.29 234.11,-1268.62 229.19,-1269.06 226.28,-1268.46 216.21,-1269.38 209.02,-1272.17 196.26,-1281.15 190.82,-1286.55 185.69,-1293.3 176.99,-1300.48 166.2,-1311.35 161.88,-1316.45 155.05,-1325.83 115.25,-1388.49 166.43,-1447.35 162.09,-1512.9 161.71,-1515.87 174.84,-1595.77 190.93,-1623.93 273.66,-1667.21 314.42,-1676.85 332.11,-1681.61 348.46,-1687.06 350.07,-1687.7 366.98,-1683.6 376.55,-1681.57 383.1,-1680.39 398.42,-1678.54 420.7,-1676.54 428.01,-1676.33 459.77,-1677.35 471.37,-1678.78 487.58,-1681.28 490.12,-1681.75 499.63,-1680.07 523.71,-1677.31 530.12,-1676.96 532.01,-1676.58 630.45,-1659.71 635.51,-1661.82 713.38,-1682.21 723.48,-1678.1 736.48,-1673.7 752.94,-1668.69 776.9,-1663.03 790.36,-1660.77 794.54,-1660.22 805.82,-1659.1 820.99,-1658.13 879.35,-1656.36 923.51,-1619.31 953.18,-1585.38 970.65,-1544.56 1059.53,-1463.24 1067.83,-1451.57 1047.68,-1405.6 1004.43,-1288.9 998.75,-1275.93 1000.96,-1246.7 1006.56,-1204.25 1000.34,-1199.08 977.52,-1182.2 878.52,-1113.82 837.18,-1115.21 828.05,-1115.17 822.83,-1114.95 809.7,-1115.4 806.77,-1115.39 803.07,-1115.23 798.31,-1115.22 796.43,-1115.14 790.45,-1115.12 787.67,-1115.22 784.95,-1115.21 778.08,-1114.93 775.13,-1114.93 762.19,-1115.39 759.01,-1115.27 757.85,-1115.26 757.39,-1115.28 740.93,-1115.26 739.56,-1115.31 733.95,-1115.31 733.66,-1115.32 650.35,-1169.18 615.89,-1155.92 609.66,-1153.88 597.58,-1150.6 579.3,-1147.69 564.88,-1146.21 552.92,-1158.06 549.63,-1160.9 541.39,-1170.12 536.02,-1175.23 525.04,-1183.98 "/>
<polyline fill="none" stroke="#000000" points="365.18,-942.25 376.49,-934.93 445.5,-895.9 461.66,-885.45 462.98,-885.52 465.94,-885.53 468.97,-885.38 472.49,-885.42 481.67,-885.04 484.92,-887.13 504.01,-897.98 504.06,-898 511.5,-901.11 570.7,-921.57 586.09,-929.24 586.26,-967.97 576.21,-979.03 572.08,-982.88 570.12,-984.41 563.22,-992.02 550.65,-1003.18 541.45,-1009.23 532.79,-1012.95 523.7,-1014.82 514.36,-1014.67 504.67,-1016.64 497.26,-1019.78 484.95,-1027.8 476.71,-1034.95 465.53,-1047.14 464.44,-1048.07 462.37,-1050.18 461.48,-1050.91 456.73,-1085.67 456.41,-1085.84 446.02,-1090.48 431.96,-1095.49 428.33,-1096.44 420.81,-1097.75 405.83,-1099.01 396.54,-1098.95 396.04,-1098.9 393.63,-1098.89 389.31,-1099.26 384.36,-1099.25 375.74,-1098.44 373.49,-1098.43 365.05,-1099.2 361.63,-1099.2 361.1,-1099.68 360.55,-1100.1 351.56,-1109.76 339.24,-1120.31 330.84,-1125.56 323.69,-1128.43 312.34,-1130.51 303.54,-1130.15 302.44,-1130.35 296.88,-1130.1 291.32,-1131.11 284.73,-1130.81 284.52,-1130.85 275,-1130.39 267.11,-1131.75 256.9,-1135.8 245.49,-1142.86 240.39,-1147.09 227.91,-1160.36 227.49,-1160.9 221.29,-1166.5 215.6,-1172.56 212,-1172.5 210.23,-1172.33 199.21,-1172.15 197.85,-1172.23 190.51,-1172.12 187.8,-1172.28 179.61,-1172.17 178.37,-1172.06 165.65,-1171.91 159.58,-1171.4 154.61,-1170.62 93.16,-1156.37 103.79,-1139.09 117,-1120.33 117.12,-1120.18 134.42,-1102.59 137.5,-1100.1 143.47,-1092.48 149.31,-1086.97 161.38,-1079.14 171.75,-1075.73 180.87,-1075.67 189.89,-1072.82 201.95,-1065.2 207.24,-1060.31 214.41,-1051.3 220.91,-1046.18 226.69,-1040.52 235.69,-1029.9 226.92,-956.49 235.6,-952.96 250.81,-948.42 264.26,-945.15 272.01,-943.69 280.1,-942.61 298.2,-942.16 303.06,-942.31 310.16,-942.12 310.85,-942.06 312.75,-942 324.11,-942.29 327.8,-941.96 333.57,-941.77 343.88,-941.98 347.06,-942.22 353.96,-941.95 354.61,-941.96 357.17,-942.14 365.18,-942.25 "/>
<!-- Books&#45;&gt;Management -->
<g id="edge1" class="edge">
<title>Books&#45;&gt;Management</title>
<path fill="none" stroke="#555555" stroke-opacity="0.133333" d="M1085.6,-814.62C1173.8,-835.88 1352.4,-878.97 1457.6,-904.36"/>
<polygon fill="#555555" fill-opacity="0.133333" stroke="#555555" stroke-opacity="0.133333" points="1457.06,-907.83 1467.6,-906.76 1458.69,-901.02 1457.06,-907.83"/>
</g>
<!-- Books&#45;&gt;Programming -->
<g id="edge2" class="edge">
<title>Books&#45;&gt;Programming</title>
<path fill="none" stroke="#555555" stroke-opacity="0.133333" d="M994.27,-822.82C911.38,-867.07 717.63,-970.5 623.79,-1020.6"/>
<polygon fill="#555555" fill-opacity="0.133333" stroke="#555555" stroke-opacity="0.133333" points="621.94,-1017.62 614.75,-1025.4 625.22,-1023.8 621.94,-1017.62"/>
</g>
<!-- Books&#45;&gt;Linux -->
<g id="edge3" class="edge">
<title>Books&#45;&gt;Linux</title>
<path fill="none" stroke="#555555" stroke-opacity="0.133333" d="M1023.8,-774.74C994.6,-691.25 906.54,-439.18 874.67,-347.95"/>
<polygon fill="#555555" fill-opacity="0.133333" stroke="#555555" stroke-opacity="0.133333" points="877.93,-346.67 871.33,-338.38 871.32,-348.97 877.93,-346.67"/>
</g>
<!-- Books&#45;&gt;Texts -->
<g id="edge4" class="edge">
<title>Books&#45;&gt;Texts</title>
<path fill="none" stroke="#555555" stroke-opacity="0.133333" d="M1050.3,-828.84C1080.2,-875.97 1141.9,-973.39 1174.3,-1024.5"/>
<polygon fill="#555555" fill-opacity="0.133333" stroke="#555555" stroke-opacity="0.133333" points="1171.5,-1026.62 1179.8,-1033.2 1177.41,-1022.88 1171.5,-1026.62"/>
</g>
<!-- Management&#45;&gt;The Mythical Man&#45;Month -->
<g id="edge5" class="edge">
<title>Management&#45;&gt;The Mythical Man&#45;Month</title>
<path fill="none" stroke="#555555" stroke-opacity="0.133333" d="M1545.3,-898.58C1550.2,-873.7 1557.5,-836.09 1562.4,-810.41"/>
<polygon fill="#555555" fill-opacity="0.133333" stroke="#555555" stroke-opacity="0.133333" points="1565.84,-811.04 1564.4,-800.54 1558.98,-809.65 1565.84,-811.04"/>
</g>
<!-- Management&#45;&gt;Agile technologies, Extreme Programming and RUP. -->
<g id="edge6" class="edge">
<title>Management&#45;&gt;Agile technologies, Extreme Programming and RUP.</title>
<path fill="none" stroke="#555555" stroke-opacity="0.133333" d="M1623,-909.66C1661.2,-902.88 1707,-894.77 1747.3,-887.62"/>
<polygon fill="#555555" fill-opacity="0.133333" stroke="#555555" stroke-opacity="0.133333" points="1747.87,-891.07 1757.1,-885.88 1746.64,-884.18 1747.87,-891.07"/>
</g>
<!-- Management&#45;&gt;Human factor. Successful projects and commands. -->
<g id="edge7" class="edge">
<title>Management&#45;&gt;Human factor. Successful projects and commands.</title>
<path fill="none" stroke="#555555" stroke-opacity="0.133333" d="M1545.3,-949.82C1549.2,-970.06 1554.7,-998.34 1558.8,-1019.2"/>
<polygon fill="#555555" fill-opacity="0.133333" stroke="#555555" stroke-opacity="0.133333" points="1555.38,-1019.94 1560.7,-1029.1 1562.25,-1018.62 1555.38,-1019.94"/>
</g>
<!-- Management&#45;&gt;Scrum and XP, notes from frontline -->
<g id="edge8" class="edge">
<title>Management&#45;&gt;Scrum and XP, notes from frontline</title>
<path fill="none" stroke="#555555" stroke-opacity="0.133333" d="M1578.5,-900.67C1634.7,-865.83 1739.2,-801.12 1794.9,-766.57"/>
<polygon fill="#555555" fill-opacity="0.133333" stroke="#555555" stroke-opacity="0.133333" points="1797.12,-769.31 1803.8,-761.09 1793.45,-763.35 1797.12,-769.31"/>
</g>
<!-- Management&#45;&gt;The Phoenix Project: A Novel about IT, DevOps, and Helping Your Business Win -->
<g id="edge9" class="edge">
<title>Management&#45;&gt;The Phoenix Project: A Novel about IT, DevOps, and Helping Your Business Win</title>
<path fill="none" stroke="#555555" stroke-opacity="0.133333" d="M1618.2,-940.52C1677.7,-952.88 1759.7,-969.96 1822.7,-983.06"/>
<polygon fill="#555555" fill-opacity="0.133333" stroke="#555555" stroke-opacity="0.133333" points="1822.2,-986.53 1832.7,-985.13 1823.62,-979.68 1822.2,-986.53"/>
</g>
<!-- Management&#45;&gt;Jedi Techniques of Personal Effectiveness -->
<g id="edge10" class="edge">
<title>Management&#45;&gt;Jedi Techniques of Personal Effectiveness</title>
<path fill="none" stroke="#555555" stroke-opacity="0.133333" d="M1531,-949.67C1518.1,-984.84 1494.8,-1048.2 1481.5,-1084.6"/>
<polygon fill="#555555" fill-opacity="0.133333" stroke="#555555" stroke-opacity="0.133333" points="1478.17,-1083.51 1478,-1094.1 1484.74,-1085.93 1478.17,-1083.51"/>
</g>
<!-- Management&#45;&gt;Goldratt -->
<g id="edge11" class="edge">
<title>Management&#45;&gt;Goldratt</title>
<path fill="none" stroke="#555555" stroke-opacity="0.133333" d="M1554.7,-949.57C1590.4,-1012 1682.7,-1173.7 1722.2,-1243.1"/>
<polygon fill="#555555" fill-opacity="0.133333" stroke="#555555" stroke-opacity="0.133333" points="1719.18,-1244.87 1727.2,-1251.8 1725.25,-1241.39 1719.18,-1244.87"/>
</g>
<!-- Management&#45;&gt;People -->
<g id="edge12" class="edge">
<title>Management&#45;&gt;People</title>
<path fill="none" stroke="#555555" stroke-opacity="0.133333" d="M1536.4,-898.68C1528.9,-849.4 1512.3,-741.41 1503.9,-686.05"/>
<polygon fill="#555555" fill-opacity="0.133333" stroke="#555555" stroke-opacity="0.133333" points="1507.33,-685.35 1502.3,-676.03 1500.42,-686.46 1507.33,-685.35"/>
</g>
<!-- Programming&#45;&gt;SRE. How google runs production software. -->
<g id="edge13" class="edge">
<title>Programming&#45;&gt;SRE. How google runs production software.</title>
<path fill="none" stroke="#555555" stroke-opacity="0.133333" d="M536.81,-1024.5C482.04,-985.53 375.28,-909.62 321.02,-871.04"/>
<polygon fill="#555555" fill-opacity="0.133333" stroke="#555555" stroke-opacity="0.133333" points="322.96,-868.12 312.78,-865.18 318.9,-873.83 322.96,-868.12"/>
</g>
<!-- Programming&#45;&gt;The Pragmatic Programmer -->
<g id="edge14" class="edge">
<title>Programming&#45;&gt;The Pragmatic Programmer</title>
<path fill="none" stroke="#555555" stroke-opacity="0.133333" d="M577.12,-1023C586.58,-983.18 604.63,-907.19 614.37,-866.19"/>
<polygon fill="#555555" fill-opacity="0.133333" stroke="#555555" stroke-opacity="0.133333" points="617.81,-866.86 616.71,-856.32 611,-865.24 617.81,-866.86"/>
</g>
<!-- Programming&#45;&gt;Facts and Fallacies of Software Engineering -->
<g id="edge15" class="edge">
<title>Programming&#45;&gt;Facts and Fallacies of Software Engineering</title>
<path fill="none" stroke="#555555" stroke-opacity="0.133333" d="M628.08,-1027.1C646.99,-1020 668.01,-1012 686.81,-1004.9"/>
<polygon fill="#555555" fill-opacity="0.133333" stroke="#555555" stroke-opacity="0.133333" points="688.28,-1008.09 696.41,-1001.3 685.82,-1001.53 688.28,-1008.09"/>
</g>
<!-- Programming&#45;&gt;Clean Code -->
<g id="edge16" class="edge">
<title>Programming&#45;&gt;Clean Code</title>
<path fill="none" stroke="#555555" stroke-opacity="0.133333" d="M558.84,-1023.1C535.23,-973.36 483.38,-864.04 459.31,-813.3"/>
<polygon fill="#555555" fill-opacity="0.133333" stroke="#555555" stroke-opacity="0.133333" points="462.47,-811.79 455.02,-804.25 456.14,-814.79 462.47,-811.79"/>
</g>
<!-- Programming&#45;&gt;Extreme programming -->
<g id="edge17" class="edge">
<title>Programming&#45;&gt;Extreme programming</title>
<path fill="none" stroke="#555555" stroke-opacity="0.133333" d="M556.65,-1074.2C524.89,-1130.4 448.87,-1265.1 416.3,-1322.8"/>
<polygon fill="#555555" fill-opacity="0.133333" stroke="#555555" stroke-opacity="0.133333" points="413.14,-1321.27 411.27,-1331.7 419.24,-1324.72 413.14,-1321.27"/>
</g>
<!-- Programming&#45;&gt;Cracking the code Interview -->
<g id="edge18" class="edge">
<title>Programming&#45;&gt;Cracking the code Interview</title>
<path fill="none" stroke="#555555" stroke-opacity="0.133333" d="M465.5,-1049.3C399.76,-1049.7 314.76,-1050.2 245.21,-1050.6"/>
<polygon fill="#555555" fill-opacity="0.133333" stroke="#555555" stroke-opacity="0.133333" points="245.06,-1047.1 235.06,-1050.6 245.06,-1054.1 245.06,-1047.1"/>
</g>
<!-- Programming&#45;&gt;Distributed Systems, v3 -->
<g id="edge19" class="edge">
<title>Programming&#45;&gt;Distributed Systems, v3</title>
<path fill="none" stroke="#555555" stroke-opacity="0.133333" d="M526.74,-1072C454.16,-1110 310.82,-1185.2 239.84,-1222.5"/>
<polygon fill="#555555" fill-opacity="0.133333" stroke="#555555" stroke-opacity="0.133333" points="238.02,-1219.5 230.74,-1227.2 241.23,-1225.72 238.02,-1219.5"/>
</g>
<!-- Programming&#45;&gt;97 Things Every Software Architect Should Know -->
<g id="edge20" class="edge">
<title>Programming&#45;&gt;97 Things Every Software Architect Should Know</title>
<path fill="none" stroke="#555555" stroke-opacity="0.133333" d="M530.33,-1072.5C497.36,-1091.8 451.2,-1118.8 418.59,-1137.9"/>
<polygon fill="#555555" fill-opacity="0.133333" stroke="#555555" stroke-opacity="0.133333" points="416.68,-1134.96 409.78,-1143 420.19,-1141.02 416.68,-1134.96"/>
</g>
<!-- Programming&#45;&gt;The Clean Architecture -->
<g id="edge21" class="edge">
<title>Programming&#45;&gt;The Clean Architecture</title>
<path fill="none" stroke="#555555" stroke-opacity="0.133333" d="M578.44,-1074.6C591.85,-1121.1 619.94,-1218.4 633.78,-1266.4"/>
<polygon fill="#555555" fill-opacity="0.133333" stroke="#555555" stroke-opacity="0.133333" points="630.45,-1267.47 636.59,-1276.1 637.17,-1265.52 630.45,-1267.47"/>
</g>
<!-- Programming&#45;&gt;Languages -->
<g id="edge22" class="edge">
<title>Programming&#45;&gt;Languages</title>
<path fill="none" stroke="#555555" stroke-opacity="0.133333" d="M564.17,-1074.2C554.88,-1108.8 538.24,-1170.8 527.9,-1209.3"/>
<polygon fill="#555555" fill-opacity="0.133333" stroke="#555555" stroke-opacity="0.133333" points="524.51,-1208.43 525.29,-1219 531.27,-1210.25 524.51,-1208.43"/>
</g>
<!-- Linux&#45;&gt;Linux kernel primer -->
<g id="edge23" class="edge">
<title>Linux&#45;&gt;Linux kernel primer</title>
<path fill="none" stroke="#555555" stroke-opacity="0.133333" d="M865.06,-290.27C868.36,-251.51 874.81,-175.84 878.31,-134.75"/>
<polygon fill="#555555" fill-opacity="0.133333" stroke="#555555" stroke-opacity="0.133333" points="881.81,-134.88 879.17,-124.62 874.84,-134.29 881.81,-134.88"/>
</g>
<!-- Linux&#45;&gt;Linux Advanced Routing and Traffic Control -->
<g id="edge24" class="edge">
<title>Linux&#45;&gt;Linux Advanced Routing and Traffic Control</title>
<path fill="none" stroke="#555555" stroke-opacity="0.133333" d="M883.35,-292.17C925.92,-245.41 1024.1,-137.54 1069.1,-88.12"/>
<polygon fill="#555555" fill-opacity="0.133333" stroke="#555555" stroke-opacity="0.133333" points="1071.69,-90.47 1075.8,-80.71 1066.5,-85.78 1071.69,-90.47"/>
</g>
<!-- Linux&#45;&gt;Unix in a nutshell -->
<g id="edge25" class="edge">
<title>Linux&#45;&gt;Unix in a nutshell</title>
<path fill="none" stroke="#555555" stroke-opacity="0.133333" d="M898.14,-297.84C944.02,-276.05 1024.3,-237.9 1074,-214.29"/>
<polygon fill="#555555" fill-opacity="0.133333" stroke="#555555" stroke-opacity="0.133333" points="1075.74,-217.34 1083.3,-209.92 1072.76,-211.01 1075.74,-217.34"/>
</g>
<!-- Linux&#45;&gt;Art of the Unix programming -->
<g id="edge26" class="edge">
<title>Linux&#45;&gt;Art of the Unix programming</title>
<path fill="none" stroke="#555555" stroke-opacity="0.133333" d="M903.99,-327.81C929.52,-336.08 962.83,-346.87 991.37,-356.11"/>
<polygon fill="#555555" fill-opacity="0.133333" stroke="#555555" stroke-opacity="0.133333" points="990.61,-359.54 1001.2,-359.31 992.77,-352.89 990.61,-359.54"/>
</g>
<!-- Linux&#45;&gt;Advanced Linux programming -->
<g id="edge27" class="edge">
<title>Linux&#45;&gt;Advanced Linux programming</title>
<path fill="none" stroke="#555555" stroke-opacity="0.133333" d="M815.41,-308.57C763.92,-302.13 680.19,-291.66 613.01,-283.25"/>
<polygon fill="#555555" fill-opacity="0.133333" stroke="#555555" stroke-opacity="0.133333" points="613.16,-279.74 602.8,-281.97 612.29,-286.69 613.16,-279.74"/>
</g>
<!-- Linux&#45;&gt;Network Performance Tuning (RHEL) -->
<g id="edge28" class="edge">
<title>Linux&#45;&gt;Network Performance Tuning (RHEL)</title>
<path fill="none" stroke="#555555" stroke-opacity="0.133333" d="M830.46,-296.47C776.61,-266.57 669.08,-206.88 610.22,-174.21"/>
<polygon fill="#555555" fill-opacity="0.133333" stroke="#555555" stroke-opacity="0.133333" points="611.65,-171 601.21,-169.21 608.26,-177.12 611.65,-171"/>
</g>
<!-- Linux&#45;&gt;Packagecloud blog posts: Monitoring and tuning Linux networking stack: sending data &amp; receiving data -->
<g id="edge29" class="edge">
<title>Linux&#45;&gt;Packagecloud blog posts: Monitoring and tuning Linux networking stack: sending data &amp; receiving data</title>
<path fill="none" stroke="#555555" stroke-opacity="0.133333" d="M838.8,-293.44C777.64,-240.15 617.09,-100.25 551.38,-42.98"/>
<polygon fill="#555555" fill-opacity="0.133333" stroke="#555555" stroke-opacity="0.133333" points="553.32,-40.03 543.48,-36.1 548.72,-45.31 553.32,-40.03"/>
</g>
<!-- Linux&#45;&gt;Linux Kernel, Robert Love -->
<g id="edge30" class="edge">
<title>Linux&#45;&gt;Linux Kernel, Robert Love</title>
<path fill="none" stroke="#555555" stroke-opacity="0.133333" d="M825.82,-330.43C794.35,-343.89 748.97,-363.3 714.5,-378.04"/>
<polygon fill="#555555" fill-opacity="0.133333" stroke="#555555" stroke-opacity="0.133333" points="712.9,-374.92 705.08,-382.06 715.65,-381.35 712.9,-374.92"/>
</g>
<!-- Texts&#45;&gt;  -->
<g id="edge31" class="edge">
<title>Texts&#45;&gt; </title>
<path fill="none" stroke="#555555" stroke-opacity="0.133333" d="M1195.4,-1083.1C1195.7,-1126.8 1196.5,-1215.3 1196.9,-1260.7"/>
<polygon fill="#555555" fill-opacity="0.133333" stroke="#555555" stroke-opacity="0.133333" points="1193.4,-1260.74 1197,-1270.7 1200.4,-1260.67 1193.4,-1260.74"/>
</g>
<!-- Texts&#45;&gt;    -->
<g id="edge32" class="edge">
<title>Texts&#45;&gt;   </title>
<path fill="none" stroke="#555555" stroke-opacity="0.133333" d="M1149.1,-1048.1C1137.1,-1045.6 1123.8,-1042.9 1110.6,-1040.3"/>
<polygon fill="#555555" fill-opacity="0.133333" stroke="#555555" stroke-opacity="0.133333" points="1111.11,-1036.83 1100.6,-1038.2 1109.67,-1043.68 1111.11,-1036.83"/>
</g>
<!-- Texts&#45;&gt;   -->
<g id="edge33" class="edge">
<title>Texts&#45;&gt;  </title>
<path fill="none" stroke="#555555" stroke-opacity="0.133333" d="M1219.7,-1079.6C1237,-1095.3 1260.3,-1116.3 1278.2,-1132.6"/>
<polygon fill="#555555" fill-opacity="0.133333" stroke="#555555" stroke-opacity="0.133333" points="1276.32,-1135.62 1286.1,-1139.7 1281,-1130.41 1276.32,-1135.62"/>
</g>
<!-- Goldratt&#45;&gt;Isn&#39;t It Obvious? Retailing and the Theory of Constraints -->
<g id="edge34" class="edge">
<title>Goldratt&#45;&gt;Isn&#39;t It Obvious? Retailing and the Theory of Constraints</title>
<path fill="none" stroke="#555555" stroke-opacity="0.133333" d="M1804.1,-1272.7C1812,-1272.4 1820.4,-1272 1829.2,-1271.7"/>
<polygon fill="#555555" fill-opacity="0.133333" stroke="#555555" stroke-opacity="0.133333" points="1829.39,-1275.2 1839.2,-1271.2 1829.04,-1268.2 1829.39,-1275.2"/>
</g>
<!-- Goldratt&#45;&gt;The Choice -->
<g id="edge35" class="edge">
<title>Goldratt&#45;&gt;The Choice</title>
<path fill="none" stroke="#555555" stroke-opacity="0.133333" d="M1783.6,-1293.4C1845.2,-1319.1 1958,-1366.2 2019.9,-1392.1"/>
<polygon fill="#555555" fill-opacity="0.133333" stroke="#555555" stroke-opacity="0.133333" points="2018.83,-1395.45 2029.4,-1396.1 2021.54,-1388.99 2018.83,-1395.45"/>
</g>
<!-- Goldratt&#45;&gt;The Goal -->
<g id="edge36" class="edge">
<title>Goldratt&#45;&gt;The Goal</title>
<path fill="none" stroke="#555555" stroke-opacity="0.133333" d="M1757.1,-1299C1786.9,-1342 1850,-1433 1881,-1477.7"/>
<polygon fill="#555555" fill-opacity="0.133333" stroke="#555555" stroke-opacity="0.133333" points="1878.2,-1479.81 1886.8,-1486 1883.94,-1475.8 1878.2,-1479.81"/>
</g>
<!-- Goldratt&#45;&gt;Critical Chain -->
<g id="edge37" class="edge">
<title>Goldratt&#45;&gt;Critical Chain</title>
<path fill="none" stroke="#555555" stroke-opacity="0.133333" d="M1737.3,-1299.7C1731.8,-1337.8 1721.3,-1411.4 1715.5,-1451.7"/>
<polygon fill="#555555" fill-opacity="0.133333" stroke="#555555" stroke-opacity="0.133333" points="1712.02,-1451.31 1714.1,-1461.7 1718.95,-1452.28 1712.02,-1451.31"/>
</g>
<!-- People&#45;&gt;The Inmates Are Running the Asylum -->
<g id="edge38" class="edge">
<title>People&#45;&gt;The Inmates Are Running the Asylum</title>
<path fill="none" stroke="#555555" stroke-opacity="0.133333" d="M1526.3,-630.79C1568.3,-598.76 1648.2,-537.92 1692.5,-504.21"/>
<polygon fill="#555555" fill-opacity="0.133333" stroke="#555555" stroke-opacity="0.133333" points="1694.76,-506.89 1700.6,-498.05 1690.52,-501.32 1694.76,-506.89"/>
</g>
<!-- People&#45;&gt;Game theory, the art of strategy -->
<g id="edge39" class="edge">
<title>People&#45;&gt;Game theory, the art of strategy</title>
<path fill="none" stroke="#555555" stroke-opacity="0.133333" d="M1494,-627.84C1489.8,-606.4 1483.7,-574.97 1479.4,-552.36"/>
<polygon fill="#555555" fill-opacity="0.133333" stroke="#555555" stroke-opacity="0.133333" points="1482.79,-551.47 1477.4,-542.35 1475.93,-552.84 1482.79,-551.47"/>
</g>
<!-- People&#45;&gt;Republic (Plato) -->
<g id="edge40" class="edge">
<title>People&#45;&gt;Republic (Plato)</title>
<path fill="none" stroke="#555555" stroke-opacity="0.133333" d="M1496.3,-627.66C1492.1,-583.27 1483,-489.01 1478.5,-441.69"/>
<polygon fill="#555555" fill-opacity="0.133333" stroke="#555555" stroke-opacity="0.133333" points="1481.96,-441.14 1477.5,-431.53 1475,-441.82 1481.96,-441.14"/>
</g>
<!-- Languages&#45;&gt;An Introducion to programming on Go -->
<g id="edge41" class="edge">
<title>Languages&#45;&gt;An Introducion to programming on Go</title>
<path fill="none" stroke="#555555" stroke-opacity="0.133333" d="M455.75,-1257.8C432.88,-1263.1 406.74,-1269.2 382.62,-1274.8"/>
<polygon fill="#555555" fill-opacity="0.133333" stroke="#555555" stroke-opacity="0.133333" points="381.72,-1271.42 372.78,-1277.1 383.31,-1278.23 381.72,-1271.42"/>
</g>
<!-- Languages&#45;&gt;C Programming language -->
<g id="edge42" class="edge">
<title>Languages&#45;&gt;C Programming language</title>
<path fill="none" stroke="#555555" stroke-opacity="0.133333" d="M499.45,-1219.6C467.57,-1180.6 404.24,-1103.1 371.27,-1062.7"/>
<polygon fill="#555555" fill-opacity="0.133333" stroke="#555555" stroke-opacity="0.133333" points="373.94,-1060.44 364.91,-1054.9 368.52,-1064.86 373.94,-1060.44"/>
</g>
<!-- Languages&#45;&gt;Dive into python -->
<g id="edge43" class="edge">
<title>Languages&#45;&gt;Dive into python</title>
<path fill="none" stroke="#555555" stroke-opacity="0.133333" d="M515.28,-1218.9C508.33,-1170.7 492.86,-1063.5 485.5,-1012.5"/>
<polygon fill="#555555" fill-opacity="0.133333" stroke="#555555" stroke-opacity="0.133333" points="488.95,-1011.9 484.06,-1002.5 482.02,-1012.9 488.95,-1011.9"/>
</g>
<!-- Languages&#45;&gt;Advanced Bash Scripting Guide -->
<g id="edge44" class="edge">
<title>Languages&#45;&gt;Advanced Bash Scripting Guide</title>
<path fill="none" stroke="#555555" stroke-opacity="0.133333" d="M478.64,-1222.4C427.15,-1195.7 338.21,-1149.6 285.48,-1122.2"/>
<polygon fill="#555555" fill-opacity="0.133333" stroke="#555555" stroke-opacity="0.133333" points="286.88,-1118.98 276.39,-1117.5 283.67,-1125.2 286.88,-1118.98"/>
</g>
<!-- Languages&#45;&gt;The main question of coding, refactoring and everything. -->
<g id="edge45" class="edge">
<title>Languages&#45;&gt;The main question of coding, refactoring and everything.</title>
<path fill="none" stroke="#555555" stroke-opacity="0.133333" d="M510.46,-1267.2C493.09,-1317.1 453.07,-1432 434.59,-1485.1"/>
<polygon fill="#555555" fill-opacity="0.133333" stroke="#555555" stroke-opacity="0.133333" points="431.16,-1484.31 431.2,-1494.9 437.78,-1486.59 431.16,-1484.31"/>
</g>
<!-- Languages&#45;&gt;Enough rope to shoot yourself in the foot -->
<g id="edge46" class="edge">
<title>Languages&#45;&gt;Enough rope to shoot yourself in the foot</title>
<path fill="none" stroke="#555555" stroke-opacity="0.133333" d="M556.82,-1264.5C611.68,-1295.1 712.6,-1351.4 768.95,-1382.9"/>
<polygon fill="#555555" fill-opacity="0.133333" stroke="#555555" stroke-opacity="0.133333" points="767.49,-1386.09 777.93,-1387.9 770.9,-1379.98 767.49,-1386.09"/>
</g>
<!-- Languages&#45;&gt;Learning SQL, O&#39;Reilly -->
<g id="edge47" class="edge">
<title>Languages&#45;&gt;Learning SQL, O&#39;Reilly</title>
<path fill="none" stroke="#555555" stroke-opacity="0.133333" d="M598.26,-1244.3C622.79,-1244.6 650.28,-1244.9 676.57,-1245.3"/>
<polygon fill="#555555" fill-opacity="0.133333" stroke="#555555" stroke-opacity="0.133333" points="676.55,-1248.8 686.58,-1245.4 676.62,-1241.8 676.55,-1248.8"/>
</g>
<!-- Languages&#45;&gt;C++ today. Beast is back -->
<g id="edge48" class="edge">
<title>Languages&#45;&gt;C++ today. Beast is back</title>
<path fill="none" stroke="#555555" stroke-opacity="0.133333" d="M540.97,-1266.8C587.78,-1316.4 696.34,-1431.5 744.7,-1482.8"/>
<polygon fill="#555555" fill-opacity="0.133333" stroke="#555555" stroke-opacity="0.133333" points="742.25,-1485.31 751.65,-1490.2 747.36,-1480.51 742.25,-1485.31"/>
</g>
<!-- Books -->
<g id="node1" class="node">
<title>Books</title>
<text text-anchor="middle" x="1033.3" y="-794.09" font-family="Helvetica,sans-Serif" font-weight="bold" font-size="26.00">Books</text>
</g>
<!-- Management -->
<g id="node2" class="node">
<title>Management</title>
<text text-anchor="middle" x="1540.3" y="-916.71" font-family="Helvetica,sans-Serif" font-weight="bold" font-size="24.00">Management</text>
</g>
<!-- Programming -->
<g id="node3" class="node">
<title>Programming</title>
<text text-anchor="middle" x="570.99" y="-1041.2" font-family="Helvetica,sans-Serif" font-weight="bold" font-size="24.00">Programming</text>
</g>
<!-- Linux -->
<g id="node4" class="node">
<title>Linux</title>
<text text-anchor="middle" x="863" y="-307.73" font-family="Helvetica,sans-Serif" font-weight="bold" font-size="22.00">Linux</text>
</g>
<!-- Texts -->
<g id="node5" class="node">
<title>Texts</title>
<text text-anchor="middle" x="1195.1" y="-1049.8" font-family="Helvetica,sans-Serif" font-weight="bold" font-size="24.00">Texts</text>
</g>
<!-- The Mythical Man&#45;Month -->
<g id="node6" class="node">
<title>The Mythical Man&#45;Month</title>
<text text-anchor="middle" x="1567.9" y="-777.63" font-family="Helvetica,sans-Serif" font-weight="bold" font-size="14.00">The Mythical Man&#45;Month</text>
</g>
<!-- Agile technologies, Extreme Programming and RUP. -->
<g id="node7" class="node">
<title>Agile technologies, Extreme Programming and RUP.</title>
<text text-anchor="middle" x="1848.7" y="-865.04" font-family="Helvetica,sans-Serif" font-weight="bold" font-size="14.00">Agile technologies, Extreme Programming and RUP.</text>
</g>
<!-- Human factor. Successful projects and commands. -->
<g id="node8" class="node">
<title>Human factor. Successful projects and commands.</title>
<text text-anchor="middle" x="1564.3" y="-1042.8" font-family="Helvetica,sans-Serif" font-weight="bold" font-size="14.00">Human factor. Successful projects and commands.</text>
</g>
<!-- Scrum and XP, notes from frontline -->
<g id="node9" class="node">
<title>Scrum and XP, notes from frontline</title>
<text text-anchor="middle" x="1832.3" y="-738.82" font-family="Helvetica,sans-Serif" font-weight="bold" font-size="14.00">Scrum and XP, notes from frontline</text>
</g>
<!-- The Phoenix Project: A Novel about IT, DevOps, and Helping Your Business Win -->
<g id="node10" class="node">
<title>The Phoenix Project: A Novel about IT, DevOps, and Helping Your Business Win</title>
<text text-anchor="middle" x="1916.4" y="-997.9" font-family="Helvetica,sans-Serif" font-weight="bold" font-size="14.00">The Phoenix Project: A Novel about IT, DevOps, and Helping Your Business Win</text>
</g>
<!-- Jedi Techniques of Personal Effectiveness -->
<g id="node11" class="node">
<title>Jedi Techniques of Personal Effectiveness</title>
<text text-anchor="middle" x="1471.3" y="-1107.7" font-family="Helvetica,sans-Serif" font-weight="bold" font-size="14.00">Jedi Techniques of Personal Effectiveness</text>
</g>
<!-- Goldratt -->
<g id="node12" class="node">
<title>Goldratt</title>
<text text-anchor="middle" x="1740.7" y="-1268.7" font-family="Helvetica,sans-Serif" font-weight="bold" font-size="22.00">Goldratt</text>
</g>
<!-- People -->
<g id="node13" class="node">
<title>People</title>
<text text-anchor="middle" x="1498.6" y="-645.04" font-family="Helvetica,sans-Serif" font-weight="bold" font-size="22.00">People</text>
</g>
<!-- SRE. How google runs production software. -->
<g id="node14" class="node">
<title>SRE. How google runs production software.</title>
<text text-anchor="middle" x="287.64" y="-842.71" font-family="Helvetica,sans-Serif" font-weight="bold" font-size="14.00">SRE. How google runs production software.</text>
</g>
<!-- The Pragmatic Programmer -->
<g id="node15" class="node">
<title>The Pragmatic Programmer</title>
<text text-anchor="middle" x="620.99" y="-833.71" font-family="Helvetica,sans-Serif" font-weight="bold" font-size="14.00">The Pragmatic Programmer</text>
</g>
<!-- Facts and Fallacies of Software Engineering -->
<g id="node16" class="node">
<title>Facts and Fallacies of Software Engineering</title>
<text text-anchor="middle" x="742.44" y="-979.23" font-family="Helvetica,sans-Serif" font-weight="bold" font-size="14.00">Facts and Fallacies of Software Engineering</text>
</g>
<!-- Clean Code -->
<g id="node17" class="node">
<title>Clean Code</title>
<text text-anchor="middle" x="446.57" y="-781.83" font-family="Helvetica,sans-Serif" font-weight="bold" font-size="14.00">Clean Code</text>
</g>
<!-- Extreme programming -->
<g id="node18" class="node">
<title>Extreme programming</title>
<text text-anchor="middle" x="401.06" y="-1345.2" font-family="Helvetica,sans-Serif" font-weight="bold" font-size="14.00">Extreme programming</text>
</g>
<!-- Cracking the code Interview -->
<g id="node19" class="node">
<title>Cracking the code Interview</title>
<text text-anchor="middle" x="117.39" y="-1046.7" font-family="Helvetica,sans-Serif" font-weight="bold" font-size="14.00">Cracking the code Interview</text>
</g>
<!-- Distributed Systems, v3 -->
<g id="node20" class="node">
<title>Distributed Systems, v3</title>
<text text-anchor="middle" x="198.01" y="-1239.8" font-family="Helvetica,sans-Serif" font-weight="bold" font-size="14.00">Distributed Systems, v3</text>
</g>
<!-- 97 Things Every Software Architect Should Know -->
<g id="node21" class="node">
<title>97 Things Every Software Architect Should Know</title>
<text text-anchor="middle" x="379.23" y="-1156.3" font-family="Helvetica,sans-Serif" font-weight="bold" font-size="14.00">97 Things Every Software Architect Should Know</text>
</g>
<!-- The Clean Architecture -->
<g id="node22" class="node">
<title>The Clean Architecture</title>
<text text-anchor="middle" x="641.86" y="-1289.8" font-family="Helvetica,sans-Serif" font-weight="bold" font-size="14.00">The Clean Architecture</text>
</g>
<!-- Languages -->
<g id="node23" class="node">
<title>Languages</title>
<text text-anchor="middle" x="518.79" y="-1236.4" font-family="Helvetica,sans-Serif" font-weight="bold" font-size="22.00">Languages</text>
</g>
<!-- Linux kernel primer -->
<g id="node24" class="node">
<title>Linux kernel primer</title>
<text text-anchor="middle" x="880.71" y="-101.97" font-family="Helvetica,sans-Serif" font-weight="bold" font-size="14.00">Linux kernel primer</text>
</g>
<!-- Linux Advanced Routing and Traffic Control -->
<g id="node25" class="node">
<title>Linux Advanced Routing and Traffic Control</title>
<text text-anchor="middle" x="1092.4" y="-57.95" font-family="Helvetica,sans-Serif" font-weight="bold" font-size="14.00">Linux Advanced Routing and Traffic Control</text>
</g>
<!-- Unix in a nutshell -->
<g id="node26" class="node">
<title>Unix in a nutshell</title>
<text text-anchor="middle" x="1117.6" y="-188.99" font-family="Helvetica,sans-Serif" font-weight="bold" font-size="14.00">Unix in a nutshell</text>
</g>
<!-- Art of the Unix programming -->
<g id="node27" class="node">
<title>Art of the Unix programming</title>
<text text-anchor="middle" x="1051.9" y="-371.13" font-family="Helvetica,sans-Serif" font-weight="bold" font-size="14.00">Art of the Unix programming</text>
</g>
<!-- Advanced Linux programming -->
<g id="node28" class="node">
<title>Advanced Linux programming</title>
<text text-anchor="middle" x="507.38" y="-265.43" font-family="Helvetica,sans-Serif" font-weight="bold" font-size="14.00">Advanced Linux programming</text>
</g>
<!-- Network Performance Tuning (RHEL) -->
<g id="node29" class="node">
<title>Network Performance Tuning (RHEL)</title>
<text text-anchor="middle" x="569.42" y="-146.96" font-family="Helvetica,sans-Serif" font-weight="bold" font-size="14.00">Network Performance Tuning (RHEL)</text>
</g>
<!-- Packagecloud blog posts: Monitoring and tuning Linux networking stack: sending data &amp; receiving data -->
<g id="node30" class="node">
<title>Packagecloud blog posts: Monitoring and tuning Linux networking stack: sending data &amp; receiving data</title>
<text text-anchor="middle" x="522.71" y="-13.4" font-family="Helvetica,sans-Serif" font-weight="bold" font-size="14.00">Packagecloud blog posts: Monitoring and tuning Linux networking stack: sending data &amp; receiving data</text>
</g>
<!-- Linux Kernel, Robert Love -->
<g id="node31" class="node">
<title>Linux Kernel, Robert Love</title>
<text text-anchor="middle" x="665.37" y="-394.45" font-family="Helvetica,sans-Serif" font-weight="bold" font-size="14.00">Linux Kernel, Robert Love</text>
</g>
<!--   -->
<g id="node32" class="node">
<title> </title>
<text text-anchor="middle" x="1197.1" y="-1284.3" font-family="Helvetica,sans-Serif" font-weight="bold" font-size="14.00"> </text>
</g>
<!--     -->
<g id="node33" class="node">
<title>   </title>
<text text-anchor="middle" x="1032.9" y="-1019.9" font-family="Helvetica,sans-Serif" font-weight="bold" font-size="14.00">   </text>
</g>
<!--    -->
<g id="node34" class="node">
<title>  </title>
<text text-anchor="middle" x="1305.8" y="-1152.9" font-family="Helvetica,sans-Serif" font-weight="bold" font-size="14.00">  </text>
</g>
<!-- Isn&#39;t It Obvious? Retailing and the Theory of Constraints -->
<g id="node35" class="node">
<title>Isn&#39;t It Obvious? Retailing and the Theory of Constraints</title>
<text text-anchor="middle" x="2037.8" y="-1258.1" font-family="Helvetica,sans-Serif" font-weight="bold" font-size="14.00">Isn&#39;t It Obvious? Retailing and the Theory of Constraints</text>
</g>
<!-- The Choice -->
<g id="node36" class="node">
<title>The Choice</title>
<text text-anchor="middle" x="2063.6" y="-1405.8" font-family="Helvetica,sans-Serif" font-weight="bold" font-size="14.00">The Choice</text>
</g>
<!-- The Goal -->
<g id="node37" class="node">
<title>The Goal</title>
<text text-anchor="middle" x="1899" y="-1499" font-family="Helvetica,sans-Serif" font-weight="bold" font-size="14.00">The Goal</text>
</g>
<!-- Critical Chain -->
<g id="node38" class="node">
<title>Critical Chain</title>
<text text-anchor="middle" x="1711.5" y="-1475.3" font-family="Helvetica,sans-Serif" font-weight="bold" font-size="14.00">Critical Chain</text>
</g>
<!-- The Inmates Are Running the Asylum -->
<g id="node39" class="node">
<title>The Inmates Are Running the Asylum</title>
<text text-anchor="middle" x="1724" y="-475.62" font-family="Helvetica,sans-Serif" font-weight="bold" font-size="14.00">The Inmates Are Running the Asylum</text>
</g>
<!-- Game theory, the art of strategy -->
<g id="node40" class="node">
<title>Game theory, the art of strategy</title>
<text text-anchor="middle" x="1473.9" y="-519.63" font-family="Helvetica,sans-Serif" font-weight="bold" font-size="14.00">Game theory, the art of strategy</text>
</g>
<!-- Republic (Plato) -->
<g id="node41" class="node">
<title>Republic (Plato)</title>
<text text-anchor="middle" x="1475.8" y="-408.73" font-family="Helvetica,sans-Serif" font-weight="bold" font-size="14.00">Republic (Plato)</text>
</g>
<!-- An Introducion to programming on Go -->
<g id="node42" class="node">
<title>An Introducion to programming on Go</title>
<text text-anchor="middle" x="302.84" y="-1288.7" font-family="Helvetica,sans-Serif" font-weight="bold" font-size="14.00">An Introducion to programming on Go</text>
</g>
<!-- C Programming language -->
<g id="node43" class="node">
<title>C Programming language</title>
<text text-anchor="middle" x="350.21" y="-1032.3" font-family="Helvetica,sans-Serif" font-weight="bold" font-size="14.00">C Programming language</text>
</g>
<!-- Dive into python -->
<g id="node44" class="node">
<title>Dive into python</title>
<text text-anchor="middle" x="481.45" y="-979.81" font-family="Helvetica,sans-Serif" font-weight="bold" font-size="14.00">Dive into python</text>
</g>
<!-- Advanced Bash Scripting Guide -->
<g id="node45" class="node">
<title>Advanced Bash Scripting Guide</title>
<text text-anchor="middle" x="242.71" y="-1095.5" font-family="Helvetica,sans-Serif" font-weight="bold" font-size="14.00">Advanced Bash Scripting Guide</text>
</g>
<!-- The main question of coding, refactoring and everything. -->
<g id="node46" class="node">
<title>The main question of coding, refactoring and everything.</title>
<text text-anchor="middle" x="424.92" y="-1508.3" font-family="Helvetica,sans-Serif" font-weight="bold" font-size="14.00">The main question of coding, refactoring and everything.</text>
</g>
<!-- Enough rope to shoot yourself in the foot -->
<g id="node47" class="node">
<title>Enough rope to shoot yourself in the foot</title>
<text text-anchor="middle" x="809.73" y="-1401" font-family="Helvetica,sans-Serif" font-weight="bold" font-size="14.00">Enough rope to shoot yourself in the foot</text>
</g>
<!-- Learning SQL, O&#39;Reilly -->
<g id="node48" class="node">
<title>Learning SQL, O&#39;Reilly</title>
<text text-anchor="middle" x="788.54" y="-1242.1" font-family="Helvetica,sans-Serif" font-weight="bold" font-size="14.00">Learning SQL, O&#39;Reilly</text>
</g>
<!-- C++ today. Beast is back -->
<g id="node49" class="node">
<title>C++ today. Beast is back</title>
<text text-anchor="middle" x="768.69" y="-1503.7" font-family="Helvetica,sans-Serif" font-weight="bold" font-size="14.00">C++ today. Beast is back</text>
</g>
</g>
</svg>
