<?xml version="1.0" encoding="UTF-8" standalone="no"?>
<!DOCTYPE svg PUBLIC "-//W3C//DTD SVG 1.1//EN"
 "http://www.w3.org/Graphics/SVG/1.1/DTD/svg11.dtd">
<!-- Generated by graphviz version 2.38.0 (20140413.2041)
 -->
<!-- Title: G Pages: 1 -->
<svg width="1921pt" height="1810pt"
 viewBox="0.00 0.00 1921.04 1810.38" xmlns="http://www.w3.org/2000/svg" xmlns:xlink="http://www.w3.org/1999/xlink">
<g id="graph0" class="graph" transform="scale(1 1) rotate(0) translate(97.949 1573.35)">
<title>G</title>
<polygon fill="#dae2ff" stroke="none" points="-97.949,237.027 -97.949,-1573.35 1823.09,-1573.35 1823.09,237.027 -97.949,237.027"/>
<polygon fill="#fbb4ae" stroke="#fbb4ae" points="-77.098,-559.76 82.5974,-559.76 82.5974,-559.76 -77.098,-559.76 -70.3416,-499.632 -35.0022,-416.228 98.4121,-369.771 105.018,-367.296 119.494,-361.486 174.056,-232.638 299.168,-158.301 305.443,-67.668 307.803,48.5051 465.258,136.136 498.031,142.477 498.394,142.555 528.997,150.481 550.639,157.494 543.689,-67.4363 536.358,-67.4363 530.166,4.2465 528.477,88.2117 518.309,-67.4243 511.098,-67.4243 511.098,-67.4243 518.309,-67.4243 528.477,88.2117 530.166,4.2465 536.358,-67.4363 543.689,-67.4363 550.639,157.494 554.382,158.788 564.113,162.361 571.225,165.282 589.381,173.139 585.631,-65.8407 586.866,-67.5423 593.492,-67.5423 594.141,-67.8547 602.724,-67.8547 598.711,-201.763 593.55,-202.077 587.134,-202.681 582.661,-203.252 568.894,-205.475 563.75,-206.478 542.839,-211.26 535.771,-213.345 525.926,-216.579 523.193,-217.568 507.621,-223.731 502.796,-225.965 491.298,-224.029 445.329,-217.626 417.372,-212.116 414.374,-211.355 409.738,-210.043 403.478,-374.017 396.042,-374.017 391.453,-299.853 386.769,-372.369 378.933,-368.819 370.455,-372.673 369.366,-374.129 370.28,-375.406 370.28,-375.406 369.366,-374.129 370.455,-372.673 378.933,-368.819 386.769,-372.369 391.453,-299.853 396.042,-374.017 403.478,-374.017 409.738,-210.043 414.374,-211.355 417.372,-212.116 445.329,-217.626 444.73,-238.732 436.437,-374.221 429.617,-374.221 429.617,-374.221 436.437,-374.221 444.73,-238.732 445.329,-217.626 491.298,-224.029 502.796,-225.965 507.621,-223.731 523.193,-217.568 525.926,-216.579 535.771,-213.345 542.839,-211.26 563.75,-206.478 568.894,-205.475 582.661,-203.252 587.134,-202.681 593.55,-202.077 598.711,-201.763 602.724,-67.8547 594.141,-67.8547 593.492,-67.5423 586.866,-67.5423 585.631,-65.8407 589.381,173.139 593.707,175.104 598.833,177.658 618.842,172.557 644.029,167.573 640.939,-8.47409 635.005,-67.3604 636.405,-68.0302 631.396,-152.157 631.192,-201.406 640.834,-201.778 648.373,-201.295 665.508,-201.35 664.854,-280.734 669.437,-334.298 659.871,-329.575 652.49,-332.886 650.746,-335.499 651.808,-336.957 660.043,-340.686 660.043,-340.686 651.808,-336.957 650.746,-335.499 652.49,-332.886 659.871,-329.575 669.437,-334.298 664.854,-280.734 665.508,-201.35 648.373,-201.295 640.834,-201.778 631.192,-201.406 631.396,-152.157 636.405,-68.0302 635.005,-67.3604 640.939,-8.47409 644.029,167.573 647.244,167.06 786.087,191.847 803.346,195.302 819.794,199.305 836.094,203.622 838.096,204.195 863.314,213.053 870.66,215.791 896.318,226.461 896.656,226.609 909.847,232.943 910.046,-17.7746 906.336,-17.7746 901.906,-13.6911 901.906,-13.6911 906.336,-17.7746 910.046,-17.7746 909.847,232.943 910.014,233.027 923.438,224.73 955.859,207.032 965.152,202.641 975.734,197.897 989.609,192.011 996.119,189.409 1002.18,187.132 1116.8,146.885 1217.63,10.9771 1201.84,-6.01468 1200.72,-7.26822 1195.19,-13.2382 1195.05,-20.6472 1183.05,-205.57 1175.26,-205.57 1168.33,-131.102 1165.41,-41.9297 1155.52,-50.7455 1152.96,-52.9064 1147.26,-57.4333 1140.52,-210.008 1132.9,-210.008 1132.12,-210.381 1124.41,-210.381 1123.92,-210.144 1115.14,-210.144 1115.09,-210.124 1112.98,-210.124 1106.94,-215.22 1108,-330.253 995.812,-251.554 992.688,-249.171 974.103,-233.816 974.103,-233.816 992.688,-249.171 995.812,-251.554 1108,-330.253 1106.94,-215.22 1112.98,-210.124 1115.09,-210.124 1115.14,-210.144 1123.92,-210.144 1124.41,-210.381 1132.12,-210.381 1132.9,-210.008 1140.52,-210.008 1147.26,-57.4333 1152.96,-52.9064 1155.52,-50.7455 1165.41,-41.9297 1168.33,-131.102 1175.26,-205.57 1183.05,-205.57 1188.35,-210.591 1183.76,-214.697 1183.76,-214.697 1188.35,-210.591 1183.05,-205.57 1195.05,-20.6472 1195.19,-13.2382 1200.72,-7.26822 1201.84,-6.01468 1217.63,10.9771 1217.9,10.9219 1217.26,-210.14 1209.18,-210.14 1208.87,-210.285 1200.74,-210.285 1200.74,-210.285 1208.87,-210.285 1209.18,-210.14 1217.26,-210.14 1217.9,10.9219 1224.48,9.68953 1241.43,6.86828 1255.75,5.08222 1304.1,0.05672 1362.13,-41.3387 1388.25,-48.6922 1393.86,-50.1342 1413.54,-54.2398 1441.85,-58.7665 1441.22,-78.3458 1438.77,-119.734 1427.47,-236.863 1432.67,-241.878 1428.12,-246.012 1428.12,-246.012 1432.67,-241.878 1427.47,-236.863 1438.77,-119.734 1441.22,-78.3458 1441.85,-58.7665 1451.18,-59.5746 1456.84,-59.9268 1562.46,-63.9309 1611.54,-112.506 1632.02,-194.552 1658.04,-287.936 1770.05,-344.877 1784.85,-353.843 1785.33,-354.884 1806.32,-473.653 1624.36,-486.122 1620.27,-490.249 1615.76,-490.249 1615.35,-490.054 1608.24,-490.054 1607.3,-490.49 1600.1,-490.49 1599.57,-490.25 1591.72,-490.25 1591.31,-490.058 1583.07,-490.058 1582.97,-490.01 1575.08,-490.01 1574.61,-490.224 1567.13,-490.224 1566.69,-490.426 1558.72,-490.426 1558.05,-490.122 1551.83,-490.122 1550.7,-488.659 1542.29,-484.881 1542.29,-484.881 1550.7,-488.659 1551.83,-490.122 1550.71,-491.644 1550.71,-491.644 1551.83,-490.122 1558.05,-490.122 1558.72,-490.426 1566.69,-490.426 1567.13,-490.224 1574.61,-490.224 1575.08,-490.01 1582.97,-490.01 1583.07,-490.058 1591.31,-490.058 1591.72,-490.25 1599.57,-490.25 1600.1,-490.49 1607.3,-490.49 1608.24,-490.054 1615.35,-490.054 1615.76,-490.249 1620.27,-490.249 1624.36,-486.122 1806.32,-473.653 1813.18,-507.478 1819.09,-533.345 1805.62,-592.821 1701.18,-702.4 1698.62,-717.594 1696.39,-732.702 1690.53,-762.028 1762.12,-920.716 1755.54,-945.15 1564.56,-942.211 1559.34,-845.863 1555.78,-946.939 1555.62,-947.016 1548.7,-947.016 1540.97,-1027.38 1539.79,-1057.96 1530.66,-946.79 1524.08,-946.79 1518.92,-997.016 1514.29,-948.988 1516.1,-946.362 1515.03,-944.952 1506.88,-941.315 1506.88,-941.315 1515.03,-944.952 1516.1,-946.362 1514.29,-948.988 1506.81,-952.291 1498.68,-948.604 1495.38,-1059.75 1489.79,-946.822 1482.65,-946.822 1473.71,-824.036 1473.59,-820.704 1475.46,-820.556 1471.52,-694.373 1463.03,-694.373 1464.49,-820.635 1448.83,-820.259 1446.47,-820.29 1445.31,-793.085 1436.74,-698.935 1428.47,-698.935 1423.76,-694.649 1420.43,-694.649 1419.1,-693.986 1411.28,-693.986 1411.15,-694.047 1411.15,-694.047 1411.28,-693.986 1419.1,-693.986 1420.43,-694.649 1423.76,-694.649 1428.47,-698.935 1436.74,-698.935 1445.31,-793.085 1446.47,-820.29 1448.83,-820.259 1464.49,-820.635 1463.03,-694.373 1471.52,-694.373 1475.46,-820.556 1473.59,-820.704 1473.71,-824.036 1482.65,-946.822 1489.79,-946.822 1495.38,-1059.75 1498.68,-948.604 1506.81,-952.291 1514.29,-948.988 1518.92,-997.016 1524.08,-946.79 1530.66,-946.79 1539.79,-1057.96 1540.97,-1027.38 1548.7,-947.016 1555.62,-947.016 1555.78,-946.939 1559.34,-845.863 1564.56,-942.211 1755.54,-945.15 1754.75,-948.402 1732.5,-1050.32 1644.53,-1151.05 1644.78,-1172.09 1630.69,-1214.1 1619.51,-1253.56 1567.39,-1358.2 1439.05,-1406.13 1420.73,-1413.46 1420.74,-1397.63 1420.74,-1397.63 1420.73,-1413.46 1404.82,-1421.08 1402.88,-1422.07 1400.44,-1421.18 1387.87,-1416.91 1374.6,-1412.72 1367.32,-1410.6 1366.63,-1312.33 1366.63,-1312.33 1367.32,-1410.6 1348.18,-1405.96 1340.24,-1404.22 1338.95,-1403.97 1317.05,-1400.77 1310.74,-1400 1295.45,-1398.51 1209.59,-1394.28 1158.96,-1411.01 1149.71,-1209.25 1220.28,-1204.93 1220.34,-1204.07 1149.9,-1199.76 1150.41,-1040.15 1163.79,-1040.12 1162.79,-964.251 1166.15,-880.116 1174.56,-880.116 1179.46,-875.586 1174.58,-871.156 1174.58,-871.156 1179.46,-875.586 1174.56,-880.116 1166.15,-880.116 1162.79,-964.251 1163.79,-1040.12 1150.41,-1040.15 1149.9,-1199.76 1220.34,-1204.07 1220.28,-1204.93 1149.71,-1209.25 1158.96,-1411.01 1151.19,-1413.77 1097.95,-1482.59 975.997,-1516.5 958.796,-1515.98 958.559,-1414.5 963.015,-1329.3 1140.15,-1397.78 1142.76,-1401.42 1141.47,-1204.89 1141.93,-1204.68 1137.29,-1100.77 1137.26,-1040.01 1138.05,-1039.99 1138.05,-1039.99 1137.26,-1040.01 1137.29,-1100.77 1141.93,-1204.68 1141.47,-1204.89 1142.76,-1401.42 1140.15,-1397.78 1129.37,-1381.87 1115.69,-1362.72 1115.86,-1326.65 1116.69,-1306.83 1125.47,-1205.33 1126,-1204.62 1125.17,-1203.45 1121.76,-1135.8 1123.66,-1039.96 1133.65,-1039.93 1132.1,-875.659 1132.1,-875.659 1133.65,-1039.93 1123.66,-1039.96 1121.76,-1135.8 1125.17,-1203.45 1126,-1204.62 1125.47,-1205.33 1116.69,-1306.83 1115.86,-1326.65 1115.69,-1362.72 1129.37,-1381.87 1140.15,-1397.78 963.015,-1329.3 958.559,-1414.5 958.796,-1515.98 938.39,-1516.35 928.11,-1517.02 924.308,-1517.36 907.545,-1519.26 902.794,-1519.91 882.936,-1523.59 882.836,-1513.98 882.836,-1513.98 882.936,-1523.59 863.503,-1528.12 854.388,-1530.46 816.631,-1541.05 784.706,-1565.33 771.581,-1569.35 696.132,-1557.43 690.577,-1556.8 675.047,-1555.4 659.709,-1554.36 643.177,-1553.98 641.251,-1553.99 640.466,-1361.58 649.256,-1357.37 650.117,-1356.17 649.217,-1354.9 649.217,-1354.9 650.117,-1356.17 649.256,-1357.37 640.466,-1361.58 631.919,-1357.51 630.918,-1356.08 632.007,-1354.53 630.742,-1203.62 643.753,-1194.21 645.292,-1194.39 663.749,-1195.47 666.949,-1195.48 677.262,-1195.22 678.656,-1123.34 685.383,-1034.79 692.892,-1034.79 698.517,-1094.6 703.093,-1039.32 711.771,-1039.32 716.541,-1034.69 720.674,-1034.69 720.915,-1034.8 720.915,-1034.8 720.674,-1034.69 716.541,-1034.69 711.771,-1039.32 703.093,-1039.32 698.517,-1094.6 692.892,-1034.79 685.383,-1034.79 678.656,-1123.34 677.262,-1195.22 666.949,-1195.48 663.749,-1195.47 645.292,-1194.39 643.753,-1194.21 630.742,-1203.62 632.007,-1354.53 630.918,-1356.08 631.919,-1357.51 640.466,-1361.58 641.251,-1553.99 632.573,-1554.18 623.77,-1554.58 599.763,-1556.75 591.38,-1557.89 589.165,-1356.27 585.778,-1356.27 580.701,-1351.52 374.769,-1355.48 375.936,-1354.22 398.091,-1332.25 401.206,-1329.44 414.835,-1317.76 434.394,-1302.68 449.311,-1291.86 453.287,-1289.33 468.457,-1280.36 477.297,-1275.53 477.297,-1275.53 468.457,-1280.36 453.287,-1289.33 449.311,-1291.86 434.394,-1302.68 414.835,-1317.76 401.206,-1329.44 398.091,-1332.25 375.936,-1354.22 374.769,-1355.48 580.701,-1351.52 585.778,-1356.27 589.165,-1356.27 591.38,-1557.89 574.347,-1560.59 536.172,-1567.49 472.236,-1517.06 348.355,-1382.19 345.554,-1381.95 322.877,-1380.89 304.176,-1380.37 289.376,-1372.95 53.8689,-1144.5 47.5844,-1138.8 36.2008,-1137.71 -58.8642,-901.704 -65.5131,-886.313 -57.5909,-824.776 -47.3313,-725.524 108.676,-711.58 125.049,-711.576 128.415,-711.474 131.719,-711.473 136.042,-862.685 144.13,-862.685 147.388,-711.338 153.93,-711.333 160.589,-711.525 163.771,-711.331 179.425,-711.31 178.379,-862.915 177.833,-863.171 170.671,-863.171 170.671,-863.171 177.833,-863.171 178.379,-862.915 186.702,-862.915 186.963,-862.79 194.773,-862.79 199.295,-809.71 198.239,-711.434 205.55,-711.201 210.744,-711.19 217.31,-711.371 220.334,-711.545 220.065,-722.476 221.13,-858.605 229.842,-858.605 223.078,-711.538 227.022,-711.41 236.946,-711.384 246.935,-711.655 253.025,-711.455 253.224,-711.454 255.343,-863.251 255.426,-863.29 263.289,-863.29 263.404,-863.345 271.855,-863.345 278.624,-1000.81 280.923,-954.938 290.22,-863.464 296.992,-863.464 303.649,-929.315 306.831,-862.916 306.93,-862.869 314.218,-862.869 321.637,-770.075 322.664,-734.833 360.802,-771.193 449.86,-736.335 451.808,-834.725 459.512,-734.384 467.254,-734.384 472.441,-853.701 476.814,-734.347 476.91,-734.301 484.591,-734.301 484.943,-734.473 489.743,-734.473 493.994,-738.605 503.015,-738.605 507.641,-734.021 511.44,-734.021 511.44,-734.021 507.641,-734.021 503.015,-738.605 493.994,-738.605 489.743,-734.473 484.943,-734.473 484.591,-734.301 476.91,-734.301 476.814,-734.347 472.441,-853.701 467.254,-734.384 459.512,-734.384 451.808,-834.725 449.86,-736.335 451.541,-733.982 450.205,-732.2 450.205,-732.2 451.541,-733.982 449.86,-736.335 360.802,-771.193 322.664,-734.833 321.637,-770.075 314.218,-862.869 306.93,-862.869 306.831,-862.916 303.649,-929.315 296.992,-863.464 290.22,-863.464 280.923,-954.938 280.796,-863.12 280.796,-863.12 280.923,-954.938 278.624,-1000.81 271.855,-863.345 263.404,-863.345 263.289,-863.29 255.426,-863.29 255.343,-863.251 253.224,-711.454 253.938,-711.431 264.206,-711.703 279.504,-711.192 279.187,-699.88 279.187,-699.88 279.504,-711.192 264.206,-711.703 253.938,-711.431 253.224,-711.454 253.025,-711.455 246.935,-711.655 236.946,-711.384 227.022,-711.41 223.078,-711.538 229.842,-858.605 221.13,-858.605 220.065,-722.476 220.334,-711.545 217.31,-711.371 210.744,-711.19 205.55,-711.201 198.239,-711.434 197.488,-711.413 197.488,-711.413 198.239,-711.434 199.295,-809.71 194.773,-862.79 186.963,-862.79 186.702,-862.915 178.379,-862.915 179.425,-711.31 163.771,-711.331 160.589,-711.525 153.93,-711.333 147.388,-711.338 144.13,-862.685 136.042,-862.685 131.719,-711.473 136.404,-711.33 136.404,-711.33 131.719,-711.473 128.415,-711.474 125.049,-711.576 108.676,-711.58 -47.3313,-725.524 -93.949,-661.966 -77.098,-559.76 -77.098,-559.76"/>
<polyline fill="none" stroke="#000000" points="882.936,-1523.59 863.503,-1528.12 854.388,-1530.46 816.631,-1541.05 784.706,-1565.33 771.581,-1569.35 696.132,-1557.43 690.577,-1556.8 675.047,-1555.4 659.709,-1554.36 643.177,-1553.98 641.251,-1553.99 632.573,-1554.18 623.77,-1554.58 599.763,-1556.75 591.38,-1557.89 574.347,-1560.59 536.172,-1567.49 472.236,-1517.06 348.355,-1382.19 345.554,-1381.95 322.877,-1380.89 304.176,-1380.37 289.376,-1372.95 53.8689,-1144.5 47.5844,-1138.8 36.2008,-1137.71 -58.8642,-901.704 -65.5131,-886.313 -57.5909,-824.776 -47.3313,-725.524 -93.949,-661.966 -77.098,-559.76 -70.3416,-499.632 -35.0022,-416.228 98.4121,-369.771 105.018,-367.296 119.494,-361.486 174.056,-232.638 299.168,-158.301 305.443,-67.668 307.803,48.5051 465.258,136.136 498.031,142.477 498.394,142.555 528.997,150.481 550.639,157.494 554.382,158.788 564.113,162.361 571.225,165.282 589.381,173.139 593.707,175.104 598.833,177.658 618.842,172.557 644.029,167.573 647.244,167.06 786.087,191.847 803.346,195.302 819.794,199.305 836.094,203.622 838.096,204.195 863.314,213.053 870.66,215.791 896.318,226.461 896.656,226.609 909.847,232.943 910.014,233.027 923.438,224.73 955.859,207.032 965.152,202.641 975.734,197.897 989.609,192.011 996.119,189.409 1002.18,187.132 1116.8,146.885 1217.63,10.9771 1217.9,10.9219 1224.48,9.68953 1241.43,6.86828 1255.75,5.08222 1304.1,0.05672 1362.13,-41.3387 1388.25,-48.6922 1393.86,-50.1342 1413.54,-54.2398 1441.85,-58.7665 1451.18,-59.5746 1456.84,-59.9268 1562.46,-63.9309 1611.54,-112.506 1632.02,-194.552 1658.04,-287.936 1770.05,-344.877 1784.85,-353.843 1785.33,-354.884 1806.32,-473.653 1813.18,-507.478 1819.09,-533.345 1805.62,-592.821 1701.18,-702.4 1698.62,-717.594 1696.39,-732.702 1690.53,-762.028 1762.12,-920.716 1755.54,-945.15 1754.75,-948.402 1732.5,-1050.32 1644.53,-1151.05 1644.78,-1172.09 1630.69,-1214.1 1619.51,-1253.56 1567.39,-1358.2 1439.05,-1406.13 1420.73,-1413.46 1404.82,-1421.08 1402.88,-1422.07 1400.44,-1421.18 1387.87,-1416.91 1374.6,-1412.72 1367.32,-1410.6 1348.18,-1405.96 1340.24,-1404.22 1338.95,-1403.97 1317.05,-1400.77 1310.74,-1400 1295.45,-1398.51 1209.59,-1394.28 1158.96,-1411.01 1151.19,-1413.77 1097.95,-1482.59 975.997,-1516.5 958.796,-1515.98 938.39,-1516.35 928.11,-1517.02 924.308,-1517.36 907.545,-1519.26 902.794,-1519.91 882.936,-1523.59 "/>
<!-- Books&#45;&gt;The Mythical Man&#45;Month -->
<g id="edge1" class="edge"><title>Books&#45;&gt;The Mythical Man&#45;Month</title>
<path fill="none" stroke="#555555" stroke-opacity="0.133333" d="M831.12,-706.76C771.44,-711.69 677.19,-719.46 604.24,-725.48"/>
<polygon fill="#555555" fill-opacity="0.133333" stroke="#555555" stroke-opacity="0.133333" points="603.777,-722.006 594.1,-726.32 604.355,-728.982 603.777,-722.006"/>
</g>
<!-- Books&#45;&gt;Agile technologies, Extreme Programming and RUP. -->
<g id="edge2" class="edge"><title>Books&#45;&gt;Agile technologies, Extreme Programming and RUP.</title>
<path fill="none" stroke="#555555" stroke-opacity="0.133333" d="M837.37,-714.55C721.94,-742.57 442.99,-810.29 305.16,-843.74"/>
<polygon fill="#555555" fill-opacity="0.133333" stroke="#555555" stroke-opacity="0.133333" points="303.979,-840.425 295.09,-846.19 305.634,-847.227 303.979,-840.425"/>
</g>
<!-- Books&#45;&gt;Human factor. Successful projects and commands. -->
<g id="edge3" class="edge"><title>Books&#45;&gt;Human factor. Successful projects and commands.</title>
<path fill="none" stroke="#555555" stroke-opacity="0.133333" d="M835.57,-690.99C717.05,-666.71 431.66,-608.24 285.13,-578.23"/>
<polygon fill="#555555" fill-opacity="0.133333" stroke="#555555" stroke-opacity="0.133333" points="285.75,-574.784 275.25,-576.2 284.341,-581.641 285.75,-574.784"/>
</g>
<!-- Books&#45;&gt;Scrum and XP, notes from frontline -->
<g id="edge4" class="edge"><title>Books&#45;&gt;Scrum and XP, notes from frontline</title>
<path fill="none" stroke="#555555" stroke-opacity="0.133333" d="M855.7,-680.47C764.09,-621.65 509.85,-458.4 415.12,-397.57"/>
<polygon fill="#555555" fill-opacity="0.133333" stroke="#555555" stroke-opacity="0.133333" points="416.766,-394.467 406.46,-392.01 412.984,-400.358 416.766,-394.467"/>
</g>
<!-- Books&#45;&gt;SRE. How google runs production software. -->
<g id="edge5" class="edge"><title>Books&#45;&gt;SRE. How google runs production software.</title>
<path fill="none" stroke="#555555" stroke-opacity="0.133333" d="M936.67,-686.58C1052.4,-649.08 1348.9,-552.98 1479.2,-510.75"/>
<polygon fill="#555555" fill-opacity="0.133333" stroke="#555555" stroke-opacity="0.133333" points="1480.66,-513.958 1489.1,-507.56 1478.51,-507.296 1480.66,-513.958"/>
</g>
<!-- Books&#45;&gt;An Introducion to programming on Go -->
<g id="edge6" class="edge"><title>Books&#45;&gt;An Introducion to programming on Go</title>
<path fill="none" stroke="#555555" stroke-opacity="0.133333" d="M904.16,-676.57C953.77,-592.43 1112.5,-323.26 1163.3,-237.11"/>
<polygon fill="#555555" fill-opacity="0.133333" stroke="#555555" stroke-opacity="0.133333" points="1166.35,-238.834 1168.4,-228.44 1160.31,-235.285 1166.35,-238.834"/>
</g>
<!-- Books&#45;&gt;C Programming language -->
<g id="edge7" class="edge"><title>Books&#45;&gt;C Programming language</title>
<path fill="none" stroke="#555555" stroke-opacity="0.133333" d="M947.87,-701.13C1036.4,-699.86 1205.6,-697.44 1318.8,-695.82"/>
<polygon fill="#555555" fill-opacity="0.133333" stroke="#555555" stroke-opacity="0.133333" points="1318.95,-699.318 1328.9,-695.67 1318.85,-692.319 1318.95,-699.318"/>
</g>
<!-- Books&#45;&gt;Linux kernel primer -->
<g id="edge8" class="edge"><title>Books&#45;&gt;Linux kernel primer</title>
<path fill="none" stroke="#555555" stroke-opacity="0.133333" d="M916.42,-678.51C1007.8,-599.81 1302.9,-345.66 1395.6,-265.84"/>
<polygon fill="#555555" fill-opacity="0.133333" stroke="#555555" stroke-opacity="0.133333" points="1398.12,-268.287 1403.4,-259.1 1393.55,-262.99 1398.12,-268.287"/>
</g>
<!-- Books&#45;&gt;Dive into python -->
<g id="edge9" class="edge"><title>Books&#45;&gt;Dive into python</title>
<path fill="none" stroke="#555555" stroke-opacity="0.133333" d="M875.21,-727.52C841.57,-789.03 756.35,-944.88 721.96,-1007.8"/>
<polygon fill="#555555" fill-opacity="0.133333" stroke="#555555" stroke-opacity="0.133333" points="718.819,-1006.25 717.08,-1016.7 724.957,-1009.61 718.819,-1006.25"/>
</g>
<!-- Books&#45;&gt;Advanced Bash Scripting Guide -->
<g id="edge10" class="edge"><title>Books&#45;&gt;Advanced Bash Scripting Guide</title>
<path fill="none" stroke="#555555" stroke-opacity="0.133333" d="M879.28,-728.02C839.54,-832.52 691.87,-1220.9 651.02,-1328.4"/>
<polygon fill="#555555" fill-opacity="0.133333" stroke="#555555" stroke-opacity="0.133333" points="647.69,-1327.31 647.4,-1337.9 654.231,-1329.8 647.69,-1327.31"/>
</g>
<!-- Books&#45;&gt;The Pragmatic Programmer -->
<g id="edge11" class="edge"><title>Books&#45;&gt;The Pragmatic Programmer</title>
<path fill="none" stroke="#555555" stroke-opacity="0.133333" d="M890.11,-728.43C893.66,-829.98 906.43,-1194.3 910.09,-1298.8"/>
<polygon fill="#555555" fill-opacity="0.133333" stroke="#555555" stroke-opacity="0.133333" points="906.596,-1299.03 910.45,-1308.9 913.591,-1298.78 906.596,-1299.03"/>
</g>
<!-- Books&#45;&gt;Facts and Fallacies of Software Engineering -->
<g id="edge12" class="edge"><title>Books&#45;&gt;Facts and Fallacies of Software Engineering</title>
<path fill="none" stroke="#555555" stroke-opacity="0.133333" d="M863.44,-725.76C780.68,-802.27 521.84,-1041.5 437.41,-1119.6"/>
<polygon fill="#555555" fill-opacity="0.133333" stroke="#555555" stroke-opacity="0.133333" points="435.012,-1117.05 430.03,-1126.4 439.756,-1122.2 435.012,-1117.05"/>
</g>
<!-- Books&#45;&gt;Clean Code -->
<g id="edge13" class="edge"><title>Books&#45;&gt;Clean Code</title>
<path fill="none" stroke="#555555" stroke-opacity="0.133333" d="M896.01,-675.81C911.94,-614.72 951.49,-463.13 967.92,-400.17"/>
<polygon fill="#555555" fill-opacity="0.133333" stroke="#555555" stroke-opacity="0.133333" points="971.391,-400.73 970.53,-390.17 964.618,-398.962 971.391,-400.73"/>
</g>
<!-- Books&#45;&gt;The main question of coding, refactoring and everything. -->
<g id="edge14" class="edge"><title>Books&#45;&gt;The main question of coding, refactoring and everything.</title>
<path fill="none" stroke="#555555" stroke-opacity="0.133333" d="M889.5,-675.58C890.81,-567.35 895.75,-158.04 897.1,-46.319"/>
<polygon fill="#555555" fill-opacity="0.133333" stroke="#555555" stroke-opacity="0.133333" points="900.601,-46.2107 897.22,-36.17 893.602,-46.1279 900.601,-46.2107"/>
</g>
<!-- Books&#45;&gt;Extreme programming -->
<g id="edge15" class="edge"><title>Books&#45;&gt;Extreme programming</title>
<path fill="none" stroke="#555555" stroke-opacity="0.133333" d="M873.44,-676.76C831.87,-610.14 719.38,-429.9 676.84,-361.72"/>
<polygon fill="#555555" fill-opacity="0.133333" stroke="#555555" stroke-opacity="0.133333" points="679.808,-359.865 671.54,-353.24 673.872,-363.575 679.808,-359.865"/>
</g>
<!-- Books&#45;&gt;Linux Advanced Routing and Traffic Control -->
<g id="edge16" class="edge"><title>Books&#45;&gt;Linux Advanced Routing and Traffic Control</title>
<path fill="none" stroke="#555555" stroke-opacity="0.133333" d="M876.57,-676.32C826.52,-574.51 642.12,-199.35 590.75,-94.849"/>
<polygon fill="#555555" fill-opacity="0.133333" stroke="#555555" stroke-opacity="0.133333" points="593.886,-93.2954 586.33,-85.869 587.606,-96.3867 593.886,-93.2954"/>
</g>
<!-- Books&#45;&gt;Unix in a nutshell -->
<g id="edge17" class="edge"><title>Books&#45;&gt;Unix in a nutshell</title>
<path fill="none" stroke="#555555" stroke-opacity="0.133333" d="M900.92,-727.93C939.81,-813.95 1064.3,-1089.2 1104,-1177.1"/>
<polygon fill="#555555" fill-opacity="0.133333" stroke="#555555" stroke-opacity="0.133333" points="1100.96,-1178.86 1108.3,-1186.5 1107.32,-1175.95 1100.96,-1178.86"/>
</g>
<!-- Books&#45;&gt;Art of the Unix programming -->
<g id="edge18" class="edge"><title>Books&#45;&gt;Art of the Unix programming</title>
<path fill="none" stroke="#555555" stroke-opacity="0.133333" d="M923.64,-723.27C976.83,-756.14 1078.5,-818.95 1133.2,-852.76"/>
<polygon fill="#555555" fill-opacity="0.133333" stroke="#555555" stroke-opacity="0.133333" points="1131.55,-855.856 1141.9,-858.13 1135.23,-849.899 1131.55,-855.856"/>
</g>
<!-- Books&#45;&gt;Advanced Linux programming -->
<g id="edge19" class="edge"><title>Books&#45;&gt;Advanced Linux programming</title>
<path fill="none" stroke="#555555" stroke-opacity="0.133333" d="M933.09,-719.38C1044,-763.36 1335.1,-878.77 1454.5,-926.08"/>
<polygon fill="#555555" fill-opacity="0.133333" stroke="#555555" stroke-opacity="0.133333" points="1453.21,-929.335 1463.8,-929.77 1455.8,-922.829 1453.21,-929.335"/>
</g>
<!-- Books&#45;&gt;Network Performance Tuning (RHEL) -->
<g id="edge20" class="edge"><title>Books&#45;&gt;Network Performance Tuning (RHEL)</title>
<path fill="none" stroke="#555555" stroke-opacity="0.133333" d="M911.86,-726.33C991.89,-812.29 1260.7,-1101 1342.3,-1188.7"/>
<polygon fill="#555555" fill-opacity="0.133333" stroke="#555555" stroke-opacity="0.133333" points="1339.79,-1191.14 1349.2,-1196 1344.87,-1186.33 1339.79,-1191.14"/>
</g>
<!-- Books -->
<g id="node1" class="node"><title>Books</title>
<text text-anchor="middle" x="889.18" y="-695.67" font-family="Helvetica,sans-Serif" font-weight="bold" font-size="26.00">Books</text>
</g>
<!-- The Mythical Man&#45;Month -->
<g id="node2" class="node"><title>The Mythical Man&#45;Month</title>
<text text-anchor="middle" x="498.55" y="-730.5" font-family="Helvetica,sans-Serif" font-weight="bold" font-size="14.00">The Mythical Man&#45;Month</text>
</g>
<!-- Agile technologies, Extreme Programming and RUP. -->
<g id="node3" class="node"><title>Agile technologies, Extreme Programming and RUP.</title>
<text text-anchor="middle" x="225.36" y="-859.42" font-family="Helvetica,sans-Serif" font-weight="bold" font-size="14.00">Agile technologies, Extreme Programming and RUP.</text>
</g>
<!-- Human factor. Successful projects and commands. -->
<g id="node4" class="node"><title>Human factor. Successful projects and commands.</title>
<text text-anchor="middle" x="194.98" y="-556.06" font-family="Helvetica,sans-Serif" font-weight="bold" font-size="14.00">Human factor. Successful projects and commands.</text>
</g>
<!-- Scrum and XP, notes from frontline -->
<g id="node5" class="node"><title>Scrum and XP, notes from frontline</title>
<text text-anchor="middle" x="378.92" y="-370.63" font-family="Helvetica,sans-Serif" font-weight="bold" font-size="14.00">Scrum and XP, notes from frontline</text>
</g>
<!-- SRE. How google runs production software. -->
<g id="node6" class="node"><title>SRE. How google runs production software.</title>
<text text-anchor="middle" x="1542.2" y="-486.63" font-family="Helvetica,sans-Serif" font-weight="bold" font-size="14.00">SRE. How google runs production software.</text>
</g>
<!-- An Introducion to programming on Go -->
<g id="node7" class="node"><title>An Introducion to programming on Go</title>
<text text-anchor="middle" x="1179.1" y="-206.62" font-family="Helvetica,sans-Serif" font-weight="bold" font-size="14.00">An Introducion to programming on Go</text>
</g>
<!-- C Programming language -->
<g id="node8" class="node"><title>C Programming language</title>
<text text-anchor="middle" x="1432.8" y="-690.48" font-family="Helvetica,sans-Serif" font-weight="bold" font-size="14.00">C Programming language</text>
</g>
<!-- Linux kernel primer -->
<g id="node9" class="node"><title>Linux kernel primer</title>
<text text-anchor="middle" x="1423.7" y="-237.91" font-family="Helvetica,sans-Serif" font-weight="bold" font-size="14.00">Linux kernel primer</text>
</g>
<!-- Dive into python -->
<g id="node10" class="node"><title>Dive into python</title>
<text text-anchor="middle" x="707.25" y="-1031" font-family="Helvetica,sans-Serif" font-weight="bold" font-size="14.00">Dive into python</text>
</g>
<!-- Advanced Bash Scripting Guide -->
<g id="node11" class="node"><title>Advanced Bash Scripting Guide</title>
<text text-anchor="middle" x="640.48" y="-1352.4" font-family="Helvetica,sans-Serif" font-weight="bold" font-size="14.00">Advanced Bash Scripting Guide</text>
</g>
<!-- The Pragmatic Programmer -->
<g id="node12" class="node"><title>The Pragmatic Programmer</title>
<text text-anchor="middle" x="911.08" y="-1323.3" font-family="Helvetica,sans-Serif" font-weight="bold" font-size="14.00">The Pragmatic Programmer</text>
</g>
<!-- Facts and Fallacies of Software Engineering -->
<g id="node13" class="node"><title>Facts and Fallacies of Software Engineering</title>
<text text-anchor="middle" x="410.49" y="-1140.8" font-family="Helvetica,sans-Serif" font-weight="bold" font-size="14.00">Facts and Fallacies of Software Engineering</text>
</g>
<!-- Clean Code -->
<g id="node14" class="node"><title>Clean Code</title>
<text text-anchor="middle" x="975.25" y="-368.36" font-family="Helvetica,sans-Serif" font-weight="bold" font-size="14.00">Clean Code</text>
</g>
<!-- The main question of coding, refactoring and everything. -->
<g id="node15" class="node"><title>The main question of coding, refactoring and everything.</title>
<text text-anchor="middle" x="897.44" y="-14.3" font-family="Helvetica,sans-Serif" font-weight="bold" font-size="14.00">The main question of coding, refactoring and everything.</text>
</g>
<!-- Extreme programming -->
<g id="node16" class="node"><title>Extreme programming</title>
<text text-anchor="middle" x="660.23" y="-331.41" font-family="Helvetica,sans-Serif" font-weight="bold" font-size="14.00">Extreme programming</text>
</g>
<!-- Linux Advanced Routing and Traffic Control -->
<g id="node17" class="node"><title>Linux Advanced Routing and Traffic Control</title>
<text text-anchor="middle" x="577.39" y="-63.968" font-family="Helvetica,sans-Serif" font-weight="bold" font-size="14.00">Linux Advanced Routing and Traffic Control</text>
</g>
<!-- Unix in a nutshell -->
<g id="node18" class="node"><title>Unix in a nutshell</title>
<text text-anchor="middle" x="1116.4" y="-1200.8" font-family="Helvetica,sans-Serif" font-weight="bold" font-size="14.00">Unix in a nutshell</text>
</g>
<!-- Art of the Unix programming -->
<g id="node19" class="node"><title>Art of the Unix programming</title>
<text text-anchor="middle" x="1170.2" y="-871.97" font-family="Helvetica,sans-Serif" font-weight="bold" font-size="14.00">Art of the Unix programming</text>
</g>
<!-- Advanced Linux programming -->
<g id="node20" class="node"><title>Advanced Linux programming</title>
<text text-anchor="middle" x="1506.7" y="-943.07" font-family="Helvetica,sans-Serif" font-weight="bold" font-size="14.00">Advanced Linux programming</text>
</g>
<!-- Network Performance Tuning (RHEL) -->
<g id="node21" class="node"><title>Network Performance Tuning (RHEL)</title>
<text text-anchor="middle" x="1366" y="-1210.4" font-family="Helvetica,sans-Serif" font-weight="bold" font-size="14.00">Network Performance Tuning (RHEL)</text>
</g>
</g>
</svg>
