<?xml version="1.0" encoding="UTF-8" standalone="no"?>
<!DOCTYPE svg PUBLIC "-//W3C//DTD SVG 1.1//EN"
 "http://www.w3.org/Graphics/SVG/1.1/DTD/svg11.dtd">
<!-- Generated by graphviz version 2.38.0 (20140413.2041)
 -->
<!-- Title: G Pages: 1 -->
<svg width="1952pt" height="1752pt"
 viewBox="0.00 0.00 1951.53 1751.99" xmlns="http://www.w3.org/2000/svg" xmlns:xlink="http://www.w3.org/1999/xlink">
<g id="graph0" class="graph" transform="scale(1 1) rotate(0) translate(138.655 1587.93)">
<title>G</title>
<polygon fill="#dae2ff" stroke="none" points="-138.655,164.064 -138.655,-1587.93 1812.88,-1587.93 1812.88,164.064 -138.655,164.064"/>
<polygon fill="#fbb4ae" stroke="#fbb4ae" points="50.6977,-889.161 26.7756,-880.869 -74.0577,-848.258 -94.7425,-791.93 -100.748,-776.68 -103.632,-732.707 -97.9997,-724.06 -18.9086,-589.713 20.8802,-587.263 19.6888,-432.451 24.7346,-427.025 25.3855,-427.843 25.3855,-427.843 24.7346,-427.025 19.6888,-432.451 20.8802,-587.263 -18.9086,-589.713 -101.768,-500.512 -111.97,-449.407 -115.295,-434.568 -125.287,-394.303 -134.655,-359.702 -128.64,-348.255 -128.051,-347.738 12.1499,-270.778 19.8503,-238.966 24.53,-217.623 26.3004,-208.592 36.8072,-184.45 74.1701,-142.751 93.5727,-126.141 163.746,-108.394 168.767,-107.023 191.676,-99.3748 202.956,-94.9356 203.664,-94.6291 205.41,-93.8007 218.751,-62.3307 220.944,-58.8437 243.335,-21.3804 296.229,10.5246 351.029,26.3243 362.113,29.7736 363.009,30.0726 367.14,-104.654 367.764,-104.832 368.134,-105.388 371.159,-107.893 371.159,-107.893 368.134,-105.388 367.764,-104.832 367.14,-104.654 363.009,30.0726 375.878,34.6605 383.597,37.9375 392.853,36.3903 399.921,35.4892 405.165,34.5409 448.739,27.5425 516.201,-28.448 529.395,-82.0775 537.454,-111.83 539.8,-113.126 553.586,-119.78 552.375,-214.437 548.681,-257.846 545.319,-257.846 539.619,-196.566 537.859,-231.946 532.844,-257.725 530.746,-257.725 523,-199.853 522.663,-218.383 518.962,-255.937 514.977,-253.754 509.426,-253.754 504.743,-256.345 504.467,-207.952 498.719,-257.589 496.417,-257.589 496.417,-257.589 498.719,-257.589 504.467,-207.952 504.743,-256.345 509.426,-253.754 514.977,-253.754 518.962,-255.937 522.663,-218.383 523,-199.853 530.746,-257.725 532.844,-257.725 537.859,-231.946 539.619,-196.566 545.319,-257.846 548.681,-257.846 552.375,-214.437 553.586,-119.78 569.241,-126.605 650.235,-159.972 696.124,-152.393 709.624,-149.271 717.325,-147.32 718.67,-147.624 717.722,-251.224 720.889,-287.152 714.325,-283.13 709.422,-283.13 704.63,-285.884 696.804,-185.637 696.603,-209.621 696.603,-209.621 696.804,-185.637 704.63,-285.884 709.422,-283.13 714.325,-283.13 720.889,-287.152 717.722,-251.224 718.67,-147.624 730.87,-149.859 728.981,-240.879 728.981,-240.879 730.87,-149.859 861.232,-168.172 874.597,-200.161 866.307,-272.09 864.513,-297.917 862.129,-318.387 861.568,-324.433 887.672,-351.52 942.322,-411.548 934.852,-459.856 861.603,-460.99 850.285,-457.536 850.285,-457.536 861.603,-460.99 934.852,-459.856 933.828,-472.616 850.367,-470.032 846.247,-466.151 845.236,-465.844 842.848,-463.99 842.809,-463.761 840.041,-461.292 833.317,-459.163 833.317,-459.163 840.041,-461.292 842.809,-463.761 842.848,-463.99 845.236,-465.844 846.247,-466.151 850.367,-470.032 933.828,-472.616 933.235,-486.424 932.923,-490.326 918.535,-583.373 982.77,-662.224 979.575,-668.81 947.451,-745.481 944.243,-747.568 916.366,-804.211 898.309,-844.059 893.947,-854.802 885.33,-878.856 871.433,-886.288 869.354,-887.286 868.365,-887.709 859.441,-891.067 852.332,-893.367 844.383,-895.518 843.083,-895.8 816.854,-900.11 804.97,-903.177 799.237,-905.189 799.364,-836.204 799.885,-836.059 796.587,-781.977 796.396,-752.707 799.398,-752.562 799.784,-692.254 804.069,-669.3 806.026,-669.3 806.026,-669.3 804.069,-669.3 802.496,-668.81 802.496,-668.81 804.069,-669.3 799.784,-692.254 799.398,-752.562 796.396,-752.707 796.587,-781.977 799.885,-836.059 799.364,-836.204 799.237,-905.189 797.482,-905.886 786.995,-910.555 785.37,-911.353 784.612,-896.074 784.55,-836.383 786.267,-835.896 781.533,-811.797 779.328,-752.48 776.725,-752.45 771.11,-752.583 767.781,-752.441 768.157,-706.987 771.696,-670.701 776.239,-673.329 781.189,-673.329 787.563,-669.461 788.178,-668.756 787.498,-667.987 781.417,-664.358 781.417,-664.358 787.498,-667.987 788.178,-668.756 787.563,-669.461 781.189,-673.329 776.239,-673.329 771.696,-670.701 768.157,-706.987 767.781,-752.441 771.11,-752.583 776.725,-752.45 779.328,-752.48 781.533,-811.797 786.267,-835.896 784.55,-836.383 784.612,-896.074 785.37,-911.353 773.732,-918.189 761.004,-926.876 757.775,-929.227 753.173,-932.789 750.663,-934.847 746.302,-938.629 740.72,-943.735 737.905,-946.441 725.757,-958.709 724.95,-959.56 723.027,-961.292 720.883,-963.308 719.479,-905.703 719.479,-905.703 720.883,-963.308 710.789,-973.622 694.561,-991.535 690.882,-995.736 689.086,-996.506 692.385,-879.875 692.385,-879.875 689.086,-996.506 682.155,-999.747 666.961,-1008.07 666.225,-840.025 661.873,-841.165 655.883,-839.48 652.005,-836.362 652.005,-836.362 655.883,-839.48 661.873,-841.165 666.225,-840.025 666.961,-1008.07 655.146,-1014.78 652.355,-1016.47 644.81,-1004.23 642.618,-1000.9 641.598,-999.407 635.34,-869.084 637.153,-836.455 637.012,-836.415 637.012,-836.415 637.153,-836.455 635.34,-869.084 641.598,-999.407 621.365,-971.711 619.627,-969.517 611.852,-960.094 592.954,-939.101 592.954,-939.101 611.852,-960.094 619.627,-969.517 621.365,-971.711 641.598,-999.407 642.618,-1000.9 644.81,-1004.23 652.355,-1016.47 649.348,-1022.48 517.014,-1061.38 497.442,-1059.8 489.688,-1059.34 487.533,-1059.26 473.651,-1059.3 473.434,-1059.31 470.572,-980.275 471.754,-936.813 476.745,-935.457 480.339,-932.568 484.654,-961.607 487.291,-932.183 485.118,-931.549 488.742,-909.719 492.431,-927.462 496.171,-925.446 522.972,-931.94 585.358,-931.94 580.557,-926.64 580.557,-926.64 585.358,-931.94 522.972,-931.94 496.171,-925.446 500.424,-884.121 501.246,-884.144 510.471,-884.991 520.929,-887.288 524.644,-888.336 535.51,-892.8 546.093,-898.499 552.553,-902.796 555.951,-905.274 555.951,-905.274 552.553,-902.796 546.093,-898.499 535.51,-892.8 535.581,-861.151 539.473,-836.456 538.617,-836.217 538.617,-836.217 539.473,-836.456 535.581,-861.151 535.51,-892.8 524.644,-888.336 524.891,-878.828 524.891,-878.828 524.644,-888.336 520.929,-887.288 510.471,-884.991 510.762,-861.942 514.831,-836.6 514.048,-836.379 514.048,-836.379 514.831,-836.6 510.762,-861.942 510.471,-884.991 501.246,-884.144 500.424,-884.121 496.171,-925.446 492.431,-927.462 488.742,-909.719 485.118,-931.549 487.291,-932.183 484.654,-961.607 480.339,-932.568 476.745,-935.457 471.754,-936.813 466.085,-935.25 463.315,-933.078 462.762,-932.268 462.762,-932.268 463.315,-933.078 466.085,-935.25 471.754,-936.813 470.572,-980.275 473.434,-1059.31 458.997,-1060.27 446.864,-1061.59 440.2,-1062.45 352.437,-1075.64 313.804,-1063.79 303.698,-1065.37 301.273,-1065.79 283.137,-1056.66 283.245,-1045.64 283.245,-1045.64 283.137,-1056.66 280.373,-1055.42 264.436,-1048.54 253.721,-1044.31 256.326,-917.19 259.937,-880.831 264.147,-880.831 270.71,-876.971 270.973,-876.684 268.869,-874.166 264.607,-871.781 264.607,-871.781 268.869,-874.166 270.973,-876.684 270.71,-876.971 264.147,-880.831 259.937,-880.831 256.326,-917.19 253.721,-1044.31 252.214,-1043.77 250.186,-1043.07 240.85,-1040.06 236.774,-1038.81 220.074,-1034.02 186.511,-1025 90.3797,-927.636 80.8655,-902.814 60.3326,-892.929 50.6977,-889.161 46.9487,-785.285 48.8821,-748.804 53.4132,-751.393 58.7033,-751.393 64.3548,-747.946 65.3791,-746.721 67.5456,-746.721 68.1162,-745.862 72.4308,-717.734 74.9005,-623.807 183.437,-702.436 187.604,-619.261 187.604,-619.261 183.437,-702.436 74.9005,-623.807 72.4308,-717.734 68.1162,-745.862 67.5456,-746.721 65.3791,-746.721 64.8417,-746.119 58.6035,-742.433 53.574,-742.433 48.0882,-745.501 55.2859,-607.784 33.3108,-587.143 35.44,-585.065 45.4485,-574.475 46.0069,-573.907 46.2799,-573.618 46.0736,-550.273 46.0736,-550.273 46.2799,-573.618 46.0069,-573.907 45.4485,-574.475 35.44,-585.065 33.3108,-587.143 55.2859,-607.784 48.0882,-745.501 53.574,-742.433 58.6035,-742.433 64.8417,-746.119 65.3791,-746.721 64.3548,-747.946 58.7033,-751.393 53.4132,-751.393 48.8821,-748.804 46.9487,-785.285 50.6977,-889.161 50.6977,-889.161"/>
<polygon fill="#ccebc5" stroke="#ccebc5" points="814.529,-1103.19 812.709,-1106.03 807.802,-1109.4 794.345,-1107.3 680.904,-1122.65 688.395,-1152.13 713.709,-1199.67 708.109,-1242.89 702.681,-1277.8 702.065,-1280.79 724.685,-1374.32 759.936,-1406.23 777.828,-1465.49 864.056,-1526.18 905.621,-1522.85 908.818,-1463.95 908.818,-1463.95 905.621,-1522.85 921.988,-1522.23 922.018,-1425.48 922.018,-1425.48 921.988,-1522.23 938.99,-1522.29 938.733,-1507.45 941.012,-1432.79 944.983,-1398.25 949.458,-1399.46 953.949,-1398.26 953.949,-1398.26 949.458,-1399.46 944.983,-1398.25 941.012,-1432.79 938.733,-1507.45 938.99,-1522.29 946.651,-1522.96 959.607,-1524.38 963.506,-1524.96 978.522,-1527.54 981.532,-1528.25 984.371,-1458.74 984.371,-1458.74 981.532,-1528.25 1009.12,-1535.87 1022.97,-1544.59 1072.11,-1561.05 1077.06,-1562.81 1088.98,-1567.51 1089.82,-1537.3 1091.79,-1497.21 1095.45,-1451.72 1102.2,-1407.42 1102.33,-1407.28 1099.77,-1404.22 1096.52,-1402.46 1091.59,-1371.24 1088.98,-1328.43 1108.49,-1340.84 1114.42,-1343.57 1158.73,-1361.5 1167.88,-1366.26 1168.11,-1302.33 1173.31,-1303.75 1177.58,-1302.6 1177.58,-1302.6 1173.31,-1303.75 1168.11,-1302.33 1167.88,-1366.26 1158.73,-1361.5 1114.42,-1343.57 1108.49,-1340.84 1088.98,-1328.43 1091.59,-1371.24 1096.52,-1402.46 1099.77,-1404.22 1102.33,-1407.28 1102.2,-1407.42 1095.45,-1451.72 1091.79,-1497.21 1089.82,-1537.3 1088.98,-1567.51 1101.69,-1573.55 1112.11,-1575.37 1119.32,-1576.75 1114.95,-1450.85 1114.95,-1450.85 1119.32,-1576.75 1151.21,-1583.93 1163.73,-1576.12 1256.91,-1563.18 1257.8,-1461.27 1257.8,-1461.27 1256.91,-1563.18 1265.22,-1562.36 1271.6,-1561.85 1272.66,-1473.07 1272.66,-1473.07 1271.6,-1561.85 1273.45,-1561.78 1277.91,-1561.7 1298.73,-1557.3 1296.14,-1518.08 1291.33,-1468.24 1290.62,-1431.26 1295.7,-1429.77 1299.61,-1426.31 1295.99,-1423.31 1295.99,-1423.31 1299.61,-1426.31 1295.7,-1429.77 1290.62,-1431.26 1291.33,-1468.24 1296.14,-1518.08 1298.73,-1557.3 1298.78,-1557.3 1316.42,-1555.81 1317.98,-1458.93 1321.53,-1430.42 1319.03,-1426.55 1319.12,-1426.47 1321.23,-1423.23 1325.68,-1420.29 1330.7,-1348.45 1324.45,-1348.15 1327.69,-1273.36 1331.83,-1270.12 1331.6,-1269.79 1327.74,-1266.59 1327.74,-1266.59 1331.6,-1269.79 1331.83,-1270.12 1327.69,-1273.36 1324.45,-1348.15 1330.7,-1348.45 1334.19,-1348.48 1332.14,-1270.21 1336.14,-1270.21 1340.67,-1303.22 1342.82,-1269.92 1346.91,-1269.92 1349.55,-1349.71 1353.19,-1350.27 1353.86,-1316.28 1353.86,-1316.28 1353.19,-1350.27 1349.55,-1349.71 1346.91,-1269.92 1342.82,-1269.92 1340.67,-1303.22 1336.14,-1270.21 1332.14,-1270.21 1334.19,-1348.48 1330.7,-1348.45 1325.68,-1420.29 1321.23,-1423.23 1319.12,-1426.47 1319.03,-1426.55 1321.53,-1430.42 1317.98,-1458.93 1316.42,-1555.81 1338.73,-1554.86 1400.06,-1553.56 1429.78,-1525.96 1470.48,-1426.6 1490.29,-1385.81 1568.11,-1359.3 1576.79,-1352.2 1577.86,-1350.08 1596.6,-1270.72 1591.81,-1233.72 1587.14,-1177.51 1457.74,-1209.37 1454.21,-1160.37 1451.83,-1214.31 1451.58,-1214.53 1447.93,-1214.53 1446.06,-1212.3 1441.61,-1209.83 1437.04,-1209.83 1437.04,-1209.83 1441.61,-1209.83 1446.06,-1212.3 1447.93,-1214.53 1451.58,-1214.53 1451.83,-1214.31 1454.21,-1160.37 1457.74,-1209.37 1587.14,-1177.51 1586.43,-1165.67 1479.96,-1144.2 1474.8,-1143.6 1471.52,-1072.52 1472.97,-1070.76 1472.58,-1070.31 1472.58,-1070.31 1472.97,-1070.76 1471.52,-1072.52 1474.8,-1143.6 1479.96,-1144.2 1586.43,-1165.67 1607.9,-1120.78 1611.47,-1111.11 1636.81,-1047.33 1506.4,-1065.15 1482.53,-1064.86 1477.48,-1069.11 1476.52,-1070.76 1476.72,-1070.94 1476.72,-1070.94 1476.52,-1070.76 1477.48,-1069.11 1475.3,-974.246 1469.8,-980.427 1469.1,-981.107 1385.76,-988.274 1381.13,-992.87 1416.12,-998.183 1385.93,-1000.17 1380.18,-995.038 1380.53,-993.122 1379.82,-992.259 1374.87,-989.36 1369.16,-989.36 1363.94,-992.435 1363.93,-992.435 1363.54,-994.546 1360.42,-995.919 1357.92,-999.111 1304.22,-1013.69 1287.56,-1107.74 1265.93,-1091.13 1249.72,-1079.33 1235.76,-1070.36 1232.34,-1068.32 1173.59,-1035.77 1157.26,-1041.61 1156.68,-1063.83 1156.81,-1068.97 1160.54,-1114.62 1160.54,-1114.62 1156.81,-1068.97 1156.68,-1063.83 1157.26,-1041.61 1173.59,-1035.77 1232.34,-1068.32 1235.76,-1070.36 1249.72,-1079.33 1265.93,-1091.13 1287.56,-1107.74 1304.22,-1013.69 1357.92,-999.111 1360.42,-995.919 1363.54,-994.546 1363.93,-992.435 1363.94,-992.435 1369.16,-989.36 1374.87,-989.36 1379.82,-992.259 1380.53,-993.122 1380.18,-995.038 1385.93,-1000.17 1416.12,-998.183 1381.13,-992.87 1385.76,-988.274 1469.1,-981.107 1469.8,-980.427 1475.3,-974.246 1477.48,-1069.11 1482.53,-1064.86 1506.4,-1065.15 1636.81,-1047.33 1639.06,-1042.26 1638.65,-1038.94 1607.79,-995.973 1505.92,-936.635 1458.37,-856.292 1442.22,-836.56 1441.44,-825.919 1440.89,-809.823 1434.56,-804.393 1410.94,-785.423 1396.53,-775.533 1387.08,-769.33 1310.52,-723.613 1282.29,-729.79 1274.79,-731.224 1274.32,-787.238 1271.11,-829.522 1275.36,-833.174 1275.39,-833.393 1271.52,-836.619 1271.41,-905.635 1267.66,-905.361 1257.28,-905.015 1257.16,-905.015 1255.52,-905.091 1257.17,-971.092 1252.95,-975.016 1253.38,-976.964 1252.77,-979.727 1251.88,-980.49 1251.88,-980.49 1252.77,-979.727 1253.38,-976.964 1252.95,-975.016 1257.17,-971.092 1255.52,-905.091 1257.16,-905.015 1257.28,-905.015 1267.66,-905.361 1271.41,-905.635 1271.52,-836.619 1266.42,-838.037 1261.84,-836.776 1258.01,-833.49 1256.41,-835.997 1251.37,-839.477 1238.91,-837.421 1183.66,-844.97 1171.27,-891.396 1132.87,-888.493 1119.32,-887.907 1114.91,-887.859 1112.8,-938.704 1112.8,-938.704 1114.91,-887.859 1119.32,-887.907 1132.87,-888.493 1171.27,-891.396 1183.66,-844.97 1238.91,-837.421 1251.37,-839.477 1256.41,-835.997 1258.01,-833.49 1261.84,-836.776 1266.42,-838.037 1271.52,-836.619 1275.39,-833.393 1275.36,-833.174 1271.11,-829.522 1266.81,-828.339 1266.81,-828.339 1271.11,-829.522 1274.32,-787.238 1274.79,-731.224 1265.03,-732.549 1252.86,-733.526 1250.82,-733.633 1246.14,-733.749 1239.53,-734.101 1227.63,-735.073 1221.71,-735.725 1219.58,-736.02 1215.12,-736.763 1212.33,-737.306 1207.25,-738.588 1204.48,-737.193 1189.59,-730.185 1135.22,-706.534 1118.55,-698.688 1110.37,-694.566 1110.54,-729.732 1109.7,-752.964 1105.31,-796.577 1101.71,-798.519 1099.33,-801.294 1101.19,-803.326 1105.22,-805.458 1110.91,-805.458 1110.91,-805.458 1105.22,-805.458 1101.19,-803.326 1099.33,-801.294 1101.71,-798.519 1095.69,-757.798 1095.71,-797.739 1098.08,-801.294 1097.83,-801.468 1095.72,-804.45 1095.57,-887.532 1087.79,-887.709 1086.21,-887.796 1085.89,-887.803 1085.89,-887.803 1086.21,-887.796 1087.79,-887.709 1095.57,-887.532 1095.72,-804.45 1097.83,-801.468 1098.08,-801.294 1095.71,-797.739 1095.69,-757.798 1101.71,-798.519 1105.31,-796.577 1109.7,-752.964 1110.54,-729.732 1110.37,-694.566 1093.19,-684.157 1064.19,-663.685 1042.12,-648.863 1040.32,-649.135 1035.14,-650.003 1025.96,-651.7 1019.19,-653.061 982.77,-662.224 979.575,-668.81 947.451,-745.481 944.243,-747.568 916.366,-804.211 898.309,-844.059 893.947,-854.802 885.33,-878.856 899.684,-898.481 958.227,-896.351 961.065,-868.254 961.105,-763.28 962.169,-764.558 969.096,-900.431 973.716,-897.876 978.419,-897.876 980.986,-878.174 985.803,-901.93 987.547,-901.93 989.783,-905.692 994.315,-908.779 994.315,-908.779 989.783,-905.692 987.547,-901.93 985.803,-901.93 980.986,-878.174 978.419,-897.876 973.716,-897.876 969.096,-900.431 967.164,-902.629 968.919,-904.542 973.189,-906.836 973.189,-906.836 968.919,-904.542 967.164,-902.629 969.096,-900.431 962.169,-764.558 961.105,-763.28 961.065,-868.254 958.227,-896.351 899.684,-898.481 885.33,-878.856 871.433,-886.288 875.239,-954.229 923.487,-944.179 905.878,-909.028 905.878,-909.028 923.487,-944.179 875.239,-954.229 871.433,-886.288 869.354,-887.286 868.365,-887.709 859.441,-891.067 852.332,-893.367 844.383,-895.518 843.083,-895.8 816.854,-900.11 804.97,-903.177 799.237,-905.189 797.482,-905.886 786.995,-910.555 785.37,-911.353 773.732,-918.189 761.004,-926.876 757.775,-929.227 753.173,-932.789 750.663,-934.847 746.302,-938.629 740.72,-943.735 737.905,-946.441 725.757,-958.709 724.95,-959.56 723.027,-961.292 720.883,-963.308 710.789,-973.622 694.561,-991.535 690.882,-995.736 689.086,-996.506 682.155,-999.747 666.961,-1008.07 655.146,-1014.78 652.355,-1016.47 649.348,-1022.48 661.182,-1058.36 680.904,-1122.65 794.345,-1107.3 807.802,-1109.4 812.709,-1106.03 814.529,-1103.19 817.234,-1103.19 817.62,-1103.64 823.987,-1107.54 829.624,-1107.54 823.903,-1184.49 828.942,-1184.68 837.147,-1184.71 839.686,-1184.54 841.9,-1184.55 847.52,-1184.4 849.715,-1184.42 855.801,-1184.27 856.814,-1184.2 865.721,-1183.35 870.672,-1182.7 872.755,-1180.1 911.958,-1180.1 946.895,-1186.43 952.127,-1182.96 953.762,-1180.56 954.254,-1180.22 957.242,-1180.22 957.901,-1180.4 961.579,-1180.4 962.292,-1180.21 964.918,-1180.21 969.243,-1201.81 972.756,-1182.8 976.35,-1184.69 981.176,-1184.69 986.382,-1181.8 987.93,-1180.08 985.757,-1177.68 981.357,-1175.37 977.199,-1175.37 977.199,-1175.37 981.357,-1175.37 985.757,-1177.68 987.93,-1180.08 990.935,-1180.08 992.289,-1180.46 995.326,-1180.46 996.229,-1180.21 996.229,-1180.21 995.326,-1180.46 992.289,-1180.46 990.935,-1180.08 987.93,-1180.08 986.382,-1181.8 981.176,-1184.69 976.35,-1184.69 972.756,-1182.8 969.243,-1201.81 964.918,-1180.21 962.292,-1180.21 961.579,-1180.4 957.901,-1180.4 957.242,-1180.22 954.254,-1180.22 953.762,-1180.56 952.127,-1182.96 946.895,-1186.43 911.958,-1180.1 872.755,-1180.1 870.672,-1182.7 870.92,-1182.98 876.645,-1189.08 876.645,-1189.08 870.92,-1182.98 870.672,-1182.7 865.721,-1183.35 864.715,-1260.96 859.872,-1262.31 855.883,-1265.71 859.548,-1268.97 859.548,-1268.97 855.883,-1265.71 859.872,-1262.31 864.715,-1260.96 865.721,-1183.35 856.814,-1184.2 855.801,-1184.27 849.715,-1184.42 847.52,-1184.4 841.9,-1184.55 839.686,-1184.54 837.147,-1184.71 836.891,-1221.91 836.891,-1221.91 837.147,-1184.71 828.942,-1184.68 823.903,-1184.49 829.624,-1107.54 823.987,-1107.54 817.62,-1103.64 817.234,-1103.19 814.529,-1103.19 814.529,-1103.19"/>
<polygon fill="#fed9a6" stroke="#fed9a6" points="1015.89,-317.318 1012.43,-317.318 1010.69,-317.819 1006.75,-317.819 1005.34,-318.219 1004.23,-318.219 1001.95,-319.7 998.877,-320.485 996.587,-322.938 887.672,-351.52 861.568,-324.433 862.129,-318.387 864.513,-297.917 866.307,-272.09 874.597,-200.161 861.232,-168.172 872.116,-146.08 915.222,-44.3198 917.902,-38.5452 937.299,-20.7336 1033.71,6.34698 1034.6,6.63133 1047.12,10.8735 1076.02,61.5383 1200.6,133.101 1205.21,135.976 1215.25,142.751 1218.64,19.0395 1216.5,-13.6074 1212.33,-15.9815 1210.42,-18.3022 1211.61,-19.6437 1216.87,-22.6265 1221.4,-22.6265 1221.4,-22.6265 1216.87,-22.6265 1211.61,-19.6437 1210.42,-18.3022 1212.33,-15.9815 1216.5,-13.6074 1218.64,19.0395 1215.25,142.751 1233.35,155.901 1237.41,159.155 1250.59,160.064 1253.14,159.164 1309.94,140.15 1337.28,120.569 1372.6,113.331 1385.22,110.981 1410.91,108.108 1405.57,-2.23238 1405.57,-2.23238 1410.91,108.108 1425.83,107 1520.43,40.2207 1506.53,15.0685 1510.55,-73.035 1510.55,-73.035 1506.53,15.0685 1520.43,40.2207 1525.81,39.4635 1543.56,38.288 1556.74,38.1532 1564.44,38.218 1581.81,39.6612 1577.65,-100.199 1575.74,-102.944 1574.7,-102.944 1574.27,-102.825 1567.62,-102.825 1566.63,-103.104 1564.43,-103.104 1563.08,-102.727 1557.59,-102.727 1557.19,-102.839 1555.14,-102.839 1553.08,-100.687 1548.66,-98.3957 1543.87,-98.3957 1543.87,-98.3957 1548.66,-98.3957 1553.08,-100.687 1555.14,-102.839 1554.06,-104.008 1547.81,-107.592 1543.8,-107.592 1543.8,-107.592 1547.81,-107.592 1554.06,-104.008 1555.14,-102.839 1557.19,-102.839 1557.59,-102.727 1563.08,-102.727 1564.43,-103.104 1566.63,-103.104 1567.62,-102.825 1574.27,-102.825 1574.7,-102.944 1575.74,-102.944 1577.65,-100.199 1581.81,39.6612 1593.44,40.8437 1622.9,44.3845 1666.74,17.2358 1711.81,-102.99 1726.46,-134.976 1782.07,-163.513 1790.49,-171.628 1807.51,-275.89 1778.44,-275.89 1682.47,-278.566 1667.98,-282.488 1662.61,-279.226 1660.62,-276.316 1660.68,-275.954 1656.76,-272.345 1651.85,-270.889 1648.74,-234.303 1648.79,-176.269 1634.57,-181.601 1584.44,-196.74 1583.81,-196.95 1572.68,-201.031 1574.83,-265.902 1515.08,-274.118 1511.39,-277.82 1510.12,-278.282 1508.03,-279.996 1504.72,-279.996 1504.25,-279.86 1503.16,-279.86 1499.85,-276.941 1493.53,-274.943 1493.53,-274.943 1499.85,-276.941 1503.16,-279.86 1504.25,-279.86 1504.72,-279.996 1508.03,-279.996 1508.67,-280.958 1508.67,-280.958 1508.03,-279.996 1510.12,-278.282 1511.39,-277.82 1515.08,-274.118 1574.83,-265.902 1572.68,-201.031 1583.81,-196.95 1584.44,-196.74 1634.57,-181.601 1648.79,-176.269 1648.74,-234.303 1651.85,-270.889 1656.76,-272.345 1660.68,-275.954 1660.62,-276.316 1662.61,-279.226 1667.98,-282.488 1682.47,-278.566 1778.44,-275.89 1807.51,-275.89 1808.88,-281.779 1800.77,-312.42 1784.95,-340.842 1748.67,-392.614 1762.96,-477.63 1769.56,-504.645 1768.04,-518.835 1757.79,-554.649 1752.47,-562.966 1686.41,-603.851 1648.53,-616.296 1637.04,-483.774 1637.04,-483.774 1648.53,-616.296 1647.8,-616.551 1623.04,-623.175 1622.98,-609.41 1620.67,-573.322 1617.34,-479.617 1612.24,-482.39 1608.12,-482.39 1603.63,-479.961 1603.63,-479.961 1608.12,-482.39 1612.24,-482.39 1617.34,-479.617 1620.67,-573.322 1622.98,-609.41 1623.04,-623.175 1596.81,-632.799 1591.3,-635.251 1587.86,-479.238 1587.24,-479.447 1583.2,-483.221 1578.56,-633.858 1552.56,-607.621 1552.56,-607.621 1578.56,-633.858 1583.2,-483.221 1587.24,-479.447 1587.86,-479.238 1591.3,-635.251 1583.51,-638.879 1580.12,-635.482 1428.84,-637.656 1428.64,-568.82 1439.72,-569.063 1454.26,-570.531 1456.37,-570.91 1456.37,-570.91 1454.26,-570.531 1439.72,-569.063 1439.47,-518.223 1442.84,-497.556 1446.37,-498.518 1452.81,-496.541 1456.31,-493.45 1452.91,-490.572 1452.91,-490.572 1456.31,-493.45 1452.81,-496.541 1446.37,-498.518 1442.84,-497.556 1439.47,-518.223 1439.72,-569.063 1428.64,-568.82 1428.84,-637.656 1580.12,-635.482 1583.51,-638.879 1580.42,-647.691 1572.73,-672.801 1440.89,-809.823 1434.56,-804.393 1427.7,-677.971 1427.7,-677.971 1434.56,-804.393 1410.94,-785.423 1411.19,-711.668 1410.36,-690.326 1414.41,-646.574 1418.24,-643.353 1418.19,-643.278 1414.52,-640.379 1414.52,-640.379 1418.19,-643.278 1418.24,-643.353 1414.41,-646.574 1410.36,-690.326 1411.19,-711.668 1410.94,-785.423 1396.53,-775.533 1387.08,-769.33 1387.6,-755.54 1387.6,-755.54 1387.08,-769.33 1310.52,-723.613 1282.29,-729.79 1274.79,-731.224 1265.03,-732.549 1252.86,-733.526 1250.82,-733.633 1246.14,-733.749 1239.53,-734.101 1227.63,-735.073 1221.71,-735.725 1219.58,-736.02 1221.45,-638.714 1226.91,-635.57 1228.04,-634.297 1226.97,-633.103 1226.97,-633.103 1228.04,-634.297 1226.91,-635.57 1221.45,-638.714 1216.28,-638.714 1211.2,-635.727 1209.94,-634.24 1209.94,-634.24 1211.2,-635.727 1216.28,-638.714 1221.45,-638.714 1219.58,-736.02 1215.12,-736.763 1212.33,-737.306 1207.25,-738.588 1204.48,-737.193 1200.5,-635.248 1200.95,-634.427 1200.59,-634.082 1200.33,-633.59 1195.87,-629.011 1192.49,-553.986 1197.59,-553.72 1199.34,-553.691 1200.46,-507.054 1204.12,-478.162 1208.43,-476.983 1212.95,-473.166 1212.73,-472.836 1209.7,-470.388 1203.67,-468.61 1203.67,-468.61 1209.7,-470.388 1212.73,-472.836 1212.95,-473.166 1208.43,-476.983 1204.12,-478.162 1200.46,-507.054 1199.34,-553.691 1197.59,-553.72 1192.49,-553.986 1195.87,-629.011 1200.33,-633.59 1200.59,-634.082 1200.95,-634.427 1200.5,-635.248 1204.48,-737.193 1189.59,-730.185 1135.22,-706.534 1118.55,-698.688 1110.37,-694.566 1093.19,-684.157 1064.19,-663.685 1042.12,-648.863 1040.32,-649.135 1035.14,-650.003 1025.96,-651.7 1031.75,-491.276 1036.47,-493.756 1041.4,-493.756 1045.03,-491.869 1049.32,-512.389 1052.42,-592.97 1052.96,-637.255 1068.69,-621.499 1084.92,-605.884 1121.16,-569.004 1148.35,-560.8 1156,-558.76 1164.49,-556.802 1178.33,-554.595 1178.19,-517.319 1176.97,-501.341 1176.97,-501.341 1178.19,-517.319 1178.33,-554.595 1164.49,-556.802 1156,-558.76 1148.35,-560.8 1121.16,-569.004 1084.92,-605.884 1068.69,-621.499 1052.96,-637.255 1052.42,-592.97 1049.32,-512.389 1045.03,-491.869 1041.4,-493.756 1036.47,-493.756 1031.75,-491.276 1025.96,-651.7 1019.19,-653.061 982.77,-662.224 918.535,-583.373 932.923,-490.326 933.235,-486.424 933.828,-472.616 934.852,-459.856 942.322,-411.548 887.672,-351.52 996.587,-322.938 998.877,-320.485 1001.95,-319.7 1004.23,-318.219 1005.34,-318.219 1006.75,-317.819 1010.69,-317.819 1013.92,-360.256 1016.9,-317.599 1020.45,-317.599 1021.83,-317.987 1022.01,-317.987 1025.55,-320.869 1025.55,-320.869 1022.01,-317.987 1025.97,-314.635 1025.97,-314.635 1022.01,-317.987 1021.83,-317.987 1020.45,-317.599 1016.9,-317.599 1013.92,-360.256 1010.69,-317.819 1012.43,-317.318 1015.89,-317.318 1019.67,-231.526 1026,-231.976 1029.45,-231.888 1032.28,-152.337 1037.36,-148.736 1039.05,-146.181 1042.23,-146.181 1042.78,-146.03 1042.92,-146.03 1046.6,-149.057 1046.6,-149.057 1042.92,-146.03 1046.24,-143.329 1053.01,-141.303 1057.57,-142.559 1054.59,2.39333 1069.97,-13.6717 1074.66,-18 1153.44,-18 1175.35,-19.6263 1195.92,-24.4246 1201.49,-20.8013 1203.3,-18.1106 1205.91,-18.1106 1206.56,-18.3022 1205.01,-102.567 1203.62,-102.646 1203.01,-102.661 1202.62,-150.291 1202.62,-150.291 1203.01,-102.661 1203.62,-102.646 1210.52,-184.775 1208.47,-187.094 1209.54,-188.289 1209.54,-188.289 1208.47,-187.094 1210.52,-184.775 1203.62,-102.646 1205.01,-102.567 1206.56,-18.3022 1205.91,-18.1106 1203.3,-18.1106 1201.49,-20.8013 1195.92,-24.4246 1175.35,-19.6263 1153.44,-18 1195.8,-11.7104 1195.8,-11.7104 1153.44,-18 1074.66,-18 1069.97,-13.6717 1054.59,2.39333 1057.57,-142.559 1053.01,-141.303 1046.24,-143.329 1042.92,-146.03 1042.78,-146.03 1042.23,-146.181 1039.05,-146.181 1037.36,-148.736 1032.28,-152.337 1029.45,-231.888 1026,-231.976 1019.67,-231.526 1015.89,-317.318 1015.89,-317.318"/>
<polyline fill="none" stroke="#000000" points="313.804,-1063.79 352.437,-1075.64 440.2,-1062.45 446.864,-1061.59 458.997,-1060.27 473.434,-1059.31 473.651,-1059.3 487.533,-1059.26 489.688,-1059.34 497.442,-1059.8 517.014,-1061.38 649.348,-1022.48 652.355,-1016.47 655.146,-1014.78 666.961,-1008.07 682.155,-999.747 689.086,-996.506 690.882,-995.736 694.561,-991.535 710.789,-973.622 720.883,-963.308 723.027,-961.292 724.95,-959.56 725.757,-958.709 737.905,-946.441 740.72,-943.735 746.302,-938.629 750.663,-934.847 753.173,-932.789 757.775,-929.227 761.004,-926.876 773.732,-918.189 785.37,-911.353 786.995,-910.555 797.482,-905.886 799.237,-905.189 804.97,-903.177 816.854,-900.11 843.083,-895.8 844.383,-895.518 852.332,-893.367 859.441,-891.067 868.365,-887.709 869.354,-887.286 871.433,-886.288 885.33,-878.856 893.947,-854.802 898.309,-844.059 916.366,-804.211 944.243,-747.568 947.451,-745.481 979.575,-668.81 982.77,-662.224 918.535,-583.373 932.923,-490.326 933.235,-486.424 933.828,-472.616 934.852,-459.856 942.322,-411.548 887.672,-351.52 861.568,-324.433 862.129,-318.387 864.513,-297.917 866.307,-272.09 874.597,-200.161 861.232,-168.172 730.87,-149.859 718.67,-147.624 717.325,-147.32 709.624,-149.271 696.124,-152.393 650.235,-159.972 569.241,-126.605 553.586,-119.78 539.8,-113.126 537.454,-111.83 529.395,-82.0775 516.201,-28.448 448.739,27.5425 405.165,34.5409 399.921,35.4892 392.853,36.3903 383.597,37.9375 375.878,34.6605 363.009,30.0726 362.113,29.7736 351.029,26.3243 296.229,10.5246 243.335,-21.3804 220.944,-58.8437 218.751,-62.3307 205.41,-93.8007 203.664,-94.6291 202.956,-94.9356 191.676,-99.3748 168.767,-107.023 163.746,-108.394 93.5727,-126.141 74.1701,-142.751 36.8072,-184.45 26.3004,-208.592 24.53,-217.623 19.8503,-238.966 12.1499,-270.778 -128.051,-347.738 -128.64,-348.255 -134.655,-359.702 -125.287,-394.303 -115.295,-434.568 -111.97,-449.407 -101.768,-500.512 -18.9086,-589.713 -97.9997,-724.06 -103.632,-732.707 -100.748,-776.68 -94.7425,-791.93 -74.0577,-848.258 26.7756,-880.869 50.6977,-889.161 60.3326,-892.929 80.8655,-902.814 90.3797,-927.636 186.511,-1025 220.074,-1034.02 236.774,-1038.81 240.85,-1040.06 250.186,-1043.07 252.214,-1043.77 253.721,-1044.31 264.436,-1048.54 280.373,-1055.42 283.137,-1056.66 301.273,-1065.79 303.698,-1065.37 313.804,-1063.79 "/>
<polyline fill="none" stroke="#000000" points="1009.12,-1535.87 1022.97,-1544.59 1072.11,-1561.05 1077.06,-1562.81 1088.98,-1567.51 1101.69,-1573.55 1112.11,-1575.37 1119.32,-1576.75 1151.21,-1583.93 1163.73,-1576.12 1256.91,-1563.18 1265.22,-1562.36 1271.6,-1561.85 1273.45,-1561.78 1277.91,-1561.7 1298.73,-1557.3 1298.78,-1557.3 1316.42,-1555.81 1338.73,-1554.86 1400.06,-1553.56 1429.78,-1525.96 1470.48,-1426.6 1490.29,-1385.81 1568.11,-1359.3 1576.79,-1352.2 1577.86,-1350.08 1596.6,-1270.72 1591.81,-1233.72 1587.14,-1177.51 1586.43,-1165.67 1607.9,-1120.78 1611.47,-1111.11 1636.81,-1047.33 1639.06,-1042.26 1638.65,-1038.94 1607.79,-995.973 1505.92,-936.635 1458.37,-856.292 1442.22,-836.56 1441.44,-825.919 1440.89,-809.823 1434.56,-804.393 1410.94,-785.423 1396.53,-775.533 1387.08,-769.33 1310.52,-723.613 1282.29,-729.79 1274.79,-731.224 1265.03,-732.549 1252.86,-733.526 1250.82,-733.633 1246.14,-733.749 1239.53,-734.101 1227.63,-735.073 1221.71,-735.725 1219.58,-736.02 1215.12,-736.763 1212.33,-737.306 1207.25,-738.588 1204.48,-737.193 1189.59,-730.185 1135.22,-706.534 1118.55,-698.688 1110.37,-694.566 1093.19,-684.157 1064.19,-663.685 1042.12,-648.863 1040.32,-649.135 1035.14,-650.003 1025.96,-651.7 1019.19,-653.061 982.77,-662.224 979.575,-668.81 947.451,-745.481 944.243,-747.568 916.366,-804.211 898.309,-844.059 893.947,-854.802 885.33,-878.856 871.433,-886.288 869.354,-887.286 868.365,-887.709 859.441,-891.067 852.332,-893.367 844.383,-895.518 843.083,-895.8 816.854,-900.11 804.97,-903.177 799.237,-905.189 797.482,-905.886 786.995,-910.555 785.37,-911.353 773.732,-918.189 761.004,-926.876 757.775,-929.227 753.173,-932.789 750.663,-934.847 746.302,-938.629 740.72,-943.735 737.905,-946.441 725.757,-958.709 724.95,-959.56 723.027,-961.292 720.883,-963.308 710.789,-973.622 694.561,-991.535 690.882,-995.736 689.086,-996.506 682.155,-999.747 666.961,-1008.07 655.146,-1014.78 652.355,-1016.47 649.348,-1022.48 661.182,-1058.36 680.904,-1122.65 688.395,-1152.13 713.709,-1199.67 708.109,-1242.89 702.681,-1277.8 702.065,-1280.79 724.685,-1374.32 759.936,-1406.23 777.828,-1465.49 864.056,-1526.18 905.621,-1522.85 921.988,-1522.23 938.99,-1522.29 946.651,-1522.96 959.607,-1524.38 963.506,-1524.96 978.522,-1527.54 981.532,-1528.25 1009.12,-1535.87 "/>
<polyline fill="none" stroke="#000000" points="1387.08,-769.33 1310.52,-723.613 1282.29,-729.79 1274.79,-731.224 1265.03,-732.549 1252.86,-733.526 1250.82,-733.633 1246.14,-733.749 1239.53,-734.101 1227.63,-735.073 1221.71,-735.725 1219.58,-736.02 1215.12,-736.763 1212.33,-737.306 1207.25,-738.588 1204.48,-737.193 1189.59,-730.185 1135.22,-706.534 1118.55,-698.688 1110.37,-694.566 1093.19,-684.157 1064.19,-663.685 1042.12,-648.863 1040.32,-649.135 1035.14,-650.003 1025.96,-651.7 1019.19,-653.061 982.77,-662.224 918.535,-583.373 932.923,-490.326 933.235,-486.424 933.828,-472.616 934.852,-459.856 942.322,-411.548 887.672,-351.52 861.568,-324.433 862.129,-318.387 864.513,-297.917 866.307,-272.09 874.597,-200.161 861.232,-168.172 872.116,-146.08 915.222,-44.3198 917.902,-38.5452 937.299,-20.7336 1033.71,6.34698 1034.6,6.63133 1047.12,10.8735 1076.02,61.5383 1200.6,133.101 1205.21,135.976 1215.25,142.751 1233.35,155.901 1237.41,159.155 1250.59,160.064 1253.14,159.164 1309.94,140.15 1337.28,120.569 1372.6,113.331 1385.22,110.981 1410.91,108.108 1425.83,107 1520.43,40.2207 1525.81,39.4635 1543.56,38.288 1556.74,38.1532 1564.44,38.218 1581.81,39.6612 1593.44,40.8437 1622.9,44.3845 1666.74,17.2358 1711.81,-102.99 1726.46,-134.976 1782.07,-163.513 1790.49,-171.628 1807.51,-275.89 1808.88,-281.779 1800.77,-312.42 1784.95,-340.842 1748.67,-392.614 1762.96,-477.63 1769.56,-504.645 1768.04,-518.835 1757.79,-554.649 1752.47,-562.966 1686.41,-603.851 1648.53,-616.296 1647.8,-616.551 1623.04,-623.175 1596.81,-632.799 1591.3,-635.251 1583.51,-638.879 1580.42,-647.691 1572.73,-672.801 1440.89,-809.823 1434.56,-804.393 1410.94,-785.423 1396.53,-775.533 1387.08,-769.33 "/>
<!-- norm&#45;&gt;cut copy -->
<g id="edge1" class="edge"><title>norm&#45;&gt;cut copy</title>
<path fill="none" stroke="#555555" stroke-opacity="0.133333" d="M398.05,-557.28C326.72,-596.88 163.29,-687.61 91.367,-727.54"/>
<polygon fill="#555555" fill-opacity="0.133333" stroke="#555555" stroke-opacity="0.133333" points="89.2951,-724.687 82.25,-732.6 92.6921,-730.807 89.2951,-724.687"/>
</g>
<!-- norm&#45;&gt;karl bartos -->
<g id="edge2" class="edge"><title>norm&#45;&gt;karl bartos</title>
<path fill="none" stroke="#555555" stroke-opacity="0.133333" d="M385.27,-547.29C349.43,-554.2 300.08,-563.71 262.68,-570.92"/>
<polygon fill="#555555" fill-opacity="0.133333" stroke="#555555" stroke-opacity="0.133333" points="261.626,-567.559 252.47,-572.89 262.952,-574.432 261.626,-567.559"/>
</g>
<!-- norm&#45;&gt;kalashnikov -->
<g id="edge3" class="edge"><title>norm&#45;&gt;kalashnikov</title>
<path fill="none" stroke="#555555" stroke-opacity="0.133333" d="M435.03,-564.34C442.07,-635.08 461.47,-829.88 468.79,-903.38"/>
<polygon fill="#555555" fill-opacity="0.133333" stroke="#555555" stroke-opacity="0.133333" points="465.344,-904.097 469.82,-913.7 472.309,-903.402 465.344,-904.097"/>
</g>
<!-- norm&#45;&gt;matsumoto zoku -->
<g id="edge4" class="edge"><title>norm&#45;&gt;matsumoto zoku</title>
<path fill="none" stroke="#555555" stroke-opacity="0.133333" d="M419.62,-563.61C388.26,-625.83 307.84,-785.4 275.66,-849.26"/>
<polygon fill="#555555" fill-opacity="0.133333" stroke="#555555" stroke-opacity="0.133333" points="272.474,-847.805 271.1,-858.31 278.725,-850.955 272.474,-847.805"/>
</g>
<!-- norm&#45;&gt;the dad horse expirience -->
<g id="edge5" class="edge"><title>norm&#45;&gt;the dad horse expirience</title>
<path fill="none" stroke="#555555" stroke-opacity="0.133333" d="M439.86,-512.1C454.89,-459.28 488.81,-340.14 504.24,-285.92"/>
<polygon fill="#555555" fill-opacity="0.133333" stroke="#555555" stroke-opacity="0.133333" points="507.61,-286.867 506.99,-276.29 500.879,-284.945 507.61,-286.867"/>
</g>
<!-- norm&#45;&gt;Clock DVA -->
<g id="edge6" class="edge"><title>norm&#45;&gt;Clock DVA</title>
<path fill="none" stroke="#555555" stroke-opacity="0.133333" d="M411.93,-514.09C366.03,-460.09 255.35,-329.88 208.56,-274.82"/>
<polygon fill="#555555" fill-opacity="0.133333" stroke="#555555" stroke-opacity="0.133333" points="211.017,-272.307 201.87,-266.96 205.686,-276.844 211.017,-272.307"/>
</g>
<!-- norm&#45;&gt;Ben Frost -->
<g id="edge7" class="edge"><title>norm&#45;&gt;Ben Frost</title>
<path fill="none" stroke="#555555" stroke-opacity="0.133333" d="M429.09,-512.07C419.32,-435.55 390.82,-212.33 380.72,-133.21"/>
<polygon fill="#555555" fill-opacity="0.133333" stroke="#555555" stroke-opacity="0.133333" points="384.159,-132.506 379.42,-123.03 377.215,-133.393 384.159,-132.506"/>
</g>
<!-- norm&#45;&gt;Барто -->
<g id="edge8" class="edge"><title>norm&#45;&gt;Барто</title>
<path fill="none" stroke="#555555" stroke-opacity="0.133333" d="M387.86,-525.75C309.66,-503.91 148.94,-459.02 73.966,-438.08"/>
<polygon fill="#555555" fill-opacity="0.133333" stroke="#555555" stroke-opacity="0.133333" points="74.5459,-434.608 63.973,-435.29 72.6634,-441.35 74.5459,-434.608"/>
</g>
<!-- norm&#45;&gt;Звёзды -->
<g id="edge9" class="edge"><title>norm&#45;&gt;Звёзды</title>
<path fill="none" stroke="#555555" stroke-opacity="0.133333" d="M480.06,-529.41C557.99,-515.03 711.71,-486.67 788.32,-472.54"/>
<polygon fill="#555555" fill-opacity="0.133333" stroke="#555555" stroke-opacity="0.133333" points="788.954,-475.982 798.15,-470.72 787.68,-469.099 788.954,-475.982"/>
</g>
<!-- norm&#45;&gt;The Meantraitors -->
<g id="edge10" class="edge"><title>norm&#45;&gt;The Meantraitors</title>
<path fill="none" stroke="#555555" stroke-opacity="0.133333" d="M473.19,-553.56C536.95,-577.6 660.11,-624.03 729.05,-650.02"/>
<polygon fill="#555555" fill-opacity="0.133333" stroke="#555555" stroke-opacity="0.133333" points="728.228,-653.45 738.82,-653.7 730.696,-646.9 728.228,-653.45"/>
</g>
<!-- norm&#45;&gt;Junk riot -->
<g id="edge11" class="edge"><title>norm&#45;&gt;Junk riot</title>
<path fill="none" stroke="#555555" stroke-opacity="0.133333" d="M457.74,-515.53C510.69,-468.13 632.66,-358.92 686.16,-311.02"/>
<polygon fill="#555555" fill-opacity="0.133333" stroke="#555555" stroke-opacity="0.133333" points="688.72,-313.426 693.84,-304.15 684.053,-308.209 688.72,-313.426"/>
</g>
<!-- norm&#45;&gt;Кобыла и трупоглазые жабы искали цезию нашли поздно утром свистящего хна -->
<g id="edge12" class="edge"><title>norm&#45;&gt;Кобыла и трупоглазые жабы искали цезию нашли поздно утром свистящего хна</title>
<path fill="none" stroke="#555555" stroke-opacity="0.133333" d="M451.16,-562.59C493.71,-618.01 597.36,-752.98 641.2,-810.09"/>
<polygon fill="#555555" fill-opacity="0.133333" stroke="#555555" stroke-opacity="0.133333" points="638.598,-812.448 647.47,-818.24 644.146,-808.18 638.598,-812.448"/>
</g>
<!-- other&#45;&gt;butterfly temple -->
<g id="edge13" class="edge"><title>other&#45;&gt;butterfly temple</title>
<path fill="none" stroke="#555555" stroke-opacity="0.133333" d="M1096.3,-1139.8C1076.1,-1146.7 1051.7,-1155.1 1030.3,-1162.4"/>
<polygon fill="#555555" fill-opacity="0.133333" stroke="#555555" stroke-opacity="0.133333" points="1029.1,-1159.11 1020.8,-1165.7 1031.39,-1165.72 1029.1,-1159.11"/>
</g>
<!-- other&#45;&gt;melotron -->
<g id="edge14" class="edge"><title>other&#45;&gt;melotron</title>
<path fill="none" stroke="#555555" stroke-opacity="0.133333" d="M1088.7,-1121.8C1031.7,-1117.7 938.39,-1111 879.82,-1106.8"/>
<polygon fill="#555555" fill-opacity="0.133333" stroke="#555555" stroke-opacity="0.133333" points="879.877,-1103.3 869.66,-1106.1 879.396,-1110.28 879.877,-1103.3"/>
</g>
<!-- other&#45;&gt;and one -->
<g id="edge15" class="edge"><title>other&#45;&gt;and one</title>
<path fill="none" stroke="#555555" stroke-opacity="0.133333" d="M1104.9,-1105.7C1051,-1073.8 945.03,-1011 891.28,-979.1"/>
<polygon fill="#555555" fill-opacity="0.133333" stroke="#555555" stroke-opacity="0.133333" points="892.877,-975.978 882.49,-973.89 889.308,-982 892.877,-975.978"/>
</g>
<!-- other&#45;&gt;teslaboy -->
<g id="edge16" class="edge"><title>other&#45;&gt;teslaboy</title>
<path fill="none" stroke="#555555" stroke-opacity="0.133333" d="M1120.1,-1100.7C1089.2,-1058 1026.2,-971.08 994.88,-927.91"/>
<polygon fill="#555555" fill-opacity="0.133333" stroke="#555555" stroke-opacity="0.133333" points="997.591,-925.686 988.89,-919.64 991.921,-929.792 997.591,-925.686"/>
</g>
<!-- other&#45;&gt;love cult -->
<g id="edge17" class="edge"><title>other&#45;&gt;love cult</title>
<path fill="none" stroke="#555555" stroke-opacity="0.133333" d="M1181.5,-1138.3C1238.2,-1155.1 1336.8,-1184.3 1394.2,-1201.3"/>
<polygon fill="#555555" fill-opacity="0.133333" stroke="#555555" stroke-opacity="0.133333" points="1393.42,-1204.72 1404,-1204.2 1395.4,-1198.01 1393.42,-1204.72"/>
</g>
<!-- other&#45;&gt;смола -->
<g id="edge18" class="edge"><title>other&#45;&gt;смола</title>
<path fill="none" stroke="#555555" stroke-opacity="0.133333" d="M1172.1,-1106.3C1217.2,-1081 1296.1,-1036.6 1340.1,-1011.9"/>
<polygon fill="#555555" fill-opacity="0.133333" stroke="#555555" stroke-opacity="0.133333" points="1341.87,-1014.92 1348.9,-1007 1338.46,-1008.81 1341.87,-1014.92"/>
</g>
<!-- other&#45;&gt;матушка гусыня -->
<g id="edge19" class="edge"><title>other&#45;&gt;матушка гусыня</title>
<path fill="none" stroke="#555555" stroke-opacity="0.133333" d="M1166.1,-1147.3C1200.1,-1174 1257.4,-1218.8 1292.4,-1246.2"/>
<polygon fill="#555555" fill-opacity="0.133333" stroke="#555555" stroke-opacity="0.133333" points="1290.27,-1248.98 1300.3,-1252.4 1294.59,-1243.47 1290.27,-1248.98"/>
</g>
<!-- other&#45;&gt;gnoomes -->
<g id="edge20" class="edge"><title>other&#45;&gt;gnoomes</title>
<path fill="none" stroke="#555555" stroke-opacity="0.133333" d="M1185.4,-1117.5C1246.2,-1107.3 1351.1,-1089.7 1413.3,-1079.3"/>
<polygon fill="#555555" fill-opacity="0.133333" stroke="#555555" stroke-opacity="0.133333" points="1414.03,-1082.73 1423.3,-1077.6 1412.85,-1075.83 1414.03,-1082.73"/>
</g>
<!-- other&#45;&gt;СПБЧ -->
<g id="edge21" class="edge"><title>other&#45;&gt;СПБЧ</title>
<path fill="none" stroke="#555555" stroke-opacity="0.133333" d="M1143.4,-1151.7C1149.9,-1183.9 1160.9,-1238 1167.5,-1270.8"/>
<polygon fill="#555555" fill-opacity="0.133333" stroke="#555555" stroke-opacity="0.133333" points="1164.09,-1271.59 1169.5,-1280.7 1170.95,-1270.2 1164.09,-1271.59"/>
</g>
<!-- other&#45;&gt;Disciplina Medicina -->
<g id="edge22" class="edge"><title>other&#45;&gt;Disciplina Medicina</title>
<path fill="none" stroke="#555555" stroke-opacity="0.133333" d="M1120.6,-1150.2C1085,-1201 1004.1,-1316.4 967.72,-1368.4"/>
<polygon fill="#555555" fill-opacity="0.133333" stroke="#555555" stroke-opacity="0.133333" points="964.768,-1366.51 961.86,-1376.7 970.487,-1370.55 964.768,-1366.51"/>
</g>
<!-- other&#45;&gt;Vice Versa -->
<g id="edge23" class="edge"><title>other&#45;&gt;Vice Versa</title>
<path fill="none" stroke="#555555" stroke-opacity="0.133333" d="M1133.9,-1151.6C1125.4,-1204.6 1106.4,-1323.9 1097.7,-1378.5"/>
<polygon fill="#555555" fill-opacity="0.133333" stroke="#555555" stroke-opacity="0.133333" points="1094.22,-1378.07 1096.1,-1388.5 1101.14,-1379.18 1094.22,-1378.07"/>
</g>
<!-- other&#45;&gt;Polska Radio One -->
<g id="edge24" class="edge"><title>other&#45;&gt;Polska Radio One</title>
<path fill="none" stroke="#555555" stroke-opacity="0.133333" d="M1102.3,-1143.8C1051.7,-1169.8 959.28,-1217.3 905.86,-1244.8"/>
<polygon fill="#555555" fill-opacity="0.133333" stroke="#555555" stroke-opacity="0.133333" points="903.986,-1241.83 896.68,-1249.5 907.176,-1248.06 903.986,-1241.83"/>
</g>
<!-- other&#45;&gt;Jars -->
<g id="edge25" class="edge"><title>other&#45;&gt;Jars</title>
<path fill="none" stroke="#555555" stroke-opacity="0.133333" d="M1155.9,-1100.9C1176,-1073.4 1208.3,-1029.1 1228.4,-1001.6"/>
<polygon fill="#555555" fill-opacity="0.133333" stroke="#555555" stroke-opacity="0.133333" points="1231.35,-1003.49 1234.4,-993.34 1225.69,-999.374 1231.35,-1003.49"/>
</g>
<!-- other&#45;&gt;Мразь -->
<g id="edge26" class="edge"><title>other&#45;&gt;Мразь</title>
<path fill="none" stroke="#555555" stroke-opacity="0.133333" d="M1149.4,-1099.7C1173.5,-1044.8 1229.9,-916.37 1254.6,-860.23"/>
<polygon fill="#555555" fill-opacity="0.133333" stroke="#555555" stroke-opacity="0.133333" points="1257.87,-861.492 1258.7,-850.93 1251.46,-858.668 1257.87,-861.492"/>
</g>
<!-- other&#45;&gt;Blues Bastards -->
<g id="edge27" class="edge"><title>other&#45;&gt;Blues Bastards</title>
<path fill="none" stroke="#555555" stroke-opacity="0.133333" d="M1128.8,-1099.5C1119.1,-1072.3 1104,-1029.7 1094.1,-1002"/>
<polygon fill="#555555" fill-opacity="0.133333" stroke="#555555" stroke-opacity="0.133333" points="1097.36,-1000.72 1090.7,-992.48 1090.77,-1003.07 1097.36,-1000.72"/>
</g>
<!-- other&#45;&gt;ВХОРЕ -->
<g id="edge28" class="edge"><title>other&#45;&gt;ВХОРЕ</title>
<path fill="none" stroke="#555555" stroke-opacity="0.133333" d="M1135.7,-1099.1C1130.1,-1038.9 1116.6,-891.48 1110.9,-829.34"/>
<polygon fill="#555555" fill-opacity="0.133333" stroke="#555555" stroke-opacity="0.133333" points="1114.36,-828.765 1110,-819.11 1107.39,-829.378 1114.36,-828.765"/>
</g>
<!-- other&#45;&gt;Боровик Ералаш -->
<g id="edge29" class="edge"><title>other&#45;&gt;Боровик Ералаш</title>
<path fill="none" stroke="#555555" stroke-opacity="0.133333" d="M1150.9,-1150.8C1179.4,-1207 1247.5,-1341.3 1276.8,-1399.2"/>
<polygon fill="#555555" fill-opacity="0.133333" stroke="#555555" stroke-opacity="0.133333" points="1273.87,-1401.15 1281.5,-1408.5 1280.11,-1398 1273.87,-1401.15"/>
</g>
<!-- local&#45;&gt;krnangh -->
<g id="edge30" class="edge"><title>local&#45;&gt;krnangh</title>
<path fill="none" stroke="#555555" stroke-opacity="0.133333" d="M1304.6,-302.99C1285.5,-277.58 1255.8,-238 1236.5,-212.3"/>
<polygon fill="#555555" fill-opacity="0.133333" stroke="#555555" stroke-opacity="0.133333" points="1239.19,-210.059 1230.4,-204.15 1233.59,-214.253 1239.19,-210.059"/>
</g>
<!-- local&#45;&gt;panicforce -->
<g id="edge31" class="edge"><title>local&#45;&gt;panicforce</title>
<path fill="none" stroke="#555555" stroke-opacity="0.133333" d="M1289.8,-346.3C1236.1,-376.9 1130.2,-437.12 1074.8,-468.66"/>
<polygon fill="#555555" fill-opacity="0.133333" stroke="#555555" stroke-opacity="0.133333" points="1072.97,-465.677 1066,-473.66 1076.42,-471.763 1072.97,-465.677"/>
</g>
<!-- local&#45;&gt;4 позиции бруно -->
<g id="edge32" class="edge"><title>local&#45;&gt;4 позиции бруно</title>
<path fill="none" stroke="#555555" stroke-opacity="0.133333" d="M1275.4,-325.88C1232,-324.44 1166.9,-322.3 1114.8,-320.58"/>
<polygon fill="#555555" fill-opacity="0.133333" stroke="#555555" stroke-opacity="0.133333" points="1114.71,-317.075 1104.6,-320.24 1114.48,-324.071 1114.71,-317.075"/>
</g>
<!-- local&#45;&gt;стройбат -->
<g id="edge33" class="edge"><title>local&#45;&gt;стройбат</title>
<path fill="none" stroke="#555555" stroke-opacity="0.133333" d="M1292.7,-307.17C1241.2,-272.65 1137.1,-202.8 1084.4,-167.51"/>
<polygon fill="#555555" fill-opacity="0.133333" stroke="#555555" stroke-opacity="0.133333" points="1086.06,-164.407 1075.8,-161.75 1082.16,-170.223 1086.06,-164.407"/>
</g>
<!-- local&#45;&gt;spoilers -->
<g id="edge34" class="edge"><title>local&#45;&gt;spoilers</title>
<path fill="none" stroke="#555555" stroke-opacity="0.133333" d="M1368.7,-320.28C1430.8,-310.53 1541.3,-293.17 1604.2,-283.3"/>
<polygon fill="#555555" fill-opacity="0.133333" stroke="#555555" stroke-opacity="0.133333" points="1604.96,-286.724 1614.3,-281.72 1603.88,-279.808 1604.96,-286.724"/>
</g>
<!-- local&#45;&gt;the stockmen -->
<g id="edge35" class="edge"><title>local&#45;&gt;the stockmen</title>
<path fill="none" stroke="#555555" stroke-opacity="0.133333" d="M1357.6,-345.56C1411.5,-373.72 1514.9,-427.8 1571.2,-457.27"/>
<polygon fill="#555555" fill-opacity="0.133333" stroke="#555555" stroke-opacity="0.133333" points="1569.71,-460.442 1580.2,-461.95 1572.94,-454.231 1569.71,-460.442"/>
</g>
<!-- local&#45;&gt;karovas milkshake -->
<g id="edge36" class="edge"><title>local&#45;&gt;karovas milkshake</title>
<path fill="none" stroke="#555555" stroke-opacity="0.133333" d="M1346,-304.27C1388.3,-261.71 1477.9,-171.45 1521.3,-127.74"/>
<polygon fill="#555555" fill-opacity="0.133333" stroke="#555555" stroke-opacity="0.133333" points="1523.8,-130.186 1528.4,-120.64 1518.85,-125.236 1523.8,-130.186"/>
</g>
<!-- local&#45;&gt;gazoliners -->
<g id="edge37" class="edge"><title>local&#45;&gt;gazoliners</title>
<path fill="none" stroke="#555555" stroke-opacity="0.133333" d="M1365.7,-315.52C1389.9,-308.73 1420.4,-300.22 1445.5,-293.19"/>
<polygon fill="#555555" fill-opacity="0.133333" stroke="#555555" stroke-opacity="0.133333" points="1446.51,-296.542 1455.2,-290.48 1444.63,-289.8 1446.51,-296.542"/>
</g>
<!-- local&#45;&gt;текстура -->
<g id="edge38" class="edge"><title>local&#45;&gt;текстура</title>
<path fill="none" stroke="#555555" stroke-opacity="0.133333" d="M1330,-353.32C1346,-412.03 1384.8,-554.95 1401.3,-615.63"/>
<polygon fill="#555555" fill-opacity="0.133333" stroke="#555555" stroke-opacity="0.133333" points="1398.01,-616.888 1404,-625.63 1404.77,-615.063 1398.01,-616.888"/>
</g>
<!-- local&#45;&gt;городок чекистов -->
<g id="edge39" class="edge"><title>local&#45;&gt;городок чекистов</title>
<path fill="none" stroke="#555555" stroke-opacity="0.133333" d="M1341.3,-351.97C1364.4,-382.83 1403.9,-435.64 1427.6,-467.32"/>
<polygon fill="#555555" fill-opacity="0.133333" stroke="#555555" stroke-opacity="0.133333" points="1425.03,-469.728 1433.8,-475.67 1430.65,-465.555 1425.03,-469.728"/>
</g>
<!-- local&#45;&gt;Наука Сна -->
<g id="edge40" class="edge"><title>local&#45;&gt;Наука Сна</title>
<path fill="none" stroke="#555555" stroke-opacity="0.133333" d="M1314.2,-353.34C1294.7,-410.59 1248.2,-547.49 1228.2,-606.48"/>
<polygon fill="#555555" fill-opacity="0.133333" stroke="#555555" stroke-opacity="0.133333" points="1224.79,-605.636 1224.9,-616.23 1231.42,-607.88 1224.79,-605.636"/>
</g>
<!-- local&#45;&gt;Garry Drummer Orchestra -->
<g id="edge41" class="edge"><title>local&#45;&gt;Garry Drummer Orchestra</title>
<path fill="none" stroke="#555555" stroke-opacity="0.133333" d="M1303.3,-351.53C1281.7,-377.92 1247.1,-420.12 1224.9,-447.26"/>
<polygon fill="#555555" fill-opacity="0.133333" stroke="#555555" stroke-opacity="0.133333" points="1222.04,-445.222 1218.4,-455.17 1227.45,-449.666 1222.04,-445.222"/>
</g>
<!-- local&#45;&gt;Концы -->
<g id="edge42" class="edge"><title>local&#45;&gt;Концы</title>
<path fill="none" stroke="#555555" stroke-opacity="0.133333" d="M1329.2,-301.48C1341.9,-248.08 1371,-126.34 1384.1,-71.303"/>
<polygon fill="#555555" fill-opacity="0.133333" stroke="#555555" stroke-opacity="0.133333" points="1387.51,-72.0752 1386.5,-61.529 1380.72,-70.4059 1387.51,-72.0752"/>
</g>
<!-- local&#45;&gt;The Quirks -->
<g id="edge43" class="edge"><title>local&#45;&gt;The Quirks</title>
<path fill="none" stroke="#555555" stroke-opacity="0.133333" d="M1314.3,-301.59C1295,-243.9 1248.6,-105.08 1228.7,-45.697"/>
<polygon fill="#555555" fill-opacity="0.133333" stroke="#555555" stroke-opacity="0.133333" points="1231.91,-44.2564 1225.4,-35.896 1225.27,-46.4901 1231.91,-44.2564"/>
</g>
<!-- norm -->
<g id="node1" class="node"><title>norm</title>
<text text-anchor="middle" x="432.43" y="-531.9" font-family="Helvetica,sans-Serif" font-weight="bold" font-size="26.00">norm</text>
</g>
<!-- cut copy -->
<g id="node2" class="node"><title>cut copy</title>
<text text-anchor="middle" x="56.302" y="-743.31" font-family="Helvetica,sans-Serif" font-weight="bold" font-size="14.00">cut copy</text>
</g>
<!-- karl bartos -->
<g id="node3" class="node"><title>karl bartos</title>
<text text-anchor="middle" x="208.8" y="-577.61" font-family="Helvetica,sans-Serif" font-weight="bold" font-size="14.00">karl bartos</text>
</g>
<!-- kalashnikov -->
<g id="node4" class="node"><title>kalashnikov</title>
<text text-anchor="middle" x="471.64" y="-928.24" font-family="Helvetica,sans-Serif" font-weight="bold" font-size="14.00">kalashnikov</text>
</g>
<!-- matsumoto zoku -->
<g id="node5" class="node"><title>matsumoto zoku</title>
<text text-anchor="middle" x="262.04" y="-872.58" font-family="Helvetica,sans-Serif" font-weight="bold" font-size="14.00">matsumoto zoku</text>
</g>
<!-- the dad horse expirience -->
<g id="node6" class="node"><title>the dad horse expirience</title>
<text text-anchor="middle" x="512.16" y="-254.41" font-family="Helvetica,sans-Serif" font-weight="bold" font-size="14.00">the dad horse expirience</text>
</g>
<!-- Clock DVA -->
<g id="node7" class="node"><title>Clock DVA</title>
<text text-anchor="middle" x="187.09" y="-245.87" font-family="Helvetica,sans-Serif" font-weight="bold" font-size="14.00">Clock DVA</text>
</g>
<!-- Ben Frost -->
<g id="node8" class="node"><title>Ben Frost</title>
<text text-anchor="middle" x="377.12" y="-101.3" font-family="Helvetica,sans-Serif" font-weight="bold" font-size="14.00">Ben Frost</text>
</g>
<!-- Барто -->
<g id="node9" class="node"><title>Барто</title>
<text text-anchor="middle" x="33.797" y="-423.16" font-family="Helvetica,sans-Serif" font-weight="bold" font-size="14.00">Барто</text>
</g>
<!-- Звёзды -->
<g id="node10" class="node"><title>Звёзды</title>
<text text-anchor="middle" x="833.94" y="-460.42" font-family="Helvetica,sans-Serif" font-weight="bold" font-size="14.00">Звёзды</text>
</g>
<!-- The Meantraitors -->
<g id="node11" class="node"><title>The Meantraitors</title>
<text text-anchor="middle" x="778.89" y="-665.11" font-family="Helvetica,sans-Serif" font-weight="bold" font-size="14.00">The Meantraitors</text>
</g>
<!-- Junk riot -->
<g id="node12" class="node"><title>Junk riot</title>
<text text-anchor="middle" x="712.11" y="-284.09" font-family="Helvetica,sans-Serif" font-weight="bold" font-size="14.00">Junk riot</text>
</g>
<!-- Кобыла и трупоглазые жабы искали цезию нашли поздно утром свистящего хна -->
<g id="node13" class="node"><title>Кобыла и трупоглазые жабы искали цезию нашли поздно утром свистящего хна</title>
<text text-anchor="middle" x="661.32" y="-832.58" font-family="Helvetica,sans-Serif" font-weight="bold" font-size="14.00">Кобыла и трупоглазые жабы искали цезию нашли поздно утром свистящего хна</text>
</g>
<!-- other -->
<g id="node14" class="node"><title>other</title>
<text text-anchor="middle" x="1138.1" y="-1119.1" font-family="Helvetica,sans-Serif" font-weight="bold" font-size="26.00">other</text>
</g>
<!-- butterfly temple -->
<g id="node15" class="node"><title>butterfly temple</title>
<text text-anchor="middle" x="978.99" y="-1176.4" font-family="Helvetica,sans-Serif" font-weight="bold" font-size="14.00">butterfly temple</text>
</g>
<!-- melotron -->
<g id="node16" class="node"><title>melotron</title>
<text text-anchor="middle" x="826.55" y="-1099.3" font-family="Helvetica,sans-Serif" font-weight="bold" font-size="14.00">melotron</text>
</g>
<!-- and one -->
<g id="node17" class="node"><title>and one</title>
<text text-anchor="middle" x="858.33" y="-955.86" font-family="Helvetica,sans-Serif" font-weight="bold" font-size="14.00">and one</text>
</g>
<!-- teslaboy -->
<g id="node18" class="node"><title>teslaboy</title>
<text text-anchor="middle" x="976.41" y="-898.73" font-family="Helvetica,sans-Serif" font-weight="bold" font-size="14.00">teslaboy</text>
</g>
<!-- love cult -->
<g id="node19" class="node"><title>love cult</title>
<text text-anchor="middle" x="1439" y="-1210.9" font-family="Helvetica,sans-Serif" font-weight="bold" font-size="14.00">love cult</text>
</g>
<!-- смола -->
<g id="node20" class="node"><title>смола</title>
<text text-anchor="middle" x="1372" y="-990.31" font-family="Helvetica,sans-Serif" font-weight="bold" font-size="14.00">смола</text>
</g>
<!-- матушка гусыня -->
<g id="node21" class="node"><title>матушка гусыня</title>
<text text-anchor="middle" x="1322.5" y="-1266.1" font-family="Helvetica,sans-Serif" font-weight="bold" font-size="14.00">матушка гусыня</text>
</g>
<!-- gnoomes -->
<g id="node22" class="node"><title>gnoomes</title>
<text text-anchor="middle" x="1463.7" y="-1067.2" font-family="Helvetica,sans-Serif" font-weight="bold" font-size="14.00">gnoomes</text>
</g>
<!-- СПБЧ -->
<g id="node23" class="node"><title>СПБЧ</title>
<text text-anchor="middle" x="1173.2" y="-1295" font-family="Helvetica,sans-Serif" font-weight="bold" font-size="14.00">СПБЧ</text>
</g>
<!-- Disciplina Medicina -->
<g id="node24" class="node"><title>Disciplina Medicina</title>
<text text-anchor="middle" x="949.36" y="-1390.8" font-family="Helvetica,sans-Serif" font-weight="bold" font-size="14.00">Disciplina Medicina</text>
</g>
<!-- Vice Versa -->
<g id="node25" class="node"><title>Vice Versa</title>
<text text-anchor="middle" x="1093.2" y="-1403.1" font-family="Helvetica,sans-Serif" font-weight="bold" font-size="14.00">Vice Versa</text>
</g>
<!-- Polska Radio One -->
<g id="node26" class="node"><title>Polska Radio One</title>
<text text-anchor="middle" x="864.77" y="-1262.2" font-family="Helvetica,sans-Serif" font-weight="bold" font-size="14.00">Polska Radio One</text>
</g>
<!-- Jars -->
<g id="node27" class="node"><title>Jars</title>
<text text-anchor="middle" x="1246.3" y="-973.37" font-family="Helvetica,sans-Serif" font-weight="bold" font-size="14.00">Jars</text>
</g>
<!-- Мразь -->
<g id="node28" class="node"><title>Мразь</title>
<text text-anchor="middle" x="1266.5" y="-829.46" font-family="Helvetica,sans-Serif" font-weight="bold" font-size="14.00">Мразь</text>
</g>
<!-- Blues Bastards -->
<g id="node29" class="node"><title>Blues Bastards</title>
<text text-anchor="middle" x="1084.2" y="-970.73" font-family="Helvetica,sans-Serif" font-weight="bold" font-size="14.00">Blues Bastards</text>
</g>
<!-- ВХОРЕ -->
<g id="node30" class="node"><title>ВХОРЕ</title>
<text text-anchor="middle" x="1108.3" y="-797.3" font-family="Helvetica,sans-Serif" font-weight="bold" font-size="14.00">ВХОРЕ</text>
</g>
<!-- Боровик Ералаш -->
<g id="node31" class="node"><title>Боровик Ералаш</title>
<text text-anchor="middle" x="1290.7" y="-1422.9" font-family="Helvetica,sans-Serif" font-weight="bold" font-size="14.00">Боровик Ералаш</text>
</g>
<!-- local -->
<g id="node32" class="node"><title>local</title>
<text text-anchor="middle" x="1323" y="-321.14" font-family="Helvetica,sans-Serif" font-weight="bold" font-size="26.00">local</text>
</g>
<!-- krnangh -->
<g id="node33" class="node"><title>krnangh</title>
<text text-anchor="middle" x="1217.5" y="-183.34" font-family="Helvetica,sans-Serif" font-weight="bold" font-size="14.00">krnangh</text>
</g>
<!-- panicforce -->
<g id="node34" class="node"><title>panicforce</title>
<text text-anchor="middle" x="1038.9" y="-485.33" font-family="Helvetica,sans-Serif" font-weight="bold" font-size="14.00">panicforce</text>
</g>
<!-- 4 позиции бруно -->
<g id="node35" class="node"><title>4 позиции бруно</title>
<text text-anchor="middle" x="1031.1" y="-314.11" font-family="Helvetica,sans-Serif" font-weight="bold" font-size="14.00">4 позиции бруно</text>
</g>
<!-- стройбат -->
<g id="node36" class="node"><title>стройбат</title>
<text text-anchor="middle" x="1052.4" y="-142.38" font-family="Helvetica,sans-Serif" font-weight="bold" font-size="14.00">стройбат</text>
</g>
<!-- spoilers -->
<g id="node37" class="node"><title>spoilers</title>
<text text-anchor="middle" x="1651.5" y="-272.19" font-family="Helvetica,sans-Serif" font-weight="bold" font-size="14.00">spoilers</text>
</g>
<!-- the stockmen -->
<g id="node38" class="node"><title>the stockmen</title>
<text text-anchor="middle" x="1610.2" y="-473.93" font-family="Helvetica,sans-Serif" font-weight="bold" font-size="14.00">the stockmen</text>
</g>
<!-- karovas milkshake -->
<g id="node39" class="node"><title>karovas milkshake</title>
<text text-anchor="middle" x="1545.9" y="-99.29" font-family="Helvetica,sans-Serif" font-weight="bold" font-size="14.00">karovas milkshake</text>
</g>
<!-- gazoliners -->
<g id="node40" class="node"><title>gazoliners</title>
<text text-anchor="middle" x="1493.8" y="-275.98" font-family="Helvetica,sans-Serif" font-weight="bold" font-size="14.00">gazoliners</text>
</g>
<!-- текстура -->
<g id="node41" class="node"><title>текстура</title>
<text text-anchor="middle" x="1408.9" y="-639.92" font-family="Helvetica,sans-Serif" font-weight="bold" font-size="14.00">текстура</text>
</g>
<!-- городок чекистов -->
<g id="node42" class="node"><title>городок чекистов</title>
<text text-anchor="middle" x="1447.2" y="-489.93" font-family="Helvetica,sans-Serif" font-weight="bold" font-size="14.00">городок чекистов</text>
</g>
<!-- Наука Сна -->
<g id="node43" class="node"><title>Наука Сна</title>
<text text-anchor="middle" x="1218.8" y="-630.61" font-family="Helvetica,sans-Serif" font-weight="bold" font-size="14.00">Наука Сна</text>
</g>
<!-- Garry Drummer Orchestra -->
<g id="node44" class="node"><title>Garry Drummer Orchestra</title>
<text text-anchor="middle" x="1203.6" y="-469.59" font-family="Helvetica,sans-Serif" font-weight="bold" font-size="14.00">Garry Drummer Orchestra</text>
</g>
<!-- Концы -->
<g id="node45" class="node"><title>Концы</title>
<text text-anchor="middle" x="1390.8" y="-39.666" font-family="Helvetica,sans-Serif" font-weight="bold" font-size="14.00">Концы</text>
</g>
<!-- The Quirks -->
<g id="node46" class="node"><title>The Quirks</title>
<text text-anchor="middle" x="1219.4" y="-14.3" font-family="Helvetica,sans-Serif" font-weight="bold" font-size="14.00">The Quirks</text>
</g>
</g>
</svg>
