<?xml version="1.0" encoding="UTF-8" standalone="no"?>
<!DOCTYPE svg PUBLIC "-//W3C//DTD SVG 1.1//EN"
 "http://www.w3.org/Graphics/SVG/1.1/DTD/svg11.dtd">
<!-- Generated by graphviz version 2.38.0 (20140413.2041)
 -->
<!-- Title: G Pages: 1 -->
<svg width="1692pt" height="1228pt"
 viewBox="0.00 0.00 1691.86 1227.68" xmlns="http://www.w3.org/2000/svg" xmlns:xlink="http://www.w3.org/1999/xlink">
<g id="graph0" class="graph" transform="scale(1 1) rotate(0) translate(51.63 1110.28)">
<title>G</title>
<polygon fill="#dae2ff" stroke="none" points="-51.63,117.401 -51.63,-1110.28 1640.23,-1110.28 1640.23,117.401 -51.63,117.401"/>
<polygon fill="#fbb4ae" stroke="#fbb4ae" points="522.712,-450.247 523.854,-473.658 524.707,-506.982 528.76,-585.527 543.8,-594.855 566.675,-583.731 631.305,-548.833 647.234,-540.856 655.778,-536.934 662.571,-534.382 670.079,-532.175 684.729,-528.467 686.433,-528.178 711.272,-524.977 717.365,-523.935 717.488,-523.909 730.523,-520.575 742.457,-516.514 747.392,-514.63 777.529,-501.873 785.067,-485.576 763.461,-452.689 760.75,-448.216 756.025,-437.981 735.413,-388.125 722.519,-363.767 713.963,-349.04 695.852,-348.766 689.402,-348.461 677.319,-348.658 676.407,-348.585 671.278,-348.502 659.909,-348.678 652.984,-348.122 641.063,-346.783 554.499,-331.547 514.998,-353.322 514.7,-353.494 521.61,-432.694 522.494,-440.437 522.712,-450.247 522.712,-450.247"/>
<polygon fill="#ccebc5" stroke="#ccebc5" points="385.282,-73.2997 383.452,-33.8067 381.292,-4.14283 394.175,15.4803 422.494,44.6653 448.802,64.3698 467.015,69.2068 491.382,66.0577 505.451,64.5679 511.738,64.0505 518.491,63.654 528.639,63.2977 543.45,63.8249 543.61,63.8381 624.71,109.61 631.096,113.401 644.377,111.186 652.731,110.163 667.407,109.014 664.507,7.3368 660.657,-13.2727 656.831,-13.2727 650.073,-17.281 649.727,-17.6653 650.841,-18.9955 656.455,-22.4054 661.328,-22.4054 661.328,-22.4054 656.455,-22.4054 650.841,-18.9955 649.727,-17.6653 650.073,-17.281 656.831,-13.2727 660.657,-13.2727 664.507,7.3368 667.407,109.014 671.524,108.875 691.694,109.081 703.239,109.454 779.843,77.8649 776.725,-12.4522 776.954,-19.8606 776.698,-27.2343 774.954,-28.9971 689.014,-121.856 683.914,-127.68 675.16,-136.029 674.848,-136.342 682.962,-144.258 687.891,-148.816 785.34,-229.332 791.437,-234.674 794.266,-237.293 794.321,-237.701 794.481,-239.916 798.256,-268.257 804.83,-272.726 820.049,-281.348 820.202,-313.805 817.602,-375.605 823.473,-377.337 826.783,-380.179 822.693,-384.054 817.808,-385.515 817.808,-385.515 822.693,-384.054 826.783,-380.179 823.473,-377.337 817.602,-375.605 820.202,-313.805 820.049,-281.348 833.968,-288.168 834.813,-288.549 897.566,-314.406 899.416,-315.239 912.228,-321.501 914.638,-322.861 920.81,-326.585 931.931,-333.726 946.219,-343.994 948.445,-345.76 960.832,-356.064 961.969,-356.964 966.147,-360.571 970.439,-364.432 1017.99,-405.314 1036.9,-409.713 1078.03,-447.703 1076.06,-495.617 1103.15,-563.98 1125.65,-632.751 1086.2,-658.356 1067.46,-671.373 1044.79,-689.853 1038.72,-694.364 1032.89,-698.261 1022.03,-703.96 1020.35,-704.719 1013.81,-707.189 1006.87,-709.303 995.321,-711.137 988.97,-711.675 979.876,-713.118 969.587,-716.27 965.103,-717.967 952.286,-724.728 948.374,-727.065 948.435,-709.246 948.435,-709.246 948.374,-727.065 938.26,-734.587 937.295,-735.446 935.872,-736.586 929.728,-667.535 926.754,-667.535 925.927,-668.445 925.927,-668.445 926.754,-667.535 929.728,-667.535 935.872,-736.586 932.858,-739.221 938.841,-754.601 945.322,-774.365 949.405,-789.933 949.568,-790.434 961.466,-821.021 982.632,-868.715 900.623,-920.612 881.847,-933.11 875.837,-937.675 865.849,-945.583 861.353,-949.577 852.583,-945.023 840.887,-939.229 828.559,-934.011 817.774,-929.962 812.533,-928.121 806.665,-926.341 797.372,-923.744 795.076,-923.212 783.851,-920.877 769.768,-918.619 771.915,-827.899 769.012,-801.184 767.58,-801.678 751.243,-795.422 721.001,-792.206 724.011,-788.85 726.498,-786.434 731.878,-781.92 731.114,-743.36 732.347,-741.885 730.731,-739.981 726.577,-737.636 726.577,-737.636 730.731,-739.981 732.347,-741.885 731.114,-743.36 731.878,-781.92 726.498,-786.434 724.011,-788.85 721.001,-792.206 751.243,-795.422 767.58,-801.678 769.012,-801.184 771.915,-827.899 769.768,-918.619 763.513,-917.916 695.447,-911.889 654.588,-877.526 673.534,-847.714 686.914,-828.968 694.491,-819.727 698.097,-814.903 697.624,-767.456 701.368,-741.913 700.521,-741.666 700.521,-741.666 701.368,-741.913 697.624,-767.456 698.097,-814.903 694.491,-819.727 686.914,-828.968 673.534,-847.714 675.068,-800.394 675.068,-800.394 673.534,-847.714 654.588,-877.526 640.855,-873.79 570.261,-840.558 568.502,-771.649 568.564,-753.971 568.1,-735.926 568.028,-735.063 565.453,-634.191 543.8,-594.855 566.675,-583.731 631.305,-548.833 647.234,-540.856 655.778,-536.934 662.571,-534.382 670.079,-532.175 684.729,-528.467 686.433,-528.178 711.272,-524.977 717.365,-523.935 717.488,-523.909 730.523,-520.575 742.457,-516.514 747.392,-514.63 777.529,-501.873 785.067,-485.576 763.461,-452.689 760.75,-448.216 756.025,-437.981 735.413,-388.125 722.519,-363.767 713.963,-349.04 695.852,-348.766 689.402,-348.461 677.319,-348.658 676.407,-348.585 671.278,-348.502 669.736,-260.831 674.814,-257.291 674.894,-257.364 674.894,-257.364 674.814,-257.291 669.736,-260.831 671.278,-348.502 659.909,-348.678 652.984,-348.122 641.063,-346.783 554.499,-331.547 514.998,-353.322 514.7,-353.494 502.558,-348.653 499.155,-347.37 484.994,-342.643 469.381,-338.11 414.586,-324.607 405.957,-322.3 335.152,-245.969 471.744,-202.869 473.54,-200.722 477.554,-199.449 479.185,-198.242 481.156,-198.242 481.304,-198.411 488.344,-202.739 492.84,-202.739 492.84,-202.739 488.344,-202.739 481.304,-198.411 481.156,-198.242 479.185,-198.242 477.402,-195.505 477.402,-195.505 479.185,-198.242 477.554,-199.449 473.54,-200.722 471.744,-202.869 335.152,-245.969 313.076,-223.221 317.023,-211.45 341.964,-175.135 385.049,-105.53 385.282,-73.2997 385.282,-73.2997"/>
<polygon fill="#fed9a6" stroke="#fed9a6" points="140.354,-938.672 140.534,-912.223 140.534,-912.223 140.354,-938.672 139.928,-953.919 160.729,-949.309 157.62,-843.435 159.947,-806.254 163.787,-806.254 166.644,-837.159 171.091,-806.047 173.46,-806.047 174.029,-805.883 179.548,-805.883 181.807,-806.572 185.301,-806.572 186.667,-806.177 189.833,-806.177 190.129,-806.093 193.075,-747.979 193.674,-747.952 193.763,-731.909 196.973,-693.483 201.053,-694.599 201.053,-694.599 196.973,-693.483 193.763,-731.909 193.674,-747.952 193.075,-747.979 190.129,-806.093 195.302,-806.093 199.808,-887.723 202.007,-845.502 200.706,-806.106 205.283,-806.106 206.805,-804.252 211.594,-801.484 216.473,-801.484 217.851,-747.938 222.818,-747.964 226.079,-747.634 226.069,-747.264 226.069,-747.264 226.079,-747.634 222.818,-747.964 217.851,-747.938 216.473,-801.484 211.594,-801.484 206.805,-804.252 205.283,-806.106 207.107,-808.325 211.289,-810.673 216.232,-810.673 219.725,-853.201 220.12,-881.281 229.718,-869.546 231.368,-867.713 237.479,-861.565 237.37,-806.013 242.454,-806.013 243.083,-847.761 242.571,-855.659 254.144,-845.212 254.907,-844.635 258.139,-841.619 258.139,-841.619 254.907,-844.635 254.144,-845.212 242.571,-855.659 243.083,-847.761 242.454,-806.013 237.37,-806.013 237.479,-861.565 231.368,-867.713 229.718,-869.546 220.12,-881.281 219.725,-853.201 216.232,-810.673 211.289,-810.673 207.107,-808.325 205.283,-806.106 200.706,-806.106 202.007,-845.502 199.808,-887.723 195.302,-806.093 190.129,-806.093 189.833,-806.177 186.667,-806.177 185.301,-806.572 181.807,-806.572 179.548,-805.883 174.029,-805.883 173.46,-806.047 171.091,-806.047 166.644,-837.159 163.787,-806.254 159.947,-806.254 157.62,-843.435 160.729,-949.309 163.828,-948.748 176.354,-946.978 182.594,-946.347 277.624,-980.292 294.332,-986.688 294.708,-986.572 303.567,-984.053 310.72,-982.353 326.27,-979.731 326.098,-892.714 329.028,-859.86 333.764,-858.518 337.986,-854.882 337.969,-854.857 333.728,-851.277 329.299,-850.052 329.299,-850.052 333.728,-851.277 337.969,-854.857 337.986,-854.882 333.764,-858.518 329.028,-859.86 326.098,-892.714 326.27,-979.731 334.436,-978.732 348.706,-977.646 358.365,-977.358 359.115,-928.121 365.863,-858.695 363.396,-854.889 364.458,-854.08 364.717,-853.662 370.687,-848.774 368.623,-804.446 368.705,-799.423 385.082,-801.876 394.385,-803.819 400.719,-805.51 406.954,-807.536 420.457,-813.501 421.296,-813.918 422.334,-779.271 422.334,-779.271 421.296,-813.918 420.457,-813.501 406.954,-807.536 400.719,-805.51 394.385,-803.819 385.082,-801.876 368.705,-799.423 368.623,-804.446 370.687,-848.774 364.717,-853.662 364.458,-854.08 363.396,-854.889 365.863,-858.695 359.115,-928.121 358.365,-977.358 365.435,-977.639 381.406,-973.856 385.505,-972.988 452.041,-949.79 495.412,-875.034 570.261,-840.558 568.502,-771.649 568.564,-753.971 568.1,-735.926 568.028,-735.063 565.453,-634.191 543.8,-594.855 528.76,-585.527 524.707,-506.982 523.854,-473.658 522.712,-450.247 522.494,-440.437 521.61,-432.694 514.7,-353.494 502.558,-348.653 499.155,-347.37 484.994,-342.643 469.381,-338.11 414.586,-324.607 405.957,-322.3 404.128,-325.07 386.982,-349.95 376.742,-362.081 375.019,-460.972 376.686,-462.787 374.766,-464.982 369.915,-467.673 365.677,-467.673 365.677,-467.673 369.915,-467.673 374.766,-464.982 376.686,-462.787 375.019,-460.972 370.701,-458.643 370.701,-458.643 375.019,-460.972 376.742,-362.081 386.982,-349.95 404.128,-325.07 405.957,-322.3 335.152,-245.969 313.076,-223.221 284.289,-232.246 276.44,-234.554 271.918,-235.794 258.812,-238.627 254.173,-241.452 250.016,-243.875 239.945,-249.233 218.023,-259.237 144.019,-287.275 92.8105,-321.201 60.251,-323.934 22.1774,-376.033 2.12075,-433.397 -7.37399,-458.322 -11.2132,-478.063 -12.8351,-484.656 68.5985,-516.902 72.49,-518.263 84.0928,-521.785 88.3114,-522.865 93.093,-523.862 93.4141,-523.914 101.595,-524.853 111.339,-525.513 113.97,-525.32 114.616,-525.303 125.121,-525.534 125.208,-525.528 130.403,-525.4 135.391,-525.042 133.854,-500.603 133.854,-500.603 135.391,-525.042 130.403,-525.4 132.233,-584.828 128.006,-588.327 132.242,-591.987 136.96,-593.321 142.228,-591.794 146.317,-588.242 146.895,-588.41 146.895,-588.41 146.317,-588.242 142.228,-591.794 136.96,-593.321 132.242,-591.987 128.006,-588.327 132.233,-584.828 130.403,-525.4 125.208,-525.528 125.121,-525.534 114.616,-525.303 113.97,-525.32 111.339,-525.513 101.595,-524.853 93.4141,-523.914 93.093,-523.862 88.3114,-522.865 84.0928,-521.785 72.49,-518.263 68.5985,-516.902 -12.8351,-484.656 -45.3822,-521.335 -47.63,-533.527 -44.0495,-576.054 -43.0229,-609.671 -41.8175,-613.076 -18.9651,-683.691 5.05149,-715.232 14.8876,-726.836 7.71784,-774.788 10.5313,-784.878 24.1174,-844.569 30.2846,-875.504 106.398,-940.743 129.32,-956.904 139.928,-953.919 140.354,-938.672 140.354,-938.672"/>
<polygon fill="#fbb4ae" stroke="#fbb4ae" points="1177.48,-253.85 1183.14,-257.992 1180.21,-338.011 1180.34,-415.942 1226.39,-405.899 1237.89,-393.885 1331.95,-291.175 1328.37,-266.879 1327.48,-258.392 1312.42,-223.251 1296.31,-183.063 1239.26,-131.356 1210.94,-66.7318 1194.52,-53.6924 1167.81,11.2839 1105.05,84.0175 1099.49,87.0789 1097.26,87.9047 1056.3,78.7624 1054.06,-2.47544 1053.34,-11.1037 1046.08,-58.531 1043.37,-58.531 1037.81,-17.9622 1036.65,-55.2962 1040.67,-58.984 1037.64,-61.5319 1037.64,-61.5319 1040.67,-58.984 1036.65,-55.2962 1037.81,-17.9622 1043.37,-58.531 1046.08,-58.531 1053.34,-11.1037 1054.06,-2.47544 1056.3,78.7624 1034.09,75.237 1021.71,74.0769 1011.95,73.7938 1003.03,73.7279 922.499,107.026 915.064,104.499 912.519,103.698 890.193,97.793 899.277,-21.1922 893.551,-19.4613 893.551,-19.4613 899.277,-21.1922 890.193,97.793 890.115,97.7744 885.907,96.9836 876.193,95.4028 867.89,94.2623 800.543,86.7253 779.843,77.8649 776.725,-12.4522 776.954,-19.8606 776.698,-27.2343 774.954,-28.9971 689.014,-121.856 683.914,-127.68 675.16,-136.029 674.848,-136.342 682.962,-144.258 687.891,-148.816 785.34,-229.332 786.624,-134.193 791.982,-130.882 793.932,-127.97 796.347,-127.97 802.493,-182.093 804.823,-224.63 806.066,-223.311 807.231,-222.149 811.855,-217.199 813.559,-184.695 813.385,-131.988 819.258,-131.988 824.375,-129.005 825.391,-127.842 824.076,-126.282 819.126,-123.358 819.126,-123.358 824.076,-126.282 825.391,-127.842 824.375,-129.005 819.258,-131.988 813.385,-131.988 813.559,-184.695 811.855,-217.199 807.231,-222.149 806.066,-223.311 804.823,-224.63 802.493,-182.093 796.347,-127.97 793.932,-127.97 791.982,-130.882 786.624,-134.193 785.34,-229.332 791.437,-234.674 794.266,-237.293 794.321,-237.701 794.481,-239.916 798.256,-268.257 804.83,-272.726 820.049,-281.348 833.968,-288.168 834.813,-288.549 897.566,-314.406 899.416,-315.239 912.228,-321.501 914.638,-322.861 920.81,-326.585 931.931,-333.726 946.219,-343.994 948.445,-345.76 960.832,-356.064 961.969,-356.964 966.147,-360.571 970.439,-364.432 1017.99,-405.314 1036.9,-409.713 1078.03,-447.703 1156.53,-422.616 1167.32,-419.384 1170.91,-418.384 1180.34,-415.942 1180.21,-338.011 1183.14,-257.992 1177.48,-253.85 1178.43,-249.703 1177.36,-248.64 1170.87,-246.429 1174.16,-189.124 1162.62,-198.381 1160.78,-199.658 1118.11,-225.16 1118.3,-180.724 1112.26,-175.951 1111.62,-174.966 1107.62,-174.966 1107.28,-174.867 1103.54,-174.867 1098.34,-212.747 1098.34,-212.747 1103.54,-174.867 1107.28,-174.867 1107.62,-174.966 1111.62,-174.966 1112.26,-175.951 1118.3,-180.724 1118.11,-225.16 1160.78,-199.658 1162.62,-198.381 1174.16,-189.124 1170.87,-246.429 1177.36,-248.64 1178.43,-249.703 1177.48,-253.85 1177.48,-253.85"/>
<polygon fill="#decbe4" stroke="#decbe4" points="1446.13,-838.847 1443.5,-750.271 1439.33,-713.546 1445.71,-709.518 1446.24,-708.871 1444.68,-706.999 1440.29,-704.472 1440.29,-704.472 1444.68,-706.999 1446.24,-708.871 1445.71,-709.518 1439.33,-713.546 1443.5,-750.271 1446.13,-838.847 1446.15,-842.127 1428.56,-850.133 1422.26,-853.319 1421.06,-852.308 1420.87,-766.384 1423.86,-710.932 1423.86,-710.932 1420.87,-766.384 1421.06,-852.308 1394.78,-831.917 1365.86,-779.51 1336.86,-708.93 1316.28,-671.642 1287.76,-671.742 1282.85,-671.633 1280.1,-671.5 1279.16,-671.48 1273.57,-671.505 1267.64,-671.844 1265.07,-671.858 1259.84,-671.752 1259.47,-671.725 1256.82,-671.604 1243.84,-671.694 1237.6,-671.253 1221.88,-669.734 1214.16,-668.392 1196.26,-664.345 1189.18,-662.381 1186.41,-661.541 1167.66,-654.395 1157.64,-650.06 1153.21,-647.916 1127.34,-634.726 1125.65,-632.751 1103.15,-563.98 1145.56,-563.98 1145.56,-563.98 1103.15,-563.98 1076.06,-495.617 1078.03,-447.703 1156.53,-422.616 1167.32,-419.384 1170.91,-418.384 1180.34,-415.942 1226.39,-405.899 1237.89,-393.885 1331.95,-291.175 1385.34,-312.96 1386.99,-313.551 1408.38,-319.697 1414.63,-321.339 1415.5,-321.545 1418.86,-322.263 1419.63,-438.336 1424.82,-441.341 1426.21,-442.947 1425.57,-443.666 1419.4,-447.322 1414.09,-447.322 1409.1,-444.555 1407.6,-442.905 1404.09,-442.905 1403.64,-442.782 1399.96,-442.782 1399.96,-442.782 1403.64,-442.782 1404.09,-442.905 1407.6,-442.905 1409.1,-444.555 1414.09,-447.322 1419.4,-447.322 1425.57,-443.666 1426.21,-442.947 1424.82,-441.341 1419.63,-438.336 1418.86,-322.263 1424.47,-323.326 1433.05,-324.743 1444.19,-325.775 1457.25,-326.665 1454.86,-392.876 1454.86,-392.876 1457.25,-326.665 1503.6,-327.572 1510.64,-329.202 1525.87,-341.626 1583.7,-407.449 1584.01,-428.943 1585.6,-454.293 1561.49,-466.625 1456.27,-448.314 1453.41,-445.116 1450.47,-444.263 1448.07,-442.528 1445.72,-442.528 1445.5,-442.589 1441.05,-442.589 1441.05,-442.589 1445.5,-442.589 1445.72,-442.528 1448.07,-442.528 1450.47,-444.263 1453.41,-445.116 1456.27,-448.314 1561.49,-466.625 1585.6,-454.293 1621,-505.754 1629.25,-563.406 1516.1,-564.424 1511.5,-568.695 1511.05,-568.845 1508.61,-570.824 1506.16,-570.824 1505.59,-571.482 1500.18,-574.702 1500.18,-574.702 1505.59,-571.482 1506.16,-570.824 1508.61,-570.824 1511.05,-568.845 1511.5,-568.695 1516.1,-564.424 1629.25,-563.406 1631.04,-573.905 1632.14,-578.774 1636.23,-606.594 1572.98,-681.487 1570.78,-708.93 1570.8,-760.83 1555.77,-803.217 1458.69,-837.391 1446.15,-842.127 1446.13,-838.847 1446.13,-838.847"/>
<polygon fill="#b3cde3" stroke="#b3cde3" points="1312.89,-781.084 1341.41,-779.51 1365.86,-779.51 1336.86,-708.93 1316.28,-671.642 1287.76,-671.742 1282.85,-671.633 1280.1,-671.5 1279.16,-671.48 1273.57,-671.505 1267.64,-671.844 1265.07,-671.858 1259.84,-671.752 1259.47,-671.725 1256.82,-671.604 1243.84,-671.694 1237.6,-671.253 1221.88,-669.734 1214.16,-668.392 1196.26,-664.345 1189.18,-662.381 1186.41,-661.541 1167.66,-654.395 1157.64,-650.06 1153.21,-647.916 1127.34,-634.726 1125.65,-632.751 1086.2,-658.356 1067.46,-671.373 1044.79,-689.853 1038.72,-694.364 1032.89,-698.261 1022.03,-703.96 1020.35,-704.719 1013.81,-707.189 1006.87,-709.303 995.321,-711.137 988.97,-711.675 979.876,-713.118 969.587,-716.27 965.103,-717.967 952.286,-724.728 948.374,-727.065 938.26,-734.587 937.295,-735.446 935.872,-736.586 932.858,-739.221 938.841,-754.601 945.322,-774.365 949.405,-789.933 949.568,-790.434 961.466,-821.021 982.632,-868.715 900.623,-920.612 881.847,-933.11 875.837,-937.675 865.849,-945.583 861.353,-949.577 861.795,-951.721 866.291,-963.39 882.992,-1013.33 898.353,-1063.52 898.631,-1063.99 951.591,-1099.89 973.968,-1101.76 1003.28,-1100.33 1014.83,-1100.34 1031.01,-1101.15 1034.95,-1101.45 1050.61,-1103.79 1052.06,-1104.04 1056.49,-1104.92 1062.59,-1106.28 1154.72,-1077.04 1187.54,-1032.73 1198.81,-1029.38 1211.24,-1026.47 1219.03,-1024.8 1227.75,-1023.11 1236.95,-1021.92 1243.41,-1021.34 1255.73,-1020.51 1261.58,-1020.23 1274.02,-1020.43 1280.89,-1020.68 1282.77,-1020.79 1345.2,-1026.96 1372.19,-1009.78 1409.91,-894.446 1416.1,-878.29 1418.14,-873.335 1422.26,-853.319 1421.06,-852.308 1394.78,-831.917 1365.86,-779.51 1341.41,-779.51 1312.89,-781.084 1284.92,-785.844 1279.73,-782.221 1277.86,-779.282 1275.4,-779.282 1274.35,-779.584 1276.13,-834.295 1273.91,-834.347 1273.08,-834.413 1273.08,-834.413 1273.91,-834.347 1268.67,-779.84 1265.1,-779.84 1264.37,-779.633 1260.08,-779.633 1259.42,-779.443 1254.27,-779.443 1253.58,-779.242 1250.09,-779.242 1249.17,-779.513 1243.76,-779.513 1243.22,-779.669 1248.19,-834.153 1242.71,-834.286 1240.83,-888.789 1236.51,-888.789 1235.29,-889.138 1231.71,-889.138 1230.82,-888.884 1225.38,-888.884 1225.27,-888.854 1225.08,-888.854 1222.02,-886.403 1222.02,-886.403 1225.08,-888.854 1225.27,-888.854 1225.38,-888.884 1230.82,-888.884 1231.71,-889.138 1235.29,-889.138 1236.51,-888.789 1240.83,-888.789 1242.71,-834.286 1248.19,-834.153 1243.22,-779.669 1239.44,-779.669 1238.24,-779.32 1234.35,-779.32 1231.37,-828.266 1228.13,-779.518 1227.4,-779.518 1223.8,-776.385 1223.8,-776.385 1227.4,-779.518 1228.13,-779.518 1231.37,-828.266 1234.35,-779.32 1238.24,-779.32 1239.44,-779.669 1243.22,-779.669 1243.76,-779.513 1249.17,-779.513 1250.09,-779.242 1253.58,-779.242 1254.27,-779.443 1259.42,-779.443 1260.08,-779.633 1264.37,-779.633 1265.1,-779.84 1268.67,-779.84 1273.91,-834.347 1276.13,-834.295 1274.35,-779.584 1275.4,-779.282 1277.86,-779.282 1279.73,-782.221 1284.92,-785.844 1312.89,-781.084 1312.89,-781.084"/>
<polyline fill="none" stroke="#000000" points="662.571,-534.382 670.079,-532.175 684.729,-528.467 686.433,-528.178 711.272,-524.977 717.365,-523.935 717.488,-523.909 730.523,-520.575 742.457,-516.514 747.392,-514.63 777.529,-501.873 785.067,-485.576 763.461,-452.689 760.75,-448.216 756.025,-437.981 735.413,-388.125 722.519,-363.767 713.963,-349.04 695.852,-348.766 689.402,-348.461 677.319,-348.658 676.407,-348.585 671.278,-348.502 659.909,-348.678 652.984,-348.122 641.063,-346.783 554.499,-331.547 514.998,-353.322 514.7,-353.494 521.61,-432.694 522.494,-440.437 522.712,-450.247 523.854,-473.658 524.707,-506.982 528.76,-585.527 543.8,-594.855 566.675,-583.731 631.305,-548.833 647.234,-540.856 655.778,-536.934 662.571,-534.382 "/>
<polyline fill="none" stroke="#000000" points="777.529,-501.873 747.392,-514.63 742.457,-516.514 730.523,-520.575 717.488,-523.909 717.365,-523.935 711.272,-524.977 686.433,-528.178 684.729,-528.467 670.079,-532.175 662.571,-534.382 655.778,-536.934 647.234,-540.856 631.305,-548.833 566.675,-583.731 543.8,-594.855 565.453,-634.191 568.028,-735.063 568.1,-735.926 568.564,-753.971 568.502,-771.649 570.261,-840.558 640.855,-873.79 654.588,-877.526 695.447,-911.889 763.513,-917.916 769.768,-918.619 783.851,-920.877 795.076,-923.212 797.372,-923.744 806.665,-926.341 812.533,-928.121 817.774,-929.962 828.559,-934.011 840.887,-939.229 852.583,-945.023 861.353,-949.577 865.849,-945.583 875.837,-937.675 881.847,-933.11 900.623,-920.612 982.632,-868.715 961.466,-821.021 949.568,-790.434 949.405,-789.933 945.322,-774.365 938.841,-754.601 932.858,-739.221 935.872,-736.586 937.295,-735.446 938.26,-734.587 948.374,-727.065 952.286,-724.728 965.103,-717.967 969.587,-716.27 979.876,-713.118 988.97,-711.675 995.321,-711.137 1006.87,-709.303 1013.81,-707.189 1020.35,-704.719 1022.03,-703.96 1032.89,-698.261 1038.72,-694.364 1044.79,-689.853 1067.46,-671.373 1086.2,-658.356 1125.65,-632.751 1103.15,-563.98 1076.06,-495.617 1078.03,-447.703 1036.9,-409.713 1017.99,-405.314 970.439,-364.432 966.147,-360.571 961.969,-356.964 960.832,-356.064 948.445,-345.76 946.219,-343.994 931.931,-333.726 920.81,-326.585 914.638,-322.861 912.228,-321.501 899.416,-315.239 897.566,-314.406 834.813,-288.549 833.968,-288.168 820.049,-281.348 804.83,-272.726 798.256,-268.257 794.481,-239.916 794.321,-237.701 794.266,-237.293 791.437,-234.674 785.34,-229.332 687.891,-148.816 682.962,-144.258 674.848,-136.342 675.16,-136.029 683.914,-127.68 689.014,-121.856 774.954,-28.9971 776.698,-27.2343 776.954,-19.8606 776.725,-12.4522 779.843,77.8649 703.239,109.454 691.694,109.081 671.524,108.875 667.407,109.014 652.731,110.163 644.377,111.186 631.096,113.401 624.71,109.61 543.61,63.8381 543.45,63.8249 528.639,63.2977 518.491,63.654 511.738,64.0505 505.451,64.5679 491.382,66.0577 467.015,69.2068 448.802,64.3698 422.494,44.6653 394.175,15.4803 381.292,-4.14283 383.452,-33.8067 385.282,-73.2997 385.049,-105.53 341.964,-175.135 317.023,-211.45 313.076,-223.221 335.152,-245.969 405.957,-322.3 414.586,-324.607 469.381,-338.11 484.994,-342.643 499.155,-347.37 502.558,-348.653 514.7,-353.494 514.998,-353.322 554.499,-331.547 641.063,-346.783 652.984,-348.122 659.909,-348.678 671.278,-348.502 676.407,-348.585 677.319,-348.658 689.402,-348.461 695.852,-348.766 713.963,-349.04 722.519,-363.767 735.413,-388.125 756.025,-437.981 760.75,-448.216 763.461,-452.689 785.067,-485.576 777.529,-501.873 "/>
<polyline fill="none" stroke="#000000" points="528.76,-585.527 543.8,-594.855 565.453,-634.191 568.028,-735.063 568.1,-735.926 568.564,-753.971 568.502,-771.649 570.261,-840.558 495.412,-875.034 452.041,-949.79 385.505,-972.988 381.406,-973.856 365.435,-977.639 358.365,-977.358 348.706,-977.646 334.436,-978.732 326.27,-979.731 310.72,-982.353 303.567,-984.053 294.708,-986.572 294.332,-986.688 277.624,-980.292 182.594,-946.347 176.354,-946.978 163.828,-948.748 160.729,-949.309 139.928,-953.919 129.32,-956.904 106.398,-940.743 30.2846,-875.504 24.1174,-844.569 10.5313,-784.878 7.71784,-774.788 14.8876,-726.836 5.05149,-715.232 -18.9651,-683.691 -41.8175,-613.076 -43.0229,-609.671 -44.0495,-576.054 -47.63,-533.527 -45.3822,-521.335 -12.8351,-484.656 -11.2132,-478.063 -7.37399,-458.322 2.12075,-433.397 22.1774,-376.033 60.251,-323.934 92.8105,-321.201 144.019,-287.275 218.023,-259.237 239.945,-249.233 250.016,-243.875 254.173,-241.452 258.812,-238.627 271.918,-235.794 276.44,-234.554 284.289,-232.246 313.076,-223.221 335.152,-245.969 405.957,-322.3 414.586,-324.607 469.381,-338.11 484.994,-342.643 499.155,-347.37 502.558,-348.653 514.7,-353.494 521.61,-432.694 522.494,-440.437 522.712,-450.247 523.854,-473.658 524.707,-506.982 528.76,-585.527 "/>
<polyline fill="none" stroke="#000000" points="920.81,-326.585 931.931,-333.726 946.219,-343.994 948.445,-345.76 960.832,-356.064 961.969,-356.964 966.147,-360.571 970.439,-364.432 1017.99,-405.314 1036.9,-409.713 1078.03,-447.703 1156.53,-422.616 1167.32,-419.384 1170.91,-418.384 1180.34,-415.942 1226.39,-405.899 1237.89,-393.885 1331.95,-291.175 1328.37,-266.879 1327.48,-258.392 1312.42,-223.251 1296.31,-183.063 1239.26,-131.356 1210.94,-66.7318 1194.52,-53.6924 1167.81,11.2839 1105.05,84.0175 1099.49,87.0789 1097.26,87.9047 1056.3,78.7624 1034.09,75.237 1021.71,74.0769 1011.95,73.7938 1003.03,73.7279 922.499,107.026 915.064,104.499 912.519,103.698 890.193,97.793 890.115,97.7744 885.907,96.9836 876.193,95.4028 867.89,94.2623 800.543,86.7253 779.843,77.8649 776.725,-12.4522 776.954,-19.8606 776.698,-27.2343 774.954,-28.9971 689.014,-121.856 683.914,-127.68 675.16,-136.029 674.848,-136.342 682.962,-144.258 687.891,-148.816 785.34,-229.332 791.437,-234.674 794.266,-237.293 794.321,-237.701 794.481,-239.916 798.256,-268.257 804.83,-272.726 820.049,-281.348 833.968,-288.168 834.813,-288.549 897.566,-314.406 899.416,-315.239 912.228,-321.501 914.638,-322.861 920.81,-326.585 "/>
<polyline fill="none" stroke="#000000" points="1259.47,-671.725 1259.84,-671.752 1265.07,-671.858 1267.64,-671.844 1273.57,-671.505 1279.16,-671.48 1280.1,-671.5 1282.85,-671.633 1287.76,-671.742 1316.28,-671.642 1336.86,-708.93 1365.86,-779.51 1394.78,-831.917 1421.06,-852.308 1422.26,-853.319 1428.56,-850.133 1446.15,-842.127 1458.69,-837.391 1555.77,-803.217 1570.8,-760.83 1570.78,-708.93 1572.98,-681.487 1636.23,-606.594 1632.14,-578.774 1631.04,-573.905 1629.25,-563.406 1621,-505.754 1585.6,-454.293 1584.01,-428.943 1583.7,-407.449 1525.87,-341.626 1510.64,-329.202 1503.6,-327.572 1457.25,-326.665 1444.19,-325.775 1433.05,-324.743 1424.47,-323.326 1418.86,-322.263 1415.5,-321.545 1414.63,-321.339 1408.38,-319.697 1386.99,-313.551 1385.34,-312.96 1331.95,-291.175 1237.89,-393.885 1226.39,-405.899 1180.34,-415.942 1170.91,-418.384 1167.32,-419.384 1156.53,-422.616 1078.03,-447.703 1076.06,-495.617 1103.15,-563.98 1125.65,-632.751 1127.34,-634.726 1153.21,-647.916 1157.64,-650.06 1167.66,-654.395 1186.41,-661.541 1189.18,-662.381 1196.26,-664.345 1214.16,-668.392 1221.88,-669.734 1237.6,-671.253 1243.84,-671.694 1256.82,-671.604 1259.47,-671.725 "/>
<polyline fill="none" stroke="#000000" points="1032.89,-698.261 1038.72,-694.364 1044.79,-689.853 1067.46,-671.373 1086.2,-658.356 1125.65,-632.751 1127.34,-634.726 1153.21,-647.916 1157.64,-650.06 1167.66,-654.395 1186.41,-661.541 1189.18,-662.381 1196.26,-664.345 1214.16,-668.392 1221.88,-669.734 1237.6,-671.253 1243.84,-671.694 1256.82,-671.604 1259.47,-671.725 1259.84,-671.752 1265.07,-671.858 1267.64,-671.844 1273.57,-671.505 1279.16,-671.48 1280.1,-671.5 1282.85,-671.633 1287.76,-671.742 1316.28,-671.642 1336.86,-708.93 1365.86,-779.51 1394.78,-831.917 1421.06,-852.308 1422.26,-853.319 1418.14,-873.335 1416.1,-878.29 1409.91,-894.446 1372.19,-1009.78 1345.2,-1026.96 1282.77,-1020.79 1280.89,-1020.68 1274.02,-1020.43 1261.58,-1020.23 1255.73,-1020.51 1243.41,-1021.34 1236.95,-1021.92 1227.75,-1023.11 1219.03,-1024.8 1211.24,-1026.47 1198.81,-1029.38 1187.54,-1032.73 1154.72,-1077.04 1062.59,-1106.28 1056.49,-1104.92 1052.06,-1104.04 1050.61,-1103.79 1034.95,-1101.45 1031.01,-1101.15 1014.83,-1100.34 1003.28,-1100.33 973.968,-1101.76 951.591,-1099.89 898.631,-1063.99 898.353,-1063.52 882.992,-1013.33 866.291,-963.39 861.795,-951.721 861.353,-949.577 865.849,-945.583 875.837,-937.675 881.847,-933.11 900.623,-920.612 982.632,-868.715 961.466,-821.021 949.568,-790.434 949.405,-789.933 945.322,-774.365 938.841,-754.601 932.858,-739.221 935.872,-736.586 937.295,-735.446 938.26,-734.587 948.374,-727.065 952.286,-724.728 965.103,-717.967 969.587,-716.27 979.876,-713.118 988.97,-711.675 995.321,-711.137 1006.87,-709.303 1013.81,-707.189 1020.35,-704.719 1022.03,-703.96 1032.89,-698.261 "/>
<!-- Игры&#45;&gt;PC -->
<g id="edge1" class="edge"><title>Игры&#45;&gt;PC</title>
<path fill="none" stroke="#555555" stroke-opacity="0.133333" d="M703.07,-465.96C743.07,-485.38 805.01,-515.45 844.32,-534.54"/>
<polygon fill="#555555" fill-opacity="0.133333" stroke="#555555" stroke-opacity="0.133333" points="843.275,-537.923 853.8,-539.14 846.331,-531.626 843.275,-537.923"/>
</g>
<!-- Игры&#45;&gt;Sega -->
<g id="edge2" class="edge"><title>Игры&#45;&gt;Sega</title>
<path fill="none" stroke="#555555" stroke-opacity="0.133333" d="M625.11,-465.31C562.92,-494.2 442.05,-550.35 377.4,-580.38"/>
<polygon fill="#555555" fill-opacity="0.133333" stroke="#555555" stroke-opacity="0.133333" points="375.886,-577.224 368.29,-584.61 378.834,-583.573 375.886,-577.224"/>
</g>
<!-- Игры&#45;&gt;Nintendo -->
<g id="edge3" class="edge"><title>Игры&#45;&gt;Nintendo</title>
<path fill="none" stroke="#555555" stroke-opacity="0.133333" d="M691.43,-423.98C740.51,-382.15 843.88,-294.04 897.77,-248.1"/>
<polygon fill="#555555" fill-opacity="0.133333" stroke="#555555" stroke-opacity="0.133333" points="900.321,-250.525 905.67,-241.38 895.785,-245.193 900.321,-250.525"/>
</g>
<!-- PC&#45;&gt;TES -->
<g id="edge4" class="edge"><title>PC&#45;&gt;TES</title>
<path fill="none" stroke="#555555" stroke-opacity="0.133333" d="M866.51,-530.55C830.08,-476.44 736.03,-336.76 697.46,-279.47"/>
<polygon fill="#555555" fill-opacity="0.133333" stroke="#555555" stroke-opacity="0.133333" points="700.255,-277.354 691.77,-271.01 694.447,-281.261 700.255,-277.354"/>
</g>
<!-- PC&#45;&gt;Skyrim -->
<g id="edge5" class="edge"><title>PC&#45;&gt;Skyrim</title>
<path fill="none" stroke="#555555" stroke-opacity="0.133333" d="M872.57,-528.94C860.94,-497.45 840.35,-441.7 827.99,-408.26"/>
<polygon fill="#555555" fill-opacity="0.133333" stroke="#555555" stroke-opacity="0.133333" points="831.186,-406.81 824.44,-398.64 824.619,-409.233 831.186,-406.81"/>
</g>
<!-- PC&#45;&gt;Vampires the masquerade: bloodline -->
<g id="edge6" class="edge"><title>PC&#45;&gt;Vampires the masquerade: bloodline</title>
<path fill="none" stroke="#555555" stroke-opacity="0.133333" d="M888.71,-575.97C894.52,-594.31 902.62,-619.85 908.76,-639.24"/>
<polygon fill="#555555" fill-opacity="0.133333" stroke="#555555" stroke-opacity="0.133333" points="905.504,-640.553 911.86,-649.03 912.178,-638.44 905.504,-640.553"/>
</g>
<!-- PC&#45;&gt;Mafia 2 -->
<g id="edge7" class="edge"><title>PC&#45;&gt;Mafia 2</title>
<path fill="none" stroke="#555555" stroke-opacity="0.133333" d="M851.36,-562.07C828.12,-569.53 795.6,-579.97 769.79,-588.26"/>
<polygon fill="#555555" fill-opacity="0.133333" stroke="#555555" stroke-opacity="0.133333" points="768.725,-584.926 760.27,-591.31 770.861,-591.592 768.725,-584.926"/>
</g>
<!-- PC&#45;&gt;Fallout -->
<g id="edge8" class="edge"><title>PC&#45;&gt;Fallout</title>
<path fill="none" stroke="#555555" stroke-opacity="0.133333" d="M913.95,-553.44C982.7,-555.49 1142.5,-560.23 1221.9,-562.59"/>
<polygon fill="#555555" fill-opacity="0.133333" stroke="#555555" stroke-opacity="0.133333" points="1222,-566.095 1232.1,-562.9 1222.21,-559.098 1222,-566.095"/>
</g>
<!-- PC&#45;&gt;Dark Souls -->
<g id="edge9" class="edge"><title>PC&#45;&gt;Dark Souls</title>
<path fill="none" stroke="#555555" stroke-opacity="0.133333" d="M896.26,-574.2C922.23,-611.84 975.49,-689.03 1003.4,-729.47"/>
<polygon fill="#555555" fill-opacity="0.133333" stroke="#555555" stroke-opacity="0.133333" points="1000.54,-731.493 1009.1,-737.74 1006.31,-727.52 1000.54,-731.493"/>
</g>
<!-- PC&#45;&gt;Mortal Kombat Komplete Edition -->
<g id="edge10" class="edge"><title>PC&#45;&gt;Mortal Kombat Komplete Edition</title>
<path fill="none" stroke="#555555" stroke-opacity="0.133333" d="M876.19,-576.61C866.5,-622.64 845.44,-722.74 835.17,-771.58"/>
<polygon fill="#555555" fill-opacity="0.133333" stroke="#555555" stroke-opacity="0.133333" points="831.725,-770.953 833.09,-781.46 838.575,-772.396 831.725,-770.953"/>
</g>
<!-- PC&#45;&gt;Uncharted Waters Online -->
<g id="edge11" class="edge"><title>PC&#45;&gt;Uncharted Waters Online</title>
<path fill="none" stroke="#555555" stroke-opacity="0.133333" d="M864.08,-573.11C835.11,-607.89 776.65,-678.08 745,-716.09"/>
<polygon fill="#555555" fill-opacity="0.133333" stroke="#555555" stroke-opacity="0.133333" points="742.013,-714.207 738.3,-724.13 747.391,-718.688 742.013,-714.207"/>
</g>
<!-- Sega&#45;&gt;Uncharted Waters &#45; New Horizons -->
<g id="edge12" class="edge"><title>Sega&#45;&gt;Uncharted Waters &#45; New Horizons</title>
<path fill="none" stroke="#555555" stroke-opacity="0.133333" d="M289.45,-597.76C284,-597.43 278.22,-597.08 272.24,-596.71"/>
<polygon fill="#555555" fill-opacity="0.133333" stroke="#555555" stroke-opacity="0.133333" points="272.183,-593.2 261.99,-596.09 271.76,-600.187 272.183,-593.2"/>
</g>
<!-- Sega&#45;&gt;Comix Zone -->
<g id="edge13" class="edge"><title>Sega&#45;&gt;Comix Zone</title>
<path fill="none" stroke="#555555" stroke-opacity="0.133333" d="M307.12,-581.25C271.57,-555.97 209.21,-511.64 171.46,-484.8"/>
<polygon fill="#555555" fill-opacity="0.133333" stroke="#555555" stroke-opacity="0.133333" points="173.06,-481.644 162.88,-478.71 169.009,-487.352 173.06,-481.644"/>
</g>
<!-- Sega&#45;&gt;Phantasy Star IV -->
<g id="edge14" class="edge"><title>Sega&#45;&gt;Phantasy Star IV</title>
<path fill="none" stroke="#555555" stroke-opacity="0.133333" d="M324.85,-576.64C309.16,-536.47 277.53,-455.49 260.93,-412.99"/>
<polygon fill="#555555" fill-opacity="0.133333" stroke="#555555" stroke-opacity="0.133333" points="264.146,-411.603 257.25,-403.56 257.625,-414.148 264.146,-411.603"/>
</g>
<!-- Sega&#45;&gt;Rock&#39;n&#39;Roll Racing -->
<g id="edge15" class="edge"><title>Sega&#45;&gt;Rock&#39;n&#39;Roll Racing</title>
<path fill="none" stroke="#555555" stroke-opacity="0.133333" d="M339.97,-576.52C345.76,-552.7 354.63,-516.15 360.73,-491"/>
<polygon fill="#555555" fill-opacity="0.133333" stroke="#555555" stroke-opacity="0.133333" points="364.202,-491.534 363.17,-480.99 357.401,-489.877 364.202,-491.534"/>
</g>
<!-- Sega&#45;&gt;Shinobi III &#45; Return of the Ninja Master -->
<g id="edge16" class="edge"><title>Sega&#45;&gt;Shinobi III &#45; Return of the Ninja Master</title>
<path fill="none" stroke="#555555" stroke-opacity="0.133333" d="M320.61,-623.66C298.17,-662.05 253.43,-738.62 229.67,-779.28"/>
<polygon fill="#555555" fill-opacity="0.133333" stroke="#555555" stroke-opacity="0.133333" points="226.545,-777.69 224.52,-788.09 232.588,-781.223 226.545,-777.69"/>
</g>
<!-- Sega&#45;&gt;Fatal Labyrinth -->
<g id="edge17" class="edge"><title>Sega&#45;&gt;Fatal Labyrinth</title>
<path fill="none" stroke="#555555" stroke-opacity="0.133333" d="M306.06,-619.4C285.27,-633.4 256.88,-652.52 234.95,-667.29"/>
<polygon fill="#555555" fill-opacity="0.133333" stroke="#555555" stroke-opacity="0.133333" points="232.935,-664.428 226.6,-672.92 236.848,-670.231 232.935,-664.428"/>
</g>
<!-- Sega&#45;&gt;Sonic the hedgehog 3 -->
<g id="edge18" class="edge"><title>Sega&#45;&gt;Sonic the hedgehog 3</title>
<path fill="none" stroke="#555555" stroke-opacity="0.133333" d="M333.63,-624.87C332.61,-672.28 330.36,-776.56 329.27,-826.81"/>
<polygon fill="#555555" fill-opacity="0.133333" stroke="#555555" stroke-opacity="0.133333" points="325.768,-826.876 329.05,-836.95 332.766,-827.028 325.768,-826.876"/>
</g>
<!-- Sega&#45;&gt;Streets of Rage III -->
<g id="edge19" class="edge"><title>Sega&#45;&gt;Streets of Rage III</title>
<path fill="none" stroke="#555555" stroke-opacity="0.133333" d="M348.45,-623.4C364.79,-649.62 391.51,-692.5 408.83,-720.29"/>
<polygon fill="#555555" fill-opacity="0.133333" stroke="#555555" stroke-opacity="0.133333" points="406.053,-722.451 414.31,-729.09 411.995,-718.751 406.053,-722.451"/>
</g>
<!-- Nintendo&#45;&gt;Blaster Master -->
<g id="edge20" class="edge"><title>Nintendo&#45;&gt;Blaster Master</title>
<path fill="none" stroke="#555555" stroke-opacity="0.133333" d="M903.72,-196.54C886.31,-182.86 864.03,-165.36 846.29,-151.42"/>
<polygon fill="#555555" fill-opacity="0.133333" stroke="#555555" stroke-opacity="0.133333" points="848.016,-148.325 837.99,-144.9 843.692,-153.83 848.016,-148.325"/>
</g>
<!-- Nintendo&#45;&gt;Chip&#39;n&#39;dale 2 -->
<g id="edge21" class="edge"><title>Nintendo&#45;&gt;Chip&#39;n&#39;dale 2</title>
<path fill="none" stroke="#555555" stroke-opacity="0.133333" d="M946.77,-195.2C964.97,-165.85 995.93,-115.92 1015,-85.241"/>
<polygon fill="#555555" fill-opacity="0.133333" stroke="#555555" stroke-opacity="0.133333" points="1018.18,-86.7416 1020.4,-76.381 1012.21,-83.0985 1018.18,-86.7416"/>
</g>
<!-- Nintendo&#45;&gt;Excitebike -->
<g id="edge22" class="edge"><title>Nintendo&#45;&gt;Excitebike</title>
<path fill="none" stroke="#555555" stroke-opacity="0.133333" d="M927.27,-194.61C920.07,-158.49 906.55,-90.714 898.93,-52.468"/>
<polygon fill="#555555" fill-opacity="0.133333" stroke="#555555" stroke-opacity="0.133333" points="902.333,-51.6347 896.94,-42.515 895.469,-53.0072 902.333,-51.6347"/>
</g>
<!-- Nintendo&#45;&gt;Contra Force -->
<g id="edge23" class="edge"><title>Nintendo&#45;&gt;Contra Force</title>
<path fill="none" stroke="#555555" stroke-opacity="0.133333" d="M988.82,-203.08C1005,-198.59 1022.5,-193.71 1038.5,-189.27"/>
<polygon fill="#555555" fill-opacity="0.133333" stroke="#555555" stroke-opacity="0.133333" points="1039.5,-192.625 1048.2,-186.58 1037.63,-185.88 1039.5,-192.625"/>
</g>
<!-- Nintendo&#45;&gt;Kage -->
<g id="edge24" class="edge"><title>Nintendo&#45;&gt;Kage</title>
<path fill="none" stroke="#555555" stroke-opacity="0.133333" d="M1001.2,-228.26C1043.6,-234.04 1096.4,-241.23 1131.8,-246.05"/>
<polygon fill="#555555" fill-opacity="0.133333" stroke="#555555" stroke-opacity="0.133333" points="1131.32,-249.517 1141.7,-247.4 1132.26,-242.581 1131.32,-249.517"/>
</g>
<!-- TES&#45;&gt;Skyrim -->
<g id="edge25" class="edge"><title>TES&#45;&gt;Skyrim</title>
<path fill="none" stroke="#555555" stroke-opacity="0.133333" d="M696.59,-269.12C720.23,-290.88 764.72,-331.81 792.72,-357.57"/>
<polygon fill="#555555" fill-opacity="0.133333" stroke="#555555" stroke-opacity="0.133333" points="790.419,-360.209 800.15,-364.4 795.157,-355.056 790.419,-360.209"/>
</g>
<!-- TES&#45;&gt;Morrowind -->
<g id="edge26" class="edge"><title>TES&#45;&gt;Morrowind</title>
<path fill="none" stroke="#555555" stroke-opacity="0.133333" d="M678.91,-236.24C675.15,-195.33 665.99,-95.693 661.47,-46.474"/>
<polygon fill="#555555" fill-opacity="0.133333" stroke="#555555" stroke-opacity="0.133333" points="664.928,-45.8535 660.52,-36.219 657.957,-46.4992 664.928,-45.8535"/>
</g>
<!-- TES&#45;&gt;Oblivion -->
<g id="edge27" class="edge"><title>TES&#45;&gt;Oblivion</title>
<path fill="none" stroke="#555555" stroke-opacity="0.133333" d="M655.72,-247.03C625.23,-237.99 572.97,-222.49 535.38,-211.34"/>
<polygon fill="#555555" fill-opacity="0.133333" stroke="#555555" stroke-opacity="0.133333" points="536.252,-207.948 525.67,-208.47 534.268,-214.661 536.252,-207.948"/>
</g>
<!-- TES&#45;&gt;TES Online -->
<g id="edge28" class="edge"><title>TES&#45;&gt;TES Online</title>
<path fill="none" stroke="#555555" stroke-opacity="0.133333" d="M667.83,-238.51C640.83,-204.87 577.7,-126.23 545.08,-85.577"/>
<polygon fill="#555555" fill-opacity="0.133333" stroke="#555555" stroke-opacity="0.133333" points="547.78,-83.3493 538.79,-77.743 542.322,-87.7319 547.78,-83.3493"/>
</g>
<!-- Fallout&#45;&gt;Fallout 3 -->
<g id="edge29" class="edge"><title>Fallout&#45;&gt;Fallout 3</title>
<path fill="none" stroke="#555555" stroke-opacity="0.133333" d="M1286.9,-579.76C1316.7,-605.37 1375.7,-656.09 1410.2,-685.78"/>
<polygon fill="#555555" fill-opacity="0.133333" stroke="#555555" stroke-opacity="0.133333" points="1408.14,-688.622 1418,-692.49 1412.7,-683.315 1408.14,-688.622"/>
</g>
<!-- Fallout&#45;&gt;Fallout 4 -->
<g id="edge30" class="edge"><title>Fallout&#45;&gt;Fallout 4</title>
<path fill="none" stroke="#555555" stroke-opacity="0.133333" d="M1305,-565C1342.2,-566.05 1400.5,-567.69 1443.1,-568.88"/>
<polygon fill="#555555" fill-opacity="0.133333" stroke="#555555" stroke-opacity="0.133333" points="1443.2,-572.384 1453.3,-569.17 1443.4,-565.387 1443.2,-572.384"/>
</g>
<!-- Fallout&#45;&gt;Fallout: New Vegas -->
<g id="edge31" class="edge"><title>Fallout&#45;&gt;Fallout: New Vegas</title>
<path fill="none" stroke="#555555" stroke-opacity="0.133333" d="M1287.6,-548.38C1313,-527.7 1357.9,-491 1387.6,-466.78"/>
<polygon fill="#555555" fill-opacity="0.133333" stroke="#555555" stroke-opacity="0.133333" points="1389.98,-469.354 1395.5,-460.31 1385.55,-463.938 1389.98,-469.354"/>
</g>
<!-- Dark Souls&#45;&gt;Dark Souls: Prepare to Die Edition -->
<g id="edge32" class="edge"><title>Dark Souls&#45;&gt;Dark Souls: Prepare to Die Edition</title>
<path fill="none" stroke="#555555" stroke-opacity="0.133333" d="M1070.1,-761.43C1081.6,-762.83 1094.4,-764.39 1107.5,-765.98"/>
<polygon fill="#555555" fill-opacity="0.133333" stroke="#555555" stroke-opacity="0.133333" points="1107.15,-769.463 1117.5,-767.21 1108,-762.515 1107.15,-769.463"/>
</g>
<!-- Dark Souls&#45;&gt;Dark Souls 2: Scholar of the First Sin -->
<g id="edge33" class="edge"><title>Dark Souls&#45;&gt;Dark Souls 2: Scholar of the First Sin</title>
<path fill="none" stroke="#555555" stroke-opacity="0.133333" d="M1044.8,-771.61C1078.8,-794.98 1141.9,-838.41 1181.2,-865.43"/>
<polygon fill="#555555" fill-opacity="0.133333" stroke="#555555" stroke-opacity="0.133333" points="1179.47,-868.49 1189.7,-871.26 1183.43,-862.717 1179.47,-868.49"/>
</g>
<!-- Dark Souls&#45;&gt;Demon Souls -->
<g id="edge34" class="edge"><title>Dark Souls&#45;&gt;Demon Souls</title>
<path fill="none" stroke="#555555" stroke-opacity="0.133333" d="M1022.1,-773.58C1023.6,-812.81 1027.2,-905.9 1029,-952.98"/>
<polygon fill="#555555" fill-opacity="0.133333" stroke="#555555" stroke-opacity="0.133333" points="1025.51,-953.236 1029.4,-963.09 1032.5,-952.959 1025.51,-953.236"/>
</g>
<!-- Игры -->
<g id="node1" class="node"><title>Игры</title>
<text text-anchor="middle" x="664.27" y="-440.82" font-family="Helvetica,sans-Serif" font-weight="bold" font-size="26.00">Игры</text>
</g>
<!-- PC -->
<g id="node2" class="node"><title>PC</title>
<text text-anchor="middle" x="881.26" y="-546.27" font-family="Helvetica,sans-Serif" font-weight="bold" font-size="24.00">PC</text>
</g>
<!-- Sega -->
<g id="node3" class="node"><title>Sega</title>
<text text-anchor="middle" x="334.16" y="-594.27" font-family="Helvetica,sans-Serif" font-weight="bold" font-size="24.00">Sega</text>
</g>
<!-- Nintendo -->
<g id="node4" class="node"><title>Nintendo</title>
<text text-anchor="middle" x="932.1" y="-212.65" font-family="Helvetica,sans-Serif" font-weight="bold" font-size="24.00">Nintendo</text>
</g>
<!-- TES -->
<g id="node5" class="node"><title>TES</title>
<text text-anchor="middle" x="680.58" y="-250.7" font-family="Helvetica,sans-Serif" font-weight="bold" font-size="14.00">TES</text>
</g>
<!-- Skyrim -->
<g id="node6" class="node"><title>Skyrim</title>
<text text-anchor="middle" x="817.78" y="-376.92" font-family="Helvetica,sans-Serif" font-weight="bold" font-size="14.00">Skyrim</text>
</g>
<!-- Vampires the masquerade: bloodline -->
<g id="node7" class="node"><title>Vampires the masquerade: bloodline</title>
<text text-anchor="middle" x="917.63" y="-663.52" font-family="Helvetica,sans-Serif" font-weight="bold" font-size="14.00">Vampires the masquerade: bloodline</text>
</g>
<!-- Mafia 2 -->
<g id="node8" class="node"><title>Mafia 2</title>
<text text-anchor="middle" x="728.06" y="-597.95" font-family="Helvetica,sans-Serif" font-weight="bold" font-size="14.00">Mafia 2</text>
</g>
<!-- Fallout -->
<g id="node9" class="node"><title>Fallout</title>
<text text-anchor="middle" x="1268.5" y="-560.28" font-family="Helvetica,sans-Serif" font-weight="bold" font-size="14.00">Fallout</text>
</g>
<!-- Dark Souls -->
<g id="node10" class="node"><title>Dark Souls</title>
<text text-anchor="middle" x="1021.4" y="-751.79" font-family="Helvetica,sans-Serif" font-weight="bold" font-size="14.00">Dark Souls</text>
</g>
<!-- Mortal Kombat Komplete Edition -->
<g id="node11" class="node"><title>Mortal Kombat Komplete Edition</title>
<text text-anchor="middle" x="829.29" y="-795.8" font-family="Helvetica,sans-Serif" font-weight="bold" font-size="14.00">Mortal Kombat Komplete Edition</text>
</g>
<!-- Uncharted Waters Online -->
<g id="node12" class="node"><title>Uncharted Waters Online</title>
<text text-anchor="middle" x="723.46" y="-738.25" font-family="Helvetica,sans-Serif" font-weight="bold" font-size="14.00">Uncharted Waters Online</text>
</g>
<!-- Uncharted Waters &#45; New Horizons -->
<g id="node13" class="node"><title>Uncharted Waters &#45; New Horizons</title>
<text text-anchor="middle" x="137.14" y="-584.82" font-family="Helvetica,sans-Serif" font-weight="bold" font-size="14.00">Uncharted Waters &#45; New Horizons</text>
</g>
<!-- Comix Zone -->
<g id="node14" class="node"><title>Comix Zone</title>
<text text-anchor="middle" x="139.72" y="-458.54" font-family="Helvetica,sans-Serif" font-weight="bold" font-size="14.00">Comix Zone</text>
</g>
<!-- Phantasy Star IV -->
<g id="node15" class="node"><title>Phantasy Star IV</title>
<text text-anchor="middle" x="250.21" y="-381.83" font-family="Helvetica,sans-Serif" font-weight="bold" font-size="14.00">Phantasy Star IV</text>
</g>
<!-- Rock&#39;n&#39;Roll Racing -->
<g id="node16" class="node"><title>Rock&#39;n&#39;Roll Racing</title>
<text text-anchor="middle" x="367.53" y="-459.31" font-family="Helvetica,sans-Serif" font-weight="bold" font-size="14.00">Rock&#39;n&#39;Roll Racing</text>
</g>
<!-- Shinobi III &#45; Return of the Ninja Master -->
<g id="node17" class="node"><title>Shinobi III &#45; Return of the Ninja Master</title>
<text text-anchor="middle" x="213.99" y="-802.4" font-family="Helvetica,sans-Serif" font-weight="bold" font-size="14.00">Shinobi III &#45; Return of the Ninja Master</text>
</g>
<!-- Fatal Labyrinth -->
<g id="node18" class="node"><title>Fatal Labyrinth</title>
<text text-anchor="middle" x="201.67" y="-686.01" font-family="Helvetica,sans-Serif" font-weight="bold" font-size="14.00">Fatal Labyrinth</text>
</g>
<!-- Sonic the hedgehog 3 -->
<g id="node19" class="node"><title>Sonic the hedgehog 3</title>
<text text-anchor="middle" x="328.66" y="-851.27" font-family="Helvetica,sans-Serif" font-weight="bold" font-size="14.00">Sonic the hedgehog 3</text>
</g>
<!-- Streets of Rage III -->
<g id="node20" class="node"><title>Streets of Rage III</title>
<text text-anchor="middle" x="425.62" y="-743.53" font-family="Helvetica,sans-Serif" font-weight="bold" font-size="14.00">Streets of Rage III</text>
</g>
<!-- Blaster Master -->
<g id="node21" class="node"><title>Blaster Master</title>
<text text-anchor="middle" x="816.08" y="-123.98" font-family="Helvetica,sans-Serif" font-weight="bold" font-size="14.00">Blaster Master</text>
</g>
<!-- Chip&#39;n&#39;dale 2 -->
<g id="node22" class="node"><title>Chip&#39;n&#39;dale 2</title>
<text text-anchor="middle" x="1031.5" y="-54.89" font-family="Helvetica,sans-Serif" font-weight="bold" font-size="14.00">Chip&#39;n&#39;dale 2</text>
</g>
<!-- Excitebike -->
<g id="node23" class="node"><title>Excitebike</title>
<text text-anchor="middle" x="893.32" y="-20.645" font-family="Helvetica,sans-Serif" font-weight="bold" font-size="14.00">Excitebike</text>
</g>
<!-- Contra Force -->
<g id="node24" class="node"><title>Contra Force</title>
<text text-anchor="middle" x="1091.7" y="-170.79" font-family="Helvetica,sans-Serif" font-weight="bold" font-size="14.00">Contra Force</text>
</g>
<!-- Kage -->
<g id="node25" class="node"><title>Kage</title>
<text text-anchor="middle" x="1171.1" y="-247.7" font-family="Helvetica,sans-Serif" font-weight="bold" font-size="14.00">Kage</text>
</g>
<!-- Morrowind -->
<g id="node26" class="node"><title>Morrowind</title>
<text text-anchor="middle" x="658.85" y="-14.3" font-family="Helvetica,sans-Serif" font-weight="bold" font-size="14.00">Morrowind</text>
</g>
<!-- Oblivion -->
<g id="node27" class="node"><title>Oblivion</title>
<text text-anchor="middle" x="490.46" y="-194.33" font-family="Helvetica,sans-Serif" font-weight="bold" font-size="14.00">Oblivion</text>
</g>
<!-- TES Online -->
<g id="node28" class="node"><title>TES Online</title>
<text text-anchor="middle" x="524.74" y="-56.545" font-family="Helvetica,sans-Serif" font-weight="bold" font-size="14.00">TES Online</text>
</g>
<!-- Fallout 3 -->
<g id="node29" class="node"><title>Fallout 3</title>
<text text-anchor="middle" x="1437.1" y="-705.23" font-family="Helvetica,sans-Serif" font-weight="bold" font-size="14.00">Fallout 3</text>
</g>
<!-- Fallout 4 -->
<g id="node30" class="node"><title>Fallout 4</title>
<text text-anchor="middle" x="1497" y="-566.7" font-family="Helvetica,sans-Serif" font-weight="bold" font-size="14.00">Fallout 4</text>
</g>
<!-- Fallout: New Vegas -->
<g id="node31" class="node"><title>Fallout: New Vegas</title>
<text text-anchor="middle" x="1417" y="-439.11" font-family="Helvetica,sans-Serif" font-weight="bold" font-size="14.00">Fallout: New Vegas</text>
</g>
<!-- Dark Souls: Prepare to Die Edition -->
<g id="node32" class="node"><title>Dark Souls: Prepare to Die Edition</title>
<text text-anchor="middle" x="1218.5" y="-775.81" font-family="Helvetica,sans-Serif" font-weight="bold" font-size="14.00">Dark Souls: Prepare to Die Edition</text>
</g>
<!-- Dark Souls 2: Scholar of the First Sin -->
<g id="node33" class="node"><title>Dark Souls 2: Scholar of the First Sin</title>
<text text-anchor="middle" x="1215.7" y="-885.44" font-family="Helvetica,sans-Serif" font-weight="bold" font-size="14.00">Dark Souls 2: Scholar of the First Sin</text>
</g>
<!-- Demon Souls -->
<g id="node34" class="node"><title>Demon Souls</title>
<text text-anchor="middle" x="1030.1" y="-977.58" font-family="Helvetica,sans-Serif" font-weight="bold" font-size="14.00">Demon Souls</text>
</g>
</g>
</svg>
