<?xml version="1.0" encoding="UTF-8" standalone="no"?>
<!DOCTYPE svg PUBLIC "-//W3C//DTD SVG 1.1//EN"
 "http://www.w3.org/Graphics/SVG/1.1/DTD/svg11.dtd">
<!-- Generated by graphviz version 2.38.0 (20140413.2041)
 -->
<!-- Title: G Pages: 1 -->
<svg width="2025pt" height="1956pt"
 viewBox="0.00 0.00 2025.04 1956.09" xmlns="http://www.w3.org/2000/svg" xmlns:xlink="http://www.w3.org/1999/xlink">
<g id="graph0" class="graph" transform="scale(1 1) rotate(0) translate(110.572 1842.56)">
<title>G</title>
<polygon fill="#dae2ff" stroke="none" points="-110.572,113.534 -110.572,-1842.56 1914.47,-1842.56 1914.47,113.534 -110.572,113.534"/>
<polygon fill="#dad1de" stroke="#dad1de" points="373.392,-1139.53 378.306,-1136.25 381.334,-1134.47 431.648,-1108.78 443.255,-1101.97 453.794,-1095.03 457.468,-1092.36 459.651,-1090.61 476.668,-1074.4 484.292,-1066.6 487.216,-1064.12 552.867,-1004.58 552.09,-912.596 549.995,-911.576 458.251,-871.824 398.829,-885.022 385.074,-887.785 314.982,-857.79 310.895,-856.171 291.323,-849.035 223.495,-828.708 200.332,-820.278 192.698,-817.024 191.653,-816.546 164.658,-802.443 152.898,-795.941 105.605,-820.743 30.8763,-915.308 15.3813,-918.593 25.4273,-1065.59 28.7121,-1068.8 31.5264,-1068.8 31.9147,-1068.95 33.6179,-1068.95 39.0637,-1073.24 46.6948,-1073.24 52.0435,-1069 46.617,-1064.6 46.617,-1064.6 52.0435,-1069 46.6948,-1073.24 39.0637,-1073.24 33.6179,-1068.95 31.9147,-1068.95 31.5264,-1068.8 28.7121,-1068.8 25.4273,-1065.59 15.3813,-918.593 -34.2132,-927.803 -62.4563,-940.723 -94.0945,-1037.44 -106.572,-1071.06 -98.9123,-1101.49 -97.1903,-1109.62 -34.789,-1194.04 -38.5244,-1225.89 -43.8662,-1260.42 -35.5183,-1276.99 1.42259,-1357.71 86.1512,-1380.69 96.5487,-1383.82 111.66,-1389.29 117.866,-1391.73 118.023,-1391.79 120.785,-1388.86 130.517,-1379.07 138.39,-1370.52 195.309,-1303.42 249.814,-1311.03 259.878,-1311.83 266.56,-1311.97 268.529,-1311.77 280.829,-1312.1 285.675,-1311.94 285.928,-1311.91 287.728,-1311.64 294.627,-1311.45 294.887,-1307.02 294.887,-1307.02 294.627,-1311.45 302.623,-1312.24 306.824,-1312.16 321.31,-1312.76 323.212,-1312.96 324.465,-1313.17 400.269,-1330.62 440.592,-1298.44 432.837,-1287.46 403.958,-1249.1 353.254,-1249.1 328.071,-1244.09 330.104,-1157.76 333.343,-1157.62 333.095,-1146.81 327.626,-1070.83 277.974,-1074.59 270.221,-1058.02 254.626,-1030.83 243.726,-1032.14 239.035,-1107.42 239.035,-1107.42 243.726,-1032.14 254.626,-1030.83 270.221,-1058.02 277.974,-1074.59 327.626,-1070.83 333.095,-1146.81 335.178,-1066.61 335.178,-1066.61 333.095,-1146.81 333.343,-1157.62 330.104,-1157.76 328.071,-1244.09 353.254,-1249.1 403.958,-1249.1 360.216,-1173 349.764,-1159.12 361.261,-1148.63 373.392,-1139.53 373.392,-1139.53"/>
<polygon fill="#f1d3bf" stroke="#f1d3bf" points="645.111,-359.86 644.284,-359.292 630.711,-348.273 584.154,-315.879 583.579,-369.78 579.666,-373.67 576.628,-373.67 576.559,-373.698 573.988,-373.698 569.117,-377.693 569.117,-377.693 573.988,-373.698 576.559,-373.698 576.628,-373.67 579.666,-373.67 583.579,-369.78 584.154,-315.879 574.533,-308.024 573.205,-307.108 570.991,-305.359 560.938,-296.334 559.412,-294.804 539.302,-272.364 538.254,-271.093 528.635,-260.539 531.38,-245.242 534.633,-230.674 540.001,-210.55 515.618,-144.881 498.352,-107.711 485.312,-81.265 453.273,-109.684 415.257,-146.014 414.761,-146.449 410.905,-149.539 405.373,-154.516 402.927,-156.513 399.112,-232.914 392.172,-235.758 390.08,-238.372 391.025,-239.459 391.025,-239.459 390.08,-238.372 392.172,-235.758 399.112,-232.914 402.927,-156.513 390.832,-165.419 383.62,-170.124 381.135,-171.537 329.802,-196.608 317.791,-203.48 312.989,-206.611 295.656,-220.864 292.417,-223.227 266.254,-244.139 258.806,-256.057 259.218,-261.073 260.036,-280.323 253.877,-285.316 247.138,-290.468 141.94,-361.342 129.04,-370.635 128.476,-371.094 117.113,-380.875 108.155,-389.011 92.0982,-404.341 91.8949,-404.544 88.6124,-407.97 224.142,-407.97 242.889,-413.058 248.866,-410.429 250.472,-408.511 250.472,-407.408 255.823,-403.484 262.062,-403.484 264.151,-355.141 269.441,-405.531 275.012,-402.905 296.927,-407.97 320.683,-407.97 320.939,-403.22 320.939,-403.22 320.683,-407.97 296.927,-407.97 275.012,-402.905 269.441,-405.531 264.151,-355.141 262.062,-403.484 255.823,-403.484 250.472,-407.408 250.472,-408.511 256.17,-412.699 261.813,-412.699 261.813,-412.699 256.17,-412.699 250.472,-408.511 248.866,-410.429 242.889,-413.058 224.142,-407.97 88.6124,-407.97 86.8539,-409.599 63.1365,-432.54 66.3343,-448.217 189.621,-578.429 224.598,-572.688 297.476,-612.905 306.617,-617.193 379.943,-645.646 391.058,-650.398 402.71,-655.829 403.563,-656.259 403.904,-633.604 403.904,-633.604 403.563,-656.259 405.867,-657.6 425.144,-669.612 427.895,-666.786 445.818,-651.192 449.128,-648.665 453.953,-644.712 461.351,-639.063 469.617,-633.213 471.634,-631.899 472.702,-541.472 472.924,-541.391 478.224,-541.391 479.48,-539.794 475.068,-467.412 491.266,-464.936 519.984,-459.136 503.227,-395.563 502.213,-385.361 471.371,-384.261 471.371,-384.261 502.213,-385.361 503.227,-395.563 519.984,-459.136 491.266,-464.936 475.068,-467.412 479.48,-539.794 478.224,-541.391 472.924,-541.391 472.702,-541.472 471.634,-631.899 474.547,-630.162 485.974,-623.956 543.023,-596.133 562.799,-585.348 569.816,-580.771 571.513,-579.573 581.409,-572.023 581.556,-571.903 588.944,-565.434 604.864,-550.574 613.443,-541.63 616.694,-538.695 623.329,-532.073 634.136,-520.76 637.485,-520.27 659.435,-515.568 663.09,-514.621 666.383,-513.693 672.262,-511.903 695.274,-504.369 699.489,-502.802 702.612,-501.571 698.095,-417.406 689.969,-407.505 677.653,-393.453 670.935,-384.963 661.08,-374.425 650.083,-363.728 645.111,-359.86 645.111,-359.86"/>
<polygon fill="#c2dfd1" stroke="#c2dfd1" points="728.01,-365.694 731.9,-357.953 751.944,-311.038 772.547,-270.708 783.227,-252.246 792.97,-251.325 803.536,-251.015 813.554,-251.374 819.245,-250.999 833.048,-250.54 832.626,-291.697 827.971,-361.611 822.533,-361.611 821.796,-361.904 820.373,-457.517 827.825,-447.383 846.076,-426.741 882.671,-422.629 904.978,-423.998 912.023,-416.867 913.538,-413.796 913.57,-413.759 917.288,-413.759 918.098,-413.967 925.091,-413.967 925.154,-413.951 931.343,-413.951 931.735,-473.473 939.778,-414.028 942.423,-414.028 949.172,-455.603 951.967,-414.252 951.967,-414.252 949.172,-455.603 942.423,-414.028 939.778,-414.028 931.735,-473.473 931.343,-413.951 932.771,-413.587 932.771,-413.587 931.343,-413.951 925.154,-413.951 925.091,-413.967 918.098,-413.967 917.288,-413.759 913.57,-413.759 913.538,-413.796 912.023,-416.867 904.978,-423.998 882.671,-422.629 846.076,-426.741 827.825,-447.383 820.373,-457.517 821.796,-361.904 822.533,-361.611 827.971,-361.611 828.613,-361.863 829.808,-361.863 835.9,-366.613 841.906,-366.613 846.419,-413.317 846.611,-425.968 856.825,-414.581 861.091,-410.522 865.373,-405.71 865.373,-405.71 861.091,-410.522 856.825,-414.581 846.611,-425.968 846.419,-413.317 841.906,-366.613 835.9,-366.613 829.808,-361.863 828.613,-361.863 827.971,-361.611 832.626,-291.697 833.048,-250.54 842.962,-249.539 849.74,-248.625 851.712,-248.293 868.974,-244.794 878.008,-242.354 883.198,-232.404 900.168,-196.181 983.43,-187.148 985.421,-187.091 991.316,-187.396 998.702,-187.179 1000.85,-187.288 998.406,-235.7 997.004,-237.26 997.004,-238.275 999.026,-240.654 1005.38,-243.057 1005.38,-243.057 999.026,-240.654 997.004,-238.275 997.004,-237.26 998.406,-235.7 1000.85,-187.288 1003.84,-187.199 1006.4,-186.916 1015.25,-187.355 1016.24,-187.324 1018.61,-187.059 1022.43,-186.937 1025.84,-187.102 1040.72,-189.021 1051.3,-192.079 1054.28,-193.175 1062.52,-196.885 1078.34,-205.287 1078.98,-205.727 1083.57,-209.243 1098.84,-222.285 1098.4,-230.483 1098.46,-241.088 1098.22,-245.51 1098.25,-251.234 1096.53,-283.303 1146.46,-298.792 1158.1,-301.621 1161.74,-302.257 1165.86,-302.699 1173.28,-302.997 1173.52,-354.482 1167.22,-356.814 1164.57,-359.822 1161.84,-359.822 1157.54,-390.261 1157.65,-411.706 1145.91,-400.603 1138.08,-394.561 1108.88,-405.859 1106.31,-409.633 1100.23,-413.527 1100.19,-413.515 1097.51,-413.515 1091.31,-374.41 1090.36,-346.617 1082.2,-337.076 1082.41,-413.704 1077.26,-413.704 1074.95,-414.308 1069.25,-414.308 1069.25,-355.674 1060.83,-413.875 1056.24,-413.875 1055.55,-414.045 1051.43,-414.045 1050.55,-413.82 1050.55,-413.82 1051.43,-414.045 1055.55,-414.045 1056.24,-413.875 1060.83,-413.875 1069.25,-355.674 1069.25,-414.308 1074.95,-414.308 1077.26,-413.704 1082.41,-413.704 1082.2,-337.076 1090.36,-346.617 1091.31,-374.41 1097.51,-413.515 1100.19,-413.515 1100.23,-413.527 1106.31,-409.633 1108.88,-405.859 1138.08,-394.561 1145.91,-400.603 1157.65,-411.706 1157.54,-390.261 1161.84,-359.822 1164.57,-359.822 1166.33,-361.647 1166.33,-361.647 1164.57,-359.822 1167.22,-356.814 1173.52,-354.482 1173.28,-302.997 1173.32,-302.996 1176.02,-302.739 1184.59,-302.617 1190.28,-302.999 1195.38,-302.646 1202.19,-302.728 1202.26,-302.724 1208.24,-302.874 1285.46,-311.022 1313.22,-359.42 1347.05,-408.675 1336.65,-416.442 1238.91,-485.809 1235.38,-539.693 1233.75,-554.5 1232.82,-596.911 1231.62,-615.148 1128.23,-596.217 1121.54,-595.689 1115.86,-595.833 1114.97,-595.762 1108.93,-595.904 1108.08,-595.834 1102.57,-595.955 1101.88,-595.898 1095.37,-596.03 1093.09,-595.834 1092.61,-595.843 1080.38,-594.767 1076.01,-593.92 1065.16,-590.659 1050.74,-583.257 1040.11,-575.556 1027.65,-565.233 1009.92,-552.559 995.148,-575.159 970.589,-618.933 943.398,-660.516 940.918,-663.937 921.695,-648.698 919.798,-647.424 906.631,-637.753 898.541,-632.871 894.766,-630.836 891.779,-557.237 891.797,-557.23 896.295,-557.23 898.65,-559.863 904.984,-562.221 904.984,-562.221 898.65,-559.863 896.295,-557.23 891.797,-557.23 891.779,-557.237 894.766,-630.836 885.8,-626.57 835.207,-605.758 831.124,-603.823 823.689,-599.827 823.189,-599.526 812.162,-592.172 801.918,-583.985 795.055,-579.112 784.371,-570.918 780.159,-566.96 759.973,-546.731 756.869,-543.269 730.727,-510.869 730.589,-510.667 729.746,-509.502 703.889,-502.023 702.612,-501.571 698.095,-417.406 728.01,-365.694 728.01,-365.694"/>
<polygon fill="#ccebc5" stroke="#ccebc5" points="814.112,-1630.24 829.762,-1620.91 839.489,-1615.43 926.893,-1572.04 960.028,-1541.91 934.371,-1495.03 918.385,-1462.07 894.346,-1403.9 851.301,-1325.25 859.236,-1313.25 817.468,-1231.69 814.277,-1224.48 798.524,-1182.32 785.369,-1153.1 769.948,-1149.36 749.635,-1146.3 745.636,-1146.08 738.43,-1146.01 733.198,-1146.2 724.152,-1145.73 716.018,-1146.07 713.411,-1146.06 702.723,-1145.08 606.817,-1132 591.565,-1092.67 564.543,-1029.73 552.867,-1004.58 487.216,-1064.12 484.292,-1066.6 476.668,-1074.4 459.651,-1090.61 457.468,-1092.36 453.794,-1095.03 443.255,-1101.97 431.648,-1108.78 381.334,-1134.47 378.306,-1136.25 373.392,-1139.53 361.261,-1148.63 349.764,-1159.12 360.216,-1173 403.958,-1249.1 432.837,-1287.46 440.592,-1298.44 447.009,-1297.98 461.919,-1298.14 462.068,-1339.49 466.105,-1423.52 469.607,-1426.87 471.767,-1426.87 472.663,-1426.65 478.734,-1426.65 478.903,-1426.69 484.726,-1426.69 487.285,-1471.61 494.014,-1427.17 498.049,-1427.17 498.267,-1427.11 498.267,-1427.11 498.049,-1427.17 494.014,-1427.17 487.285,-1471.61 484.726,-1426.69 478.903,-1426.69 478.734,-1426.65 472.663,-1426.65 471.767,-1426.87 469.607,-1426.87 466.105,-1423.52 462.068,-1339.49 461.919,-1298.14 447.009,-1297.98 440.592,-1298.44 400.269,-1330.62 324.465,-1313.17 323.212,-1312.96 321.31,-1312.76 306.824,-1312.16 302.623,-1312.24 294.627,-1311.45 287.728,-1311.64 285.928,-1311.91 285.675,-1311.94 280.829,-1312.1 277.61,-1369.58 284.107,-1371.86 287.047,-1375.02 285.023,-1377.09 285.023,-1377.09 287.047,-1375.02 284.107,-1371.86 277.61,-1369.58 280.829,-1312.1 268.529,-1311.77 266.56,-1311.97 259.878,-1311.83 249.814,-1311.03 195.309,-1303.42 138.39,-1370.52 130.517,-1379.07 120.785,-1388.86 118.023,-1391.79 130.427,-1419.73 218.51,-1527.22 223.326,-1532.01 205.492,-1608.54 206.586,-1616.37 209.494,-1643.64 209.539,-1644.26 294.908,-1776.59 344.144,-1779.1 359.536,-1780.25 358.371,-1691.1 361.291,-1632.9 367.403,-1635.14 374.263,-1632.54 376.271,-1630.28 373.954,-1627.56 367.586,-1625.14 367.586,-1625.14 373.954,-1627.56 376.271,-1630.28 374.263,-1632.54 367.403,-1635.14 361.291,-1632.9 358.371,-1691.1 359.536,-1780.25 373.166,-1781.91 377.951,-1782.72 381.025,-1782.2 382.514,-1781.99 403.346,-1779.48 467.146,-1762.66 502.865,-1783.56 593.03,-1819.59 593.836,-1819.94 611.263,-1827.95 623.356,-1833.85 624.717,-1834.6 631.591,-1838.56 634.588,-1837.28 640.648,-1835 664.339,-1826.71 667.128,-1825.89 757.143,-1801.51 781.676,-1778.4 807.432,-1710.32 807.498,-1706.34 810.397,-1648.34 811.765,-1631.79 803.021,-1625.19 801.062,-1623.78 786.944,-1614.17 774.451,-1606.59 767.996,-1602.91 768.141,-1570.13 764.957,-1480.83 681.304,-1501.72 694.214,-1456.3 696.221,-1446.86 624.569,-1436.09 619.813,-1488.13 617.08,-1426.85 617.024,-1426.78 610.626,-1426.78 609.895,-1426.59 605.813,-1426.59 596.673,-1342.23 596.134,-1360.09 596.134,-1360.09 596.673,-1342.23 605.813,-1426.59 609.895,-1426.59 610.626,-1426.78 617.024,-1426.78 617.08,-1426.85 619.813,-1488.13 624.569,-1436.09 696.221,-1446.86 694.214,-1456.3 681.304,-1501.72 764.957,-1480.83 768.141,-1570.13 767.996,-1602.91 774.451,-1606.59 786.944,-1614.17 801.062,-1623.78 803.021,-1625.19 811.765,-1631.79 814.112,-1630.24 815.154,-1524.33 811.471,-1477.87 805.531,-1482.08 798.651,-1482.08 792.875,-1477.98 792.875,-1477.98 798.651,-1482.08 805.531,-1482.08 811.471,-1477.87 811.751,-1477.45 811.431,-1476.96 806.062,-1473.13 806.062,-1473.13 811.431,-1476.96 811.751,-1477.45 811.471,-1477.87 815.154,-1524.33 814.112,-1630.24 814.112,-1630.24"/>
<polygon fill="#b8d3dd" stroke="#b8d3dd" points="1840.1,-1422.49 1844.72,-1459.03 1872.39,-1503.06 1879.24,-1513.24 1882.12,-1542.29 1863.6,-1576.66 1823.65,-1657.27 1766.7,-1692.76 1764.35,-1693.52 1736.85,-1721.57 1622.35,-1777.35 1620.99,-1707.91 1620.99,-1707.91 1622.35,-1777.35 1619.06,-1779.17 1603.37,-1771.64 1596.45,-1768.55 1593.63,-1767.39 1590.18,-1766.09 1518.56,-1741.39 1495.87,-1741.8 1492.54,-1741.97 1472.35,-1744.18 1472.37,-1665.95 1472.37,-1665.95 1472.35,-1744.18 1458.57,-1746.53 1453.05,-1744.99 1383.21,-1729.92 1351.47,-1704.44 1313.95,-1656.64 1313.86,-1655.7 1309.81,-1622.73 1261.16,-1544.53 1277.94,-1524.58 1283.48,-1518.35 1394.98,-1506.11 1399.86,-1501.7 1402.02,-1504.26 1409.18,-1507.09 1409.18,-1507.09 1402.02,-1504.26 1399.86,-1501.7 1394.98,-1506.11 1283.48,-1518.35 1287.96,-1512.88 1309.21,-1488.48 1357.19,-1426.91 1356.73,-1423.76 1353.65,-1386.34 1352.43,-1378.18 1352.1,-1374.22 1340.28,-1293.57 1348.1,-1282.89 1354.66,-1280.44 1364.59,-1277.35 1369.14,-1276.08 1380.6,-1273.6 1387.39,-1272.34 1387.79,-1272.28 1406.45,-1269.99 1406.79,-1269.97 1423.4,-1269.51 1427.41,-1269.53 1431.16,-1269.29 1432.34,-1269.29 1441.34,-1269 1449.88,-1269.26 1450.73,-1269.34 1449.46,-1328.32 1449.46,-1328.32 1450.73,-1269.34 1456.08,-1269.49 1466.65,-1269.44 1467.77,-1268.82 1483.6,-1261.43 1545.49,-1237.52 1562.16,-1230.31 1568.89,-1227.11 1589.9,-1215.23 1590.67,-1214.73 1606.06,-1204 1663.84,-1161.22 1671.47,-1155.86 1682.83,-1148.29 1685.21,-1148.59 1738.43,-1246.25 1793.29,-1287.11 1835.65,-1356.38 1837.8,-1396.86 1840.1,-1422.49 1711.53,-1413.83 1706.67,-1410.02 1705.36,-1410.02 1704.12,-1409.54 1698.69,-1409.54 1698.54,-1409.6 1697.39,-1409.6 1691.3,-1405 1691.3,-1405 1697.39,-1409.6 1691.37,-1414.15 1684.3,-1414.15 1678.27,-1409.82 1678.02,-1409.92 1676.17,-1475.16 1670.16,-1475.41 1671.08,-1497.79 1671.08,-1497.79 1670.16,-1475.41 1676.17,-1475.16 1678.02,-1409.92 1678.27,-1409.82 1684.3,-1414.15 1691.37,-1414.15 1697.39,-1409.6 1698.54,-1409.6 1698.69,-1409.54 1704.12,-1409.54 1705.36,-1410.02 1706.67,-1410.02 1711.53,-1413.83 1840.1,-1422.49 1840.1,-1422.49"/>
<polygon fill="#fbb4ae" stroke="#fbb4ae" points="1910.47,-226.712 1905.73,-246.16 1902.15,-266.959 1872.5,-323.412 1830.35,-357.758 1776.6,-381.77 1771.38,-251.265 1765.01,-248.05 1763.64,-246.274 1758.1,-246.274 1757.16,-245.906 1753.17,-245.906 1751.17,-243.672 1751.17,-243.672 1753.17,-245.906 1757.16,-245.906 1758.1,-246.274 1763.64,-246.274 1765.01,-248.05 1771.38,-251.265 1776.6,-381.77 1758.44,-390.479 1755.06,-392.21 1752.13,-393.896 1743.92,-396.758 1739.28,-398.505 1723.7,-404.791 1720.72,-406.154 1646.88,-442.013 1634.05,-455.807 1631.86,-456.136 1608.64,-459.221 1578.44,-461.686 1572.35,-458.245 1565.27,-299.753 1566.85,-256.025 1566.85,-256.025 1565.27,-299.753 1572.35,-458.245 1548.75,-445.922 1540.27,-441.679 1539.58,-441.363 1525.71,-435.334 1524.54,-282.548 1529.35,-246.067 1528.86,-245.944 1528.86,-245.944 1529.35,-246.067 1524.54,-282.548 1519.22,-246.377 1514.4,-246.377 1513.77,-246.223 1508.78,-246.223 1507.85,-245.997 1502.36,-245.997 1502.34,-245.993 1502.34,-245.993 1502.36,-245.997 1507.85,-245.997 1508.78,-246.223 1513.77,-246.223 1514.4,-246.377 1519.22,-246.377 1524.54,-282.548 1525.71,-435.334 1517.01,-431.928 1500.24,-425.731 1493.75,-423.756 1469.03,-416.773 1467.11,-416.357 1454.2,-413.839 1432.05,-410.959 1422.95,-410.172 1414.53,-409.627 1400.55,-409.333 1393.42,-409.337 1390.7,-409.212 1389.27,-409.239 1371.54,-409.165 1369.05,-408.98 1365.83,-408.881 1347.81,-408.718 1347.05,-408.675 1313.22,-359.42 1285.46,-311.022 1208.24,-302.874 1202.26,-302.724 1202.19,-302.728 1195.38,-302.646 1190.28,-302.999 1184.59,-302.617 1176.02,-302.739 1173.32,-302.996 1173.28,-302.997 1165.86,-302.699 1161.74,-302.257 1158.1,-301.621 1146.46,-298.792 1096.53,-283.303 1098.25,-251.234 1098.22,-245.51 1098.46,-241.088 1098.4,-230.483 1098.84,-222.285 1103.31,-218.346 1174.87,-166.051 1183.6,-158.921 1198.02,-145.898 1201.18,-142.795 1207.41,-136.16 1210.25,-133.627 1238.38,-106.623 1283.86,-122.843 1339.08,-109.155 1364.61,-107.239 1371.63,-106.529 1375.16,-107.269 1380.74,-108.139 1391.14,-109.482 1399.02,-110.29 1399.78,-110.347 1411.61,-110.928 1418.24,-111.075 1425.23,-111.044 1435.64,-110.441 1446.77,-109.498 1452.16,-108.899 1453.05,-108.752 1478.11,-103.942 1481.3,-103.161 1483.49,-102.566 1495.83,-98.8804 1496.56,-98.6223 1510.27,-99.7159 1520.29,-100.268 1527.32,-100.136 1534.25,-100.339 1548.94,-100.407 1559,-99.7108 1565.66,-99.0849 1568.86,-98.9584 1573.33,-99.5425 1645.26,-107.141 1656.04,-102.519 1714.4,-107.922 1727.75,-108.801 1727.79,-108.803 1750.23,-108.479 1762.38,-107.653 1774.02,-106.24 1812.81,-100.494 1839.34,-120.847 1910.47,-226.712 1910.47,-226.712"/>
<polygon fill="#fed9a6" stroke="#fed9a6" points="778.234,-780.751 770.195,-788.182 768.09,-789.996 758.172,-799.137 756.988,-800.297 744.71,-813.07 743.317,-814.441 739.787,-818.108 837.871,-815.765 867.786,-818.68 872.061,-924.511 872.28,-950.816 881.972,-809.052 887.688,-809.052 888.263,-808.905 891.103,-808.905 894.709,-812.453 900.331,-815.163 900.331,-815.163 894.709,-812.453 891.103,-808.905 888.263,-808.905 887.688,-809.052 881.972,-809.052 872.28,-950.816 872.061,-924.511 867.786,-818.68 837.871,-815.765 739.787,-818.108 735.725,-821.906 732.803,-824.778 727.138,-830.625 723.729,-834.312 714.285,-845.507 705.396,-856.506 699.116,-864.599 691.091,-875.35 717.508,-891.837 723.74,-895.546 733.209,-900.912 754.271,-912.235 777.747,-922.091 872.141,-958.895 887.841,-966.36 888.219,-966.551 906.557,-976.322 909.945,-973.224 912.01,-971.495 934.946,-953.952 943.404,-948.129 1020.6,-897.903 1057.91,-904.881 1076.1,-907.632 1081.27,-908.039 1097.16,-908.149 1101.56,-908.5 1103.89,-908.602 1108.45,-908.472 1114.72,-908.522 1117.33,-908.449 1122.99,-908.496 1125.21,-908.354 1133.39,-908.129 1133.72,-908.132 1136.49,-908.258 1145.05,-908.029 1146.62,-908.044 1149.21,-908.164 1154.71,-908.219 1156.28,-908.292 1162.64,-908.129 1166.22,-908.167 1172.66,-908.004 1173.91,-908.018 1180.19,-908.317 1248.76,-909.101 1279.1,-934.186 1260.33,-1008 1254.47,-1049 1251.1,-1062.26 1259.85,-1070.15 1270.48,-1078.98 1271.83,-1080.01 1289.51,-1090.98 1290.73,-1091.65 1299.3,-1095.74 1302,-1096.84 1305.54,-1098.04 1316.91,-1101.1 1326.62,-1103.03 1338.13,-1103.69 1339.05,-1103.68 1344.35,-1103.24 1347.97,-1103.22 1352.56,-1103.55 1354.74,-1103.87 1356.41,-1104 1359.65,-1104.02 1361.37,-1104.17 1365.35,-1104.22 1369.89,-1103.96 1372.88,-1103.58 1376.39,-1103.4 1383.24,-1103.59 1383.54,-1103.62 1387.11,-1103.74 1390.91,-1103.6 1396,-1103.8 1397.52,-1103.65 1410.92,-1103.33 1415.23,-1102.62 1426.94,-1099.86 1434.95,-1097.41 1450.17,-1090.62 1454.29,-1088.5 1465.82,-1080.96 1479.16,-1070.34 1484.1,-1066.07 1502.37,-1049 1517.92,-1036.86 1601.87,-1086.04 1625.98,-1101.79 1628.44,-1103.64 1644.75,-1116.45 1660.29,-1129.16 1682.83,-1148.29 1685.21,-1148.59 1719.29,-1114.2 1774.03,-974.161 1771.19,-945.38 1770.32,-906.752 1714.71,-808.322 1780.94,-711.073 1782.5,-706.889 1772.21,-671.82 1758.84,-609.475 1748.53,-590.686 1645.55,-470.502 1645.32,-502.612 1647.67,-666.966 1640.49,-671.594 1640.49,-671.601 1647.92,-676.643 1644.07,-725.526 1643.88,-808.558 1642.49,-808.604 1640.25,-899.27 1635.23,-944.619 1635.9,-945.633 1630.17,-949.647 1630.17,-949.647 1635.9,-945.633 1635.23,-944.619 1629.81,-940.842 1629.81,-940.842 1635.23,-944.619 1640.25,-899.27 1642.49,-808.604 1643.88,-808.558 1644.07,-725.526 1640.09,-671.755 1636.11,-671.755 1634.21,-673.938 1631.09,-734.855 1631.9,-800.524 1639.66,-808.555 1628.5,-818.602 1596.94,-816.747 1507.55,-818.319 1502.62,-813.677 1501.21,-813.191 1495.76,-808.654 1491.66,-860.112 1487.16,-808.757 1482.03,-808.757 1481.93,-808.782 1475.59,-808.782 1473.93,-899.34 1468.03,-808.472 1464.1,-808.472 1459.18,-847.26 1454.36,-808.772 1450.32,-808.772 1448.42,-808.302 1444.62,-808.302 1444.62,-808.302 1448.42,-808.302 1450.32,-808.772 1454.36,-808.772 1459.18,-847.26 1464.1,-808.472 1468.03,-808.472 1473.93,-899.34 1475.59,-808.782 1481.93,-808.782 1482.03,-808.757 1487.16,-808.757 1491.66,-860.112 1495.76,-808.654 1501.21,-813.191 1502.62,-813.677 1507.55,-818.319 1596.94,-816.747 1628.5,-818.602 1639.66,-808.555 1631.9,-800.524 1631.09,-734.855 1634.21,-673.938 1636.11,-671.755 1640.09,-671.755 1644.07,-725.526 1647.92,-676.643 1640.49,-671.601 1640.49,-671.594 1647.67,-666.966 1645.32,-502.612 1645.55,-470.502 1639.9,-463.412 1634.05,-455.807 1631.86,-456.136 1608.64,-459.221 1578.44,-461.686 1572.35,-458.245 1548.75,-445.922 1540.27,-441.679 1539.58,-441.363 1525.71,-435.334 1517.01,-431.928 1500.24,-425.731 1493.75,-423.756 1469.03,-416.773 1467.11,-416.357 1454.2,-413.839 1432.05,-410.959 1422.95,-410.172 1414.53,-409.627 1400.55,-409.333 1393.42,-409.337 1390.7,-409.212 1389.27,-409.239 1382.85,-567.757 1378.32,-567.757 1376.78,-566.014 1369.1,-562.914 1369.1,-562.914 1376.78,-566.014 1378.32,-567.757 1382.85,-567.757 1389.27,-409.239 1371.54,-409.165 1369.05,-408.98 1365.83,-408.881 1347.81,-408.718 1347.05,-408.675 1336.65,-416.442 1238.91,-485.809 1235.38,-539.693 1233.75,-554.5 1232.82,-596.911 1231.62,-615.148 1232.86,-620.424 1242.26,-654.479 1250.65,-680.996 1247.92,-684.72 1251.12,-794.497 1326.54,-798.823 1329.04,-758.867 1334.19,-804.097 1339.29,-808.087 1332.99,-813.299 1335.28,-899.676 1340.4,-808.187 1346.17,-808.187 1346.88,-808.358 1352.53,-808.358 1352.81,-808.425 1357.17,-808.425 1362.52,-845.676 1367.06,-808.873 1367.06,-808.873 1362.52,-845.676 1357.17,-808.425 1352.81,-808.425 1352.53,-808.358 1346.88,-808.358 1346.17,-808.187 1340.4,-808.187 1335.28,-899.676 1332.99,-813.299 1339.29,-808.087 1334.19,-804.097 1329.04,-758.867 1326.54,-798.823 1251.12,-794.497 1247.92,-684.72 1174.46,-713.051 1167.58,-715.406 1160.76,-717.16 1144.85,-720.576 1140.4,-721.339 1128.97,-722.312 1122.43,-722.587 1114.26,-722.58 1110.21,-722.756 1107.06,-722.758 1107.03,-722.755 1096.69,-722.791 1090.91,-722.562 1089.88,-722.568 1084.95,-722.81 1082.09,-723.078 1064.59,-725.504 1061.49,-726.071 1051.54,-728.332 1038.73,-732.384 1020.04,-739.116 947.316,-693.427 944.857,-691.769 942.988,-693.219 932.771,-702.865 924.38,-710.238 917.507,-715.82 907.906,-722.38 900.779,-726.79 889.803,-732.872 888.595,-733.461 868.728,-740.651 834.043,-748.657 831.954,-749.268 824.433,-751.939 820.055,-753.766 815.223,-756.089 806.864,-760.646 795.842,-767.354 790.866,-770.686 778.234,-780.751 778.234,-780.751"/>
<polygon fill="#c1c8d8" stroke="#c1c8d8" points="318.627,1.09603 326.015,0.334087 415.914,-6.33141 432.493,-15.2482 485.223,-46.9549 485.312,-81.265 453.273,-109.684 415.257,-146.014 414.761,-146.449 410.905,-149.539 405.373,-154.516 402.927,-156.513 390.832,-165.419 383.62,-170.124 381.135,-171.537 329.802,-196.608 317.791,-203.48 312.989,-206.611 295.656,-220.864 292.417,-223.227 266.254,-244.139 258.806,-256.057 259.218,-261.073 260.036,-280.323 253.877,-285.316 247.138,-290.468 141.94,-361.342 129.04,-370.635 128.476,-371.094 117.113,-380.875 108.155,-389.011 92.0982,-404.341 91.8949,-404.544 88.6124,-407.97 86.8539,-409.599 63.1365,-432.54 -18.6383,-365.203 -34.6752,-347.748 -36.8488,-291.918 -35.4554,-261.094 -35.2533,-234.501 -36.9937,-176.589 -12.0062,-126.285 -11.9922,-124.628 -13.1177,-121.394 -28.9017,-32.9814 -24.9494,-18 -14.4944,37.6382 17.3532,99.9653 26.6494,104.685 96.0846,106.709 112.729,107.722 120.779,108.467 126.993,109.237 128.899,109.534 193.862,106.608 257.239,15.504 262.066,9.06221 267.865,6.72459 260.445,-121.626 259.5,-126.587 254.76,-127.017 254.76,-127.017 259.5,-126.587 260.445,-121.626 267.865,6.72459 294.423,3.63347 310.798,2.19187 312.168,2.11036 317.694,1.21928 318.627,1.09603 318.627,1.09603"/>
<polygon fill="#d3ded1" stroke="#d3ded1" points="1201.18,-142.795 1207.41,-136.16 1210.25,-133.627 1238.38,-106.623 1187.38,-34.9126 1167.16,-9.26388 1142.74,1.96872 1103.23,7.4433 1098.87,8.15736 1098.22,8.28181 1093.29,9.34389 1077.53,7.58981 1064.13,6.77189 1061.84,6.74688 1058.92,5.88033 1039.92,1.27128 1023.15,-1.8778 1007.32,-3.54774 995.709,-4.45455 976.51,-4.37537 921.085,-2.63119 901.76,-13.2876 824.989,-3.99638 800.913,-0.398973 791.443,1.81305 783.255,3.95723 773.452,4.29614 768.887,4.69277 768.705,4.71336 758.074,6.19574 742.265,8.81613 742.236,8.82171 720.144,14.2227 718.114,14.7713 702.942,20.0715 701.222,20.302 695.332,17.3433 676.782,9.61778 676.405,9.47152 674.525,8.79669 658.728,3.57176 655.02,2.45228 634.483,-2.58105 513.914,-28.633 485.223,-46.9549 485.312,-81.265 498.352,-107.711 515.618,-144.881 540.001,-210.55 639.307,-216.886 644.826,-216.398 651.484,-216.138 652.875,-216.152 656.372,-216.36 663.607,-216.424 668.205,-216.69 668.593,-216.654 686.312,-216.731 686.923,-216.702 701.155,-217.445 705.906,-218.159 721.038,-221.185 732.357,-224.553 735.492,-225.638 739.613,-227.266 749.861,-231.823 754.028,-233.88 757.325,-235.67 771.921,-244.336 776.671,-247.385 783.227,-252.246 792.97,-251.325 803.536,-251.015 813.554,-251.374 819.245,-250.999 833.048,-250.54 842.962,-249.539 849.74,-248.625 851.712,-248.293 868.974,-244.794 878.008,-242.354 883.198,-232.404 900.168,-196.181 983.43,-187.148 985.421,-187.091 991.316,-187.396 998.702,-187.179 1000.85,-187.288 1003.84,-187.199 1006.4,-186.916 1015.25,-187.355 1016.24,-187.324 1018.61,-187.059 1022.43,-186.937 1025.84,-187.102 1040.72,-189.021 1051.3,-192.079 1054.28,-193.175 1057.05,-136.37 1056.96,-136.335 1052.16,-136.335 1049.18,-132.896 1043.71,-130.975 1043.71,-130.975 1049.18,-132.896 1052.16,-136.335 1056.96,-136.335 1057.05,-136.37 1054.28,-193.175 1062.52,-196.885 1078.34,-205.287 1078.98,-205.727 1083.57,-209.243 1098.84,-222.285 1103.31,-218.346 1174.87,-166.051 1183.6,-158.921 1198.02,-145.898 1201.18,-142.795 1201.18,-142.795"/>
<polygon fill="#debec3" stroke="#debec3" points="1114.97,-595.762 1115.86,-595.833 1121.54,-595.689 1128.23,-596.217 1231.62,-615.148 1232.86,-620.424 1242.26,-654.479 1250.65,-680.996 1247.92,-684.72 1174.46,-713.051 1167.58,-715.406 1160.76,-717.16 1144.85,-720.576 1140.4,-721.339 1128.97,-722.312 1122.43,-722.587 1114.26,-722.58 1110.21,-722.756 1107.06,-722.758 1107.03,-722.755 1096.69,-722.791 1090.91,-722.562 1089.88,-722.568 1084.95,-722.81 1082.09,-723.078 1064.59,-725.504 1068.91,-637.251 1061.66,-637.251 1060.65,-636.865 1055.74,-636.865 1055.65,-636.831 1055.65,-636.831 1055.74,-636.865 1060.65,-636.865 1061.66,-637.251 1068.91,-637.251 1064.59,-725.504 1061.49,-726.071 1051.54,-728.332 1038.73,-732.384 1020.04,-739.116 947.316,-693.427 944.857,-691.769 942.988,-693.219 932.771,-702.865 924.38,-710.238 917.507,-715.82 907.906,-722.38 900.779,-726.79 889.803,-732.872 888.595,-733.461 868.728,-740.651 834.043,-748.657 831.954,-749.268 824.433,-751.939 820.055,-753.766 815.223,-756.089 806.864,-760.646 795.842,-767.354 790.866,-770.686 790.279,-735.522 793.536,-680.065 793.536,-680.065 790.279,-735.522 790.866,-770.686 778.234,-780.751 770.195,-788.182 768.09,-789.996 758.172,-799.137 756.988,-800.297 744.71,-813.07 743.317,-814.441 739.787,-818.108 735.725,-821.906 732.803,-824.778 727.138,-830.625 723.729,-834.312 714.285,-845.507 705.396,-856.506 699.116,-864.599 691.091,-875.35 717.508,-891.837 723.74,-895.546 733.209,-900.912 754.271,-912.235 777.747,-922.091 872.141,-958.895 887.841,-966.36 888.219,-966.551 906.557,-976.322 909.847,-993.152 911.831,-1005.23 894.376,-1029.38 882.015,-1043.09 878.196,-1047.7 865.133,-1062.47 848.897,-1079.52 797.524,-1140.44 785.369,-1153.1 769.948,-1149.36 749.635,-1146.3 750.407,-1130.59 749.778,-1068.24 755.26,-1063.99 749.764,-1059.54 749.764,-1059.54 755.26,-1063.99 749.778,-1068.24 750.407,-1130.59 749.635,-1146.3 745.636,-1146.08 738.43,-1146.01 733.198,-1146.2 724.152,-1145.73 716.018,-1146.07 713.411,-1146.06 702.723,-1145.08 606.817,-1132 591.565,-1092.67 564.543,-1029.73 552.867,-1004.58 552.09,-912.596 549.995,-911.576 458.251,-871.824 398.829,-885.022 385.074,-887.785 314.982,-857.79 310.895,-856.171 291.323,-849.035 223.495,-828.708 200.332,-820.278 192.698,-817.024 191.653,-816.546 164.658,-802.443 152.898,-795.941 163.778,-724.47 171.395,-628.302 189.621,-578.429 224.598,-572.688 297.476,-612.905 306.617,-617.193 379.943,-645.646 391.058,-650.398 402.71,-655.829 403.563,-656.259 405.867,-657.6 425.144,-669.612 427.895,-666.786 445.818,-651.192 449.128,-648.665 453.953,-644.712 461.351,-639.063 469.617,-633.213 471.634,-631.899 474.547,-630.162 485.974,-623.956 543.023,-596.133 562.799,-585.348 569.816,-580.771 571.513,-579.573 581.409,-572.023 581.556,-571.903 588.944,-565.434 604.864,-550.574 613.443,-541.63 616.694,-538.695 623.329,-532.073 634.136,-520.76 637.485,-520.27 638.204,-616.874 638.204,-616.874 637.485,-520.27 659.435,-515.568 663.09,-514.621 666.383,-513.693 672.262,-511.903 695.274,-504.369 699.489,-502.802 702.612,-501.571 703.889,-502.023 729.746,-509.502 730.589,-510.667 730.727,-510.869 756.869,-543.269 759.973,-546.731 780.159,-566.96 784.371,-570.918 795.055,-579.112 801.918,-583.985 812.162,-592.172 823.189,-599.526 823.689,-599.827 831.124,-603.823 835.207,-605.758 885.8,-626.57 894.766,-630.836 898.541,-632.871 906.631,-637.753 919.798,-647.424 921.695,-648.698 940.918,-663.937 943.398,-660.516 970.589,-618.933 995.148,-575.159 1009.92,-552.559 1027.65,-565.233 1040.11,-575.556 1050.74,-583.257 1065.16,-590.659 1076.01,-593.92 1080.38,-594.767 1092.61,-595.843 1093.09,-595.834 1095.37,-596.03 1101.88,-595.898 1102.57,-595.955 1108.08,-595.834 1108.93,-595.904 1114.97,-595.762 1114.97,-595.762"/>
<polygon fill="#debec3" stroke="#debec3" points="644.284,-359.292 630.711,-348.273 584.154,-315.879 574.533,-308.024 573.205,-307.108 570.991,-305.359 560.938,-296.334 559.412,-294.804 539.302,-272.364 538.254,-271.093 528.635,-260.539 531.38,-245.242 534.633,-230.674 540.001,-210.55 639.307,-216.886 644.826,-216.398 651.484,-216.138 652.875,-216.152 656.372,-216.36 663.607,-216.424 668.205,-216.69 668.593,-216.654 686.312,-216.731 686.923,-216.702 701.155,-217.445 705.906,-218.159 721.038,-221.185 732.357,-224.553 735.492,-225.638 739.613,-227.266 749.861,-231.823 754.028,-233.88 757.325,-235.67 771.921,-244.336 776.671,-247.385 783.227,-252.246 772.547,-270.708 751.944,-311.038 731.9,-357.953 728.01,-365.694 698.095,-417.406 689.969,-407.505 677.653,-393.453 670.935,-384.963 661.08,-374.425 650.083,-363.728 645.111,-359.86 644.284,-359.292 644.284,-359.292"/>
<polygon fill="#e4ced8" stroke="#e4ced8" points="1663.84,-1161.22 1671.47,-1155.86 1682.83,-1148.29 1660.29,-1129.16 1644.75,-1116.45 1628.44,-1103.64 1625.98,-1101.79 1601.87,-1086.04 1517.92,-1036.86 1502.37,-1049 1484.1,-1066.07 1479.16,-1070.34 1465.82,-1080.96 1454.29,-1088.5 1450.17,-1090.62 1434.95,-1097.41 1426.94,-1099.86 1415.23,-1102.62 1410.92,-1103.33 1397.52,-1103.65 1396,-1103.8 1390.91,-1103.6 1387.11,-1103.74 1383.54,-1103.62 1383.24,-1103.59 1376.39,-1103.4 1372.88,-1103.58 1369.89,-1103.96 1365.35,-1104.22 1361.37,-1104.17 1359.65,-1104.02 1356.41,-1104 1354.74,-1103.87 1352.56,-1103.55 1347.97,-1103.22 1344.35,-1103.24 1339.05,-1103.68 1338.13,-1103.69 1326.62,-1103.03 1326.44,-1129.3 1322.31,-1154.27 1316.65,-1158.08 1316.43,-1158.37 1317.05,-1159.23 1322.56,-1162.93 1322.56,-1162.93 1317.05,-1159.23 1316.43,-1158.37 1316.65,-1158.08 1322.31,-1154.27 1326.44,-1129.3 1326.62,-1103.03 1316.91,-1101.1 1305.54,-1098.04 1302,-1096.84 1299.3,-1095.74 1290.73,-1091.65 1289.51,-1090.98 1283.9,-1158.24 1284.75,-1158.55 1284.15,-1209.94 1292.22,-1218.11 1297.81,-1224.54 1272.31,-1223.81 1238.61,-1215.85 1237.11,-1190.3 1234.76,-1190.23 1233.52,-1190.02 1230.3,-1189.93 1225.69,-1158.97 1221.58,-1158.97 1219.7,-1158.27 1213.74,-1158.27 1213.55,-1158.34 1209.03,-1158.34 1208.15,-1158.66 1206.71,-1190.18 1202.74,-1190.06 1199.68,-1190.4 1193.73,-1190.21 1192.9,-1190.31 1190.32,-1190.23 1187.35,-1190.56 1186.97,-1225.82 1180.47,-1225.82 1180.28,-1225.77 1176.18,-1225.77 1172.66,-1226.67 1168.56,-1226.67 1163.51,-1317.59 1161.08,-1226.37 1155.23,-1226.37 1154.7,-1226.24 1154.7,-1226.24 1155.23,-1226.37 1161.08,-1226.37 1163.51,-1317.59 1168.56,-1226.67 1172.66,-1226.67 1176.18,-1225.77 1180.28,-1225.77 1180.47,-1225.82 1186.97,-1225.82 1187.35,-1190.56 1190.32,-1190.23 1192.9,-1190.31 1193.73,-1190.21 1199.68,-1190.4 1202.74,-1190.06 1200.8,-1158.96 1195.39,-1158.96 1194.64,-1158.68 1194.64,-1158.68 1195.39,-1158.96 1200.8,-1158.96 1202.74,-1190.06 1206.71,-1190.18 1208.15,-1158.66 1209.03,-1158.34 1213.55,-1158.34 1213.74,-1158.27 1219.7,-1158.27 1221.58,-1158.97 1225.69,-1158.97 1230.3,-1189.93 1233.52,-1190.02 1234.76,-1190.23 1237.11,-1190.3 1238.61,-1215.85 1272.31,-1223.81 1297.81,-1224.54 1292.22,-1218.11 1284.15,-1209.94 1284.75,-1158.55 1283.9,-1158.24 1279.36,-1158.24 1279.36,-1158.24 1283.9,-1158.24 1289.51,-1090.98 1271.83,-1080.01 1270.48,-1078.98 1259.85,-1070.15 1251.1,-1062.26 1254.47,-1049 1260.33,-1008 1279.1,-934.186 1248.76,-909.101 1180.19,-908.317 1173.91,-908.018 1172.66,-908.004 1166.22,-908.167 1162.64,-908.129 1156.28,-908.292 1154.71,-908.219 1149.21,-908.164 1146.62,-908.044 1145.05,-908.029 1136.49,-908.258 1133.72,-908.132 1133.39,-908.129 1125.21,-908.354 1122.99,-908.496 1117.33,-908.449 1114.72,-908.522 1108.45,-908.472 1103.89,-908.602 1101.56,-908.5 1094.49,-1007.78 1089.45,-1007.78 1089.45,-1007.78 1094.49,-1007.78 1101.56,-908.5 1097.16,-908.149 1081.27,-908.039 1076.1,-907.632 1057.91,-904.881 1020.6,-897.903 943.404,-948.129 934.946,-953.952 912.01,-971.495 909.945,-973.224 906.557,-976.322 909.847,-993.152 911.831,-1005.23 894.376,-1029.38 894.532,-1072.67 895.14,-1079.67 905.562,-1158.18 911.138,-1156.24 917.862,-1158.71 920.328,-1161.49 924.276,-1161.49 924.336,-1161.47 931.477,-1161.47 931.482,-1161.47 937.804,-1161.47 938.384,-1161.7 944.935,-1161.7 945.097,-1161.76 951.594,-1156.92 944.253,-1036.41 1045.44,-1114.46 1047.46,-1114.57 1056.44,-1114.74 1058.7,-1114.85 1058.71,-1225.64 1065.04,-1225.64 1065.35,-1225.71 1069.92,-1225.71 1071.2,-1226.04 1078.36,-1226.04 1079.13,-1225.84 1079.13,-1225.84 1078.36,-1226.04 1071.2,-1226.04 1069.92,-1225.71 1065.35,-1225.71 1065.04,-1225.64 1058.71,-1225.64 1058.7,-1114.85 1056.44,-1114.74 1047.46,-1114.57 1045.44,-1114.46 1043.16,-1118.03 1043.16,-1118.03 1045.44,-1114.46 944.253,-1036.41 951.594,-1156.92 945.097,-1161.76 945.395,-1162.2 951.086,-1166.09 951.086,-1166.09 945.395,-1162.2 945.097,-1161.76 944.935,-1161.7 938.384,-1161.7 937.804,-1161.47 931.482,-1161.47 931.477,-1161.47 924.336,-1161.47 924.276,-1161.49 920.328,-1161.49 917.862,-1158.71 911.138,-1156.24 905.562,-1158.18 895.14,-1079.67 894.532,-1072.67 894.376,-1029.38 882.015,-1043.09 878.196,-1047.7 865.133,-1062.47 848.897,-1079.52 797.524,-1140.44 785.369,-1153.1 798.524,-1182.32 814.277,-1224.48 817.468,-1231.69 859.236,-1313.25 851.301,-1325.25 894.346,-1403.9 918.385,-1462.07 934.371,-1495.03 960.028,-1541.91 969.53,-1540.87 976.273,-1539.36 980.975,-1538.44 987.115,-1406.96 993.242,-1409.14 993.242,-1409.14 987.115,-1406.96 980.975,-1538.44 1001.53,-1534.97 1007.29,-1534.33 1081.95,-1528.07 1113.81,-1509.09 1126.57,-1512.58 1213,-1530.74 1219.39,-1532.26 1230.6,-1535.24 1232.09,-1535.67 1242.58,-1538.32 1260.96,-1544.45 1261.24,-1510.75 1259.47,-1435.66 1254.82,-1403.73 1249.48,-1405.56 1249.48,-1405.56 1254.82,-1403.73 1259.47,-1435.66 1261.24,-1510.75 1260.96,-1544.45 1261.16,-1544.53 1277.94,-1524.58 1283.48,-1518.35 1287.96,-1512.88 1309.21,-1488.48 1357.19,-1426.91 1356.73,-1423.76 1353.65,-1386.34 1352.43,-1378.18 1352.1,-1374.22 1340.28,-1293.57 1348.1,-1282.89 1354.66,-1280.44 1364.59,-1277.35 1369.14,-1276.08 1380.6,-1273.6 1387.39,-1272.34 1387.79,-1272.28 1406.45,-1269.99 1406.79,-1269.97 1423.4,-1269.51 1427.41,-1269.53 1431.16,-1269.29 1432.34,-1269.29 1441.34,-1269 1449.88,-1269.26 1450.73,-1269.34 1456.08,-1269.49 1466.65,-1269.44 1467.77,-1268.82 1467.49,-1210.6 1463.36,-1158.79 1459.2,-1158.79 1458.37,-1158.48 1458.37,-1158.48 1459.2,-1158.79 1463.36,-1158.79 1467.49,-1210.6 1467.77,-1268.82 1483.6,-1261.43 1481,-1191.67 1475.41,-1158.62 1471.48,-1158.62 1471.48,-1158.62 1475.41,-1158.62 1481,-1191.67 1483.6,-1261.43 1545.49,-1237.52 1562.16,-1230.31 1568.89,-1227.11 1589.9,-1215.23 1590.67,-1214.73 1606.06,-1204 1663.84,-1161.22 1663.84,-1161.22"/>
<polyline fill="none" stroke="#000000" points="223.495,-828.708 291.323,-849.035 310.895,-856.171 314.982,-857.79 385.074,-887.785 398.829,-885.022 458.251,-871.824 549.995,-911.576 552.09,-912.596 552.867,-1004.58 487.216,-1064.12 484.292,-1066.6 476.668,-1074.4 459.651,-1090.61 457.468,-1092.36 453.794,-1095.03 443.255,-1101.97 431.648,-1108.78 381.334,-1134.47 378.306,-1136.25 373.392,-1139.53 361.261,-1148.63 349.764,-1159.12 360.216,-1173 403.958,-1249.1 432.837,-1287.46 440.592,-1298.44 400.269,-1330.62 324.465,-1313.17 323.212,-1312.96 321.31,-1312.76 306.824,-1312.16 302.623,-1312.24 294.627,-1311.45 287.728,-1311.64 285.928,-1311.91 285.675,-1311.94 280.829,-1312.1 268.529,-1311.77 266.56,-1311.97 259.878,-1311.83 249.814,-1311.03 195.309,-1303.42 138.39,-1370.52 130.517,-1379.07 120.785,-1388.86 118.023,-1391.79 117.866,-1391.73 111.66,-1389.29 96.5487,-1383.82 86.1512,-1380.69 1.42259,-1357.71 -35.5183,-1276.99 -43.8662,-1260.42 -38.5244,-1225.89 -34.789,-1194.04 -97.1903,-1109.62 -98.9123,-1101.49 -106.572,-1071.06 -94.0945,-1037.44 -62.4563,-940.723 -34.2132,-927.803 15.3813,-918.593 30.8763,-915.308 105.605,-820.743 152.898,-795.941 164.658,-802.443 191.653,-816.546 192.698,-817.024 200.332,-820.278 223.495,-828.708 "/>
<polyline fill="none" stroke="#000000" points="403.563,-656.259 402.71,-655.829 391.058,-650.398 379.943,-645.646 306.617,-617.193 297.476,-612.905 224.598,-572.688 189.621,-578.429 66.3343,-448.217 63.1365,-432.54 86.8539,-409.599 88.6124,-407.97 91.8949,-404.544 92.0982,-404.341 108.155,-389.011 117.113,-380.875 128.476,-371.094 129.04,-370.635 141.94,-361.342 247.138,-290.468 253.877,-285.316 260.036,-280.323 259.218,-261.073 258.806,-256.057 266.254,-244.139 292.417,-223.227 295.656,-220.864 312.989,-206.611 317.791,-203.48 329.802,-196.608 381.135,-171.537 383.62,-170.124 390.832,-165.419 402.927,-156.513 405.373,-154.516 410.905,-149.539 414.761,-146.449 415.257,-146.014 453.273,-109.684 485.312,-81.265 498.352,-107.711 515.618,-144.881 540.001,-210.55 534.633,-230.674 531.38,-245.242 528.635,-260.539 538.254,-271.093 539.302,-272.364 559.412,-294.804 560.938,-296.334 570.991,-305.359 573.205,-307.108 574.533,-308.024 584.154,-315.879 630.711,-348.273 644.284,-359.292 645.111,-359.86 650.083,-363.728 661.08,-374.425 670.935,-384.963 677.653,-393.453 689.969,-407.505 698.095,-417.406 702.612,-501.571 699.489,-502.802 695.274,-504.369 672.262,-511.903 666.383,-513.693 663.09,-514.621 659.435,-515.568 637.485,-520.27 634.136,-520.76 623.329,-532.073 616.694,-538.695 613.443,-541.63 604.864,-550.574 588.944,-565.434 581.556,-571.903 581.409,-572.023 571.513,-579.573 569.816,-580.771 562.799,-585.348 543.023,-596.133 485.974,-623.956 474.547,-630.162 471.634,-631.899 469.617,-633.213 461.351,-639.063 453.953,-644.712 449.128,-648.665 445.818,-651.192 427.895,-666.786 425.144,-669.612 405.867,-657.6 403.563,-656.259 "/>
<polyline fill="none" stroke="#000000" points="1009.92,-552.559 995.148,-575.159 970.589,-618.933 943.398,-660.516 940.918,-663.937 921.695,-648.698 919.798,-647.424 906.631,-637.753 898.541,-632.871 894.766,-630.836 885.8,-626.57 835.207,-605.758 831.124,-603.823 823.689,-599.827 823.189,-599.526 812.162,-592.172 801.918,-583.985 795.055,-579.112 784.371,-570.918 780.159,-566.96 759.973,-546.731 756.869,-543.269 730.727,-510.869 730.589,-510.667 729.746,-509.502 703.889,-502.023 702.612,-501.571 698.095,-417.406 728.01,-365.694 731.9,-357.953 751.944,-311.038 772.547,-270.708 783.227,-252.246 792.97,-251.325 803.536,-251.015 813.554,-251.374 819.245,-250.999 833.048,-250.54 842.962,-249.539 849.74,-248.625 851.712,-248.293 868.974,-244.794 878.008,-242.354 883.198,-232.404 900.168,-196.181 983.43,-187.148 985.421,-187.091 991.316,-187.396 998.702,-187.179 1000.85,-187.288 1003.84,-187.199 1006.4,-186.916 1015.25,-187.355 1016.24,-187.324 1018.61,-187.059 1022.43,-186.937 1025.84,-187.102 1040.72,-189.021 1051.3,-192.079 1054.28,-193.175 1062.52,-196.885 1078.34,-205.287 1078.98,-205.727 1083.57,-209.243 1098.84,-222.285 1098.4,-230.483 1098.46,-241.088 1098.22,-245.51 1098.25,-251.234 1096.53,-283.303 1146.46,-298.792 1158.1,-301.621 1161.74,-302.257 1165.86,-302.699 1173.28,-302.997 1173.32,-302.996 1176.02,-302.739 1184.59,-302.617 1190.28,-302.999 1195.38,-302.646 1202.19,-302.728 1202.26,-302.724 1208.24,-302.874 1285.46,-311.022 1313.22,-359.42 1347.05,-408.675 1336.65,-416.442 1238.91,-485.809 1235.38,-539.693 1233.75,-554.5 1232.82,-596.911 1231.62,-615.148 1128.23,-596.217 1121.54,-595.689 1115.86,-595.833 1114.97,-595.762 1108.93,-595.904 1108.08,-595.834 1102.57,-595.955 1101.88,-595.898 1095.37,-596.03 1093.09,-595.834 1092.61,-595.843 1080.38,-594.767 1076.01,-593.92 1065.16,-590.659 1050.74,-583.257 1040.11,-575.556 1027.65,-565.233 1009.92,-552.559 "/>
<polyline fill="none" stroke="#000000" points="467.146,-1762.66 502.865,-1783.56 593.03,-1819.59 593.836,-1819.94 611.263,-1827.95 623.356,-1833.85 624.717,-1834.6 631.591,-1838.56 634.588,-1837.28 640.648,-1835 664.339,-1826.71 667.128,-1825.89 757.143,-1801.51 781.676,-1778.4 807.432,-1710.32 807.498,-1706.34 810.397,-1648.34 811.765,-1631.79 814.112,-1630.24 829.762,-1620.91 839.489,-1615.43 926.893,-1572.04 960.028,-1541.91 934.371,-1495.03 918.385,-1462.07 894.346,-1403.9 851.301,-1325.25 859.236,-1313.25 817.468,-1231.69 814.277,-1224.48 798.524,-1182.32 785.369,-1153.1 769.948,-1149.36 749.635,-1146.3 745.636,-1146.08 738.43,-1146.01 733.198,-1146.2 724.152,-1145.73 716.018,-1146.07 713.411,-1146.06 702.723,-1145.08 606.817,-1132 591.565,-1092.67 564.543,-1029.73 552.867,-1004.58 487.216,-1064.12 484.292,-1066.6 476.668,-1074.4 459.651,-1090.61 457.468,-1092.36 453.794,-1095.03 443.255,-1101.97 431.648,-1108.78 381.334,-1134.47 378.306,-1136.25 373.392,-1139.53 361.261,-1148.63 349.764,-1159.12 360.216,-1173 403.958,-1249.1 432.837,-1287.46 440.592,-1298.44 400.269,-1330.62 324.465,-1313.17 323.212,-1312.96 321.31,-1312.76 306.824,-1312.16 302.623,-1312.24 294.627,-1311.45 287.728,-1311.64 285.928,-1311.91 285.675,-1311.94 280.829,-1312.1 268.529,-1311.77 266.56,-1311.97 259.878,-1311.83 249.814,-1311.03 195.309,-1303.42 138.39,-1370.52 130.517,-1379.07 120.785,-1388.86 118.023,-1391.79 130.427,-1419.73 218.51,-1527.22 223.326,-1532.01 205.492,-1608.54 206.586,-1616.37 209.494,-1643.64 209.539,-1644.26 294.908,-1776.59 344.144,-1779.1 359.536,-1780.25 373.166,-1781.91 377.951,-1782.72 381.025,-1782.2 382.514,-1781.99 403.346,-1779.48 467.146,-1762.66 "/>
<polyline fill="none" stroke="#000000" points="1495.87,-1741.8 1492.54,-1741.97 1472.35,-1744.18 1458.57,-1746.53 1453.05,-1744.99 1383.21,-1729.92 1351.47,-1704.44 1313.95,-1656.64 1313.86,-1655.7 1309.81,-1622.73 1261.16,-1544.53 1277.94,-1524.58 1283.48,-1518.35 1287.96,-1512.88 1309.21,-1488.48 1357.19,-1426.91 1356.73,-1423.76 1353.65,-1386.34 1352.43,-1378.18 1352.1,-1374.22 1340.28,-1293.57 1348.1,-1282.89 1354.66,-1280.44 1364.59,-1277.35 1369.14,-1276.08 1380.6,-1273.6 1387.39,-1272.34 1387.79,-1272.28 1406.45,-1269.99 1406.79,-1269.97 1423.4,-1269.51 1427.41,-1269.53 1431.16,-1269.29 1432.34,-1269.29 1441.34,-1269 1449.88,-1269.26 1450.73,-1269.34 1456.08,-1269.49 1466.65,-1269.44 1467.77,-1268.82 1483.6,-1261.43 1545.49,-1237.52 1562.16,-1230.31 1568.89,-1227.11 1589.9,-1215.23 1590.67,-1214.73 1606.06,-1204 1663.84,-1161.22 1671.47,-1155.86 1682.83,-1148.29 1685.21,-1148.59 1738.43,-1246.25 1793.29,-1287.11 1835.65,-1356.38 1837.8,-1396.86 1840.1,-1422.49 1844.72,-1459.03 1872.39,-1503.06 1879.24,-1513.24 1882.12,-1542.29 1863.6,-1576.66 1823.65,-1657.27 1766.7,-1692.76 1764.35,-1693.52 1736.85,-1721.57 1622.35,-1777.35 1619.06,-1779.17 1603.37,-1771.64 1596.45,-1768.55 1593.63,-1767.39 1590.18,-1766.09 1518.56,-1741.39 1495.87,-1741.8 "/>
<polyline fill="none" stroke="#000000" points="1454.2,-413.839 1432.05,-410.959 1422.95,-410.172 1414.53,-409.627 1400.55,-409.333 1393.42,-409.337 1390.7,-409.212 1389.27,-409.239 1371.54,-409.165 1369.05,-408.98 1365.83,-408.881 1347.81,-408.718 1347.05,-408.675 1313.22,-359.42 1285.46,-311.022 1208.24,-302.874 1202.26,-302.724 1202.19,-302.728 1195.38,-302.646 1190.28,-302.999 1184.59,-302.617 1176.02,-302.739 1173.32,-302.996 1173.28,-302.997 1165.86,-302.699 1161.74,-302.257 1158.1,-301.621 1146.46,-298.792 1096.53,-283.303 1098.25,-251.234 1098.22,-245.51 1098.46,-241.088 1098.4,-230.483 1098.84,-222.285 1103.31,-218.346 1174.87,-166.051 1183.6,-158.921 1198.02,-145.898 1201.18,-142.795 1207.41,-136.16 1210.25,-133.627 1238.38,-106.623 1283.86,-122.843 1339.08,-109.155 1364.61,-107.239 1371.63,-106.529 1375.16,-107.269 1380.74,-108.139 1391.14,-109.482 1399.02,-110.29 1399.78,-110.347 1411.61,-110.928 1418.24,-111.075 1425.23,-111.044 1435.64,-110.441 1446.77,-109.498 1452.16,-108.899 1453.05,-108.752 1478.11,-103.942 1481.3,-103.161 1483.49,-102.566 1495.83,-98.8804 1496.56,-98.6223 1510.27,-99.7159 1520.29,-100.268 1527.32,-100.136 1534.25,-100.339 1548.94,-100.407 1559,-99.7108 1565.66,-99.0849 1568.86,-98.9584 1573.33,-99.5425 1645.26,-107.141 1656.04,-102.519 1714.4,-107.922 1727.75,-108.801 1727.79,-108.803 1750.23,-108.479 1762.38,-107.653 1774.02,-106.24 1812.81,-100.494 1839.34,-120.847 1910.47,-226.712 1905.73,-246.16 1902.15,-266.959 1872.5,-323.412 1830.35,-357.758 1776.6,-381.77 1758.44,-390.479 1755.06,-392.21 1752.13,-393.896 1743.92,-396.758 1739.28,-398.505 1723.7,-404.791 1720.72,-406.154 1646.88,-442.013 1634.05,-455.807 1631.86,-456.136 1608.64,-459.221 1578.44,-461.686 1572.35,-458.245 1548.75,-445.922 1540.27,-441.679 1539.58,-441.363 1525.71,-435.334 1517.01,-431.928 1500.24,-425.731 1493.75,-423.756 1469.03,-416.773 1467.11,-416.357 1454.2,-413.839 "/>
<polyline fill="none" stroke="#000000" points="1502.37,-1049 1484.1,-1066.07 1479.16,-1070.34 1465.82,-1080.96 1454.29,-1088.5 1450.17,-1090.62 1434.95,-1097.41 1426.94,-1099.86 1415.23,-1102.62 1410.92,-1103.33 1397.52,-1103.65 1396,-1103.8 1390.91,-1103.6 1387.11,-1103.74 1383.54,-1103.62 1383.24,-1103.59 1376.39,-1103.4 1372.88,-1103.58 1369.89,-1103.96 1365.35,-1104.22 1361.37,-1104.17 1359.65,-1104.02 1356.41,-1104 1354.74,-1103.87 1352.56,-1103.55 1347.97,-1103.22 1344.35,-1103.24 1339.05,-1103.68 1338.13,-1103.69 1326.62,-1103.03 1316.91,-1101.1 1305.54,-1098.04 1302,-1096.84 1299.3,-1095.74 1290.73,-1091.65 1289.51,-1090.98 1271.83,-1080.01 1270.48,-1078.98 1259.85,-1070.15 1251.1,-1062.26 1254.47,-1049 1260.33,-1008 1279.1,-934.186 1248.76,-909.101 1180.19,-908.317 1173.91,-908.018 1172.66,-908.004 1166.22,-908.167 1162.64,-908.129 1156.28,-908.292 1154.71,-908.219 1149.21,-908.164 1146.62,-908.044 1145.05,-908.029 1136.49,-908.258 1133.72,-908.132 1133.39,-908.129 1125.21,-908.354 1122.99,-908.496 1117.33,-908.449 1114.72,-908.522 1108.45,-908.472 1103.89,-908.602 1101.56,-908.5 1097.16,-908.149 1081.27,-908.039 1076.1,-907.632 1057.91,-904.881 1020.6,-897.903 943.404,-948.129 934.946,-953.952 912.01,-971.495 909.945,-973.224 906.557,-976.322 888.219,-966.551 887.841,-966.36 872.141,-958.895 777.747,-922.091 754.271,-912.235 733.209,-900.912 723.74,-895.546 717.508,-891.837 691.091,-875.35 699.116,-864.599 705.396,-856.506 714.285,-845.507 723.729,-834.312 727.138,-830.625 732.803,-824.778 735.725,-821.906 739.787,-818.108 743.317,-814.441 744.71,-813.07 756.988,-800.297 758.172,-799.137 768.09,-789.996 770.195,-788.182 778.234,-780.751 790.866,-770.686 795.842,-767.354 806.864,-760.646 815.223,-756.089 820.055,-753.766 824.433,-751.939 831.954,-749.268 834.043,-748.657 868.728,-740.651 888.595,-733.461 889.803,-732.872 900.779,-726.79 907.906,-722.38 917.507,-715.82 924.38,-710.238 932.771,-702.865 942.988,-693.219 944.857,-691.769 947.316,-693.427 1020.04,-739.116 1038.73,-732.384 1051.54,-728.332 1061.49,-726.071 1064.59,-725.504 1082.09,-723.078 1084.95,-722.81 1089.88,-722.568 1090.91,-722.562 1096.69,-722.791 1107.03,-722.755 1107.06,-722.758 1110.21,-722.756 1114.26,-722.58 1122.43,-722.587 1128.97,-722.312 1140.4,-721.339 1144.85,-720.576 1160.76,-717.16 1167.58,-715.406 1174.46,-713.051 1247.92,-684.72 1250.65,-680.996 1242.26,-654.479 1232.86,-620.424 1231.62,-615.148 1232.82,-596.911 1233.75,-554.5 1235.38,-539.693 1238.91,-485.809 1336.65,-416.442 1347.05,-408.675 1347.81,-408.718 1365.83,-408.881 1369.05,-408.98 1371.54,-409.165 1389.27,-409.239 1390.7,-409.212 1393.42,-409.337 1400.55,-409.333 1414.53,-409.627 1422.95,-410.172 1432.05,-410.959 1454.2,-413.839 1467.11,-416.357 1469.03,-416.773 1493.75,-423.756 1500.24,-425.731 1517.01,-431.928 1525.71,-435.334 1539.58,-441.363 1540.27,-441.679 1548.75,-445.922 1572.35,-458.245 1578.44,-461.686 1608.64,-459.221 1631.86,-456.136 1634.05,-455.807 1639.9,-463.412 1645.55,-470.502 1748.53,-590.686 1758.84,-609.475 1772.21,-671.82 1782.5,-706.889 1780.94,-711.073 1714.71,-808.322 1770.32,-906.752 1771.19,-945.38 1774.03,-974.161 1719.29,-1114.2 1685.21,-1148.59 1682.83,-1148.29 1660.29,-1129.16 1644.75,-1116.45 1628.44,-1103.64 1625.98,-1101.79 1601.87,-1086.04 1517.92,-1036.86 1502.37,-1049 "/>
<polyline fill="none" stroke="#000000" points="258.806,-256.057 259.218,-261.073 260.036,-280.323 253.877,-285.316 247.138,-290.468 141.94,-361.342 129.04,-370.635 128.476,-371.094 117.113,-380.875 108.155,-389.011 92.0982,-404.341 91.8949,-404.544 88.6124,-407.97 86.8539,-409.599 63.1365,-432.54 -18.6383,-365.203 -34.6752,-347.748 -36.8488,-291.918 -35.4554,-261.094 -35.2533,-234.501 -36.9937,-176.589 -12.0062,-126.285 -11.9922,-124.628 -13.1177,-121.394 -28.9017,-32.9814 -24.9494,-18 -14.4944,37.6382 17.3532,99.9653 26.6494,104.685 96.0846,106.709 112.729,107.722 120.779,108.467 126.993,109.237 128.899,109.534 193.862,106.608 257.239,15.504 262.066,9.06221 267.865,6.72459 294.423,3.63347 310.798,2.19187 312.168,2.11036 317.694,1.21928 318.627,1.09603 326.015,0.334087 415.914,-6.33141 432.493,-15.2482 485.223,-46.9549 485.312,-81.265 453.273,-109.684 415.257,-146.014 414.761,-146.449 410.905,-149.539 405.373,-154.516 402.927,-156.513 390.832,-165.419 383.62,-170.124 381.135,-171.537 329.802,-196.608 317.791,-203.48 312.989,-206.611 295.656,-220.864 292.417,-223.227 266.254,-244.139 258.806,-256.057 "/>
<polyline fill="none" stroke="#000000" points="732.357,-224.553 735.492,-225.638 739.613,-227.266 749.861,-231.823 754.028,-233.88 757.325,-235.67 771.921,-244.336 776.671,-247.385 783.227,-252.246 792.97,-251.325 803.536,-251.015 813.554,-251.374 819.245,-250.999 833.048,-250.54 842.962,-249.539 849.74,-248.625 851.712,-248.293 868.974,-244.794 878.008,-242.354 883.198,-232.404 900.168,-196.181 983.43,-187.148 985.421,-187.091 991.316,-187.396 998.702,-187.179 1000.85,-187.288 1003.84,-187.199 1006.4,-186.916 1015.25,-187.355 1016.24,-187.324 1018.61,-187.059 1022.43,-186.937 1025.84,-187.102 1040.72,-189.021 1051.3,-192.079 1054.28,-193.175 1062.52,-196.885 1078.34,-205.287 1078.98,-205.727 1083.57,-209.243 1098.84,-222.285 1103.31,-218.346 1174.87,-166.051 1183.6,-158.921 1198.02,-145.898 1201.18,-142.795 1207.41,-136.16 1210.25,-133.627 1238.38,-106.623 1187.38,-34.9126 1167.16,-9.26388 1142.74,1.96872 1103.23,7.4433 1098.87,8.15736 1098.22,8.28181 1093.29,9.34389 1077.53,7.58981 1064.13,6.77189 1061.84,6.74688 1058.92,5.88033 1039.92,1.27128 1023.15,-1.8778 1007.32,-3.54774 995.709,-4.45455 976.51,-4.37537 921.085,-2.63119 901.76,-13.2876 824.989,-3.99638 800.913,-0.398973 791.443,1.81305 783.255,3.95723 773.452,4.29614 768.887,4.69277 768.705,4.71336 758.074,6.19574 742.265,8.81613 742.236,8.82171 720.144,14.2227 718.114,14.7713 702.942,20.0715 701.222,20.302 695.332,17.3433 676.782,9.61778 676.405,9.47152 674.525,8.79669 658.728,3.57176 655.02,2.45228 634.483,-2.58105 513.914,-28.633 485.223,-46.9549 485.312,-81.265 498.352,-107.711 515.618,-144.881 540.001,-210.55 639.307,-216.886 644.826,-216.398 651.484,-216.138 652.875,-216.152 656.372,-216.36 663.607,-216.424 668.205,-216.69 668.593,-216.654 686.312,-216.731 686.923,-216.702 701.155,-217.445 705.906,-218.159 721.038,-221.185 732.357,-224.553 "/>
<polyline fill="none" stroke="#000000" points="699.116,-864.599 705.396,-856.506 714.285,-845.507 723.729,-834.312 727.138,-830.625 732.803,-824.778 735.725,-821.906 739.787,-818.108 743.317,-814.441 744.71,-813.07 756.988,-800.297 758.172,-799.137 768.09,-789.996 770.195,-788.182 778.234,-780.751 790.866,-770.686 795.842,-767.354 806.864,-760.646 815.223,-756.089 820.055,-753.766 824.433,-751.939 831.954,-749.268 834.043,-748.657 868.728,-740.651 888.595,-733.461 889.803,-732.872 900.779,-726.79 907.906,-722.38 917.507,-715.82 924.38,-710.238 932.771,-702.865 942.988,-693.219 944.857,-691.769 947.316,-693.427 1020.04,-739.116 1038.73,-732.384 1051.54,-728.332 1061.49,-726.071 1064.59,-725.504 1082.09,-723.078 1084.95,-722.81 1089.88,-722.568 1090.91,-722.562 1096.69,-722.791 1107.03,-722.755 1107.06,-722.758 1110.21,-722.756 1114.26,-722.58 1122.43,-722.587 1128.97,-722.312 1140.4,-721.339 1144.85,-720.576 1160.76,-717.16 1167.58,-715.406 1174.46,-713.051 1247.92,-684.72 1250.65,-680.996 1242.26,-654.479 1232.86,-620.424 1231.62,-615.148 1128.23,-596.217 1121.54,-595.689 1115.86,-595.833 1114.97,-595.762 1108.93,-595.904 1108.08,-595.834 1102.57,-595.955 1101.88,-595.898 1095.37,-596.03 1093.09,-595.834 1092.61,-595.843 1080.38,-594.767 1076.01,-593.92 1065.16,-590.659 1050.74,-583.257 1040.11,-575.556 1027.65,-565.233 1009.92,-552.559 995.148,-575.159 970.589,-618.933 943.398,-660.516 940.918,-663.937 921.695,-648.698 919.798,-647.424 906.631,-637.753 898.541,-632.871 894.766,-630.836 885.8,-626.57 835.207,-605.758 831.124,-603.823 823.689,-599.827 823.189,-599.526 812.162,-592.172 801.918,-583.985 795.055,-579.112 784.371,-570.918 780.159,-566.96 759.973,-546.731 756.869,-543.269 730.727,-510.869 730.589,-510.667 729.746,-509.502 703.889,-502.023 702.612,-501.571 699.489,-502.802 695.274,-504.369 672.262,-511.903 666.383,-513.693 663.09,-514.621 659.435,-515.568 637.485,-520.27 634.136,-520.76 623.329,-532.073 616.694,-538.695 613.443,-541.63 604.864,-550.574 588.944,-565.434 581.556,-571.903 581.409,-572.023 571.513,-579.573 569.816,-580.771 562.799,-585.348 543.023,-596.133 485.974,-623.956 474.547,-630.162 471.634,-631.899 469.617,-633.213 461.351,-639.063 453.953,-644.712 449.128,-648.665 445.818,-651.192 427.895,-666.786 425.144,-669.612 405.867,-657.6 403.563,-656.259 402.71,-655.829 391.058,-650.398 379.943,-645.646 306.617,-617.193 297.476,-612.905 224.598,-572.688 189.621,-578.429 171.395,-628.302 163.778,-724.47 152.898,-795.941 164.658,-802.443 191.653,-816.546 192.698,-817.024 200.332,-820.278 223.495,-828.708 291.323,-849.035 310.895,-856.171 314.982,-857.79 385.074,-887.785 398.829,-885.022 458.251,-871.824 549.995,-911.576 552.09,-912.596 552.867,-1004.58 564.543,-1029.73 591.565,-1092.67 606.817,-1132 702.723,-1145.08 713.411,-1146.06 716.018,-1146.07 724.152,-1145.73 733.198,-1146.2 738.43,-1146.01 745.636,-1146.08 749.635,-1146.3 769.948,-1149.36 785.369,-1153.1 797.524,-1140.44 848.897,-1079.52 865.133,-1062.47 878.196,-1047.7 882.015,-1043.09 894.376,-1029.38 911.831,-1005.23 909.847,-993.152 906.557,-976.322 888.219,-966.551 887.841,-966.36 872.141,-958.895 777.747,-922.091 754.271,-912.235 733.209,-900.912 723.74,-895.546 717.508,-891.837 691.091,-875.35 699.116,-864.599 "/>
<polyline fill="none" stroke="#000000" points="650.083,-363.728 645.111,-359.86 644.284,-359.292 630.711,-348.273 584.154,-315.879 574.533,-308.024 573.205,-307.108 570.991,-305.359 560.938,-296.334 559.412,-294.804 539.302,-272.364 538.254,-271.093 528.635,-260.539 531.38,-245.242 534.633,-230.674 540.001,-210.55 639.307,-216.886 644.826,-216.398 651.484,-216.138 652.875,-216.152 656.372,-216.36 663.607,-216.424 668.205,-216.69 668.593,-216.654 686.312,-216.731 686.923,-216.702 701.155,-217.445 705.906,-218.159 721.038,-221.185 732.357,-224.553 735.492,-225.638 739.613,-227.266 749.861,-231.823 754.028,-233.88 757.325,-235.67 771.921,-244.336 776.671,-247.385 783.227,-252.246 772.547,-270.708 751.944,-311.038 731.9,-357.953 728.01,-365.694 698.095,-417.406 689.969,-407.505 677.653,-393.453 670.935,-384.963 661.08,-374.425 650.083,-363.728 "/>
<polyline fill="none" stroke="#000000" points="1007.29,-1534.33 1081.95,-1528.07 1113.81,-1509.09 1126.57,-1512.58 1213,-1530.74 1219.39,-1532.26 1230.6,-1535.24 1232.09,-1535.67 1242.58,-1538.32 1260.96,-1544.45 1261.16,-1544.53 1277.94,-1524.58 1283.48,-1518.35 1287.96,-1512.88 1309.21,-1488.48 1357.19,-1426.91 1356.73,-1423.76 1353.65,-1386.34 1352.43,-1378.18 1352.1,-1374.22 1340.28,-1293.57 1348.1,-1282.89 1354.66,-1280.44 1364.59,-1277.35 1369.14,-1276.08 1380.6,-1273.6 1387.39,-1272.34 1387.79,-1272.28 1406.45,-1269.99 1406.79,-1269.97 1423.4,-1269.51 1427.41,-1269.53 1431.16,-1269.29 1432.34,-1269.29 1441.34,-1269 1449.88,-1269.26 1450.73,-1269.34 1456.08,-1269.49 1466.65,-1269.44 1467.77,-1268.82 1483.6,-1261.43 1545.49,-1237.52 1562.16,-1230.31 1568.89,-1227.11 1589.9,-1215.23 1590.67,-1214.73 1606.06,-1204 1663.84,-1161.22 1671.47,-1155.86 1682.83,-1148.29 1660.29,-1129.16 1644.75,-1116.45 1628.44,-1103.64 1625.98,-1101.79 1601.87,-1086.04 1517.92,-1036.86 1502.37,-1049 1484.1,-1066.07 1479.16,-1070.34 1465.82,-1080.96 1454.29,-1088.5 1450.17,-1090.62 1434.95,-1097.41 1426.94,-1099.86 1415.23,-1102.62 1410.92,-1103.33 1397.52,-1103.65 1396,-1103.8 1390.91,-1103.6 1387.11,-1103.74 1383.54,-1103.62 1383.24,-1103.59 1376.39,-1103.4 1372.88,-1103.58 1369.89,-1103.96 1365.35,-1104.22 1361.37,-1104.17 1359.65,-1104.02 1356.41,-1104 1354.74,-1103.87 1352.56,-1103.55 1347.97,-1103.22 1344.35,-1103.24 1339.05,-1103.68 1338.13,-1103.69 1326.62,-1103.03 1316.91,-1101.1 1305.54,-1098.04 1302,-1096.84 1299.3,-1095.74 1290.73,-1091.65 1289.51,-1090.98 1271.83,-1080.01 1270.48,-1078.98 1259.85,-1070.15 1251.1,-1062.26 1254.47,-1049 1260.33,-1008 1279.1,-934.186 1248.76,-909.101 1180.19,-908.317 1173.91,-908.018 1172.66,-908.004 1166.22,-908.167 1162.64,-908.129 1156.28,-908.292 1154.71,-908.219 1149.21,-908.164 1146.62,-908.044 1145.05,-908.029 1136.49,-908.258 1133.72,-908.132 1133.39,-908.129 1125.21,-908.354 1122.99,-908.496 1117.33,-908.449 1114.72,-908.522 1108.45,-908.472 1103.89,-908.602 1101.56,-908.5 1097.16,-908.149 1081.27,-908.039 1076.1,-907.632 1057.91,-904.881 1020.6,-897.903 943.404,-948.129 934.946,-953.952 912.01,-971.495 909.945,-973.224 906.557,-976.322 909.847,-993.152 911.831,-1005.23 894.376,-1029.38 882.015,-1043.09 878.196,-1047.7 865.133,-1062.47 848.897,-1079.52 797.524,-1140.44 785.369,-1153.1 798.524,-1182.32 814.277,-1224.48 817.468,-1231.69 859.236,-1313.25 851.301,-1325.25 894.346,-1403.9 918.385,-1462.07 934.371,-1495.03 960.028,-1541.91 969.53,-1540.87 976.273,-1539.36 980.975,-1538.44 1001.53,-1534.97 1007.29,-1534.33 "/>
<!-- New Beat&#45;&gt;X&#45;Commando -->
<g id="edge1" class="edge"><title>New Beat&#45;&gt;X&#45;Commando</title>
<path fill="none" stroke="#555555" stroke-opacity="0.133333" d="M258.56,-1098.5C273.58,-1093.6 289.64,-1088.3 304.29,-1083.5"/>
<polygon fill="#555555" fill-opacity="0.133333" stroke="#555555" stroke-opacity="0.133333" points="305.743,-1086.71 314.18,-1080.3 303.588,-1080.05 305.743,-1086.71"/>
</g>
<!-- New Beat&#45;&gt;Amnesia -->
<g id="edge2" class="edge"><title>New Beat&#45;&gt;Amnesia</title>
<path fill="none" stroke="#555555" stroke-opacity="0.133333" d="M140.19,-1099.1C122.67,-1093.6 103.82,-1087.8 87.423,-1082.7"/>
<polygon fill="#555555" fill-opacity="0.133333" stroke="#555555" stroke-opacity="0.133333" points="88.1554,-1079.26 77.566,-1079.6 86.0553,-1085.94 88.1554,-1079.26"/>
</g>
<!-- New Beat&#45;&gt;Dirty Harry -->
<g id="edge3" class="edge"><title>New Beat&#45;&gt;Dirty Harry</title>
<path fill="none" stroke="#555555" stroke-opacity="0.133333" d="M199.85,-1091.2C199.61,-1061.1 199.23,-1012.2 198.99,-981.33"/>
<polygon fill="#555555" fill-opacity="0.133333" stroke="#555555" stroke-opacity="0.133333" points="202.489,-981.202 198.91,-971.23 195.489,-981.257 202.489,-981.202"/>
</g>
<!-- New Beat&#45;&gt;The Beat Pirate -->
<g id="edge4" class="edge"><title>New Beat&#45;&gt;The Beat Pirate</title>
<path fill="none" stroke="#555555" stroke-opacity="0.133333" d="M219.13,-1143.3C236.16,-1166.2 261.01,-1199.7 278.19,-1222.8"/>
<polygon fill="#555555" fill-opacity="0.133333" stroke="#555555" stroke-opacity="0.133333" points="275.591,-1225.17 284.37,-1231.1 281.205,-1220.99 275.591,-1225.17"/>
</g>
<!-- New Beat&#45;&gt;Indicate -->
<g id="edge5" class="edge"><title>New Beat&#45;&gt;Indicate</title>
<path fill="none" stroke="#555555" stroke-opacity="0.133333" d="M181.71,-1143.5C164.77,-1167.4 139.77,-1202.6 122.93,-1226.3"/>
<polygon fill="#555555" fill-opacity="0.133333" stroke="#555555" stroke-opacity="0.133333" points="120.046,-1224.32 117.12,-1234.5 125.757,-1228.36 120.046,-1224.32"/>
</g>
<!-- Acid House&#45;&gt;BX&#45;8017 -->
<g id="edge6" class="edge"><title>Acid House&#45;&gt;BX&#45;8017</title>
<path fill="none" stroke="#555555" stroke-opacity="0.133333" d="M504.5,-380.25C506.9,-379.98 509.27,-379.72 511.62,-379.46"/>
<polygon fill="#555555" fill-opacity="0.133333" stroke="#555555" stroke-opacity="0.133333" points="512.124,-382.926 521.67,-378.33 511.342,-375.969 512.124,-382.926"/>
</g>
<!-- Acid House&#45;&gt;Jarvic 7 -->
<g id="edge7" class="edge"><title>Acid House&#45;&gt;Jarvic 7</title>
<path fill="none" stroke="#555555" stroke-opacity="0.133333" d="M322.12,-400.8C317.07,-401.37 312.11,-401.94 307.31,-402.48"/>
<polygon fill="#555555" fill-opacity="0.133333" stroke="#555555" stroke-opacity="0.133333" points="306.669,-399.03 297.13,-403.64 307.462,-405.985 306.669,-399.03"/>
</g>
<!-- Acid House&#45;&gt;Mike Dred -->
<g id="edge8" class="edge"><title>Acid House&#45;&gt;Mike Dred</title>
<path fill="none" stroke="#555555" stroke-opacity="0.133333" d="M410.72,-364.26C408.25,-336.93 404.38,-294.24 401.84,-266.2"/>
<polygon fill="#555555" fill-opacity="0.133333" stroke="#555555" stroke-opacity="0.133333" points="405.325,-265.875 400.94,-256.23 398.353,-266.504 405.325,-265.875"/>
</g>
<!-- Acid House&#45;&gt;RaTaXeS SA FreeSysTeM -->
<g id="edge9" class="edge"><title>Acid House&#45;&gt;RaTaXeS SA FreeSysTeM</title>
<path fill="none" stroke="#555555" stroke-opacity="0.133333" d="M416.75,-416.8C420.48,-443.69 426.25,-485.29 430.09,-512.98"/>
<polygon fill="#555555" fill-opacity="0.133333" stroke="#555555" stroke-opacity="0.133333" points="426.667,-513.782 431.5,-523.21 433.602,-512.826 426.667,-513.782"/>
</g>
<!-- Electropunk / Anhalt EBM&#45;&gt;Container 90 -->
<g id="edge10" class="edge"><title>Electropunk / Anhalt EBM&#45;&gt;Container 90</title>
<path fill="none" stroke="#555555" stroke-opacity="0.133333" d="M1081.9,-389.43C1096.1,-384.78 1110.6,-380.03 1123.8,-375.72"/>
<polygon fill="#555555" fill-opacity="0.133333" stroke="#555555" stroke-opacity="0.133333" points="1125.11,-378.975 1133.5,-372.51 1122.91,-372.329 1125.11,-378.975"/>
</g>
<!-- Electropunk / Anhalt EBM&#45;&gt;Kommando XY -->
<g id="edge11" class="edge"><title>Electropunk / Anhalt EBM&#45;&gt;Kommando XY</title>
<path fill="none" stroke="#555555" stroke-opacity="0.133333" d="M928.3,-389.6C916.41,-385.91 904.38,-382.18 893.16,-378.69"/>
<polygon fill="#555555" fill-opacity="0.133333" stroke="#555555" stroke-opacity="0.133333" points="894.118,-375.323 883.53,-375.7 892.042,-382.008 894.118,-375.323"/>
</g>
<!-- Electropunk / Anhalt EBM&#45;&gt;Kropp -->
<g id="edge12" class="edge"><title>Electropunk / Anhalt EBM&#45;&gt;Kropp</title>
<path fill="none" stroke="#555555" stroke-opacity="0.133333" d="M1006.7,-387.66C1006.4,-355.12 1006,-299.99 1005.7,-266.49"/>
<polygon fill="#555555" fill-opacity="0.133333" stroke="#555555" stroke-opacity="0.133333" points="1009.2,-266.405 1005.6,-256.44 1002.2,-266.474 1009.2,-266.405"/>
</g>
<!-- Electropunk / Anhalt EBM&#45;&gt;EM:KO -->
<g id="edge13" class="edge"><title>Electropunk / Anhalt EBM&#45;&gt;EM:KO</title>
<path fill="none" stroke="#555555" stroke-opacity="0.133333" d="M1026.3,-440.1C1045.2,-465.52 1073.7,-503.89 1092.4,-529.07"/>
<polygon fill="#555555" fill-opacity="0.133333" stroke="#555555" stroke-opacity="0.133333" points="1089.82,-531.463 1098.6,-537.39 1095.43,-527.28 1089.82,-531.463"/>
</g>
<!-- Electropunk / Anhalt EBM&#45;&gt;Jaeger 90 -->
<g id="edge14" class="edge"><title>Electropunk / Anhalt EBM&#45;&gt;Jaeger 90</title>
<path fill="none" stroke="#555555" stroke-opacity="0.133333" d="M988.22,-440.29C969.77,-466.28 941.71,-505.79 923.4,-531.58"/>
<polygon fill="#555555" fill-opacity="0.133333" stroke="#555555" stroke-opacity="0.133333" points="920.521,-529.589 917.59,-539.77 926.231,-533.639 920.521,-529.589"/>
</g>
<!-- Neue Deutsche Welle&#45;&gt;Malaria -->
<g id="edge15" class="edge"><title>Neue Deutsche Welle&#45;&gt;Malaria</title>
<path fill="none" stroke="#555555" stroke-opacity="0.133333" d="M564.79,-1400.8C599.26,-1362.1 663.62,-1289.9 697.13,-1252.3"/>
<polygon fill="#555555" fill-opacity="0.133333" stroke="#555555" stroke-opacity="0.133333" points="699.77,-1254.6 703.8,-1244.8 694.539,-1249.95 699.77,-1254.6"/>
</g>
<!-- Neue Deutsche Welle&#45;&gt;Palais Schaumburg -->
<g id="edge16" class="edge"><title>Neue Deutsche Welle&#45;&gt;Palais Schaumburg</title>
<path fill="none" stroke="#555555" stroke-opacity="0.133333" d="M551.07,-1453.2C568.14,-1501 604.04,-1601.4 621.42,-1650.1"/>
<polygon fill="#555555" fill-opacity="0.133333" stroke="#555555" stroke-opacity="0.133333" points="618.16,-1651.38 624.84,-1659.6 624.746,-1649.01 618.16,-1651.38"/>
</g>
<!-- Neue Deutsche Welle&#45;&gt;Frl. Menke -->
<g id="edge17" class="edge"><title>Neue Deutsche Welle&#45;&gt;Frl. Menke</title>
<path fill="none" stroke="#555555" stroke-opacity="0.133333" d="M533.04,-1400.6C517.19,-1352.4 483.56,-1249.9 467.37,-1200.6"/>
<polygon fill="#555555" fill-opacity="0.133333" stroke="#555555" stroke-opacity="0.133333" points="470.657,-1199.39 464.19,-1191 464.012,-1201.59 470.657,-1199.39"/>
</g>
<!-- Neue Deutsche Welle&#45;&gt;Christoph Kreutzer -->
<g id="edge18" class="edge"><title>Neue Deutsche Welle&#45;&gt;Christoph Kreutzer</title>
<path fill="none" stroke="#555555" stroke-opacity="0.133333" d="M647.95,-1447.5C676.02,-1452.9 705.61,-1458.7 731.29,-1463.7"/>
<polygon fill="#555555" fill-opacity="0.133333" stroke="#555555" stroke-opacity="0.133333" points="730.812,-1467.17 741.29,-1465.6 732.119,-1460.29 730.812,-1467.17"/>
</g>
<!-- Neue Deutsche Welle&#45;&gt;Polar Pop -->
<g id="edge19" class="edge"><title>Neue Deutsche Welle&#45;&gt;Polar Pop</title>
<path fill="none" stroke="#555555" stroke-opacity="0.133333" d="M519.24,-1453C485.47,-1492.4 421.94,-1566.6 388.85,-1605.2"/>
<polygon fill="#555555" fill-opacity="0.133333" stroke="#555555" stroke-opacity="0.133333" points="386.106,-1603.02 382.27,-1612.9 391.427,-1607.57 386.106,-1603.02"/>
</g>
<!-- Neue Deutsche Welle&#45;&gt;Christiane F. -->
<g id="edge20" class="edge"><title>Neue Deutsche Welle&#45;&gt;Christiane F.</title>
<path fill="none" stroke="#555555" stroke-opacity="0.133333" d="M436.63,-1406.1C402.69,-1399.4 366.28,-1392.2 336.9,-1386.4"/>
<polygon fill="#555555" fill-opacity="0.133333" stroke="#555555" stroke-opacity="0.133333" points="337.31,-1382.91 326.82,-1384.4 335.948,-1389.78 337.31,-1382.91"/>
</g>
<!-- EBM&#45;&gt;Lether Strip -->
<g id="edge21" class="edge"><title>EBM&#45;&gt;Lether Strip</title>
<path fill="none" stroke="#555555" stroke-opacity="0.133333" d="M1534.6,-1463.9C1517.4,-1446.4 1493.8,-1422.7 1476.3,-1404.9"/>
<polygon fill="#555555" fill-opacity="0.133333" stroke="#555555" stroke-opacity="0.133333" points="1478.71,-1402.36 1469.2,-1397.7 1473.73,-1407.28 1478.71,-1402.36"/>
</g>
<!-- EBM&#45;&gt;Engelteck&#45;7 -->
<g id="edge22" class="edge"><title>EBM&#45;&gt;Engelteck&#45;7</title>
<path fill="none" stroke="#555555" stroke-opacity="0.133333" d="M1591.4,-1467.3C1610.2,-1456 1633.8,-1442 1652.9,-1430.6"/>
<polygon fill="#555555" fill-opacity="0.133333" stroke="#555555" stroke-opacity="0.133333" points="1654.81,-1433.53 1661.6,-1425.4 1651.22,-1427.53 1654.81,-1433.53"/>
</g>
<!-- EBM&#45;&gt;Schakt Neun -->
<g id="edge23" class="edge"><title>EBM&#45;&gt;Schakt Neun</title>
<path fill="none" stroke="#555555" stroke-opacity="0.133333" d="M1561.4,-1461C1564.9,-1434.4 1570.2,-1393.4 1573.8,-1366.2"/>
<polygon fill="#555555" fill-opacity="0.133333" stroke="#555555" stroke-opacity="0.133333" points="1577.29,-1366.47 1575.1,-1356.1 1570.35,-1365.57 1577.29,-1366.47"/>
</g>
<!-- EBM&#45;&gt;Gruppe Borsik -->
<g id="edge24" class="edge"><title>EBM&#45;&gt;Gruppe Borsik</title>
<path fill="none" stroke="#555555" stroke-opacity="0.133333" d="M1599.2,-1503.1C1615.3,-1509.2 1633.8,-1516.3 1650.5,-1522.7"/>
<polygon fill="#555555" fill-opacity="0.133333" stroke="#555555" stroke-opacity="0.133333" points="1649.41,-1526.03 1660,-1526.3 1651.89,-1519.48 1649.41,-1526.03"/>
</g>
<!-- EBM&#45;&gt;Escalator -->
<g id="edge25" class="edge"><title>EBM&#45;&gt;Escalator</title>
<path fill="none" stroke="#555555" stroke-opacity="0.133333" d="M1566.4,-1513.2C1574.7,-1538.5 1587.2,-1576.8 1595.7,-1602.6"/>
<polygon fill="#555555" fill-opacity="0.133333" stroke="#555555" stroke-opacity="0.133333" points="1592.4,-1603.76 1598.8,-1612.2 1599.06,-1601.61 1592.4,-1603.76"/>
</g>
<!-- EBM&#45;&gt;Noise Unit -->
<g id="edge26" class="edge"><title>EBM&#45;&gt;Noise Unit</title>
<path fill="none" stroke="#555555" stroke-opacity="0.133333" d="M1541.7,-1512.2C1527.7,-1533.8 1507.5,-1564.8 1493.2,-1586.8"/>
<polygon fill="#555555" fill-opacity="0.133333" stroke="#555555" stroke-opacity="0.133333" points="1490.18,-1585.02 1487.6,-1595.3 1496.02,-1588.87 1490.18,-1585.02"/>
</g>
<!-- EBM&#45;&gt;Klinik -->
<g id="edge27" class="edge"><title>EBM&#45;&gt;Klinik</title>
<path fill="none" stroke="#555555" stroke-opacity="0.133333" d="M1507,-1492.3C1489.3,-1494.1 1469.5,-1496 1452.4,-1497.7"/>
<polygon fill="#555555" fill-opacity="0.133333" stroke="#555555" stroke-opacity="0.133333" points="1451.81,-1494.24 1442.2,-1498.7 1452.49,-1501.21 1451.81,-1494.24"/>
</g>
<!-- Minimal synth / Coldwave&#45;&gt;Blackie -->
<g id="edge28" class="edge"><title>Minimal synth / Coldwave&#45;&gt;Blackie</title>
<path fill="none" stroke="#555555" stroke-opacity="0.133333" d="M1256.9,-246.16C1251.6,-246.16 1246.6,-246.16 1241.8,-246.16"/>
<polygon fill="#555555" fill-opacity="0.133333" stroke="#555555" stroke-opacity="0.133333" points="1241.8,-242.66 1231.8,-246.16 1241.8,-249.66 1241.8,-242.66"/>
</g>
<!-- Minimal synth / Coldwave&#45;&gt;Kap Bambino -->
<g id="edge29" class="edge"><title>Minimal synth / Coldwave&#45;&gt;Kap Bambino</title>
<path fill="none" stroke="#555555" stroke-opacity="0.133333" d="M1674.6,-246.16C1674.7,-246.16 1674.9,-246.16 1675,-246.16"/>
<polygon fill="#555555" fill-opacity="0.133333" stroke="#555555" stroke-opacity="0.133333" points="1671.9,-249.66 1681.9,-246.16 1671.9,-242.66 1671.9,-249.66"/>
</g>
<!-- Retrowave / Synthwave&#45;&gt;NightStop -->
<g id="edge30" class="edge"><title>Retrowave / Synthwave&#45;&gt;NightStop</title>
<path fill="none" stroke="#555555" stroke-opacity="0.133333" d="M1456.6,-782.75C1496.4,-756.85 1557.1,-717.32 1594.3,-693.11"/>
<polygon fill="#555555" fill-opacity="0.133333" stroke="#555555" stroke-opacity="0.133333" points="1596.26,-696.011 1602.7,-687.6 1592.42,-690.158 1596.26,-696.011"/>
</g>
<!-- Retrowave / Synthwave&#45;&gt;Lazerhawk -->
<g id="edge31" class="edge"><title>Retrowave / Synthwave&#45;&gt;Lazerhawk</title>
<path fill="none" stroke="#555555" stroke-opacity="0.133333" d="M1456.5,-834.21C1496.1,-860.1 1556.4,-899.56 1593.5,-923.84"/>
<polygon fill="#555555" fill-opacity="0.133333" stroke="#555555" stroke-opacity="0.133333" points="1591.71,-926.85 1602,-929.37 1595.53,-920.983 1591.71,-926.85"/>
</g>
<!-- Retrowave / Synthwave&#45;&gt;Cluster Buster -->
<g id="edge32" class="edge"><title>Retrowave / Synthwave&#45;&gt;Cluster Buster</title>
<path fill="none" stroke="#555555" stroke-opacity="0.133333" d="M1411.9,-782.26C1402.9,-736.64 1384.2,-642.99 1374.8,-596.08"/>
<polygon fill="#555555" fill-opacity="0.133333" stroke="#555555" stroke-opacity="0.133333" points="1378.18,-595.137 1372.8,-586.01 1371.32,-596.5 1378.18,-595.137"/>
</g>
<!-- Retrowave / Synthwave&#45;&gt;Suicide Forest -->
<g id="edge33" class="edge"><title>Retrowave / Synthwave&#45;&gt;Suicide Forest</title>
<path fill="none" stroke="#555555" stroke-opacity="0.133333" d="M1412,-834.66C1402.9,-880.3 1384.4,-973.99 1375.1,-1020.9"/>
<polygon fill="#555555" fill-opacity="0.133333" stroke="#555555" stroke-opacity="0.133333" points="1371.61,-1020.51 1373.1,-1031 1378.48,-1021.87 1371.61,-1020.51"/>
</g>
<!-- Retrowave / Synthwave&#45;&gt;Random soundcloud -->
<g id="edge34" class="edge"><title>Retrowave / Synthwave&#45;&gt;Random soundcloud</title>
<path fill="none" stroke="#555555" stroke-opacity="0.133333" d="M1229.6,-808.54C1229.4,-808.54 1229.3,-808.54 1229.1,-808.54"/>
<polygon fill="#555555" fill-opacity="0.133333" stroke="#555555" stroke-opacity="0.133333" points="1231.8,-805.04 1221.8,-808.54 1231.8,-812.04 1231.8,-805.04"/>
</g>
<!-- Italo disco&#45;&gt;Scotch -->
<g id="edge35" class="edge"><title>Italo disco&#45;&gt;Scotch</title>
<path fill="none" stroke="#555555" stroke-opacity="0.133333" d="M270.02,-132.88C270.19,-132.88 270.35,-132.88 270.51,-132.88"/>
<polygon fill="#555555" fill-opacity="0.133333" stroke="#555555" stroke-opacity="0.133333" points="267.72,-136.38 277.72,-132.88 267.72,-129.38 267.72,-136.38"/>
</g>
<!-- Italo disco&#45;&gt;Fred Ventura -->
<g id="edge36" class="edge"><title>Italo disco&#45;&gt;Fred Ventura</title>
<path fill="none" stroke="#555555" stroke-opacity="0.133333" d="M165.57,-158.96C154.82,-177.54 140.4,-202.44 129.57,-221.15"/>
<polygon fill="#555555" fill-opacity="0.133333" stroke="#555555" stroke-opacity="0.133333" points="126.405,-219.631 124.43,-230.04 132.465,-223.135 126.405,-219.631"/>
</g>
<!-- Italo disco&#45;&gt;Love -->
<g id="edge37" class="edge"><title>Italo disco&#45;&gt;Love</title>
<path fill="none" stroke="#555555" stroke-opacity="0.133333" d="M165.57,-106.82C154.68,-88.017 140.04,-62.744 129.16,-43.964"/>
<polygon fill="#555555" fill-opacity="0.133333" stroke="#555555" stroke-opacity="0.133333" points="132.048,-41.967 124.01,-35.065 125.99,-45.4733 132.048,-41.967"/>
</g>
<!-- Stoner / Punk / Garage&#45;&gt;   -->
<g id="edge38" class="edge"><title>Stoner / Punk / Garage&#45;&gt;  </title>
<path fill="none" stroke="#555555" stroke-opacity="0.133333" d="M908.09,-136.16C908.25,-136.16 908.4,-136.16 908.56,-136.16"/>
<polygon fill="#555555" fill-opacity="0.133333" stroke="#555555" stroke-opacity="0.133333" points="905.51,-139.66 915.51,-136.16 905.51,-132.66 905.51,-139.66"/>
</g>
<!-- Industrial / Experimental / Avantgarde&#45;&gt;Nurse With Wound -->
<g id="edge39" class="edge"><title>Industrial / Experimental / Avantgarde&#45;&gt;Nurse With Wound</title>
<path fill="none" stroke="#555555" stroke-opacity="0.133333" d="M876.63,-659.56C918.15,-654.91 960.24,-650.2 995.18,-646.3"/>
<polygon fill="#555555" fill-opacity="0.133333" stroke="#555555" stroke-opacity="0.133333" points="995.755,-649.757 1005.3,-645.16 994.971,-642.801 995.755,-649.757"/>
</g>
<!-- Industrial / Experimental / Avantgarde&#45;&gt;Coil -->
<g id="edge40" class="edge"><title>Industrial / Experimental / Avantgarde&#45;&gt;Coil</title>
<path fill="none" stroke="#555555" stroke-opacity="0.133333" d="M511.34,-700.71C446.14,-708.11 378.88,-715.75 338.76,-720.3"/>
<polygon fill="#555555" fill-opacity="0.133333" stroke="#555555" stroke-opacity="0.133333" points="338.219,-716.839 328.68,-721.45 339.012,-723.794 338.219,-716.839"/>
</g>
<!-- Industrial / Experimental / Avantgarde&#45;&gt;Clock DVA -->
<g id="edge41" class="edge"><title>Industrial / Experimental / Avantgarde&#45;&gt;Clock DVA</title>
<path fill="none" stroke="#555555" stroke-opacity="0.133333" d="M690.81,-653.77C684.48,-583.85 667.28,-393.79 660.73,-321.46"/>
<polygon fill="#555555" fill-opacity="0.133333" stroke="#555555" stroke-opacity="0.133333" points="664.197,-320.934 659.81,-311.29 657.225,-321.565 664.197,-320.934"/>
</g>
<!-- Industrial / Experimental / Avantgarde&#45;&gt;Felix Kubin -->
<g id="edge42" class="edge"><title>Industrial / Experimental / Avantgarde&#45;&gt;Felix Kubin</title>
<path fill="none" stroke="#555555" stroke-opacity="0.133333" d="M696.85,-706.45C706.5,-776.02 732.59,-964.08 742.51,-1035.6"/>
<polygon fill="#555555" fill-opacity="0.133333" stroke="#555555" stroke-opacity="0.133333" points="739.07,-1036.28 743.91,-1045.7 746.004,-1035.31 739.07,-1036.28"/>
</g>
<!-- Chiptune&#45;&gt;Random soundcloud -->
<g id="edge43" class="edge"><title>Chiptune&#45;&gt;Random soundcloud</title>
<path fill="none" stroke="#555555" stroke-opacity="0.133333" d="M983.63,-808.59C1001.7,-808.59 1021.2,-808.59 1039.9,-808.59"/>
<polygon fill="#555555" fill-opacity="0.133333" stroke="#555555" stroke-opacity="0.133333" points="1039.9,-812.09 1049.9,-808.59 1039.9,-805.09 1039.9,-812.09"/>
</g>
<!--   &#45;&gt;           -->
<g id="edge44" class="edge"><title>  &#45;&gt;          </title>
<path fill="none" stroke="#555555" stroke-opacity="0.133333" d="M1195.8,-1201.3C1217.7,-1194.1 1241.4,-1186.3 1262.6,-1179.4"/>
<polygon fill="#555555" fill-opacity="0.133333" stroke="#555555" stroke-opacity="0.133333" points="1263.68,-1182.73 1272.1,-1176.3 1261.51,-1176.07 1263.68,-1182.73"/>
</g>
<!--   &#45;&gt;  -->
<g id="edge45" class="edge"><title>  &#45;&gt; </title>
<path fill="none" stroke="#555555" stroke-opacity="0.133333" d="M1039.8,-1201.4C1016.4,-1194.1 991.31,-1186.3 969.56,-1179.6"/>
<polygon fill="#555555" fill-opacity="0.133333" stroke="#555555" stroke-opacity="0.133333" points="970.407,-1176.2 959.82,-1176.6 968.347,-1182.89 970.407,-1176.2"/>
</g>
<!--   &#45;&gt;   -->
<g id="edge46" class="edge"><title>  &#45;&gt;  </title>
<path fill="none" stroke="#555555" stroke-opacity="0.133333" d="M1119.5,-1199.9C1119.2,-1158.6 1118.6,-1078.9 1118.2,-1036.4"/>
<polygon fill="#555555" fill-opacity="0.133333" stroke="#555555" stroke-opacity="0.133333" points="1121.7,-1036.17 1118.1,-1026.2 1114.7,-1036.23 1121.7,-1036.17"/>
</g>
<!--   &#45;&gt;Armour Breaker -->
<g id="edge47" class="edge"><title>  &#45;&gt;Armour Breaker</title>
<path fill="none" stroke="#555555" stroke-opacity="0.133333" d="M1139.4,-1252.7C1163.8,-1285.5 1205.2,-1341.2 1229.6,-1374"/>
<polygon fill="#555555" fill-opacity="0.133333" stroke="#555555" stroke-opacity="0.133333" points="1226.92,-1376.27 1235.7,-1382.2 1232.54,-1372.09 1226.92,-1376.27"/>
</g>
<!--   &#45;&gt; -->
<g id="edge48" class="edge"><title>  &#45;&gt;</title>
<path fill="none" stroke="#555555" stroke-opacity="0.133333" d="M1101.1,-1252.4C1077.1,-1286.3 1035.5,-1344.8 1011.7,-1378.3"/>
<polygon fill="#555555" fill-opacity="0.133333" stroke="#555555" stroke-opacity="0.133333" points="1008.68,-1376.51 1005.8,-1386.7 1014.41,-1380.53 1008.68,-1376.51"/>
</g>
<!-- New Beat -->
<g id="node1" class="node"><title>New Beat</title>
<text text-anchor="middle" x="200.06" y="-1111.4" font-family="Helvetica,sans-Serif" font-weight="bold" font-size="26.00">New Beat</text>
</g>
<!-- X&#45;Commando -->
<g id="node2" class="node"><title>X&#45;Commando</title>
<text text-anchor="middle" x="355.97" y="-1062.9" font-family="Helvetica,sans-Serif" font-weight="bold" font-size="14.00">X&#45;Commando</text>
</g>
<!-- Amnesia -->
<g id="node3" class="node"><title>Amnesia</title>
<text text-anchor="middle" x="42.896" y="-1065.2" font-family="Helvetica,sans-Serif" font-weight="bold" font-size="14.00">Amnesia</text>
</g>
<!-- Dirty Harry -->
<g id="node4" class="node"><title>Dirty Harry</title>
<text text-anchor="middle" x="198.76" y="-949.3" font-family="Helvetica,sans-Serif" font-weight="bold" font-size="14.00">Dirty Harry</text>
</g>
<!-- The Beat Pirate -->
<g id="node5" class="node"><title>The Beat Pirate</title>
<text text-anchor="middle" x="297.75" y="-1245.4" font-family="Helvetica,sans-Serif" font-weight="bold" font-size="14.00">The Beat Pirate</text>
</g>
<!-- Indicate -->
<g id="node6" class="node"><title>Indicate</title>
<text text-anchor="middle" x="104.87" y="-1248" font-family="Helvetica,sans-Serif" font-weight="bold" font-size="14.00">Indicate</text>
</g>
<!-- Acid House -->
<g id="node7" class="node"><title>Acid House</title>
<text text-anchor="middle" x="413.09" y="-384.18" font-family="Helvetica,sans-Serif" font-weight="bold" font-size="26.00">Acid House</text>
</g>
<!-- BX&#45;8017 -->
<g id="node8" class="node"><title>BX&#45;8017</title>
<text text-anchor="middle" x="564.95" y="-369.79" font-family="Helvetica,sans-Serif" font-weight="bold" font-size="14.00">BX&#45;8017</text>
</g>
<!-- Jarvic 7 -->
<g id="node9" class="node"><title>Jarvic 7</title>
<text text-anchor="middle" x="259" y="-404.27" font-family="Helvetica,sans-Serif" font-weight="bold" font-size="14.00">Jarvic 7</text>
</g>
<!-- Mike Dred -->
<g id="node10" class="node"><title>Mike Dred</title>
<text text-anchor="middle" x="399.29" y="-234.3" font-family="Helvetica,sans-Serif" font-weight="bold" font-size="14.00">Mike Dred</text>
</g>
<!-- RaTaXeS SA FreeSysTeM -->
<g id="node11" class="node"><title>RaTaXeS SA FreeSysTeM</title>
<text text-anchor="middle" x="434.06" y="-537.93" font-family="Helvetica,sans-Serif" font-weight="bold" font-size="14.00">RaTaXeS SA FreeSysTeM</text>
</g>
<!-- Electropunk / Anhalt EBM -->
<g id="node12" class="node"><title>Electropunk / Anhalt EBM</title>
<text text-anchor="middle" x="1006.9" y="-407.71" font-family="Helvetica,sans-Serif" font-weight="bold" font-size="26.00">Electropunk / Anhalt EBM</text>
</g>
<!-- Container 90 -->
<g id="node13" class="node"><title>Container 90</title>
<text text-anchor="middle" x="1173.5" y="-355.72" font-family="Helvetica,sans-Serif" font-weight="bold" font-size="14.00">Container 90</text>
</g>
<!-- Kommando XY -->
<g id="node14" class="node"><title>Kommando XY</title>
<text text-anchor="middle" x="838.89" y="-358.14" font-family="Helvetica,sans-Serif" font-weight="bold" font-size="14.00">Kommando XY</text>
</g>
<!-- Kropp -->
<g id="node15" class="node"><title>Kropp</title>
<text text-anchor="middle" x="1005.5" y="-234.3" font-family="Helvetica,sans-Serif" font-weight="bold" font-size="14.00">Kropp</text>
</g>
<!-- EM:KO -->
<g id="node16" class="node"><title>EM:KO</title>
<text text-anchor="middle" x="1111.3" y="-550.8" font-family="Helvetica,sans-Serif" font-weight="bold" font-size="14.00">EM:KO</text>
</g>
<!-- Jaeger 90 -->
<g id="node17" class="node"><title>Jaeger 90</title>
<text text-anchor="middle" x="905.14" y="-553.61" font-family="Helvetica,sans-Serif" font-weight="bold" font-size="14.00">Jaeger 90</text>
</g>
<!-- Neue Deutsche Welle -->
<g id="node18" class="node"><title>Neue Deutsche Welle</title>
<text text-anchor="middle" x="541.64" y="-1420.5" font-family="Helvetica,sans-Serif" font-weight="bold" font-size="26.00">Neue Deutsche Welle</text>
</g>
<!-- Malaria -->
<g id="node19" class="node"><title>Malaria</title>
<text text-anchor="middle" x="718.66" y="-1224.4" font-family="Helvetica,sans-Serif" font-weight="bold" font-size="14.00">Malaria</text>
</g>
<!-- Palais Schaumburg -->
<g id="node20" class="node"><title>Palais Schaumburg</title>
<text text-anchor="middle" x="631.27" y="-1673.9" font-family="Helvetica,sans-Serif" font-weight="bold" font-size="14.00">Palais Schaumburg</text>
</g>
<!-- Frl. Menke -->
<g id="node21" class="node"><title>Frl. Menke</title>
<text text-anchor="middle" x="458.3" y="-1169.3" font-family="Helvetica,sans-Serif" font-weight="bold" font-size="14.00">Frl. Menke</text>
</g>
<!-- Christoph Kreutzer -->
<g id="node22" class="node"><title>Christoph Kreutzer</title>
<text text-anchor="middle" x="802.09" y="-1473.7" font-family="Helvetica,sans-Serif" font-weight="bold" font-size="14.00">Christoph Kreutzer</text>
</g>
<!-- Polar Pop -->
<g id="node23" class="node"><title>Polar Pop</title>
<text text-anchor="middle" x="367.58" y="-1626.4" font-family="Helvetica,sans-Serif" font-weight="bold" font-size="14.00">Polar Pop</text>
</g>
<!-- Christiane F. -->
<g id="node24" class="node"><title>Christiane F.</title>
<text text-anchor="middle" x="277.84" y="-1371.1" font-family="Helvetica,sans-Serif" font-weight="bold" font-size="14.00">Christiane F.</text>
</g>
<!-- EBM -->
<g id="node25" class="node"><title>EBM</title>
<text text-anchor="middle" x="1557.9" y="-1481" font-family="Helvetica,sans-Serif" font-weight="bold" font-size="26.00">EBM</text>
</g>
<!-- Lether Strip -->
<g id="node26" class="node"><title>Lether Strip</title>
<text text-anchor="middle" x="1451.9" y="-1376.6" font-family="Helvetica,sans-Serif" font-weight="bold" font-size="14.00">Lether Strip</text>
</g>
<!-- Engelteck&#45;7 -->
<g id="node27" class="node"><title>Engelteck&#45;7</title>
<text text-anchor="middle" x="1688" y="-1405.9" font-family="Helvetica,sans-Serif" font-weight="bold" font-size="14.00">Engelteck&#45;7</text>
</g>
<!-- Schakt Neun -->
<g id="node28" class="node"><title>Schakt Neun</title>
<text text-anchor="middle" x="1577.5" y="-1334.3" font-family="Helvetica,sans-Serif" font-weight="bold" font-size="14.00">Schakt Neun</text>
</g>
<!-- Gruppe Borsik -->
<g id="node29" class="node"><title>Gruppe Borsik</title>
<text text-anchor="middle" x="1698.2" y="-1537.2" font-family="Helvetica,sans-Serif" font-weight="bold" font-size="14.00">Gruppe Borsik</text>
</g>
<!-- Escalator -->
<g id="node30" class="node"><title>Escalator</title>
<text text-anchor="middle" x="1604.7" y="-1626.5" font-family="Helvetica,sans-Serif" font-weight="bold" font-size="14.00">Escalator</text>
</g>
<!-- Noise Unit -->
<g id="node31" class="node"><title>Noise Unit</title>
<text text-anchor="middle" x="1476" y="-1609.5" font-family="Helvetica,sans-Serif" font-weight="bold" font-size="14.00">Noise Unit</text>
</g>
<!-- Klinik -->
<g id="node32" class="node"><title>Klinik</title>
<text text-anchor="middle" x="1408.8" y="-1498.3" font-family="Helvetica,sans-Serif" font-weight="bold" font-size="14.00">Klinik</text>
</g>
<!-- Minimal synth / Coldwave -->
<g id="node33" class="node"><title>Minimal synth / Coldwave</title>
<text text-anchor="middle" x="1465.7" y="-239.86" font-family="Helvetica,sans-Serif" font-weight="bold" font-size="26.00">Minimal synth / Coldwave</text>
</g>
<!-- Blackie -->
<g id="node34" class="node"><title>Blackie</title>
<text text-anchor="middle" x="1193.3" y="-242.46" font-family="Helvetica,sans-Serif" font-weight="bold" font-size="14.00">Blackie</text>
</g>
<!-- Kap Bambino -->
<g id="node35" class="node"><title>Kap Bambino</title>
<text text-anchor="middle" x="1744.1" y="-242.46" font-family="Helvetica,sans-Serif" font-weight="bold" font-size="14.00">Kap Bambino</text>
</g>
<!-- Retrowave / Synthwave -->
<g id="node36" class="node"><title>Retrowave / Synthwave</title>
<text text-anchor="middle" x="1417.2" y="-802.15" font-family="Helvetica,sans-Serif" font-weight="bold" font-size="26.00">Retrowave / Synthwave</text>
</g>
<!-- NightStop -->
<g id="node37" class="node"><title>NightStop</title>
<text text-anchor="middle" x="1627" y="-668.12" font-family="Helvetica,sans-Serif" font-weight="bold" font-size="14.00">NightStop</text>
</g>
<!-- Lazerhawk -->
<g id="node38" class="node"><title>Lazerhawk</title>
<text text-anchor="middle" x="1626.5" y="-941.68" font-family="Helvetica,sans-Serif" font-weight="bold" font-size="14.00">Lazerhawk</text>
</g>
<!-- Cluster Buster -->
<g id="node39" class="node"><title>Cluster Buster</title>
<text text-anchor="middle" x="1369.2" y="-564.3" font-family="Helvetica,sans-Serif" font-weight="bold" font-size="14.00">Cluster Buster</text>
</g>
<!-- Suicide Forest -->
<g id="node40" class="node"><title>Suicide Forest</title>
<text text-anchor="middle" x="1369.5" y="-1045.3" font-family="Helvetica,sans-Serif" font-weight="bold" font-size="14.00">Suicide Forest</text>
</g>
<!-- Random soundcloud -->
<g id="node41" class="node"><title>Random soundcloud</title>
<text text-anchor="middle" x="1136" y="-804.88" font-family="Helvetica,sans-Serif" font-weight="bold" font-size="14.00">Random soundcloud</text>
</g>
<!-- Italo disco -->
<g id="node42" class="node"><title>Italo disco</title>
<text text-anchor="middle" x="180.67" y="-126.59" font-family="Helvetica,sans-Serif" font-weight="bold" font-size="26.00">Italo disco</text>
</g>
<!-- Scotch -->
<g id="node43" class="node"><title>Scotch</title>
<text text-anchor="middle" x="313.52" y="-129.18" font-family="Helvetica,sans-Serif" font-weight="bold" font-size="14.00">Scotch</text>
</g>
<!-- Fred Ventura -->
<g id="node44" class="node"><title>Fred Ventura</title>
<text text-anchor="middle" x="114.14" y="-244.09" font-family="Helvetica,sans-Serif" font-weight="bold" font-size="14.00">Fred Ventura</text>
</g>
<!-- Love -->
<g id="node45" class="node"><title>Love</title>
<text text-anchor="middle" x="114.12" y="-14.3" font-family="Helvetica,sans-Serif" font-weight="bold" font-size="14.00">Love</text>
</g>
<!-- Stoner / Punk / Garage -->
<g id="node46" class="node"><title>Stoner / Punk / Garage</title>
<text text-anchor="middle" x="728.9" y="-129.86" font-family="Helvetica,sans-Serif" font-weight="bold" font-size="26.00">Stoner / Punk / Garage</text>
</g>
<!--    -->
<g id="node47" class="node"><title>  </title>
<text text-anchor="middle" x="1043.2" y="-132.46" font-family="Helvetica,sans-Serif" font-weight="bold" font-size="14.00">  </text>
</g>
<!-- Industrial / Experimental / Avantgarde -->
<g id="node48" class="node"><title>Industrial / Experimental / Avantgarde</title>
<text text-anchor="middle" x="693.19" y="-673.77" font-family="Helvetica,sans-Serif" font-weight="bold" font-size="26.00">Industrial / Experimental / Avantgarde</text>
</g>
<!-- Nurse With Wound -->
<g id="node49" class="node"><title>Nurse With Wound</title>
<text text-anchor="middle" x="1078.7" y="-633.25" font-family="Helvetica,sans-Serif" font-weight="bold" font-size="14.00">Nurse With Wound</text>
</g>
<!-- Coil -->
<g id="node50" class="node"><title>Coil</title>
<text text-anchor="middle" x="302" y="-720.77" font-family="Helvetica,sans-Serif" font-weight="bold" font-size="14.00">Coil</text>
</g>
<!-- Clock DVA -->
<g id="node51" class="node"><title>Clock DVA</title>
<text text-anchor="middle" x="658.15" y="-289.3" font-family="Helvetica,sans-Serif" font-weight="bold" font-size="14.00">Clock DVA</text>
</g>
<!-- Felix Kubin -->
<g id="node52" class="node"><title>Felix Kubin</title>
<text text-anchor="middle" x="746.41" y="-1060.1" font-family="Helvetica,sans-Serif" font-weight="bold" font-size="14.00">Felix Kubin</text>
</g>
<!-- Chiptune -->
<g id="node53" class="node"><title>Chiptune</title>
<text text-anchor="middle" x="904.2" y="-802.29" font-family="Helvetica,sans-Serif" font-weight="bold" font-size="26.00">Chiptune</text>
</g>
<!--    -->
<g id="node54" class="node"><title>  </title>
<text text-anchor="middle" x="1119.7" y="-1219.9" font-family="Helvetica,sans-Serif" font-weight="bold" font-size="26.00">  </text>
</g>
<!--            -->
<g id="node55" class="node"><title>          </title>
<text text-anchor="middle" x="1326.3" y="-1154.8" font-family="Helvetica,sans-Serif" font-weight="bold" font-size="14.00">          </text>
</g>
<!--   -->
<g id="node56" class="node"><title> </title>
<text text-anchor="middle" x="911.44" y="-1157.8" font-family="Helvetica,sans-Serif" font-weight="bold" font-size="14.00"> </text>
</g>
<!--    -->
<g id="node57" class="node"><title>  </title>
<text text-anchor="middle" x="1118" y="-1004.3" font-family="Helvetica,sans-Serif" font-weight="bold" font-size="14.00">  </text>
</g>
<!-- Armour Breaker -->
<g id="node58" class="node"><title>Armour Breaker</title>
<text text-anchor="middle" x="1249.2" y="-1396.7" font-family="Helvetica,sans-Serif" font-weight="bold" font-size="14.00">Armour Breaker</text>
</g>
<!--  -->
<g id="node59" class="node"><title></title>
<text text-anchor="middle" x="993.58" y="-1400.2" font-family="Helvetica,sans-Serif" font-weight="bold" font-size="14.00"></text>
</g>
</g>
</svg>
