<?xml version="1.0" encoding="UTF-8" standalone="no"?>
<!DOCTYPE svg PUBLIC "-//W3C//DTD SVG 1.1//EN"
 "http://www.w3.org/Graphics/SVG/1.1/DTD/svg11.dtd">
<!-- Generated by graphviz version 2.43.0 (0)
 -->
<!-- Title: G Pages: 1 -->
<svg width="2214pt" height="1776pt"
 viewBox="0.00 0.00 2214.22 1776.38" xmlns="http://www.w3.org/2000/svg" xmlns:xlink="http://www.w3.org/1999/xlink">
<g id="graph0" class="graph" transform="scale(1 1) rotate(0) translate(91.62 1618.14)">
<title>G</title>
<polygon fill="#dae2ff" stroke="transparent" points="-91.62,158.23 -91.62,-1618.14 2122.6,-1618.14 2122.6,158.23 -91.62,158.23"/>
<polygon fill="#fbb4ae" stroke="#fbb4ae" points="1094.75,-496.85 1101.03,-497.05 1112.51,-497.01 1118.05,-497.38 1119.07,-497.49 1142.83,-500.8 1150.98,-502.52 1158.49,-504.38 1168.71,-519.59 1206.06,-579.82 1172.27,-616.02 1164.14,-623.69 1160.28,-627.85 1151.91,-635.62 1150.86,-636.98 1143.08,-645.36 1132.63,-654.48 1124.25,-660.03 1115.02,-664.23 1103.56,-667.07 1097.62,-667.3 1093.84,-666.66 1088.01,-666.81 1076.27,-669.46 1068.07,-672.9 1061.44,-676.96 1051.11,-685.39 1047.94,-687.43 1042.57,-691.71 1033.85,-700.08 1026.1,-708.76 1019.25,-717.59 1016.8,-720.37 1003.82,-736.89 1003.74,-737 996.84,-747.72 929.17,-717.72 916.96,-721.53 907.85,-723.9 892,-727.2 872.65,-729.21 857.89,-729.19 857.05,-729.1 851.06,-728.78 849.76,-728.77 837.75,-729.35 837.49,-729.35 825.77,-729.89 817.83,-730.66 812.39,-726.49 807.45,-723.08 786.26,-711.7 734.58,-688.05 729.9,-759.9 721.55,-765.1 713.81,-689.21 713.41,-676.54 705.39,-670.86 701.41,-764.33 702.28,-765.7 701.5,-766.93 692.57,-771.41 687.63,-829.81 682.07,-766 673.49,-766 672.97,-765.72 664.04,-765.72 662.43,-656.25 654.13,-656.37 652.36,-656.31 639.51,-656.52 613.05,-624.51 555.69,-633.18 555.69,-633.18 613.05,-624.51 639.51,-656.52 652.36,-656.31 654.13,-656.37 662.43,-656.25 664.04,-765.72 672.97,-765.72 673.49,-766 682.07,-766 687.63,-829.81 692.57,-771.41 701.5,-766.93 702.28,-765.7 701.41,-764.33 705.39,-670.86 713.41,-676.54 713.81,-689.21 721.55,-765.1 729.9,-759.9 734.58,-688.05 786.26,-711.7 807.45,-723.08 812.39,-726.49 817.83,-730.66 798.04,-765.65 780.12,-811.4 766.82,-838.83 749.62,-869.23 764.74,-909.46 766.36,-912.88 736.8,-937.18 725.72,-945.28 720.07,-948.88 709.45,-954.69 697.5,-960.14 687.27,-963.83 681.11,-965.48 669.76,-967.47 662.67,-968.06 657.76,-968.02 656.88,-968.09 643.21,-967.92 640.17,-968.16 628.02,-970.19 617.38,-972.93 606.3,-976.76 603.84,-977.82 597.29,-981.25 586.71,-987.76 585.36,-987.18 571.62,-982.22 564.31,-980.14 545.59,-977.6 530.78,-976.7 527.22,-976.22 514.71,-973.61 506.18,-971.2 501.82,-969.64 489.22,-964.2 478.63,-958.83 470.06,-953.87 468.12,-952.6 466.05,-953.94 388.91,-998.17 372.01,-1009.26 364.92,-1014.47 363.35,-1015.75 354.71,-1023.51 311.98,-1058.7 292.5,-1058.01 214.89,-935.1 209.07,-926.52 153.49,-909.78 104.73,-835.21 90.01,-776.97 88.5,-771.75 77.95,-739.42 77.35,-738.85 59.62,-679.63 50.88,-624.75 166.59,-624.75 183.14,-630.25 191.84,-624.81 191.89,-624.83 200.13,-624.83 203.89,-700.68 206.17,-700.4 217.28,-699.73 218.25,-624.82 221.91,-624.82 226.52,-629.11 226.52,-629.11 221.91,-624.82 218.25,-624.82 217.28,-699.73 206.17,-700.4 203.89,-700.68 200.13,-624.83 191.89,-624.83 191.84,-624.81 183.14,-630.25 166.59,-624.75 50.88,-624.75 40.03,-578 86.1,-508.66 86.15,-503.49 85.09,-459.18 99.02,-417.26 127.31,-320.24 147,-314.9 151.71,-313.76 171.48,-309.57 226.15,-301.26 244.03,-297.36 250.93,-299.25 267.75,-302.74 290.32,-305.91 295.41,-313.26 295.01,-331.66 293.82,-350.83 292.33,-458.55 300.57,-458.55 302.13,-460.8 302.13,-460.8 300.57,-458.55 292.33,-458.55 293.82,-350.83 295.01,-331.66 295.41,-313.26 309.97,-330.22 343.37,-372.3 375.21,-417.1 377.9,-418.23 389.69,-422.35 399.14,-424.98 409.16,-427.05 409.16,-427.05 399.14,-424.98 389.69,-422.35 377.9,-418.23 375.21,-417.1 343.37,-372.3 309.97,-330.22 295.41,-313.26 290.32,-305.91 328.89,-282.29 330.24,-281.53 353.24,-270.82 362.65,-266.91 366.75,-265.41 376.81,-262.24 400,-257.17 404.11,-256.48 421.02,-255.29 430.99,-255.09 436.12,-255.23 436.49,-255.23 437.79,-255.14 447.59,-254.94 450.22,-255.01 454.63,-255.36 468.05,-255.1 470.9,-255.18 471.86,-255.11 485.87,-254.84 490.52,-254.98 492.74,-254.94 513.83,-256.63 518.92,-257.28 538.94,-261.85 546,-263.81 558.07,-267.75 562.52,-274.53 572.37,-291.23 587.78,-299.86 595.85,-303.38 615.24,-310.67 617.36,-311.33 622.29,-312.57 640,-315.93 646.58,-316.76 657.52,-317.48 664.59,-317.06 674.32,-317.15 677.36,-316.99 679.6,-317.03 693.9,-318.21 706.8,-320.14 708.65,-320.54 739.86,-329.45 751.88,-393.11 752.53,-398.37 763.34,-442.37 756.56,-458.69 768.54,-488.16 784.59,-544.95 788.17,-546.7 802.09,-552.57 812.11,-556.11 828.16,-559.58 825.86,-628.82 817.83,-632.62 812.21,-564.91 807.99,-634.13 799.48,-634.13 798.61,-634.56 797.88,-634.56 791.32,-639.54 759.24,-634.41 708.76,-634.41 704.46,-638.46 699.34,-552.44 699.34,-552.44 704.46,-638.46 708.76,-634.41 759.24,-634.41 791.32,-639.54 797.88,-634.56 798.61,-634.56 799.48,-634.13 807.99,-634.13 812.21,-564.91 817.83,-632.62 825.86,-628.82 828.16,-559.58 833.55,-560.38 843.7,-561.19 851.09,-561.28 853.94,-561.52 859.66,-561.62 862.81,-561.46 878.61,-561.79 882.67,-562.17 886.68,-562.84 901.23,-566.33 913.54,-570.18 927.46,-576.58 934.6,-572.42 948.38,-566.54 1002.8,-547.5 1020.87,-538.58 1032.4,-531.23 1040.37,-525.57 1043.09,-523.84 1050.95,-518.33 1062.97,-509.09 1064.65,-507.69 1073.81,-499.41 1076.42,-496.88 1085.25,-496.85 1086.18,-496.88 1094.75,-496.85 1094.75,-496.85"/>
<polygon fill="#c7c6d4" stroke="#c7c6d4" points="1497.31,-1216.48 1494.94,-1277.11 1494.94,-1277.11 1497.31,-1216.48 1507.95,-1216.5 1510.48,-1216.7 1632.23,-1235.56 1633.16,-1282.4 1636.23,-1317.69 1615.76,-1353.58 1545.9,-1419.53 1495.35,-1421.89 1472.21,-1424.52 1458.56,-1426.99 1454.18,-1427.45 1435.84,-1430.59 1429.38,-1432.11 1424.45,-1423.26 1424.25,-1414.13 1424.25,-1414.13 1424.45,-1423.26 1429.38,-1432.11 1363.86,-1492.57 1318.43,-1491.72 1306.95,-1489.71 1294.94,-1488.07 1283.09,-1486.92 1271.35,-1486.24 1248.17,-1486.7 1185.83,-1490.39 1165.1,-1473.51 1160.69,-1471.79 1153.79,-1469.34 1130.21,-1462.6 1122.98,-1460.79 1122.49,-1460.68 1000.32,-1438.6 997.89,-1423.52 988.09,-1347.04 959.35,-1318.8 912.09,-1267.97 930.31,-1211.3 987.72,-1211.3 1006.7,-1205.89 1008.82,-1140.5 1012.73,-1140.38 1013.04,-1140.39 1020.52,-1140.14 1024.71,-1140.29 1026.37,-1140.23 1036.48,-1140.58 1042,-1140.35 1043.94,-1140.55 1043.94,-1140.55 1042,-1140.35 1036.48,-1140.58 1026.37,-1140.23 1024.71,-1140.29 1020.52,-1140.14 1013.04,-1140.39 1012.73,-1140.38 1008.82,-1140.5 1006.7,-1205.89 987.72,-1211.3 930.31,-1211.3 938.55,-1167.7 945.73,-1145.35 896.27,-1069.4 866.61,-1032.2 866.65,-1031.82 868.26,-1020.17 876.02,-975.48 876.54,-975.22 893.82,-967.08 898.67,-965.18 922.79,-956.67 992.35,-934.92 994.52,-934.15 1009.42,-952.38 1011.58,-954.82 1019.52,-963.05 1022.51,-965.89 1040.63,-981.52 1045.5,-985.27 1052.55,-990.07 1060.58,-996.37 1066.57,-1000.44 1068.32,-1001.45 1081.14,-1007.64 1094.23,-1012.66 1096.36,-1013.26 1096.36,-1013.26 1094.23,-1012.66 1081.14,-1007.64 1068.32,-1001.45 1066.57,-1000.44 1060.58,-996.37 1052.55,-990.07 1045.5,-985.27 1040.63,-981.52 1022.51,-965.89 1019.52,-963.05 1011.58,-954.82 1009.42,-952.38 994.52,-934.15 1003.59,-920.35 1053.87,-836.82 1094.25,-832.14 1100.75,-831.62 1104.16,-831.48 1119.41,-844.54 1141.67,-861.97 1149.15,-866.66 1151.31,-868.19 1169.33,-879.43 1170.47,-880.05 1200.96,-894 1233.35,-887.01 1249.4,-884.98 1259.37,-885.54 1262.73,-885.4 1267.43,-884.74 1267.64,-884.73 1276.06,-885.08 1280.33,-884.84 1286.72,-885.06 1288.31,-885.26 1293.77,-885.41 1299.25,-885.03 1302.51,-885.1 1305.88,-884.84 1310.92,-884.91 1312.89,-884.74 1320.71,-884.79 1324.7,-885.18 1330.02,-885.18 1344.33,-886.47 1361.44,-891.13 1363.42,-891.85 1375.01,-897.1 1385.21,-902.64 1391.41,-906.57 1402.85,-914.86 1410.41,-921 1411.62,-922.09 1411.68,-922.1 1415.06,-921.97 1427.81,-922.13 1429.05,-922.21 1429.64,-922.28 1432.94,-922.47 1434.92,-1012.71 1432.34,-1016.06 1425.04,-1016.06 1424.7,-1015.87 1419.78,-1015.87 1415.84,-1011.78 1415.84,-1011.78 1419.78,-1015.87 1424.7,-1015.87 1425.04,-1016.06 1432.34,-1016.06 1434.92,-1012.71 1432.94,-922.47 1447.35,-922.49 1451.91,-922.72 1467.41,-924.33 1476.23,-926.14 1491.75,-930.13 1506.69,-935.5 1515.94,-939.29 1520.91,-941.58 1529.6,-946.03 1534.9,-949.02 1548.97,-957.69 1568.7,-970.84 1575.04,-975.69 1583.69,-983.21 1586.58,-985.56 1597.91,-995.36 1605.55,-1002.35 1613.18,-1004.55 1619.51,-1006.55 1633.63,-1011.42 1644.16,-1015.65 1654.54,-1020.41 1654.96,-1020.62 1642.25,-1150.3 1640.53,-1216.53 1632.23,-1235.56 1510.48,-1216.7 1507.95,-1216.5 1497.31,-1216.48 1497.31,-1216.48"/>
<polygon fill="#bedad6" stroke="#bedad6" points="558.07,-267.75 596.34,-209.83 628.64,-152.16 657.18,-116.34 658.6,-114.38 677.95,-131.49 684.33,-136.59 690.98,-141.33 703.26,-149.06 715.57,-155.78 773.16,-182.29 788.17,-190.35 807.44,-203.65 812.72,-207.68 813.97,-206.54 814.38,-206.2 830.58,-193.99 835.5,-190.66 849.71,-182.18 861.03,-177.2 873.43,-172.69 884,-169.7 912.45,-163.89 918.86,-162.08 931.88,-157.37 942.23,-152.82 945.49,-151.13 949.81,-153.51 967.45,-160.52 972.91,-162.25 985.63,-165.31 994.51,-166.74 1000.29,-167.21 1003.8,-167.23 1011.07,-166.69 1017.78,-166.74 1022.55,-167.16 1024.15,-167.18 1029.93,-166.79 1033.82,-166.84 1036.3,-166.68 1043.93,-166.8 1046.03,-167.01 1055.7,-167.19 1056.72,-167.13 1063.17,-167.28 1063.63,-167.25 1065.36,-167.29 1075.61,-166.74 1079.03,-166.84 1081.02,-167.06 1091.3,-167.38 1094.79,-167.22 1096.63,-167.28 1102.43,-167.02 1108.11,-167.23 1108.8,-167.2 1114.55,-167.43 1118.8,-167.27 1130.98,-165.85 1141.49,-163.8 1153.39,-160.54 1153.94,-160.35 1173.36,-151.99 1176.2,-150.56 1183.35,-146.39 1187.54,-143.62 1200.64,-133.87 1215.26,-121.84 1220.89,-116.77 1293.27,-145.24 1310.02,-152.7 1315.18,-155.26 1323.32,-159.71 1332.3,-165.09 1336.17,-167.61 1380.85,-199.09 1357.73,-215.89 1307.38,-257.43 1299.22,-263.54 1288.41,-272.55 1276.02,-280.69 1269.61,-284.34 1258.89,-289.52 1250.05,-293.02 1236.65,-297.15 1224.47,-298.77 1216.62,-299.13 1209.43,-298.84 1206.97,-298.95 1204.69,-298.86 1194.73,-299.34 1193.15,-299.27 1188.03,-299.52 1186.47,-299.46 1183.83,-299.12 1175.02,-298.79 1167.29,-299.17 1167.1,-299.2 1163.46,-299.38 1156.76,-299.13 1156.01,-299.17 1151.77,-299.02 1146.62,-299.29 1144.5,-299.21 1136.88,-299.62 1130.53,-299.4 1127.58,-299.03 1125.61,-298.97 1116.08,-299.48 1112.85,-299.38 1111.79,-299.25 1106.4,-299.08 1104.95,-298.9 1097.84,-298.68 1092.01,-299.01 1086.56,-298.84 1082.03,-299.1 1081.58,-299.16 1079.28,-299.29 1069.98,-299.02 1064.64,-299.33 1049.62,-301.54 1047.58,-302.01 1034.98,-306.08 1026.84,-309.42 1021.28,-312.19 1004.19,-322.26 990.53,-332.69 987.2,-334.97 984.8,-336.79 976.28,-343.96 973.14,-346.86 962.93,-337.61 958.09,-333.65 947,-325.49 941.19,-321.71 925.72,-312.93 921.06,-310.69 915.2,-308.38 874.19,-295.57 861.59,-290.56 854.68,-287.24 840.26,-279.11 835.56,-276.09 833.45,-274.56 830.98,-272.55 811.9,-258.79 742.05,-327.51 739.86,-329.45 708.65,-320.54 706.8,-320.14 693.9,-318.21 679.6,-317.03 677.36,-316.99 674.32,-317.15 664.59,-317.06 657.52,-317.48 646.58,-316.76 640,-315.93 622.29,-312.57 617.36,-311.33 615.24,-310.67 595.85,-303.38 587.78,-299.86 572.37,-291.23 562.52,-274.53 558.07,-267.75 558.07,-267.75"/>
<polygon fill="#f1d3bf" stroke="#f1d3bf" points="1310.02,-152.7 1293.27,-145.24 1220.89,-116.77 1214.48,-102 1201.35,-62.36 1168.39,22.15 1154.88,53.26 1179.04,77.27 1252.57,112.26 1294.5,114.53 1308.23,115.79 1308.27,115.79 1326.27,118.78 1333.01,120.4 1347.44,118.02 1391.85,112.31 1456.45,128.24 1459.61,129.13 1460.94,129.54 1466.09,131.33 1476.38,127.6 1492.58,122.3 1521.74,115.8 1527.53,114.92 1534.65,114.08 1551.77,112.68 1553.8,112.58 1568.96,112.4 1605.11,113.23 1668.55,74.25 1688.31,33.99 1701.93,-13.3 1708.22,-32.69 1712.1,-42.52 1637.11,-195.14 1575.74,-196.14 1565.68,-196.59 1560.18,-196.68 1553.57,-196.61 1551.87,-196.55 1549.41,-196.39 1535.5,-196.25 1529.64,-196.52 1527.91,-196.56 1514.4,-196.07 1508.74,-196.02 1503.9,-196.26 1501.45,-196.31 1494.12,-196.25 1488.54,-196.53 1467.98,-196.4 1467.98,-196.4 1442.22,-198.42 1396.81,-203.23 1390.37,-200.33 1380.85,-199.09 1336.17,-167.61 1332.3,-165.09 1323.32,-159.71 1315.18,-155.26 1310.02,-152.7 1310.02,-152.7"/>
<polygon fill="#e6ced5" stroke="#e6ced5" points="8.59,-152.53 40.94,-129.53 59.71,-114.89 63.78,-112.03 76.68,-103.92 80.25,-101.95 91.43,-96.61 102.58,-92.12 111.93,-89.07 132.24,-85.49 143.03,-85.22 146.51,-85.4 154.14,-85.22 157.55,-84.89 170.59,-84.61 207.44,-78.34 246.89,-105.26 262.35,-96.82 267.46,-94.46 280.47,-89.56 292.53,-86.05 298.42,-84.84 311.2,-83.32 317.69,-83.1 324.22,-83.45 331.68,-83.25 332.56,-83.3 334.06,-83.27 351.82,-81.49 356.81,-80.6 369.58,-77.3 376.17,-75.08 386.81,-70.66 402.9,-61.37 412.63,-54.99 422.29,-47.9 424.84,-45.83 440.32,-31.98 446.84,-26.62 460.93,-13.06 467.38,-5.92 471.31,-1.26 482.26,10.88 488.37,18.07 489.95,17.89 495.12,16.56 507.09,14.2 519.43,12.14 525.41,11.32 541.35,9.62 624.39,5.71 635.82,0.45 657.04,-102 658.6,-114.38 657.18,-116.34 628.64,-152.16 589.55,-152.16 589.55,-152.16 628.64,-152.16 596.34,-209.83 558.07,-267.75 546,-263.81 538.94,-261.85 518.92,-257.28 513.83,-256.63 492.74,-254.94 490.52,-254.98 485.87,-254.84 471.86,-255.11 470.9,-255.18 468.05,-255.1 454.63,-255.36 450.22,-255.01 447.59,-254.94 437.79,-255.14 436.49,-255.23 436.12,-255.23 430.99,-255.09 421.02,-255.29 404.11,-256.48 400,-257.17 376.81,-262.24 366.75,-265.41 362.65,-266.91 353.24,-270.82 330.24,-281.53 328.89,-282.29 290.32,-305.91 267.75,-302.74 250.93,-299.25 244.03,-297.36 226.15,-301.26 171.48,-309.57 151.71,-313.76 147,-314.9 127.31,-320.24 41.25,-255.02 17.79,-178.93 8.59,-152.53 8.59,-152.53"/>
<polygon fill="#cfe6ca" stroke="#cfe6ca" points="844.98,-1363.94 852.01,-1363.94 853.7,-1361.36 959.35,-1318.8 988.09,-1347.04 997.89,-1423.52 1000.32,-1438.6 947.66,-1492.46 861.13,-1501.85 835.45,-1505.58 830.51,-1506.66 818.03,-1509.83 815.87,-1364.79 816.71,-1363.52 816.59,-1363.33 816.59,-1363.33 816.71,-1363.52 815.87,-1364.79 818.03,-1509.83 799.31,-1515.28 796.55,-1516.18 795.18,-1516.68 764.87,-1561.24 718.9,-1589.07 705.22,-1594.83 656.12,-1598.84 637.64,-1601.11 637.51,-1552.17 642.62,-1468.94 646.6,-1464.64 642.71,-1460.4 642.71,-1460.4 646.6,-1464.64 642.62,-1468.94 637.51,-1552.17 637.64,-1601.11 617.59,-1605.19 580.87,-1614.14 498.86,-1540.13 498.78,-1540.11 477.01,-1536.46 475.65,-1536.28 474.5,-1536.17 454.24,-1534.85 453.65,-1483.65 453.65,-1483.65 454.24,-1534.85 432.09,-1534.93 414.39,-1536.2 411.67,-1536.49 409.67,-1536.77 396.77,-1539.02 340.28,-1518.45 278.68,-1466.65 274.32,-1431.44 267.78,-1390.75 267.67,-1385.9 270.88,-1358.89 272.77,-1336.29 348.68,-1310.67 349.71,-1310.38 365.95,-1306.62 374.95,-1305.02 384.23,-1303.87 383.12,-1211.91 392.19,-1216.25 400.6,-1212.28 401.72,-1210.6 400.72,-1209.06 392.33,-1204.95 392.33,-1204.95 400.72,-1209.06 401.72,-1210.6 400.6,-1212.28 392.19,-1216.25 383.12,-1211.91 384.23,-1303.87 374.95,-1305.02 365.95,-1306.62 349.71,-1310.38 348.68,-1310.67 272.77,-1336.29 222.4,-1265.78 213.75,-1217.8 210.58,-1203.13 204.29,-1178.2 292.5,-1058.01 311.98,-1058.7 354.71,-1023.51 363.35,-1015.75 364.92,-1014.47 372.01,-1009.26 388.91,-998.17 466.05,-953.94 468.12,-952.6 470.06,-953.87 478.63,-958.83 489.22,-964.2 501.82,-969.64 498.13,-1039.64 489.61,-1043.68 488.5,-1045.26 489.15,-1046.17 498.36,-1050.72 497.17,-1138.35 493.9,-1137.18 481.27,-1133.4 466.7,-1129.91 465.81,-1129.75 434.5,-1125.97 433.72,-1152.52 436.99,-1205.74 500.08,-1209.98 499.94,-1211.03 499.03,-1227.14 496.66,-1245.15 543.25,-1243.85 543.25,-1243.85 496.66,-1245.15 499.03,-1227.14 499.94,-1211.03 500.08,-1209.98 436.99,-1205.74 433.72,-1152.52 434.5,-1125.97 465.81,-1129.75 466.7,-1129.91 481.27,-1133.4 493.9,-1137.18 497.17,-1138.35 498.36,-1050.72 489.15,-1046.17 488.5,-1045.26 489.61,-1043.68 498.13,-1039.64 501.82,-969.64 506.18,-971.2 514.71,-973.61 527.22,-976.22 530.78,-976.7 545.59,-977.6 564.31,-980.14 571.62,-982.22 585.36,-987.18 586.71,-987.76 597.29,-981.25 603.84,-977.82 606.3,-976.76 617.38,-972.93 628.02,-970.19 640.17,-968.16 643.21,-967.92 656.88,-968.09 657.76,-968.02 662.67,-968.06 669.76,-967.47 681.11,-965.48 687.27,-963.83 697.5,-960.14 699.34,-1021.35 704.09,-1025.87 708.12,-1025.87 708.53,-1026.07 705.93,-1130.65 703.24,-1132.69 699.28,-1132.1 683.76,-1130.53 670.4,-1130.46 670.92,-1230.65 663.04,-1239.36 661.88,-1239.36 661.47,-1239.22 652.46,-1239.22 652.24,-1239.14 645.3,-1239.14 645.09,-1239.07 645.09,-1239.07 645.3,-1239.14 652.24,-1239.14 652.46,-1239.22 661.47,-1239.22 661.88,-1239.36 663.04,-1239.36 670.92,-1230.65 670.4,-1130.46 683.76,-1130.53 699.28,-1132.1 703.24,-1132.69 705.93,-1130.65 708.53,-1026.07 708.12,-1025.87 704.09,-1025.87 699.34,-1021.35 697.5,-960.14 709.45,-954.69 720.07,-948.88 725.72,-945.28 736.8,-937.18 766.36,-912.88 836.31,-950.22 854.63,-960.92 865.4,-967.73 876.02,-975.48 868.26,-1020.17 866.65,-1031.82 866.61,-1032.2 896.27,-1069.4 945.73,-1145.35 938.55,-1167.7 930.31,-1211.3 912.09,-1267.97 959.35,-1318.8 853.7,-1361.36 852.01,-1363.94 844.98,-1363.94 843.81,-1363.3 845.88,-1266 840.12,-1265.96 827.79,-1265.22 829.07,-1237.5 829.07,-1237.5 827.79,-1265.22 840.12,-1265.96 845.88,-1266 843.81,-1363.3 844.98,-1363.94 844.98,-1363.94"/>
<polygon fill="#dccfe0" stroke="#dccfe0" points="1047.94,-687.43 1051.11,-685.39 1061.44,-676.96 1068.07,-672.9 1076.27,-669.46 1088.01,-666.81 1093.84,-666.66 1097.62,-667.3 1103.56,-667.07 1115.02,-664.23 1124.25,-660.03 1132.63,-654.48 1143.08,-645.36 1150.86,-636.98 1151.91,-635.62 1160.28,-627.85 1164.14,-623.69 1172.27,-616.02 1206.06,-579.82 1264.47,-615.09 1289.25,-605.78 1304.71,-600.69 1323.32,-596.31 1334.38,-594.75 1348.95,-593.38 1358.08,-592.96 1360.8,-593.09 1367.53,-593.08 1369.34,-592.99 1384.29,-592.97 1384.85,-592.99 1386.68,-592.99 1388.44,-592.9 1389.55,-592.89 1395.19,-593.14 1406.9,-593.08 1407.99,-593.02 1415.51,-593.33 1422.53,-593.27 1426.49,-593.43 1431.79,-593.38 1433.69,-593.46 1441.13,-593.02 1454.38,-592.88 1457.41,-593.13 1462.19,-593.07 1474.29,-593.48 1476.2,-593.45 1477.53,-593.3 1481.63,-593.04 1489.75,-592.91 1494.18,-593.04 1501.82,-592.9 1506.47,-593.04 1510.03,-592.97 1511.16,-593.06 1521.39,-593.34 1534.43,-593.06 1536.65,-593.22 1544.45,-593.04 1549.84,-593.16 1551.14,-593.25 1563.28,-592.94 1571.44,-593.5 1583.77,-593.15 1584.97,-593.17 1587.37,-593.1 1591.97,-593.19 1594.12,-593.32 1597.33,-593.38 1606.47,-593.09 1613.03,-593.5 1615.12,-593.53 1623.28,-593.25 1630.1,-593.34 1641.96,-594.06 1656.77,-596.35 1661.6,-597.32 1674.84,-600.62 1685.98,-603.92 1687.52,-604.45 1701.88,-610.06 1710.13,-613.66 1723.17,-620.6 1736.18,-628.15 1750.51,-637.12 1759.61,-643.67 1762.69,-646.02 1775.76,-656.67 1758.86,-675.1 1755.49,-679.02 1749.01,-686.08 1742.56,-692.63 1733.83,-700.88 1725.75,-707.93 1721.48,-712.35 1703.19,-729.68 1696.04,-735.14 1678.3,-745.75 1663.31,-753.4 1650.47,-757.69 1643.87,-759.31 1638.99,-760.1 1625.16,-761.12 1619.5,-761.04 1613.7,-761.48 1611.68,-761.46 1609.14,-761.21 1604.38,-761.17 1599.88,-761.53 1591.94,-761.47 1591.64,-761.44 1583.91,-761.4 1578.89,-760.93 1575.9,-760.92 1573.28,-760.68 1569.99,-760.68 1563.64,-761.24 1555.26,-761.24 1554.33,-761.32 1552.48,-761.33 1546.94,-760.86 1542.2,-760.87 1538.63,-761.21 1527.6,-761.28 1527.57,-761.28 1519.25,-760.62 1517.73,-760.64 1510.11,-761.4 1504.23,-761.47 1499.81,-761.13 1498.36,-761.15 1496.01,-761.39 1491.56,-761.46 1484.21,-760.94 1479.05,-761.03 1478.76,-761.06 1467.81,-761.27 1465.8,-761.49 1456.04,-760.85 1452.67,-760.93 1452.33,-760.91 1440,-761.22 1439.26,-761.11 1434.21,-760.81 1426.89,-761.02 1423.68,-760.84 1413.45,-761.16 1413.33,-761.14 1408.54,-760.88 1401.86,-761.11 1393.77,-760.69 1388.88,-760.87 1387.44,-760.8 1385.64,-760.87 1379.91,-761.6 1376.11,-761.76 1366.85,-761.33 1366.04,-761.22 1363.61,-761.11 1359.89,-761.28 1346.17,-760.7 1343.64,-760.37 1327.02,-756.77 1310.91,-750.47 1309.97,-750.02 1290.81,-739.18 1280.81,-731.8 1274.16,-726.31 1265.87,-718.71 1258.05,-725.65 1253.58,-729.22 1242.59,-737.09 1236.75,-740.77 1166.98,-779 1160.75,-782.96 1150.74,-790.2 1144.65,-795.13 1138.49,-800.68 1137.73,-801.25 1121.41,-814.65 1104.16,-831.48 1100.75,-831.62 1094.25,-832.14 1053.87,-836.82 1044.64,-824.16 996.84,-747.72 1003.74,-737 1003.82,-736.89 1016.8,-720.37 1019.25,-717.59 1026.1,-708.76 1033.85,-700.08 1042.57,-691.71 1047.94,-687.43 1047.94,-687.43"/>
<polygon fill="#d5dad5" stroke="#d5dad5" points="1720.67,-327.05 1713.64,-316.43 1643.54,-202.45 1637.11,-195.14 1575.74,-196.14 1565.68,-196.59 1560.18,-196.68 1553.57,-196.61 1551.87,-196.55 1549.41,-196.39 1535.5,-196.25 1529.64,-196.52 1527.91,-196.56 1514.4,-196.07 1508.74,-196.02 1503.9,-196.26 1501.45,-196.31 1494.12,-196.25 1488.54,-196.53 1467.98,-196.4 1467.98,-196.4 1442.22,-198.42 1396.81,-203.23 1390.37,-200.33 1380.85,-199.09 1357.73,-215.89 1307.38,-257.43 1299.22,-263.54 1288.41,-272.55 1276.02,-280.69 1269.61,-284.34 1258.89,-289.52 1250.05,-293.02 1236.65,-297.15 1224.47,-298.77 1216.62,-299.13 1209.43,-298.84 1206.97,-298.95 1204.69,-298.86 1194.73,-299.34 1193.15,-299.27 1188.03,-299.52 1186.47,-299.46 1183.83,-299.12 1175.02,-298.79 1167.29,-299.17 1167.1,-299.2 1163.46,-299.38 1156.76,-299.13 1156.01,-299.17 1151.77,-299.02 1146.62,-299.29 1144.5,-299.21 1136.88,-299.62 1130.53,-299.4 1127.58,-299.03 1125.61,-298.97 1116.08,-299.48 1112.85,-299.38 1111.79,-299.25 1106.4,-299.08 1104.95,-298.9 1097.84,-298.68 1092.01,-299.01 1086.56,-298.84 1082.03,-299.1 1081.58,-299.16 1079.28,-299.29 1069.98,-299.02 1064.64,-299.33 1049.62,-301.54 1047.58,-302.01 1034.98,-306.08 1026.84,-309.42 1021.28,-312.19 1004.19,-322.26 990.53,-332.69 987.2,-334.97 984.8,-336.79 976.28,-343.96 973.14,-346.86 962.93,-337.61 958.09,-333.65 947,-325.49 941.19,-321.71 925.72,-312.93 921.06,-310.69 915.2,-308.38 874.19,-295.57 861.59,-290.56 854.68,-287.24 840.26,-279.11 835.56,-276.09 833.45,-274.56 830.98,-272.55 811.9,-258.79 742.05,-327.51 739.86,-329.45 751.88,-393.11 752.53,-398.37 763.34,-442.37 826.68,-427.51 836.16,-426.04 844.27,-425.43 857.35,-425.51 859.76,-425.32 861.37,-425.45 873.29,-425.37 873.78,-425.41 883.13,-425.29 890.52,-424.57 894.88,-423.76 911.59,-419.2 920.62,-415.95 925.06,-413.98 938.49,-406.8 951.97,-398.44 973.49,-383.29 979.96,-390.09 1034.42,-453.01 1070.58,-490.37 1076.42,-496.88 1085.25,-496.85 1086.18,-496.88 1094.75,-496.85 1101.03,-497.05 1112.51,-497.01 1118.05,-497.38 1119.07,-497.49 1142.83,-500.8 1150.98,-502.52 1158.49,-504.38 1167.73,-494.28 1174.76,-487.66 1186.19,-476 1186.52,-475.7 1197.28,-466.47 1201.3,-463.35 1207.92,-457.65 1219.44,-448.73 1226.5,-443.91 1244.08,-434.91 1252.53,-431.33 1260.27,-428.74 1261.75,-428.38 1277.54,-425.81 1287.03,-425.1 1290.54,-425.14 1294.43,-424.85 1300.16,-424.93 1301.51,-424.83 1311.74,-424.96 1321.93,-424.21 1324.23,-423.85 1334.99,-421.19 1349.67,-416.28 1353.85,-414.53 1360.31,-411.27 1369.9,-405.6 1378.63,-399.69 1384.71,-395.04 1391.88,-388.91 1393.44,-387.44 1397.69,-390.33 1406.71,-397.22 1419.7,-406.06 1422.74,-407.86 1424.72,-408.86 1441.9,-416.23 1448.71,-418.57 1454.25,-420.02 1470.76,-422.96 1483.28,-423.11 1485.61,-423.33 1488.07,-423.35 1491.79,-423.08 1503.76,-423.21 1504.25,-423.26 1506.01,-423.13 1520.15,-423.28 1522.5,-423.1 1524.22,-422.83 1537.83,-422.97 1539.16,-422.87 1541.47,-422.89 1542.92,-422.78 1551.49,-422.86 1557.22,-423.4 1561.79,-423.06 1561.69,-362.35 1553.35,-362.35 1553.05,-362.21 1544.71,-362.21 1544.05,-361.88 1536.67,-361.88 1536.14,-361.12 1527.28,-356.76 1527.28,-356.76 1536.14,-361.12 1536.67,-361.88 1544.05,-361.88 1544.71,-362.21 1553.05,-362.21 1553.35,-362.35 1561.69,-362.35 1561.79,-423.06 1570.54,-423.13 1571.3,-423.2 1573.45,-423.22 1592.44,-421.8 1604.44,-418.9 1609.96,-417.11 1622.44,-412 1630.98,-407.8 1641.94,-401.49 1645.2,-399.35 1656.7,-390.83 1657.46,-390.33 1659.56,-388.8 1670.72,-379.72 1687.22,-364.99 1690.39,-361.92 1693.91,-358.26 1713.11,-336.69 1720.67,-327.05 1720.67,-327.05"/>
<polygon fill="#fdd8a8" stroke="#fdd8a8" points="1242.59,-737.09 1236.75,-740.77 1166.98,-779 1160.75,-782.96 1150.74,-790.2 1144.65,-795.13 1138.49,-800.68 1137.73,-801.25 1121.41,-814.65 1104.16,-831.48 1119.41,-844.54 1141.67,-861.97 1149.15,-866.66 1151.31,-868.19 1169.33,-879.43 1170.47,-880.05 1200.96,-894 1233.35,-887.01 1249.4,-884.98 1259.37,-885.54 1262.73,-885.4 1267.43,-884.74 1267.64,-884.73 1276.06,-885.08 1280.33,-884.84 1286.72,-885.06 1288.31,-885.26 1293.77,-885.41 1299.25,-885.03 1302.51,-885.1 1305.88,-884.84 1310.92,-884.91 1312.89,-884.74 1320.71,-884.79 1324.7,-885.18 1330.02,-885.18 1344.33,-886.47 1361.44,-891.13 1363.42,-891.85 1375.01,-897.1 1385.21,-902.64 1391.41,-906.57 1402.85,-914.86 1410.41,-921 1411.62,-922.09 1411.68,-922.1 1415.06,-921.97 1427.81,-922.13 1429.05,-922.21 1429.64,-922.28 1432.94,-922.47 1447.35,-922.49 1451.91,-922.72 1467.41,-924.33 1476.23,-926.14 1491.75,-930.13 1506.69,-935.5 1515.94,-939.29 1520.91,-941.58 1529.6,-946.03 1534.9,-949.02 1548.97,-957.69 1568.7,-970.84 1575.04,-975.69 1583.69,-983.21 1586.58,-985.56 1597.91,-995.36 1605.55,-1002.35 1613.18,-1004.55 1619.51,-1006.55 1633.63,-1011.42 1644.16,-1015.65 1654.54,-1020.41 1654.96,-1020.62 1673.48,-1014.89 1684.03,-1012.19 1695.67,-1005.92 1717.87,-996.09 1728,-992.25 1736.29,-987.92 1749.35,-982.02 1758.41,-978.25 1836.99,-948.36 1873.45,-915.2 1895.84,-848.36 1896.05,-847.8 1888.4,-812.49 1868.16,-673.7 1834.26,-664.81 1824.5,-662.79 1800.72,-658.54 1792.79,-657.79 1776.56,-656.7 1775.76,-656.67 1758.86,-675.1 1755.49,-679.02 1749.01,-686.08 1742.56,-692.63 1733.83,-700.88 1725.75,-707.93 1721.48,-712.35 1703.19,-729.68 1696.04,-735.14 1678.3,-745.75 1663.31,-753.4 1650.47,-757.69 1643.87,-759.31 1638.99,-760.1 1625.16,-761.12 1619.5,-761.04 1613.7,-761.48 1611.68,-761.46 1609.14,-761.21 1604.38,-761.17 1599.88,-761.53 1591.94,-761.47 1591.64,-761.44 1583.91,-761.4 1578.89,-760.93 1575.9,-760.92 1573.28,-760.68 1569.99,-760.68 1563.64,-761.24 1555.26,-761.24 1554.33,-761.32 1552.48,-761.33 1546.94,-760.86 1542.2,-760.87 1538.63,-761.21 1527.6,-761.28 1527.57,-761.28 1519.25,-760.62 1517.73,-760.64 1510.11,-761.4 1504.23,-761.47 1499.81,-761.13 1498.36,-761.15 1496.01,-761.39 1491.56,-761.46 1484.21,-760.94 1479.05,-761.03 1478.76,-761.06 1467.81,-761.27 1465.8,-761.49 1456.04,-760.85 1452.67,-760.93 1452.33,-760.91 1440,-761.22 1439.26,-761.11 1434.21,-760.81 1426.89,-761.02 1423.68,-760.84 1413.45,-761.16 1413.33,-761.14 1408.54,-760.88 1401.86,-761.11 1393.77,-760.69 1388.88,-760.87 1387.44,-760.8 1385.64,-760.87 1379.91,-761.6 1376.11,-761.76 1366.85,-761.33 1366.04,-761.22 1363.61,-761.11 1359.89,-761.28 1346.17,-760.7 1343.64,-760.37 1327.02,-756.77 1310.91,-750.47 1309.97,-750.02 1290.81,-739.18 1280.81,-731.8 1274.16,-726.31 1265.87,-718.71 1258.05,-725.65 1253.58,-729.22 1242.59,-737.09 1242.59,-737.09"/>
<polygon fill="#fdd8a8" stroke="#fdd8a8" points="1053.87,-836.82 1044.64,-824.16 996.84,-747.72 929.17,-717.72 916.96,-721.53 907.85,-723.9 892,-727.2 872.65,-729.21 857.89,-729.19 857.05,-729.1 851.06,-728.78 849.76,-728.77 837.75,-729.35 837.49,-729.35 825.77,-729.89 817.83,-730.66 798.04,-765.65 780.12,-811.4 766.82,-838.83 749.62,-869.23 764.74,-909.46 766.36,-912.88 836.31,-950.22 854.63,-960.92 865.4,-967.73 876.02,-975.48 876.54,-975.22 893.82,-967.08 898.67,-965.18 922.79,-956.67 992.35,-934.92 994.52,-934.15 1003.59,-920.35 1053.87,-836.82 1053.87,-836.82"/>
<polygon fill="#b5cfe1" stroke="#b5cfe1" points="1824.51,-341.73 1837.17,-340.58 1866.73,-336.93 1875.1,-340.66 1970.52,-410.54 1977.23,-472.79 1985.48,-520.25 1999.49,-588.43 1997.6,-593.94 1868.16,-673.7 1834.26,-664.81 1824.5,-662.79 1800.72,-658.54 1792.79,-657.79 1776.56,-656.7 1775.76,-656.67 1762.69,-646.02 1759.61,-643.67 1750.51,-637.12 1736.18,-628.15 1723.17,-620.6 1710.13,-613.66 1701.88,-610.06 1687.52,-604.45 1685.98,-603.92 1674.84,-600.62 1661.6,-597.32 1656.77,-596.35 1641.96,-594.06 1630.1,-593.34 1623.28,-593.25 1615.12,-593.53 1613.03,-593.5 1606.47,-593.09 1597.33,-593.38 1594.12,-593.32 1591.97,-593.19 1587.37,-593.1 1584.97,-593.17 1583.77,-593.15 1571.44,-593.5 1563.28,-592.94 1551.14,-593.25 1549.84,-593.16 1544.45,-593.04 1536.65,-593.22 1534.43,-593.06 1521.39,-593.34 1511.16,-593.06 1510.03,-592.97 1506.47,-593.04 1501.82,-592.9 1494.18,-593.04 1489.75,-592.91 1481.63,-593.04 1477.53,-593.3 1476.2,-593.45 1474.29,-593.48 1462.19,-593.07 1457.41,-593.13 1454.38,-592.88 1441.13,-593.02 1433.69,-593.46 1431.79,-593.38 1426.49,-593.43 1422.53,-593.27 1415.51,-593.33 1407.99,-593.02 1406.9,-593.08 1395.19,-593.14 1389.55,-592.89 1388.44,-592.9 1386.68,-592.99 1384.85,-592.99 1384.29,-592.97 1369.34,-592.99 1367.53,-593.08 1360.8,-593.09 1358.08,-592.96 1348.95,-593.38 1334.38,-594.75 1323.32,-596.31 1304.71,-600.69 1289.25,-605.78 1264.47,-615.09 1206.06,-579.82 1168.71,-519.59 1158.49,-504.38 1167.73,-494.28 1174.76,-487.66 1186.19,-476 1186.52,-475.7 1197.28,-466.47 1201.3,-463.35 1207.92,-457.65 1219.44,-448.73 1226.5,-443.91 1244.08,-434.91 1252.53,-431.33 1260.27,-428.74 1261.75,-428.38 1277.54,-425.81 1287.03,-425.1 1290.54,-425.14 1294.43,-424.85 1300.16,-424.93 1301.51,-424.83 1311.74,-424.96 1321.93,-424.21 1324.23,-423.85 1334.99,-421.19 1349.67,-416.28 1353.85,-414.53 1360.31,-411.27 1369.9,-405.6 1378.63,-399.69 1384.71,-395.04 1391.88,-388.91 1393.44,-387.44 1397.69,-390.33 1406.71,-397.22 1419.7,-406.06 1422.74,-407.86 1424.72,-408.86 1441.9,-416.23 1448.71,-418.57 1454.25,-420.02 1470.76,-422.96 1483.28,-423.11 1485.61,-423.33 1488.07,-423.35 1491.79,-423.08 1503.76,-423.21 1504.25,-423.26 1506.01,-423.13 1520.15,-423.28 1522.5,-423.1 1524.22,-422.83 1537.83,-422.97 1539.16,-422.87 1541.47,-422.89 1542.92,-422.78 1551.49,-422.86 1557.22,-423.4 1561.79,-423.06 1570.54,-423.13 1571.3,-423.2 1573.45,-423.22 1592.44,-421.8 1604.44,-418.9 1609.96,-417.11 1622.44,-412 1630.98,-407.8 1641.94,-401.49 1645.2,-399.35 1656.7,-390.83 1657.46,-390.33 1659.56,-388.8 1670.72,-379.72 1687.22,-364.99 1690.39,-361.92 1693.91,-358.26 1713.11,-336.69 1720.67,-327.05 1731.11,-330.52 1739.43,-333.01 1751.3,-335.8 1763.09,-338.17 1769.63,-339.28 1776.06,-340.16 1778.52,-340.41 1789.77,-341.22 1801.86,-341.7 1820.73,-341.82 1824.51,-341.73 1824.51,-341.73"/>
<polygon fill="#b5cfe1" stroke="#b5cfe1" points="938.49,-406.8 951.97,-398.44 973.49,-383.29 979.96,-390.09 1034.42,-453.01 1070.58,-490.37 1076.42,-496.88 1073.81,-499.41 1064.65,-507.69 1062.97,-509.09 1050.95,-518.33 1043.09,-523.84 1040.37,-525.57 1032.4,-531.23 1020.87,-538.58 1002.8,-547.5 948.38,-566.54 934.6,-572.42 927.46,-576.58 913.54,-570.18 901.23,-566.33 886.68,-562.84 882.67,-562.17 878.61,-561.79 862.81,-561.46 859.66,-561.62 853.94,-561.52 851.09,-561.28 843.7,-561.19 833.55,-560.38 828.16,-559.58 812.11,-556.11 802.09,-552.57 788.17,-546.7 784.59,-544.95 768.54,-488.16 756.56,-458.69 763.34,-442.37 826.68,-427.51 836.16,-426.04 844.27,-425.43 857.35,-425.51 859.76,-425.32 861.37,-425.45 873.29,-425.37 873.78,-425.41 883.13,-425.29 890.52,-424.57 894.88,-423.76 911.59,-419.2 920.62,-415.95 925.06,-413.98 938.49,-406.8 938.49,-406.8"/>
<polygon fill="#e1bdc1" stroke="#e1bdc1" points="788.17,-190.35 773.16,-182.29 715.57,-155.78 703.26,-149.06 690.98,-141.33 684.33,-136.59 677.95,-131.49 658.6,-114.38 657.04,-102 635.82,0.45 770.36,46.69 775.45,45.66 784.65,44.1 812.33,41.23 831.61,41.13 839.54,41.61 845.8,40.64 856.58,39.34 867.83,38.36 885.73,38.01 931.06,38.63 945.49,32.61 1016.24,36.15 1020.11,36.48 1028.25,37.46 1055.11,42.62 1063.29,44.77 1070.69,46.97 1072.81,47.75 1097.55,47.93 1117.08,49.33 1154.88,53.26 1168.39,22.15 1201.35,-62.36 1214.48,-102 1220.89,-116.77 1215.26,-121.84 1200.64,-133.87 1187.54,-143.62 1183.35,-146.39 1176.2,-150.56 1173.36,-151.99 1153.94,-160.35 1153.39,-160.54 1141.49,-163.8 1130.98,-165.85 1118.8,-167.27 1114.55,-167.43 1108.8,-167.2 1108.11,-167.23 1102.43,-167.02 1096.63,-167.28 1094.79,-167.22 1091.3,-167.38 1081.02,-167.06 1079.03,-166.84 1075.61,-166.74 1065.36,-167.29 1063.63,-167.25 1063.17,-167.28 1056.72,-167.13 1055.7,-167.19 1046.03,-167.01 1043.93,-166.8 1036.3,-166.68 1033.82,-166.84 1029.93,-166.79 1024.15,-167.18 1022.55,-167.16 1017.78,-166.74 1011.07,-166.69 1003.8,-167.23 1000.29,-167.21 994.51,-166.74 985.63,-165.31 972.91,-162.25 967.45,-160.52 949.81,-153.51 945.49,-151.13 942.23,-152.82 931.88,-157.37 918.86,-162.08 912.45,-163.89 884,-169.7 873.43,-172.69 861.03,-177.2 849.71,-182.18 835.5,-190.66 830.58,-193.99 814.38,-206.2 813.97,-206.54 812.72,-207.68 807.44,-203.65 788.17,-190.35 788.17,-190.35"/>
<polygon fill="#c7e5cb" stroke="#c7e5cb" points="73.02,126.41 52.42,127.7 51.95,127.75 -10.82,110.86 -81.93,35.47 -87.62,-5.54 -87.23,-9.16 -85.9,-26.8 -85.86,-27.72 -42.15,-116.28 8.59,-152.53 40.94,-129.53 59.71,-114.89 63.78,-112.03 76.68,-103.92 80.25,-101.95 91.43,-96.61 102.58,-92.12 111.93,-89.07 132.24,-85.49 132.21,-82.81 132.21,-82.81 132.24,-85.49 143.03,-85.22 146.51,-85.4 154.14,-85.22 157.55,-84.89 170.59,-84.61 207.44,-78.34 246.89,-105.26 262.35,-96.82 267.46,-94.46 280.47,-89.56 292.53,-86.05 298.42,-84.84 311.2,-83.32 317.69,-83.1 324.22,-83.45 331.68,-83.25 332.56,-83.3 334.06,-83.27 351.82,-81.49 356.81,-80.6 369.58,-77.3 376.17,-75.08 386.81,-70.66 402.9,-61.37 412.63,-54.99 422.29,-47.9 424.84,-45.83 440.32,-31.98 446.84,-26.62 460.93,-13.06 467.38,-5.92 471.31,-1.26 482.26,10.88 488.37,18.07 390.28,120.72 336.78,146.56 331.24,148.6 328,149.05 310.06,152.65 303.22,154.23 295.15,151.69 286.82,149.34 278.25,147.21 275.4,146.59 260.58,143.84 222.97,138.09 207.44,133.06 151.46,134.3 145.26,134.82 134,132.24 106.37,127.7 100.97,127.16 76.64,126.32 76.1,126.32 73.02,126.41 73.02,126.41"/>
<polyline fill="none" stroke="#000000" points="764.74,-909.46 766.36,-912.88 736.8,-937.18 725.72,-945.28 720.07,-948.88 709.45,-954.69 697.5,-960.14 687.27,-963.83 681.11,-965.48 669.76,-967.47 662.67,-968.06 657.76,-968.02 656.88,-968.09 643.21,-967.92 640.17,-968.16 628.02,-970.19 617.38,-972.93 606.3,-976.76 603.84,-977.82 597.29,-981.25 586.71,-987.76 585.36,-987.18 571.62,-982.22 564.31,-980.14 545.59,-977.6 530.78,-976.7 527.22,-976.22 514.71,-973.61 506.18,-971.2 501.82,-969.64 489.22,-964.2 478.63,-958.83 470.06,-953.87 468.12,-952.6 466.05,-953.94 388.91,-998.17 372.01,-1009.26 364.92,-1014.47 363.35,-1015.75 354.71,-1023.51 311.98,-1058.7 292.5,-1058.01 214.89,-935.1 209.07,-926.52 153.49,-909.78 104.73,-835.21 90.01,-776.97 88.5,-771.75 77.95,-739.42 77.35,-738.85 59.62,-679.63 50.88,-624.75 40.03,-578 86.1,-508.66 86.15,-503.49 85.09,-459.18 99.02,-417.26 127.31,-320.24 147,-314.9 151.71,-313.76 171.48,-309.57 226.15,-301.26 244.03,-297.36 250.93,-299.25 267.75,-302.74 290.32,-305.91 328.89,-282.29 330.24,-281.53 353.24,-270.82 362.65,-266.91 366.75,-265.41 376.81,-262.24 400,-257.17 404.11,-256.48 421.02,-255.29 430.99,-255.09 436.12,-255.23 436.49,-255.23 437.79,-255.14 447.59,-254.94 450.22,-255.01 454.63,-255.36 468.05,-255.1 470.9,-255.18 471.86,-255.11 485.87,-254.84 490.52,-254.98 492.74,-254.94 513.83,-256.63 518.92,-257.28 538.94,-261.85 546,-263.81 558.07,-267.75 562.52,-274.53 572.37,-291.23 587.78,-299.86 595.85,-303.38 615.24,-310.67 617.36,-311.33 622.29,-312.57 640,-315.93 646.58,-316.76 657.52,-317.48 664.59,-317.06 674.32,-317.15 677.36,-316.99 679.6,-317.03 693.9,-318.21 706.8,-320.14 708.65,-320.54 739.86,-329.45 751.88,-393.11 752.53,-398.37 763.34,-442.37 756.56,-458.69 768.54,-488.16 784.59,-544.95 788.17,-546.7 802.09,-552.57 812.11,-556.11 828.16,-559.58 833.55,-560.38 843.7,-561.19 851.09,-561.28 853.94,-561.52 859.66,-561.62 862.81,-561.46 878.61,-561.79 882.67,-562.17 886.68,-562.84 901.23,-566.33 913.54,-570.18 927.46,-576.58 934.6,-572.42 948.38,-566.54 1002.8,-547.5 1020.87,-538.58 1032.4,-531.23 1040.37,-525.57 1043.09,-523.84 1050.95,-518.33 1062.97,-509.09 1064.65,-507.69 1073.81,-499.41 1076.42,-496.88 1085.25,-496.85 1086.18,-496.88 1094.75,-496.85 1101.03,-497.05 1112.51,-497.01 1118.05,-497.38 1119.07,-497.49 1142.83,-500.8 1150.98,-502.52 1158.49,-504.38 1168.71,-519.59 1206.06,-579.82 1172.27,-616.02 1164.14,-623.69 1160.28,-627.85 1151.91,-635.62 1150.86,-636.98 1143.08,-645.36 1132.63,-654.48 1124.25,-660.03 1115.02,-664.23 1103.56,-667.07 1097.62,-667.3 1093.84,-666.66 1088.01,-666.81 1076.27,-669.46 1068.07,-672.9 1061.44,-676.96 1051.11,-685.39 1047.94,-687.43 1042.57,-691.71 1033.85,-700.08 1026.1,-708.76 1019.25,-717.59 1016.8,-720.37 1003.82,-736.89 1003.74,-737 996.84,-747.72 929.17,-717.72 916.96,-721.53 907.85,-723.9 892,-727.2 872.65,-729.21 857.89,-729.19 857.05,-729.1 851.06,-728.78 849.76,-728.77 837.75,-729.35 837.49,-729.35 825.77,-729.89 817.83,-730.66 798.04,-765.65 780.12,-811.4 766.82,-838.83 749.62,-869.23 764.74,-909.46 "/>
<polyline fill="none" stroke="#000000" points="1276.06,-885.08 1267.64,-884.73 1267.43,-884.74 1262.73,-885.4 1259.37,-885.54 1249.4,-884.98 1233.35,-887.01 1200.96,-894 1170.47,-880.05 1169.33,-879.43 1151.31,-868.19 1149.15,-866.66 1141.67,-861.97 1119.41,-844.54 1104.16,-831.48 1100.75,-831.62 1094.25,-832.14 1053.87,-836.82 1003.59,-920.35 994.52,-934.15 992.35,-934.92 922.79,-956.67 898.67,-965.18 893.82,-967.08 876.54,-975.22 876.02,-975.48 868.26,-1020.17 866.65,-1031.82 866.61,-1032.2 896.27,-1069.4 945.73,-1145.35 938.55,-1167.7 930.31,-1211.3 912.09,-1267.97 959.35,-1318.8 988.09,-1347.04 997.89,-1423.52 1000.32,-1438.6 1122.49,-1460.68 1122.98,-1460.79 1130.21,-1462.6 1153.79,-1469.34 1160.69,-1471.79 1165.1,-1473.51 1185.83,-1490.39 1248.17,-1486.7 1271.35,-1486.24 1283.09,-1486.92 1294.94,-1488.07 1306.95,-1489.71 1318.43,-1491.72 1363.86,-1492.57 1429.38,-1432.11 1435.84,-1430.59 1454.18,-1427.45 1458.56,-1426.99 1472.21,-1424.52 1495.35,-1421.89 1545.9,-1419.53 1615.76,-1353.58 1636.23,-1317.69 1633.16,-1282.4 1632.23,-1235.56 1640.53,-1216.53 1642.25,-1150.3 1654.96,-1020.62 1654.54,-1020.41 1644.16,-1015.65 1633.63,-1011.42 1619.51,-1006.55 1613.18,-1004.55 1605.55,-1002.35 1597.91,-995.36 1586.58,-985.56 1583.69,-983.21 1575.04,-975.69 1568.7,-970.84 1548.97,-957.69 1534.9,-949.02 1529.6,-946.03 1520.91,-941.58 1515.94,-939.29 1506.69,-935.5 1491.75,-930.13 1476.23,-926.14 1467.41,-924.33 1451.91,-922.72 1447.35,-922.49 1432.94,-922.47 1429.64,-922.28 1429.05,-922.21 1427.81,-922.13 1415.06,-921.97 1411.68,-922.1 1411.62,-922.09 1410.41,-921 1402.85,-914.86 1391.41,-906.57 1385.21,-902.64 1375.01,-897.1 1363.42,-891.85 1361.44,-891.13 1344.33,-886.47 1330.02,-885.18 1324.7,-885.18 1320.71,-884.79 1312.89,-884.74 1310.92,-884.91 1305.88,-884.84 1302.51,-885.1 1299.25,-885.03 1293.77,-885.41 1288.31,-885.26 1286.72,-885.06 1280.33,-884.84 1276.06,-885.08 "/>
<polyline fill="none" stroke="#000000" points="1047.58,-302.01 1034.98,-306.08 1026.84,-309.42 1021.28,-312.19 1004.19,-322.26 990.53,-332.69 987.2,-334.97 984.8,-336.79 976.28,-343.96 973.14,-346.86 962.93,-337.61 958.09,-333.65 947,-325.49 941.19,-321.71 925.72,-312.93 921.06,-310.69 915.2,-308.38 874.19,-295.57 861.59,-290.56 854.68,-287.24 840.26,-279.11 835.56,-276.09 833.45,-274.56 830.98,-272.55 811.9,-258.79 742.05,-327.51 739.86,-329.45 708.65,-320.54 706.8,-320.14 693.9,-318.21 679.6,-317.03 677.36,-316.99 674.32,-317.15 664.59,-317.06 657.52,-317.48 646.58,-316.76 640,-315.93 622.29,-312.57 617.36,-311.33 615.24,-310.67 595.85,-303.38 587.78,-299.86 572.37,-291.23 562.52,-274.53 558.07,-267.75 596.34,-209.83 628.64,-152.16 657.18,-116.34 658.6,-114.38 677.95,-131.49 684.33,-136.59 690.98,-141.33 703.26,-149.06 715.57,-155.78 773.16,-182.29 788.17,-190.35 807.44,-203.65 812.72,-207.68 813.97,-206.54 814.38,-206.2 830.58,-193.99 835.5,-190.66 849.71,-182.18 861.03,-177.2 873.43,-172.69 884,-169.7 912.45,-163.89 918.86,-162.08 931.88,-157.37 942.23,-152.82 945.49,-151.13 949.81,-153.51 967.45,-160.52 972.91,-162.25 985.63,-165.31 994.51,-166.74 1000.29,-167.21 1003.8,-167.23 1011.07,-166.69 1017.78,-166.74 1022.55,-167.16 1024.15,-167.18 1029.93,-166.79 1033.82,-166.84 1036.3,-166.68 1043.93,-166.8 1046.03,-167.01 1055.7,-167.19 1056.72,-167.13 1063.17,-167.28 1063.63,-167.25 1065.36,-167.29 1075.61,-166.74 1079.03,-166.84 1081.02,-167.06 1091.3,-167.38 1094.79,-167.22 1096.63,-167.28 1102.43,-167.02 1108.11,-167.23 1108.8,-167.2 1114.55,-167.43 1118.8,-167.27 1130.98,-165.85 1141.49,-163.8 1153.39,-160.54 1153.94,-160.35 1173.36,-151.99 1176.2,-150.56 1183.35,-146.39 1187.54,-143.62 1200.64,-133.87 1215.26,-121.84 1220.89,-116.77 1293.27,-145.24 1310.02,-152.7 1315.18,-155.26 1323.32,-159.71 1332.3,-165.09 1336.17,-167.61 1380.85,-199.09 1357.73,-215.89 1307.38,-257.43 1299.22,-263.54 1288.41,-272.55 1276.02,-280.69 1269.61,-284.34 1258.89,-289.52 1250.05,-293.02 1236.65,-297.15 1224.47,-298.77 1216.62,-299.13 1209.43,-298.84 1206.97,-298.95 1204.69,-298.86 1194.73,-299.34 1193.15,-299.27 1188.03,-299.52 1186.47,-299.46 1183.83,-299.12 1175.02,-298.79 1167.29,-299.17 1167.1,-299.2 1163.46,-299.38 1156.76,-299.13 1156.01,-299.17 1151.77,-299.02 1146.62,-299.29 1144.5,-299.21 1136.88,-299.62 1130.53,-299.4 1127.58,-299.03 1125.61,-298.97 1116.08,-299.48 1112.85,-299.38 1111.79,-299.25 1106.4,-299.08 1104.95,-298.9 1097.84,-298.68 1092.01,-299.01 1086.56,-298.84 1082.03,-299.1 1081.58,-299.16 1079.28,-299.29 1069.98,-299.02 1064.64,-299.33 1049.62,-301.54 1047.58,-302.01 "/>
<polyline fill="none" stroke="#000000" points="1503.9,-196.26 1501.45,-196.31 1494.12,-196.25 1488.54,-196.53 1467.98,-196.4 1467.98,-196.4 1442.22,-198.42 1396.81,-203.23 1390.37,-200.33 1380.85,-199.09 1336.17,-167.61 1332.3,-165.09 1323.32,-159.71 1315.18,-155.26 1310.02,-152.7 1293.27,-145.24 1220.89,-116.77 1214.48,-102 1201.35,-62.36 1168.39,22.15 1154.88,53.26 1179.04,77.27 1252.57,112.26 1294.5,114.53 1308.23,115.79 1308.27,115.79 1326.27,118.78 1333.01,120.4 1347.44,118.02 1391.85,112.31 1456.45,128.24 1459.61,129.13 1460.94,129.54 1466.09,131.33 1476.38,127.6 1492.58,122.3 1521.74,115.8 1527.53,114.92 1534.65,114.08 1551.77,112.68 1553.8,112.58 1568.96,112.4 1605.11,113.23 1668.55,74.25 1688.31,33.99 1701.93,-13.3 1708.22,-32.69 1712.1,-42.52 1637.11,-195.14 1575.74,-196.14 1565.68,-196.59 1560.18,-196.68 1553.57,-196.61 1551.87,-196.55 1549.41,-196.39 1535.5,-196.25 1529.64,-196.52 1527.91,-196.56 1514.4,-196.07 1508.74,-196.02 1503.9,-196.26 "/>
<polyline fill="none" stroke="#000000" points="404.11,-256.48 400,-257.17 376.81,-262.24 366.75,-265.41 362.65,-266.91 353.24,-270.82 330.24,-281.53 328.89,-282.29 290.32,-305.91 267.75,-302.74 250.93,-299.25 244.03,-297.36 226.15,-301.26 171.48,-309.57 151.71,-313.76 147,-314.9 127.31,-320.24 41.25,-255.02 17.79,-178.93 8.59,-152.53 40.94,-129.53 59.71,-114.89 63.78,-112.03 76.68,-103.92 80.25,-101.95 91.43,-96.61 102.58,-92.12 111.93,-89.07 132.24,-85.49 143.03,-85.22 146.51,-85.4 154.14,-85.22 157.55,-84.89 170.59,-84.61 207.44,-78.34 246.89,-105.26 262.35,-96.82 267.46,-94.46 280.47,-89.56 292.53,-86.05 298.42,-84.84 311.2,-83.32 317.69,-83.1 324.22,-83.45 331.68,-83.25 332.56,-83.3 334.06,-83.27 351.82,-81.49 356.81,-80.6 369.58,-77.3 376.17,-75.08 386.81,-70.66 402.9,-61.37 412.63,-54.99 422.29,-47.9 424.84,-45.83 440.32,-31.98 446.84,-26.62 460.93,-13.06 467.38,-5.92 471.31,-1.26 482.26,10.88 488.37,18.07 489.95,17.89 495.12,16.56 507.09,14.2 519.43,12.14 525.41,11.32 541.35,9.62 624.39,5.71 635.82,0.45 657.04,-102 658.6,-114.38 657.18,-116.34 628.64,-152.16 596.34,-209.83 558.07,-267.75 546,-263.81 538.94,-261.85 518.92,-257.28 513.83,-256.63 492.74,-254.94 490.52,-254.98 485.87,-254.84 471.86,-255.11 470.9,-255.18 468.05,-255.1 454.63,-255.36 450.22,-255.01 447.59,-254.94 437.79,-255.14 436.49,-255.23 436.12,-255.23 430.99,-255.09 421.02,-255.29 404.11,-256.48 "/>
<polyline fill="none" stroke="#000000" points="498.78,-1540.11 477.01,-1536.46 475.65,-1536.28 474.5,-1536.17 454.24,-1534.85 432.09,-1534.93 414.39,-1536.2 411.67,-1536.49 409.67,-1536.77 396.77,-1539.02 340.28,-1518.45 278.68,-1466.65 274.32,-1431.44 267.78,-1390.75 267.67,-1385.9 270.88,-1358.89 272.77,-1336.29 222.4,-1265.78 213.75,-1217.8 210.58,-1203.13 204.29,-1178.2 292.5,-1058.01 311.98,-1058.7 354.71,-1023.51 363.35,-1015.75 364.92,-1014.47 372.01,-1009.26 388.91,-998.17 466.05,-953.94 468.12,-952.6 470.06,-953.87 478.63,-958.83 489.22,-964.2 501.82,-969.64 506.18,-971.2 514.71,-973.61 527.22,-976.22 530.78,-976.7 545.59,-977.6 564.31,-980.14 571.62,-982.22 585.36,-987.18 586.71,-987.76 597.29,-981.25 603.84,-977.82 606.3,-976.76 617.38,-972.93 628.02,-970.19 640.17,-968.16 643.21,-967.92 656.88,-968.09 657.76,-968.02 662.67,-968.06 669.76,-967.47 681.11,-965.48 687.27,-963.83 697.5,-960.14 709.45,-954.69 720.07,-948.88 725.72,-945.28 736.8,-937.18 766.36,-912.88 836.31,-950.22 854.63,-960.92 865.4,-967.73 876.02,-975.48 868.26,-1020.17 866.65,-1031.82 866.61,-1032.2 896.27,-1069.4 945.73,-1145.35 938.55,-1167.7 930.31,-1211.3 912.09,-1267.97 959.35,-1318.8 988.09,-1347.04 997.89,-1423.52 1000.32,-1438.6 947.66,-1492.46 861.13,-1501.85 835.45,-1505.58 830.51,-1506.66 818.03,-1509.83 799.31,-1515.28 796.55,-1516.18 795.18,-1516.68 764.87,-1561.24 718.9,-1589.07 705.22,-1594.83 656.12,-1598.84 637.64,-1601.11 617.59,-1605.19 580.87,-1614.14 498.86,-1540.13 498.78,-1540.11 "/>
<polyline fill="none" stroke="#000000" points="1479.05,-761.03 1478.76,-761.06 1467.81,-761.27 1465.8,-761.49 1456.04,-760.85 1452.67,-760.93 1452.33,-760.91 1440,-761.22 1439.26,-761.11 1434.21,-760.81 1426.89,-761.02 1423.68,-760.84 1413.45,-761.16 1413.33,-761.14 1408.54,-760.88 1401.86,-761.11 1393.77,-760.69 1388.88,-760.87 1387.44,-760.8 1385.64,-760.87 1379.91,-761.6 1376.11,-761.76 1366.85,-761.33 1366.04,-761.22 1363.61,-761.11 1359.89,-761.28 1346.17,-760.7 1343.64,-760.37 1327.02,-756.77 1310.91,-750.47 1309.97,-750.02 1290.81,-739.18 1280.81,-731.8 1274.16,-726.31 1265.87,-718.71 1258.05,-725.65 1253.58,-729.22 1242.59,-737.09 1236.75,-740.77 1166.98,-779 1160.75,-782.96 1150.74,-790.2 1144.65,-795.13 1138.49,-800.68 1137.73,-801.25 1121.41,-814.65 1104.16,-831.48 1100.75,-831.62 1094.25,-832.14 1053.87,-836.82 1044.64,-824.16 996.84,-747.72 1003.74,-737 1003.82,-736.89 1016.8,-720.37 1019.25,-717.59 1026.1,-708.76 1033.85,-700.08 1042.57,-691.71 1047.94,-687.43 1051.11,-685.39 1061.44,-676.96 1068.07,-672.9 1076.27,-669.46 1088.01,-666.81 1093.84,-666.66 1097.62,-667.3 1103.56,-667.07 1115.02,-664.23 1124.25,-660.03 1132.63,-654.48 1143.08,-645.36 1150.86,-636.98 1151.91,-635.62 1160.28,-627.85 1164.14,-623.69 1172.27,-616.02 1206.06,-579.82 1264.47,-615.09 1289.25,-605.78 1304.71,-600.69 1323.32,-596.31 1334.38,-594.75 1348.95,-593.38 1358.08,-592.96 1360.8,-593.09 1367.53,-593.08 1369.34,-592.99 1384.29,-592.97 1384.85,-592.99 1386.68,-592.99 1388.44,-592.9 1389.55,-592.89 1395.19,-593.14 1406.9,-593.08 1407.99,-593.02 1415.51,-593.33 1422.53,-593.27 1426.49,-593.43 1431.79,-593.38 1433.69,-593.46 1441.13,-593.02 1454.38,-592.88 1457.41,-593.13 1462.19,-593.07 1474.29,-593.48 1476.2,-593.45 1477.53,-593.3 1481.63,-593.04 1489.75,-592.91 1494.18,-593.04 1501.82,-592.9 1506.47,-593.04 1510.03,-592.97 1511.16,-593.06 1521.39,-593.34 1534.43,-593.06 1536.65,-593.22 1544.45,-593.04 1549.84,-593.16 1551.14,-593.25 1563.28,-592.94 1571.44,-593.5 1583.77,-593.15 1584.97,-593.17 1587.37,-593.1 1591.97,-593.19 1594.12,-593.32 1597.33,-593.38 1606.47,-593.09 1613.03,-593.5 1615.12,-593.53 1623.28,-593.25 1630.1,-593.34 1641.96,-594.06 1656.77,-596.35 1661.6,-597.32 1674.84,-600.62 1685.98,-603.92 1687.52,-604.45 1701.88,-610.06 1710.13,-613.66 1723.17,-620.6 1736.18,-628.15 1750.51,-637.12 1759.61,-643.67 1762.69,-646.02 1775.76,-656.67 1758.86,-675.1 1755.49,-679.02 1749.01,-686.08 1742.56,-692.63 1733.83,-700.88 1725.75,-707.93 1721.48,-712.35 1703.19,-729.68 1696.04,-735.14 1678.3,-745.75 1663.31,-753.4 1650.47,-757.69 1643.87,-759.31 1638.99,-760.1 1625.16,-761.12 1619.5,-761.04 1613.7,-761.48 1611.68,-761.46 1609.14,-761.21 1604.38,-761.17 1599.88,-761.53 1591.94,-761.47 1591.64,-761.44 1583.91,-761.4 1578.89,-760.93 1575.9,-760.92 1573.28,-760.68 1569.99,-760.68 1563.64,-761.24 1555.26,-761.24 1554.33,-761.32 1552.48,-761.33 1546.94,-760.86 1542.2,-760.87 1538.63,-761.21 1527.6,-761.28 1527.57,-761.28 1519.25,-760.62 1517.73,-760.64 1510.11,-761.4 1504.23,-761.47 1499.81,-761.13 1498.36,-761.15 1496.01,-761.39 1491.56,-761.46 1484.21,-760.94 1479.05,-761.03 "/>
<polyline fill="none" stroke="#000000" points="1174.76,-487.66 1167.73,-494.28 1158.49,-504.38 1150.98,-502.52 1142.83,-500.8 1119.07,-497.49 1118.05,-497.38 1112.51,-497.01 1101.03,-497.05 1094.75,-496.85 1086.18,-496.88 1085.25,-496.85 1076.42,-496.88 1070.58,-490.37 1034.42,-453.01 979.96,-390.09 973.49,-383.29 951.97,-398.44 938.49,-406.8 925.06,-413.98 920.62,-415.95 911.59,-419.2 894.88,-423.76 890.52,-424.57 883.13,-425.29 873.78,-425.41 873.29,-425.37 861.37,-425.45 859.76,-425.32 857.35,-425.51 844.27,-425.43 836.16,-426.04 826.68,-427.51 763.34,-442.37 752.53,-398.37 751.88,-393.11 739.86,-329.45 742.05,-327.51 811.9,-258.79 830.98,-272.55 833.45,-274.56 835.56,-276.09 840.26,-279.11 854.68,-287.24 861.59,-290.56 874.19,-295.57 915.2,-308.38 921.06,-310.69 925.72,-312.93 941.19,-321.71 947,-325.49 958.09,-333.65 962.93,-337.61 973.14,-346.86 976.28,-343.96 984.8,-336.79 987.2,-334.97 990.53,-332.69 1004.19,-322.26 1021.28,-312.19 1026.84,-309.42 1034.98,-306.08 1047.58,-302.01 1049.62,-301.54 1064.64,-299.33 1069.98,-299.02 1079.28,-299.29 1081.58,-299.16 1082.03,-299.1 1086.56,-298.84 1092.01,-299.01 1097.84,-298.68 1104.95,-298.9 1106.4,-299.08 1111.79,-299.25 1112.85,-299.38 1116.08,-299.48 1125.61,-298.97 1127.58,-299.03 1130.53,-299.4 1136.88,-299.62 1144.5,-299.21 1146.62,-299.29 1151.77,-299.02 1156.01,-299.17 1156.76,-299.13 1163.46,-299.38 1167.1,-299.2 1167.29,-299.17 1175.02,-298.79 1183.83,-299.12 1186.47,-299.46 1188.03,-299.52 1193.15,-299.27 1194.73,-299.34 1204.69,-298.86 1206.97,-298.95 1209.43,-298.84 1216.62,-299.13 1224.47,-298.77 1236.65,-297.15 1250.05,-293.02 1258.89,-289.52 1269.61,-284.34 1276.02,-280.69 1288.41,-272.55 1299.22,-263.54 1307.38,-257.43 1357.73,-215.89 1380.85,-199.09 1390.37,-200.33 1396.81,-203.23 1442.22,-198.42 1467.98,-196.4 1467.98,-196.4 1488.54,-196.53 1494.12,-196.25 1501.45,-196.31 1503.9,-196.26 1508.74,-196.02 1514.4,-196.07 1527.91,-196.56 1529.64,-196.52 1535.5,-196.25 1549.41,-196.39 1551.87,-196.55 1553.57,-196.61 1560.18,-196.68 1565.68,-196.59 1575.74,-196.14 1637.11,-195.14 1643.54,-202.45 1713.64,-316.43 1720.67,-327.05 1713.11,-336.69 1693.91,-358.26 1690.39,-361.92 1687.22,-364.99 1670.72,-379.72 1659.56,-388.8 1657.46,-390.33 1656.7,-390.83 1645.2,-399.35 1641.94,-401.49 1630.98,-407.8 1622.44,-412 1609.96,-417.11 1604.44,-418.9 1592.44,-421.8 1573.45,-423.22 1571.3,-423.2 1570.54,-423.13 1561.79,-423.06 1557.22,-423.4 1551.49,-422.86 1542.92,-422.78 1541.47,-422.89 1539.16,-422.87 1537.83,-422.97 1524.22,-422.83 1522.5,-423.1 1520.15,-423.28 1506.01,-423.13 1504.25,-423.26 1503.76,-423.21 1491.79,-423.08 1488.07,-423.35 1485.61,-423.33 1483.28,-423.11 1470.76,-422.96 1454.25,-420.02 1448.71,-418.57 1441.9,-416.23 1424.72,-408.86 1422.74,-407.86 1419.7,-406.06 1406.71,-397.22 1397.69,-390.33 1393.44,-387.44 1391.88,-388.91 1384.71,-395.04 1378.63,-399.69 1369.9,-405.6 1360.31,-411.27 1353.85,-414.53 1349.67,-416.28 1334.99,-421.19 1324.23,-423.85 1321.93,-424.21 1311.74,-424.96 1301.51,-424.83 1300.16,-424.93 1294.43,-424.85 1290.54,-425.14 1287.03,-425.1 1277.54,-425.81 1261.75,-428.38 1260.27,-428.74 1252.53,-431.33 1244.08,-434.91 1226.5,-443.91 1219.44,-448.73 1207.92,-457.65 1201.3,-463.35 1197.28,-466.47 1186.52,-475.7 1186.19,-476 1174.76,-487.66 "/>
<polyline fill="none" stroke="#000000" points="1476.23,-926.14 1467.41,-924.33 1451.91,-922.72 1447.35,-922.49 1432.94,-922.47 1429.64,-922.28 1429.05,-922.21 1427.81,-922.13 1415.06,-921.97 1411.68,-922.1 1411.62,-922.09 1410.41,-921 1402.85,-914.86 1391.41,-906.57 1385.21,-902.64 1375.01,-897.1 1363.42,-891.85 1361.44,-891.13 1344.33,-886.47 1330.02,-885.18 1324.7,-885.18 1320.71,-884.79 1312.89,-884.74 1310.92,-884.91 1305.88,-884.84 1302.51,-885.1 1299.25,-885.03 1293.77,-885.41 1288.31,-885.26 1286.72,-885.06 1280.33,-884.84 1276.06,-885.08 1267.64,-884.73 1267.43,-884.74 1262.73,-885.4 1259.37,-885.54 1249.4,-884.98 1233.35,-887.01 1200.96,-894 1170.47,-880.05 1169.33,-879.43 1151.31,-868.19 1149.15,-866.66 1141.67,-861.97 1119.41,-844.54 1104.16,-831.48 1121.41,-814.65 1137.73,-801.25 1138.49,-800.68 1144.65,-795.13 1150.74,-790.2 1160.75,-782.96 1166.98,-779 1236.75,-740.77 1242.59,-737.09 1253.58,-729.22 1258.05,-725.65 1265.87,-718.71 1274.16,-726.31 1280.81,-731.8 1290.81,-739.18 1309.97,-750.02 1310.91,-750.47 1327.02,-756.77 1343.64,-760.37 1346.17,-760.7 1359.89,-761.28 1363.61,-761.11 1366.04,-761.22 1366.85,-761.33 1376.11,-761.76 1379.91,-761.6 1385.64,-760.87 1387.44,-760.8 1388.88,-760.87 1393.77,-760.69 1401.86,-761.11 1408.54,-760.88 1413.33,-761.14 1413.45,-761.16 1423.68,-760.84 1426.89,-761.02 1434.21,-760.81 1439.26,-761.11 1440,-761.22 1452.33,-760.91 1452.67,-760.93 1456.04,-760.85 1465.8,-761.49 1467.81,-761.27 1478.76,-761.06 1479.05,-761.03 1484.21,-760.94 1491.56,-761.46 1496.01,-761.39 1498.36,-761.15 1499.81,-761.13 1504.23,-761.47 1510.11,-761.4 1517.73,-760.64 1519.25,-760.62 1527.57,-761.28 1527.6,-761.28 1538.63,-761.21 1542.2,-760.87 1546.94,-760.86 1552.48,-761.33 1554.33,-761.32 1555.26,-761.24 1563.64,-761.24 1569.99,-760.68 1573.28,-760.68 1575.9,-760.92 1578.89,-760.93 1583.91,-761.4 1591.64,-761.44 1591.94,-761.47 1599.88,-761.53 1604.38,-761.17 1609.14,-761.21 1611.68,-761.46 1613.7,-761.48 1619.5,-761.04 1625.16,-761.12 1638.99,-760.1 1643.87,-759.31 1650.47,-757.69 1663.31,-753.4 1678.3,-745.75 1696.04,-735.14 1703.19,-729.68 1721.48,-712.35 1725.75,-707.93 1733.83,-700.88 1742.56,-692.63 1749.01,-686.08 1755.49,-679.02 1758.86,-675.1 1775.76,-656.67 1776.56,-656.7 1792.79,-657.79 1800.72,-658.54 1824.5,-662.79 1834.26,-664.81 1868.16,-673.7 1888.4,-812.49 1896.05,-847.8 1895.84,-848.36 1873.45,-915.2 1836.99,-948.36 1758.41,-978.25 1749.35,-982.02 1736.29,-987.92 1728,-992.25 1717.87,-996.09 1695.67,-1005.92 1684.03,-1012.19 1673.48,-1014.89 1654.96,-1020.62 1654.54,-1020.41 1644.16,-1015.65 1633.63,-1011.42 1619.51,-1006.55 1613.18,-1004.55 1605.55,-1002.35 1597.91,-995.36 1586.58,-985.56 1583.69,-983.21 1575.04,-975.69 1568.7,-970.84 1548.97,-957.69 1534.9,-949.02 1529.6,-946.03 1520.91,-941.58 1515.94,-939.29 1506.69,-935.5 1491.75,-930.13 1476.23,-926.14 "/>
<polyline fill="none" stroke="#000000" points="876.02,-975.48 865.4,-967.73 854.63,-960.92 836.31,-950.22 766.36,-912.88 764.74,-909.46 749.62,-869.23 766.82,-838.83 780.12,-811.4 798.04,-765.65 817.83,-730.66 825.77,-729.89 837.49,-729.35 837.75,-729.35 849.76,-728.77 851.06,-728.78 857.05,-729.1 857.89,-729.19 872.65,-729.21 892,-727.2 907.85,-723.9 916.96,-721.53 929.17,-717.72 996.84,-747.72 1044.64,-824.16 1053.87,-836.82 1003.59,-920.35 994.52,-934.15 992.35,-934.92 922.79,-956.67 898.67,-965.18 893.82,-967.08 876.54,-975.22 876.02,-975.48 "/>
<polyline fill="none" stroke="#000000" points="1544.45,-593.04 1536.65,-593.22 1534.43,-593.06 1521.39,-593.34 1511.16,-593.06 1510.03,-592.97 1506.47,-593.04 1501.82,-592.9 1494.18,-593.04 1489.75,-592.91 1481.63,-593.04 1477.53,-593.3 1476.2,-593.45 1474.29,-593.48 1462.19,-593.07 1457.41,-593.13 1454.38,-592.88 1441.13,-593.02 1433.69,-593.46 1431.79,-593.38 1426.49,-593.43 1422.53,-593.27 1415.51,-593.33 1407.99,-593.02 1406.9,-593.08 1395.19,-593.14 1389.55,-592.89 1388.44,-592.9 1386.68,-592.99 1384.85,-592.99 1384.29,-592.97 1369.34,-592.99 1367.53,-593.08 1360.8,-593.09 1358.08,-592.96 1348.95,-593.38 1334.38,-594.75 1323.32,-596.31 1304.71,-600.69 1289.25,-605.78 1264.47,-615.09 1206.06,-579.82 1168.71,-519.59 1158.49,-504.38 1167.73,-494.28 1174.76,-487.66 1186.19,-476 1186.52,-475.7 1197.28,-466.47 1201.3,-463.35 1207.92,-457.65 1219.44,-448.73 1226.5,-443.91 1244.08,-434.91 1252.53,-431.33 1260.27,-428.74 1261.75,-428.38 1277.54,-425.81 1287.03,-425.1 1290.54,-425.14 1294.43,-424.85 1300.16,-424.93 1301.51,-424.83 1311.74,-424.96 1321.93,-424.21 1324.23,-423.85 1334.99,-421.19 1349.67,-416.28 1353.85,-414.53 1360.31,-411.27 1369.9,-405.6 1378.63,-399.69 1384.71,-395.04 1391.88,-388.91 1393.44,-387.44 1397.69,-390.33 1406.71,-397.22 1419.7,-406.06 1422.74,-407.86 1424.72,-408.86 1441.9,-416.23 1448.71,-418.57 1454.25,-420.02 1470.76,-422.96 1483.28,-423.11 1485.61,-423.33 1488.07,-423.35 1491.79,-423.08 1503.76,-423.21 1504.25,-423.26 1506.01,-423.13 1520.15,-423.28 1522.5,-423.1 1524.22,-422.83 1537.83,-422.97 1539.16,-422.87 1541.47,-422.89 1542.92,-422.78 1551.49,-422.86 1557.22,-423.4 1561.79,-423.06 1570.54,-423.13 1571.3,-423.2 1573.45,-423.22 1592.44,-421.8 1604.44,-418.9 1609.96,-417.11 1622.44,-412 1630.98,-407.8 1641.94,-401.49 1645.2,-399.35 1656.7,-390.83 1657.46,-390.33 1659.56,-388.8 1670.72,-379.72 1687.22,-364.99 1690.39,-361.92 1693.91,-358.26 1713.11,-336.69 1720.67,-327.05 1731.11,-330.52 1739.43,-333.01 1751.3,-335.8 1763.09,-338.17 1769.63,-339.28 1776.06,-340.16 1778.52,-340.41 1789.77,-341.22 1801.86,-341.7 1820.73,-341.82 1824.51,-341.73 1837.17,-340.58 1866.73,-336.93 1875.1,-340.66 1970.52,-410.54 1977.23,-472.79 1985.48,-520.25 1999.49,-588.43 1997.6,-593.94 1868.16,-673.7 1834.26,-664.81 1824.5,-662.79 1800.72,-658.54 1792.79,-657.79 1776.56,-656.7 1775.76,-656.67 1762.69,-646.02 1759.61,-643.67 1750.51,-637.12 1736.18,-628.15 1723.17,-620.6 1710.13,-613.66 1701.88,-610.06 1687.52,-604.45 1685.98,-603.92 1674.84,-600.62 1661.6,-597.32 1656.77,-596.35 1641.96,-594.06 1630.1,-593.34 1623.28,-593.25 1615.12,-593.53 1613.03,-593.5 1606.47,-593.09 1597.33,-593.38 1594.12,-593.32 1591.97,-593.19 1587.37,-593.1 1584.97,-593.17 1583.77,-593.15 1571.44,-593.5 1563.28,-592.94 1551.14,-593.25 1549.84,-593.16 1544.45,-593.04 "/>
<polyline fill="none" stroke="#000000" points="882.67,-562.17 878.61,-561.79 862.81,-561.46 859.66,-561.62 853.94,-561.52 851.09,-561.28 843.7,-561.19 833.55,-560.38 828.16,-559.58 812.11,-556.11 802.09,-552.57 788.17,-546.7 784.59,-544.95 768.54,-488.16 756.56,-458.69 763.34,-442.37 826.68,-427.51 836.16,-426.04 844.27,-425.43 857.35,-425.51 859.76,-425.32 861.37,-425.45 873.29,-425.37 873.78,-425.41 883.13,-425.29 890.52,-424.57 894.88,-423.76 911.59,-419.2 920.62,-415.95 925.06,-413.98 938.49,-406.8 951.97,-398.44 973.49,-383.29 979.96,-390.09 1034.42,-453.01 1070.58,-490.37 1076.42,-496.88 1073.81,-499.41 1064.65,-507.69 1062.97,-509.09 1050.95,-518.33 1043.09,-523.84 1040.37,-525.57 1032.4,-531.23 1020.87,-538.58 1002.8,-547.5 948.38,-566.54 934.6,-572.42 927.46,-576.58 913.54,-570.18 901.23,-566.33 886.68,-562.84 882.67,-562.17 "/>
<polyline fill="none" stroke="#000000" points="1056.72,-167.13 1063.17,-167.28 1063.63,-167.25 1065.36,-167.29 1075.61,-166.74 1079.03,-166.84 1081.02,-167.06 1091.3,-167.38 1094.79,-167.22 1096.63,-167.28 1102.43,-167.02 1108.11,-167.23 1108.8,-167.2 1114.55,-167.43 1118.8,-167.27 1130.98,-165.85 1141.49,-163.8 1153.39,-160.54 1153.94,-160.35 1173.36,-151.99 1176.2,-150.56 1183.35,-146.39 1187.54,-143.62 1200.64,-133.87 1215.26,-121.84 1220.89,-116.77 1214.48,-102 1201.35,-62.36 1168.39,22.15 1154.88,53.26 1117.08,49.33 1097.55,47.93 1072.81,47.75 1070.69,46.97 1063.29,44.77 1055.11,42.62 1028.25,37.46 1020.11,36.48 1016.24,36.15 945.49,32.61 931.06,38.63 885.73,38.01 867.83,38.36 856.58,39.34 845.8,40.64 839.54,41.61 831.61,41.13 812.33,41.23 784.65,44.1 775.45,45.66 770.36,46.69 635.82,0.45 657.04,-102 658.6,-114.38 677.95,-131.49 684.33,-136.59 690.98,-141.33 703.26,-149.06 715.57,-155.78 773.16,-182.29 788.17,-190.35 807.44,-203.65 812.72,-207.68 813.97,-206.54 814.38,-206.2 830.58,-193.99 835.5,-190.66 849.71,-182.18 861.03,-177.2 873.43,-172.69 884,-169.7 912.45,-163.89 918.86,-162.08 931.88,-157.37 942.23,-152.82 945.49,-151.13 949.81,-153.51 967.45,-160.52 972.91,-162.25 985.63,-165.31 994.51,-166.74 1000.29,-167.21 1003.8,-167.23 1011.07,-166.69 1017.78,-166.74 1022.55,-167.16 1024.15,-167.18 1029.93,-166.79 1033.82,-166.84 1036.3,-166.68 1043.93,-166.8 1046.03,-167.01 1055.7,-167.19 1056.72,-167.13 "/>
<polyline fill="none" stroke="#000000" points="280.47,-89.56 267.46,-94.46 262.35,-96.82 246.89,-105.26 207.44,-78.34 170.59,-84.61 157.55,-84.89 154.14,-85.22 146.51,-85.4 143.03,-85.22 132.24,-85.49 111.93,-89.07 102.58,-92.12 91.43,-96.61 80.25,-101.95 76.68,-103.92 63.78,-112.03 59.71,-114.89 40.94,-129.53 8.59,-152.53 -42.15,-116.28 -85.86,-27.72 -85.9,-26.8 -87.23,-9.16 -87.62,-5.54 -81.93,35.47 -10.82,110.86 51.95,127.75 52.42,127.7 73.02,126.41 76.1,126.32 76.64,126.32 100.97,127.16 106.37,127.7 134,132.24 145.26,134.82 151.46,134.3 207.44,133.06 222.97,138.09 260.58,143.84 275.4,146.59 278.25,147.21 286.82,149.34 295.15,151.69 303.22,154.23 310.06,152.65 328,149.05 331.24,148.6 336.78,146.56 390.28,120.72 488.37,18.07 482.26,10.88 471.31,-1.26 467.38,-5.92 460.93,-13.06 446.84,-26.62 440.32,-31.98 424.84,-45.83 422.29,-47.9 412.63,-54.99 402.9,-61.37 386.81,-70.66 376.17,-75.08 369.58,-77.3 356.81,-80.6 351.82,-81.49 334.06,-83.27 332.56,-83.3 331.68,-83.25 324.22,-83.45 317.69,-83.1 311.2,-83.32 298.42,-84.84 292.53,-86.05 280.47,-89.56 "/>
<!-- &#45;&gt; -->
<g id="edge1" class="edge">
<title>&#45;&gt;</title>
<path fill="none" stroke="#555555" stroke-opacity="0.133333" d="M532.57,-663.77C568.17,-686.48 621.64,-720.59 656.74,-742.98"/>
<polygon fill="#555555" fill-opacity="0.133333" stroke="#555555" stroke-opacity="0.133333" points="654.94,-745.98 665.25,-748.41 658.7,-740.08 654.94,-745.98"/>
</g>
<!-- &#45;&gt; -->
<g id="edge2" class="edge">
<title>&#45;&gt;</title>
<path fill="none" stroke="#555555" stroke-opacity="0.133333" d="M492.88,-666.64C489.82,-696.74 484.85,-745.71 481.71,-776.57"/>
<polygon fill="#555555" fill-opacity="0.133333" stroke="#555555" stroke-opacity="0.133333" points="478.21,-776.37 480.69,-786.67 485.18,-777.07 478.21,-776.37"/>
</g>
<!-- &#45;&gt;   -->
<g id="edge3" class="edge">
<title>&#45;&gt;  </title>
<path fill="none" stroke="#555555" stroke-opacity="0.133333" d="M505.96,-666.48C526.1,-717.47 570.29,-829.33 590.92,-881.56"/>
<polygon fill="#555555" fill-opacity="0.133333" stroke="#555555" stroke-opacity="0.133333" points="587.79,-883.16 594.72,-891.17 594.3,-880.58 587.79,-883.16"/>
</g>
<!-- &#45;&gt; -->
<g id="edge4" class="edge">
<title>&#45;&gt;</title>
<path fill="none" stroke="#555555" stroke-opacity="0.133333" d="M483.52,-666.48C460.02,-717.84 408.28,-830.9 384.59,-882.66"/>
<polygon fill="#555555" fill-opacity="0.133333" stroke="#555555" stroke-opacity="0.133333" points="381.35,-881.32 380.37,-891.87 387.72,-884.24 381.35,-881.32"/>
</g>
<!-- &#45;&gt;  -->
<g id="edge5" class="edge">
<title>&#45;&gt; </title>
<path fill="none" stroke="#555555" stroke-opacity="0.133333" d="M456.29,-663.24C413.97,-688.09 347.09,-727.37 305.22,-751.95"/>
<polygon fill="#555555" fill-opacity="0.133333" stroke="#555555" stroke-opacity="0.133333" points="303.28,-749.03 296.43,-757.12 306.82,-755.07 303.28,-749.03"/>
</g>
<!-- &#45;&gt;    -->
<g id="edge6" class="edge">
<title>&#45;&gt;   </title>
<path fill="none" stroke="#555555" stroke-opacity="0.133333" d="M479.55,-614.26C464.6,-590.08 442.37,-554.12 427.18,-529.55"/>
<polygon fill="#555555" fill-opacity="0.133333" stroke="#555555" stroke-opacity="0.133333" points="429.97,-527.4 421.73,-520.74 424.01,-531.09 429.97,-527.4"/>
</g>
<!-- &#45;&gt;  -->
<g id="edge7" class="edge">
<title>&#45;&gt; </title>
<path fill="none" stroke="#555555" stroke-opacity="0.133333" d="M414.12,-635.42C391.06,-634.07 365.57,-632.58 341.13,-631.16"/>
<polygon fill="#555555" fill-opacity="0.133333" stroke="#555555" stroke-opacity="0.133333" points="341.29,-627.66 331.1,-630.57 340.88,-634.65 341.29,-627.66"/>
</g>
<!-- &#45;&gt; -->
<g id="edge8" class="edge">
<title>&#45;&gt;</title>
<path fill="none" stroke="#555555" stroke-opacity="0.133333" d="M464.35,-615.66C419.83,-580.71 338.62,-516.95 294.52,-482.33"/>
<polygon fill="#555555" fill-opacity="0.133333" stroke="#555555" stroke-opacity="0.133333" points="296.51,-479.44 286.48,-476.02 292.19,-484.95 296.51,-479.44"/>
</g>
<!-- &#45;&gt;  -->
<g id="edge9" class="edge">
<title>&#45;&gt; </title>
<path fill="none" stroke="#555555" stroke-opacity="0.133333" d="M578.52,-638.72C626.98,-637.88 688.13,-636.81 737.52,-635.95"/>
<polygon fill="#555555" fill-opacity="0.133333" stroke="#555555" stroke-opacity="0.133333" points="737.61,-639.45 747.55,-635.78 737.49,-632.45 737.61,-639.45"/>
</g>
<!-- &#45;&gt; -->
<g id="edge10" class="edge">
<title>&#45;&gt;</title>
<path fill="none" stroke="#555555" stroke-opacity="0.133333" d="M539.12,-617.64C568.86,-602.26 607.93,-582.05 636.62,-567.21"/>
<polygon fill="#555555" fill-opacity="0.133333" stroke="#555555" stroke-opacity="0.133333" points="638.27,-570.3 645.54,-562.59 635.05,-564.08 638.27,-570.3"/>
</g>
<!-- &#45;&gt;12  -->
<g id="edge11" class="edge">
<title>&#45;&gt;12 </title>
<path fill="none" stroke="#555555" stroke-opacity="0.133333" d="M492.24,-614.02C485.41,-560.33 469.87,-438.1 462.79,-382.49"/>
<polygon fill="#555555" fill-opacity="0.133333" stroke="#555555" stroke-opacity="0.133333" points="466.23,-381.78 461.5,-372.3 459.28,-382.66 466.23,-381.78"/>
</g>
<!-- &#45;&gt;   -->
<g id="edge12" class="edge">
<title>&#45;&gt;  </title>
<path fill="none" stroke="#555555" stroke-opacity="0.133333" d="M509.69,-614.29C534.82,-568.25 587.06,-472.51 612.69,-425.55"/>
<polygon fill="#555555" fill-opacity="0.133333" stroke="#555555" stroke-opacity="0.133333" points="615.87,-427.02 617.59,-416.57 609.73,-423.67 615.87,-427.02"/>
</g>
<!-- &#45;&gt; -->
<g id="edge13" class="edge">
<title>&#45;&gt;</title>
<path fill="none" stroke="#555555" stroke-opacity="0.133333" d="M1277.4,-1122.4C1306.8,-1099 1352.3,-1062.7 1381.8,-1039.2"/>
<polygon fill="#555555" fill-opacity="0.133333" stroke="#555555" stroke-opacity="0.133333" points="1384.06,-1041.87 1389.7,-1032.9 1379.7,-1036.4 1384.06,-1041.87"/>
</g>
<!-- &#45;&gt;    -->
<g id="edge14" class="edge">
<title>&#45;&gt;   </title>
<path fill="none" stroke="#555555" stroke-opacity="0.133333" d="M1305.5,-1146.6C1311.8,-1146.7 1318.5,-1146.9 1325.3,-1147.1"/>
<polygon fill="#555555" fill-opacity="0.133333" stroke="#555555" stroke-opacity="0.133333" points="1325.33,-1150.6 1335.4,-1147.3 1325.47,-1143.6 1325.33,-1150.6"/>
</g>
<!-- &#45;&gt;  -->
<g id="edge15" class="edge">
<title>&#45;&gt; </title>
<path fill="none" stroke="#555555" stroke-opacity="0.133333" d="M1234.8,-1119.5C1216.1,-1085.3 1183.1,-1025.2 1164,-990.36"/>
<polygon fill="#555555" fill-opacity="0.133333" stroke="#555555" stroke-opacity="0.133333" points="1166.88,-988.33 1159,-981.25 1160.74,-991.7 1166.88,-988.33"/>
</g>
<!-- &#45;&gt;   -->
<g id="edge16" class="edge">
<title>&#45;&gt;  </title>
<path fill="none" stroke="#555555" stroke-opacity="0.133333" d="M1254.1,-1119C1261.8,-1080.7 1276.2,-1009.7 1284.1,-970.25"/>
<polygon fill="#555555" fill-opacity="0.133333" stroke="#555555" stroke-opacity="0.133333" points="1287.57,-970.73 1286.1,-960.24 1280.71,-969.36 1287.57,-970.73"/>
</g>
<!-- &#45;&gt;   -->
<g id="edge17" class="edge">
<title>&#45;&gt;  </title>
<path fill="none" stroke="#555555" stroke-opacity="0.133333" d="M1202.8,-1160.7C1175,-1170 1139.4,-1182 1109.8,-1192"/>
<polygon fill="#555555" fill-opacity="0.133333" stroke="#555555" stroke-opacity="0.133333" points="1108.36,-1188.79 1100,-1195.3 1110.59,-1195.43 1108.36,-1188.79"/>
</g>
<!-- &#45;&gt;  -->
<g id="edge18" class="edge">
<title>&#45;&gt; </title>
<path fill="none" stroke="#555555" stroke-opacity="0.133333" d="M1252.8,-1171.5C1258.5,-1210.1 1269.2,-1281.9 1275.1,-1321.5"/>
<polygon fill="#555555" fill-opacity="0.133333" stroke="#555555" stroke-opacity="0.133333" points="1271.66,-1322.13 1276.6,-1331.5 1278.58,-1321.09 1271.66,-1322.13"/>
</g>
<!-- &#45;&gt;      -->
<g id="edge19" class="edge">
<title>&#45;&gt;     </title>
<path fill="none" stroke="#555555" stroke-opacity="0.133333" d="M1275.2,-1168.5C1303.2,-1193.2 1347.4,-1232.2 1376.1,-1257.5"/>
<polygon fill="#555555" fill-opacity="0.133333" stroke="#555555" stroke-opacity="0.133333" points="1373.91,-1260.24 1383.7,-1264.3 1378.58,-1255.02 1373.91,-1260.24"/>
</g>
<!-- &#45;&gt; -->
<g id="edge20" class="edge">
<title>&#45;&gt;</title>
<path fill="none" stroke="#555555" stroke-opacity="0.133333" d="M1233.3,-1170.5C1213,-1203.7 1177.6,-1261.5 1156.9,-1295.3"/>
<polygon fill="#555555" fill-opacity="0.133333" stroke="#555555" stroke-opacity="0.133333" points="1153.7,-1293.84 1151.5,-1304.2 1159.68,-1297.47 1153.7,-1293.84"/>
</g>
<!-- &#45;&gt;   -->
<g id="edge21" class="edge">
<title>&#45;&gt;  </title>
<path fill="none" stroke="#555555" stroke-opacity="0.133333" d="M1205.6,-1128.2C1177,-1117 1139.4,-1102.2 1109,-1090.3"/>
<polygon fill="#555555" fill-opacity="0.133333" stroke="#555555" stroke-opacity="0.133333" points="1109.99,-1086.93 1099.4,-1086.5 1107.41,-1093.43 1109.99,-1086.93"/>
</g>
<!--    &#45;&gt; -->
<g id="edge22" class="edge">
<title>   &#45;&gt;</title>
<path fill="none" stroke="#555555" stroke-opacity="0.133333" d="M754.82,-236.16C754.66,-236.16 754.5,-236.16 754.33,-236.16"/>
<polygon fill="#555555" fill-opacity="0.133333" stroke="#555555" stroke-opacity="0.133333" points="757.14,-232.66 747.14,-236.16 757.14,-239.66 757.14,-232.66"/>
</g>
<!-- &#45;&gt;  -->
<g id="edge23" class="edge">
<title>&#45;&gt; </title>
<path fill="none" stroke="#555555" stroke-opacity="0.133333" d="M942.23,-632.92C933.07,-633.04 923.87,-633.16 914.86,-633.27"/>
<polygon fill="#555555" fill-opacity="0.133333" stroke="#555555" stroke-opacity="0.133333" points="914.74,-629.77 904.79,-633.4 914.83,-636.77 914.74,-629.77"/>
</g>
<!-- Teatr Slaski&#45;&gt; -->
<g id="edge24" class="edge">
<title>Teatr Slaski&#45;&gt;</title>
<path fill="none" stroke="#555555" stroke-opacity="0.133333" d="M1384.8,-26.16C1384.6,-26.16 1384.5,-26.16 1384.3,-26.16"/>
<polygon fill="#555555" fill-opacity="0.133333" stroke="#555555" stroke-opacity="0.133333" points="1387.3,-22.66 1377.3,-26.16 1387.3,-29.66 1387.3,-22.66"/>
</g>
<!--  ()&#45;&gt; -->
<g id="edge25" class="edge">
<title> ()&#45;&gt;</title>
<path fill="none" stroke="#555555" stroke-opacity="0.133333" d="M202.8,-152.16C202.63,-152.16 202.47,-152.16 202.3,-152.16"/>
<polygon fill="#555555" fill-opacity="0.133333" stroke="#555555" stroke-opacity="0.133333" points="205.05,-148.66 195.05,-152.16 205.05,-155.66 205.05,-148.66"/>
</g>
<!-- &#45;&gt;   -->
<g id="edge26" class="edge">
<title>&#45;&gt;  </title>
<path fill="none" stroke="#555555" stroke-opacity="0.133333" d="M589.74,-1264.6C559.18,-1293.8 509.41,-1341.4 479.02,-1370.5"/>
<polygon fill="#555555" fill-opacity="0.133333" stroke="#555555" stroke-opacity="0.133333" points="476.52,-1368.05 471.73,-1377.5 481.37,-1373.1 476.52,-1368.05"/>
</g>
<!-- &#45;&gt;  -->
<g id="edge27" class="edge">
<title>&#45;&gt; </title>
<path fill="none" stroke="#555555" stroke-opacity="0.133333" d="M513.78,-1226C503.49,-1224.7 493.09,-1223.4 482.93,-1222.1"/>
<polygon fill="#555555" fill-opacity="0.133333" stroke="#555555" stroke-opacity="0.133333" points="483.24,-1218.61 472.87,-1220.8 482.34,-1225.55 483.24,-1218.61"/>
</g>
<!-- &#45;&gt;  -->
<g id="edge28" class="edge">
<title>&#45;&gt; </title>
<path fill="none" stroke="#555555" stroke-opacity="0.133333" d="M600.47,-1213C578.01,-1176.1 537.24,-1109.1 514.59,-1072"/>
<polygon fill="#555555" fill-opacity="0.133333" stroke="#555555" stroke-opacity="0.133333" points="517.43,-1069.93 509.24,-1063.2 511.44,-1073.56 517.43,-1069.93"/>
</g>
<!-- &#45;&gt; -->
<g id="edge29" class="edge">
<title>&#45;&gt;</title>
<path fill="none" stroke="#555555" stroke-opacity="0.133333" d="M618.83,-1265.4C622.8,-1308.3 630.63,-1392.7 634.7,-1436.6"/>
<polygon fill="#555555" fill-opacity="0.133333" stroke="#555555" stroke-opacity="0.133333" points="631.22,-1436.97 635.63,-1446.6 638.19,-1436.32 631.22,-1436.97"/>
</g>
<!-- &#45;&gt;  -->
<g id="edge30" class="edge">
<title>&#45;&gt; </title>
<path fill="none" stroke="#555555" stroke-opacity="0.133333" d="M625.99,-1213C640.85,-1172.5 669.28,-1095.1 684.48,-1053.7"/>
<polygon fill="#555555" fill-opacity="0.133333" stroke="#555555" stroke-opacity="0.133333" points="687.81,-1054.79 687.96,-1044.2 681.23,-1052.39 687.81,-1054.79"/>
</g>
<!-- &#45;&gt;   -->
<g id="edge31" class="edge">
<title>&#45;&gt;  </title>
<path fill="none" stroke="#555555" stroke-opacity="0.133333" d="M654.44,-1264C688.58,-1286.3 738.29,-1318.8 771.51,-1340.5"/>
<polygon fill="#555555" fill-opacity="0.133333" stroke="#555555" stroke-opacity="0.133333" points="769.7,-1343.5 780,-1346 773.51,-1337.63 769.7,-1343.5"/>
</g>
<!-- &#45;&gt;   -->
<g id="edge32" class="edge">
<title>&#45;&gt;  </title>
<path fill="none" stroke="#555555" stroke-opacity="0.133333" d="M682.21,-1217.3C713.34,-1207 750.01,-1194.8 779.25,-1185.1"/>
<polygon fill="#555555" fill-opacity="0.133333" stroke="#555555" stroke-opacity="0.133333" points="780.43,-1188.4 788.87,-1182 778.28,-1181.74 780.43,-1188.4"/>
</g>
<!--   ()&#45;&gt; -->
<g id="edge33" class="edge">
<title>  ()&#45;&gt;</title>
<path fill="none" stroke="#555555" stroke-opacity="0.133333" d="M1224.2,-698.16C1224.1,-698.16 1223.9,-698.16 1223.7,-698.16"/>
<polygon fill="#555555" fill-opacity="0.133333" stroke="#555555" stroke-opacity="0.133333" points="1226.4,-694.66 1216.4,-698.16 1226.4,-701.66 1226.4,-694.66"/>
</g>
<!-- Les Partisans ()&#45;&gt; &#45;   -->
<g id="edge34" class="edge">
<title>Les Partisans ()&#45;&gt; &#45;  </title>
<path fill="none" stroke="#555555" stroke-opacity="0.133333" d="M1424.5,-362.16C1424.6,-362.16 1424.8,-362.16 1424.9,-362.16"/>
<polygon fill="#555555" fill-opacity="0.133333" stroke="#555555" stroke-opacity="0.133333" points="1422.1,-365.66 1432.1,-362.16 1422.1,-358.66 1422.1,-365.66"/>
</g>
<!-- Les Partisans ()&#45;&gt; -->
<g id="edge35" class="edge">
<title>Les Partisans ()&#45;&gt;</title>
<path fill="none" stroke="#555555" stroke-opacity="0.133333" d="M954.62,-362.16C939.42,-362.16 925.04,-362.16 912.08,-362.16"/>
<polygon fill="#555555" fill-opacity="0.133333" stroke="#555555" stroke-opacity="0.133333" points="912.01,-358.66 902.01,-362.16 912.01,-365.66 912.01,-358.66"/>
</g>
<!--    &#45;&gt;  -->
<g id="edge36" class="edge">
<title>   &#45;&gt; </title>
<path fill="none" stroke="#555555" stroke-opacity="0.133333" d="M967.08,-824.16C966.91,-824.16 966.75,-824.16 966.59,-824.16"/>
<polygon fill="#555555" fill-opacity="0.133333" stroke="#555555" stroke-opacity="0.133333" points="969.38,-820.66 959.38,-824.16 969.38,-827.66 969.38,-820.66"/>
</g>
<!--   &#39;  &#39; ()&#45;&gt;  -->
<g id="edge37" class="edge">
<title>  &#39;  &#39; ()&#45;&gt; </title>
<path fill="none" stroke="#555555" stroke-opacity="0.133333" d="M1011.2,-488.16C1011,-488.16 1010.8,-488.16 1010.7,-488.16"/>
<polygon fill="#555555" fill-opacity="0.133333" stroke="#555555" stroke-opacity="0.133333" points="1013.5,-484.66 1003.5,-488.16 1013.5,-491.66 1013.5,-484.66"/>
</g>
<!-- &#45; ()&#45;&gt;   -->
<g id="edge38" class="edge">
<title>&#45; ()&#45;&gt;  </title>
<path fill="none" stroke="#555555" stroke-opacity="0.133333" d="M950.63,-102C950.47,-102 950.31,-102 950.15,-102"/>
<polygon fill="#555555" fill-opacity="0.133333" stroke="#555555" stroke-opacity="0.133333" points="952.9,-98.5 942.9,-102 952.9,-105.5 952.9,-98.5"/>
</g>
<!--  &#45;&gt;   -->
<g id="edge39" class="edge">
<title> &#45;&gt;  </title>
<path fill="none" stroke="#555555" stroke-opacity="0.133333" d="M218.56,-18C218.4,-18 218.24,-18 218.08,-18"/>
<polygon fill="#555555" fill-opacity="0.133333" stroke="#555555" stroke-opacity="0.133333" points="220.79,-14.5 210.79,-18 220.79,-21.5 220.79,-14.5"/>
</g>
<!--  -->
<g id="node1" class="node">
<title></title>
<text text-anchor="middle" x="495.57" y="-633.87" font-family="Helvetica,sans-Serif" font-weight="bold" font-size="26.00"></text>
</g>
<!--  -->
<g id="node2" class="node">
<title></title>
<text text-anchor="middle" x="692.29" y="-761.95" font-family="Helvetica,sans-Serif" font-weight="bold" font-size="14.00"></text>
</g>
<!--  -->
<g id="node3" class="node">
<title></title>
<text text-anchor="middle" x="478.83" y="-801.21" font-family="Helvetica,sans-Serif" font-weight="bold" font-size="14.00"></text>
</g>
<!--    -->
<g id="node4" class="node">
<title>  </title>
<text text-anchor="middle" x="601.94" y="-905.76" font-family="Helvetica,sans-Serif" font-weight="bold" font-size="14.00">  </text>
</g>
<!--  -->
<g id="node5" class="node">
<title></title>
<text text-anchor="middle" x="372.32" y="-905.78" font-family="Helvetica,sans-Serif" font-weight="bold" font-size="14.00"></text>
</g>
<!--   -->
<g id="node6" class="node">
<title> </title>
<text text-anchor="middle" x="267.09" y="-770.65" font-family="Helvetica,sans-Serif" font-weight="bold" font-size="14.00"> </text>
</g>
<!--     -->
<g id="node7" class="node">
<title>   </title>
<text text-anchor="middle" x="410.41" y="-498.73" font-family="Helvetica,sans-Serif" font-weight="bold" font-size="14.00">   </text>
</g>
<!--   -->
<g id="node8" class="node">
<title> </title>
<text text-anchor="middle" x="231.29" y="-621.05" font-family="Helvetica,sans-Serif" font-weight="bold" font-size="14.00"> </text>
</g>
<!--  -->
<g id="node9" class="node">
<title></title>
<text text-anchor="middle" x="264.07" y="-454.73" font-family="Helvetica,sans-Serif" font-weight="bold" font-size="14.00"></text>
</g>
<!--   -->
<g id="node10" class="node">
<title> </title>
<text text-anchor="middle" x="825.98" y="-630.71" font-family="Helvetica,sans-Serif" font-weight="bold" font-size="14.00"> </text>
</g>
<!--  -->
<g id="node11" class="node">
<title></title>
<text text-anchor="middle" x="675.47" y="-543.41" font-family="Helvetica,sans-Serif" font-weight="bold" font-size="14.00"></text>
</g>
<!-- 12  -->
<g id="node12" class="node">
<title>12 </title>
<text text-anchor="middle" x="459.17" y="-350.3" font-family="Helvetica,sans-Serif" font-weight="bold" font-size="14.00">12 </text>
</g>
<!--    -->
<g id="node13" class="node">
<title>  </title>
<text text-anchor="middle" x="627.52" y="-394.67" font-family="Helvetica,sans-Serif" font-weight="bold" font-size="14.00">  </text>
</g>
<!--  -->
<g id="node14" class="node">
<title></title>
<text text-anchor="middle" x="1248.9" y="-1138.9" font-family="Helvetica,sans-Serif" font-weight="bold" font-size="26.00"></text>
</g>
<!--  -->
<g id="node15" class="node">
<title></title>
<text text-anchor="middle" x="1410.7" y="-1012.4" font-family="Helvetica,sans-Serif" font-weight="bold" font-size="14.00"></text>
</g>
<!--     -->
<g id="node16" class="node">
<title>   </title>
<text text-anchor="middle" x="1456" y="-1146.6" font-family="Helvetica,sans-Serif" font-weight="bold" font-size="14.00">   </text>
</g>
<!--   -->
<g id="node17" class="node">
<title> </title>
<text text-anchor="middle" x="1149.2" y="-959.7" font-family="Helvetica,sans-Serif" font-weight="bold" font-size="14.00"> </text>
</g>
<!--    -->
<g id="node18" class="node">
<title>  </title>
<text text-anchor="middle" x="1289.8" y="-938.3" font-family="Helvetica,sans-Serif" font-weight="bold" font-size="14.00">  </text>
</g>
<!--    -->
<g id="node19" class="node">
<title>  </title>
<text text-anchor="middle" x="1052.6" y="-1207.6" font-family="Helvetica,sans-Serif" font-weight="bold" font-size="14.00">  </text>
</g>
<!--   -->
<g id="node20" class="node">
<title> </title>
<text text-anchor="middle" x="1279.3" y="-1345.9" font-family="Helvetica,sans-Serif" font-weight="bold" font-size="14.00"> </text>
</g>
<!--       -->
<g id="node21" class="node">
<title>     </title>
<text text-anchor="middle" x="1404.2" y="-1278.7" font-family="Helvetica,sans-Serif" font-weight="bold" font-size="14.00">     </text>
</g>
<!--  -->
<g id="node22" class="node">
<title></title>
<text text-anchor="middle" x="1140.6" y="-1318.3" font-family="Helvetica,sans-Serif" font-weight="bold" font-size="14.00"></text>
</g>
<!--    -->
<g id="node23" class="node">
<title>  </title>
<text text-anchor="middle" x="1055.9" y="-1065.7" font-family="Helvetica,sans-Serif" font-weight="bold" font-size="14.00">  </text>
</g>
<!--     -->
<g id="node24" class="node">
<title>   </title>
<text text-anchor="middle" x="1061.9" y="-229.86" font-family="Helvetica,sans-Serif" font-weight="bold" font-size="26.00">   </text>
</g>
<!--  -->
<g id="node25" class="node">
<title></title>
<text text-anchor="middle" x="688.49" y="-232.46" font-family="Helvetica,sans-Serif" font-weight="bold" font-size="14.00"></text>
</g>
<!--  -->
<g id="node26" class="node">
<title></title>
<text text-anchor="middle" x="1046.8" y="-625.29" font-family="Helvetica,sans-Serif" font-weight="bold" font-size="26.00"></text>
</g>
<!-- Teatr Slaski -->
<g id="node27" class="node">
<title>Teatr Slaski</title>
<text text-anchor="middle" x="1508" y="-19.86" font-family="Helvetica,sans-Serif" font-weight="bold" font-size="26.00">Teatr Slaski</text>
</g>
<!--  -->
<g id="node28" class="node">
<title></title>
<text text-anchor="middle" x="1318.5" y="-22.46" font-family="Helvetica,sans-Serif" font-weight="bold" font-size="14.00"></text>
</g>
<!--  () -->
<g id="node29" class="node">
<title> ()</title>
<text text-anchor="middle" x="433.44" y="-145.86" font-family="Helvetica,sans-Serif" font-weight="bold" font-size="26.00"> ()</text>
</g>
<!--  -->
<g id="node30" class="node">
<title></title>
<text text-anchor="middle" x="160.45" y="-148.46" font-family="Helvetica,sans-Serif" font-weight="bold" font-size="14.00"></text>
</g>
<!--  -->
<g id="node31" class="node">
<title></title>
<text text-anchor="middle" x="616.39" y="-1232.8" font-family="Helvetica,sans-Serif" font-weight="bold" font-size="26.00"></text>
</g>
<!--    -->
<g id="node32" class="node">
<title>  </title>
<text text-anchor="middle" x="452.75" y="-1391.9" font-family="Helvetica,sans-Serif" font-weight="bold" font-size="14.00">  </text>
</g>
<!--   -->
<g id="node33" class="node">
<title> </title>
<text text-anchor="middle" x="392.14" y="-1206.8" font-family="Helvetica,sans-Serif" font-weight="bold" font-size="14.00"> </text>
</g>
<!--   -->
<g id="node34" class="node">
<title> </title>
<text text-anchor="middle" x="498.31" y="-1041.5" font-family="Helvetica,sans-Serif" font-weight="bold" font-size="14.00"> </text>
</g>
<!--  -->
<g id="node35" class="node">
<title></title>
<text text-anchor="middle" x="637.3" y="-1460.9" font-family="Helvetica,sans-Serif" font-weight="bold" font-size="14.00"></text>
</g>
<!--   -->
<g id="node36" class="node">
<title> </title>
<text text-anchor="middle" x="694.65" y="-1022.3" font-family="Helvetica,sans-Serif" font-weight="bold" font-size="14.00"> </text>
</g>
<!--    -->
<g id="node37" class="node">
<title>  </title>
<text text-anchor="middle" x="806.65" y="-1359.7" font-family="Helvetica,sans-Serif" font-weight="bold" font-size="14.00">  </text>
</g>
<!--    -->
<g id="node38" class="node">
<title>  </title>
<text text-anchor="middle" x="831.86" y="-1164" font-family="Helvetica,sans-Serif" font-weight="bold" font-size="14.00">  </text>
</g>
<!--   () -->
<g id="node39" class="node">
<title>  ()</title>
<text text-anchor="middle" x="1490.3" y="-691.86" font-family="Helvetica,sans-Serif" font-weight="bold" font-size="26.00">  ()</text>
</g>
<!--  -->
<g id="node40" class="node">
<title></title>
<text text-anchor="middle" x="1133.2" y="-694.46" font-family="Helvetica,sans-Serif" font-weight="bold" font-size="14.00"></text>
</g>
<!-- Les Partisans () -->
<g id="node41" class="node">
<title>Les Partisans ()</title>
<text text-anchor="middle" x="1189.5" y="-355.86" font-family="Helvetica,sans-Serif" font-weight="bold" font-size="26.00">Les Partisans ()</text>
</g>
<!--  &#45;   -->
<g id="node42" class="node">
<title> &#45;  </title>
<text text-anchor="middle" x="1527.2" y="-358.46" font-family="Helvetica,sans-Serif" font-weight="bold" font-size="14.00"> &#45;  </text>
</g>
<!--  -->
<g id="node43" class="node">
<title></title>
<text text-anchor="middle" x="850" y="-358.46" font-family="Helvetica,sans-Serif" font-weight="bold" font-size="14.00"></text>
</g>
<!--     -->
<g id="node44" class="node">
<title>   </title>
<text text-anchor="middle" x="1496.2" y="-817.86" font-family="Helvetica,sans-Serif" font-weight="bold" font-size="26.00">   </text>
</g>
<!--   -->
<g id="node45" class="node">
<title> </title>
<text text-anchor="middle" x="878.59" y="-820.46" font-family="Helvetica,sans-Serif" font-weight="bold" font-size="14.00"> </text>
</g>
<!--   &#39;  &#39; () -->
<g id="node46" class="node">
<title>  &#39;  &#39; ()</title>
<text text-anchor="middle" x="1565.1" y="-481.86" font-family="Helvetica,sans-Serif" font-weight="bold" font-size="26.00">  &#39;  &#39; ()</text>
</g>
<!--   -->
<g id="node47" class="node">
<title> </title>
<text text-anchor="middle" x="900.69" y="-484.46" font-family="Helvetica,sans-Serif" font-weight="bold" font-size="14.00"> </text>
</g>
<!-- &#45; () -->
<g id="node48" class="node">
<title>&#45; ()</title>
<text text-anchor="middle" x="1060" y="-98.3" font-family="Helvetica,sans-Serif" font-weight="bold" font-size="14.00">&#45; ()</text>
</g>
<!--    -->
<g id="node49" class="node">
<title>  </title>
<text text-anchor="middle" x="828.39" y="-98.3" font-family="Helvetica,sans-Serif" font-weight="bold" font-size="14.00">  </text>
</g>
<!--   -->
<g id="node50" class="node">
<title> </title>
<text text-anchor="middle" x="295.29" y="-14.3" font-family="Helvetica,sans-Serif" font-weight="bold" font-size="14.00"> </text>
</g>
<!--    -->
<g id="node51" class="node">
<title>  </title>
<text text-anchor="middle" x="105.29" y="-14.3" font-family="Helvetica,sans-Serif" font-weight="bold" font-size="14.00">  </text>
</g>
</g>
</svg>
