<?xml version="1.0" encoding="UTF-8" standalone="no"?>
<!DOCTYPE svg PUBLIC "-//W3C//DTD SVG 1.1//EN"
 "http://www.w3.org/Graphics/SVG/1.1/DTD/svg11.dtd">
<!-- Generated by graphviz version 2.38.0 (20140413.2041)
 -->
<!-- Title: G Pages: 1 -->
<svg width="1246pt" height="875pt"
 viewBox="0.00 0.00 1245.84 874.60" xmlns="http://www.w3.org/2000/svg" xmlns:xlink="http://www.w3.org/1999/xlink">
<g id="graph0" class="graph" transform="scale(1 1) rotate(0) translate(41.6474 778.39)">
<title>G</title>
<polygon fill="#dae2ff" stroke="none" points="-41.6474,96.2072 -41.6474,-778.39 1204.19,-778.39 1204.19,96.2072 -41.6474,96.2072"/>
<polygon fill="#fcd8a9" stroke="#fcd8a9" points="245.033,-343.23 235.469,-336.65 233.21,-335.258 231.844,-316.833 232.27,-310.547 232.237,-309.295 231.805,-303.296 234.305,-300.932 243.982,-293.341 279.012,-271.593 292.263,-262.314 293.583,-261.205 293.717,-261.083 298.049,-257.488 310.83,-245.041 312.915,-243.283 316.565,-239.336 308.939,-231.603 307.909,-230.691 307.576,-220.525 308.055,-164.126 312.248,-166.161 316.939,-166.161 320.001,-164.79 323.707,-222.275 324.283,-212.053 324.283,-212.053 323.707,-222.275 320.001,-164.79 316.939,-166.161 312.248,-166.161 308.055,-164.126 307.576,-220.525 307.909,-230.691 301.657,-225.878 299.924,-224.424 295.161,-220.733 286.645,-215.191 248.108,-192.595 245.731,-191.034 243.822,-173.815 243.86,-173.101 243.84,-162.555 243.845,-162.46 243.097,-149.274 243.079,-149.112 262.852,-118.797 276.968,-99.6215 281.197,-94.7839 289.698,-92.2434 294.261,-90.534 295.83,-89.8244 301.545,-75.9793 307.077,-58.9268 355.066,-53.0624 359.184,-52.9171 362.456,-53.0875 362.474,-53.3991 362.474,-53.3991 362.456,-53.0875 365.784,-52.7246 370.724,-52.6227 373.917,-52.8367 373.95,-52.8337 375.157,-52.827 377.274,-52.6459 386.889,-52.664 389.4,-52.2716 394.182,-51.1415 399.741,-49.3835 409.849,-44.5465 411.363,-43.706 439.763,-61.8262 443.382,-59.7286 449.513,-56.695 453.597,-55.0312 458.379,-53.4973 461.216,-52.8338 465.003,-52.2716 467.105,-52.1395 473.373,-52.2865 477.389,-52.0233 478.026,-52.0368 479.855,-51.9145 488.675,-50.537 497.053,-47.7377 495.139,-81.9824 491.715,-81.1834 491.715,-81.1834 495.139,-81.9824 497.053,-47.7377 502.149,-45.5926 509.981,-40.9134 535.713,-23.3237 570.863,-4.79461 581.356,-55.2383 582.94,-83.1589 583.136,-84.4513 583.588,-88.2164 583.936,-88.5456 651.637,-148.93 654.988,-151.741 664.24,-159.923 665.394,-161.098 677.496,-164.514 685.468,-167.154 698.484,-172.757 699.109,-240.037 657.568,-243.091 633.179,-243.208 622.234,-240.637 618.89,-242.762 616.23,-225.55 613.032,-247.592 611.15,-247.592 610.511,-247.738 608.984,-247.738 606.122,-245.103 601.815,-243.143 598.926,-243.143 596.352,-226.64 596.53,-205.425 606.044,-201.701 606.874,-201.323 616.09,-195.877 624.04,-190.116 637.253,-179.681 589.579,-175.234 568.933,-169.638 568.602,-169.838 567.358,-169.838 564.02,-199.187 561.429,-169.535 559.427,-169.535 557.977,-169.88 554.842,-169.88 551.597,-198.395 549.002,-170.936 550.069,-169.643 548.347,-167.524 545.601,-165.677 541.819,-164.824 541.819,-164.824 545.601,-165.677 548.347,-167.524 550.069,-169.643 549.002,-170.936 551.597,-198.395 554.842,-169.88 557.977,-169.88 559.427,-169.535 561.429,-169.535 564.02,-199.187 567.358,-169.838 568.602,-169.838 568.933,-169.638 589.579,-175.234 637.253,-179.681 624.04,-190.116 616.09,-195.877 606.874,-201.323 606.044,-201.701 596.53,-205.425 588.274,-207.555 586.461,-207.9 586.461,-207.9 588.274,-207.555 596.53,-205.425 596.352,-226.64 598.926,-243.143 601.815,-243.143 606.122,-245.103 608.984,-247.738 606.111,-250.391 602.192,-252.178 602.192,-252.178 606.111,-250.391 608.984,-247.738 610.511,-247.738 611.15,-247.592 613.032,-247.592 616.23,-225.55 618.89,-242.762 622.234,-240.637 633.179,-243.208 657.568,-243.091 699.109,-240.037 702.271,-271.588 706.864,-307.016 695.753,-312.995 692.344,-314.546 680.126,-319.777 672.559,-322.39 664.448,-324.969 650.05,-329.144 648.2,-331.513 642.972,-338.639 635.703,-350.019 571.154,-346.458 567.065,-420.894 566.437,-420.129 564.007,-417.35 556.41,-409.204 555.431,-389.554 555.045,-385.837 553.232,-344.46 548.05,-343.163 544.823,-340.923 543.352,-396.029 536.174,-388.853 537.202,-366.336 537.202,-366.336 536.174,-388.853 543.352,-396.029 544.823,-340.923 548.05,-343.163 553.232,-344.46 555.045,-385.837 555.431,-389.554 556.41,-409.204 564.007,-417.35 566.437,-420.129 567.065,-420.894 571.154,-346.458 635.703,-350.019 610.926,-392.086 596.201,-414.981 593.364,-418.6 570.108,-424.837 555.889,-445.163 491.809,-438.212 493.878,-406.56 493.878,-406.56 491.809,-438.212 488.613,-438.086 488.401,-431.623 484.539,-399.524 482.5,-399.524 481.088,-397.949 478.461,-396.234 478.461,-396.234 481.088,-397.949 482.5,-399.524 484.539,-399.524 488.401,-431.623 488.613,-438.086 487.887,-438.156 484.624,-438.239 481.277,-438.08 475.012,-438.654 473.613,-438.679 472.294,-438.608 469.246,-438.219 468.462,-438.227 464.973,-438.507 461.358,-438.533 460.948,-438.476 456.223,-438.147 452.736,-438.148 451.342,-438.046 445.123,-438.024 420.234,-436.141 413.476,-443.875 383.927,-441.311 377.851,-441.244 376.54,-441.43 367.399,-441.178 371.553,-409.848 367.135,-409.848 361.75,-407.3 361.292,-406.895 361.292,-404.049 363.221,-402.326 366.549,-400.883 370.43,-400.883 370.43,-400.883 366.549,-400.883 363.221,-402.326 361.292,-404.049 361.292,-406.895 361.75,-407.3 367.135,-409.848 371.553,-409.848 367.399,-441.178 367.171,-441.189 366.018,-441.148 362.962,-441.503 360.727,-441.575 359.713,-441.523 358.033,-441.563 352.437,-441.225 327.88,-441.614 316.759,-423.267 315.256,-421.112 316.803,-409.366 318.538,-400.79 318.757,-397.442 318.751,-391.694 321.093,-373.895 322.277,-367.789 320.879,-366.864 311.704,-361.419 311.617,-356.52 305.721,-317.139 308.352,-317.139 310.637,-319.207 315.79,-321.612 318.895,-321.612 322.581,-319.983 325.239,-350.051 327.796,-316.993 331.09,-316.993 331.09,-316.993 327.796,-316.993 325.239,-350.051 322.581,-319.983 318.895,-321.612 315.79,-321.612 310.637,-319.207 308.352,-317.139 305.721,-317.139 311.617,-356.52 311.704,-361.419 298.383,-356.315 298.222,-356.265 295.291,-355.566 290.869,-354.822 281.466,-354.552 281.099,-354.515 276.616,-354.375 270.748,-353.764 269.879,-353.611 268.861,-353.357 259.364,-350.27 255.32,-348.663 253.14,-347.639 245.033,-343.23 245.033,-343.23"/>
<polygon fill="#d1e2ce" stroke="#d1e2ce" points="49.8353,-161.72 42.778,-158.677 -3.03494,-137.365 -30.264,-156.954 -35.7961,-226.449 -36.212,-230.321 -37.6474,-240.922 -34.3906,-253.316 -26.4128,-308.016 -25.6091,-310.335 45.5306,-336.95 49.3927,-338.511 53.1376,-340.139 59.0576,-342.892 64.7583,-345.715 65.0375,-345.879 71.3277,-339.184 77.9979,-332.439 78.8293,-331.644 82.2971,-328.119 82.888,-251.359 85.5047,-251.76 85.5047,-251.76 82.888,-251.359 82.2971,-328.119 89.2122,-321.494 91.6043,-318.652 92.6503,-317.57 103.37,-307.225 111.059,-301.489 116.644,-297.727 121.456,-294.842 126.338,-292.28 127.731,-291.653 155.452,-281.188 161.381,-278.483 162.168,-278.063 168.198,-273.831 171.257,-275.517 181.04,-280.187 202.476,-287.163 213.112,-291.41 218.982,-294.158 226.339,-299.173 231.805,-303.296 234.305,-300.932 243.982,-293.341 279.012,-271.593 292.263,-262.314 293.583,-261.205 293.717,-261.083 298.049,-257.488 310.83,-245.041 312.915,-243.283 316.565,-239.336 308.939,-231.603 307.909,-230.691 301.657,-225.878 299.924,-224.424 295.161,-220.733 286.645,-215.191 248.108,-192.595 245.731,-191.034 237.329,-197.137 235.108,-198.566 231.276,-200.725 226.206,-203.183 224.986,-203.678 211.878,-207.025 203.734,-207.816 200.318,-207.878 195.796,-208.297 195.076,-208.417 190.185,-209.604 179.859,-212.898 175.621,-214.867 172.046,-216.794 167.822,-219.387 127.727,-189.214 125.916,-187.709 118.069,-180.541 115.051,-177.551 114.544,-177.011 112.033,-174.915 110.959,-173.951 108.95,-172.014 108.146,-172.001 100.894,-172.136 99.1941,-172.109 97.4378,-171.959 96.1504,-171.893 82.2799,-170.702 81.9576,-170.663 74.0677,-169.167 69.9782,-168.25 60.3343,-165.755 56.6285,-164.415 49.8353,-161.72 49.8353,-161.72"/>
<polygon fill="#bedbd5" stroke="#bedbd5" points="211.272,-382.768 210.837,-376.906 210.837,-360.263 181.07,-357.941 177.134,-357.992 176.566,-358.051 175.387,-358.075 170.786,-357.784 168.976,-357.835 168.588,-357.813 164.688,-357.95 161.869,-357.815 161.492,-357.831 159.961,-358.035 157.61,-358.153 154.013,-358.033 153.549,-358.059 68.9168,-355.858 70.9548,-382.61 72.1013,-388.862 72.5893,-392.771 73.0448,-397.53 75.5568,-435.29 87.4594,-454.344 127.823,-439.9 154.947,-428.562 155.067,-428.522 162.283,-426.714 162.455,-426.685 168.272,-426.196 175.672,-426.195 176.126,-426.12 177.601,-426 181.631,-426.009 184.595,-425.772 190.881,-424.746 191.992,-424.474 198.935,-422.183 205.042,-419.665 206.566,-418.916 210.837,-416.464 210.837,-401.301 210.792,-400.999 210.447,-396.379 210.447,-393.634 211.272,-382.768 211.272,-382.768"/>
<polygon fill="#fbb4ae" stroke="#fbb4ae" points="281.197,-94.7839 274.271,-91.0165 253.712,-78.6405 244.204,-73.6536 235.611,-70.5604 232.432,-69.6834 232.055,-69.6104 227.475,-69.0885 223.156,-68.9449 222.826,-68.9047 213.86,-68.5444 203.486,-66.2897 198.929,-64.5104 195.232,-62.7407 188.36,-58.836 185.012,-56.6466 157.725,-77.2639 157.725,-94.9302 157.918,-97.4848 157.872,-98.0955 157.487,-100.579 157.487,-115.901 157.725,-118.985 157.725,-129.508 171.962,-134.627 174.144,-135.23 178.942,-136.163 185.747,-136.924 188.959,-136.746 193.432,-136.895 194.602,-137.038 201.045,-136.743 202.934,-136.824 203.347,-136.879 206.296,-137.018 213.05,-137.932 216.016,-138.59 218.963,-139.501 243.079,-149.112 262.852,-118.797 276.968,-99.6215 281.197,-94.7839 281.197,-94.7839"/>
<polygon fill="#b4cee2" stroke="#b4cee2" points="174.144,-135.23 171.962,-134.627 157.725,-129.508 126.593,-155.459 125.3,-156.426 112.725,-167.77 108.95,-172.014 110.959,-173.951 112.033,-174.915 114.544,-177.011 115.051,-177.551 118.069,-180.541 125.916,-187.709 127.727,-189.214 167.822,-219.387 172.046,-216.794 175.621,-214.867 179.859,-212.898 190.185,-209.604 195.076,-208.417 195.796,-208.297 200.318,-207.878 203.734,-207.816 211.878,-207.025 224.986,-203.678 226.206,-203.183 231.276,-200.725 235.108,-198.566 237.329,-197.137 245.731,-191.034 243.822,-173.815 243.86,-173.101 243.84,-162.555 243.845,-162.46 243.097,-149.274 243.079,-149.112 218.963,-139.501 216.016,-138.59 213.05,-137.932 206.296,-137.018 203.347,-136.879 202.934,-136.824 201.045,-136.743 194.602,-137.038 193.432,-136.895 188.959,-136.746 185.747,-136.924 178.942,-136.163 174.144,-135.23 174.144,-135.23"/>
<polygon fill="#c4e1cf" stroke="#c4e1cf" points="219.702,51.2364 217.256,51.233 185.012,52.0381 185.012,-22.1747 185.498,-29.6944 185.498,-32.0228 185.582,-33.3247 185.067,-41.2681 185.067,-43.6882 185.012,-44.5305 185.012,-56.6466 188.36,-58.836 195.232,-62.7407 198.929,-64.5104 203.486,-66.2897 213.86,-68.5444 222.826,-68.9047 223.156,-68.9449 227.475,-69.0885 232.055,-69.6104 232.432,-69.6834 235.611,-70.5604 244.204,-73.6536 253.712,-78.6405 274.271,-91.0165 281.197,-94.7839 289.698,-92.2434 294.261,-90.534 295.83,-89.8244 301.545,-75.9793 307.077,-58.9268 305.03,-46.7929 303.154,-23.472 303.166,-22.2748 301,-4.91282 291.093,53.8055 248.643,50.1001 248.678,-10.697 248.678,-10.697 248.643,50.1001 241.247,49.8505 227.987,50.4694 225.612,50.6439 219.702,51.2364 219.702,51.2364"/>
<polygon fill="#e2cddd" stroke="#e2cddd" points="411.784,-26.9074 410.743,-13.1959 411.363,-9.03034 411.363,82.3448 390.001,87.7606 383.083,87.8931 370.074,88.445 354.267,90.2189 341.72,92.2072 328.377,85.3455 291.093,53.8055 301,-4.91282 303.166,-22.2748 303.154,-23.472 305.03,-46.7929 307.077,-58.9268 355.066,-53.0624 359.184,-52.9171 362.456,-53.0875 365.784,-52.7246 370.724,-52.6227 373.917,-52.8367 373.95,-52.8337 375.157,-52.827 377.274,-52.6459 386.889,-52.664 389.4,-52.2716 394.182,-51.1415 399.741,-49.3835 409.849,-44.5465 411.363,-43.706 411.363,-32.5727 411.784,-26.9074 411.784,-26.9074"/>
<polygon fill="#d5dbd4" stroke="#d5dbd4" points="281.099,-354.515 281.466,-354.552 290.869,-354.822 295.291,-355.566 298.222,-356.265 298.383,-356.315 311.704,-361.419 320.879,-366.864 322.277,-367.789 321.093,-373.895 318.751,-391.694 318.757,-397.442 318.538,-400.79 316.803,-409.366 315.256,-421.112 289.798,-425.654 285.251,-426.056 281.596,-426.05 280.107,-426.171 277.026,-426.146 275.754,-426.24 275.628,-426.26 274.081,-426.366 268.034,-426.232 267.263,-426.144 263.036,-426.022 256.949,-426.866 252.305,-427.901 246.837,-429.579 241.687,-431.585 236.947,-433.815 210.837,-416.464 210.837,-401.301 210.792,-400.999 210.447,-396.379 210.447,-393.634 211.272,-382.768 210.837,-376.906 210.837,-360.263 225.31,-343.466 233.21,-335.258 235.469,-336.65 245.033,-343.23 253.14,-347.639 255.32,-348.663 259.364,-350.27 268.861,-353.357 269.879,-353.611 270.748,-353.764 276.616,-354.375 281.099,-354.515 281.099,-354.515"/>
<polygon fill="#bfc9da" stroke="#bfc9da" points="459.219,71.1674 476.783,66.0768 507.551,59.0471 559.017,30.5302 574.659,13.9302 572.481,3.74828 570.863,-4.79461 535.713,-23.3237 509.981,-40.9134 502.149,-45.5926 497.053,-47.7377 488.675,-50.537 479.855,-51.9145 478.026,-52.0368 477.389,-52.0233 473.373,-52.2865 467.105,-52.1395 465.003,-52.2716 461.216,-52.8338 458.379,-53.4973 453.597,-55.0312 449.513,-56.695 443.382,-59.7286 439.763,-61.8262 411.363,-43.706 411.363,-32.5727 411.784,-26.9074 410.743,-13.1959 411.363,-9.03034 411.363,82.3448 430.145,83.8041 445.384,76.6448 452.857,73.5824 459.219,71.1674 459.219,71.1674"/>
<polygon fill="#f6d5b6" stroke="#f6d5b6" points="157.918,-97.4848 157.725,-94.9302 157.725,-77.2639 147.368,-72.7326 145.975,-72.2502 135.852,-69.6391 129.954,-69.2022 127.118,-69.2522 124.728,-69.0965 120.193,-69.2195 117.538,-69.0723 116.447,-69.1115 116.233,-69.1018 105.897,-67.7805 103.412,-67.0622 57.6624,-50.0204 41.2962,-44.6138 22.0511,-79.0519 13.2496,-97.1833 6.77568,-108.916 3.20886,-114.697 -3.03494,-137.365 42.778,-158.677 49.8353,-161.72 56.6285,-164.415 60.3343,-165.755 69.9782,-168.25 74.0677,-169.167 81.9576,-170.663 82.2799,-170.702 96.1504,-171.893 97.4378,-171.959 99.1941,-172.109 100.894,-172.136 108.146,-172.001 108.95,-172.014 112.725,-167.77 125.3,-156.426 126.593,-155.459 157.725,-129.508 157.725,-118.985 157.487,-115.901 157.487,-100.579 157.872,-98.0955 157.918,-97.4848 157.918,-97.4848"/>
<polygon fill="#b9d4dc" stroke="#b9d4dc" points="454.701,-549.64 454.144,-543.262 454.13,-542.559 453.099,-530.618 452.244,-524.911 448.009,-522.745 415.517,-508.454 413.476,-507.283 410.488,-508.826 408.084,-509.908 398.145,-513.73 398.052,-513.753 392.797,-550.961 390.199,-552.07 386.738,-555.206 390.116,-558.428 393.306,-559.865 397.2,-559.865 397.2,-559.865 393.306,-559.865 390.116,-558.428 386.738,-555.206 390.199,-552.07 392.797,-550.961 398.052,-513.753 385.352,-516.072 384.233,-516.199 382.218,-516.292 381.668,-516.281 379.573,-516.395 371.229,-516.281 368.946,-516.096 365.207,-516.35 361.415,-516.89 355.879,-518.092 338.645,-523.119 314.197,-508.856 321.629,-482.11 322.208,-472.2 323.561,-462.199 323.872,-456.839 324.487,-453.826 327.88,-441.614 316.759,-423.267 315.256,-421.112 289.798,-425.654 285.251,-426.056 281.596,-426.05 280.107,-426.171 277.026,-426.146 275.754,-426.24 275.628,-426.26 274.081,-426.366 268.034,-426.232 267.263,-426.144 263.036,-426.022 256.949,-426.866 252.305,-427.901 246.837,-429.579 241.687,-431.585 236.947,-433.815 236.947,-453.762 236.742,-456.345 236.742,-458.34 236.805,-459.137 237.123,-461.149 237.233,-462.554 236.947,-466.168 236.947,-511.054 219.092,-522.536 226.695,-554.955 226.695,-554.955 219.092,-522.536 207.455,-520.811 197.58,-519.747 196.81,-519.757 191.056,-520.07 189.668,-554.138 191.42,-572.737 228.2,-577.528 228.574,-574.848 232.074,-574.757 248.545,-575.469 248.545,-575.469 232.074,-574.757 228.574,-574.848 228.2,-577.528 191.42,-572.737 189.668,-554.138 191.056,-520.07 179.357,-519.665 178.647,-519.698 177.47,-519.801 176.122,-519.799 172.076,-519.957 170.846,-519.951 96.1113,-516.258 93.9166,-520.348 90.9949,-562.501 89.6726,-575.799 86.7484,-594.118 92.0045,-604.401 169.082,-585.712 171.445,-583.048 173.137,-582.203 173.137,-577.725 173.402,-577.455 177.691,-575.291 182.778,-575.291 185.705,-576.697 186.256,-577.275 186.256,-577.275 185.705,-576.697 182.778,-575.291 177.691,-575.291 173.402,-577.455 173.137,-577.725 173.137,-582.203 173.162,-582.226 177.299,-584.206 177.299,-584.206 173.162,-582.226 173.137,-582.203 171.445,-583.048 169.082,-585.712 92.0045,-604.401 125.952,-676.113 159.563,-678.582 174.41,-680.048 180.396,-680.789 192.813,-682.948 191.037,-639.141 191.037,-639.141 192.813,-682.948 194.946,-683.425 211.814,-710.286 272.799,-774.308 276.902,-774.39 294.683,-772.453 308.068,-772.019 318.473,-772.214 319.63,-771.685 362.529,-753.374 402.169,-681.879 415.284,-662.108 417.929,-661.682 446.685,-657.66 467.573,-645.244 454.731,-559.517 454.852,-556.817 454.701,-549.64 454.701,-549.64"/>
<polygon fill="#e8d0d0" stroke="#e8d0d0" points="573.294,-558.038 567.033,-540.886 560.499,-511.19 560.171,-509.955 550.431,-486.23 534.333,-493.944 515.047,-504.417 506.643,-508.233 500.405,-509.931 497.58,-510.445 491.692,-510.993 486.51,-511.009 476.471,-512.78 466.983,-516.097 461.918,-518.288 460.444,-519.171 453.204,-524.165 452.244,-524.911 453.099,-530.618 454.13,-542.559 454.144,-543.262 454.701,-549.64 454.852,-556.817 454.731,-559.517 467.573,-645.244 480.429,-643.277 490.264,-639.782 505.489,-635.256 520.367,-632.152 547.899,-627.232 586.881,-591.112 573.294,-558.038 573.294,-558.038"/>
<polygon fill="#d9d4db" stroke="#d9d4db" points="43.1413,-29.7323 43.2183,-28.5116 44.1661,0.279158 68.6721,39.5232 85.5275,48.6544 116.372,52.7056 124.878,54.0743 135.019,56.0036 156.448,62.6082 160.353,63.9228 185.012,52.0381 185.012,-22.1747 185.498,-29.6944 185.498,-32.0228 185.582,-33.3247 185.067,-41.2681 185.067,-43.6882 185.012,-44.5305 185.012,-56.6466 157.725,-77.2639 147.368,-72.7326 145.975,-72.2502 135.852,-69.6391 129.954,-69.2022 127.118,-69.2522 124.728,-69.0965 120.193,-69.2195 117.538,-69.0723 116.447,-69.1115 116.233,-69.1018 105.897,-67.7805 103.412,-67.0622 57.6624,-50.0204 41.2962,-44.6138 43.1413,-29.7323 43.1413,-29.7323"/>
<polygon fill="#ecb9b9" stroke="#ecb9b9" points="413.476,-460.281 413.656,-462.872 413.656,-474.398 413.425,-477.668 413.425,-485.018 413.476,-485.386 413.476,-507.283 415.517,-508.454 448.009,-522.745 452.244,-524.911 453.204,-524.165 460.444,-519.171 461.918,-518.288 466.983,-516.097 476.471,-512.78 486.51,-511.009 491.692,-510.993 497.58,-510.445 500.405,-509.931 506.643,-508.233 515.047,-504.417 534.333,-493.944 550.431,-486.23 550.662,-484.537 551.574,-470.034 555.889,-445.163 491.809,-438.212 488.613,-438.086 487.887,-438.156 484.624,-438.239 481.277,-438.08 475.012,-438.654 473.613,-438.679 472.294,-438.608 469.246,-438.219 468.462,-438.227 464.973,-438.507 461.358,-438.533 460.948,-438.476 456.223,-438.147 452.736,-438.148 451.342,-438.046 445.123,-438.024 420.234,-436.141 413.476,-443.875 413.476,-460.281 413.476,-460.281"/>
<polygon fill="#ddbec4" stroke="#ddbec4" points="82.2971,-328.119 89.2122,-321.494 91.6043,-318.652 92.6503,-317.57 103.37,-307.225 111.059,-301.489 116.644,-297.727 121.456,-294.842 126.338,-292.28 127.731,-291.653 155.452,-281.188 161.381,-278.483 162.168,-278.063 168.198,-273.831 171.257,-275.517 181.04,-280.187 180.109,-297.905 180.109,-297.905 181.04,-280.187 202.476,-287.163 213.112,-291.41 218.982,-294.158 226.339,-299.173 231.805,-303.296 232.237,-309.295 232.27,-310.547 231.844,-316.833 233.21,-335.258 225.31,-343.466 210.837,-360.263 181.07,-357.941 177.134,-357.992 176.566,-358.051 175.387,-358.075 170.786,-357.784 168.976,-357.835 168.588,-357.813 164.688,-357.95 161.869,-357.815 161.492,-357.831 159.961,-358.035 157.61,-358.153 154.013,-358.033 153.549,-358.059 68.9168,-355.858 65.0375,-345.879 71.3277,-339.184 77.9979,-332.439 78.8293,-331.644 82.2971,-328.119 82.2971,-328.119"/>
<polygon fill="#dccee1" stroke="#dccee1" points="322.208,-472.2 323.561,-462.199 323.872,-456.839 324.487,-453.826 327.88,-441.614 352.437,-441.225 358.033,-441.563 359.713,-441.523 360.727,-441.575 362.962,-441.503 366.018,-441.148 367.171,-441.189 367.399,-441.178 376.54,-441.43 377.851,-441.244 383.927,-441.311 413.476,-443.875 413.476,-460.281 413.656,-462.872 413.656,-474.398 413.425,-477.668 413.425,-485.018 413.476,-485.386 413.476,-507.283 410.488,-508.826 408.084,-509.908 398.145,-513.73 398.052,-513.753 385.352,-516.072 384.233,-516.199 382.218,-516.292 381.668,-516.281 379.573,-516.395 371.229,-516.281 368.946,-516.096 365.207,-516.35 361.415,-516.89 355.879,-518.092 338.645,-523.119 314.197,-508.856 321.629,-482.11 322.208,-472.2 322.208,-472.2"/>
<polygon fill="#efd3c3" stroke="#efd3c3" points="205.042,-419.665 206.566,-418.916 210.837,-416.464 236.947,-433.815 236.947,-453.762 236.742,-456.345 236.742,-458.34 236.805,-459.137 237.123,-461.149 237.233,-462.554 236.947,-466.168 236.947,-511.054 219.092,-522.536 207.455,-520.811 197.58,-519.747 196.81,-519.757 191.056,-520.07 179.357,-519.665 178.647,-519.698 177.47,-519.801 176.122,-519.799 172.076,-519.957 170.846,-519.951 96.1113,-516.258 90.754,-470.536 87.4594,-454.344 127.823,-439.9 154.947,-428.562 155.067,-428.522 162.283,-426.714 162.455,-426.685 168.272,-426.196 175.672,-426.195 176.126,-426.12 177.601,-426 181.631,-426.009 184.595,-425.772 190.881,-424.746 191.992,-424.474 198.935,-422.183 205.042,-419.665 205.042,-419.665"/>
<polygon fill="#cec4cf" stroke="#cec4cf" points="1111.36,-510.337 1116.95,-509.038 1154.38,-501.287 1172.72,-485.644 1184.19,-470.246 1200.19,-434.314 1197.77,-426.899 1191.45,-400.255 1188.32,-390.57 1184.68,-377.981 1151.2,-331.908 1130.68,-326.33 1118.44,-326.54 1103.18,-326.426 1099.38,-326.025 1088.27,-324.576 1072.86,-321.422 1065.97,-319.675 1052.81,-316.02 992.914,-321.185 934.964,-276.755 912.157,-289.51 899.598,-295.964 884.524,-302.672 881.629,-303.825 863.544,-309.788 852.471,-312.416 850.494,-312.839 835.889,-314.966 829.944,-315.694 812.812,-316.606 812.639,-316.607 811.973,-316.566 804.913,-317.85 788.344,-320.066 779.172,-320.625 771.742,-320.537 766.35,-320.343 761.425,-320.046 754.858,-319.491 749.512,-318.91 746.304,-318.406 736.289,-316.346 727.637,-314.146 716.984,-310.92 709.003,-307.924 706.864,-307.016 695.753,-312.995 692.344,-314.546 680.126,-319.777 672.559,-322.39 664.448,-324.969 650.05,-329.144 648.2,-331.513 642.972,-338.639 635.703,-350.019 610.926,-392.086 596.201,-414.981 593.364,-418.6 610.979,-432.959 613.44,-435.309 618.285,-439.591 618.421,-439.701 621.2,-441.769 635.159,-451.232 635.426,-451.392 636.775,-452.104 636.795,-452.114 648.271,-456.618 656.538,-458.687 661.409,-459.557 663.763,-459.809 665.897,-459.887 667.113,-460.015 668.636,-460.069 674.546,-459.857 676.592,-459.638 677.604,-459.6 680.047,-459.675 681.6,-459.503 683.84,-459.41 688.631,-459.539 689.816,-459.487 693.389,-459.575 693.41,-459.577 696.133,-459.639 697.485,-459.763 699.057,-459.795 699.444,-459.83 705.28,-459.939 706.872,-459.856 708.091,-459.706 709.583,-459.625 717.615,-460.299 724.611,-461.368 727.164,-462.108 735.522,-465.121 736.347,-465.474 744.527,-469.547 747.537,-471.246 750.246,-472.956 752.651,-474.637 753.926,-473.8 760.667,-469.807 763.211,-468.629 769.648,-466.047 775.41,-464.105 778.383,-463.295 779.469,-463.069 786.706,-462.021 790.011,-461.754 796.039,-461.655 796.567,-461.68 796.658,-461.673 800.029,-461.608 804.466,-461.809 808.237,-461.732 809.047,-461.82 809.247,-461.828 815.049,-461.694 817.329,-461.491 817.134,-455.639 812.84,-417.515 811.347,-417.515 809.929,-417.292 809.929,-417.292 811.347,-417.515 812.84,-417.515 817.134,-455.639 817.329,-461.491 820.455,-461.616 822.566,-461.562 823.136,-461.51 828.091,-461.696 831.887,-461.588 834.238,-461.673 835.286,-461.641 835.979,-461.575 840.029,-461.45 842.266,-461.525 843.667,-461.48 844.539,-461.507 851.778,-462.201 852.097,-462.252 856.057,-463.139 861.893,-464.83 869.262,-467.444 868.883,-440.989 872.993,-417.155 872.201,-417.032 872.201,-417.032 872.993,-417.155 868.883,-440.989 869.262,-467.444 875.495,-470.454 886.547,-477.242 892.962,-481.989 893.831,-482.744 902.208,-489.394 918.613,-505.412 919.284,-506.104 928.659,-514.683 992.259,-488.244 1048.86,-520.513 1071.83,-520.113 1080.01,-520.145 1080.98,-520.211 1082.93,-519.416 1093.12,-515.514 1093.41,-515.423 1103.2,-417.595 1102.16,-417.359 1101.15,-417.359 1097.79,-414.227 1094.03,-412.548 1090.85,-412.548 1090.85,-412.548 1094.03,-412.548 1097.79,-414.227 1101.15,-417.359 1102.16,-417.359 1103.2,-417.595 1093.41,-515.423 1111.36,-510.337 1111.36,-510.337"/>
<polygon fill="#c9e7c9" stroke="#c9e7c9" points="840.029,-461.45 842.266,-461.525 843.667,-461.48 844.539,-461.507 851.778,-462.201 852.097,-462.252 856.057,-463.139 861.893,-464.83 869.262,-467.444 875.495,-470.454 886.547,-477.242 892.962,-481.989 893.831,-482.744 902.208,-489.394 918.613,-505.412 919.284,-506.104 928.659,-514.683 925.035,-520.878 888.332,-587.757 864.188,-592.387 844.909,-588.405 832.774,-586.234 823.627,-585.366 808.058,-584.76 800.543,-585.098 798.381,-585.317 794.638,-585.799 755.377,-584.821 751.609,-586.869 715.079,-598.809 707.88,-600.131 690.751,-604.599 687.282,-605.768 680.196,-602.567 668.202,-598.151 658.984,-595.274 655.016,-594.259 648.708,-592.822 643.713,-591.824 639.453,-591.212 626.135,-590.036 617.962,-589.773 613.222,-589.753 586.881,-591.112 573.294,-558.038 567.033,-540.886 560.499,-511.19 560.171,-509.955 550.431,-486.23 550.662,-484.537 551.574,-470.034 555.889,-445.163 570.108,-424.837 593.364,-418.6 610.979,-432.959 613.44,-435.309 618.285,-439.591 618.421,-439.701 621.2,-441.769 635.159,-451.232 635.426,-451.392 636.775,-452.104 636.795,-452.114 648.271,-456.618 656.538,-458.687 661.409,-459.557 663.763,-459.809 665.897,-459.887 667.113,-460.015 668.636,-460.069 674.546,-459.857 676.592,-459.638 677.604,-459.6 680.047,-459.675 681.6,-459.503 683.84,-459.41 688.631,-459.539 689.816,-459.487 693.389,-459.575 693.41,-459.577 696.133,-459.639 697.485,-459.763 699.057,-459.795 699.444,-459.83 705.28,-459.939 706.872,-459.856 708.091,-459.706 709.583,-459.625 717.615,-460.299 724.611,-461.368 727.164,-462.108 735.522,-465.121 736.347,-465.474 744.527,-469.547 747.537,-471.246 750.246,-472.956 752.651,-474.637 753.926,-473.8 760.667,-469.807 763.211,-468.629 769.648,-466.047 775.41,-464.105 778.383,-463.295 779.469,-463.069 786.706,-462.021 790.011,-461.754 796.039,-461.655 796.567,-461.68 796.658,-461.673 800.029,-461.608 804.466,-461.809 808.237,-461.732 809.047,-461.82 809.247,-461.828 815.049,-461.694 817.329,-461.491 820.455,-461.616 819.794,-497.536 824.298,-499.558 827.046,-501.975 826.451,-502.839 825.381,-503.784 818.872,-506.918 816.827,-506.918 816.827,-506.918 818.872,-506.918 825.381,-503.784 826.451,-502.839 827.046,-501.975 824.298,-499.558 819.794,-497.536 820.455,-461.616 822.566,-461.562 823.136,-461.51 828.091,-461.696 831.887,-461.588 834.238,-461.673 835.286,-461.641 835.979,-461.575 840.029,-461.45 840.029,-461.45"/>
<polygon fill="#cde8c7" stroke="#cde8c7" points="1065.55,-62.5237 1068.24,-31.7066 1070.14,-15.3821 1063.46,-3.21224 1030.11,26.4831 988.981,28.2569 979.492,28.9277 972.654,29.9772 964.756,31.4083 955.185,33.4063 940.54,36.8604 904.372,34.4233 903.468,33.9735 901.035,-35.7756 901.046,-40.3243 900.282,-61.1273 900.288,-65.9755 895.8,-65.8631 865.524,-67.5577 865.524,-67.5577 895.8,-65.8631 900.288,-65.9755 900.282,-61.1273 901.046,-40.3243 901.035,-35.7756 903.468,33.9735 842.277,43.3319 835.092,44.5972 831.721,45.3466 825.364,43.4384 811.183,40.2083 803.072,38.7562 802.508,38.6826 789.184,37.5862 784.295,37.4211 778.991,35.5692 768.602,32.7866 762.126,31.2289 754.247,29.9748 740.469,28.5261 735.781,28.2881 722.259,28.6992 714.794,29.3298 714.186,29.3976 711.447,29.7769 696.634,32.6365 692.426,33.5613 691.999,33.6781 676.32,38.8271 669.534,41.605 667.092,40.7789 665.135,40.1669 663.201,-32.974 660.188,-50.6339 660.188,-50.6339 663.201,-32.974 665.135,40.1669 649.11,35.9692 624.386,30.1379 574.659,13.9302 572.481,3.74828 570.863,-4.79461 581.356,-55.2383 582.94,-83.1589 583.136,-84.4513 583.588,-88.2164 583.936,-88.5456 651.637,-148.93 654.988,-151.741 664.24,-159.923 665.394,-161.098 677.496,-164.514 685.468,-167.154 698.484,-172.757 700.523,-171.781 712.655,-166.873 715.173,-165.917 721.111,-163.96 733.047,-160.32 734.599,-159.925 740.533,-158.562 752.474,-156.706 760.129,-156.085 774.049,-155.303 776.415,-155.346 778.185,-155.467 793.5,-152.503 801.241,-151.617 815.799,-151.096 820.65,-151.177 826.077,-151.552 828.111,-60.3436 824.66,-60.3436 823.457,-60.1566 819.098,-60.1566 818.529,-60.0689 817.207,-60.0689 817.194,-60.0669 817.194,-60.0669 817.207,-60.0689 818.529,-60.0689 819.098,-60.1566 823.457,-60.1566 824.66,-60.3436 828.111,-60.3436 826.077,-151.552 838.805,-152.768 903.809,-164.071 932.725,-190.172 955.781,-176.17 962.501,-172.274 971.291,-167.424 978.621,-163.591 986.313,-160.011 1033.94,-140.569 1051.41,-130.915 1051.66,-130.473 1061.51,-82.2803 1065.46,-65.6232 1065.55,-62.5237 1065.55,-62.5237"/>
<polyline fill="none" stroke="#000000" points="322.277,-367.789 320.879,-366.864 311.704,-361.419 298.383,-356.315 298.222,-356.265 295.291,-355.566 290.869,-354.822 281.466,-354.552 281.099,-354.515 276.616,-354.375 270.748,-353.764 269.879,-353.611 268.861,-353.357 259.364,-350.27 255.32,-348.663 253.14,-347.639 245.033,-343.23 235.469,-336.65 233.21,-335.258 231.844,-316.833 232.27,-310.547 232.237,-309.295 231.805,-303.296 234.305,-300.932 243.982,-293.341 279.012,-271.593 292.263,-262.314 293.583,-261.205 293.717,-261.083 298.049,-257.488 310.83,-245.041 312.915,-243.283 316.565,-239.336 308.939,-231.603 307.909,-230.691 301.657,-225.878 299.924,-224.424 295.161,-220.733 286.645,-215.191 248.108,-192.595 245.731,-191.034 243.822,-173.815 243.86,-173.101 243.84,-162.555 243.845,-162.46 243.097,-149.274 243.079,-149.112 262.852,-118.797 276.968,-99.6215 281.197,-94.7839 289.698,-92.2434 294.261,-90.534 295.83,-89.8244 301.545,-75.9793 307.077,-58.9268 355.066,-53.0624 359.184,-52.9171 362.456,-53.0875 365.784,-52.7246 370.724,-52.6227 373.917,-52.8367 373.95,-52.8337 375.157,-52.827 377.274,-52.6459 386.889,-52.664 389.4,-52.2716 394.182,-51.1415 399.741,-49.3835 409.849,-44.5465 411.363,-43.706 439.763,-61.8262 443.382,-59.7286 449.513,-56.695 453.597,-55.0312 458.379,-53.4973 461.216,-52.8338 465.003,-52.2716 467.105,-52.1395 473.373,-52.2865 477.389,-52.0233 478.026,-52.0368 479.855,-51.9145 488.675,-50.537 497.053,-47.7377 502.149,-45.5926 509.981,-40.9134 535.713,-23.3237 570.863,-4.79461 581.356,-55.2383 582.94,-83.1589 583.136,-84.4513 583.588,-88.2164 583.936,-88.5456 651.637,-148.93 654.988,-151.741 664.24,-159.923 665.394,-161.098 677.496,-164.514 685.468,-167.154 698.484,-172.757 699.109,-240.037 702.271,-271.588 706.864,-307.016 695.753,-312.995 692.344,-314.546 680.126,-319.777 672.559,-322.39 664.448,-324.969 650.05,-329.144 648.2,-331.513 642.972,-338.639 635.703,-350.019 610.926,-392.086 596.201,-414.981 593.364,-418.6 570.108,-424.837 555.889,-445.163 491.809,-438.212 488.613,-438.086 487.887,-438.156 484.624,-438.239 481.277,-438.08 475.012,-438.654 473.613,-438.679 472.294,-438.608 469.246,-438.219 468.462,-438.227 464.973,-438.507 461.358,-438.533 460.948,-438.476 456.223,-438.147 452.736,-438.148 451.342,-438.046 445.123,-438.024 420.234,-436.141 413.476,-443.875 383.927,-441.311 377.851,-441.244 376.54,-441.43 367.399,-441.178 367.171,-441.189 366.018,-441.148 362.962,-441.503 360.727,-441.575 359.713,-441.523 358.033,-441.563 352.437,-441.225 327.88,-441.614 316.759,-423.267 315.256,-421.112 316.803,-409.366 318.538,-400.79 318.757,-397.442 318.751,-391.694 321.093,-373.895 322.277,-367.789 "/>
<polyline fill="none" stroke="#000000" points="218.982,-294.158 213.112,-291.41 202.476,-287.163 181.04,-280.187 171.257,-275.517 168.198,-273.831 162.168,-278.063 161.381,-278.483 155.452,-281.188 127.731,-291.653 126.338,-292.28 121.456,-294.842 116.644,-297.727 111.059,-301.489 103.37,-307.225 92.6503,-317.57 91.6043,-318.652 89.2122,-321.494 82.2971,-328.119 78.8293,-331.644 77.9979,-332.439 71.3277,-339.184 65.0375,-345.879 64.7583,-345.715 59.0576,-342.892 53.1376,-340.139 49.3927,-338.511 45.5306,-336.95 -25.6091,-310.335 -26.4128,-308.016 -34.3906,-253.316 -37.6474,-240.922 -36.212,-230.321 -35.7961,-226.449 -30.264,-156.954 -3.03494,-137.365 42.778,-158.677 49.8353,-161.72 56.6285,-164.415 60.3343,-165.755 69.9782,-168.25 74.0677,-169.167 81.9576,-170.663 82.2799,-170.702 96.1504,-171.893 97.4378,-171.959 99.1941,-172.109 100.894,-172.136 108.146,-172.001 108.95,-172.014 110.959,-173.951 112.033,-174.915 114.544,-177.011 115.051,-177.551 118.069,-180.541 125.916,-187.709 127.727,-189.214 167.822,-219.387 172.046,-216.794 175.621,-214.867 179.859,-212.898 190.185,-209.604 195.076,-208.417 195.796,-208.297 200.318,-207.878 203.734,-207.816 211.878,-207.025 224.986,-203.678 226.206,-203.183 231.276,-200.725 235.108,-198.566 237.329,-197.137 245.731,-191.034 248.108,-192.595 286.645,-215.191 295.161,-220.733 299.924,-224.424 301.657,-225.878 307.909,-230.691 308.939,-231.603 316.565,-239.336 312.915,-243.283 310.83,-245.041 298.049,-257.488 293.717,-261.083 293.583,-261.205 292.263,-262.314 279.012,-271.593 243.982,-293.341 234.305,-300.932 231.805,-303.296 226.339,-299.173 218.982,-294.158 "/>
<polyline fill="none" stroke="#000000" points="155.067,-428.522 154.947,-428.562 127.823,-439.9 87.4594,-454.344 75.5568,-435.29 73.0448,-397.53 72.5893,-392.771 72.1013,-388.862 70.9548,-382.61 68.9168,-355.858 153.549,-358.059 154.013,-358.033 157.61,-358.153 159.961,-358.035 161.492,-357.831 161.869,-357.815 164.688,-357.95 168.588,-357.813 168.976,-357.835 170.786,-357.784 175.387,-358.075 176.566,-358.051 177.134,-357.992 181.07,-357.941 210.837,-360.263 210.837,-376.906 211.272,-382.768 210.447,-393.634 210.447,-396.379 210.792,-400.999 210.837,-401.301 210.837,-416.464 206.566,-418.916 205.042,-419.665 198.935,-422.183 191.992,-424.474 190.881,-424.746 184.595,-425.772 181.631,-426.009 177.601,-426 176.126,-426.12 175.672,-426.195 168.272,-426.196 162.455,-426.685 162.283,-426.714 155.067,-428.522 "/>
<polyline fill="none" stroke="#000000" points="194.602,-137.038 193.432,-136.895 188.959,-136.746 185.747,-136.924 178.942,-136.163 174.144,-135.23 171.962,-134.627 157.725,-129.508 157.725,-118.985 157.487,-115.901 157.487,-100.579 157.872,-98.0955 157.918,-97.4848 157.725,-94.9302 157.725,-77.2639 185.012,-56.6466 188.36,-58.836 195.232,-62.7407 198.929,-64.5104 203.486,-66.2897 213.86,-68.5444 222.826,-68.9047 223.156,-68.9449 227.475,-69.0885 232.055,-69.6104 232.432,-69.6834 235.611,-70.5604 244.204,-73.6536 253.712,-78.6405 274.271,-91.0165 281.197,-94.7839 276.968,-99.6215 262.852,-118.797 243.079,-149.112 218.963,-139.501 216.016,-138.59 213.05,-137.932 206.296,-137.018 203.347,-136.879 202.934,-136.824 201.045,-136.743 194.602,-137.038 "/>
<polyline fill="none" stroke="#000000" points="179.859,-212.898 190.185,-209.604 195.076,-208.417 195.796,-208.297 200.318,-207.878 203.734,-207.816 211.878,-207.025 224.986,-203.678 226.206,-203.183 231.276,-200.725 235.108,-198.566 237.329,-197.137 245.731,-191.034 243.822,-173.815 243.86,-173.101 243.84,-162.555 243.845,-162.46 243.097,-149.274 243.079,-149.112 218.963,-139.501 216.016,-138.59 213.05,-137.932 206.296,-137.018 203.347,-136.879 202.934,-136.824 201.045,-136.743 194.602,-137.038 193.432,-136.895 188.959,-136.746 185.747,-136.924 178.942,-136.163 174.144,-135.23 171.962,-134.627 157.725,-129.508 126.593,-155.459 125.3,-156.426 112.725,-167.77 108.95,-172.014 110.959,-173.951 112.033,-174.915 114.544,-177.011 115.051,-177.551 118.069,-180.541 125.916,-187.709 127.727,-189.214 167.822,-219.387 172.046,-216.794 175.621,-214.867 179.859,-212.898 "/>
<polyline fill="none" stroke="#000000" points="232.055,-69.6104 232.432,-69.6834 235.611,-70.5604 244.204,-73.6536 253.712,-78.6405 274.271,-91.0165 281.197,-94.7839 289.698,-92.2434 294.261,-90.534 295.83,-89.8244 301.545,-75.9793 307.077,-58.9268 305.03,-46.7929 303.154,-23.472 303.166,-22.2748 301,-4.91282 291.093,53.8055 248.643,50.1001 241.247,49.8505 227.987,50.4694 225.612,50.6439 219.702,51.2364 217.256,51.233 185.012,52.0381 185.012,-22.1747 185.498,-29.6944 185.498,-32.0228 185.582,-33.3247 185.067,-41.2681 185.067,-43.6882 185.012,-44.5305 185.012,-56.6466 188.36,-58.836 195.232,-62.7407 198.929,-64.5104 203.486,-66.2897 213.86,-68.5444 222.826,-68.9047 223.156,-68.9449 227.475,-69.0885 232.055,-69.6104 "/>
<polyline fill="none" stroke="#000000" points="362.456,-53.0875 359.184,-52.9171 355.066,-53.0624 307.077,-58.9268 305.03,-46.7929 303.154,-23.472 303.166,-22.2748 301,-4.91282 291.093,53.8055 328.377,85.3455 341.72,92.2072 354.267,90.2189 370.074,88.445 383.083,87.8931 390.001,87.7606 411.363,82.3448 411.363,-9.03034 410.743,-13.1959 411.784,-26.9074 411.363,-32.5727 411.363,-43.706 409.849,-44.5465 399.741,-49.3835 394.182,-51.1415 389.4,-52.2716 386.889,-52.664 377.274,-52.6459 375.157,-52.827 373.95,-52.8337 373.917,-52.8367 370.724,-52.6227 365.784,-52.7246 362.456,-53.0875 "/>
<polyline fill="none" stroke="#000000" points="256.949,-426.866 263.036,-426.022 267.263,-426.144 268.034,-426.232 274.081,-426.366 275.628,-426.26 275.754,-426.24 277.026,-426.146 280.107,-426.171 281.596,-426.05 285.251,-426.056 289.798,-425.654 315.256,-421.112 316.803,-409.366 318.538,-400.79 318.757,-397.442 318.751,-391.694 321.093,-373.895 322.277,-367.789 320.879,-366.864 311.704,-361.419 298.383,-356.315 298.222,-356.265 295.291,-355.566 290.869,-354.822 281.466,-354.552 281.099,-354.515 276.616,-354.375 270.748,-353.764 269.879,-353.611 268.861,-353.357 259.364,-350.27 255.32,-348.663 253.14,-347.639 245.033,-343.23 235.469,-336.65 233.21,-335.258 225.31,-343.466 210.837,-360.263 210.837,-376.906 211.272,-382.768 210.447,-393.634 210.447,-396.379 210.792,-400.999 210.837,-401.301 210.837,-416.464 236.947,-433.815 241.687,-431.585 246.837,-429.579 252.305,-427.901 256.949,-426.866 "/>
<polyline fill="none" stroke="#000000" points="453.597,-55.0312 458.379,-53.4973 461.216,-52.8338 465.003,-52.2716 467.105,-52.1395 473.373,-52.2865 477.389,-52.0233 478.026,-52.0368 479.855,-51.9145 488.675,-50.537 497.053,-47.7377 502.149,-45.5926 509.981,-40.9134 535.713,-23.3237 570.863,-4.79461 572.481,3.74828 574.659,13.9302 559.017,30.5302 507.551,59.0471 476.783,66.0768 459.219,71.1674 452.857,73.5824 445.384,76.6448 430.145,83.8041 411.363,82.3448 411.363,-9.03034 410.743,-13.1959 411.784,-26.9074 411.363,-32.5727 411.363,-43.706 439.763,-61.8262 443.382,-59.7286 449.513,-56.695 453.597,-55.0312 "/>
<polyline fill="none" stroke="#000000" points="112.725,-167.77 125.3,-156.426 126.593,-155.459 157.725,-129.508 157.725,-118.985 157.487,-115.901 157.487,-100.579 157.872,-98.0955 157.918,-97.4848 157.725,-94.9302 157.725,-77.2639 147.368,-72.7326 145.975,-72.2502 135.852,-69.6391 129.954,-69.2022 127.118,-69.2522 124.728,-69.0965 120.193,-69.2195 117.538,-69.0723 116.447,-69.1115 116.233,-69.1018 105.897,-67.7805 103.412,-67.0622 57.6624,-50.0204 41.2962,-44.6138 22.0511,-79.0519 13.2496,-97.1833 6.77568,-108.916 3.20886,-114.697 -3.03494,-137.365 42.778,-158.677 49.8353,-161.72 56.6285,-164.415 60.3343,-165.755 69.9782,-168.25 74.0677,-169.167 81.9576,-170.663 82.2799,-170.702 96.1504,-171.893 97.4378,-171.959 99.1941,-172.109 100.894,-172.136 108.146,-172.001 108.95,-172.014 112.725,-167.77 "/>
<polyline fill="none" stroke="#000000" points="321.629,-482.11 322.208,-472.2 323.561,-462.199 323.872,-456.839 324.487,-453.826 327.88,-441.614 316.759,-423.267 315.256,-421.112 289.798,-425.654 285.251,-426.056 281.596,-426.05 280.107,-426.171 277.026,-426.146 275.754,-426.24 275.628,-426.26 274.081,-426.366 268.034,-426.232 267.263,-426.144 263.036,-426.022 256.949,-426.866 252.305,-427.901 246.837,-429.579 241.687,-431.585 236.947,-433.815 236.947,-453.762 236.742,-456.345 236.742,-458.34 236.805,-459.137 237.123,-461.149 237.233,-462.554 236.947,-466.168 236.947,-511.054 219.092,-522.536 207.455,-520.811 197.58,-519.747 196.81,-519.757 191.056,-520.07 179.357,-519.665 178.647,-519.698 177.47,-519.801 176.122,-519.799 172.076,-519.957 170.846,-519.951 96.1113,-516.258 93.9166,-520.348 90.9949,-562.501 89.6726,-575.799 86.7484,-594.118 92.0045,-604.401 125.952,-676.113 159.563,-678.582 174.41,-680.048 180.396,-680.789 192.813,-682.948 194.946,-683.425 211.814,-710.286 272.799,-774.308 276.902,-774.39 294.683,-772.453 308.068,-772.019 318.473,-772.214 319.63,-771.685 362.529,-753.374 402.169,-681.879 415.284,-662.108 417.929,-661.682 446.685,-657.66 467.573,-645.244 454.731,-559.517 454.852,-556.817 454.701,-549.64 454.144,-543.262 454.13,-542.559 453.099,-530.618 452.244,-524.911 448.009,-522.745 415.517,-508.454 413.476,-507.283 410.488,-508.826 408.084,-509.908 398.145,-513.73 398.052,-513.753 385.352,-516.072 384.233,-516.199 382.218,-516.292 381.668,-516.281 379.573,-516.395 371.229,-516.281 368.946,-516.096 365.207,-516.35 361.415,-516.89 355.879,-518.092 338.645,-523.119 314.197,-508.856 321.629,-482.11 "/>
<polyline fill="none" stroke="#000000" points="490.264,-639.782 480.429,-643.277 467.573,-645.244 454.731,-559.517 454.852,-556.817 454.701,-549.64 454.144,-543.262 454.13,-542.559 453.099,-530.618 452.244,-524.911 453.204,-524.165 460.444,-519.171 461.918,-518.288 466.983,-516.097 476.471,-512.78 486.51,-511.009 491.692,-510.993 497.58,-510.445 500.405,-509.931 506.643,-508.233 515.047,-504.417 534.333,-493.944 550.431,-486.23 560.171,-509.955 560.499,-511.19 567.033,-540.886 573.294,-558.038 586.881,-591.112 547.899,-627.232 520.367,-632.152 505.489,-635.256 490.264,-639.782 "/>
<polyline fill="none" stroke="#000000" points="127.118,-69.2522 124.728,-69.0965 120.193,-69.2195 117.538,-69.0723 116.447,-69.1115 116.233,-69.1018 105.897,-67.7805 103.412,-67.0622 57.6624,-50.0204 41.2962,-44.6138 43.1413,-29.7323 43.2183,-28.5116 44.1661,0.279158 68.6721,39.5232 85.5275,48.6544 116.372,52.7056 124.878,54.0743 135.019,56.0036 156.448,62.6082 160.353,63.9228 185.012,52.0381 185.012,-22.1747 185.498,-29.6944 185.498,-32.0228 185.582,-33.3247 185.067,-41.2681 185.067,-43.6882 185.012,-44.5305 185.012,-56.6466 157.725,-77.2639 147.368,-72.7326 145.975,-72.2502 135.852,-69.6391 129.954,-69.2022 127.118,-69.2522 "/>
<polyline fill="none" stroke="#000000" points="460.444,-519.171 453.204,-524.165 452.244,-524.911 448.009,-522.745 415.517,-508.454 413.476,-507.283 413.476,-485.386 413.425,-485.018 413.425,-477.668 413.656,-474.398 413.656,-462.872 413.476,-460.281 413.476,-443.875 420.234,-436.141 445.123,-438.024 451.342,-438.046 452.736,-438.148 456.223,-438.147 460.948,-438.476 461.358,-438.533 464.973,-438.507 468.462,-438.227 469.246,-438.219 472.294,-438.608 473.613,-438.679 475.012,-438.654 481.277,-438.08 484.624,-438.239 487.887,-438.156 488.613,-438.086 491.809,-438.212 555.889,-445.163 551.574,-470.034 550.662,-484.537 550.431,-486.23 534.333,-493.944 515.047,-504.417 506.643,-508.233 500.405,-509.931 497.58,-510.445 491.692,-510.993 486.51,-511.009 476.471,-512.78 466.983,-516.097 461.918,-518.288 460.444,-519.171 "/>
<polyline fill="none" stroke="#000000" points="161.492,-357.831 159.961,-358.035 157.61,-358.153 154.013,-358.033 153.549,-358.059 68.9168,-355.858 65.0375,-345.879 71.3277,-339.184 77.9979,-332.439 78.8293,-331.644 82.2971,-328.119 89.2122,-321.494 91.6043,-318.652 92.6503,-317.57 103.37,-307.225 111.059,-301.489 116.644,-297.727 121.456,-294.842 126.338,-292.28 127.731,-291.653 155.452,-281.188 161.381,-278.483 162.168,-278.063 168.198,-273.831 171.257,-275.517 181.04,-280.187 202.476,-287.163 213.112,-291.41 218.982,-294.158 226.339,-299.173 231.805,-303.296 232.237,-309.295 232.27,-310.547 231.844,-316.833 233.21,-335.258 225.31,-343.466 210.837,-360.263 181.07,-357.941 177.134,-357.992 176.566,-358.051 175.387,-358.075 170.786,-357.784 168.976,-357.835 168.588,-357.813 164.688,-357.95 161.869,-357.815 161.492,-357.831 "/>
<polyline fill="none" stroke="#000000" points="365.207,-516.35 368.946,-516.096 371.229,-516.281 379.573,-516.395 381.668,-516.281 382.218,-516.292 384.233,-516.199 385.352,-516.072 398.052,-513.753 398.145,-513.73 408.084,-509.908 410.488,-508.826 413.476,-507.283 413.476,-485.386 413.425,-485.018 413.425,-477.668 413.656,-474.398 413.656,-462.872 413.476,-460.281 413.476,-443.875 383.927,-441.311 377.851,-441.244 376.54,-441.43 367.399,-441.178 367.171,-441.189 366.018,-441.148 362.962,-441.503 360.727,-441.575 359.713,-441.523 358.033,-441.563 352.437,-441.225 327.88,-441.614 324.487,-453.826 323.872,-456.839 323.561,-462.199 322.208,-472.2 321.629,-482.11 314.197,-508.856 338.645,-523.119 355.879,-518.092 361.415,-516.89 365.207,-516.35 "/>
<polyline fill="none" stroke="#000000" points="179.357,-519.665 191.056,-520.07 196.81,-519.757 197.58,-519.747 207.455,-520.811 219.092,-522.536 236.947,-511.054 236.947,-466.168 237.233,-462.554 237.123,-461.149 236.805,-459.137 236.742,-458.34 236.742,-456.345 236.947,-453.762 236.947,-433.815 210.837,-416.464 206.566,-418.916 205.042,-419.665 198.935,-422.183 191.992,-424.474 190.881,-424.746 184.595,-425.772 181.631,-426.009 177.601,-426 176.126,-426.12 175.672,-426.195 168.272,-426.196 162.455,-426.685 162.283,-426.714 155.067,-428.522 154.947,-428.562 127.823,-439.9 87.4594,-454.344 90.754,-470.536 96.1113,-516.258 170.846,-519.951 172.076,-519.957 176.122,-519.799 177.47,-519.801 178.647,-519.698 179.357,-519.665 "/>
<polyline fill="none" stroke="#000000" points="778.383,-463.295 779.469,-463.069 786.706,-462.021 790.011,-461.754 796.039,-461.655 796.567,-461.68 796.658,-461.673 800.029,-461.608 804.466,-461.809 808.237,-461.732 809.047,-461.82 809.247,-461.828 815.049,-461.694 817.329,-461.491 820.455,-461.616 822.566,-461.562 823.136,-461.51 828.091,-461.696 831.887,-461.588 834.238,-461.673 835.286,-461.641 835.979,-461.575 840.029,-461.45 842.266,-461.525 843.667,-461.48 844.539,-461.507 851.778,-462.201 852.097,-462.252 856.057,-463.139 861.893,-464.83 869.262,-467.444 875.495,-470.454 886.547,-477.242 892.962,-481.989 893.831,-482.744 902.208,-489.394 918.613,-505.412 919.284,-506.104 928.659,-514.683 992.259,-488.244 1048.86,-520.513 1071.83,-520.113 1080.01,-520.145 1080.98,-520.211 1082.93,-519.416 1093.12,-515.514 1093.41,-515.423 1111.36,-510.337 1116.95,-509.038 1154.38,-501.287 1172.72,-485.644 1184.19,-470.246 1200.19,-434.314 1197.77,-426.899 1191.45,-400.255 1188.32,-390.57 1184.68,-377.981 1151.2,-331.908 1130.68,-326.33 1118.44,-326.54 1103.18,-326.426 1099.38,-326.025 1088.27,-324.576 1072.86,-321.422 1065.97,-319.675 1052.81,-316.02 992.914,-321.185 934.964,-276.755 912.157,-289.51 899.598,-295.964 884.524,-302.672 881.629,-303.825 863.544,-309.788 852.471,-312.416 850.494,-312.839 835.889,-314.966 829.944,-315.694 812.812,-316.606 812.639,-316.607 811.973,-316.566 804.913,-317.85 788.344,-320.066 779.172,-320.625 771.742,-320.537 766.35,-320.343 761.425,-320.046 754.858,-319.491 749.512,-318.91 746.304,-318.406 736.289,-316.346 727.637,-314.146 716.984,-310.92 709.003,-307.924 706.864,-307.016 695.753,-312.995 692.344,-314.546 680.126,-319.777 672.559,-322.39 664.448,-324.969 650.05,-329.144 648.2,-331.513 642.972,-338.639 635.703,-350.019 610.926,-392.086 596.201,-414.981 593.364,-418.6 610.979,-432.959 613.44,-435.309 618.285,-439.591 618.421,-439.701 621.2,-441.769 635.159,-451.232 635.426,-451.392 636.775,-452.104 636.795,-452.114 648.271,-456.618 656.538,-458.687 661.409,-459.557 663.763,-459.809 665.897,-459.887 667.113,-460.015 668.636,-460.069 674.546,-459.857 676.592,-459.638 677.604,-459.6 680.047,-459.675 681.6,-459.503 683.84,-459.41 688.631,-459.539 689.816,-459.487 693.389,-459.575 693.41,-459.577 696.133,-459.639 697.485,-459.763 699.057,-459.795 699.444,-459.83 705.28,-459.939 706.872,-459.856 708.091,-459.706 709.583,-459.625 717.615,-460.299 724.611,-461.368 727.164,-462.108 735.522,-465.121 736.347,-465.474 744.527,-469.547 747.537,-471.246 750.246,-472.956 752.651,-474.637 753.926,-473.8 760.667,-469.807 763.211,-468.629 769.648,-466.047 775.41,-464.105 778.383,-463.295 "/>
<polyline fill="none" stroke="#000000" points="643.713,-591.824 639.453,-591.212 626.135,-590.036 617.962,-589.773 613.222,-589.753 586.881,-591.112 573.294,-558.038 567.033,-540.886 560.499,-511.19 560.171,-509.955 550.431,-486.23 550.662,-484.537 551.574,-470.034 555.889,-445.163 570.108,-424.837 593.364,-418.6 610.979,-432.959 613.44,-435.309 618.285,-439.591 618.421,-439.701 621.2,-441.769 635.159,-451.232 635.426,-451.392 636.775,-452.104 636.795,-452.114 648.271,-456.618 656.538,-458.687 661.409,-459.557 663.763,-459.809 665.897,-459.887 667.113,-460.015 668.636,-460.069 674.546,-459.857 676.592,-459.638 677.604,-459.6 680.047,-459.675 681.6,-459.503 683.84,-459.41 688.631,-459.539 689.816,-459.487 693.389,-459.575 693.41,-459.577 696.133,-459.639 697.485,-459.763 699.057,-459.795 699.444,-459.83 705.28,-459.939 706.872,-459.856 708.091,-459.706 709.583,-459.625 717.615,-460.299 724.611,-461.368 727.164,-462.108 735.522,-465.121 736.347,-465.474 744.527,-469.547 747.537,-471.246 750.246,-472.956 752.651,-474.637 753.926,-473.8 760.667,-469.807 763.211,-468.629 769.648,-466.047 775.41,-464.105 778.383,-463.295 779.469,-463.069 786.706,-462.021 790.011,-461.754 796.039,-461.655 796.567,-461.68 796.658,-461.673 800.029,-461.608 804.466,-461.809 808.237,-461.732 809.047,-461.82 809.247,-461.828 815.049,-461.694 817.329,-461.491 820.455,-461.616 822.566,-461.562 823.136,-461.51 828.091,-461.696 831.887,-461.588 834.238,-461.673 835.286,-461.641 835.979,-461.575 840.029,-461.45 842.266,-461.525 843.667,-461.48 844.539,-461.507 851.778,-462.201 852.097,-462.252 856.057,-463.139 861.893,-464.83 869.262,-467.444 875.495,-470.454 886.547,-477.242 892.962,-481.989 893.831,-482.744 902.208,-489.394 918.613,-505.412 919.284,-506.104 928.659,-514.683 925.035,-520.878 888.332,-587.757 864.188,-592.387 844.909,-588.405 832.774,-586.234 823.627,-585.366 808.058,-584.76 800.543,-585.098 798.381,-585.317 794.638,-585.799 755.377,-584.821 751.609,-586.869 715.079,-598.809 707.88,-600.131 690.751,-604.599 687.282,-605.768 680.196,-602.567 668.202,-598.151 658.984,-595.274 655.016,-594.259 648.708,-592.822 643.713,-591.824 "/>
<polyline fill="none" stroke="#000000" points="740.533,-158.562 752.474,-156.706 760.129,-156.085 774.049,-155.303 776.415,-155.346 778.185,-155.467 793.5,-152.503 801.241,-151.617 815.799,-151.096 820.65,-151.177 826.077,-151.552 838.805,-152.768 903.809,-164.071 932.725,-190.172 955.781,-176.17 962.501,-172.274 971.291,-167.424 978.621,-163.591 986.313,-160.011 1033.94,-140.569 1051.41,-130.915 1051.66,-130.473 1061.51,-82.2803 1065.46,-65.6232 1065.55,-62.5237 1068.24,-31.7066 1070.14,-15.3821 1063.46,-3.21224 1030.11,26.4831 988.981,28.2569 979.492,28.9277 972.654,29.9772 964.756,31.4083 955.185,33.4063 940.54,36.8604 904.372,34.4233 903.468,33.9735 842.277,43.3319 835.092,44.5972 831.721,45.3466 825.364,43.4384 811.183,40.2083 803.072,38.7562 802.508,38.6826 789.184,37.5862 784.295,37.4211 778.991,35.5692 768.602,32.7866 762.126,31.2289 754.247,29.9748 740.469,28.5261 735.781,28.2881 722.259,28.6992 714.794,29.3298 714.186,29.3976 711.447,29.7769 696.634,32.6365 692.426,33.5613 691.999,33.6781 676.32,38.8271 669.534,41.605 667.092,40.7789 665.135,40.1669 649.11,35.9692 624.386,30.1379 574.659,13.9302 572.481,3.74828 570.863,-4.79461 581.356,-55.2383 582.94,-83.1589 583.136,-84.4513 583.588,-88.2164 583.936,-88.5456 651.637,-148.93 654.988,-151.741 664.24,-159.923 665.394,-161.098 677.496,-164.514 685.468,-167.154 698.484,-172.757 700.523,-171.781 712.655,-166.873 715.173,-165.917 721.111,-163.96 733.047,-160.32 734.599,-159.925 740.533,-158.562 "/>
<!-- &#45;&gt; -->
<g id="edge1" class="edge"><title>&#45;&gt;</title>
<path fill="none" stroke="#555555" stroke-opacity="0.133333" d="M391.39,-268.67C378.62,-276.98 364.18,-286.37 351.45,-294.65"/>
<polygon fill="#555555" fill-opacity="0.133333" stroke="#555555" stroke-opacity="0.133333" points="349.424,-291.793 342.95,-300.18 353.241,-297.66 349.424,-291.793"/>
</g>
<!-- &#45;&gt; -->
<g id="edge2" class="edge"><title>&#45;&gt;</title>
<path fill="none" stroke="#555555" stroke-opacity="0.133333" d="M457.66,-269.21C478,-284.21 504.29,-303.6 524.18,-318.27"/>
<polygon fill="#555555" fill-opacity="0.133333" stroke="#555555" stroke-opacity="0.133333" points="522.154,-321.124 532.28,-324.24 526.307,-315.49 522.154,-321.124"/>
</g>
<!-- &#45;&gt; -->
<g id="edge3" class="edge"><title>&#45;&gt;</title>
<path fill="none" stroke="#555555" stroke-opacity="0.133333" d="M434.21,-272.07C442.73,-299.81 456.16,-343.55 464.87,-371.9"/>
<polygon fill="#555555" fill-opacity="0.133333" stroke="#555555" stroke-opacity="0.133333" points="461.563,-373.055 467.84,-381.59 468.256,-371.003 461.563,-373.055"/>
</g>
<!-- &#45;&gt; -->
<g id="edge4" class="edge"><title>&#45;&gt;</title>
<path fill="none" stroke="#555555" stroke-opacity="0.133333" d="M416.88,-271.99C406.44,-301.03 389.59,-347.89 378.89,-377.65"/>
<polygon fill="#555555" fill-opacity="0.133333" stroke="#555555" stroke-opacity="0.133333" points="375.474,-376.806 375.38,-387.4 382.06,-379.177 375.474,-376.806"/>
</g>
<!-- &#45;&gt; -->
<g id="edge5" class="edge"><title>&#45;&gt;</title>
<path fill="none" stroke="#555555" stroke-opacity="0.133333" d="M419.33,-219.88C411.79,-191.26 399.74,-145.52 391.98,-116.06"/>
<polygon fill="#555555" fill-opacity="0.133333" stroke="#555555" stroke-opacity="0.133333" points="395.262,-114.779 389.33,-106 388.493,-116.562 395.262,-114.779"/>
</g>
<!-- &#45;&gt; -->
<g id="edge6" class="edge"><title>&#45;&gt;</title>
<path fill="none" stroke="#555555" stroke-opacity="0.133333" d="M436.77,-219.95C448.63,-190.67 467.8,-143.35 479.89,-113.5"/>
<polygon fill="#555555" fill-opacity="0.133333" stroke="#555555" stroke-opacity="0.133333" points="483.191,-114.673 483.7,-104.09 476.703,-112.046 483.191,-114.673"/>
</g>
<!-- &#45;&gt; -->
<g id="edge7" class="edge"><title>&#45;&gt;</title>
<path fill="none" stroke="#555555" stroke-opacity="0.133333" d="M395.01,-222.57C379.28,-210.75 360.28,-196.47 344.66,-184.73"/>
<polygon fill="#555555" fill-opacity="0.133333" stroke="#555555" stroke-opacity="0.133333" points="346.467,-181.71 336.37,-178.5 342.262,-187.306 346.467,-181.71"/>
</g>
<!-- &#45;&gt; -->
<g id="edge8" class="edge"><title>&#45;&gt;</title>
<path fill="none" stroke="#555555" stroke-opacity="0.133333" d="M460.45,-223.29C475.3,-213.43 492.65,-201.92 507.46,-192.08"/>
<polygon fill="#555555" fill-opacity="0.133333" stroke="#555555" stroke-opacity="0.133333" points="509.46,-194.953 515.86,-186.51 505.592,-189.119 509.46,-194.953"/>
</g>
<!-- &#45;&gt; -->
<g id="edge9" class="edge"><title>&#45;&gt;</title>
<path fill="none" stroke="#555555" stroke-opacity="0.133333" d="M358.26,-245.56C332.49,-245.38 303.52,-245.18 279.24,-245.02"/>
<polygon fill="#555555" fill-opacity="0.133333" stroke="#555555" stroke-opacity="0.133333" points="279.164,-241.519 269.14,-244.95 279.115,-248.519 279.164,-241.519"/>
</g>
<!-- &#45;&gt; -->
<g id="edge10" class="edge"><title>&#45;&gt;</title>
<path fill="none" stroke="#555555" stroke-opacity="0.133333" d="M494.5,-246.7C510.13,-246.85 526.61,-247.02 541.78,-247.17"/>
<polygon fill="#555555" fill-opacity="0.133333" stroke="#555555" stroke-opacity="0.133333" points="542.026,-250.672 552.06,-247.27 542.095,-243.673 542.026,-250.672"/>
</g>
<!-- &#45;&gt; -->
<g id="edge11" class="edge"><title>&#45;&gt;</title>
<path fill="none" stroke="#555555" stroke-opacity="0.133333" d="M337.64,-561.91C337.86,-561.88 338.09,-561.85 338.32,-561.83"/>
<polygon fill="#555555" fill-opacity="0.133333" stroke="#555555" stroke-opacity="0.133333" points="338.98,-565.278 348.53,-560.69 338.203,-558.321 338.98,-565.278"/>
</g>
<!-- &#45;&gt; -->
<g id="edge12" class="edge"><title>&#45;&gt;</title>
<path fill="none" stroke="#555555" stroke-opacity="0.133333" d="M239.35,-572.98C231.81,-573.84 224.15,-574.71 216.93,-575.52"/>
<polygon fill="#555555" fill-opacity="0.133333" stroke="#555555" stroke-opacity="0.133333" points="216.299,-572.069 206.76,-576.68 217.092,-579.024 216.299,-572.069"/>
</g>
<!-- &#45;&gt; -->
<g id="edge13" class="edge"><title>&#45;&gt;</title>
<path fill="none" stroke="#555555" stroke-opacity="0.133333" d="M286.16,-541.12C284.71,-525.13 282.86,-504.7 281.38,-488.34"/>
<polygon fill="#555555" fill-opacity="0.133333" stroke="#555555" stroke-opacity="0.133333" points="284.856,-487.914 280.47,-478.27 277.884,-488.544 284.856,-487.914"/>
</g>
<!-- &#45;&gt; -->
<g id="edge14" class="edge"><title>&#45;&gt;</title>
<path fill="none" stroke="#555555" stroke-opacity="0.133333" d="M292.19,-593.71C294.39,-609.58 297.19,-629.76 299.43,-645.91"/>
<polygon fill="#555555" fill-opacity="0.133333" stroke="#555555" stroke-opacity="0.133333" points="295.968,-646.426 300.81,-655.85 302.902,-645.464 295.968,-646.426"/>
</g>
<!--    &#45;&gt; -->
<g id="edge15" class="edge"><title>   &#45;&gt;</title>
<path fill="none" stroke="#555555" stroke-opacity="0.133333" d="M1036.5,-417.16C1036.7,-417.16 1036.8,-417.16 1037,-417.16"/>
<polygon fill="#555555" fill-opacity="0.133333" stroke="#555555" stroke-opacity="0.133333" points="1034,-420.66 1044,-417.16 1034,-413.66 1034,-420.66"/>
</g>
<!-- &#45;&gt; -->
<g id="edge16" class="edge"><title>&#45;&gt;</title>
<path fill="none" stroke="#555555" stroke-opacity="0.133333" d="M174.32,-244.8C174.47,-244.8 174.63,-244.8 174.78,-244.8"/>
<polygon fill="#555555" fill-opacity="0.133333" stroke="#555555" stroke-opacity="0.133333" points="171.67,-248.309 181.66,-244.78 171.65,-241.309 171.67,-248.309"/>
</g>
<!-- Teatr Slaski&#45;&gt; -->
<g id="edge17" class="edge"><title>Teatr Slaski&#45;&gt;</title>
<path fill="none" stroke="#555555" stroke-opacity="0.133333" d="M760.65,-502.16C760.81,-502.16 760.97,-502.16 761.13,-502.16"/>
<polygon fill="#555555" fill-opacity="0.133333" stroke="#555555" stroke-opacity="0.133333" points="758.17,-505.66 768.17,-502.16 758.17,-498.66 758.17,-505.66"/>
</g>
<!--  ()&#45;&gt; -->
<g id="edge18" class="edge"><title> ()&#45;&gt;</title>
<path fill="none" stroke="#555555" stroke-opacity="0.133333" d="M936.01,-60.163C936.17,-60.163 936.34,-60.163 936.51,-60.163"/>
<polygon fill="#555555" fill-opacity="0.133333" stroke="#555555" stroke-opacity="0.133333" points="933.72,-63.6631 943.72,-60.163 933.72,-56.6631 933.72,-63.6631"/>
</g>
<!--  -->
<g id="node1" class="node"><title></title>
<text text-anchor="middle" x="426.21" y="-239.72" font-family="Helvetica,sans-Serif" font-weight="bold" font-size="26.00"></text>
</g>
<!--  -->
<g id="node2" class="node"><title></title>
<text text-anchor="middle" x="317.09" y="-313.29" font-family="Helvetica,sans-Serif" font-weight="bold" font-size="14.00"></text>
</g>
<!--  -->
<g id="node3" class="node"><title></title>
<text text-anchor="middle" x="553.41" y="-336.13" font-family="Helvetica,sans-Serif" font-weight="bold" font-size="14.00"></text>
</g>
<!--  -->
<g id="node4" class="node"><title></title>
<text text-anchor="middle" x="473.37" y="-395.89" font-family="Helvetica,sans-Serif" font-weight="bold" font-size="14.00"></text>
</g>
<!--  -->
<g id="node5" class="node"><title></title>
<text text-anchor="middle" x="368.9" y="-401.73" font-family="Helvetica,sans-Serif" font-weight="bold" font-size="14.00"></text>
</g>
<!--  -->
<g id="node6" class="node"><title></title>
<text text-anchor="middle" x="384.52" y="-84.035" font-family="Helvetica,sans-Serif" font-weight="bold" font-size="14.00"></text>
</g>
<!--  -->
<g id="node7" class="node"><title></title>
<text text-anchor="middle" x="491.03" y="-82.3" font-family="Helvetica,sans-Serif" font-weight="bold" font-size="14.00"></text>
</g>
<!--  -->
<g id="node8" class="node"><title></title>
<text text-anchor="middle" x="314.2" y="-158.15" font-family="Helvetica,sans-Serif" font-weight="bold" font-size="14.00"></text>
</g>
<!--  -->
<g id="node9" class="node"><title></title>
<text text-anchor="middle" x="541.37" y="-165.88" font-family="Helvetica,sans-Serif" font-weight="bold" font-size="14.00"></text>
</g>
<!--  -->
<g id="node10" class="node"><title></title>
<text text-anchor="middle" x="225.51" y="-240.95" font-family="Helvetica,sans-Serif" font-weight="bold" font-size="14.00"></text>
</g>
<!--  -->
<g id="node11" class="node"><title></title>
<text text-anchor="middle" x="600.26" y="-244.05" font-family="Helvetica,sans-Serif" font-weight="bold" font-size="14.00"></text>
</g>
<!--  -->
<g id="node12" class="node"><title></title>
<text text-anchor="middle" x="165.25" y="-388.3" font-family="Helvetica,sans-Serif" font-weight="bold" font-size="14.00"></text>
</g>
<!--  -->
<g id="node13" class="node"><title></title>
<text text-anchor="middle" x="205.1" y="-99.3" font-family="Helvetica,sans-Serif" font-weight="bold" font-size="14.00"></text>
</g>
<!--  -->
<g id="node14" class="node"><title></title>
<text text-anchor="middle" x="186.15" y="-167.3" font-family="Helvetica,sans-Serif" font-weight="bold" font-size="14.00"></text>
</g>
<!--  -->
<g id="node15" class="node"><title></title>
<text text-anchor="middle" x="236.5" y="-31.3" font-family="Helvetica,sans-Serif" font-weight="bold" font-size="14.00"></text>
</g>
<!--  -->
<g id="node16" class="node"><title></title>
<text text-anchor="middle" x="367" y="-14.3" font-family="Helvetica,sans-Serif" font-weight="bold" font-size="14.00"></text>
</g>
<!--  -->
<g id="node17" class="node"><title></title>
<text text-anchor="middle" x="262.6" y="-388.3" font-family="Helvetica,sans-Serif" font-weight="bold" font-size="14.00"></text>
</g>
<!--  -->
<g id="node18" class="node"><title></title>
<text text-anchor="middle" x="459.45" y="-14.3" font-family="Helvetica,sans-Serif" font-weight="bold" font-size="14.00"></text>
</g>
<!--  -->
<g id="node19" class="node"><title></title>
<text text-anchor="middle" x="113.6" y="-99.3" font-family="Helvetica,sans-Serif" font-weight="bold" font-size="14.00"></text>
</g>
<!--  -->
<g id="node20" class="node"><title></title>
<text text-anchor="middle" x="288.54" y="-561.1" font-family="Helvetica,sans-Serif" font-weight="bold" font-size="26.00"></text>
</g>
<!--  -->
<g id="node21" class="node"><title></title>
<text text-anchor="middle" x="395.5" y="-551.73" font-family="Helvetica,sans-Serif" font-weight="bold" font-size="14.00"></text>
</g>
<!--  -->
<g id="node22" class="node"><title></title>
<text text-anchor="middle" x="180" y="-576.02" font-family="Helvetica,sans-Serif" font-weight="bold" font-size="14.00"></text>
</g>
<!--  -->
<g id="node23" class="node"><title></title>
<text text-anchor="middle" x="278.82" y="-456.3" font-family="Helvetica,sans-Serif" font-weight="bold" font-size="14.00"></text>
</g>
<!--  -->
<g id="node24" class="node"><title></title>
<text text-anchor="middle" x="303.31" y="-670.16" font-family="Helvetica,sans-Serif" font-weight="bold" font-size="14.00"></text>
</g>
<!--  -->
<g id="node25" class="node"><title></title>
<text text-anchor="middle" x="503" y="-541.3" font-family="Helvetica,sans-Serif" font-weight="bold" font-size="14.00"></text>
</g>
<!--  -->
<g id="node26" class="node"><title></title>
<text text-anchor="middle" x="133.85" y="-31.3" font-family="Helvetica,sans-Serif" font-weight="bold" font-size="14.00"></text>
</g>
<!--  -->
<g id="node27" class="node"><title></title>
<text text-anchor="middle" x="467.9" y="-473.3" font-family="Helvetica,sans-Serif" font-weight="bold" font-size="14.00"></text>
</g>
<!--  -->
<g id="node28" class="node"><title></title>
<text text-anchor="middle" x="167.85" y="-320.3" font-family="Helvetica,sans-Serif" font-weight="bold" font-size="14.00"></text>
</g>
<!--  -->
<g id="node29" class="node"><title></title>
<text text-anchor="middle" x="367" y="-473.3" font-family="Helvetica,sans-Serif" font-weight="bold" font-size="14.00"></text>
</g>
<!--  -->
<g id="node30" class="node"><title></title>
<text text-anchor="middle" x="190.05" y="-456.3" font-family="Helvetica,sans-Serif" font-weight="bold" font-size="14.00"></text>
</g>
<!--     -->
<g id="node31" class="node"><title>   </title>
<text text-anchor="middle" x="790.07" y="-410.86" font-family="Helvetica,sans-Serif" font-weight="bold" font-size="26.00">   </text>
</g>
<!--  -->
<g id="node32" class="node"><title></title>
<text text-anchor="middle" x="1092.3" y="-413.46" font-family="Helvetica,sans-Serif" font-weight="bold" font-size="14.00"></text>
</g>
<!--  -->
<g id="node33" class="node"><title></title>
<text text-anchor="middle" x="86.974" y="-238.76" font-family="Helvetica,sans-Serif" font-weight="bold" font-size="26.00"></text>
</g>
<!-- Teatr Slaski -->
<g id="node34" class="node"><title>Teatr Slaski</title>
<text text-anchor="middle" x="660.7" y="-495.86" font-family="Helvetica,sans-Serif" font-weight="bold" font-size="26.00">Teatr Slaski</text>
</g>
<!--  -->
<g id="node35" class="node"><title></title>
<text text-anchor="middle" x="817.82" y="-498.46" font-family="Helvetica,sans-Serif" font-weight="bold" font-size="14.00"></text>
</g>
<!--  () -->
<g id="node36" class="node"><title> ()</title>
<text text-anchor="middle" x="748.38" y="-53.863" font-family="Helvetica,sans-Serif" font-weight="bold" font-size="26.00"> ()</text>
</g>
<!--  -->
<g id="node37" class="node"><title></title>
<text text-anchor="middle" x="974.34" y="-56.463" font-family="Helvetica,sans-Serif" font-weight="bold" font-size="14.00"></text>
</g>
</g>
</svg>
