<?xml version="1.0" encoding="UTF-8" standalone="no"?>
<!DOCTYPE svg PUBLIC "-//W3C//DTD SVG 1.1//EN"
 "http://www.w3.org/Graphics/SVG/1.1/DTD/svg11.dtd">
<!-- Generated by graphviz version 2.38.0 (20140413.2041)
 -->
<!-- Title: G Pages: 1 -->
<svg width="1480pt" height="1229pt"
 viewBox="0.00 0.00 1480.18 1229.13" xmlns="http://www.w3.org/2000/svg" xmlns:xlink="http://www.w3.org/1999/xlink">
<g id="graph0" class="graph" transform="scale(1 1) rotate(0) translate(99.4739 1093.85)">
<title>G</title>
<polygon fill="#dae2ff" stroke="none" points="-99.4739,135.283 -99.4739,-1093.85 1380.71,-1093.85 1380.71,135.283 -99.4739,135.283"/>
<polygon fill="#fed9a6" stroke="#fed9a6" points="340.239,-558.266 344.669,-562.62 382.148,-606.12 419.767,-618.061 434.996,-622.099 435.063,-622.114 438.911,-622.72 448.514,-623.224 454.89,-623.22 458.937,-623.435 464.278,-623.151 469.048,-623.154 469.167,-623.16 470.862,-623.162 472.669,-562.6 478.868,-562.6 479.072,-562.538 479.65,-562.538 483.201,-559.403 489.953,-427.005 491.581,-427.008 491.965,-426.992 497.563,-426.88 499.476,-426.8 499.618,-411.505 499.42,-398.905 499.42,-398.905 499.618,-411.505 499.476,-426.8 505.568,-426.945 516.684,-426.722 518.077,-426.756 519.487,-425.493 530.917,-415.699 530.917,-415.699 519.487,-425.493 518.077,-426.756 516.684,-426.722 505.568,-426.945 499.476,-426.8 497.563,-426.88 491.965,-426.992 491.581,-427.008 489.953,-427.005 483.201,-559.403 479.65,-562.538 483.761,-566.231 488.487,-567.611 488.487,-567.611 483.761,-566.231 479.65,-562.538 479.072,-562.538 478.868,-562.6 472.669,-562.6 470.862,-623.162 472.759,-623.266 481.25,-624.188 493.368,-626.16 503.674,-628.939 507.172,-630.066 511.661,-631.751 512.779,-603.371 510.84,-562.352 511.722,-562.076 515.535,-562.076 515.535,-562.076 511.722,-562.076 510.84,-562.352 512.779,-603.371 511.661,-631.751 524.151,-637.799 533.579,-642.863 525.1,-666.985 517.81,-692.006 515.445,-706.815 514.811,-709.635 506.809,-737.018 502.919,-748.085 503.569,-748.572 567.363,-788.088 568.435,-761.403 573.85,-720.497 570.916,-717.194 571.101,-716.155 572.709,-714.495 572.709,-714.495 571.101,-716.155 570.916,-717.194 573.85,-720.497 579.241,-722.337 579.241,-722.337 573.85,-720.497 568.435,-761.403 567.363,-788.088 576.454,-795.138 585.855,-801.702 588.459,-803.876 592.608,-800.379 658.197,-749.825 666.356,-753.93 679.877,-759.933 680.156,-760.022 695.721,-764.13 708.02,-765.895 716.406,-766.09 728.508,-767.075 735.32,-768.417 742.537,-770.259 760.535,-776.97 764.038,-778.67 775.187,-785.419 778.576,-787.671 790.367,-777.231 790.392,-777.211 791.269,-776.571 800.995,-770.164 803.274,-768.832 853.807,-742.879 854.325,-742.577 864.296,-736.035 873.096,-728.986 879.957,-724.001 882.542,-721.963 893.753,-711.643 897.937,-707.525 900.986,-704.326 901.572,-703.631 914.484,-703.198 916.488,-703.255 918.89,-703.177 929.034,-703.159 930.378,-703.115 939.402,-702.549 950.61,-701.163 968.13,-635.92 971.14,-615.614 971.753,-608.484 972.009,-606.745 975.079,-592.042 989.565,-538.094 992.864,-537.38 992.862,-508.35 992.809,-507.334 992.865,-441.607 992.977,-441.449 992.977,-441.449 992.865,-441.607 992.809,-507.334 992.862,-508.35 992.864,-537.38 1006.63,-535.87 1004.8,-446.778 1002.78,-444.343 1002.78,-444.343 1004.8,-446.778 1006.63,-535.87 1020.19,-534.864 1034.89,-533.249 1051.54,-529.642 1056.97,-528.08 1071.72,-523.313 1152.8,-494.273 1146.82,-478.611 1127.74,-425.262 1107.05,-356.681 1046.62,-308.355 1043.02,-293.492 913.289,-299.18 909.411,-303.035 908.169,-303.466 906.159,-305.214 901.963,-305.214 900.067,-349.815 894.574,-305.079 890.613,-305.079 890.468,-305.26 883.935,-309.526 878.271,-309.526 876.229,-339.39 870.636,-305.337 867.38,-305.337 865.268,-304.631 861.543,-304.631 860.209,-305.084 854.852,-305.084 854.512,-305.401 852.954,-392.766 848.297,-311.01 730.953,-312.261 721.25,-301.378 715.48,-295.503 712.273,-295.162 711.219,-327.361 711.219,-327.361 712.273,-295.162 715.48,-295.503 721.25,-301.378 730.953,-312.261 848.297,-311.01 852.954,-392.766 854.512,-305.401 854.852,-305.084 860.209,-305.084 861.543,-304.631 865.268,-304.631 867.38,-305.337 870.636,-305.337 876.229,-339.39 878.271,-309.526 871.74,-305.026 871.74,-305.026 878.271,-309.526 883.935,-309.526 890.468,-305.26 890.613,-305.079 894.574,-305.079 900.067,-349.815 901.963,-305.214 906.159,-305.214 908.169,-303.466 909.411,-303.035 913.289,-299.18 1043.02,-293.492 1024.5,-208.238 1003.84,-173.774 988.279,-172.028 971.083,-159 943.831,-135.117 929.483,-123.299 919.461,-116.655 858.033,-79.1611 838.483,-87.4401 837.624,-87.7582 819.493,-92.6186 818.966,-92.7319 801.688,-94.6499 801.295,-94.6729 800.075,-121.187 795.242,-154.284 790.748,-154.284 790.748,-154.284 795.242,-154.284 800.075,-121.187 801.295,-94.6729 794.52,-94.3602 783.351,-94.9627 782.46,-94.9175 777.558,-94.9125 775.921,-94.8257 773,-94.5178 766.445,-94.4799 765.772,-94.5092 762.662,-94.4839 761.157,-94.621 750.923,-94.4873 746.148,-94.6634 744.525,-94.6384 744.353,-94.6442 743.617,-94.6311 733.595,-94.9521 724.927,-95.6615 718.66,-96.7961 704.364,-100.829 691.028,-105.924 690.603,-105.718 685.129,-103.338 684.676,-103.185 674.481,-100.236 671.033,-99.4055 663.424,-97.9383 655.467,-96.7901 649.939,-96.2618 645.361,-96.2683 638.329,-95.9239 633.048,-95.9226 632.75,-95.937 630.766,-95.9333 626.981,-96.2948 617.628,-96.2459 614.985,-96.3606 612.591,-96.3442 612.567,-158.965 606.782,-157.107 601.553,-158.763 597.786,-162.505 600.664,-165.08 600.664,-165.08 597.786,-162.505 601.553,-158.763 606.782,-157.107 612.567,-158.965 612.591,-96.3442 610.039,-96.1986 608.121,-96.1823 598.812,-95.6368 592.718,-94.6682 581.87,-92.3948 566.861,-87.7351 478.452,-55.9834 434.655,-147.471 353.331,-180.724 286.323,-271.102 290.651,-275.436 291.168,-275.935 308.871,-294.422 322.253,-307.238 328.987,-313.096 332.312,-315.845 340.158,-322.701 340.205,-322.74 351.091,-330.776 362.403,-338.616 445.333,-392.206 462.068,-404.518 478.32,-418.608 476.298,-327.917 478.892,-294.9 483.981,-296.463 489.448,-294.777 493.249,-291.22 489.681,-288.099 484.476,-286.562 484.476,-286.562 489.681,-288.099 493.249,-291.22 489.448,-294.777 483.981,-296.463 478.892,-294.9 476.298,-327.917 478.32,-418.608 484.88,-424.859 486.961,-426.933 477.237,-436.21 471.532,-442.559 455.96,-457.473 366.299,-533.923 351.96,-546.974 340.239,-558.266 340.239,-558.266"/>
<polygon fill="#c1c8d8" stroke="#c1c8d8" points="-92.9083,-450.505 -8.49624,-444.093 46.1544,-446.868 53.1887,-440.542 53.8776,-440.257 56.6289,-438.03 65.4574,-517.553 66.1781,-528.169 70.1334,-437.142 74.0117,-437.142 76.2835,-439.659 80.5863,-442.414 86.8808,-443.802 92.4175,-442.573 92.4175,-442.573 86.8808,-443.802 80.5863,-442.414 76.2835,-439.659 74.0117,-437.142 70.1334,-437.142 66.1781,-528.169 65.4574,-517.553 56.6289,-438.03 53.8776,-440.257 53.1887,-440.542 46.1544,-446.868 -8.49624,-444.093 -92.9083,-450.505 -95.4739,-455.706 -35.215,-562.936 42.151,-603.762 66.9693,-618.081 73.1386,-622.234 89.9628,-610.062 113.917,-595.252 117.939,-593.087 132.037,-585.862 216.775,-544.699 236.593,-549.934 253.063,-553.883 255.617,-554.307 274.941,-557.046 283.042,-557.795 289.491,-558.075 299.659,-558.017 302.587,-558.075 307.846,-557.921 314.192,-558.057 317.054,-558.192 319.42,-558.245 325.529,-558.081 335.445,-558.32 339.372,-558.221 340.239,-558.266 351.96,-546.974 366.299,-533.923 455.96,-457.473 471.532,-442.559 477.237,-436.21 486.961,-426.933 484.88,-424.859 478.32,-418.608 462.068,-404.518 445.333,-392.206 362.403,-338.616 351.091,-330.776 340.205,-322.74 340.158,-322.701 332.312,-315.845 328.987,-313.096 322.253,-307.238 308.871,-294.422 291.168,-275.935 290.651,-275.436 286.323,-271.102 247.101,-279.861 216.73,-289.079 169.56,-276.802 127.783,-290.679 108.473,-296.172 93.3746,-299.018 75.7045,-301.923 60.7817,-302.939 49.0799,-303.173 -14.2619,-301.399 -22.85,-303.055 -55.2471,-354.118 -72.7045,-400.808 -92.9083,-450.505 -92.9083,-450.505"/>
<polygon fill="#d3ded1" stroke="#d3ded1" points="781.275,-811.459 780.873,-805.27 779.886,-796.225 778.576,-787.671 790.367,-777.231 790.392,-777.211 791.269,-776.571 800.995,-770.164 803.274,-768.832 853.807,-742.879 854.325,-742.577 864.296,-736.035 873.096,-728.986 879.957,-724.001 882.542,-721.963 893.753,-711.643 897.937,-707.525 900.986,-704.326 901.572,-703.631 914.484,-703.198 916.488,-703.255 918.89,-703.177 929.034,-703.159 930.378,-703.115 939.402,-702.549 939.306,-720.903 935.73,-804.275 936.329,-804.46 939.932,-804.46 941.127,-806.318 941.127,-806.318 939.932,-804.46 936.329,-804.46 935.73,-804.275 939.306,-720.903 939.402,-702.549 950.61,-701.163 968.13,-635.92 971.14,-615.614 971.753,-608.484 972.009,-606.745 975.079,-592.042 989.565,-538.094 992.864,-537.38 1006.63,-535.87 1020.19,-534.864 1034.89,-533.249 1035.11,-564.605 1036.38,-585.528 1035.26,-629.11 1035.34,-629.138 1035.63,-629.536 1041.18,-633.266 1041.18,-633.266 1035.63,-629.536 1035.34,-629.138 1035.26,-629.11 1036.38,-585.528 1035.11,-564.605 1034.89,-533.249 1051.54,-529.642 1056.97,-528.08 1071.72,-523.313 1152.8,-494.273 1189.79,-517.943 1203.26,-547.224 1217.95,-609.835 1229.09,-617.085 1228.14,-707.221 1231.02,-767.887 1229.99,-768.851 1224.92,-768.851 1224.67,-768.765 1217.93,-773.484 1212.82,-773.484 1206.14,-768.847 1212.34,-764.47 1212.34,-764.47 1206.14,-768.847 1212.82,-773.484 1217.93,-773.484 1224.67,-768.765 1224.92,-768.851 1229.99,-768.851 1231.02,-767.887 1228.14,-707.221 1229.09,-617.085 1238.93,-622.91 1361.43,-691.752 1365.02,-746.063 1368.11,-780.331 1376.71,-842.746 1257.67,-923.187 1253.45,-942.21 1246.03,-989.791 1203.46,-1058.02 1117.61,-1089.85 1110.36,-1087.83 1106.65,-976.267 1106.65,-976.267 1110.36,-1087.83 1099.51,-1085.29 1089.79,-1083.23 1076.05,-1080.93 1070.42,-1080.12 1055.77,-1078.65 1056.4,-1035.16 1055.48,-987.434 1055.48,-987.434 1056.4,-1035.16 1055.77,-1078.65 1033.33,-1077.91 940.557,-1039.71 903.729,-961.598 902.856,-959.842 897.599,-957.842 894.532,-956.743 880.982,-952.183 877.749,-951.167 874.59,-950.244 862.905,-947.344 842.717,-943.222 798.402,-935.165 782.601,-831.957 781.49,-821.768 781.275,-811.459 781.275,-811.459"/>
<polygon fill="#fbb4ae" stroke="#fbb4ae" points="700.508,-973.377 717.081,-966.545 798.402,-935.165 782.601,-831.957 781.49,-821.768 781.275,-811.459 780.873,-805.27 779.886,-796.225 778.576,-787.671 775.187,-785.419 764.038,-778.67 760.535,-776.97 742.537,-770.259 735.32,-768.417 728.508,-767.075 716.406,-766.09 708.02,-765.895 695.721,-764.13 680.156,-760.022 679.877,-759.933 666.356,-753.93 658.197,-749.825 592.608,-800.379 588.459,-803.876 585.855,-801.702 576.454,-795.138 567.363,-788.088 503.569,-748.572 502.919,-748.085 499.445,-748.943 490.453,-750.745 481.816,-752.07 478.531,-752.264 464.68,-752.433 462.734,-752.273 461.388,-752.225 459.615,-752.243 458.593,-752.301 452.923,-752.355 444.317,-752.837 444.153,-752.831 442.762,-752.842 442.252,-752.869 439.197,-752.89 430.454,-752.537 430.018,-752.56 419.814,-752.612 418.901,-752.53 411.453,-752.211 403.705,-751.514 399.56,-750.946 384.117,-747.375 381.372,-746.485 378.06,-747.749 362.473,-752.195 361.374,-752.4 348.779,-754.153 343.796,-754.602 339.336,-754.571 331.991,-754.875 327.115,-754.598 321.595,-754.554 320.741,-754.588 318.751,-754.474 316.517,-754.454 305.267,-754.9 304.163,-754.997 299.682,-754.734 297.941,-754.716 295.392,-754.565 291.081,-754.518 289.495,-754.423 286.976,-754.394 277.528,-754.745 277.112,-754.72 276.569,-754.661 272.332,-754.402 263.75,-754.708 259.17,-754.648 255.638,-754.772 252.616,-755.023 244.924,-756.032 119.766,-784.569 127.443,-807.307 135.341,-835.024 139.008,-849.268 149.599,-895.382 190.865,-954.073 266.932,-960.989 281.952,-963.049 291.216,-964.745 292.777,-965.103 308.439,-969.059 318.2,-971.749 323.881,-973.707 334.367,-977.564 342.076,-980.579 343.063,-980.987 349.679,-980.79 370.507,-981.398 374.891,-981.698 376.178,-981.812 393.812,-984.06 403.915,-985.546 411.365,-987.078 415.243,-988.029 421.923,-989.801 434.071,-982.967 448.968,-975.692 465.748,-968.328 465.234,-957.158 456.043,-825.158 453.559,-825.158 453.265,-825.096 453.265,-825.096 453.559,-825.158 456.043,-825.158 465.234,-957.158 465.748,-968.328 470.383,-966.529 477.848,-963.815 479.702,-963.233 498.205,-958.322 508.941,-955.74 590.401,-940.208 655.245,-971.718 661.307,-972.417 674.009,-974.163 686.978,-976.231 688.932,-975.784 691.329,-975.342 691.854,-975.256 698.284,-974.351 700.508,-973.377 700.508,-973.377"/>
<polygon fill="#e4ced8" stroke="#e4ced8" points="525.1,-666.985 517.81,-692.006 515.445,-706.815 514.811,-709.635 506.809,-737.018 502.919,-748.085 499.445,-748.943 490.453,-750.745 481.816,-752.07 478.531,-752.264 464.68,-752.433 462.734,-752.273 466.93,-690.675 461.275,-687.041 459.438,-684.073 455.223,-684.073 454.94,-683.986 454.034,-683.986 450.515,-680.883 445.295,-679.317 445.295,-679.317 450.515,-680.883 454.034,-683.986 454.94,-683.986 455.223,-684.073 459.438,-684.073 461.275,-687.041 466.93,-690.675 462.734,-752.273 461.388,-752.225 459.615,-752.243 458.593,-752.301 452.923,-752.355 444.317,-752.837 444.153,-752.831 442.762,-752.842 442.252,-752.869 439.197,-752.89 430.454,-752.537 430.018,-752.56 419.814,-752.612 418.901,-752.53 411.453,-752.211 403.705,-751.514 399.56,-750.946 384.117,-747.375 381.372,-746.485 378.06,-747.749 362.473,-752.195 361.374,-752.4 348.779,-754.153 343.796,-754.602 339.336,-754.571 331.991,-754.875 327.115,-754.598 321.595,-754.554 320.741,-754.588 318.751,-754.474 316.517,-754.454 305.267,-754.9 304.163,-754.997 299.682,-754.734 297.941,-754.716 295.392,-754.565 291.081,-754.518 289.495,-754.423 286.976,-754.394 277.528,-754.745 277.112,-754.72 276.569,-754.661 272.332,-754.402 263.75,-754.708 259.17,-754.648 255.638,-754.772 252.616,-755.023 244.924,-756.032 119.766,-784.569 81.1433,-742.118 76.0376,-736.737 75.8252,-664.293 73.1386,-622.234 89.9628,-610.062 113.917,-595.252 117.939,-593.087 132.037,-585.862 216.775,-544.699 236.593,-549.934 253.063,-553.883 255.617,-554.307 274.941,-557.046 283.042,-557.795 289.491,-558.075 299.659,-558.017 302.587,-558.075 307.846,-557.921 314.192,-558.057 317.054,-558.192 319.42,-558.245 325.529,-558.081 335.445,-558.32 332.968,-639.562 334.932,-673.859 334.932,-673.859 332.968,-639.562 335.445,-558.32 339.372,-558.221 340.239,-558.266 344.669,-562.62 382.148,-606.12 419.767,-618.061 434.996,-622.099 435.063,-622.114 438.911,-622.72 448.514,-623.224 454.89,-623.22 458.937,-623.435 464.278,-623.151 469.048,-623.154 469.167,-623.16 470.862,-623.162 472.759,-623.266 481.25,-624.188 493.368,-626.16 503.674,-628.939 507.172,-630.066 511.661,-631.751 524.151,-637.799 533.579,-642.863 525.1,-666.985 525.1,-666.985"/>
<polygon fill="#c2dfd1" stroke="#c2dfd1" points="1002.27,94.6295 1084.6,13.8817 1103.5,-3.87191 1103.79,-4.19898 1077.61,-45.3247 1003.84,-173.774 988.279,-172.028 971.083,-159 943.831,-135.117 942.52,-32.1422 938.013,-27.5818 937.034,-28.5703 937.034,-28.5703 938.013,-27.5818 942.52,-32.1422 943.831,-135.117 929.483,-123.299 919.461,-116.655 858.033,-79.1611 838.483,-87.4401 837.624,-87.7582 819.493,-92.6186 818.966,-92.7319 801.688,-94.6499 801.295,-94.6729 794.52,-94.3602 793.267,-59.2572 795.584,-36.3093 795.584,-36.3093 793.267,-59.2572 794.52,-94.3602 783.351,-94.9627 782.46,-94.9175 777.558,-94.9125 775.921,-94.8257 773,-94.5178 766.445,-94.4799 765.772,-94.5092 762.662,-94.4839 761.157,-94.621 750.923,-94.4873 746.148,-94.6634 744.525,-94.6384 744.353,-94.6442 743.617,-94.6311 739.408,-26.5055 739.408,-26.5055 743.617,-94.6311 733.595,-94.9521 724.927,-95.6615 718.66,-96.7961 704.364,-100.829 691.028,-105.924 690.603,-105.718 685.129,-103.338 684.676,-103.185 674.481,-100.236 671.033,-99.4055 663.424,-97.9383 655.467,-96.7901 649.939,-96.2618 645.361,-96.2683 638.329,-95.9239 633.048,-95.9226 632.75,-95.937 630.766,-95.9333 626.981,-96.2948 617.628,-96.2459 614.985,-96.3606 612.591,-96.3442 610.039,-96.1986 608.121,-96.1823 598.812,-95.6368 592.718,-94.6682 581.87,-92.3948 566.861,-87.7351 478.452,-55.9834 478.375,-52.7938 476.629,-17.2119 474.445,0.557315 502.786,68.6785 540.811,111.245 549.257,113.652 611.288,110.466 621.679,110.165 645.327,111.067 662.811,113.298 673.061,115.294 681.231,117.068 685.425,118.073 704.282,123.437 704.972,123.649 719.841,128.869 725.619,131.283 730.098,129.197 742.269,124.367 758.929,118.141 761.803,117.202 774.534,113.634 790.687,109.858 798.752,108.351 860.524,98.2536 915.642,116.171 916.479,116.465 921.085,118.199 932.449,114.217 943.374,110.672 1002.27,94.6295 1002.27,94.6295"/>
<polyline fill="none" stroke="#000000" points="524.151,-637.799 511.661,-631.751 507.172,-630.066 503.674,-628.939 493.368,-626.16 481.25,-624.188 472.759,-623.266 470.862,-623.162 469.167,-623.16 469.048,-623.154 464.278,-623.151 458.937,-623.435 454.89,-623.22 448.514,-623.224 438.911,-622.72 435.063,-622.114 434.996,-622.099 419.767,-618.061 382.148,-606.12 344.669,-562.62 340.239,-558.266 351.96,-546.974 366.299,-533.923 455.96,-457.473 471.532,-442.559 477.237,-436.21 486.961,-426.933 484.88,-424.859 478.32,-418.608 462.068,-404.518 445.333,-392.206 362.403,-338.616 351.091,-330.776 340.205,-322.74 340.158,-322.701 332.312,-315.845 328.987,-313.096 322.253,-307.238 308.871,-294.422 291.168,-275.935 290.651,-275.436 286.323,-271.102 353.331,-180.724 434.655,-147.471 478.452,-55.9834 566.861,-87.7351 581.87,-92.3948 592.718,-94.6682 598.812,-95.6368 608.121,-96.1823 610.039,-96.1986 612.591,-96.3442 614.985,-96.3606 617.628,-96.2459 626.981,-96.2948 630.766,-95.9333 632.75,-95.937 633.048,-95.9226 638.329,-95.9239 645.361,-96.2683 649.939,-96.2618 655.467,-96.7901 663.424,-97.9383 671.033,-99.4055 674.481,-100.236 684.676,-103.185 685.129,-103.338 690.603,-105.718 691.028,-105.924 704.364,-100.829 718.66,-96.7961 724.927,-95.6615 733.595,-94.9521 743.617,-94.6311 744.353,-94.6442 744.525,-94.6384 746.148,-94.6634 750.923,-94.4873 761.157,-94.621 762.662,-94.4839 765.772,-94.5092 766.445,-94.4799 773,-94.5178 775.921,-94.8257 777.558,-94.9125 782.46,-94.9175 783.351,-94.9627 794.52,-94.3602 801.295,-94.6729 801.688,-94.6499 818.966,-92.7319 819.493,-92.6186 837.624,-87.7582 838.483,-87.4401 858.033,-79.1611 919.461,-116.655 929.483,-123.299 943.831,-135.117 971.083,-159 988.279,-172.028 1003.84,-173.774 1024.5,-208.238 1043.02,-293.492 1046.62,-308.355 1107.05,-356.681 1127.74,-425.262 1146.82,-478.611 1152.8,-494.273 1071.72,-523.313 1056.97,-528.08 1051.54,-529.642 1034.89,-533.249 1020.19,-534.864 1006.63,-535.87 992.864,-537.38 989.565,-538.094 975.079,-592.042 972.009,-606.745 971.753,-608.484 971.14,-615.614 968.13,-635.92 950.61,-701.163 939.402,-702.549 930.378,-703.115 929.034,-703.159 918.89,-703.177 916.488,-703.255 914.484,-703.198 901.572,-703.631 900.986,-704.326 897.937,-707.525 893.753,-711.643 882.542,-721.963 879.957,-724.001 873.096,-728.986 864.296,-736.035 854.325,-742.577 853.807,-742.879 803.274,-768.832 800.995,-770.164 791.269,-776.571 790.392,-777.211 790.367,-777.231 778.576,-787.671 775.187,-785.419 764.038,-778.67 760.535,-776.97 742.537,-770.259 735.32,-768.417 728.508,-767.075 716.406,-766.09 708.02,-765.895 695.721,-764.13 680.156,-760.022 679.877,-759.933 666.356,-753.93 658.197,-749.825 592.608,-800.379 588.459,-803.876 585.855,-801.702 576.454,-795.138 567.363,-788.088 503.569,-748.572 502.919,-748.085 506.809,-737.018 514.811,-709.635 515.445,-706.815 517.81,-692.006 525.1,-666.985 533.579,-642.863 524.151,-637.799 "/>
<polyline fill="none" stroke="#000000" points="325.529,-558.081 335.445,-558.32 339.372,-558.221 340.239,-558.266 351.96,-546.974 366.299,-533.923 455.96,-457.473 471.532,-442.559 477.237,-436.21 486.961,-426.933 484.88,-424.859 478.32,-418.608 462.068,-404.518 445.333,-392.206 362.403,-338.616 351.091,-330.776 340.205,-322.74 340.158,-322.701 332.312,-315.845 328.987,-313.096 322.253,-307.238 308.871,-294.422 291.168,-275.935 290.651,-275.436 286.323,-271.102 247.101,-279.861 216.73,-289.079 169.56,-276.802 127.783,-290.679 108.473,-296.172 93.3746,-299.018 75.7045,-301.923 60.7817,-302.939 49.0799,-303.173 -14.2619,-301.399 -22.85,-303.055 -55.2471,-354.118 -72.7045,-400.808 -92.9083,-450.505 -95.4739,-455.706 -35.215,-562.936 42.151,-603.762 66.9693,-618.081 73.1386,-622.234 89.9628,-610.062 113.917,-595.252 117.939,-593.087 132.037,-585.862 216.775,-544.699 236.593,-549.934 253.063,-553.883 255.617,-554.307 274.941,-557.046 283.042,-557.795 289.491,-558.075 299.659,-558.017 302.587,-558.075 307.846,-557.921 314.192,-558.057 317.054,-558.192 319.42,-558.245 325.529,-558.081 "/>
<polyline fill="none" stroke="#000000" points="903.729,-961.598 940.557,-1039.71 1033.33,-1077.91 1055.77,-1078.65 1070.42,-1080.12 1076.05,-1080.93 1089.79,-1083.23 1099.51,-1085.29 1110.36,-1087.83 1117.61,-1089.85 1203.46,-1058.02 1246.03,-989.791 1253.45,-942.21 1257.67,-923.187 1376.71,-842.746 1368.11,-780.331 1365.02,-746.063 1361.43,-691.752 1238.93,-622.91 1229.09,-617.085 1217.95,-609.835 1203.26,-547.224 1189.79,-517.943 1152.8,-494.273 1071.72,-523.313 1056.97,-528.08 1051.54,-529.642 1034.89,-533.249 1020.19,-534.864 1006.63,-535.87 992.864,-537.38 989.565,-538.094 975.079,-592.042 972.009,-606.745 971.753,-608.484 971.14,-615.614 968.13,-635.92 950.61,-701.163 939.402,-702.549 930.378,-703.115 929.034,-703.159 918.89,-703.177 916.488,-703.255 914.484,-703.198 901.572,-703.631 900.986,-704.326 897.937,-707.525 893.753,-711.643 882.542,-721.963 879.957,-724.001 873.096,-728.986 864.296,-736.035 854.325,-742.577 853.807,-742.879 803.274,-768.832 800.995,-770.164 791.269,-776.571 790.392,-777.211 790.367,-777.231 778.576,-787.671 779.886,-796.225 780.873,-805.27 781.275,-811.459 781.49,-821.768 782.601,-831.957 798.402,-935.165 842.717,-943.222 862.905,-947.344 874.59,-950.244 877.749,-951.167 880.982,-952.183 894.532,-956.743 897.599,-957.842 902.856,-959.842 903.729,-961.598 "/>
<polyline fill="none" stroke="#000000" points="374.891,-981.698 370.507,-981.398 349.679,-980.79 343.063,-980.987 342.076,-980.579 334.367,-977.564 323.881,-973.707 318.2,-971.749 308.439,-969.059 292.777,-965.103 291.216,-964.745 281.952,-963.049 266.932,-960.989 190.865,-954.073 149.599,-895.382 139.008,-849.268 135.341,-835.024 127.443,-807.307 119.766,-784.569 244.924,-756.032 252.616,-755.023 255.638,-754.772 259.17,-754.648 263.75,-754.708 272.332,-754.402 276.569,-754.661 277.112,-754.72 277.528,-754.745 286.976,-754.394 289.495,-754.423 291.081,-754.518 295.392,-754.565 297.941,-754.716 299.682,-754.734 304.163,-754.997 305.267,-754.9 316.517,-754.454 318.751,-754.474 320.741,-754.588 321.595,-754.554 327.115,-754.598 331.991,-754.875 339.336,-754.571 343.796,-754.602 348.779,-754.153 361.374,-752.4 362.473,-752.195 378.06,-747.749 381.372,-746.485 384.117,-747.375 399.56,-750.946 403.705,-751.514 411.453,-752.211 418.901,-752.53 419.814,-752.612 430.018,-752.56 430.454,-752.537 439.197,-752.89 442.252,-752.869 442.762,-752.842 444.153,-752.831 444.317,-752.837 452.923,-752.355 458.593,-752.301 459.615,-752.243 461.388,-752.225 462.734,-752.273 464.68,-752.433 478.531,-752.264 481.816,-752.07 490.453,-750.745 499.445,-748.943 502.919,-748.085 503.569,-748.572 567.363,-788.088 576.454,-795.138 585.855,-801.702 588.459,-803.876 592.608,-800.379 658.197,-749.825 666.356,-753.93 679.877,-759.933 680.156,-760.022 695.721,-764.13 708.02,-765.895 716.406,-766.09 728.508,-767.075 735.32,-768.417 742.537,-770.259 760.535,-776.97 764.038,-778.67 775.187,-785.419 778.576,-787.671 779.886,-796.225 780.873,-805.27 781.275,-811.459 781.49,-821.768 782.601,-831.957 798.402,-935.165 717.081,-966.545 700.508,-973.377 698.284,-974.351 691.854,-975.256 691.329,-975.342 688.932,-975.784 686.978,-976.231 674.009,-974.163 661.307,-972.417 655.245,-971.718 590.401,-940.208 508.941,-955.74 498.205,-958.322 479.702,-963.233 477.848,-963.815 470.383,-966.529 465.748,-968.328 448.968,-975.692 434.071,-982.967 421.923,-989.801 415.243,-988.029 411.365,-987.078 403.915,-985.546 393.812,-984.06 376.178,-981.812 374.891,-981.698 "/>
<polyline fill="none" stroke="#000000" points="276.569,-754.661 277.112,-754.72 277.528,-754.745 286.976,-754.394 289.495,-754.423 291.081,-754.518 295.392,-754.565 297.941,-754.716 299.682,-754.734 304.163,-754.997 305.267,-754.9 316.517,-754.454 318.751,-754.474 320.741,-754.588 321.595,-754.554 327.115,-754.598 331.991,-754.875 339.336,-754.571 343.796,-754.602 348.779,-754.153 361.374,-752.4 362.473,-752.195 378.06,-747.749 381.372,-746.485 384.117,-747.375 399.56,-750.946 403.705,-751.514 411.453,-752.211 418.901,-752.53 419.814,-752.612 430.018,-752.56 430.454,-752.537 439.197,-752.89 442.252,-752.869 442.762,-752.842 444.153,-752.831 444.317,-752.837 452.923,-752.355 458.593,-752.301 459.615,-752.243 461.388,-752.225 462.734,-752.273 464.68,-752.433 478.531,-752.264 481.816,-752.07 490.453,-750.745 499.445,-748.943 502.919,-748.085 506.809,-737.018 514.811,-709.635 515.445,-706.815 517.81,-692.006 525.1,-666.985 533.579,-642.863 524.151,-637.799 511.661,-631.751 507.172,-630.066 503.674,-628.939 493.368,-626.16 481.25,-624.188 472.759,-623.266 470.862,-623.162 469.167,-623.16 469.048,-623.154 464.278,-623.151 458.937,-623.435 454.89,-623.22 448.514,-623.224 438.911,-622.72 435.063,-622.114 434.996,-622.099 419.767,-618.061 382.148,-606.12 344.669,-562.62 340.239,-558.266 339.372,-558.221 335.445,-558.32 325.529,-558.081 319.42,-558.245 317.054,-558.192 314.192,-558.057 307.846,-557.921 302.587,-558.075 299.659,-558.017 289.491,-558.075 283.042,-557.795 274.941,-557.046 255.617,-554.307 253.063,-553.883 236.593,-549.934 216.775,-544.699 132.037,-585.862 117.939,-593.087 113.917,-595.252 89.9628,-610.062 73.1386,-622.234 75.8252,-664.293 76.0376,-736.737 81.1433,-742.118 119.766,-784.569 244.924,-756.032 252.616,-755.023 255.638,-754.772 259.17,-754.648 263.75,-754.708 272.332,-754.402 276.569,-754.661 "/>
<polyline fill="none" stroke="#000000" points="685.129,-103.338 684.676,-103.185 674.481,-100.236 671.033,-99.4055 663.424,-97.9383 655.467,-96.7901 649.939,-96.2618 645.361,-96.2683 638.329,-95.9239 633.048,-95.9226 632.75,-95.937 630.766,-95.9333 626.981,-96.2948 617.628,-96.2459 614.985,-96.3606 612.591,-96.3442 610.039,-96.1986 608.121,-96.1823 598.812,-95.6368 592.718,-94.6682 581.87,-92.3948 566.861,-87.7351 478.452,-55.9834 478.375,-52.7938 476.629,-17.2119 474.445,0.557315 502.786,68.6785 540.811,111.245 549.257,113.652 611.288,110.466 621.679,110.165 645.327,111.067 662.811,113.298 673.061,115.294 681.231,117.068 685.425,118.073 704.282,123.437 704.972,123.649 719.841,128.869 725.619,131.283 730.098,129.197 742.269,124.367 758.929,118.141 761.803,117.202 774.534,113.634 790.687,109.858 798.752,108.351 860.524,98.2536 915.642,116.171 916.479,116.465 921.085,118.199 932.449,114.217 943.374,110.672 1002.27,94.6295 1084.6,13.8817 1103.5,-3.87191 1103.79,-4.19898 1077.61,-45.3247 1003.84,-173.774 988.279,-172.028 971.083,-159 943.831,-135.117 929.483,-123.299 919.461,-116.655 858.033,-79.1611 838.483,-87.4401 837.624,-87.7582 819.493,-92.6186 818.966,-92.7319 801.688,-94.6499 801.295,-94.6729 794.52,-94.3602 783.351,-94.9627 782.46,-94.9175 777.558,-94.9125 775.921,-94.8257 773,-94.5178 766.445,-94.4799 765.772,-94.5092 762.662,-94.4839 761.157,-94.621 750.923,-94.4873 746.148,-94.6634 744.525,-94.6384 744.353,-94.6442 743.617,-94.6311 733.595,-94.9521 724.927,-95.6615 718.66,-96.7961 704.364,-100.829 691.028,-105.924 690.603,-105.718 685.129,-103.338 "/>
<!-- Коляда&#45;&gt;Клаустрофобия -->
<g id="edge1" class="edge"><title>Коляда&#45;&gt;Клаустрофобия</title>
<path fill="none" stroke="#555555" stroke-opacity="0.133333" d="M644.75,-461.35C610.31,-483.75 558.01,-517.77 523.69,-540.09"/>
<polygon fill="#555555" fill-opacity="0.133333" stroke="#555555" stroke-opacity="0.133333" points="521.415,-537.394 514.94,-545.78 525.231,-543.263 521.415,-537.394"/>
</g>
<!-- Коляда&#45;&gt;Курица -->
<g id="edge2" class="edge"><title>Коляда&#45;&gt;Курица</title>
<path fill="none" stroke="#555555" stroke-opacity="0.133333" d="M711.57,-462.09C754.8,-493.97 831.44,-550.49 873.09,-581.2"/>
<polygon fill="#555555" fill-opacity="0.133333" stroke="#555555" stroke-opacity="0.133333" points="871.047,-584.042 881.17,-587.17 875.207,-578.412 871.047,-584.042"/>
</g>
<!-- Коляда&#45;&gt;Девушка моей мечты -->
<g id="edge3" class="edge"><title>Коляда&#45;&gt;Девушка моей мечты</title>
<path fill="none" stroke="#555555" stroke-opacity="0.133333" d="M687.78,-464.82C703.38,-515.63 737.6,-627.08 753.59,-679.13"/>
<polygon fill="#555555" fill-opacity="0.133333" stroke="#555555" stroke-opacity="0.133333" points="750.25,-680.177 756.53,-688.71 756.942,-678.123 750.25,-680.177"/>
</g>
<!-- Коляда&#45;&gt;Нюня -->
<g id="edge4" class="edge"><title>Коляда&#45;&gt;Нюня</title>
<path fill="none" stroke="#555555" stroke-opacity="0.133333" d="M670.39,-464.56C651.47,-517.21 608.71,-636.13 589.39,-689.87"/>
<polygon fill="#555555" fill-opacity="0.133333" stroke="#555555" stroke-opacity="0.133333" points="586.05,-688.816 585.96,-699.41 592.637,-691.184 586.05,-688.816"/>
</g>
<!-- Коляда&#45;&gt;Наташина мечта -->
<g id="edge5" class="edge"><title>Коляда&#45;&gt;Наташина мечта</title>
<path fill="none" stroke="#555555" stroke-opacity="0.133333" d="M672.74,-412.08C658.95,-359.73 628.35,-243.56 614.25,-190.03"/>
<polygon fill="#555555" fill-opacity="0.133333" stroke="#555555" stroke-opacity="0.133333" points="617.592,-188.978 611.66,-180.2 610.823,-190.762 617.592,-188.978"/>
</g>
<!-- Коляда&#45;&gt;Старые песни о главном -->
<g id="edge6" class="edge"><title>Коляда&#45;&gt;Старые песни о главном</title>
<path fill="none" stroke="#555555" stroke-opacity="0.133333" d="M690.28,-412.55C711.68,-359.71 760.01,-240.4 781.87,-186.43"/>
<polygon fill="#555555" fill-opacity="0.133333" stroke="#555555" stroke-opacity="0.133333" points="785.123,-187.723 785.63,-177.14 778.634,-185.096 785.123,-187.723"/>
</g>
<!-- Коляда&#45;&gt;Безымянная звезда -->
<g id="edge7" class="edge"><title>Коляда&#45;&gt;Безымянная звезда</title>
<path fill="none" stroke="#555555" stroke-opacity="0.133333" d="M648.71,-415.3C612.29,-387.93 552.21,-342.77 515.56,-315.23"/>
<polygon fill="#555555" fill-opacity="0.133333" stroke="#555555" stroke-opacity="0.133333" points="517.316,-312.172 507.22,-308.96 513.11,-317.767 517.316,-312.172"/>
</g>
<!-- Коляда&#45;&gt;Концлагеристы -->
<g id="edge8" class="edge"><title>Коляда&#45;&gt;Концлагеристы</title>
<path fill="none" stroke="#555555" stroke-opacity="0.133333" d="M713.86,-415.94C751.02,-391.28 810.08,-352.07 847.11,-327.49"/>
<polygon fill="#555555" fill-opacity="0.133333" stroke="#555555" stroke-opacity="0.133333" points="849.177,-330.319 855.57,-321.87 845.304,-324.488 849.177,-330.319"/>
</g>
<!-- Коляда&#45;&gt;Пиковая дама -->
<g id="edge9" class="edge"><title>Коляда&#45;&gt;Пиковая дама</title>
<path fill="none" stroke="#555555" stroke-opacity="0.133333" d="M611.69,-438.14C551.5,-437.73 463.9,-437.13 402.21,-436.71"/>
<polygon fill="#555555" fill-opacity="0.133333" stroke="#555555" stroke-opacity="0.133333" points="402.184,-433.21 392.16,-436.64 402.135,-440.21 402.184,-433.21"/>
</g>
<!-- Коляда&#45;&gt;Маскарад -->
<g id="edge10" class="edge"><title>Коляда&#45;&gt;Маскарад</title>
<path fill="none" stroke="#555555" stroke-opacity="0.133333" d="M747.6,-439.28C800.99,-439.81 874.6,-440.54 925.39,-441.04"/>
<polygon fill="#555555" fill-opacity="0.133333" stroke="#555555" stroke-opacity="0.133333" points="925.516,-444.541 935.55,-441.14 925.585,-437.542 925.516,-444.541"/>
</g>
<!-- ЦСД&#45;&gt;Свингеры -->
<g id="edge11" class="edge"><title>ЦСД&#45;&gt;Свингеры</title>
<path fill="none" stroke="#555555" stroke-opacity="0.133333" d="M1107.8,-780.79C1123.9,-779 1141.8,-776.99 1158.4,-775.13"/>
<polygon fill="#555555" fill-opacity="0.133333" stroke="#555555" stroke-opacity="0.133333" points="1158.95,-778.59 1168.5,-774 1158.17,-771.634 1158.95,-778.59"/>
</g>
<!-- ЦСД&#45;&gt;Как Зоя гусей кормила -->
<g id="edge12" class="edge"><title>ЦСД&#45;&gt;Как Зоя гусей кормила</title>
<path fill="none" stroke="#555555" stroke-opacity="0.133333" d="M1009.3,-791.9C1004.7,-792.42 999.92,-792.96 995.08,-793.51"/>
<polygon fill="#555555" fill-opacity="0.133333" stroke="#555555" stroke-opacity="0.133333" points="994.6,-790.042 985.06,-794.65 995.392,-796.997 994.6,-790.042"/>
</g>
<!-- ЦСД&#45;&gt;Бес небес -->
<g id="edge13" class="edge"><title>ЦСД&#45;&gt;Бес небес</title>
<path fill="none" stroke="#555555" stroke-opacity="0.133333" d="M1056.3,-759.96C1053.7,-731.58 1049.7,-686.56 1047,-657.4"/>
<polygon fill="#555555" fill-opacity="0.133333" stroke="#555555" stroke-opacity="0.133333" points="1050.45,-656.728 1046.1,-647.07 1043.48,-657.336 1050.45,-656.728"/>
</g>
<!-- ЦСД&#45;&gt;Дом у дороги -->
<g id="edge14" class="edge"><title>ЦСД&#45;&gt;Дом у дороги</title>
<path fill="none" stroke="#555555" stroke-opacity="0.133333" d="M1062.3,-812.39C1066.2,-840.37 1072.3,-884.66 1076.4,-913.58"/>
<polygon fill="#555555" fill-opacity="0.133333" stroke="#555555" stroke-opacity="0.133333" points="1072.98,-914.414 1077.8,-923.85 1079.92,-913.469 1072.98,-914.414"/>
</g>
<!-- Молодежный театр на Булаке&#45;&gt;Скамейка -->
<g id="edge15" class="edge"><title>Молодежный театр на Булаке&#45;&gt;Скамейка</title>
<path fill="none" stroke="#555555" stroke-opacity="0.133333" d="M633.49,-825.16C633.65,-825.16 633.81,-825.16 633.98,-825.16"/>
<polygon fill="#555555" fill-opacity="0.133333" stroke="#555555" stroke-opacity="0.133333" points="631.04,-828.66 641.04,-825.16 631.04,-821.66 631.04,-828.66"/>
</g>
<!-- Волхонка&#45;&gt;Пиковая дама -->
<g id="edge16" class="edge"><title>Волхонка&#45;&gt;Пиковая дама</title>
<path fill="none" stroke="#555555" stroke-opacity="0.133333" d="M174.02,-436.67C200.82,-436.59 230.05,-436.5 255.82,-436.42"/>
<polygon fill="#555555" fill-opacity="0.133333" stroke="#555555" stroke-opacity="0.133333" points="255.901,-439.92 265.89,-436.39 255.88,-432.92 255.901,-439.92"/>
</g>
<!-- Teatr Slaski&#45;&gt;Женитьба -->
<g id="edge17" class="edge"><title>Teatr Slaski&#45;&gt;Женитьба</title>
<path fill="none" stroke="#555555" stroke-opacity="0.133333" d="M387.65,-684.16C387.81,-684.16 387.97,-684.16 388.13,-684.16"/>
<polygon fill="#555555" fill-opacity="0.133333" stroke="#555555" stroke-opacity="0.133333" points="385.17,-687.66 395.17,-684.16 385.17,-680.66 385.17,-687.66"/>
</g>
<!-- Ангажемент (Тюмень)&#45;&gt;Край -->
<g id="edge18" class="edge"><title>Ангажемент (Тюмень)&#45;&gt;Край</title>
<path fill="none" stroke="#555555" stroke-opacity="0.133333" d="M892.01,-26.163C892.17,-26.163 892.34,-26.163 892.51,-26.163"/>
<polygon fill="#555555" fill-opacity="0.133333" stroke="#555555" stroke-opacity="0.133333" points="889.72,-29.6631 899.72,-26.163 889.72,-22.6631 889.72,-29.6631"/>
</g>
<!-- Коляда -->
<g id="node1" class="node"><title>Коляда</title>
<text text-anchor="middle" x="679.73" y="-432.3" font-family="Helvetica,sans-Serif" font-weight="bold" font-size="26.00">Коляда</text>
</g>
<!-- Клаустрофобия -->
<g id="node2" class="node"><title>Клаустрофобия</title>
<text text-anchor="middle" x="489.06" y="-558.92" font-family="Helvetica,sans-Serif" font-weight="bold" font-size="14.00">Клаустрофобия</text>
</g>
<!-- Курица -->
<g id="node3" class="node"><title>Курица</title>
<text text-anchor="middle" x="901.98" y="-598.81" font-family="Helvetica,sans-Serif" font-weight="bold" font-size="14.00">Курица</text>
</g>
<!-- Девушка моей мечты -->
<g id="node4" class="node"><title>Девушка моей мечты</title>
<text text-anchor="middle" x="762.12" y="-703.23" font-family="Helvetica,sans-Serif" font-weight="bold" font-size="14.00">Девушка моей мечты</text>
</g>
<!-- Нюня -->
<g id="node5" class="node"><title>Нюня</title>
<text text-anchor="middle" x="579.59" y="-713.44" font-family="Helvetica,sans-Serif" font-weight="bold" font-size="14.00">Нюня</text>
</g>
<!-- Наташина мечта -->
<g id="node6" class="node"><title>Наташина мечта</title>
<text text-anchor="middle" x="606.87" y="-158.33" font-family="Helvetica,sans-Serif" font-weight="bold" font-size="14.00">Наташина мечта</text>
</g>
<!-- Старые песни о главном -->
<g id="node7" class="node"><title>Старые песни о главном</title>
<text text-anchor="middle" x="792.98" y="-155.3" font-family="Helvetica,sans-Serif" font-weight="bold" font-size="14.00">Старые песни о главном</text>
</g>
<!-- Безымянная звезда -->
<g id="node8" class="node"><title>Безымянная звезда</title>
<text text-anchor="middle" x="484.01" y="-287.83" font-family="Helvetica,sans-Serif" font-weight="bold" font-size="14.00">Безымянная звезда</text>
</g>
<!-- Концлагеристы -->
<g id="node9" class="node"><title>Концлагеристы</title>
<text text-anchor="middle" x="880.93" y="-301.34" font-family="Helvetica,sans-Serif" font-weight="bold" font-size="14.00">Концлагеристы</text>
</g>
<!-- Пиковая дама -->
<g id="node10" class="node"><title>Пиковая дама</title>
<text text-anchor="middle" x="329.03" y="-432.51" font-family="Helvetica,sans-Serif" font-weight="bold" font-size="14.00">Пиковая дама</text>
</g>
<!-- Маскарад -->
<g id="node11" class="node"><title>Маскарад</title>
<text text-anchor="middle" x="983.84" y="-437.92" font-family="Helvetica,sans-Serif" font-weight="bold" font-size="14.00">Маскарад</text>
</g>
<!-- ЦСД -->
<g id="node12" class="node"><title>ЦСД</title>
<text text-anchor="middle" x="1058.7" y="-779.99" font-family="Helvetica,sans-Serif" font-weight="bold" font-size="26.00">ЦСД</text>
</g>
<!-- Свингеры -->
<g id="node13" class="node"><title>Свингеры</title>
<text text-anchor="middle" x="1215.4" y="-765.07" font-family="Helvetica,sans-Serif" font-weight="bold" font-size="14.00">Свингеры</text>
</g>
<!-- Как Зоя гусей кормила -->
<g id="node14" class="node"><title>Как Зоя гусей кормила</title>
<text text-anchor="middle" x="899.74" y="-800.63" font-family="Helvetica,sans-Serif" font-weight="bold" font-size="14.00">Как Зоя гусей кормила</text>
</g>
<!-- Бес небес -->
<g id="node15" class="node"><title>Бес небес</title>
<text text-anchor="middle" x="1044.5" y="-625.3" font-family="Helvetica,sans-Serif" font-weight="bold" font-size="14.00">Бес небес</text>
</g>
<!-- Дом у дороги -->
<g id="node16" class="node"><title>Дом у дороги</title>
<text text-anchor="middle" x="1080.3" y="-938.51" font-family="Helvetica,sans-Serif" font-weight="bold" font-size="14.00">Дом у дороги</text>
</g>
<!-- Молодежный театр на Булаке -->
<g id="node17" class="node"><title>Молодежный театр на Булаке</title>
<text text-anchor="middle" x="387.07" y="-818.86" font-family="Helvetica,sans-Serif" font-weight="bold" font-size="26.00">Молодежный театр на Булаке</text>
</g>
<!-- Скамейка -->
<g id="node18" class="node"><title>Скамейка</title>
<text text-anchor="middle" x="689.27" y="-821.46" font-family="Helvetica,sans-Serif" font-weight="bold" font-size="14.00">Скамейка</text>
</g>
<!-- Волхонка -->
<g id="node19" class="node"><title>Волхонка</title>
<text text-anchor="middle" x="86.974" y="-430.63" font-family="Helvetica,sans-Serif" font-weight="bold" font-size="26.00">Волхонка</text>
</g>
<!-- Teatr Slaski -->
<g id="node20" class="node"><title>Teatr Slaski</title>
<text text-anchor="middle" x="287.7" y="-677.86" font-family="Helvetica,sans-Serif" font-weight="bold" font-size="26.00">Teatr Slaski</text>
</g>
<!-- Женитьба -->
<g id="node21" class="node"><title>Женитьба</title>
<text text-anchor="middle" x="444.82" y="-680.46" font-family="Helvetica,sans-Serif" font-weight="bold" font-size="14.00">Женитьба</text>
</g>
<!-- Ангажемент (Тюмень) -->
<g id="node22" class="node"><title>Ангажемент (Тюмень)</title>
<text text-anchor="middle" x="704.38" y="-19.863" font-family="Helvetica,sans-Serif" font-weight="bold" font-size="26.00">Ангажемент (Тюмень)</text>
</g>
<!-- Край -->
<g id="node23" class="node"><title>Край</title>
<text text-anchor="middle" x="930.34" y="-22.463" font-family="Helvetica,sans-Serif" font-weight="bold" font-size="14.00">Край</text>
</g>
</g>
</svg>
