<?xml version="1.0" encoding="UTF-8" standalone="no"?>
<!DOCTYPE svg PUBLIC "-//W3C//DTD SVG 1.1//EN"
 "http://www.w3.org/Graphics/SVG/1.1/DTD/svg11.dtd">
<!-- Generated by graphviz version 2.40.1 (20161225.0304)
 -->
<!-- Title: G Pages: 1 -->
<svg width="1366pt" height="1384pt"
 viewBox="0.00 0.00 1366.36 1383.86" xmlns="http://www.w3.org/2000/svg" xmlns:xlink="http://www.w3.org/1999/xlink">
<g id="graph0" class="graph" transform="scale(1 1) rotate(0) translate(98.1569 1279.2559)">
<title>G</title>
<polygon fill="#dae2ff" stroke="transparent" points="-98.1569,104.6069 -98.1569,-1279.2559 1268.2,-1279.2559 1268.2,104.6069 -98.1569,104.6069"/>
<polygon fill="#dbd0df" stroke="#dbd0df" points="1120.5269,-553.0277 1124.2711,-557.181 1132.7732,-566.18 1135.9108,-569.6335 1133.7285,-581.0494 1129.3477,-607.0262 1128.9204,-608.265 1060.783,-636.2373 978.8328,-622.4646 978.7265,-622.4522 968.377,-621.7746 960.6433,-621.6667 956.8268,-621.81 956.5133,-621.838 946.3064,-621.6625 943.7328,-621.3438 938.4612,-621.2361 934.8195,-621.3492 930.9471,-621.2638 923.6171,-621.8594 922.1152,-621.9011 915.2391,-621.3592 915.7422,-584.5016 921.051,-548.9592 921.0275,-548.9537 921.0275,-548.9537 921.051,-548.9592 915.7422,-584.5016 915.2391,-621.3592 908.1934,-621.5328 904.6998,-621.4328 901.0861,-621.5157 900.5046,-621.4982 849.3767,-622.5853 832.2858,-615.0071 823.8442,-610.5273 813.5443,-604.6099 811.4483,-605.8504 810.7396,-606.2399 794.3468,-613.9288 790.5357,-615.5565 729.224,-639.2032 729.0318,-639.285 724.7087,-641.3043 705.3828,-651.1396 705.3827,-651.1396 694.0771,-658.2515 694.8089,-678.8824 695.8596,-694.3044 692.2252,-698.5991 679.9404,-712.1943 664.7693,-727.7451 626.5197,-775.3728 598.8757,-806.1888 596.6039,-808.913 592.3365,-808.3505 585.6631,-807.7087 570.4263,-807.3276 570.0303,-807.2884 566.7833,-807.0829 566.5461,-781.4784 562.7587,-719.0122 569.1757,-719.0122 575.4601,-714.7937 574.5806,-713.6331 569.3084,-710.2552 569.3084,-710.2552 574.5806,-713.6331 575.4601,-714.7937 569.1757,-719.0122 562.7587,-719.0122 566.5461,-781.4784 566.7833,-807.0829 561.6348,-807.1244 555.2283,-807.4053 548.985,-807.4476 548.9298,-807.4519 546.1264,-807.5673 538.8748,-807.5975 537.1047,-807.6681 532.5931,-807.681 527.7635,-807.5165 527.4904,-807.4971 526.2238,-807.4524 510.9019,-806.3448 508.9229,-806.129 507.3204,-807.3537 445.8662,-847.5227 429.0763,-844.3185 414.9084,-842.3616 406.5005,-841.6517 406.8053,-830.2689 411.8024,-776.0939 417.5323,-772.0317 417.2455,-771.5916 411.6806,-767.5519 411.6806,-767.5519 417.2455,-771.5916 417.5323,-772.0317 411.8024,-776.0939 406.8053,-830.2689 406.5005,-841.6517 403.2635,-841.7235 402.0479,-841.8155 396.3314,-841.9679 391.9996,-841.8707 388.7011,-841.6343 379.3414,-841.4655 371.0051,-840.4987 367.9125,-839.9887 360.0108,-838.2958 359.3545,-838.9442 353.1901,-844.4875 343.392,-852.4274 291.1669,-885.3755 290.4116,-885.915 278.0389,-895.8623 274.8058,-898.7256 272.511,-901.164 263.162,-910.2346 257.2228,-915.5532 254.7908,-917.8942 253.3864,-919.3437 247.614,-926.1827 247.6035,-926.1944 240.0202,-826.3406 246.0784,-830.2209 252.3152,-830.2209 258.4661,-826.0287 258.497,-825.9877 257.1919,-824.2449 252.8028,-821.5428 252.8028,-821.5428 257.1919,-824.2449 258.497,-825.9877 258.4661,-826.0287 252.3152,-830.2209 246.0784,-830.2209 240.0202,-826.3406 247.6035,-926.1944 225.5591,-952.2538 226.1561,-932.4017 226.1561,-932.4017 225.5591,-952.2538 219.6217,-960.4344 216.2127,-961.499 215.1852,-883.0093 215.1852,-883.0093 216.2127,-961.499 202.7183,-966.403 158.4468,-983.6088 149.6143,-977.3847 70.466,-864.3976 64.2113,-855.8878 65.9512,-821.4498 86.2786,-808.688 120.9928,-784.3051 123.6302,-782.5914 127.911,-690.2599 133.5051,-692.1726 133.5051,-692.1726 127.911,-690.2599 123.6302,-782.5914 120.9928,-784.3051 86.2786,-808.688 65.9512,-821.4498 41.2273,-782.4924 27.7186,-758.5811 6.2139,-695.3596 -4.0667,-669.7389 -9.7794,-656.4576 -22.7655,-649.7205 -31.7301,-643.2468 -44.1824,-632.1867 -69.7983,-588.3712 -82.4364,-553.9406 -88.5793,-538.4291 -74.7,-513.3322 28.9257,-522.7416 39.6761,-519.8183 42.4087,-460.7293 46.3679,-525.0725 47.1906,-526.5049 51.4481,-526.5049 52.0848,-526.7213 57.9982,-526.7213 58.2428,-526.6379 63.8136,-526.6379 64.0734,-526.5481 70.496,-530.9462 76.7123,-530.9462 81.6083,-527.7469 82.6734,-526.2219 76.209,-521.7617 70.6881,-521.7617 70.6881,-521.7617 76.209,-521.7617 82.6734,-526.2219 81.6083,-527.7469 76.7123,-530.9462 70.496,-530.9462 64.0734,-526.5481 63.8136,-526.6379 58.2428,-526.6379 57.9982,-526.7213 52.0848,-526.7213 51.4481,-526.5049 47.1906,-526.5049 46.3679,-525.0725 42.4087,-460.7293 39.6761,-519.8183 28.9257,-522.7416 -74.7,-513.3322 -46.6907,-455.5117 -5.3672,-414.0838 -5.0699,-391.7953 -5.1768,-384.9438 -7.858,-325.172 -7.4392,-320.4819 -5.3385,-285.872 9.6917,-279.4369 30.5806,-271.126 50.2613,-265.1419 95.6848,-252.7782 100.3046,-251.378 107.2347,-253.404 113.0023,-254.9113 121.644,-256.9022 127.4449,-258.0578 135.8662,-259.4733 141.5575,-260.0763 147.317,-260.5083 157.5361,-260.9579 158.0631,-260.9484 169.1332,-272.0389 172.2151,-275.5994 171.0468,-328.9699 166.3438,-365.6537 168.433,-366.36 163.2305,-413.8568 161.858,-455.5911 179.6631,-463.153 218.2119,-482.6917 216.9505,-507.8857 217.1686,-541.1 251.9545,-541.1 303.7809,-545.8811 303.7809,-545.8811 251.9545,-541.1 217.1686,-541.1 216.9505,-507.8857 218.2119,-482.6917 179.6631,-463.153 161.858,-455.5911 163.2305,-413.8568 168.433,-366.36 166.3438,-365.6537 171.0468,-328.9699 172.2151,-275.5994 169.1332,-272.0389 158.0631,-260.9484 165.7037,-254.0371 173.6841,-247.7332 186.0923,-238.638 192.4395,-234.732 203.9728,-228.2971 205.1084,-227.7318 209.1564,-225.95 215.4845,-223.5256 226.597,-219.9058 233.9998,-218.3558 244.2727,-216.7994 252.5543,-216.5078 254.7813,-216.2903 267.1682,-216.5284 268.139,-216.4866 271.752,-216.1062 274.2791,-216.1349 278.9572,-216.4594 279.947,-216.4057 291.8563,-216.45 293.1198,-216.5279 293.3181,-216.5516 293.2892,-217.3727 287.9833,-271.5703 282.4566,-273.4802 279.6604,-276.5303 281.9749,-279.0723 281.9749,-279.0723 279.6604,-276.5303 282.4566,-273.4802 287.9833,-271.5703 293.2892,-217.3727 293.3181,-216.5516 300.1301,-216.5248 302.052,-216.3987 307.4334,-216.669 310.2267,-216.6366 312.3232,-216.482 316.4605,-216.4178 321.7566,-216.6446 328.3321,-216.5174 333.49,-216.717 340.8232,-217.8495 367.5305,-223.5272 420.1693,-183.561 436.7268,-168.8026 443.6357,-161.7708 447.0246,-164.8046 448.2454,-165.7654 464.3739,-180.2116 477.7011,-189.675 475.1407,-266.7864 469.7623,-265.0254 463.0657,-267.4189 460.2767,-270.3687 463.109,-273.1284 468.8567,-275.0093 468.8567,-275.0093 463.109,-273.1284 460.2767,-270.3687 463.0657,-267.4189 469.7623,-265.0254 475.1407,-266.7864 477.7011,-189.675 478.2423,-190.0255 491.6055,-197.8882 496.4182,-200.4157 501.0985,-202.5827 505.647,-204.41 507.2831,-204.9681 518.0864,-208.0139 544.8901,-213.9368 553.9118,-216.4757 564.1392,-220.5944 570.6732,-223.6192 577.3616,-227.1166 586.7544,-232.5872 590.4274,-235.161 594.0707,-237.9405 593.2006,-253.2096 593.2636,-255.5218 592.8018,-285.3355 592.3087,-293.7987 591.3957,-302.8807 589.4598,-336.8512 619.8513,-358.9705 623.6625,-376.7845 628.6887,-406.273 630.9957,-416.7514 634.6331,-446.0631 638.7372,-465.2468 574.898,-535.1619 560.8148,-548.7381 559.904,-491.1174 555.4511,-432.45 555.4511,-432.45 559.904,-491.1174 560.8148,-548.7381 574.898,-535.1619 638.7372,-465.2468 674.5078,-472.9878 686.409,-474.4348 693.5245,-474.6238 699.9676,-475.1121 707.3975,-474.9655 707.4105,-542.3091 701.6926,-540.447 695.2298,-542.5988 692.408,-545.2797 690.7487,-545.2797 686.6664,-504.5596 683.2823,-545.2513 679.1189,-545.2513 678.425,-545.4847 677.9697,-545.917 675.8857,-546.8602 672.3324,-550.8481 540.4213,-571.0718 540.361,-571.1401 538.3419,-521.6002 531.3616,-432.3267 527.0253,-432.3267 527.0253,-432.3267 531.3616,-432.3267 538.3419,-521.6002 540.361,-571.1401 540.4213,-571.0718 672.3324,-550.8481 675.8857,-546.8602 677.9697,-545.917 678.425,-545.4847 679.1189,-545.2513 683.2823,-545.2513 686.6664,-504.5596 690.7487,-545.2797 692.408,-545.2797 695.2298,-542.5988 701.6926,-540.447 707.4105,-542.3091 707.3975,-474.9655 711.0148,-474.7216 711.4202,-474.6749 719.0143,-474.5457 721.1146,-474.6124 724.4282,-474.403 728.0972,-474.3503 734.6732,-474.9008 744.8712,-475.2665 815.5626,-481.243 819.5698,-476.2295 902.2264,-476.5885 903.2083,-476.6408 903.465,-501.4411 907.8261,-545.7101 907.8261,-545.7101 903.465,-501.4411 903.2083,-476.6408 907.4882,-476.428 911.5357,-476.4249 914.1544,-476.5511 914.4343,-476.5784 926.6196,-476.5063 928.0596,-476.6399 933.3181,-476.8542 941.1114,-476.7683 941.6235,-476.7362 943.1054,-476.7885 948.5013,-476.702 950.4824,-476.465 954.6914,-476.3754 969.2865,-476.7835 969.3259,-476.7866 971.0621,-476.741 971.419,-476.7491 973.5699,-476.9032 976.7471,-476.967 987.2432,-476.6358 996.9592,-477.2823 997.742,-477.3726 1002.1174,-478.0921 1014.7354,-480.7928 1015.2853,-480.9372 1024.5599,-483.8305 1041.5135,-490.7982 1049.308,-494.7475 1055.8427,-498.6974 1064.27,-504.2107 1068.885,-507.455 1081.4834,-517.5847 1093.8461,-528.1309 1097.7047,-531.9861 1104.3564,-537.9098 1120.5077,-553.0073 1120.5269,-553.0277 1120.5269,-553.0277"/>
<polygon fill="#d2c2cc" stroke="#d2c2cc" points="1207.4916,-976.5493 1201.4817,-1020.274 1197.5564,-1057.4246 1141.1475,-1080.4252 1106.3958,-1091.546 1092.3521,-1096.475 1092.6753,-1020.1832 1096.5616,-976.9598 1095.9211,-976.7496 1094.9017,-921.1955 1093.0978,-921.2067 1088.3544,-920.9363 1087.6113,-920.9404 1082.7117,-865.5337 1081.3549,-865.5337 1078.4274,-868.2485 1078.4274,-868.2485 1081.3549,-865.5337 1082.7117,-865.5337 1087.6113,-920.9404 1088.3544,-920.9363 1093.0978,-921.2067 1094.9017,-921.1955 1095.9211,-976.7496 1096.5616,-976.9598 1092.6753,-1020.1832 1092.3521,-1096.475 1082.3508,-1100.5946 1081.7379,-1100.8657 1079.1785,-1101.1863 1061.8899,-1104.2551 1063.0132,-1019.2144 1067.3099,-977.0692 1067.0448,-976.9835 1067.0448,-976.9835 1067.3099,-977.0692 1063.0132,-1019.2144 1061.8899,-1104.2551 1051.0215,-1106.7479 1049.1509,-1103.1364 1050.4086,-1045.3799 1050.4086,-1045.3799 1049.1509,-1103.1364 1051.0215,-1106.7479 1023.9158,-1132.392 956.2262,-1159.5963 945.9749,-1160.5574 945.3744,-1160.6304 930.0828,-1162.9193 929.5024,-1066.7267 933.7585,-1033.6019 938.1832,-1033.6019 938.4379,-1033.6936 945.7156,-1027.0582 944.6754,-1004.8192 955.2386,-1005.6312 961.491,-1007.056 964.2998,-1008.1147 971.9643,-1012.2176 978.1356,-1016.4741 986.7667,-1023.7529 986.7978,-1020.0203 990.8709,-977.0399 984.3375,-977.0399 982.8925,-913.1507 978.8188,-911.3583 972.1627,-907.5674 972.2624,-865.56 971.8076,-862.9861 936.7353,-866.3192 936.7353,-866.3192 971.8076,-862.9861 972.2624,-865.56 972.1627,-907.5674 978.8188,-911.3583 982.8925,-913.1507 984.3375,-977.0399 990.8709,-977.0399 986.7978,-1020.0203 986.7667,-1023.7529 978.1356,-1016.4741 971.9643,-1012.2176 964.2998,-1008.1147 961.491,-1007.056 955.2386,-1005.6312 944.6754,-1004.8192 945.7156,-1027.0582 938.4379,-1033.6936 938.1832,-1033.6019 933.7585,-1033.6019 929.5024,-1066.7267 930.0828,-1162.9193 920.2073,-1164.9493 908.1224,-1167.7711 907.5472,-1167.9374 901.6633,-1168.0083 894.6165,-1163.8503 829.4971,-1127.7467 827.2421,-1127.3815 821.2088,-1126.5763 805.4716,-1124.9255 805.6066,-1097.4611 799.4971,-1012.9103 805.8477,-1015.0811 812.838,-1012.6295 815.3825,-1010.1667 812.2855,-1007.1903 806.2385,-1005.2004 806.2385,-1005.2004 812.2855,-1007.1903 815.3825,-1010.1667 812.838,-1012.6295 805.8477,-1015.0811 799.4971,-1012.9103 805.6066,-1097.4611 805.4716,-1124.9255 793.0764,-1124.6919 784.1153,-1124.7798 723.1403,-1127.1235 708.9274,-1072.5291 702.7475,-1045.1567 698.3429,-1016.4343 697.76,-1013.3506 688.5478,-1007.2009 624.4745,-967.7662 630.8441,-924.148 631.1606,-920.7973 631.6292,-909.8752 632.2003,-906.0303 692.6944,-911.223 695.9735,-857.5137 695.9986,-857.5132 698.816,-857.2928 701.0108,-857.2473 705.5296,-916.5425 709.9099,-916.5425 716.2975,-857.4366 716.3047,-857.2874 720.6365,-857.1754 723.1772,-916.1159 728.7607,-912.4434 734.8454,-912.4434 740.8106,-916.3748 741.0874,-916.7392 746.0323,-916.7392 750.3284,-867.3625 750.4661,-857.2347 751.8046,-857.1097 756.4216,-857.2064 761.3614,-857.0182 763.9174,-857.0674 770.3459,-856.8113 770.3459,-856.8113 763.9174,-857.0674 761.3614,-857.0182 756.4216,-857.2064 751.8046,-857.1097 750.4661,-857.2347 750.3284,-867.3625 746.0323,-916.7392 741.0874,-916.7392 740.8106,-916.3748 734.8454,-912.4434 728.7607,-912.4434 723.1772,-916.1159 720.6365,-857.1754 716.3047,-857.2874 716.2975,-857.4366 709.9099,-916.5425 705.5296,-916.5425 701.0108,-857.2473 698.816,-857.2928 695.9986,-857.5132 695.9735,-857.5137 692.6944,-911.223 632.2003,-906.0303 634.7351,-879.5024 637.4656,-860.8047 600.8605,-813.8274 598.3919,-810.8901 596.6039,-808.913 598.8757,-806.1888 626.5197,-775.3728 664.7693,-727.7451 679.9404,-712.1943 692.2252,-698.5991 695.8596,-694.3044 701.935,-700.8267 702.447,-701.4156 706.3639,-705.355 712.9918,-711.57 715.8668,-714.7233 726.1565,-724.3584 731.9137,-729.2767 738.7877,-734.5853 743.8251,-738.057 746.5424,-739.7066 757.6451,-745.567 766.1697,-748.6725 774.8054,-751.1125 778.675,-751.8841 778.1452,-796.2381 784.0032,-791.1639 811.4536,-793.5686 847.8587,-792.3224 854.6355,-782.624 876.5799,-776.681 877.1486,-796.0919 875.4949,-850.9185 875.4949,-850.9185 877.1486,-796.0919 876.5799,-776.681 854.6355,-782.624 847.8587,-792.3224 811.4536,-793.5686 784.0032,-791.1639 778.1452,-796.2381 778.675,-751.8841 774.8054,-751.1125 766.1697,-748.6725 757.6451,-745.567 746.5424,-739.7066 743.8251,-738.057 738.7877,-734.5853 731.9137,-729.2767 726.1565,-724.3584 715.8668,-714.7233 712.9918,-711.57 706.3639,-705.355 702.447,-701.4156 701.935,-700.8267 695.8596,-694.3044 694.8089,-678.8824 694.0771,-658.2515 705.3827,-651.1396 705.3828,-651.1396 724.7087,-641.3043 729.0318,-639.285 729.224,-639.2032 790.5357,-615.5565 794.3468,-613.9288 810.7396,-606.2399 811.4483,-605.8504 813.5443,-604.6099 823.8442,-610.5273 832.2858,-615.0071 849.3767,-622.5853 900.5046,-621.4982 901.0861,-621.5157 904.6998,-621.4328 908.1934,-621.5328 915.2391,-621.3592 922.1152,-621.9011 923.6171,-621.8594 930.9471,-621.2638 934.8195,-621.3492 934.9194,-685.3481 940.1542,-688.8914 940.9009,-690.0054 940.708,-690.2929 934.9827,-694.373 934.9827,-694.373 940.708,-690.2929 940.9009,-690.0054 940.1542,-688.8914 934.9194,-685.3481 934.8195,-621.3492 938.4612,-621.2361 943.7328,-621.3438 946.3064,-621.6625 956.5133,-621.838 956.5383,-625.0257 956.5383,-625.0257 956.5133,-621.838 956.8268,-621.81 960.6433,-621.6667 968.377,-621.7746 978.7265,-622.4522 978.8328,-622.4646 1060.783,-636.2373 1128.9204,-608.265 1164.3158,-701.0039 1165.782,-727.4666 1054.9292,-747.0724 1052.7258,-706.7211 1047.7946,-752.0869 1043.116,-752.0869 1039.2223,-666.0253 1036.1125,-669.8327 1024.7352,-681.6455 1018.3064,-687.6979 1018.7285,-751.9505 1012.8786,-746.4753 1012.8786,-746.4753 1018.7285,-751.9505 1018.3064,-687.6979 1024.7352,-681.6455 1036.1125,-669.8327 1039.2223,-666.0253 1043.116,-752.0869 1047.7946,-752.0869 1052.7258,-706.7211 1054.9292,-747.0724 1165.782,-727.4666 1167.0854,-743.0877 1168.7412,-757.9416 1232.047,-835.6755 1229.6526,-846.0808 1220.1024,-901.5887 1215.1302,-936.9372 1213.8486,-938.7009 1207.4916,-976.5493 1207.4916,-976.5493"/>
<polygon fill="#c5e2ce" stroke="#c5e2ce" points="704.7616,-341.5273 701.1155,-341.3418 698.1976,-341.0298 686.1465,-341.8277 678.9591,-342.7187 668.218,-344.6689 619.8513,-358.9705 623.6625,-376.7845 628.6887,-406.273 630.9957,-416.7514 634.6331,-446.0631 638.7372,-465.2468 674.5078,-472.9878 686.409,-474.4348 693.5245,-474.6238 699.9676,-475.1121 707.3975,-474.9655 711.0148,-474.7216 711.4202,-474.6749 719.0143,-474.5457 721.1146,-474.6124 724.4282,-474.403 728.0972,-474.3503 734.6732,-474.9008 744.8712,-475.2665 815.5626,-481.243 819.5698,-476.2295 902.2264,-476.5885 903.2083,-476.6408 907.4882,-476.428 911.5357,-476.4249 914.1544,-476.5511 914.4343,-476.5784 926.6196,-476.5063 928.0596,-476.6399 933.3181,-476.8542 941.1114,-476.7683 941.6235,-476.7362 943.1054,-476.7885 948.5013,-476.702 950.4824,-476.465 954.6914,-476.3754 969.2865,-476.7835 969.3259,-476.7866 971.0621,-476.741 971.419,-476.7491 973.5699,-476.9032 976.7471,-476.967 987.2432,-476.6358 996.9592,-477.2823 997.742,-477.3726 1002.1174,-478.0921 1014.7354,-480.7928 1015.2853,-480.9372 1024.5599,-483.8305 1041.5135,-490.7982 1049.308,-494.7475 1055.8427,-498.6974 1064.27,-504.2107 1068.885,-507.455 1081.4834,-517.5847 1093.8461,-528.1309 1097.7047,-531.9861 1104.3564,-537.9098 1120.5077,-553.0073 1120.5269,-553.0277 1124.2711,-557.181 1132.7732,-566.18 1135.9108,-569.6335 1141.0111,-565.8248 1238.4197,-496.0092 1248.2459,-433.45 1249.9462,-424.4535 1257.3584,-390.9334 1252.6396,-378.7463 1240.7875,-341.7036 1206.8533,-301.629 1143.3136,-330.4056 1134.5674,-333.8713 1127.6155,-336.2227 1121.3461,-337.9766 1114.7466,-339.4361 1106.2256,-340.8206 1095.5906,-341.3062 1095.265,-341.3022 1094.4354,-341.2435 1091.4652,-341.2063 1085.8123,-340.8045 1083.1627,-340.7712 1078.3643,-340.9912 1077.9738,-341.032 1070.3566,-340.9365 1070.1034,-340.9185 1066.7573,-340.8766 1059.4182,-341.2145 1058.4541,-341.3154 1055.197,-341.2749 1051.2794,-340.9968 1046.2074,-341.2306 1041.8356,-341.176 1038.6802,-340.9514 1031.1423,-341.2993 1028.1449,-341.0865 1025.0145,-341.0476 1021.4382,-340.7937 1016.8149,-340.7365 1013.3274,-340.8964 1011.7271,-341.0632 1010.3638,-341.0464 1007.1864,-341.192 999.8105,-341.1011 999.1778,-341.0565 996.5432,-341.0241 994.7064,-341.1085 988.1311,-341.0276 984.6677,-341.3898 975.5164,-341.2773 975.4019,-341.2692 973.6139,-341.3516 967.4988,-341.2763 960.6442,-340.7894 954.8488,-341.399 950.0379,-341.34 947.5791,-341.1653 938.1476,-341.0496 937.5457,-341.0774 936.5497,-341.1814 930.1959,-341.1045 928.5622,-341.2749 918.2078,-341.1489 918.0431,-341.1662 913.538,-341.3752 906.4257,-341.2885 906.1783,-341.3 901.3052,-341.2409 900.2155,-341.2913 898.0384,-341.265 886.0497,-341.8203 820.1113,-352.536 805.9657,-333.7712 740.6218,-340.9018 735.5255,-341.174 732.1675,-341.1666 731.9528,-341.1542 723.4017,-341.1505 721.5618,-341.256 720.3173,-341.2577 714.6022,-340.9448 714.2706,-340.9458 704.7616,-341.5273 704.7616,-341.5273"/>
<polygon fill="#d1e2cd" stroke="#d1e2cd" points="547.0556,93.5485 532.6769,89.896 450.8086,74.059 434.8664,60.38 399.1605,-16.4108 397.6208,-19.3565 412.5669,-44.2664 444.7607,-101.2147 527.4203,-90.2766 543.0391,-89.0975 546.3474,-89.2272 548.2633,-89.1958 549.4139,-89.2429 558.4753,-89.1087 559.151,-89.061 565.905,-89.36 572.8323,-88.892 574.1949,-88.8785 579.716,-89.1407 580.2629,-89.1362 588.7347,-88.5944 593.6784,-88.0036 602.7586,-86.4128 614.1131,-83.1586 617.158,-82.1185 618.0078,-82.492 664.3532,-100.1854 665.1216,-100.5219 673.4077,-104.6341 686.6156,-111.9491 690.0258,-114.0224 692.2055,-112.3503 693.3512,-111.6087 705.6162,-104.3567 720.2084,-97.4211 732.7705,-92.9423 734.3526,-92.4738 736.1219,-92.0539 750.1461,-89.5372 756.0432,-89.1743 767.2338,-89.1421 768.585,-89.0577 769.9597,-88.8897 785.9302,-85.965 794.846,-83.2693 807.6648,-77.8386 808.6074,-77.3837 822.2349,-69.9675 830.6595,-64.3872 836.5124,-59.796 844.2909,-54.2232 856.6415,-43.9811 865.0328,-36.5639 882.6292,-18.0321 885.2561,-14.8193 883.0203,-10.0355 870.1279,24.5608 826.6766,79.1165 770.9959,91.372 754.3887,88.3917 752.6924,88.1376 740.5244,87.0298 732.0075,86.506 727.7898,86.3714 726.3998,86.3681 712.0176,86.7597 702.2519,87.6026 687.8699,89.6949 673.3572,92.6608 670.5828,93.3897 670.4955,93.4152 660.0063,96.7963 614.1954,89.7195 575.1918,98.5166 567.7902,100.6069 564.967,99.5486 549.9697,94.376 547.0556,93.5485 547.0556,93.5485"/>
<polygon fill="#b6d1df" stroke="#b6d1df" points="23.6129,-154.6431 18.529,-158.6363 9.6917,-279.4369 -5.3385,-285.872 -59.4793,-246.4842 -90.3934,-165.3015 -94.1569,-156.8938 -89.3486,-129.7722 -87.5281,-126.43 -66.6947,-85.3591 -53.5987,-68.6604 2.3352,-34.86 18.4198,-37.4393 38.5935,-39.4877 99.8559,-40.2766 103.9006,-38.0345 155.842,-37.4326 159.1328,-37.6022 175.1711,-37.9591 185.9424,-37.2493 199.9834,-35.9107 203.5796,-35.3575 219.2901,-32.478 224.2719,-30.978 243.6193,-35.9293 246.7076,-36.6255 247.3483,-36.7506 258.1383,-38.2169 258.9468,-38.3027 272.8289,-39.3626 281.6945,-39.7742 295.825,-39.5859 300.0291,-39.2798 300.4242,-39.2392 311.6683,-37.7481 319.873,-36.1673 332.7651,-33.2945 341.8361,-31.0035 342.5462,-30.8032 365.3041,-23.7071 397.6208,-19.3565 412.5669,-44.2664 444.7607,-101.2147 444.2901,-124.0574 442.8502,-152.16 443.6357,-161.7708 436.7268,-168.8026 420.1693,-183.561 367.5305,-223.5272 340.8232,-217.8495 333.49,-216.717 328.3321,-216.5174 321.7566,-216.6446 316.4605,-216.4178 312.3232,-216.482 310.2267,-216.6366 307.4334,-216.669 302.052,-216.3987 300.1301,-216.5248 293.3181,-216.5516 293.1198,-216.5279 291.8563,-216.45 279.947,-216.4057 278.9572,-216.4594 274.2791,-216.1349 271.752,-216.1062 268.139,-216.4866 267.1682,-216.5284 254.7813,-216.2903 252.5543,-216.5078 244.2727,-216.7994 233.9998,-218.3558 226.597,-219.9058 215.4845,-223.5256 209.1564,-225.95 205.1084,-227.7318 203.9728,-228.2971 192.4395,-234.732 186.0923,-238.638 173.6841,-247.7332 165.7037,-254.0371 158.0631,-260.9484 157.5361,-260.9579 147.317,-260.5083 141.5575,-260.0763 135.8662,-259.4733 127.4449,-258.0578 121.644,-256.9022 113.0023,-254.9113 107.2347,-253.404 100.3046,-251.378 95.6848,-252.7782 50.2613,-265.1419 30.5806,-271.126 9.6917,-279.4369 18.529,-158.6363 23.6129,-154.6431 23.6323,-154.6051 30.439,-157.0002 30.439,-157.0002 23.6323,-154.6051 22.9063,-151.162 25.1551,-148.752 30.1343,-147.124 30.1343,-147.124 25.1551,-148.752 22.9063,-151.162 23.6323,-154.6051 23.6129,-154.6431 23.6129,-154.6431"/>
<polygon fill="#ebd1cb" stroke="#ebd1cb" points="304.7191,-1196.5369 299.7737,-1194.2339 180.7136,-1142.6432 166.012,-1094.1487 161.8743,-1082.541 160.4978,-1026.6271 158.4468,-983.6088 202.7183,-966.403 216.2127,-961.499 219.6217,-960.4344 225.5591,-952.2538 247.6035,-926.1944 247.614,-926.1827 253.3864,-919.3437 254.7908,-917.8942 257.2228,-915.5532 263.162,-910.2346 272.511,-901.164 274.8058,-898.7256 278.0389,-895.8623 290.4116,-885.915 291.1669,-885.3755 343.392,-852.4274 353.1901,-844.4875 359.3545,-838.9442 360.0108,-838.2958 367.9125,-839.9887 371.0051,-840.4987 379.3414,-841.4655 388.7011,-841.6343 391.9996,-841.8707 396.3314,-841.9679 402.0479,-841.8155 403.2635,-841.7235 406.5005,-841.6517 414.9084,-842.3616 429.0763,-844.3185 445.8662,-847.5227 507.3204,-807.3537 508.9229,-806.129 510.9019,-806.3448 526.2238,-807.4524 527.4904,-807.4971 527.7635,-807.5165 527.4043,-900.0023 521.3509,-900.0023 520.8032,-954.4616 513.9916,-900.3293 509.7116,-900.3293 509.1916,-900.1475 509.1916,-900.1475 509.7116,-900.3293 513.9916,-900.3293 520.8032,-954.4616 521.3509,-900.0023 527.4043,-900.0023 527.7635,-807.5165 532.5931,-807.681 537.1047,-807.6681 538.8748,-807.5975 546.1264,-807.5673 548.9298,-807.4519 548.985,-807.4476 555.2283,-807.4053 561.6348,-807.1244 566.7833,-807.0829 570.0303,-807.2884 570.4263,-807.3276 585.6631,-807.7087 592.3365,-808.3505 596.6039,-808.913 598.3919,-810.8901 600.8605,-813.8274 637.4656,-860.8047 634.7351,-879.5024 632.2003,-906.0303 631.6292,-909.8752 631.1606,-920.7973 630.8441,-924.148 624.4745,-967.7662 688.5478,-1007.2009 697.76,-1013.3506 698.3429,-1016.4343 702.7475,-1045.1567 624.3993,-1050.4978 613.2876,-1047.2865 607.2101,-1052.8374 607.6771,-1055.2484 607.0942,-1055.8917 607.0942,-1055.8917 607.6771,-1055.2484 607.2101,-1052.8374 613.2876,-1047.2865 624.3993,-1050.4978 702.7475,-1045.1567 708.9274,-1072.5291 723.1403,-1127.1235 707.8104,-1143.3123 641.3985,-1189.058 640.7678,-1190.76 583.3053,-1253.9535 546.0063,-1269.2979 511.159,-1268.9833 497.1813,-1269.7211 486.5379,-1270.9417 470.6894,-1273.2491 462.2427,-1275.2559 460.3754,-1275.0601 459.7894,-1275.0159 440.463,-1274.6825 437.5513,-1274.8027 424.7647,-1272.1105 389.6068,-1265.8015 323.5765,-1217.6099 314.6375,-1205.1328 312.7102,-1200.7743 312.6038,-1200.7144 313.0194,-1072.1914 319.276,-1072.1914 319.9624,-1071.9509 322.2808,-1071.9509 325.2758,-1075.0781 331.3751,-1077.1799 329.1268,-1181.1844 339.1507,-1170.5099 341.5582,-1168.1151 349.555,-1160.7 350.674,-1159.3976 355.0858,-1154.6495 356.4641,-1127.0107 356.4641,-1127.0107 355.0858,-1154.6495 350.674,-1159.3976 349.555,-1160.7 341.5582,-1168.1151 339.1507,-1170.5099 329.1268,-1181.1844 331.3751,-1077.1799 325.2758,-1075.0781 322.2808,-1071.9509 319.9624,-1071.9509 319.276,-1072.1914 313.0194,-1072.1914 312.6038,-1200.7144 305.1043,-1196.7288 304.7191,-1196.5369 304.7191,-1196.5369"/>
<polygon fill="#fdd9a7" stroke="#fdd9a7" points="592.3087,-293.7987 592.8018,-285.3355 593.2636,-255.5218 593.2006,-253.2096 594.0707,-237.9405 603.2463,-232.2295 604.715,-231.3993 610.2648,-228.5668 619.4006,-224.4057 669.9547,-204.2167 676.3237,-200.9393 688.9702,-193.6844 689.9448,-193.0706 693.8931,-195.7983 698.8794,-198.9404 703.8116,-201.7525 712.847,-206.3677 721.4119,-209.726 732.0306,-213.2608 763.3763,-221.7929 768.6349,-223.5271 775.2933,-226.1085 786.5088,-231.1037 805.8939,-243.1199 806.5408,-243.6325 822.9773,-232.4707 842.8059,-222.5672 848.1079,-220.8835 861.0195,-217.5373 866.1672,-216.5151 874.0798,-215.4204 882.042,-215.2743 885.1175,-215.0376 893.3072,-215.3947 899.5376,-214.9346 904.7745,-215.1799 909.7551,-214.8297 917.4225,-215.2152 921.4904,-215.1814 923.493,-215.2847 926.1299,-215.114 933.5977,-215.0771 933.8453,-215.0906 934.1213,-215.1222 934.84,-215.1626 939.2042,-215.1556 941.778,-215.0014 949.7909,-215.0017 952.996,-214.815 964.4989,-213.4715 967.034,-213.0293 973.8909,-211.436 976.7733,-210.6005 981.1359,-209.0811 984.4189,-207.7436 996.5729,-202.0553 1001.9689,-199.2176 1014.889,-191.6738 1023.0788,-185.4894 1028.7362,-180.8844 1038.8873,-172.0227 1041.8973,-169.2249 1046.1566,-164.7561 1058.5311,-152.5936 1059.6095,-151.4184 1062.7563,-147.8074 1069.813,-140.9632 1078.6344,-143.7038 1082.21,-144.6297 1094.9784,-147.2877 1178.2257,-162.4857 1180.7694,-163.7943 1200.67,-247.4845 1202.3599,-275.7056 1203.864,-285.4883 1206.8533,-301.629 1143.3136,-330.4056 1134.5674,-333.8713 1127.6155,-336.2227 1121.3461,-337.9766 1114.7466,-339.4361 1106.2256,-340.8206 1095.5906,-341.3062 1095.265,-341.3022 1094.4354,-341.2435 1091.4652,-341.2063 1085.8123,-340.8045 1083.1627,-340.7712 1078.3643,-340.9912 1077.9738,-341.032 1070.3566,-340.9365 1070.1034,-340.9185 1066.7573,-340.8766 1059.4182,-341.2145 1058.4541,-341.3154 1055.197,-341.2749 1051.2794,-340.9968 1046.2074,-341.2306 1041.8356,-341.176 1038.6802,-340.9514 1031.1423,-341.2993 1028.1449,-341.0865 1025.0145,-341.0476 1021.4382,-340.7937 1016.8149,-340.7365 1013.3274,-340.8964 1011.7271,-341.0632 1010.3638,-341.0464 1007.1864,-341.192 999.8105,-341.1011 999.1778,-341.0565 996.5432,-341.0241 994.7064,-341.1085 988.1311,-341.0276 984.6677,-341.3898 975.5164,-341.2773 975.4019,-341.2692 973.6139,-341.3516 967.4988,-341.2763 960.6442,-340.7894 954.8488,-341.399 950.0379,-341.34 947.5791,-341.1653 938.1476,-341.0496 937.5457,-341.0774 936.5497,-341.1814 930.1959,-341.1045 928.5622,-341.2749 918.2078,-341.1489 918.0431,-341.1662 913.538,-341.3752 906.4257,-341.2885 906.1783,-341.3 901.3052,-341.2409 900.2155,-341.2913 898.0384,-341.265 886.0497,-341.8203 820.1113,-352.536 805.9657,-333.7712 740.6218,-340.9018 735.5255,-341.174 732.1675,-341.1666 731.9528,-341.1542 723.4017,-341.1505 721.5618,-341.256 720.3173,-341.2577 714.6022,-340.9448 714.2706,-340.9458 704.7616,-341.5273 701.1155,-341.3418 698.1976,-341.0298 686.1465,-341.8277 685.7776,-278.3511 688.9381,-278.3511 691.0096,-280.3814 698.2389,-283.0014 698.2389,-283.0014 691.0096,-280.3814 688.9381,-278.3511 685.7776,-278.3511 686.1465,-341.8277 678.9591,-342.7187 668.218,-344.6689 619.8513,-358.9705 589.4598,-336.8512 591.3957,-302.8807 592.3087,-293.7987 592.3087,-293.7987"/>
<polygon fill="#fbb4ae" stroke="#fbb4ae" points="548.2633,-89.1958 546.3474,-89.2272 543.0391,-89.0975 527.4203,-90.2766 444.7607,-101.2147 444.2901,-124.0574 442.8502,-152.16 443.6357,-161.7708 447.0246,-164.8046 448.2454,-165.7654 464.3739,-180.2116 477.7011,-189.675 478.2423,-190.0255 491.6055,-197.8882 496.4182,-200.4157 501.0985,-202.5827 505.647,-204.41 507.2831,-204.9681 518.0864,-208.0139 544.8901,-213.9368 553.9118,-216.4757 564.1392,-220.5944 563.9688,-152.4761 569.8922,-152.4761 571.0769,-152.0811 572.6243,-152.0811 575.8621,-155.2209 581.588,-157.0972 581.588,-157.0972 575.8621,-155.2209 572.6243,-152.0811 571.0769,-152.0811 569.8922,-152.4761 563.9688,-152.4761 564.1392,-220.5944 570.6732,-223.6192 577.3616,-227.1166 586.7544,-232.5872 590.4274,-235.161 594.0707,-237.9405 603.2463,-232.2295 604.715,-231.3993 610.2648,-228.5668 619.4006,-224.4057 669.9547,-204.2167 676.3237,-200.9393 688.9702,-193.6844 689.9448,-193.0706 693.8931,-195.7983 698.8794,-198.9404 703.8116,-201.7525 712.847,-206.3677 721.4119,-209.726 732.0306,-213.2608 763.3763,-221.7929 768.6349,-223.5271 775.2933,-226.1085 786.5088,-231.1037 805.8939,-243.1199 806.5408,-243.6325 822.9773,-232.4707 842.8059,-222.5672 848.1079,-220.8835 861.0195,-217.5373 866.1672,-216.5151 874.0798,-215.4204 882.042,-215.2743 885.1175,-215.0376 893.3072,-215.3947 899.5376,-214.9346 898.982,-195.8366 893.4468,-152.25 890.8676,-152.25 890.3763,-152.138 890.3763,-152.138 890.8676,-152.25 893.4468,-152.25 898.982,-195.8366 899.5376,-214.9346 904.7745,-215.1799 909.7551,-214.8297 917.4225,-215.2152 921.4904,-215.1814 923.493,-215.2847 926.1299,-215.114 933.5977,-215.0771 933.8453,-215.0906 934.1213,-215.1222 934.84,-215.1626 939.2042,-215.1556 941.778,-215.0014 949.7909,-215.0017 952.996,-214.815 964.4989,-213.4715 967.034,-213.0293 973.8909,-211.436 976.7733,-210.6005 981.1359,-209.0811 984.4189,-207.7436 996.5729,-202.0553 1001.9689,-199.2176 1014.889,-191.6738 1023.0788,-185.4894 1028.7362,-180.8844 1038.8873,-172.0227 1041.8973,-169.2249 1046.1566,-164.7561 1058.5311,-152.5936 1059.6095,-151.4184 1062.7563,-147.8074 1069.813,-140.9632 1029.7773,-64.8541 986.7261,-44.7637 960.2953,-35.8705 953.7324,-34.3262 945.6283,-33.0794 933.3583,-30.8358 915.2936,-25.9577 900.1857,-21.0052 885.2561,-14.8193 882.6292,-18.0321 865.0328,-36.5639 856.6415,-43.9811 844.2909,-54.2232 836.5124,-59.796 830.6595,-64.3872 822.2349,-69.9675 808.6074,-77.3837 807.6648,-77.8386 794.846,-83.2693 785.9302,-85.965 769.9597,-88.8897 768.585,-89.0577 767.2338,-89.1421 756.0432,-89.1743 750.1461,-89.5372 736.1219,-92.0539 734.3526,-92.4738 732.7705,-92.9423 720.2084,-97.4211 705.6162,-104.3567 693.3512,-111.6087 692.2055,-112.3503 690.0258,-114.0224 686.6156,-111.9491 673.4077,-104.6341 665.1216,-100.5219 664.3532,-100.1854 618.0078,-82.492 617.158,-82.1185 614.1131,-83.1586 602.7586,-86.4128 593.6784,-88.0036 588.7347,-88.5944 580.2629,-89.1362 579.716,-89.1407 574.1949,-88.8785 572.8323,-88.892 565.905,-89.36 559.151,-89.061 558.4753,-89.1087 549.4139,-89.2429 548.2633,-89.1958 548.2633,-89.1958"/>
<polyline fill="none" stroke="#000000" points="402.0479,-841.8155 396.3314,-841.9679 391.9996,-841.8707 388.7011,-841.6343 379.3414,-841.4655 371.0051,-840.4987 367.9125,-839.9887 360.0108,-838.2958 359.3545,-838.9442 353.1901,-844.4875 343.392,-852.4274 291.1669,-885.3755 290.4116,-885.915 278.0389,-895.8623 274.8058,-898.7256 272.511,-901.164 263.162,-910.2346 257.2228,-915.5532 254.7908,-917.8942 253.3864,-919.3437 247.614,-926.1827 247.6035,-926.1944 225.5591,-952.2538 219.6217,-960.4344 216.2127,-961.499 202.7183,-966.403 158.4468,-983.6088 149.6143,-977.3847 70.466,-864.3976 64.2113,-855.8878 65.9512,-821.4498 41.2273,-782.4924 27.7186,-758.5811 6.2139,-695.3596 -4.0667,-669.7389 -9.7794,-656.4576 -22.7655,-649.7205 -31.7301,-643.2468 -44.1824,-632.1867 -69.7983,-588.3712 -82.4364,-553.9406 -88.5793,-538.4291 -74.7,-513.3322 -46.6907,-455.5117 -5.3672,-414.0838 -5.0699,-391.7953 -5.1768,-384.9438 -7.858,-325.172 -7.4392,-320.4819 -5.3385,-285.872 9.6917,-279.4369 30.5806,-271.126 50.2613,-265.1419 95.6848,-252.7782 100.3046,-251.378 107.2347,-253.404 113.0023,-254.9113 121.644,-256.9022 127.4449,-258.0578 135.8662,-259.4733 141.5575,-260.0763 147.317,-260.5083 157.5361,-260.9579 158.0631,-260.9484 165.7037,-254.0371 173.6841,-247.7332 186.0923,-238.638 192.4395,-234.732 203.9728,-228.2971 205.1084,-227.7318 209.1564,-225.95 215.4845,-223.5256 226.597,-219.9058 233.9998,-218.3558 244.2727,-216.7994 252.5543,-216.5078 254.7813,-216.2903 267.1682,-216.5284 268.139,-216.4866 271.752,-216.1062 274.2791,-216.1349 278.9572,-216.4594 279.947,-216.4057 291.8563,-216.45 293.1198,-216.5279 293.3181,-216.5516 300.1301,-216.5248 302.052,-216.3987 307.4334,-216.669 310.2267,-216.6366 312.3232,-216.482 316.4605,-216.4178 321.7566,-216.6446 328.3321,-216.5174 333.49,-216.717 340.8232,-217.8495 367.5305,-223.5272 420.1693,-183.561 436.7268,-168.8026 443.6357,-161.7708 447.0246,-164.8046 448.2454,-165.7654 464.3739,-180.2116 477.7011,-189.675 478.2423,-190.0255 491.6055,-197.8882 496.4182,-200.4157 501.0985,-202.5827 505.647,-204.41 507.2831,-204.9681 518.0864,-208.0139 544.8901,-213.9368 553.9118,-216.4757 564.1392,-220.5944 570.6732,-223.6192 577.3616,-227.1166 586.7544,-232.5872 590.4274,-235.161 594.0707,-237.9405 593.2006,-253.2096 593.2636,-255.5218 592.8018,-285.3355 592.3087,-293.7987 591.3957,-302.8807 589.4598,-336.8512 619.8513,-358.9705 623.6625,-376.7845 628.6887,-406.273 630.9957,-416.7514 634.6331,-446.0631 638.7372,-465.2468 674.5078,-472.9878 686.409,-474.4348 693.5245,-474.6238 699.9676,-475.1121 707.3975,-474.9655 711.0148,-474.7216 711.4202,-474.6749 719.0143,-474.5457 721.1146,-474.6124 724.4282,-474.403 728.0972,-474.3503 734.6732,-474.9008 744.8712,-475.2665 815.5626,-481.243 819.5698,-476.2295 902.2264,-476.5885 903.2083,-476.6408 907.4882,-476.428 911.5357,-476.4249 914.1544,-476.5511 914.4343,-476.5784 926.6196,-476.5063 928.0596,-476.6399 933.3181,-476.8542 941.1114,-476.7683 941.6235,-476.7362 943.1054,-476.7885 948.5013,-476.702 950.4824,-476.465 954.6914,-476.3754 969.2865,-476.7835 969.3259,-476.7866 971.0621,-476.741 971.419,-476.7491 973.5699,-476.9032 976.7471,-476.967 987.2432,-476.6358 996.9592,-477.2823 997.742,-477.3726 1002.1174,-478.0921 1014.7354,-480.7928 1015.2853,-480.9372 1024.5599,-483.8305 1041.5135,-490.7982 1049.308,-494.7475 1055.8427,-498.6974 1064.27,-504.2107 1068.885,-507.455 1081.4834,-517.5847 1093.8461,-528.1309 1097.7047,-531.9861 1104.3564,-537.9098 1120.5077,-553.0073 1120.5269,-553.0277 1124.2711,-557.181 1132.7732,-566.18 1135.9108,-569.6335 1133.7285,-581.0494 1129.3477,-607.0262 1128.9204,-608.265 1060.783,-636.2373 978.8328,-622.4646 978.7265,-622.4522 968.377,-621.7746 960.6433,-621.6667 956.8268,-621.81 956.5133,-621.838 946.3064,-621.6625 943.7328,-621.3438 938.4612,-621.2361 934.8195,-621.3492 930.9471,-621.2638 923.6171,-621.8594 922.1152,-621.9011 915.2391,-621.3592 908.1934,-621.5328 904.6998,-621.4328 901.0861,-621.5157 900.5046,-621.4982 849.3767,-622.5853 832.2858,-615.0071 823.8442,-610.5273 813.5443,-604.6099 811.4483,-605.8504 810.7396,-606.2399 794.3468,-613.9288 790.5357,-615.5565 729.224,-639.2032 729.0318,-639.285 724.7087,-641.3043 705.3828,-651.1396 705.3827,-651.1396 694.0771,-658.2515 694.8089,-678.8824 695.8596,-694.3044 692.2252,-698.5991 679.9404,-712.1943 664.7693,-727.7451 626.5197,-775.3728 598.8757,-806.1888 596.6039,-808.913 592.3365,-808.3505 585.6631,-807.7087 570.4263,-807.3276 570.0303,-807.2884 566.7833,-807.0829 561.6348,-807.1244 555.2283,-807.4053 548.985,-807.4476 548.9298,-807.4519 546.1264,-807.5673 538.8748,-807.5975 537.1047,-807.6681 532.5931,-807.681 527.7635,-807.5165 527.4904,-807.4971 526.2238,-807.4524 510.9019,-806.3448 508.9229,-806.129 507.3204,-807.3537 445.8662,-847.5227 429.0763,-844.3185 414.9084,-842.3616 406.5005,-841.6517 403.2635,-841.7235 402.0479,-841.8155 "/>
<polyline fill="none" stroke="#000000" points="908.1934,-621.5328 904.6998,-621.4328 901.0861,-621.5157 900.5046,-621.4982 849.3767,-622.5853 832.2858,-615.0071 823.8442,-610.5273 813.5443,-604.6099 811.4483,-605.8504 810.7396,-606.2399 794.3468,-613.9288 790.5357,-615.5565 729.224,-639.2032 729.0318,-639.285 724.7087,-641.3043 705.3828,-651.1396 705.3827,-651.1396 694.0771,-658.2515 694.8089,-678.8824 695.8596,-694.3044 692.2252,-698.5991 679.9404,-712.1943 664.7693,-727.7451 626.5197,-775.3728 598.8757,-806.1888 596.6039,-808.913 598.3919,-810.8901 600.8605,-813.8274 637.4656,-860.8047 634.7351,-879.5024 632.2003,-906.0303 631.6292,-909.8752 631.1606,-920.7973 630.8441,-924.148 624.4745,-967.7662 688.5478,-1007.2009 697.76,-1013.3506 698.3429,-1016.4343 702.7475,-1045.1567 708.9274,-1072.5291 723.1403,-1127.1235 784.1153,-1124.7798 793.0764,-1124.6919 805.4716,-1124.9255 821.2088,-1126.5763 827.2421,-1127.3815 829.4971,-1127.7467 894.6165,-1163.8503 901.6633,-1168.0083 907.5472,-1167.9374 908.1224,-1167.7711 920.2073,-1164.9493 930.0828,-1162.9193 945.3744,-1160.6304 945.9749,-1160.5574 956.2262,-1159.5963 1023.9158,-1132.392 1051.0215,-1106.7479 1061.8899,-1104.2551 1079.1785,-1101.1863 1081.7379,-1100.8657 1082.3508,-1100.5946 1092.3521,-1096.475 1106.3958,-1091.546 1141.1475,-1080.4252 1197.5564,-1057.4246 1201.4817,-1020.274 1207.4916,-976.5493 1213.8486,-938.7009 1215.1302,-936.9372 1220.1024,-901.5887 1229.6526,-846.0808 1232.047,-835.6755 1168.7412,-757.9416 1167.0854,-743.0877 1165.782,-727.4666 1164.3158,-701.0039 1128.9204,-608.265 1060.783,-636.2373 978.8328,-622.4646 978.7265,-622.4522 968.377,-621.7746 960.6433,-621.6667 956.8268,-621.81 956.5133,-621.838 946.3064,-621.6625 943.7328,-621.3438 938.4612,-621.2361 934.8195,-621.3492 930.9471,-621.2638 923.6171,-621.8594 922.1152,-621.9011 915.2391,-621.3592 908.1934,-621.5328 "/>
<polyline fill="none" stroke="#000000" points="1014.7354,-480.7928 1015.2853,-480.9372 1024.5599,-483.8305 1041.5135,-490.7982 1049.308,-494.7475 1055.8427,-498.6974 1064.27,-504.2107 1068.885,-507.455 1081.4834,-517.5847 1093.8461,-528.1309 1097.7047,-531.9861 1104.3564,-537.9098 1120.5077,-553.0073 1120.5269,-553.0277 1124.2711,-557.181 1132.7732,-566.18 1135.9108,-569.6335 1141.0111,-565.8248 1238.4197,-496.0092 1248.2459,-433.45 1249.9462,-424.4535 1257.3584,-390.9334 1252.6396,-378.7463 1240.7875,-341.7036 1206.8533,-301.629 1143.3136,-330.4056 1134.5674,-333.8713 1127.6155,-336.2227 1121.3461,-337.9766 1114.7466,-339.4361 1106.2256,-340.8206 1095.5906,-341.3062 1095.265,-341.3022 1094.4354,-341.2435 1091.4652,-341.2063 1085.8123,-340.8045 1083.1627,-340.7712 1078.3643,-340.9912 1077.9738,-341.032 1070.3566,-340.9365 1070.1034,-340.9185 1066.7573,-340.8766 1059.4182,-341.2145 1058.4541,-341.3154 1055.197,-341.2749 1051.2794,-340.9968 1046.2074,-341.2306 1041.8356,-341.176 1038.6802,-340.9514 1031.1423,-341.2993 1028.1449,-341.0865 1025.0145,-341.0476 1021.4382,-340.7937 1016.8149,-340.7365 1013.3274,-340.8964 1011.7271,-341.0632 1010.3638,-341.0464 1007.1864,-341.192 999.8105,-341.1011 999.1778,-341.0565 996.5432,-341.0241 994.7064,-341.1085 988.1311,-341.0276 984.6677,-341.3898 975.5164,-341.2773 975.4019,-341.2692 973.6139,-341.3516 967.4988,-341.2763 960.6442,-340.7894 954.8488,-341.399 950.0379,-341.34 947.5791,-341.1653 938.1476,-341.0496 937.5457,-341.0774 936.5497,-341.1814 930.1959,-341.1045 928.5622,-341.2749 918.2078,-341.1489 918.0431,-341.1662 913.538,-341.3752 906.4257,-341.2885 906.1783,-341.3 901.3052,-341.2409 900.2155,-341.2913 898.0384,-341.265 886.0497,-341.8203 820.1113,-352.536 805.9657,-333.7712 740.6218,-340.9018 735.5255,-341.174 732.1675,-341.1666 731.9528,-341.1542 723.4017,-341.1505 721.5618,-341.256 720.3173,-341.2577 714.6022,-340.9448 714.2706,-340.9458 704.7616,-341.5273 701.1155,-341.3418 698.1976,-341.0298 686.1465,-341.8277 678.9591,-342.7187 668.218,-344.6689 619.8513,-358.9705 623.6625,-376.7845 628.6887,-406.273 630.9957,-416.7514 634.6331,-446.0631 638.7372,-465.2468 674.5078,-472.9878 686.409,-474.4348 693.5245,-474.6238 699.9676,-475.1121 707.3975,-474.9655 711.0148,-474.7216 711.4202,-474.6749 719.0143,-474.5457 721.1146,-474.6124 724.4282,-474.403 728.0972,-474.3503 734.6732,-474.9008 744.8712,-475.2665 815.5626,-481.243 819.5698,-476.2295 902.2264,-476.5885 903.2083,-476.6408 907.4882,-476.428 911.5357,-476.4249 914.1544,-476.5511 914.4343,-476.5784 926.6196,-476.5063 928.0596,-476.6399 933.3181,-476.8542 941.1114,-476.7683 941.6235,-476.7362 943.1054,-476.7885 948.5013,-476.702 950.4824,-476.465 954.6914,-476.3754 969.2865,-476.7835 969.3259,-476.7866 971.0621,-476.741 971.419,-476.7491 973.5699,-476.9032 976.7471,-476.967 987.2432,-476.6358 996.9592,-477.2823 997.742,-477.3726 1002.1174,-478.0921 1014.7354,-480.7928 "/>
<polyline fill="none" stroke="#000000" points="693.3512,-111.6087 705.6162,-104.3567 720.2084,-97.4211 732.7705,-92.9423 734.3526,-92.4738 736.1219,-92.0539 750.1461,-89.5372 756.0432,-89.1743 767.2338,-89.1421 768.585,-89.0577 769.9597,-88.8897 785.9302,-85.965 794.846,-83.2693 807.6648,-77.8386 808.6074,-77.3837 822.2349,-69.9675 830.6595,-64.3872 836.5124,-59.796 844.2909,-54.2232 856.6415,-43.9811 865.0328,-36.5639 882.6292,-18.0321 885.2561,-14.8193 883.0203,-10.0355 870.1279,24.5608 826.6766,79.1165 770.9959,91.372 754.3887,88.3917 752.6924,88.1376 740.5244,87.0298 732.0075,86.506 727.7898,86.3714 726.3998,86.3681 712.0176,86.7597 702.2519,87.6026 687.8699,89.6949 673.3572,92.6608 670.5828,93.3897 670.4955,93.4152 660.0063,96.7963 614.1954,89.7195 575.1918,98.5166 567.7902,100.6069 564.967,99.5486 549.9697,94.376 547.0556,93.5485 532.6769,89.896 450.8086,74.059 434.8664,60.38 399.1605,-16.4108 397.6208,-19.3565 412.5669,-44.2664 444.7607,-101.2147 527.4203,-90.2766 543.0391,-89.0975 546.3474,-89.2272 548.2633,-89.1958 549.4139,-89.2429 558.4753,-89.1087 559.151,-89.061 565.905,-89.36 572.8323,-88.892 574.1949,-88.8785 579.716,-89.1407 580.2629,-89.1362 588.7347,-88.5944 593.6784,-88.0036 602.7586,-86.4128 614.1131,-83.1586 617.158,-82.1185 618.0078,-82.492 664.3532,-100.1854 665.1216,-100.5219 673.4077,-104.6341 686.6156,-111.9491 690.0258,-114.0224 692.2055,-112.3503 693.3512,-111.6087 "/>
<polyline fill="none" stroke="#000000" points="233.9998,-218.3558 226.597,-219.9058 215.4845,-223.5256 209.1564,-225.95 205.1084,-227.7318 203.9728,-228.2971 192.4395,-234.732 186.0923,-238.638 173.6841,-247.7332 165.7037,-254.0371 158.0631,-260.9484 157.5361,-260.9579 147.317,-260.5083 141.5575,-260.0763 135.8662,-259.4733 127.4449,-258.0578 121.644,-256.9022 113.0023,-254.9113 107.2347,-253.404 100.3046,-251.378 95.6848,-252.7782 50.2613,-265.1419 30.5806,-271.126 9.6917,-279.4369 -5.3385,-285.872 -59.4793,-246.4842 -90.3934,-165.3015 -94.1569,-156.8938 -89.3486,-129.7722 -87.5281,-126.43 -66.6947,-85.3591 -53.5987,-68.6604 2.3352,-34.86 18.4198,-37.4393 38.5935,-39.4877 99.8559,-40.2766 103.9006,-38.0345 155.842,-37.4326 159.1328,-37.6022 175.1711,-37.9591 185.9424,-37.2493 199.9834,-35.9107 203.5796,-35.3575 219.2901,-32.478 224.2719,-30.978 243.6193,-35.9293 246.7076,-36.6255 247.3483,-36.7506 258.1383,-38.2169 258.9468,-38.3027 272.8289,-39.3626 281.6945,-39.7742 295.825,-39.5859 300.0291,-39.2798 300.4242,-39.2392 311.6683,-37.7481 319.873,-36.1673 332.7651,-33.2945 341.8361,-31.0035 342.5462,-30.8032 365.3041,-23.7071 397.6208,-19.3565 412.5669,-44.2664 444.7607,-101.2147 444.2901,-124.0574 442.8502,-152.16 443.6357,-161.7708 436.7268,-168.8026 420.1693,-183.561 367.5305,-223.5272 340.8232,-217.8495 333.49,-216.717 328.3321,-216.5174 321.7566,-216.6446 316.4605,-216.4178 312.3232,-216.482 310.2267,-216.6366 307.4334,-216.669 302.052,-216.3987 300.1301,-216.5248 293.3181,-216.5516 293.1198,-216.5279 291.8563,-216.45 279.947,-216.4057 278.9572,-216.4594 274.2791,-216.1349 271.752,-216.1062 268.139,-216.4866 267.1682,-216.5284 254.7813,-216.2903 252.5543,-216.5078 244.2727,-216.7994 233.9998,-218.3558 "/>
<polyline fill="none" stroke="#000000" points="402.0479,-841.8155 396.3314,-841.9679 391.9996,-841.8707 388.7011,-841.6343 379.3414,-841.4655 371.0051,-840.4987 367.9125,-839.9887 360.0108,-838.2958 359.3545,-838.9442 353.1901,-844.4875 343.392,-852.4274 291.1669,-885.3755 290.4116,-885.915 278.0389,-895.8623 274.8058,-898.7256 272.511,-901.164 263.162,-910.2346 257.2228,-915.5532 254.7908,-917.8942 253.3864,-919.3437 247.614,-926.1827 247.6035,-926.1944 225.5591,-952.2538 219.6217,-960.4344 216.2127,-961.499 202.7183,-966.403 158.4468,-983.6088 160.4978,-1026.6271 161.8743,-1082.541 166.012,-1094.1487 180.7136,-1142.6432 299.7737,-1194.2339 304.7191,-1196.5369 305.1043,-1196.7288 312.6038,-1200.7144 312.7102,-1200.7743 314.6375,-1205.1328 323.5765,-1217.6099 389.6068,-1265.8015 424.7647,-1272.1105 437.5513,-1274.8027 440.463,-1274.6825 459.7894,-1275.0159 460.3754,-1275.0601 462.2427,-1275.2559 470.6894,-1273.2491 486.5379,-1270.9417 497.1813,-1269.7211 511.159,-1268.9833 546.0063,-1269.2979 583.3053,-1253.9535 640.7678,-1190.76 641.3985,-1189.058 707.8104,-1143.3123 723.1403,-1127.1235 708.9274,-1072.5291 702.7475,-1045.1567 698.3429,-1016.4343 697.76,-1013.3506 688.5478,-1007.2009 624.4745,-967.7662 630.8441,-924.148 631.1606,-920.7973 631.6292,-909.8752 632.2003,-906.0303 634.7351,-879.5024 637.4656,-860.8047 600.8605,-813.8274 598.3919,-810.8901 596.6039,-808.913 592.3365,-808.3505 585.6631,-807.7087 570.4263,-807.3276 570.0303,-807.2884 566.7833,-807.0829 561.6348,-807.1244 555.2283,-807.4053 548.985,-807.4476 548.9298,-807.4519 546.1264,-807.5673 538.8748,-807.5975 537.1047,-807.6681 532.5931,-807.681 527.7635,-807.5165 527.4904,-807.4971 526.2238,-807.4524 510.9019,-806.3448 508.9229,-806.129 507.3204,-807.3537 445.8662,-847.5227 429.0763,-844.3185 414.9084,-842.3616 406.5005,-841.6517 403.2635,-841.7235 402.0479,-841.8155 "/>
<polyline fill="none" stroke="#000000" points="984.6677,-341.3898 975.5164,-341.2773 975.4019,-341.2692 973.6139,-341.3516 967.4988,-341.2763 960.6442,-340.7894 954.8488,-341.399 950.0379,-341.34 947.5791,-341.1653 938.1476,-341.0496 937.5457,-341.0774 936.5497,-341.1814 930.1959,-341.1045 928.5622,-341.2749 918.2078,-341.1489 918.0431,-341.1662 913.538,-341.3752 906.4257,-341.2885 906.1783,-341.3 901.3052,-341.2409 900.2155,-341.2913 898.0384,-341.265 886.0497,-341.8203 820.1113,-352.536 805.9657,-333.7712 740.6218,-340.9018 735.5255,-341.174 732.1675,-341.1666 731.9528,-341.1542 723.4017,-341.1505 721.5618,-341.256 720.3173,-341.2577 714.6022,-340.9448 714.2706,-340.9458 704.7616,-341.5273 701.1155,-341.3418 698.1976,-341.0298 686.1465,-341.8277 678.9591,-342.7187 668.218,-344.6689 619.8513,-358.9705 589.4598,-336.8512 591.3957,-302.8807 592.3087,-293.7987 592.8018,-285.3355 593.2636,-255.5218 593.2006,-253.2096 594.0707,-237.9405 603.2463,-232.2295 604.715,-231.3993 610.2648,-228.5668 619.4006,-224.4057 669.9547,-204.2167 676.3237,-200.9393 688.9702,-193.6844 689.9448,-193.0706 693.8931,-195.7983 698.8794,-198.9404 703.8116,-201.7525 712.847,-206.3677 721.4119,-209.726 732.0306,-213.2608 763.3763,-221.7929 768.6349,-223.5271 775.2933,-226.1085 786.5088,-231.1037 805.8939,-243.1199 806.5408,-243.6325 822.9773,-232.4707 842.8059,-222.5672 848.1079,-220.8835 861.0195,-217.5373 866.1672,-216.5151 874.0798,-215.4204 882.042,-215.2743 885.1175,-215.0376 893.3072,-215.3947 899.5376,-214.9346 904.7745,-215.1799 909.7551,-214.8297 917.4225,-215.2152 921.4904,-215.1814 923.493,-215.2847 926.1299,-215.114 933.5977,-215.0771 933.8453,-215.0906 934.1213,-215.1222 934.84,-215.1626 939.2042,-215.1556 941.778,-215.0014 949.7909,-215.0017 952.996,-214.815 964.4989,-213.4715 967.034,-213.0293 973.8909,-211.436 976.7733,-210.6005 981.1359,-209.0811 984.4189,-207.7436 996.5729,-202.0553 1001.9689,-199.2176 1014.889,-191.6738 1023.0788,-185.4894 1028.7362,-180.8844 1038.8873,-172.0227 1041.8973,-169.2249 1046.1566,-164.7561 1058.5311,-152.5936 1059.6095,-151.4184 1062.7563,-147.8074 1069.813,-140.9632 1078.6344,-143.7038 1082.21,-144.6297 1094.9784,-147.2877 1178.2257,-162.4857 1180.7694,-163.7943 1200.67,-247.4845 1202.3599,-275.7056 1203.864,-285.4883 1206.8533,-301.629 1143.3136,-330.4056 1134.5674,-333.8713 1127.6155,-336.2227 1121.3461,-337.9766 1114.7466,-339.4361 1106.2256,-340.8206 1095.5906,-341.3062 1095.265,-341.3022 1094.4354,-341.2435 1091.4652,-341.2063 1085.8123,-340.8045 1083.1627,-340.7712 1078.3643,-340.9912 1077.9738,-341.032 1070.3566,-340.9365 1070.1034,-340.9185 1066.7573,-340.8766 1059.4182,-341.2145 1058.4541,-341.3154 1055.197,-341.2749 1051.2794,-340.9968 1046.2074,-341.2306 1041.8356,-341.176 1038.6802,-340.9514 1031.1423,-341.2993 1028.1449,-341.0865 1025.0145,-341.0476 1021.4382,-340.7937 1016.8149,-340.7365 1013.3274,-340.8964 1011.7271,-341.0632 1010.3638,-341.0464 1007.1864,-341.192 999.8105,-341.1011 999.1778,-341.0565 996.5432,-341.0241 994.7064,-341.1085 988.1311,-341.0276 984.6677,-341.3898 "/>
<polyline fill="none" stroke="#000000" points="842.8059,-222.5672 822.9773,-232.4707 806.5408,-243.6325 805.8939,-243.1199 786.5088,-231.1037 775.2933,-226.1085 768.6349,-223.5271 763.3763,-221.7929 732.0306,-213.2608 721.4119,-209.726 712.847,-206.3677 703.8116,-201.7525 698.8794,-198.9404 693.8931,-195.7983 689.9448,-193.0706 688.9702,-193.6844 676.3237,-200.9393 669.9547,-204.2167 619.4006,-224.4057 610.2648,-228.5668 604.715,-231.3993 603.2463,-232.2295 594.0707,-237.9405 590.4274,-235.161 586.7544,-232.5872 577.3616,-227.1166 570.6732,-223.6192 564.1392,-220.5944 553.9118,-216.4757 544.8901,-213.9368 518.0864,-208.0139 507.2831,-204.9681 505.647,-204.41 501.0985,-202.5827 496.4182,-200.4157 491.6055,-197.8882 478.2423,-190.0255 477.7011,-189.675 464.3739,-180.2116 448.2454,-165.7654 447.0246,-164.8046 443.6357,-161.7708 442.8502,-152.16 444.2901,-124.0574 444.7607,-101.2147 527.4203,-90.2766 543.0391,-89.0975 546.3474,-89.2272 548.2633,-89.1958 549.4139,-89.2429 558.4753,-89.1087 559.151,-89.061 565.905,-89.36 572.8323,-88.892 574.1949,-88.8785 579.716,-89.1407 580.2629,-89.1362 588.7347,-88.5944 593.6784,-88.0036 602.7586,-86.4128 614.1131,-83.1586 617.158,-82.1185 618.0078,-82.492 664.3532,-100.1854 665.1216,-100.5219 673.4077,-104.6341 686.6156,-111.9491 690.0258,-114.0224 692.2055,-112.3503 693.3512,-111.6087 705.6162,-104.3567 720.2084,-97.4211 732.7705,-92.9423 734.3526,-92.4738 736.1219,-92.0539 750.1461,-89.5372 756.0432,-89.1743 767.2338,-89.1421 768.585,-89.0577 769.9597,-88.8897 785.9302,-85.965 794.846,-83.2693 807.6648,-77.8386 808.6074,-77.3837 822.2349,-69.9675 830.6595,-64.3872 836.5124,-59.796 844.2909,-54.2232 856.6415,-43.9811 865.0328,-36.5639 882.6292,-18.0321 885.2561,-14.8193 900.1857,-21.0052 915.2936,-25.9577 933.3583,-30.8358 945.6283,-33.0794 953.7324,-34.3262 960.2953,-35.8705 986.7261,-44.7637 1029.7773,-64.8541 1069.813,-140.9632 1062.7563,-147.8074 1059.6095,-151.4184 1058.5311,-152.5936 1046.1566,-164.7561 1041.8973,-169.2249 1038.8873,-172.0227 1028.7362,-180.8844 1023.0788,-185.4894 1014.889,-191.6738 1001.9689,-199.2176 996.5729,-202.0553 984.4189,-207.7436 981.1359,-209.0811 976.7733,-210.6005 973.8909,-211.436 967.034,-213.0293 964.4989,-213.4715 952.996,-214.815 949.7909,-215.0017 941.778,-215.0014 939.2042,-215.1556 934.84,-215.1626 934.1213,-215.1222 933.8453,-215.0906 933.5977,-215.0771 926.1299,-215.114 923.493,-215.2847 921.4904,-215.1814 917.4225,-215.2152 909.7551,-214.8297 904.7745,-215.1799 899.5376,-214.9346 893.3072,-215.3947 885.1175,-215.0376 882.042,-215.2743 874.0798,-215.4204 866.1672,-216.5151 861.0195,-217.5373 848.1079,-220.8835 842.8059,-222.5672 "/>
<!-- &#45;&gt; -->
<g id="edge1" class="edge">
<title>&#45;&gt;</title>
<path fill="none" stroke="#555555" stroke-opacity="0.133333" d="M385.98,-565.24C425.98,-598.45 497.54,-657.86 537.33,-690.89"/>
<polygon fill="#555555" fill-opacity="0.133333" stroke="#555555" stroke-opacity="0.133333" points="535.1519,-693.6308 545.08,-697.33 539.6257,-688.247 535.1519,-693.6308"/>
</g>
<!-- &#45;&gt; -->
<g id="edge2" class="edge">
<title>&#45;&gt;</title>
<path fill="none" stroke="#555555" stroke-opacity="0.133333" d="M362.78,-567.57C372.53,-611.51 391.99,-699.1 401.95,-743.95"/>
<polygon fill="#555555" fill-opacity="0.133333" stroke="#555555" stroke-opacity="0.133333" points="398.5659,-744.8562 404.15,-753.86 405.3995,-743.3391 398.5659,-744.8562"/>
</g>
<!-- &#45;&gt;   -->
<g id="edge3" class="edge">
<title>&#45;&gt;  </title>
<path fill="none" stroke="#555555" stroke-opacity="0.133333" d="M347.08,-567.14C326.83,-620.79 280.62,-743.26 259.85,-798.29"/>
<polygon fill="#555555" fill-opacity="0.133333" stroke="#555555" stroke-opacity="0.133333" points="256.5399,-797.1483 256.28,-807.74 263.0882,-799.6222 256.5399,-797.1483"/>
</g>
<!-- &#45;&gt; -->
<g id="edge4" class="edge">
<title>&#45;&gt;</title>
<path fill="none" stroke="#555555" stroke-opacity="0.133333" d="M322.07,-563.92C278.38,-592.55 204.24,-641.12 163.31,-667.94"/>
<polygon fill="#555555" fill-opacity="0.133333" stroke="#555555" stroke-opacity="0.133333" points="161.3163,-665.0619 154.87,-673.47 165.1527,-670.917 161.3163,-665.0619"/>
</g>
<!-- &#45;&gt;  -->
<g id="edge5" class="edge">
<title>&#45;&gt; </title>
<path fill="none" stroke="#555555" stroke-opacity="0.133333" d="M287.92,-537.52C248.1,-535.46 197.78,-532.85 155.88,-530.68"/>
<polygon fill="#555555" fill-opacity="0.133333" stroke="#555555" stroke-opacity="0.133333" points="155.8685,-527.1748 145.7,-530.15 155.5045,-534.1653 155.8685,-527.1748"/>
</g>
<!-- &#45;&gt;    -->
<g id="edge6" class="edge">
<title>&#45;&gt;   </title>
<path fill="none" stroke="#555555" stroke-opacity="0.133333" d="M367.67,-515.11C388.93,-463.81 436.11,-350 457.87,-297.5"/>
<polygon fill="#555555" fill-opacity="0.133333" stroke="#555555" stroke-opacity="0.133333" points="461.1495,-298.7284 461.74,-288.15 454.6816,-296.0513 461.1495,-298.7284"/>
</g>
<!-- &#45;&gt;  -->
<g id="edge7" class="edge">
<title>&#45;&gt; </title>
<path fill="none" stroke="#555555" stroke-opacity="0.133333" d="M327.3,-517.13C285.99,-483.68 211.52,-423.36 170.26,-389.95"/>
<polygon fill="#555555" fill-opacity="0.133333" stroke="#555555" stroke-opacity="0.133333" points="172.4436,-387.2146 162.47,-383.64 168.0376,-392.654 172.4436,-387.2146"/>
</g>
<!-- &#45;&gt; -->
<g id="edge8" class="edge">
<title>&#45;&gt;</title>
<path fill="none" stroke="#555555" stroke-opacity="0.133333" d="M350.08,-514.77C337.09,-464.64 308.92,-355.93 295.61,-304.54"/>
<polygon fill="#555555" fill-opacity="0.133333" stroke="#555555" stroke-opacity="0.133333" points="298.9774,-303.5818 293.08,-294.78 292.2013,-305.3383 298.9774,-303.5818"/>
</g>
<!-- &#45;&gt;  -->
<g id="edge9" class="edge">
<title>&#45;&gt; </title>
<path fill="none" stroke="#555555" stroke-opacity="0.133333" d="M426.23,-541.96C484.39,-542.68 567.28,-543.7 626.89,-544.44"/>
<polygon fill="#555555" fill-opacity="0.133333" stroke="#555555" stroke-opacity="0.133333" points="626.9558,-547.941 637,-544.57 627.0459,-540.9416 626.9558,-547.941"/>
</g>
<!-- &#45;&gt; -->
<g id="edge10" class="edge">
<title>&#45;&gt;</title>
<path fill="none" stroke="#555555" stroke-opacity="0.133333" d="M394.61,-518.79C427.37,-499.42 474.43,-471.58 506.3,-452.74"/>
<polygon fill="#555555" fill-opacity="0.133333" stroke="#555555" stroke-opacity="0.133333" points="508.4416,-455.5393 515.26,-447.43 504.8728,-449.5174 508.4416,-455.5393"/>
</g>
<!-- &#45;&gt; -->
<g id="edge11" class="edge">
<title>&#45;&gt;</title>
<path fill="none" stroke="#555555" stroke-opacity="0.133333" d="M924.84,-839.23C948.25,-820.58 981.68,-793.93 1005.3,-775.1"/>
<polygon fill="#555555" fill-opacity="0.133333" stroke="#555555" stroke-opacity="0.133333" points="1007.5708,-777.7657 1013.2,-768.79 1003.2021,-772.2962 1007.5708,-777.7657"/>
</g>
<!-- &#45;&gt;    -->
<g id="edge12" class="edge">
<title>&#45;&gt;   </title>
<path fill="none" stroke="#555555" stroke-opacity="0.133333" d="M946.8,-862.47C952.16,-862.6 957.75,-862.74 963.47,-862.88"/>
<polygon fill="#555555" fill-opacity="0.133333" stroke="#555555" stroke-opacity="0.133333" points="963.7957,-866.3891 973.88,-863.14 963.9705,-859.3913 963.7957,-866.3891"/>
</g>
<!-- &#45;&gt;  -->
<g id="edge13" class="edge">
<title>&#45;&gt; </title>
<path fill="none" stroke="#555555" stroke-opacity="0.133333" d="M883.37,-835.94C868.05,-808 843.49,-763.19 827.87,-734.7"/>
<polygon fill="#555555" fill-opacity="0.133333" stroke="#555555" stroke-opacity="0.133333" points="830.8245,-732.8082 822.95,-725.72 824.6855,-736.1717 830.8245,-732.8082"/>
</g>
<!-- &#45;&gt;   -->
<g id="edge14" class="edge">
<title>&#45;&gt;  </title>
<path fill="none" stroke="#555555" stroke-opacity="0.133333" d="M902.55,-834.86C908.91,-803.34 919.5,-750.8 926.03,-718.4"/>
<polygon fill="#555555" fill-opacity="0.133333" stroke="#555555" stroke-opacity="0.133333" points="929.5309,-718.745 928.08,-708.25 922.6695,-717.3591 929.5309,-718.745"/>
</g>
<!-- &#45;&gt;   -->
<g id="edge15" class="edge">
<title>&#45;&gt;  </title>
<path fill="none" stroke="#555555" stroke-opacity="0.133333" d="M855.49,-875.3C834.64,-882.32 809.16,-890.91 786.75,-898.46"/>
<polygon fill="#555555" fill-opacity="0.133333" stroke="#555555" stroke-opacity="0.133333" points="785.384,-895.2266 777.02,-901.73 787.614,-901.8619 785.384,-895.2266"/>
</g>
<!-- &#45;&gt;  -->
<g id="edge16" class="edge">
<title>&#45;&gt; </title>
<path fill="none" stroke="#555555" stroke-opacity="0.133333" d="M901.13,-887.41C905.83,-919.05 913.72,-972.11 918.59,-1004.8"/>
<polygon fill="#555555" fill-opacity="0.133333" stroke="#555555" stroke-opacity="0.133333" points="915.1875,-1005.7181 920.11,-1015.1 922.1125,-1004.6961 915.1875,-1005.7181"/>
</g>
<!-- &#45;&gt;      -->
<g id="edge17" class="edge">
<title>&#45;&gt;     </title>
<path fill="none" stroke="#555555" stroke-opacity="0.133333" d="M922.8,-883.82C945.04,-903.46 977.21,-931.88 1000.2,-952.14"/>
<polygon fill="#555555" fill-opacity="0.133333" stroke="#555555" stroke-opacity="0.133333" points="998.0876,-954.944 1007.9,-958.94 1002.7213,-949.6971 998.0876,-954.944"/>
</g>
<!-- &#45;&gt; -->
<g id="edge18" class="edge">
<title>&#45;&gt;</title>
<path fill="none" stroke="#555555" stroke-opacity="0.133333" d="M881.96,-886.18C865.37,-913.27 838.98,-956.37 822.07,-983.97"/>
<polygon fill="#555555" fill-opacity="0.133333" stroke="#555555" stroke-opacity="0.133333" points="818.9677,-982.3341 816.73,-992.69 824.9373,-985.9899 818.9677,-982.3341"/>
</g>
<!-- &#45;&gt;   -->
<g id="edge19" class="edge">
<title>&#45;&gt;  </title>
<path fill="none" stroke="#555555" stroke-opacity="0.133333" d="M857.46,-845.63C836.07,-837.23 809.44,-826.77 786.45,-817.75"/>
<polygon fill="#555555" fill-opacity="0.133333" stroke="#555555" stroke-opacity="0.133333" points="787.437,-814.3771 776.85,-813.97 784.8724,-820.8904 787.437,-814.3771"/>
</g>
<!--    &#45;&gt; -->
<g id="edge20" class="edge">
<title>   &#45;&gt;</title>
<path fill="none" stroke="#555555" stroke-opacity="0.133333" d="M776.19,-404.16C776.1,-404.16 776.02,-404.16 775.93,-404.16"/>
<polygon fill="#555555" fill-opacity="0.133333" stroke="#555555" stroke-opacity="0.133333" points="778.24,-400.6601 768.24,-404.16 778.24,-407.6601 778.24,-400.6601"/>
</g>
<!-- &#45;&gt;  -->
<g id="edge21" class="edge">
<title>&#45;&gt; </title>
<path fill="none" stroke="#555555" stroke-opacity="0.133333" d="M854.91,-547.69C829.13,-547.3 801.06,-546.87 776.07,-546.49"/>
<polygon fill="#555555" fill-opacity="0.133333" stroke="#555555" stroke-opacity="0.133333" points="775.9807,-542.9884 765.93,-546.34 775.8771,-549.9876 775.9807,-542.9884"/>
</g>
<!-- Teatr Slaski&#45;&gt; -->
<g id="edge22" class="edge">
<title>Teatr Slaski&#45;&gt;</title>
<path fill="none" stroke="#555555" stroke-opacity="0.133333" d="M610.56,-26.163C610.4,-26.163 610.24,-26.163 610.09,-26.163"/>
<polygon fill="#555555" fill-opacity="0.133333" stroke="#555555" stroke-opacity="0.133333" points="613.04,-22.6631 603.04,-26.163 613.04,-29.6631 613.04,-22.6631"/>
</g>
<!--  ()&#45;&gt; -->
<g id="edge23" class="edge">
<title> ()&#45;&gt;</title>
<path fill="none" stroke="#555555" stroke-opacity="0.133333" d="M69.036,-152.16C68.868,-152.16 68.7,-152.16 68.533,-152.16"/>
<polygon fill="#555555" fill-opacity="0.133333" stroke="#555555" stroke-opacity="0.133333" points="71.296,-148.6601 61.296,-152.16 71.296,-155.6601 71.296,-148.6601"/>
</g>
<!-- &#45;&gt;   -->
<g id="edge24" class="edge">
<title>&#45;&gt;  </title>
<path fill="none" stroke="#555555" stroke-opacity="0.133333" d="M463.92,-1045.9C465.54,-1070.5 467.95,-1107 469.62,-1132.2"/>
<polygon fill="#555555" fill-opacity="0.133333" stroke="#555555" stroke-opacity="0.133333" points="466.1357,-1132.5536 470.29,-1142.3 473.1203,-1132.0902 466.1357,-1132.5536"/>
</g>
<!-- &#45;&gt;  -->
<g id="edge25" class="edge">
<title>&#45;&gt; </title>
<path fill="none" stroke="#555555" stroke-opacity="0.133333" d="M408.19,-1041.4C398.79,-1045.2 389.05,-1049.1 379.8,-1052.8"/>
<polygon fill="#555555" fill-opacity="0.133333" stroke="#555555" stroke-opacity="0.133333" points="378.3371,-1049.616 370.37,-1056.6 380.9534,-1056.1086 378.3371,-1049.616"/>
</g>
<!-- &#45;&gt;  -->
<g id="edge26" class="edge">
<title>&#45;&gt; </title>
<path fill="none" stroke="#555555" stroke-opacity="0.133333" d="M440.7,-994.18C426.3,-977.04 407.41,-954.55 393.01,-937.41"/>
<polygon fill="#555555" fill-opacity="0.133333" stroke="#555555" stroke-opacity="0.133333" points="395.4521,-934.8756 386.34,-929.47 390.0923,-939.3781 395.4521,-934.8756"/>
</g>
<!-- &#45;&gt; -->
<g id="edge27" class="edge">
<title>&#45;&gt;</title>
<path fill="none" stroke="#555555" stroke-opacity="0.133333" d="M532.81,-1037.4C541.49,-1039.5 550.12,-1041.7 558.16,-1043.7"/>
<polygon fill="#555555" fill-opacity="0.133333" stroke="#555555" stroke-opacity="0.133333" points="557.4349,-1047.1257 567.98,-1046.1 559.0969,-1040.3259 557.4349,-1047.1257"/>
</g>
<!-- &#45;&gt;  -->
<g id="edge28" class="edge">
<title>&#45;&gt; </title>
<path fill="none" stroke="#555555" stroke-opacity="0.133333" d="M478.36,-993.78C490.68,-973.97 507.59,-946.79 520.04,-926.78"/>
<polygon fill="#555555" fill-opacity="0.133333" stroke="#555555" stroke-opacity="0.133333" points="523.0984,-928.4896 525.41,-918.15 517.1551,-924.7914 523.0984,-928.4896"/>
</g>
<!--   ()&#45;&gt; -->
<g id="edge29" class="edge">
<title>  ()&#45;&gt;</title>
<path fill="none" stroke="#555555" stroke-opacity="0.133333" d="M774.38,-278.16C774.22,-278.16 774.06,-278.16 773.9,-278.16"/>
<polygon fill="#555555" fill-opacity="0.133333" stroke="#555555" stroke-opacity="0.133333" points="776.86,-274.6601 766.86,-278.16 776.86,-281.6601 776.86,-274.6601"/>
</g>
<!-- Les Partisans ()&#45;&gt; &#45;   -->
<g id="edge30" class="edge">
<title>Les Partisans ()&#45;&gt; &#45;  </title>
<path fill="none" stroke="#555555" stroke-opacity="0.133333" d="M667.83,-152.16C667.67,-152.16 667.5,-152.16 667.34,-152.16"/>
<polygon fill="#555555" fill-opacity="0.133333" stroke="#555555" stroke-opacity="0.133333" points="670.1,-148.6601 660.1,-152.16 670.1,-155.6601 670.1,-148.6601"/>
</g>
<!--  -->
<g id="node1" class="node">
<title></title>
<text text-anchor="middle" x="356.9" y="-534.8" font-family="Helvetica,sans-Serif" font-weight="bold" font-size="26.00" fill="#000000"></text>
</g>
<!--  -->
<g id="node2" class="node">
<title></title>
<text text-anchor="middle" x="566.01" y="-711" font-family="Helvetica,sans-Serif" font-weight="bold" font-size="14.00" fill="#000000"></text>
</g>
<!--  -->
<g id="node3" class="node">
<title></title>
<text text-anchor="middle" x="408.13" y="-768.11" font-family="Helvetica,sans-Serif" font-weight="bold" font-size="14.00" fill="#000000"></text>
</g>
<!--    -->
<g id="node4" class="node">
<title>  </title>
<text text-anchor="middle" x="249.41" y="-822.26" font-family="Helvetica,sans-Serif" font-weight="bold" font-size="14.00" fill="#000000">  </text>
</g>
<!--  -->
<g id="node5" class="node">
<title></title>
<text text-anchor="middle" x="134" y="-683.44" font-family="Helvetica,sans-Serif" font-weight="bold" font-size="14.00" fill="#000000"></text>
</g>
<!--   -->
<g id="node6" class="node">
<title> </title>
<text text-anchor="middle" x="73.443" y="-522.7" font-family="Helvetica,sans-Serif" font-weight="bold" font-size="14.00" fill="#000000"> </text>
</g>
<!--     -->
<g id="node7" class="node">
<title>   </title>
<text text-anchor="middle" x="469.26" y="-266.3" font-family="Helvetica,sans-Serif" font-weight="bold" font-size="14.00" fill="#000000">   </text>
</g>
<!--   -->
<g id="node8" class="node">
<title> </title>
<text text-anchor="middle" x="140.73" y="-362.33" font-family="Helvetica,sans-Serif" font-weight="bold" font-size="14.00" fill="#000000"> </text>
</g>
<!--  -->
<g id="node9" class="node">
<title></title>
<text text-anchor="middle" x="288.36" y="-272.86" font-family="Helvetica,sans-Serif" font-weight="bold" font-size="14.00" fill="#000000"></text>
</g>
<!--   -->
<g id="node10" class="node">
<title> </title>
<text text-anchor="middle" x="701.56" y="-541.67" font-family="Helvetica,sans-Serif" font-weight="bold" font-size="14.00" fill="#000000"> </text>
</g>
<!--  -->
<g id="node11" class="node">
<title></title>
<text text-anchor="middle" x="541.08" y="-428.47" font-family="Helvetica,sans-Serif" font-weight="bold" font-size="14.00" fill="#000000"></text>
</g>
<!--  -->
<g id="node12" class="node">
<title></title>
<text text-anchor="middle" x="897.23" y="-854.94" font-family="Helvetica,sans-Serif" font-weight="bold" font-size="26.00" fill="#000000"></text>
</g>
<!--  -->
<g id="node13" class="node">
<title></title>
<text text-anchor="middle" x="1033.7" y="-748.78" font-family="Helvetica,sans-Serif" font-weight="bold" font-size="14.00" fill="#000000"></text>
</g>
<!--     -->
<g id="node14" class="node">
<title>   </title>
<text text-anchor="middle" x="1071.9" y="-861.86" font-family="Helvetica,sans-Serif" font-weight="bold" font-size="14.00" fill="#000000">   </text>
</g>
<!--   -->
<g id="node15" class="node">
<title> </title>
<text text-anchor="middle" x="813.25" y="-704.34" font-family="Helvetica,sans-Serif" font-weight="bold" font-size="14.00" fill="#000000"> </text>
</g>
<!--    -->
<g id="node16" class="node">
<title>  </title>
<text text-anchor="middle" x="931.76" y="-686.3" font-family="Helvetica,sans-Serif" font-weight="bold" font-size="14.00" fill="#000000">  </text>
</g>
<!--    -->
<g id="node17" class="node">
<title>  </title>
<text text-anchor="middle" x="731.81" y="-913.26" font-family="Helvetica,sans-Serif" font-weight="bold" font-size="14.00" fill="#000000">  </text>
</g>
<!--   -->
<g id="node18" class="node">
<title> </title>
<text text-anchor="middle" x="922.86" y="-1029.9" font-family="Helvetica,sans-Serif" font-weight="bold" font-size="14.00" fill="#000000"> </text>
</g>
<!--       -->
<g id="node19" class="node">
<title>     </title>
<text text-anchor="middle" x="1028.2" y="-973.21" font-family="Helvetica,sans-Serif" font-weight="bold" font-size="14.00" fill="#000000">     </text>
</g>
<!--  -->
<g id="node20" class="node">
<title></title>
<text text-anchor="middle" x="805.99" y="-1006.5" font-family="Helvetica,sans-Serif" font-weight="bold" font-size="14.00" fill="#000000"></text>
</g>
<!--    -->
<g id="node21" class="node">
<title>  </title>
<text text-anchor="middle" x="734.64" y="-793.7" font-family="Helvetica,sans-Serif" font-weight="bold" font-size="14.00" fill="#000000">  </text>
</g>
<!--     -->
<g id="node22" class="node">
<title>   </title>
<text text-anchor="middle" x="1020.2" y="-397.86" font-family="Helvetica,sans-Serif" font-weight="bold" font-size="26.00" fill="#000000">   </text>
</g>
<!--  -->
<g id="node23" class="node">
<title></title>
<text text-anchor="middle" x="720.1" y="-400.46" font-family="Helvetica,sans-Serif" font-weight="bold" font-size="14.00" fill="#000000"></text>
</g>
<!--  -->
<g id="node24" class="node">
<title></title>
<text text-anchor="middle" x="940.49" y="-542.68" font-family="Helvetica,sans-Serif" font-weight="bold" font-size="26.00" fill="#000000"></text>
</g>
<!-- Teatr Slaski -->
<g id="node25" class="node">
<title>Teatr Slaski</title>
<text text-anchor="middle" x="710.51" y="-19.863" font-family="Helvetica,sans-Serif" font-weight="bold" font-size="26.00" fill="#000000">Teatr Slaski</text>
</g>
<!--  -->
<g id="node26" class="node">
<title></title>
<text text-anchor="middle" x="553.4" y="-22.463" font-family="Helvetica,sans-Serif" font-weight="bold" font-size="14.00" fill="#000000"></text>
</g>
<!--  () -->
<g id="node27" class="node">
<title> ()</title>
<text text-anchor="middle" x="252.96" y="-145.86" font-family="Helvetica,sans-Serif" font-weight="bold" font-size="26.00" fill="#000000"> ()</text>
</g>
<!--  -->
<g id="node28" class="node">
<title></title>
<text text-anchor="middle" x="30.547" y="-148.46" font-family="Helvetica,sans-Serif" font-weight="bold" font-size="14.00" fill="#000000"></text>
</g>
<!--  -->
<g id="node29" class="node">
<title></title>
<text text-anchor="middle" x="462.19" y="-1013.5" font-family="Helvetica,sans-Serif" font-weight="bold" font-size="26.00" fill="#000000"></text>
</g>
<!--    -->
<g id="node30" class="node">
<title>  </title>
<text text-anchor="middle" x="471.5" y="-1157" font-family="Helvetica,sans-Serif" font-weight="bold" font-size="14.00" fill="#000000">  </text>
</g>
<!--   -->
<g id="node31" class="node">
<title> </title>
<text text-anchor="middle" x="331.29" y="-1068.5" font-family="Helvetica,sans-Serif" font-weight="bold" font-size="14.00" fill="#000000"> </text>
</g>
<!--   -->
<g id="node32" class="node">
<title> </title>
<text text-anchor="middle" x="371.52" y="-908.13" font-family="Helvetica,sans-Serif" font-weight="bold" font-size="14.00" fill="#000000"> </text>
</g>
<!--  -->
<g id="node33" class="node">
<title></title>
<text text-anchor="middle" x="599.4" y="-1050.3" font-family="Helvetica,sans-Serif" font-weight="bold" font-size="14.00" fill="#000000"></text>
</g>
<!--   -->
<g id="node34" class="node">
<title> </title>
<text text-anchor="middle" x="536.7" y="-896.3" font-family="Helvetica,sans-Serif" font-weight="bold" font-size="14.00" fill="#000000"> </text>
</g>
<!--   () -->
<g id="node35" class="node">
<title>  ()</title>
<text text-anchor="middle" x="989.48" y="-271.86" font-family="Helvetica,sans-Serif" font-weight="bold" font-size="26.00" fill="#000000">  ()</text>
</g>
<!--  -->
<g id="node36" class="node">
<title></title>
<text text-anchor="middle" x="698.24" y="-274.46" font-family="Helvetica,sans-Serif" font-weight="bold" font-size="14.00" fill="#000000"></text>
</g>
<!-- Les Partisans () -->
<g id="node37" class="node">
<title>Les Partisans ()</title>
<text text-anchor="middle" x="853.28" y="-145.86" font-family="Helvetica,sans-Serif" font-weight="bold" font-size="26.00" fill="#000000">Les Partisans ()</text>
</g>
<!--  &#45;   -->
<g id="node38" class="node">
<title> &#45;  </title>
<text text-anchor="middle" x="581.99" y="-148.46" font-family="Helvetica,sans-Serif" font-weight="bold" font-size="14.00" fill="#000000"> &#45;  </text>
</g>
</g>
</svg>
