<?xml version="1.0" encoding="UTF-8" standalone="no"?>
<!DOCTYPE svg PUBLIC "-//W3C//DTD SVG 1.1//EN"
 "http://www.w3.org/Graphics/SVG/1.1/DTD/svg11.dtd">
<!-- Generated by graphviz version 2.40.1 (20161225.0304)
 -->
<!-- Title: G Pages: 1 -->
<svg width="1876pt" height="1458pt"
 viewBox="0.00 0.00 1876.13 1458.28" xmlns="http://www.w3.org/2000/svg" xmlns:xlink="http://www.w3.org/1999/xlink">
<g id="graph0" class="graph" transform="scale(1 1) rotate(0) translate(98.4335 1333.8014)">
<title>G</title>
<polygon fill="#dae2ff" stroke="transparent" points="-98.4335,124.4827 -98.4335,-1333.8014 1777.7,-1333.8014 1777.7,124.4827 -98.4335,124.4827"/>
<polygon fill="#bbd7d9" stroke="#bbd7d9" points="1192.4152,-524.8115 1189.7626,-522.3849 1179.9965,-511.8299 1167.318,-499.9215 1161.9171,-495.2419 1149.4436,-486.1653 1146.6573,-484.3366 1131.8551,-475.6392 1131.2576,-475.3323 1121.5156,-471.0121 1117.9,-469.6675 1112.1613,-467.9352 1103.361,-465.8929 1098.8453,-465.1638 1090.9165,-464.4404 1081.4628,-464.2449 1079.1136,-464.5285 1078.6022,-464.5542 1069.1895,-464.3673 1067.4021,-464.2062 1060.35,-464.5679 1055.9575,-464.1745 1048.5824,-464.0375 1045.8676,-464.1788 1044.7153,-464.1581 1042.9474,-464.0026 1038.2585,-463.9202 1034.6401,-464.1109 1033.9989,-464.1 1027.0861,-464.4681 1025.0978,-464.4349 1024.2386,-464.3604 1015.0466,-464.2106 1011.0776,-463.869 1003.976,-462.7601 918.2035,-443.3475 901.6718,-404.16 896.3416,-394.5909 878.6761,-404.16 826.3851,-438.4318 815.9032,-444.447 806.644,-448.979 796.0745,-452.3921 788.9476,-454.0992 780.812,-455.3681 773.732,-455.8784 769.7238,-455.8315 764.6696,-456.1658 757.2066,-456.0332 756.2747,-456.0885 746.8734,-457.3728 731.545,-461.8625 719.1474,-467.4177 703.2415,-477.0356 693.6166,-483.5628 658.4348,-504.1855 639.7763,-497.7387 634.8246,-610.4554 631.9574,-613.5408 628.9987,-613.5408 627.1772,-611.2602 619.9312,-608.2753 619.9312,-608.2753 627.1772,-611.2602 628.9987,-613.5408 631.9574,-613.5408 634.8246,-610.4554 639.7763,-497.7387 629.047,-493.5872 615.8418,-487.9351 595.7661,-477.701 589.388,-474.1983 609.2701,-443.8896 610.8578,-441.6408 611.4442,-440.869 620.9675,-429.2093 623.7949,-426.0178 625.8995,-423.3562 642.1482,-404.5388 658.1835,-389.7287 698.2033,-344.789 708.8507,-334.7885 714.1512,-329.2327 718.0032,-324.7661 717.1787,-322.5278 705.8272,-284.2233 701.3519,-271.9988 690.1638,-246.2625 652.7766,-243.3588 650.102,-243.2629 649.1149,-243.2687 643.6055,-330.6823 639.2567,-334.3098 638.1907,-334.3098 633.04,-295.1619 629.6352,-331.8497 623.5679,-329.5758 623.5679,-329.5758 629.6352,-331.8497 633.04,-295.1619 638.1907,-334.3098 639.2567,-334.3098 643.6055,-330.6823 649.1149,-243.2687 643.1852,-243.0556 637.7181,-243.0876 632.0358,-243.3585 629.8771,-243.281 619.7498,-243.3402 619.5167,-243.3221 605.2802,-243.4054 573.3027,-240.9218 565.6068,-228 540.4417,-172.5973 533.1365,-158.9021 526.4076,-156.6422 513.264,-152.8736 498.0872,-150.7525 492.3167,-150.2287 481.1572,-150.3041 481.0388,-223.3083 481.0388,-223.3083 481.1572,-150.3041 478.5049,-150.1805 476.2019,-149.9493 473.0016,-149.7856 460.5015,-150.3713 456.7873,-150.1478 453.5073,-150.2715 444.0978,-150.1232 443.495,-150.1432 439.5634,-150.4666 432.8498,-150.3006 422.218,-150.5577 409.3748,-152.1222 409.1173,-152.166 399.5489,-154.2642 390.458,-156.7008 374.0442,-162.7071 352.4038,-173.8177 350.067,-175.3595 334.4935,-171.2804 300.2911,-163.6748 282.3039,-158.9357 273.8803,-156.3807 273.092,-156.1104 270.0218,-154.9344 267.7433,-153.9684 259.2501,-150.0114 251.0073,-153.2745 240.0116,-157.1902 240.6491,-186.9917 238.3217,-262.1624 236.5953,-262.1624 231.284,-266.8093 234.3267,-304.8199 239.6903,-262.713 244.5883,-262.713 246.1857,-262.075 252.633,-262.075 253.2385,-262.3086 253.5555,-262.8233 258.7952,-266.6929 258.7952,-266.6929 253.5555,-262.8233 253.2385,-262.3086 252.633,-262.075 246.1857,-262.075 244.5883,-262.713 239.6903,-262.713 234.3267,-304.8199 231.284,-266.8093 103.6039,-272.9472 84.9659,-254.8897 86.5259,-298.0332 86.6651,-402.0994 91.9924,-406.429 93.6824,-406.429 94.205,-406.2192 99.9884,-406.2192 106.2712,-304.6874 107.8654,-336.4622 115.3206,-406.1378 117.5848,-406.1378 121.0891,-402.8193 121.0891,-402.8193 117.5848,-406.1378 121.4417,-409.9737 200.9854,-426.4473 214.2254,-415.91 216.174,-414.0926 233.958,-396.181 233.8489,-400.8338 234.9169,-507.6026 241.8475,-510.3246 240.3846,-388.8218 241.199,-387.8308 241.5294,-387.8264 249.1947,-512.2845 255.0324,-512.2845 256.6793,-512.9359 262.4039,-512.9359 262.8638,-637.1777 276.8885,-648.532 279.709,-650.9453 279.6912,-602.6301 279.6912,-602.6301 279.709,-650.9453 276.8885,-648.532 262.8638,-637.1777 262.4039,-512.9359 256.6793,-512.9359 255.0324,-512.2845 249.1947,-512.2845 241.5294,-387.8264 241.199,-387.8308 240.3846,-388.8218 241.8475,-510.3246 234.9169,-507.6026 233.8489,-400.8338 233.958,-396.181 216.174,-414.0926 214.2254,-415.91 200.9854,-426.4473 121.4417,-409.9737 117.5848,-406.1378 115.3206,-406.1378 107.8654,-336.4622 106.2712,-304.6874 99.9884,-406.2192 94.205,-406.2192 93.6824,-406.429 91.9924,-406.429 86.6651,-402.0994 86.5259,-298.0332 84.9659,-254.8897 103.6039,-272.9472 231.284,-266.8093 236.5953,-262.1624 238.3217,-262.1624 240.6491,-186.9917 240.0116,-157.1902 230.8474,-159.7249 182.7029,-171.138 174.2535,-173.4678 168.0287,-175.4237 160.5445,-178.0634 155.3521,-180.094 147.3482,-183.5329 145.2876,-184.4973 141.5962,-186.3697 123.8495,-196.0791 65.1578,-232.7109 56.7693,-231.2495 54.6174,-232.897 38.7742,-243.9987 -20.345,-283.4618 -55.3533,-324.1792 -91.5924,-406.36 -94.4335,-411.7803 -46.171,-537.4457 -29.1164,-552.5055 -40.3582,-660.0858 -44.1261,-686.3669 80.9177,-677.316 86.0524,-673.2112 86.9765,-673.2112 87.7822,-672.9075 93.7529,-672.9075 96.9764,-744.5569 101.351,-673.2368 105.3472,-673.2368 107.4303,-675.5806 114.0552,-678.0867 121.322,-675.2661 123.1184,-673.2819 123.1184,-673.2819 121.322,-675.2661 114.0552,-678.0867 107.4303,-675.5806 105.3472,-673.2368 101.351,-673.2368 96.9764,-744.5569 93.7529,-672.9075 87.7822,-672.9075 86.9765,-673.2112 86.0524,-673.2112 80.9177,-677.316 -44.1261,-686.3669 -45.26,-692.6159 -43.2137,-696.64 40.8556,-838.0447 76.4976,-834.3459 114.8348,-865.2499 117.125,-866.9858 128.6439,-875.1784 141.5243,-883.1275 147.4164,-886.4827 155.4562,-890.6799 195.855,-909.8469 234.6429,-906.6596 235.4206,-906.6384 238.3391,-906.7197 251.4222,-906.481 251.6313,-906.4888 257.2272,-906.438 260.2042,-906.5751 276.3451,-905.8323 280.175,-905.481 292.3741,-903.2415 302.0749,-900.5654 309.7784,-898.0835 311.2217,-897.5519 317.0488,-901.4875 324.9797,-906.3605 335.0155,-911.9084 336.3527,-912.5633 387.3233,-934.4473 395.9383,-938.6821 398.4033,-936.6537 402.2928,-932.9777 405.6617,-930.1126 414.6324,-924.036 423.492,-918.7968 433.6994,-913.6644 434.2498,-913.4381 437.4432,-865.1835 443.5005,-860.9446 443.5564,-860.8647 437.5024,-856.4165 437.5024,-856.4165 443.5564,-860.8647 443.5005,-860.9446 437.4432,-865.1835 434.2498,-913.4381 444.9408,-909.9667 455.0787,-907.5822 456.6071,-907.3607 463.3594,-906.9736 466.6501,-907.074 466.6513,-907.0742 477.1815,-907.4096 478.4307,-907.34 479.871,-907.3869 490.8079,-906.7889 494.1135,-906.3229 500.6643,-904.831 505.1293,-903.4266 514.053,-899.829 517.3908,-898.1929 529.2019,-891.3344 551.3622,-876.5765 571.5551,-887.0153 595.0527,-880.6215 609.2791,-877.6396 622.0607,-876.5832 624.6874,-876.5329 630.9543,-876.8104 634.031,-876.578 645.4166,-876.4426 645.1687,-847.3478 649.5811,-811.0541 648.9462,-810.7958 648.9462,-810.7958 649.5811,-811.0541 645.1687,-847.3478 645.4166,-876.4426 647.7963,-876.717 648.8959,-876.7776 656.2167,-876.7447 658.2498,-876.4915 662.6982,-876.2215 670.9149,-876.2448 678.9063,-875.7897 691.3892,-873.5842 698.8386,-871.8253 755.8372,-855.0034 768.3942,-810.96 779.8655,-781.006 776.9094,-778.4578 761.9304,-767.0809 756.4121,-763.1814 673.7445,-709.0778 690.1284,-664.0325 694.5951,-648.5173 697.9312,-632.6144 709.9104,-591.6445 714.339,-579.4688 763.5511,-582.2534 766.1214,-582.2609 768.4108,-582.1453 772.6879,-582.3979 779.7933,-582.4366 785.509,-581.8501 790.5989,-581.6101 790.8923,-581.6125 798.4631,-582.0908 807.5579,-581.6844 810.4087,-581.871 817.3322,-581.9518 819.96,-581.8416 820.2252,-581.845 825.2449,-582.1852 837.0305,-581.7195 908.0648,-575.1044 942.0872,-624.7582 966.9587,-657.804 974.714,-658.9306 976.2559,-659.0691 985.7066,-659.6578 1001.625,-644.5441 1013.0629,-634.3339 1016.1324,-631.7756 1023.6853,-625.9139 1024.0132,-625.6785 1027.9943,-622.4999 1030.6427,-620.548 1045.2809,-610.6299 1061.7738,-601.5063 1072.2096,-597.0629 1072.3975,-596.9948 1082.0455,-594.0884 1112.0565,-586.916 1122.1346,-583.8715 1122.9825,-583.5628 1134.3436,-578.6951 1144.1654,-573.8731 1156.8225,-566.078 1173.434,-553.764 1187.882,-540.3384 1198.1252,-530.1862 1195.6693,-527.9781 1192.4152,-524.8115 1192.4152,-524.8115"/>
<polygon fill="#c6e4cc" stroke="#c6e4cc" points="1390.126,-1100.5167 1389.0093,-1075.0995 1388.8629,-1046.7126 1389.6036,-1024.7045 1407.9989,-985.5582 1412.1632,-949.56 1421.8824,-898.5526 1418.2263,-835.5126 1403.6545,-829.1541 1390.6666,-823.8032 1386.1412,-822.161 1375.4961,-818.8102 1374.575,-817.9975 1362.1754,-807.5385 1361.9736,-807.3566 1351.9974,-798.783 1348.5917,-796.1456 1335.731,-786.7112 1327.2405,-781.1891 1314.6686,-773.5318 1312.9817,-772.5764 1300.7776,-766.1711 1292.2623,-762.4174 1287.812,-760.6411 1273.5427,-755.5363 1262.0911,-752.4026 1259.8239,-751.8777 1258.5789,-751.6412 1240.7804,-748.993 1230.4387,-748.3193 1227.155,-748.2424 1220.3505,-748.3663 1220.2751,-748.3644 1213.678,-748.749 1208.4258,-748.5978 1200.1261,-741.7686 1194.6096,-738.015 1185.1152,-732.2003 1179.0018,-728.8832 1175.8317,-727.3832 1164.4429,-722.7645 1158.0652,-720.6245 1147.9479,-718.6152 1140.8976,-717.7003 1133.9274,-717.2769 1127.7887,-717.3285 1123.0714,-717.0217 1119.2568,-717.3005 1113.1119,-717.2994 1112.9658,-717.3094 1110.6302,-717.2991 1100.1329,-716.483 1088.7979,-714.7698 1077.8456,-711.5126 1071.8479,-709.2925 1010.4197,-682.059 1007.7238,-679.5535 1002.2906,-674.1615 990.7537,-664.4337 985.7066,-659.6578 976.2559,-659.0691 974.714,-658.9306 966.9587,-657.804 953.4683,-670.8378 936.6629,-686.1188 859.2543,-763.4524 853.8992,-768.3287 839.3445,-769.0702 827.266,-770.0938 825.0995,-770.3503 809.8281,-772.6758 806.1447,-773.3598 805.384,-773.5266 794.7706,-776.2145 779.8655,-781.006 768.3942,-810.96 755.8372,-855.0034 766.461,-881.4 779.3205,-926.8527 786.0292,-946.2712 855.9648,-941.0613 860.1948,-941.3281 870.2836,-941.2679 872.6559,-941.4169 875.0974,-881.7196 880.8815,-881.7196 885.3986,-928.7897 885.4637,-941.2899 888.457,-941.4764 893.493,-941.4443 896.56,-996.4394 903.34,-996.4394 902.9003,-941.1967 896.2003,-941.2402 895.5936,-883.9602 902.3287,-886.5251 910.2089,-883.3211 911.8719,-881.4241 910.1712,-879.4739 910.1712,-879.4739 911.8719,-881.4241 910.2089,-883.3211 902.3287,-886.5251 895.5936,-883.9602 896.2003,-941.2402 902.9003,-941.1967 906.076,-940.9569 912.424,-941.3524 917.7583,-941.3167 920.4084,-941.1167 922.3012,-941.1039 922.9565,-941.1443 925.5189,-941.1266 931.4195,-881.7649 937.2018,-881.7649 938.2811,-881.3479 943.7457,-881.3479 948.7274,-941.2825 940.7977,-941.3391 937.9733,-997.0555 996.0236,-989.6168 1006.5737,-1013.7351 1009.1625,-1018.6805 1047.2371,-1032.286 1047.3386,-1005.9777 1047.3386,-1005.9777 1047.2371,-1032.286 1009.1625,-1018.6805 1006.5737,-1013.7351 996.0236,-989.6168 937.9733,-997.0555 940.7977,-941.3391 948.7274,-941.2825 943.7457,-881.3479 938.2811,-881.3479 937.2018,-881.7649 931.4195,-881.7649 925.5189,-941.1266 922.9565,-941.1443 922.3012,-941.1039 920.4084,-941.1167 917.7583,-941.3167 912.424,-941.3524 906.076,-940.9569 902.9003,-941.1967 903.34,-996.4394 896.56,-996.4394 893.493,-941.4443 888.457,-941.4764 885.4637,-941.2899 885.3986,-928.7897 880.8815,-881.7196 875.0974,-881.7196 872.6559,-941.4169 870.2836,-941.2679 860.1948,-941.3281 855.9648,-941.0613 786.0292,-946.2712 782.4302,-957.5666 771.1696,-1001 770.2216,-1003.5407 831.9871,-1096 847.8406,-1115.2352 848.4554,-1187.0474 876.8908,-1202.131 952.8048,-1219.075 968.5808,-1223.1033 971.6563,-1224.084 991.1526,-1230.9341 1004.3995,-1241.7605 1065.754,-1239.9506 1071.9735,-1239.9711 1089.2029,-1240.5938 1095.9542,-1241.0588 1095.2875,-1184.1125 1098.6984,-1119.2671 1100.1848,-1117.4077 1098.6185,-1115.5295 1098.6185,-1115.5295 1100.1848,-1117.4077 1098.6984,-1119.2671 1095.2875,-1184.1125 1095.9542,-1241.0588 1100.2743,-1241.6394 1106.1868,-1117.6422 1109.2677,-1117.6422 1113.0548,-1113.9202 1153.4476,-1106.778 1148.8997,-1102.4996 1148.8997,-1102.4996 1153.4476,-1106.778 1113.0548,-1113.9202 1109.2677,-1117.6422 1106.1868,-1117.6422 1100.2743,-1241.6394 1117.3235,-1244.4935 1118.4696,-1244.7228 1157.8678,-1246.5676 1172.1434,-1241.1331 1220.8048,-1194.0983 1224.7378,-1192.8672 1232.4159,-1191.1318 1248.8958,-1187.8799 1270.2877,-1185.5115 1270.219,-1183.6929 1261.9944,-1061.0353 1256.9796,-1061.0353 1256.7161,-1060.9379 1252.0981,-1005.5211 1251.3801,-1005.4924 1248.4176,-1005.1621 1253.9536,-949.881 1253.2803,-949.6291 1248.691,-949.6291 1246.6921,-951.875 1246.6921,-951.875 1248.691,-949.6291 1245.7117,-946.2282 1240.5428,-944.4439 1240.5428,-944.4439 1245.7117,-946.2282 1248.691,-949.6291 1253.2803,-949.6291 1253.9536,-949.881 1248.4176,-1005.1621 1251.3801,-1005.4924 1252.0981,-1005.5211 1259.7954,-1005.2783 1260.4493,-1005.3042 1268.1995,-1005.0544 1273.0315,-1005.2427 1274.5248,-1005.1941 1274.5248,-1005.1941 1273.0315,-1005.2427 1268.1995,-1005.0544 1260.4493,-1005.3042 1259.7954,-1005.2783 1252.0981,-1005.5211 1256.7161,-1060.9379 1256.9796,-1061.0353 1261.9944,-1061.0353 1270.219,-1183.6929 1270.2877,-1185.5115 1313.1376,-1183.2487 1373.3427,-1128.272 1390.126,-1100.5167 1390.126,-1100.5167"/>
<polygon fill="#d0e4cc" stroke="#d0e4cc" points="612.626,-81.4094 611.8942,-82.2181 557.7599,-135.6325 548.6347,-143.2322 539.6207,-151.6065 533.1365,-158.9021 540.4417,-172.5973 565.6068,-228 573.3027,-240.9218 605.2802,-243.4054 619.5167,-243.3221 619.7498,-243.3402 629.8771,-243.281 632.0358,-243.3585 637.7181,-243.0876 643.1852,-243.0556 649.1149,-243.2687 650.102,-243.2629 652.7766,-243.3588 690.1638,-246.2625 736.2983,-196.1539 776.5233,-210.3767 792.3071,-214.8956 806.3975,-216.9775 817.7791,-217.0869 818.9941,-217.1758 820.7792,-217.1834 833.3553,-218.0376 847.2715,-220.7594 850.4763,-221.5873 856.2986,-223.4613 866.7055,-227.4753 881.4138,-235.0224 882.267,-235.5124 894.1943,-243.126 899.1384,-246.9036 904.8228,-242.4115 908.3816,-239.8371 911.6699,-237.6722 924.6179,-229.9677 941.2209,-222.2596 945.6757,-220.4977 947.2628,-219.9765 956.1649,-217.6332 961.4644,-216.588 968.1332,-215.7112 975.4049,-215.2347 984.1921,-215.2397 985.3327,-215.1649 987.8643,-215.1658 989.6185,-215.0505 994.46,-215.0511 995.741,-215.1355 997.6881,-215.1353 1001.8583,-215.4109 1005.8146,-215.4095 1007.6911,-215.2836 1014.8925,-215.2793 1015.5453,-215.2353 1025.6981,-215.2269 1026.1107,-215.2814 1033.0262,-215.2725 1038.6771,-214.8878 1042.3463,-214.8822 1046.3844,-215.1432 1047.1357,-215.1419 1050.3373,-215.3471 1050.4696,-215.3469 1054.2772,-215.0867 1063.9368,-215.0652 1067.7465,-214.8047 1075.629,-213.743 1083.1403,-212.2353 1088.1989,-210.8879 1088.3075,-210.8518 1107.7881,-203.0291 1109.421,-202.1618 1121.3494,-194.9986 1129.6962,-189.432 1134.8197,-185.6806 1143.062,-179.1006 1153.6686,-169.2059 1160.7589,-162.1169 1166.5959,-157.1991 1199.1223,-128.042 1210.3124,-118.6205 1190.8604,-90.1412 1054.4235,-89.1312 1050.6361,-89.3519 1048.2942,-89.3341 1047.703,-89.2908 1045.0859,-89.2702 1044.1982,-89.3212 1036.2399,-89.256 1034.7003,-89.3444 1031.7876,-89.3197 1031.6613,-89.3103 1023.5742,-89.239 1016.4914,-88.7051 1010.6301,-89.0375 1009.8206,-89.1367 1004.8541,-89.0894 1004.5089,-89.0633 997.2887,-88.9921 995.7055,-88.8715 987.0323,-89.3588 980.5546,-89.2909 979.9937,-89.3221 979.5467,-89.2876 968.3649,-89.164 963.2844,-89.4445 962.2971,-89.4334 960.9567,-89.33 958.8716,-89.3061 957.1343,-89.1715 954.7746,-89.1437 952.083,-89.2898 941.4783,-89.161 939.4615,-89.0024 938.0906,-88.9856 936.7358,-88.879 931.554,-88.8136 924.1414,-89.2092 923.8239,-89.1842 921.4957,-89.1538 919.0069,-89.285 911.1605,-89.1793 909.6815,-89.0609 906.7964,-89.0212 900.5164,-89.3511 898.215,-89.3189 892.6504,-88.8706 891.6441,-88.9225 888.2092,-88.8726 880.1027,-89.2916 875.8884,-88.9483 867.0703,-88.815 866.87,-88.7987 853.1912,-86.7765 850.9758,-86.3042 847.3575,-85.2934 835.9205,-81.3253 830.8236,-79.2219 821.7111,-74.8569 816.4216,-71.9796 816.2025,-71.8461 757.0521,-102.7951 751.6919,-105.9972 736.5117,-116.2181 734.4493,-114.5992 734.4183,-114.5772 653.9539,-63.0724 641.921,-53.8292 641.0568,-54.8462 634.8066,-61.647 623.1526,-72.3591 614.8657,-79.2626 612.626,-81.4094 612.626,-81.4094"/>
<polygon fill="#d8d6da" stroke="#d8d6da" points="117.125,-866.9858 114.8348,-865.2499 76.4976,-834.3459 40.8556,-838.0447 21.5701,-860.9191 -11.5832,-930.5665 -10.0131,-976.643 -10.136,-1007.6884 111.9357,-996.3198 114.951,-1043.5317 120.1817,-992.3072 124.1774,-992.3072 125.7864,-994.1445 133.2862,-997.183 133.2862,-997.183 125.7864,-994.1445 124.1774,-992.3072 120.1817,-992.3072 114.951,-1043.5317 111.9357,-996.3198 -10.136,-1007.6884 -11.2357,-1033.8915 19.1581,-1113.797 113.4579,-1121.6042 133.8808,-1124.507 148.9227,-1127.9806 156.5527,-1129.9679 192.5949,-1140.4176 230.1114,-1164.6991 246.2447,-1168.5442 246.9064,-1168.7162 258.1304,-1171.8785 258.2558,-1171.9165 261.5658,-1167.5088 277.5864,-1147.9036 291.5534,-1131.6042 302.6372,-1120.5663 303.7499,-1119.3678 314.9078,-1108.033 317.3274,-1105.3494 321.2883,-1101.2395 326.1653,-1096.832 337.5479,-1087.2708 416.834,-1025.9712 405.3011,-992.16 402.4346,-970.2252 395.9383,-938.6821 387.3233,-934.4473 336.3527,-912.5633 335.0155,-911.9084 324.9797,-906.3605 317.0488,-901.4875 311.2217,-897.5519 309.7784,-898.0835 302.0749,-900.5654 292.3741,-903.2415 280.175,-905.481 276.3451,-905.8323 260.2042,-906.5751 257.2272,-906.438 251.6313,-906.4888 251.4222,-906.481 238.3391,-906.7197 235.4206,-906.6384 234.6429,-906.6596 195.855,-909.8469 155.4562,-890.6799 147.4164,-886.4827 141.5243,-883.1275 128.6439,-875.1784 117.125,-866.9858 117.125,-866.9858"/>
<polygon fill="#bbcadd" stroke="#bbcadd" points="738.1148,107.8469 736.8594,107.5786 633.2787,88.7302 616.6815,74.0913 638.0002,-26.163 639.2685,-37.5169 641.921,-53.8292 653.9539,-63.0724 734.4183,-114.5772 734.4493,-114.5992 736.5117,-116.2181 751.6919,-105.9972 757.0521,-102.7951 816.2025,-71.8461 816.4216,-71.9796 821.7111,-74.8569 830.8236,-79.2219 835.9205,-81.3253 847.3575,-85.2934 850.9758,-86.3042 853.1912,-86.7765 866.87,-88.7987 867.0703,-88.815 875.8884,-88.9483 880.1027,-89.2916 888.2092,-88.8726 891.6441,-88.9225 892.6504,-88.8706 893.1354,-77.3549 893.1354,-77.3549 892.6504,-88.8706 898.215,-89.3189 900.5164,-89.3511 906.7964,-89.0212 909.6815,-89.0609 911.1605,-89.1793 919.0069,-89.285 921.4957,-89.1538 923.8239,-89.1842 924.1414,-89.2092 931.554,-88.8136 936.7358,-88.879 938.0906,-88.9856 939.4615,-89.0024 941.4783,-89.161 952.083,-89.2898 954.7746,-89.1437 957.1343,-89.1715 958.8716,-89.3061 960.9567,-89.33 962.2971,-89.4334 963.2844,-89.4445 968.3649,-89.164 979.5467,-89.2876 979.9937,-89.3221 980.5546,-89.2909 987.0323,-89.3588 995.7055,-88.8715 997.2887,-88.9921 1004.5089,-89.0633 1004.8541,-89.0894 1009.8206,-89.1367 1010.6301,-89.0375 1016.4914,-88.7051 1023.5742,-89.239 1031.6613,-89.3103 1031.7876,-89.3197 1034.7003,-89.3444 1036.2399,-89.256 1044.1982,-89.3212 1045.0859,-89.2702 1047.703,-89.2908 1048.2942,-89.3341 1050.6361,-89.3519 1054.4235,-89.1312 1190.8604,-90.1412 1179.9999,-45.4848 1170.6754,10.1561 1165.4163,51.4518 1119.4274,101.282 1065.0051,106.2692 1041.8953,109.031 1036.3986,110.1437 1026.2301,107.8436 1013.1589,105.6265 1004.39,104.3882 985.862,103.3428 972.0789,103.3455 967.7375,103.5918 947.3868,105.3239 941.6458,106.135 938.7922,106.6184 933.3066,107.8599 916.0271,104.5405 887.0501,102.2668 884.9229,102.2212 813.1828,104.7604 787.6902,118.1399 781.6762,120.4827 755.9378,112.5069 747.2578,110.0947 738.1148,107.8469 738.1148,107.8469"/>
<polygon fill="#fbb4ae" stroke="#fbb4ae" points="428.407,-1114.3843 423.7585,-1161.6272 422.6878,-1244.9904 270.9069,-1188.6913 258.2558,-1171.9165 261.5658,-1167.5088 277.5864,-1147.9036 291.5534,-1131.6042 302.6372,-1120.5663 303.7499,-1119.3678 314.9078,-1108.033 317.3274,-1105.3494 321.2883,-1101.2395 326.1653,-1096.832 337.5479,-1087.2708 416.834,-1025.9712 405.3011,-992.16 402.4346,-970.2252 395.9383,-938.6821 398.4033,-936.6537 402.2928,-932.9777 405.6617,-930.1126 414.6324,-924.036 423.492,-918.7968 433.6994,-913.6644 434.2498,-913.4381 444.9408,-909.9667 455.0787,-907.5822 456.6071,-907.3607 463.3594,-906.9736 466.6501,-907.074 466.6513,-907.0742 477.1815,-907.4096 478.4307,-907.34 479.871,-907.3869 490.8079,-906.7889 494.1135,-906.3229 500.6643,-904.831 505.1293,-903.4266 514.053,-899.829 517.3908,-898.1929 529.2019,-891.3344 551.3622,-876.5765 571.5551,-887.0153 595.0527,-880.6215 609.2791,-877.6396 622.0607,-876.5832 624.6874,-876.5329 630.9543,-876.8104 634.031,-876.578 645.4166,-876.4426 647.7963,-876.717 648.8959,-876.7776 656.2167,-876.7447 658.2498,-876.4915 662.6982,-876.2215 670.9149,-876.2448 678.9063,-875.7897 679.245,-906.1671 675.1869,-941.6854 671.7604,-941.6854 669.2681,-938.9836 663.2409,-936.8461 663.2409,-936.8461 669.2681,-938.9836 671.7604,-941.6854 675.1869,-941.6854 679.245,-906.1671 678.9063,-875.7897 691.3892,-873.5842 698.8386,-871.8253 755.8372,-855.0034 766.461,-881.4 779.3205,-926.8527 786.0292,-946.2712 782.4302,-957.5666 771.1696,-1001 770.2216,-1003.5407 831.9871,-1096 809.1606,-1096 738.8707,-1091.2677 733.7088,-1094.6923 733.3204,-1094.2684 733.3204,-1094.2684 733.7088,-1094.6923 738.8707,-1091.2677 809.1606,-1096 831.9871,-1096 847.8406,-1115.2352 848.4554,-1187.0474 762.5328,-1224.9088 753.461,-1239.8899 710.7932,-1317.2112 683.8382,-1325.8945 641.7334,-1324.9343 626.4472,-1325.0316 624.5395,-1325.0994 604.0862,-1327.0231 588.7984,-1329.8014 586.8273,-1329.5588 575.5748,-1328.8121 572.8126,-1328.7072 565.6006,-1328.6368 550.0367,-1328.9259 542.1523,-1329.2949 487.2551,-1313.6278 442.8419,-1265.5126 434.0219,-1249.9993 431.1702,-1248.6714 422.6878,-1244.9904 423.7585,-1161.6272 428.407,-1114.3843 434.3793,-1114.3843 434.5893,-1114.3077 440.2876,-1114.3077 445.5439,-1212.7433 447.5657,-1114.0983 454.0581,-1118.8074 460.3176,-1118.8074 466.1353,-1211.4407 466.687,-1210.8765 467.2531,-1114.2539 474.112,-1114.2539 470.9739,-1206.5482 478.1799,-1199.5376 480.6779,-1114.4875 485.8312,-1114.4875 485.8312,-1114.4875 480.6779,-1114.4875 478.1799,-1199.5376 470.9739,-1206.5482 474.112,-1114.2539 467.2531,-1114.2539 466.687,-1210.8765 466.1353,-1211.4407 460.3176,-1118.8074 454.0581,-1118.8074 447.5657,-1114.0983 445.5439,-1212.7433 440.2876,-1114.3077 434.5893,-1114.3077 434.3793,-1114.3843 428.407,-1114.3843 428.407,-1114.3843"/>
<polygon fill="#fed9a6" stroke="#fed9a6" points="123.8495,-196.0791 124.416,-134.4415 124.416,-134.4415 123.8495,-196.0791 141.5962,-186.3697 145.2876,-184.4973 147.3482,-183.5329 155.3521,-180.094 160.5445,-178.0634 168.0287,-175.4237 174.2535,-173.4678 182.7029,-171.138 230.8474,-159.7249 240.0116,-157.1902 251.0073,-153.2745 259.2501,-150.0114 267.7433,-153.9684 270.0218,-154.9344 273.092,-156.1104 273.8803,-156.3807 282.3039,-158.9357 300.2911,-163.6748 334.4935,-171.2804 350.067,-175.3595 352.4038,-173.8177 374.0442,-162.7071 390.458,-156.7008 399.5489,-154.2642 409.1173,-152.166 409.3748,-152.1222 422.218,-150.5577 432.8498,-150.3006 439.5634,-150.4666 443.495,-150.1432 444.0978,-150.1232 453.5073,-150.2715 456.7873,-150.1478 460.5015,-150.3713 473.0016,-149.7856 476.2019,-149.9493 478.5049,-150.1805 481.1572,-150.3041 492.3167,-150.2287 498.0872,-150.7525 513.264,-152.8736 526.4076,-156.6422 533.1365,-158.9021 539.6207,-151.6065 548.6347,-143.2322 557.7599,-135.6325 611.8942,-82.2181 612.626,-81.4094 614.8657,-79.2626 623.1526,-72.3591 634.8066,-61.647 641.0568,-54.8462 641.921,-53.8292 639.2685,-37.5169 638.0002,-26.163 616.6815,74.0913 543.7476,70.982 529.2953,71.1355 523.3676,71.5138 520.5757,71.7664 512.897,70.2049 495.3112,67.6005 486.9972,66.8309 473.8228,66.3407 464.9593,66.2567 464.7975,66.2597 452.69,66.8172 444.6355,67.4116 437.8253,67.3193 427.4084,68.0364 404.2638,70.9059 404.1647,70.9236 393.9943,73.0206 387.7094,74.4894 376.1308,77.5143 380.0106,-67.9489 373.2354,-67.9489 373.2289,-67.9472 373.2289,-67.9472 373.2354,-67.9489 380.0106,-67.9489 376.1308,77.5143 372.7159,78.4996 357.2902,83.8041 350.6287,86.4623 337.7403,87.6306 319.2463,90.19 258.0393,58.073 252.1305,58.6228 185.332,58.0128 173.7855,58.2437 170.7662,58.392 164.2665,58.9006 153.0566,60.105 138.9084,62.4507 127.6832,64.6374 112.661,68.8749 44.3091,46.4461 19.1516,13.4724 1.9461,-51.029 4.1461,-68.163 7.0516,-127.5346 56.7693,-231.2495 65.1578,-232.7109 123.8495,-196.0791 123.8495,-196.0791"/>
<polygon fill="#f0d3c2" stroke="#f0d3c2" points="1505.6218,-251.0448 1508.2556,-278.16 1509.4376,-285.132 1439.6239,-323.0927 1428.4857,-328.4622 1416.2208,-333.5899 1406.4301,-336.4154 1402.3071,-337.3404 1400.3743,-337.6514 1387.3763,-338.9246 1381.3909,-339.128 1378.1022,-339.4658 1369.8379,-339.2561 1368.4104,-339.3175 1362.6908,-339.1985 1361.9252,-339.1337 1359.7723,-339.0987 1356.6245,-278.4725 1351.996,-278.4725 1349.3527,-275.2254 1343.3318,-272.9545 1343.3318,-272.9545 1349.3527,-275.2254 1351.996,-278.4725 1356.6245,-278.4725 1359.7723,-339.0987 1356.859,-339.2504 1351.0308,-339.1815 1350.166,-339.1158 1342.3486,-339.0587 1340.0149,-339.2018 1334.3494,-339.1861 1333.4867,-339.2426 1328.8086,-338.9516 1321.3737,-338.9982 1319.8857,-338.9125 1313.8401,-338.9775 1312.853,-338.8619 1310.5492,-338.7502 1298.397,-338.9915 1295.2257,-338.8521 1289.1664,-338.2003 1287.8748,-337.9793 1276.0255,-335.1801 1266.1443,-332.2136 1256.0222,-327.8798 1246.6151,-323.2512 1236.5123,-316.9844 1234.8458,-315.844 1225.8676,-322.0681 1218.1486,-326.385 1205.4395,-332.657 1198.5835,-335.5682 1198.4133,-335.6289 1190.9574,-337.798 1186.4371,-338.8154 1174.0206,-340.7958 1160.1539,-341.1658 1158.1312,-340.9508 1156.0123,-340.8666 1147.6484,-341.0884 1147.3148,-341.0529 1144.7599,-340.9508 1132.4465,-341.2779 1129.4293,-340.9561 1124.8707,-341.0757 1121.9243,-340.9576 1119.5817,-341.0191 1116.8304,-340.9082 1109.2625,-341.1076 1107.8214,-341.242 1104.0912,-341.3398 1095.6301,-340.9975 1095.4059,-340.9735 1090.427,-341.1024 1089.7726,-341.1627 1083.9001,-340.9241 1073.8832,-341.1854 1069.7877,-340.7445 1064.7627,-340.8743 1058.1827,-341.4841 1055.7971,-341.3872 1055.4756,-341.3954 1047.8535,-341.0832 1040.111,-341.2823 1040.0668,-341.2805 1038.376,-341.3236 1036.8724,-341.4619 1035.6681,-341.4926 1025.2703,-341.0646 1022.5922,-341.3119 1013.6152,-341.5404 1005.9849,-342.2409 990.4589,-345.7336 987.8744,-346.4823 985.5361,-347.3132 897.2018,-384.6773 896.2108,-386.5927 815.4179,-350.0026 801.2972,-345.4558 790.8939,-342.8015 788.495,-342.3511 782.3037,-341.5977 768.5575,-340.8322 759.4798,-339.769 742.1794,-335.6056 740.4876,-335.0974 738.4583,-334.3645 732.6689,-331.9111 718.0045,-324.7668 718.0032,-324.7661 717.1787,-322.5278 705.8272,-284.2233 701.3519,-271.9988 690.1638,-246.2625 736.2983,-196.1539 776.5233,-210.3767 792.3071,-214.8956 806.3975,-216.9775 817.7791,-217.0869 818.9941,-217.1758 820.7792,-217.1834 833.3553,-218.0376 847.2715,-220.7594 850.4763,-221.5873 856.2986,-223.4613 866.7055,-227.4753 881.4138,-235.0224 882.267,-235.5124 894.1943,-243.126 899.1384,-246.9036 904.8228,-242.4115 908.3816,-239.8371 911.6699,-237.6722 924.6179,-229.9677 941.2209,-222.2596 945.6757,-220.4977 947.2628,-219.9765 956.1649,-217.6332 961.4644,-216.588 968.1332,-215.7112 975.4049,-215.2347 984.1921,-215.2397 985.3327,-215.1649 987.8643,-215.1658 989.6185,-215.0505 994.46,-215.0511 995.741,-215.1355 997.6881,-215.1353 1001.8583,-215.4109 1005.8146,-215.4095 1007.6911,-215.2836 1014.8925,-215.2793 1015.5453,-215.2353 1025.6981,-215.2269 1026.1107,-215.2814 1033.0262,-215.2725 1038.6771,-214.8878 1042.3463,-214.8822 1046.3844,-215.1432 1047.1357,-215.1419 1050.3373,-215.3471 1050.4696,-215.3469 1054.2772,-215.0867 1063.9368,-215.0652 1067.7465,-214.8047 1075.629,-213.743 1083.1403,-212.2353 1088.1989,-210.8879 1088.3075,-210.8518 1107.7881,-203.0291 1109.421,-202.1618 1121.3494,-194.9986 1129.6962,-189.432 1134.8197,-185.6806 1143.062,-179.1006 1153.6686,-169.2059 1160.7589,-162.1169 1166.5959,-157.1991 1199.1223,-128.042 1210.3124,-118.6205 1238.0588,-130.5282 1298.4818,-126.4594 1326.2454,-123.8948 1332.8577,-122.792 1342.4264,-120.7156 1357.8008,-123.3253 1364.3011,-124.1058 1365.1366,-124.1854 1383.9728,-125.5173 1399.9048,-126.2489 1427.3427,-138.9033 1505.6218,-251.0448 1505.6218,-251.0448"/>
<polygon fill="#dbbfc6" stroke="#dbbfc6" points="714.1512,-329.2327 708.8507,-334.7885 698.2033,-344.789 658.1835,-389.7287 642.1482,-404.5388 625.8995,-423.3562 623.7949,-426.0178 620.9675,-429.2093 611.4442,-440.869 610.8578,-441.6408 609.2701,-443.8896 589.388,-474.1983 595.7661,-477.701 615.8418,-487.9351 629.047,-493.5872 639.7763,-497.7387 658.4348,-504.1855 693.6166,-483.5628 703.2415,-477.0356 719.1474,-467.4177 731.545,-461.8625 746.8734,-457.3728 756.2747,-456.0885 757.2066,-456.0332 764.6696,-456.1658 769.7238,-455.8315 773.732,-455.8784 780.812,-455.3681 788.9476,-454.0992 796.0745,-452.3921 806.644,-448.979 815.9032,-444.447 826.3851,-438.4318 878.6761,-404.16 896.3416,-394.5909 901.6718,-404.16 918.2035,-443.3475 1003.976,-462.7601 1011.0776,-463.869 1015.0466,-464.2106 1024.2386,-464.3604 1025.0978,-464.4349 1027.0861,-464.4681 1033.9989,-464.1 1034.6401,-464.1109 1038.2585,-463.9202 1042.9474,-464.0026 1044.7153,-464.1581 1045.8676,-464.1788 1048.5824,-464.0375 1055.9575,-464.1745 1060.35,-464.5679 1067.4021,-464.2062 1069.1895,-464.3673 1078.6022,-464.5542 1079.1136,-464.5285 1081.4628,-464.2449 1090.9165,-464.4404 1098.8453,-465.1638 1103.361,-465.8929 1112.1613,-467.9352 1117.9,-469.6675 1121.5156,-471.0121 1131.2576,-475.3323 1131.8551,-475.6392 1146.6573,-484.3366 1149.4436,-486.1653 1161.9171,-495.2419 1167.318,-499.9215 1179.9965,-511.8299 1189.7626,-522.3849 1192.4152,-524.8115 1195.6693,-527.9781 1198.1252,-530.1862 1199.8209,-530.2125 1200.6583,-530.25 1201.6411,-530.2079 1208.3618,-530.117 1211.0087,-530.1589 1215.4979,-530.3621 1224.0074,-530.2488 1226.2638,-530.2851 1231.4912,-530.2161 1236.4762,-530.0042 1240.5292,-529.7128 1242.9675,-529.6813 1250.925,-530.0459 1251.7985,-530.0603 1256.4373,-530.2733 1260.9386,-530.2166 1263.6219,-530.2617 1272.9259,-530.1454 1277.6693,-530.2255 1282.2548,-530.4376 1282.4364,-530.4353 1288.4086,-530.1882 1291.0846,-530.2341 1296.5155,-530.1691 1297.8899,-530.2331 1300.2571,-530.2744 1304.6063,-530.2231 1304.9072,-530.2285 1318.8517,-530.0654 1321.349,-530.1832 1331.605,-530.3662 1335.7933,-530.0728 1349.9882,-530.3311 1351.9702,-530.3091 1352.7864,-530.2522 1367.0127,-530.0975 1370.0879,-530.2449 1377.0543,-530.1709 1380.1416,-530.2287 1383.2504,-530.1051 1390.1884,-530.0331 1393.6125,-530.098 1399.3896,-529.8698 1404.4634,-529.8182 1406.2231,-529.9557 1420.5598,-530.2352 1422.0453,-530.3079 1429.0845,-530.2395 1435.9397,-530.3747 1443.5508,-530.0789 1443.5697,-530.0787 1463.8528,-528.6992 1470.7985,-527.8218 1485.8734,-525.0326 1492.0876,-523.7018 1501.1415,-521.4994 1510.1255,-518.7903 1518.9911,-515.5946 1536.2769,-508.852 1560.979,-497.0475 1567.8778,-493.5569 1574.8867,-453.1486 1574.9672,-446.1008 1561.3568,-404.16 1546.5536,-333.9493 1509.4376,-285.132 1439.6239,-323.0927 1428.4857,-328.4622 1416.2208,-333.5899 1406.4301,-336.4154 1402.3071,-337.3404 1400.3743,-337.6514 1387.3763,-338.9246 1381.3909,-339.128 1378.1022,-339.4658 1369.8379,-339.2561 1368.4104,-339.3175 1362.6908,-339.1985 1361.9252,-339.1337 1359.7723,-339.0987 1356.859,-339.2504 1351.0308,-339.1815 1350.166,-339.1158 1342.3486,-339.0587 1340.0149,-339.2018 1334.3494,-339.1861 1333.4867,-339.2426 1328.8086,-338.9516 1321.3737,-338.9982 1319.8857,-338.9125 1313.8401,-338.9775 1312.853,-338.8619 1310.5492,-338.7502 1298.397,-338.9915 1295.2257,-338.8521 1289.1664,-338.2003 1287.8748,-337.9793 1276.0255,-335.1801 1266.1443,-332.2136 1256.0222,-327.8798 1246.6151,-323.2512 1236.5123,-316.9844 1234.8458,-315.844 1225.8676,-322.0681 1218.1486,-326.385 1205.4395,-332.657 1198.5835,-335.5682 1198.4133,-335.6289 1190.9574,-337.798 1186.4371,-338.8154 1174.0206,-340.7958 1160.1539,-341.1658 1158.1312,-340.9508 1156.0123,-340.8666 1147.6484,-341.0884 1147.3148,-341.0529 1144.7599,-340.9508 1132.4465,-341.2779 1129.4293,-340.9561 1124.8707,-341.0757 1121.9243,-340.9576 1119.5817,-341.0191 1116.8304,-340.9082 1109.2625,-341.1076 1107.8214,-341.242 1104.0912,-341.3398 1095.6301,-340.9975 1095.4059,-340.9735 1090.427,-341.1024 1089.7726,-341.1627 1083.9001,-340.9241 1073.8832,-341.1854 1069.7877,-340.7445 1064.7627,-340.8743 1058.1827,-341.4841 1055.7971,-341.3872 1055.4756,-341.3954 1047.8535,-341.0832 1040.111,-341.2823 1040.0668,-341.2805 1038.376,-341.3236 1036.8724,-341.4619 1035.6681,-341.4926 1025.2703,-341.0646 1022.5922,-341.3119 1013.6152,-341.5404 1005.9849,-342.2409 990.4589,-345.7336 987.8744,-346.4823 985.5361,-347.3132 897.2018,-384.6773 896.2108,-386.5927 815.4179,-350.0026 801.2972,-345.4558 790.8939,-342.8015 788.495,-342.3511 782.3037,-341.5977 768.5575,-340.8322 759.4798,-339.769 742.1794,-335.6056 740.4876,-335.0974 738.4583,-334.3645 732.6689,-331.9111 718.0045,-324.7668 718.0032,-324.7661 714.1512,-329.2327 714.1512,-329.2327"/>
<polygon fill="#e1cddd" stroke="#e1cddd" points="1122.1346,-583.8715 1112.0565,-586.916 1082.0455,-594.0884 1072.3975,-596.9948 1072.2096,-597.0629 1061.7738,-601.5063 1045.2809,-610.6299 1030.6427,-620.548 1027.9943,-622.4999 1024.0132,-625.6785 1023.6853,-625.9139 1016.1324,-631.7756 1013.0629,-634.3339 1001.625,-644.5441 985.7066,-659.6578 990.7537,-664.4337 1002.2906,-674.1615 1007.7238,-679.5535 1010.4197,-682.059 1071.8479,-709.2925 1077.8456,-711.5126 1088.7979,-714.7698 1100.1329,-716.483 1110.6302,-717.2991 1112.9658,-717.3094 1113.1119,-717.2994 1119.2568,-717.3005 1123.0714,-717.0217 1127.7887,-717.3285 1133.9274,-717.2769 1140.8976,-717.7003 1147.9479,-718.6152 1158.0652,-720.6245 1157.9424,-715.1863 1157.9424,-715.1863 1158.0652,-720.6245 1164.4429,-722.7645 1175.8317,-727.3832 1179.0018,-728.8832 1185.1152,-732.2003 1194.6096,-738.015 1192.9144,-656.3871 1192.9144,-656.3871 1194.6096,-738.015 1200.1261,-741.7686 1208.4258,-748.5978 1213.678,-748.749 1220.2751,-748.3644 1220.3505,-748.3663 1227.155,-748.2424 1230.4387,-748.3193 1240.7804,-748.993 1258.5789,-751.6412 1259.8239,-751.8777 1262.0911,-752.4026 1273.5427,-755.5363 1287.812,-760.6411 1292.2623,-762.4174 1300.7776,-766.1711 1312.9817,-772.5764 1314.6686,-773.5318 1327.2405,-781.1891 1335.731,-786.7112 1348.5917,-796.1456 1351.9974,-798.783 1361.9736,-807.3566 1362.1754,-807.5385 1374.575,-817.9975 1370.9871,-656.705 1364.9362,-656.705 1362.8983,-656.1885 1359.5179,-656.1885 1358.8497,-656.0203 1358.8497,-656.0203 1359.5179,-656.1885 1362.8983,-656.1885 1364.9362,-656.705 1370.9871,-656.705 1374.575,-817.9975 1375.4961,-818.8102 1386.1412,-822.161 1390.6666,-823.8032 1403.6545,-829.1541 1418.2263,-835.5126 1419.6987,-834.6428 1421.2111,-833.7896 1441.9684,-823.6718 1447.6609,-821.0461 1463.2003,-815.0731 1472.4388,-810.3142 1478.1884,-807.5209 1481.3671,-806.2481 1495.4547,-800.9972 1504.568,-797.8584 1513.4086,-795.0654 1516.5972,-794.1493 1519.728,-793.3386 1535.354,-789.7333 1538.7507,-789.0469 1549.0735,-787.5458 1596.2444,-782.0235 1656.2563,-749.7877 1659.5457,-745.9542 1673.0625,-702.0501 1680.2994,-681.2801 1677.0784,-644.3478 1675.884,-621.0854 1675.6078,-603.4456 1589.8297,-513.6627 1567.8778,-493.5569 1560.979,-497.0475 1536.2769,-508.852 1518.9911,-515.5946 1510.1255,-518.7903 1501.1415,-521.4994 1492.0876,-523.7018 1485.8734,-525.0326 1470.7985,-527.8218 1463.8528,-528.6992 1443.5697,-530.0787 1443.5508,-530.0789 1435.9397,-530.3747 1429.0845,-530.2395 1422.0453,-530.3079 1420.5598,-530.2352 1406.2231,-529.9557 1404.4634,-529.8182 1399.3896,-529.8698 1393.6125,-530.098 1390.1884,-530.0331 1383.2504,-530.1051 1380.1416,-530.2287 1377.0543,-530.1709 1370.0879,-530.2449 1367.0127,-530.0975 1352.7864,-530.2522 1351.9702,-530.3091 1349.9882,-530.3311 1335.7933,-530.0728 1331.605,-530.3662 1321.349,-530.1832 1318.8517,-530.0654 1304.9072,-530.2285 1304.6063,-530.2231 1300.2571,-530.2744 1297.8899,-530.2331 1296.5155,-530.1691 1291.0846,-530.2341 1288.4086,-530.1882 1282.4364,-530.4353 1282.2548,-530.4376 1277.6693,-530.2255 1272.9259,-530.1454 1263.6219,-530.2617 1260.9386,-530.2166 1256.4373,-530.2733 1251.7985,-530.0603 1250.925,-530.0459 1242.9675,-529.6813 1240.5292,-529.7128 1236.4762,-530.0042 1231.4912,-530.2161 1226.2638,-530.2851 1224.0074,-530.2488 1215.4979,-530.3621 1211.0087,-530.1589 1208.3618,-530.117 1201.6411,-530.2079 1200.6583,-530.25 1199.8209,-530.2125 1198.1252,-530.1862 1187.882,-540.3384 1173.434,-553.764 1156.8225,-566.078 1144.1654,-573.8731 1134.3436,-578.6951 1122.9825,-583.5628 1122.1346,-583.8715 1122.1346,-583.8715"/>
<polygon fill="#e1cddd" stroke="#e1cddd" points="827.266,-770.0938 839.3445,-769.0702 853.8992,-768.3287 859.2543,-763.4524 936.6629,-686.1188 953.4683,-670.8378 966.9587,-657.804 942.0872,-624.7582 908.0648,-575.1044 837.0305,-581.7195 825.2449,-582.1852 820.2252,-581.845 819.96,-581.8416 817.3322,-581.9518 810.4087,-581.871 807.5579,-581.6844 798.4631,-582.0908 790.8923,-581.6125 790.5989,-581.6101 785.509,-581.8501 779.7933,-582.4366 772.6879,-582.3979 768.4108,-582.1453 766.1214,-582.2609 763.5511,-582.2534 714.339,-579.4688 709.9104,-591.6445 697.9312,-632.6144 694.5951,-648.5173 690.1284,-664.0325 673.7445,-709.0778 756.4121,-763.1814 761.9304,-767.0809 776.9094,-778.4578 779.8655,-781.006 794.7706,-776.2145 805.384,-773.5266 806.1447,-773.3598 809.8281,-772.6758 825.0995,-770.3503 827.266,-770.0938 827.266,-770.0938"/>
<polyline fill="none" stroke="#000000" points="414.6324,-924.036 423.492,-918.7968 433.6994,-913.6644 434.2498,-913.4381 444.9408,-909.9667 455.0787,-907.5822 456.6071,-907.3607 463.3594,-906.9736 466.6501,-907.074 466.6513,-907.0742 477.1815,-907.4096 478.4307,-907.34 479.871,-907.3869 490.8079,-906.7889 494.1135,-906.3229 500.6643,-904.831 505.1293,-903.4266 514.053,-899.829 517.3908,-898.1929 529.2019,-891.3344 551.3622,-876.5765 571.5551,-887.0153 595.0527,-880.6215 609.2791,-877.6396 622.0607,-876.5832 624.6874,-876.5329 630.9543,-876.8104 634.031,-876.578 645.4166,-876.4426 647.7963,-876.717 648.8959,-876.7776 656.2167,-876.7447 658.2498,-876.4915 662.6982,-876.2215 670.9149,-876.2448 678.9063,-875.7897 691.3892,-873.5842 698.8386,-871.8253 755.8372,-855.0034 768.3942,-810.96 779.8655,-781.006 776.9094,-778.4578 761.9304,-767.0809 756.4121,-763.1814 673.7445,-709.0778 690.1284,-664.0325 694.5951,-648.5173 697.9312,-632.6144 709.9104,-591.6445 714.339,-579.4688 763.5511,-582.2534 766.1214,-582.2609 768.4108,-582.1453 772.6879,-582.3979 779.7933,-582.4366 785.509,-581.8501 790.5989,-581.6101 790.8923,-581.6125 798.4631,-582.0908 807.5579,-581.6844 810.4087,-581.871 817.3322,-581.9518 819.96,-581.8416 820.2252,-581.845 825.2449,-582.1852 837.0305,-581.7195 908.0648,-575.1044 942.0872,-624.7582 966.9587,-657.804 974.714,-658.9306 976.2559,-659.0691 985.7066,-659.6578 1001.625,-644.5441 1013.0629,-634.3339 1016.1324,-631.7756 1023.6853,-625.9139 1024.0132,-625.6785 1027.9943,-622.4999 1030.6427,-620.548 1045.2809,-610.6299 1061.7738,-601.5063 1072.2096,-597.0629 1072.3975,-596.9948 1082.0455,-594.0884 1112.0565,-586.916 1122.1346,-583.8715 1122.9825,-583.5628 1134.3436,-578.6951 1144.1654,-573.8731 1156.8225,-566.078 1173.434,-553.764 1187.882,-540.3384 1198.1252,-530.1862 1195.6693,-527.9781 1192.4152,-524.8115 1189.7626,-522.3849 1179.9965,-511.8299 1167.318,-499.9215 1161.9171,-495.2419 1149.4436,-486.1653 1146.6573,-484.3366 1131.8551,-475.6392 1131.2576,-475.3323 1121.5156,-471.0121 1117.9,-469.6675 1112.1613,-467.9352 1103.361,-465.8929 1098.8453,-465.1638 1090.9165,-464.4404 1081.4628,-464.2449 1079.1136,-464.5285 1078.6022,-464.5542 1069.1895,-464.3673 1067.4021,-464.2062 1060.35,-464.5679 1055.9575,-464.1745 1048.5824,-464.0375 1045.8676,-464.1788 1044.7153,-464.1581 1042.9474,-464.0026 1038.2585,-463.9202 1034.6401,-464.1109 1033.9989,-464.1 1027.0861,-464.4681 1025.0978,-464.4349 1024.2386,-464.3604 1015.0466,-464.2106 1011.0776,-463.869 1003.976,-462.7601 918.2035,-443.3475 901.6718,-404.16 896.3416,-394.5909 878.6761,-404.16 826.3851,-438.4318 815.9032,-444.447 806.644,-448.979 796.0745,-452.3921 788.9476,-454.0992 780.812,-455.3681 773.732,-455.8784 769.7238,-455.8315 764.6696,-456.1658 757.2066,-456.0332 756.2747,-456.0885 746.8734,-457.3728 731.545,-461.8625 719.1474,-467.4177 703.2415,-477.0356 693.6166,-483.5628 658.4348,-504.1855 639.7763,-497.7387 629.047,-493.5872 615.8418,-487.9351 595.7661,-477.701 589.388,-474.1983 609.2701,-443.8896 610.8578,-441.6408 611.4442,-440.869 620.9675,-429.2093 623.7949,-426.0178 625.8995,-423.3562 642.1482,-404.5388 658.1835,-389.7287 698.2033,-344.789 708.8507,-334.7885 714.1512,-329.2327 718.0032,-324.7661 717.1787,-322.5278 705.8272,-284.2233 701.3519,-271.9988 690.1638,-246.2625 652.7766,-243.3588 650.102,-243.2629 649.1149,-243.2687 643.1852,-243.0556 637.7181,-243.0876 632.0358,-243.3585 629.8771,-243.281 619.7498,-243.3402 619.5167,-243.3221 605.2802,-243.4054 573.3027,-240.9218 565.6068,-228 540.4417,-172.5973 533.1365,-158.9021 526.4076,-156.6422 513.264,-152.8736 498.0872,-150.7525 492.3167,-150.2287 481.1572,-150.3041 478.5049,-150.1805 476.2019,-149.9493 473.0016,-149.7856 460.5015,-150.3713 456.7873,-150.1478 453.5073,-150.2715 444.0978,-150.1232 443.495,-150.1432 439.5634,-150.4666 432.8498,-150.3006 422.218,-150.5577 409.3748,-152.1222 409.1173,-152.166 399.5489,-154.2642 390.458,-156.7008 374.0442,-162.7071 352.4038,-173.8177 350.067,-175.3595 334.4935,-171.2804 300.2911,-163.6748 282.3039,-158.9357 273.8803,-156.3807 273.092,-156.1104 270.0218,-154.9344 267.7433,-153.9684 259.2501,-150.0114 251.0073,-153.2745 240.0116,-157.1902 230.8474,-159.7249 182.7029,-171.138 174.2535,-173.4678 168.0287,-175.4237 160.5445,-178.0634 155.3521,-180.094 147.3482,-183.5329 145.2876,-184.4973 141.5962,-186.3697 123.8495,-196.0791 65.1578,-232.7109 56.7693,-231.2495 54.6174,-232.897 38.7742,-243.9987 -20.345,-283.4618 -55.3533,-324.1792 -91.5924,-406.36 -94.4335,-411.7803 -46.171,-537.4457 -29.1164,-552.5055 -40.3582,-660.0858 -44.1261,-686.3669 -45.26,-692.6159 -43.2137,-696.64 40.8556,-838.0447 76.4976,-834.3459 114.8348,-865.2499 117.125,-866.9858 128.6439,-875.1784 141.5243,-883.1275 147.4164,-886.4827 155.4562,-890.6799 195.855,-909.8469 234.6429,-906.6596 235.4206,-906.6384 238.3391,-906.7197 251.4222,-906.481 251.6313,-906.4888 257.2272,-906.438 260.2042,-906.5751 276.3451,-905.8323 280.175,-905.481 292.3741,-903.2415 302.0749,-900.5654 309.7784,-898.0835 311.2217,-897.5519 317.0488,-901.4875 324.9797,-906.3605 335.0155,-911.9084 336.3527,-912.5633 387.3233,-934.4473 395.9383,-938.6821 398.4033,-936.6537 402.2928,-932.9777 405.6617,-930.1126 414.6324,-924.036 "/>
<polyline fill="none" stroke="#000000" points="1071.8479,-709.2925 1010.4197,-682.059 1007.7238,-679.5535 1002.2906,-674.1615 990.7537,-664.4337 985.7066,-659.6578 976.2559,-659.0691 974.714,-658.9306 966.9587,-657.804 953.4683,-670.8378 936.6629,-686.1188 859.2543,-763.4524 853.8992,-768.3287 839.3445,-769.0702 827.266,-770.0938 825.0995,-770.3503 809.8281,-772.6758 806.1447,-773.3598 805.384,-773.5266 794.7706,-776.2145 779.8655,-781.006 768.3942,-810.96 755.8372,-855.0034 766.461,-881.4 779.3205,-926.8527 786.0292,-946.2712 782.4302,-957.5666 771.1696,-1001 770.2216,-1003.5407 831.9871,-1096 847.8406,-1115.2352 848.4554,-1187.0474 876.8908,-1202.131 952.8048,-1219.075 968.5808,-1223.1033 971.6563,-1224.084 991.1526,-1230.9341 1004.3995,-1241.7605 1065.754,-1239.9506 1071.9735,-1239.9711 1089.2029,-1240.5938 1095.9542,-1241.0588 1100.2743,-1241.6394 1117.3235,-1244.4935 1118.4696,-1244.7228 1157.8678,-1246.5676 1172.1434,-1241.1331 1220.8048,-1194.0983 1224.7378,-1192.8672 1232.4159,-1191.1318 1248.8958,-1187.8799 1270.2877,-1185.5115 1313.1376,-1183.2487 1373.3427,-1128.272 1390.126,-1100.5167 1389.0093,-1075.0995 1388.8629,-1046.7126 1389.6036,-1024.7045 1407.9989,-985.5582 1412.1632,-949.56 1421.8824,-898.5526 1418.2263,-835.5126 1403.6545,-829.1541 1390.6666,-823.8032 1386.1412,-822.161 1375.4961,-818.8102 1374.575,-817.9975 1362.1754,-807.5385 1361.9736,-807.3566 1351.9974,-798.783 1348.5917,-796.1456 1335.731,-786.7112 1327.2405,-781.1891 1314.6686,-773.5318 1312.9817,-772.5764 1300.7776,-766.1711 1292.2623,-762.4174 1287.812,-760.6411 1273.5427,-755.5363 1262.0911,-752.4026 1259.8239,-751.8777 1258.5789,-751.6412 1240.7804,-748.993 1230.4387,-748.3193 1227.155,-748.2424 1220.3505,-748.3663 1220.2751,-748.3644 1213.678,-748.749 1208.4258,-748.5978 1200.1261,-741.7686 1194.6096,-738.015 1185.1152,-732.2003 1179.0018,-728.8832 1175.8317,-727.3832 1164.4429,-722.7645 1158.0652,-720.6245 1147.9479,-718.6152 1140.8976,-717.7003 1133.9274,-717.2769 1127.7887,-717.3285 1123.0714,-717.0217 1119.2568,-717.3005 1113.1119,-717.2994 1112.9658,-717.3094 1110.6302,-717.2991 1100.1329,-716.483 1088.7979,-714.7698 1077.8456,-711.5126 1071.8479,-709.2925 "/>
<polyline fill="none" stroke="#000000" points="941.2209,-222.2596 945.6757,-220.4977 947.2628,-219.9765 956.1649,-217.6332 961.4644,-216.588 968.1332,-215.7112 975.4049,-215.2347 984.1921,-215.2397 985.3327,-215.1649 987.8643,-215.1658 989.6185,-215.0505 994.46,-215.0511 995.741,-215.1355 997.6881,-215.1353 1001.8583,-215.4109 1005.8146,-215.4095 1007.6911,-215.2836 1014.8925,-215.2793 1015.5453,-215.2353 1025.6981,-215.2269 1026.1107,-215.2814 1033.0262,-215.2725 1038.6771,-214.8878 1042.3463,-214.8822 1046.3844,-215.1432 1047.1357,-215.1419 1050.3373,-215.3471 1050.4696,-215.3469 1054.2772,-215.0867 1063.9368,-215.0652 1067.7465,-214.8047 1075.629,-213.743 1083.1403,-212.2353 1088.1989,-210.8879 1088.3075,-210.8518 1107.7881,-203.0291 1109.421,-202.1618 1121.3494,-194.9986 1129.6962,-189.432 1134.8197,-185.6806 1143.062,-179.1006 1153.6686,-169.2059 1160.7589,-162.1169 1166.5959,-157.1991 1199.1223,-128.042 1210.3124,-118.6205 1190.8604,-90.1412 1054.4235,-89.1312 1050.6361,-89.3519 1048.2942,-89.3341 1047.703,-89.2908 1045.0859,-89.2702 1044.1982,-89.3212 1036.2399,-89.256 1034.7003,-89.3444 1031.7876,-89.3197 1031.6613,-89.3103 1023.5742,-89.239 1016.4914,-88.7051 1010.6301,-89.0375 1009.8206,-89.1367 1004.8541,-89.0894 1004.5089,-89.0633 997.2887,-88.9921 995.7055,-88.8715 987.0323,-89.3588 980.5546,-89.2909 979.9937,-89.3221 979.5467,-89.2876 968.3649,-89.164 963.2844,-89.4445 962.2971,-89.4334 960.9567,-89.33 958.8716,-89.3061 957.1343,-89.1715 954.7746,-89.1437 952.083,-89.2898 941.4783,-89.161 939.4615,-89.0024 938.0906,-88.9856 936.7358,-88.879 931.554,-88.8136 924.1414,-89.2092 923.8239,-89.1842 921.4957,-89.1538 919.0069,-89.285 911.1605,-89.1793 909.6815,-89.0609 906.7964,-89.0212 900.5164,-89.3511 898.215,-89.3189 892.6504,-88.8706 891.6441,-88.9225 888.2092,-88.8726 880.1027,-89.2916 875.8884,-88.9483 867.0703,-88.815 866.87,-88.7987 853.1912,-86.7765 850.9758,-86.3042 847.3575,-85.2934 835.9205,-81.3253 830.8236,-79.2219 821.7111,-74.8569 816.4216,-71.9796 816.2025,-71.8461 757.0521,-102.7951 751.6919,-105.9972 736.5117,-116.2181 734.4493,-114.5992 734.4183,-114.5772 653.9539,-63.0724 641.921,-53.8292 641.0568,-54.8462 634.8066,-61.647 623.1526,-72.3591 614.8657,-79.2626 612.626,-81.4094 611.8942,-82.2181 557.7599,-135.6325 548.6347,-143.2322 539.6207,-151.6065 533.1365,-158.9021 540.4417,-172.5973 565.6068,-228 573.3027,-240.9218 605.2802,-243.4054 619.5167,-243.3221 619.7498,-243.3402 629.8771,-243.281 632.0358,-243.3585 637.7181,-243.0876 643.1852,-243.0556 649.1149,-243.2687 650.102,-243.2629 652.7766,-243.3588 690.1638,-246.2625 736.2983,-196.1539 776.5233,-210.3767 792.3071,-214.8956 806.3975,-216.9775 817.7791,-217.0869 818.9941,-217.1758 820.7792,-217.1834 833.3553,-218.0376 847.2715,-220.7594 850.4763,-221.5873 856.2986,-223.4613 866.7055,-227.4753 881.4138,-235.0224 882.267,-235.5124 894.1943,-243.126 899.1384,-246.9036 904.8228,-242.4115 908.3816,-239.8371 911.6699,-237.6722 924.6179,-229.9677 941.2209,-222.2596 "/>
<polyline fill="none" stroke="#000000" points="261.5658,-1167.5088 258.2558,-1171.9165 258.1304,-1171.8785 246.9064,-1168.7162 246.2447,-1168.5442 230.1114,-1164.6991 192.5949,-1140.4176 156.5527,-1129.9679 148.9227,-1127.9806 133.8808,-1124.507 113.4579,-1121.6042 19.1581,-1113.797 -11.2357,-1033.8915 -10.136,-1007.6884 -10.0131,-976.643 -11.5832,-930.5665 21.5701,-860.9191 40.8556,-838.0447 76.4976,-834.3459 114.8348,-865.2499 117.125,-866.9858 128.6439,-875.1784 141.5243,-883.1275 147.4164,-886.4827 155.4562,-890.6799 195.855,-909.8469 234.6429,-906.6596 235.4206,-906.6384 238.3391,-906.7197 251.4222,-906.481 251.6313,-906.4888 257.2272,-906.438 260.2042,-906.5751 276.3451,-905.8323 280.175,-905.481 292.3741,-903.2415 302.0749,-900.5654 309.7784,-898.0835 311.2217,-897.5519 317.0488,-901.4875 324.9797,-906.3605 335.0155,-911.9084 336.3527,-912.5633 387.3233,-934.4473 395.9383,-938.6821 402.4346,-970.2252 405.3011,-992.16 416.834,-1025.9712 337.5479,-1087.2708 326.1653,-1096.832 321.2883,-1101.2395 317.3274,-1105.3494 314.9078,-1108.033 303.7499,-1119.3678 302.6372,-1120.5663 291.5534,-1131.6042 277.5864,-1147.9036 261.5658,-1167.5088 "/>
<polyline fill="none" stroke="#000000" points="954.7746,-89.1437 952.083,-89.2898 941.4783,-89.161 939.4615,-89.0024 938.0906,-88.9856 936.7358,-88.879 931.554,-88.8136 924.1414,-89.2092 923.8239,-89.1842 921.4957,-89.1538 919.0069,-89.285 911.1605,-89.1793 909.6815,-89.0609 906.7964,-89.0212 900.5164,-89.3511 898.215,-89.3189 892.6504,-88.8706 891.6441,-88.9225 888.2092,-88.8726 880.1027,-89.2916 875.8884,-88.9483 867.0703,-88.815 866.87,-88.7987 853.1912,-86.7765 850.9758,-86.3042 847.3575,-85.2934 835.9205,-81.3253 830.8236,-79.2219 821.7111,-74.8569 816.4216,-71.9796 816.2025,-71.8461 757.0521,-102.7951 751.6919,-105.9972 736.5117,-116.2181 734.4493,-114.5992 734.4183,-114.5772 653.9539,-63.0724 641.921,-53.8292 639.2685,-37.5169 638.0002,-26.163 616.6815,74.0913 633.2787,88.7302 736.8594,107.5786 738.1148,107.8469 747.2578,110.0947 755.9378,112.5069 781.6762,120.4827 787.6902,118.1399 813.1828,104.7604 884.9229,102.2212 887.0501,102.2668 916.0271,104.5405 933.3066,107.8599 938.7922,106.6184 941.6458,106.135 947.3868,105.3239 967.7375,103.5918 972.0789,103.3455 985.862,103.3428 1004.39,104.3882 1013.1589,105.6265 1026.2301,107.8436 1036.3986,110.1437 1041.8953,109.031 1065.0051,106.2692 1119.4274,101.282 1165.4163,51.4518 1170.6754,10.1561 1179.9999,-45.4848 1190.8604,-90.1412 1054.4235,-89.1312 1050.6361,-89.3519 1048.2942,-89.3341 1047.703,-89.2908 1045.0859,-89.2702 1044.1982,-89.3212 1036.2399,-89.256 1034.7003,-89.3444 1031.7876,-89.3197 1031.6613,-89.3103 1023.5742,-89.239 1016.4914,-88.7051 1010.6301,-89.0375 1009.8206,-89.1367 1004.8541,-89.0894 1004.5089,-89.0633 997.2887,-88.9921 995.7055,-88.8715 987.0323,-89.3588 980.5546,-89.2909 979.9937,-89.3221 979.5467,-89.2876 968.3649,-89.164 963.2844,-89.4445 962.2971,-89.4334 960.9567,-89.33 958.8716,-89.3061 957.1343,-89.1715 954.7746,-89.1437 "/>
<polyline fill="none" stroke="#000000" points="575.5748,-1328.8121 572.8126,-1328.7072 565.6006,-1328.6368 550.0367,-1328.9259 542.1523,-1329.2949 487.2551,-1313.6278 442.8419,-1265.5126 434.0219,-1249.9993 431.1702,-1248.6714 422.6878,-1244.9904 270.9069,-1188.6913 258.2558,-1171.9165 261.5658,-1167.5088 277.5864,-1147.9036 291.5534,-1131.6042 302.6372,-1120.5663 303.7499,-1119.3678 314.9078,-1108.033 317.3274,-1105.3494 321.2883,-1101.2395 326.1653,-1096.832 337.5479,-1087.2708 416.834,-1025.9712 405.3011,-992.16 402.4346,-970.2252 395.9383,-938.6821 398.4033,-936.6537 402.2928,-932.9777 405.6617,-930.1126 414.6324,-924.036 423.492,-918.7968 433.6994,-913.6644 434.2498,-913.4381 444.9408,-909.9667 455.0787,-907.5822 456.6071,-907.3607 463.3594,-906.9736 466.6501,-907.074 466.6513,-907.0742 477.1815,-907.4096 478.4307,-907.34 479.871,-907.3869 490.8079,-906.7889 494.1135,-906.3229 500.6643,-904.831 505.1293,-903.4266 514.053,-899.829 517.3908,-898.1929 529.2019,-891.3344 551.3622,-876.5765 571.5551,-887.0153 595.0527,-880.6215 609.2791,-877.6396 622.0607,-876.5832 624.6874,-876.5329 630.9543,-876.8104 634.031,-876.578 645.4166,-876.4426 647.7963,-876.717 648.8959,-876.7776 656.2167,-876.7447 658.2498,-876.4915 662.6982,-876.2215 670.9149,-876.2448 678.9063,-875.7897 691.3892,-873.5842 698.8386,-871.8253 755.8372,-855.0034 766.461,-881.4 779.3205,-926.8527 786.0292,-946.2712 782.4302,-957.5666 771.1696,-1001 770.2216,-1003.5407 831.9871,-1096 847.8406,-1115.2352 848.4554,-1187.0474 762.5328,-1224.9088 753.461,-1239.8899 710.7932,-1317.2112 683.8382,-1325.8945 641.7334,-1324.9343 626.4472,-1325.0316 624.5395,-1325.0994 604.0862,-1327.0231 588.7984,-1329.8014 586.8273,-1329.5588 575.5748,-1328.8121 "/>
<polyline fill="none" stroke="#000000" points="422.218,-150.5577 409.3748,-152.1222 409.1173,-152.166 399.5489,-154.2642 390.458,-156.7008 374.0442,-162.7071 352.4038,-173.8177 350.067,-175.3595 334.4935,-171.2804 300.2911,-163.6748 282.3039,-158.9357 273.8803,-156.3807 273.092,-156.1104 270.0218,-154.9344 267.7433,-153.9684 259.2501,-150.0114 251.0073,-153.2745 240.0116,-157.1902 230.8474,-159.7249 182.7029,-171.138 174.2535,-173.4678 168.0287,-175.4237 160.5445,-178.0634 155.3521,-180.094 147.3482,-183.5329 145.2876,-184.4973 141.5962,-186.3697 123.8495,-196.0791 65.1578,-232.7109 56.7693,-231.2495 7.0516,-127.5346 4.1461,-68.163 1.9461,-51.029 19.1516,13.4724 44.3091,46.4461 112.661,68.8749 127.6832,64.6374 138.9084,62.4507 153.0566,60.105 164.2665,58.9006 170.7662,58.392 173.7855,58.2437 185.332,58.0128 252.1305,58.6228 258.0393,58.073 319.2463,90.19 337.7403,87.6306 350.6287,86.4623 357.2902,83.8041 372.7159,78.4996 376.1308,77.5143 387.7094,74.4894 393.9943,73.0206 404.1647,70.9236 404.2638,70.9059 427.4084,68.0364 437.8253,67.3193 444.6355,67.4116 452.69,66.8172 464.7975,66.2597 464.9593,66.2567 473.8228,66.3407 486.9972,66.8309 495.3112,67.6005 512.897,70.2049 520.5757,71.7664 523.3676,71.5138 529.2953,71.1355 543.7476,70.982 616.6815,74.0913 638.0002,-26.163 639.2685,-37.5169 641.921,-53.8292 641.0568,-54.8462 634.8066,-61.647 623.1526,-72.3591 614.8657,-79.2626 612.626,-81.4094 611.8942,-82.2181 557.7599,-135.6325 548.6347,-143.2322 539.6207,-151.6065 533.1365,-158.9021 526.4076,-156.6422 513.264,-152.8736 498.0872,-150.7525 492.3167,-150.2287 481.1572,-150.3041 478.5049,-150.1805 476.2019,-149.9493 473.0016,-149.7856 460.5015,-150.3713 456.7873,-150.1478 453.5073,-150.2715 444.0978,-150.1232 443.495,-150.1432 439.5634,-150.4666 432.8498,-150.3006 422.218,-150.5577 "/>
<polyline fill="none" stroke="#000000" points="1058.1827,-341.4841 1055.7971,-341.3872 1055.4756,-341.3954 1047.8535,-341.0832 1040.111,-341.2823 1040.0668,-341.2805 1038.376,-341.3236 1036.8724,-341.4619 1035.6681,-341.4926 1025.2703,-341.0646 1022.5922,-341.3119 1013.6152,-341.5404 1005.9849,-342.2409 990.4589,-345.7336 987.8744,-346.4823 985.5361,-347.3132 897.2018,-384.6773 896.2108,-386.5927 815.4179,-350.0026 801.2972,-345.4558 790.8939,-342.8015 788.495,-342.3511 782.3037,-341.5977 768.5575,-340.8322 759.4798,-339.769 742.1794,-335.6056 740.4876,-335.0974 738.4583,-334.3645 732.6689,-331.9111 718.0045,-324.7668 718.0032,-324.7661 717.1787,-322.5278 705.8272,-284.2233 701.3519,-271.9988 690.1638,-246.2625 736.2983,-196.1539 776.5233,-210.3767 792.3071,-214.8956 806.3975,-216.9775 817.7791,-217.0869 818.9941,-217.1758 820.7792,-217.1834 833.3553,-218.0376 847.2715,-220.7594 850.4763,-221.5873 856.2986,-223.4613 866.7055,-227.4753 881.4138,-235.0224 882.267,-235.5124 894.1943,-243.126 899.1384,-246.9036 904.8228,-242.4115 908.3816,-239.8371 911.6699,-237.6722 924.6179,-229.9677 941.2209,-222.2596 945.6757,-220.4977 947.2628,-219.9765 956.1649,-217.6332 961.4644,-216.588 968.1332,-215.7112 975.4049,-215.2347 984.1921,-215.2397 985.3327,-215.1649 987.8643,-215.1658 989.6185,-215.0505 994.46,-215.0511 995.741,-215.1355 997.6881,-215.1353 1001.8583,-215.4109 1005.8146,-215.4095 1007.6911,-215.2836 1014.8925,-215.2793 1015.5453,-215.2353 1025.6981,-215.2269 1026.1107,-215.2814 1033.0262,-215.2725 1038.6771,-214.8878 1042.3463,-214.8822 1046.3844,-215.1432 1047.1357,-215.1419 1050.3373,-215.3471 1050.4696,-215.3469 1054.2772,-215.0867 1063.9368,-215.0652 1067.7465,-214.8047 1075.629,-213.743 1083.1403,-212.2353 1088.1989,-210.8879 1088.3075,-210.8518 1107.7881,-203.0291 1109.421,-202.1618 1121.3494,-194.9986 1129.6962,-189.432 1134.8197,-185.6806 1143.062,-179.1006 1153.6686,-169.2059 1160.7589,-162.1169 1166.5959,-157.1991 1199.1223,-128.042 1210.3124,-118.6205 1238.0588,-130.5282 1298.4818,-126.4594 1326.2454,-123.8948 1332.8577,-122.792 1342.4264,-120.7156 1357.8008,-123.3253 1364.3011,-124.1058 1365.1366,-124.1854 1383.9728,-125.5173 1399.9048,-126.2489 1427.3427,-138.9033 1505.6218,-251.0448 1508.2556,-278.16 1509.4376,-285.132 1439.6239,-323.0927 1428.4857,-328.4622 1416.2208,-333.5899 1406.4301,-336.4154 1402.3071,-337.3404 1400.3743,-337.6514 1387.3763,-338.9246 1381.3909,-339.128 1378.1022,-339.4658 1369.8379,-339.2561 1368.4104,-339.3175 1362.6908,-339.1985 1361.9252,-339.1337 1359.7723,-339.0987 1356.859,-339.2504 1351.0308,-339.1815 1350.166,-339.1158 1342.3486,-339.0587 1340.0149,-339.2018 1334.3494,-339.1861 1333.4867,-339.2426 1328.8086,-338.9516 1321.3737,-338.9982 1319.8857,-338.9125 1313.8401,-338.9775 1312.853,-338.8619 1310.5492,-338.7502 1298.397,-338.9915 1295.2257,-338.8521 1289.1664,-338.2003 1287.8748,-337.9793 1276.0255,-335.1801 1266.1443,-332.2136 1256.0222,-327.8798 1246.6151,-323.2512 1236.5123,-316.9844 1234.8458,-315.844 1225.8676,-322.0681 1218.1486,-326.385 1205.4395,-332.657 1198.5835,-335.5682 1198.4133,-335.6289 1190.9574,-337.798 1186.4371,-338.8154 1174.0206,-340.7958 1160.1539,-341.1658 1158.1312,-340.9508 1156.0123,-340.8666 1147.6484,-341.0884 1147.3148,-341.0529 1144.7599,-340.9508 1132.4465,-341.2779 1129.4293,-340.9561 1124.8707,-341.0757 1121.9243,-340.9576 1119.5817,-341.0191 1116.8304,-340.9082 1109.2625,-341.1076 1107.8214,-341.242 1104.0912,-341.3398 1095.6301,-340.9975 1095.4059,-340.9735 1090.427,-341.1024 1089.7726,-341.1627 1083.9001,-340.9241 1073.8832,-341.1854 1069.7877,-340.7445 1064.7627,-340.8743 1058.1827,-341.4841 "/>
<polyline fill="none" stroke="#000000" points="1211.0087,-530.1589 1215.4979,-530.3621 1224.0074,-530.2488 1226.2638,-530.2851 1231.4912,-530.2161 1236.4762,-530.0042 1240.5292,-529.7128 1242.9675,-529.6813 1250.925,-530.0459 1251.7985,-530.0603 1256.4373,-530.2733 1260.9386,-530.2166 1263.6219,-530.2617 1272.9259,-530.1454 1277.6693,-530.2255 1282.2548,-530.4376 1282.4364,-530.4353 1288.4086,-530.1882 1291.0846,-530.2341 1296.5155,-530.1691 1297.8899,-530.2331 1300.2571,-530.2744 1304.6063,-530.2231 1304.9072,-530.2285 1318.8517,-530.0654 1321.349,-530.1832 1331.605,-530.3662 1335.7933,-530.0728 1349.9882,-530.3311 1351.9702,-530.3091 1352.7864,-530.2522 1367.0127,-530.0975 1370.0879,-530.2449 1377.0543,-530.1709 1380.1416,-530.2287 1383.2504,-530.1051 1390.1884,-530.0331 1393.6125,-530.098 1399.3896,-529.8698 1404.4634,-529.8182 1406.2231,-529.9557 1420.5598,-530.2352 1422.0453,-530.3079 1429.0845,-530.2395 1435.9397,-530.3747 1443.5508,-530.0789 1443.5697,-530.0787 1463.8528,-528.6992 1470.7985,-527.8218 1485.8734,-525.0326 1492.0876,-523.7018 1501.1415,-521.4994 1510.1255,-518.7903 1518.9911,-515.5946 1536.2769,-508.852 1560.979,-497.0475 1567.8778,-493.5569 1574.8867,-453.1486 1574.9672,-446.1008 1561.3568,-404.16 1546.5536,-333.9493 1509.4376,-285.132 1439.6239,-323.0927 1428.4857,-328.4622 1416.2208,-333.5899 1406.4301,-336.4154 1402.3071,-337.3404 1400.3743,-337.6514 1387.3763,-338.9246 1381.3909,-339.128 1378.1022,-339.4658 1369.8379,-339.2561 1368.4104,-339.3175 1362.6908,-339.1985 1361.9252,-339.1337 1359.7723,-339.0987 1356.859,-339.2504 1351.0308,-339.1815 1350.166,-339.1158 1342.3486,-339.0587 1340.0149,-339.2018 1334.3494,-339.1861 1333.4867,-339.2426 1328.8086,-338.9516 1321.3737,-338.9982 1319.8857,-338.9125 1313.8401,-338.9775 1312.853,-338.8619 1310.5492,-338.7502 1298.397,-338.9915 1295.2257,-338.8521 1289.1664,-338.2003 1287.8748,-337.9793 1276.0255,-335.1801 1266.1443,-332.2136 1256.0222,-327.8798 1246.6151,-323.2512 1236.5123,-316.9844 1234.8458,-315.844 1225.8676,-322.0681 1218.1486,-326.385 1205.4395,-332.657 1198.5835,-335.5682 1198.4133,-335.6289 1190.9574,-337.798 1186.4371,-338.8154 1174.0206,-340.7958 1160.1539,-341.1658 1158.1312,-340.9508 1156.0123,-340.8666 1147.6484,-341.0884 1147.3148,-341.0529 1144.7599,-340.9508 1132.4465,-341.2779 1129.4293,-340.9561 1124.8707,-341.0757 1121.9243,-340.9576 1119.5817,-341.0191 1116.8304,-340.9082 1109.2625,-341.1076 1107.8214,-341.242 1104.0912,-341.3398 1095.6301,-340.9975 1095.4059,-340.9735 1090.427,-341.1024 1089.7726,-341.1627 1083.9001,-340.9241 1073.8832,-341.1854 1069.7877,-340.7445 1064.7627,-340.8743 1058.1827,-341.4841 1055.7971,-341.3872 1055.4756,-341.3954 1047.8535,-341.0832 1040.111,-341.2823 1040.0668,-341.2805 1038.376,-341.3236 1036.8724,-341.4619 1035.6681,-341.4926 1025.2703,-341.0646 1022.5922,-341.3119 1013.6152,-341.5404 1005.9849,-342.2409 990.4589,-345.7336 987.8744,-346.4823 985.5361,-347.3132 897.2018,-384.6773 896.2108,-386.5927 815.4179,-350.0026 801.2972,-345.4558 790.8939,-342.8015 788.495,-342.3511 782.3037,-341.5977 768.5575,-340.8322 759.4798,-339.769 742.1794,-335.6056 740.4876,-335.0974 738.4583,-334.3645 732.6689,-331.9111 718.0045,-324.7668 718.0032,-324.7661 714.1512,-329.2327 708.8507,-334.7885 698.2033,-344.789 658.1835,-389.7287 642.1482,-404.5388 625.8995,-423.3562 623.7949,-426.0178 620.9675,-429.2093 611.4442,-440.869 610.8578,-441.6408 609.2701,-443.8896 589.388,-474.1983 595.7661,-477.701 615.8418,-487.9351 629.047,-493.5872 639.7763,-497.7387 658.4348,-504.1855 693.6166,-483.5628 703.2415,-477.0356 719.1474,-467.4177 731.545,-461.8625 746.8734,-457.3728 756.2747,-456.0885 757.2066,-456.0332 764.6696,-456.1658 769.7238,-455.8315 773.732,-455.8784 780.812,-455.3681 788.9476,-454.0992 796.0745,-452.3921 806.644,-448.979 815.9032,-444.447 826.3851,-438.4318 878.6761,-404.16 896.3416,-394.5909 901.6718,-404.16 918.2035,-443.3475 1003.976,-462.7601 1011.0776,-463.869 1015.0466,-464.2106 1024.2386,-464.3604 1025.0978,-464.4349 1027.0861,-464.4681 1033.9989,-464.1 1034.6401,-464.1109 1038.2585,-463.9202 1042.9474,-464.0026 1044.7153,-464.1581 1045.8676,-464.1788 1048.5824,-464.0375 1055.9575,-464.1745 1060.35,-464.5679 1067.4021,-464.2062 1069.1895,-464.3673 1078.6022,-464.5542 1079.1136,-464.5285 1081.4628,-464.2449 1090.9165,-464.4404 1098.8453,-465.1638 1103.361,-465.8929 1112.1613,-467.9352 1117.9,-469.6675 1121.5156,-471.0121 1131.2576,-475.3323 1131.8551,-475.6392 1146.6573,-484.3366 1149.4436,-486.1653 1161.9171,-495.2419 1167.318,-499.9215 1179.9965,-511.8299 1189.7626,-522.3849 1192.4152,-524.8115 1195.6693,-527.9781 1198.1252,-530.1862 1199.8209,-530.2125 1200.6583,-530.25 1201.6411,-530.2079 1208.3618,-530.117 1211.0087,-530.1589 "/>
<polyline fill="none" stroke="#000000" points="1312.9817,-772.5764 1300.7776,-766.1711 1292.2623,-762.4174 1287.812,-760.6411 1273.5427,-755.5363 1262.0911,-752.4026 1259.8239,-751.8777 1258.5789,-751.6412 1240.7804,-748.993 1230.4387,-748.3193 1227.155,-748.2424 1220.3505,-748.3663 1220.2751,-748.3644 1213.678,-748.749 1208.4258,-748.5978 1200.1261,-741.7686 1194.6096,-738.015 1185.1152,-732.2003 1179.0018,-728.8832 1175.8317,-727.3832 1164.4429,-722.7645 1158.0652,-720.6245 1147.9479,-718.6152 1140.8976,-717.7003 1133.9274,-717.2769 1127.7887,-717.3285 1123.0714,-717.0217 1119.2568,-717.3005 1113.1119,-717.2994 1112.9658,-717.3094 1110.6302,-717.2991 1100.1329,-716.483 1088.7979,-714.7698 1077.8456,-711.5126 1071.8479,-709.2925 1010.4197,-682.059 1007.7238,-679.5535 1002.2906,-674.1615 990.7537,-664.4337 985.7066,-659.6578 1001.625,-644.5441 1013.0629,-634.3339 1016.1324,-631.7756 1023.6853,-625.9139 1024.0132,-625.6785 1027.9943,-622.4999 1030.6427,-620.548 1045.2809,-610.6299 1061.7738,-601.5063 1072.2096,-597.0629 1072.3975,-596.9948 1082.0455,-594.0884 1112.0565,-586.916 1122.1346,-583.8715 1122.9825,-583.5628 1134.3436,-578.6951 1144.1654,-573.8731 1156.8225,-566.078 1173.434,-553.764 1187.882,-540.3384 1198.1252,-530.1862 1199.8209,-530.2125 1200.6583,-530.25 1201.6411,-530.2079 1208.3618,-530.117 1211.0087,-530.1589 1215.4979,-530.3621 1224.0074,-530.2488 1226.2638,-530.2851 1231.4912,-530.2161 1236.4762,-530.0042 1240.5292,-529.7128 1242.9675,-529.6813 1250.925,-530.0459 1251.7985,-530.0603 1256.4373,-530.2733 1260.9386,-530.2166 1263.6219,-530.2617 1272.9259,-530.1454 1277.6693,-530.2255 1282.2548,-530.4376 1282.4364,-530.4353 1288.4086,-530.1882 1291.0846,-530.2341 1296.5155,-530.1691 1297.8899,-530.2331 1300.2571,-530.2744 1304.6063,-530.2231 1304.9072,-530.2285 1318.8517,-530.0654 1321.349,-530.1832 1331.605,-530.3662 1335.7933,-530.0728 1349.9882,-530.3311 1351.9702,-530.3091 1352.7864,-530.2522 1367.0127,-530.0975 1370.0879,-530.2449 1377.0543,-530.1709 1380.1416,-530.2287 1383.2504,-530.1051 1390.1884,-530.0331 1393.6125,-530.098 1399.3896,-529.8698 1404.4634,-529.8182 1406.2231,-529.9557 1420.5598,-530.2352 1422.0453,-530.3079 1429.0845,-530.2395 1435.9397,-530.3747 1443.5508,-530.0789 1443.5697,-530.0787 1463.8528,-528.6992 1470.7985,-527.8218 1485.8734,-525.0326 1492.0876,-523.7018 1501.1415,-521.4994 1510.1255,-518.7903 1518.9911,-515.5946 1536.2769,-508.852 1560.979,-497.0475 1567.8778,-493.5569 1589.8297,-513.6627 1675.6078,-603.4456 1675.884,-621.0854 1677.0784,-644.3478 1680.2994,-681.2801 1673.0625,-702.0501 1659.5457,-745.9542 1656.2563,-749.7877 1596.2444,-782.0235 1549.0735,-787.5458 1538.7507,-789.0469 1535.354,-789.7333 1519.728,-793.3386 1516.5972,-794.1493 1513.4086,-795.0654 1504.568,-797.8584 1495.4547,-800.9972 1481.3671,-806.2481 1478.1884,-807.5209 1472.4388,-810.3142 1463.2003,-815.0731 1447.6609,-821.0461 1441.9684,-823.6718 1421.2111,-833.7896 1419.6987,-834.6428 1418.2263,-835.5126 1403.6545,-829.1541 1390.6666,-823.8032 1386.1412,-822.161 1375.4961,-818.8102 1374.575,-817.9975 1362.1754,-807.5385 1361.9736,-807.3566 1351.9974,-798.783 1348.5917,-796.1456 1335.731,-786.7112 1327.2405,-781.1891 1314.6686,-773.5318 1312.9817,-772.5764 "/>
<polyline fill="none" stroke="#000000" points="794.7706,-776.2145 779.8655,-781.006 776.9094,-778.4578 761.9304,-767.0809 756.4121,-763.1814 673.7445,-709.0778 690.1284,-664.0325 694.5951,-648.5173 697.9312,-632.6144 709.9104,-591.6445 714.339,-579.4688 763.5511,-582.2534 766.1214,-582.2609 768.4108,-582.1453 772.6879,-582.3979 779.7933,-582.4366 785.509,-581.8501 790.5989,-581.6101 790.8923,-581.6125 798.4631,-582.0908 807.5579,-581.6844 810.4087,-581.871 817.3322,-581.9518 819.96,-581.8416 820.2252,-581.845 825.2449,-582.1852 837.0305,-581.7195 908.0648,-575.1044 942.0872,-624.7582 966.9587,-657.804 953.4683,-670.8378 936.6629,-686.1188 859.2543,-763.4524 853.8992,-768.3287 839.3445,-769.0702 827.266,-770.0938 825.0995,-770.3503 809.8281,-772.6758 806.1447,-773.3598 805.384,-773.5266 794.7706,-776.2145 "/>
<!-- &#45;&gt; -->
<g id="edge1" class="edge">
<title>&#45;&gt;</title>
<path fill="none" stroke="#555555" stroke-opacity="0.133333" d="M436.16,-573.24C477.1,-623.28 568.23,-734.67 609.55,-785.17"/>
<polygon fill="#555555" fill-opacity="0.133333" stroke="#555555" stroke-opacity="0.133333" points="606.9299,-787.4949 615.97,-793.02 612.3485,-783.0633 606.9299,-787.4949"/>
</g>
<!-- &#45;&gt; -->
<g id="edge2" class="edge">
<title>&#45;&gt;</title>
<path fill="none" stroke="#555555" stroke-opacity="0.133333" d="M468.33,-565.01C502.3,-575.93 545.85,-589.94 577.48,-600.12"/>
<polygon fill="#555555" fill-opacity="0.133333" stroke="#555555" stroke-opacity="0.133333" points="576.7088,-603.5482 587.3,-603.27 578.847,-596.8828 576.7088,-603.5482"/>
</g>
<!-- &#45;&gt;   -->
<g id="edge3" class="edge">
<title>&#45;&gt;  </title>
<path fill="none" stroke="#555555" stroke-opacity="0.133333" d="M417.08,-574.41C420.49,-632.76 428.64,-772.3 432.15,-832.37"/>
<polygon fill="#555555" fill-opacity="0.133333" stroke="#555555" stroke-opacity="0.133333" points="428.6715,-832.8416 432.75,-842.62 435.6596,-832.4325 428.6715,-832.8416"/>
</g>
<!-- &#45;&gt; -->
<g id="edge4" class="edge">
<title>&#45;&gt;</title>
<path fill="none" stroke="#555555" stroke-opacity="0.133333" d="M399.77,-573.61C367.27,-626.33 293.16,-746.58 260.56,-799.46"/>
<polygon fill="#555555" fill-opacity="0.133333" stroke="#555555" stroke-opacity="0.133333" points="257.4228,-797.8796 255.16,-808.23 263.3835,-801.5499 257.4228,-797.8796"/>
</g>
<!-- &#45;&gt;  -->
<g id="edge5" class="edge">
<title>&#45;&gt; </title>
<path fill="none" stroke="#555555" stroke-opacity="0.133333" d="M368.78,-567.43C312.36,-590.84 218.05,-629.98 161.42,-653.49"/>
<polygon fill="#555555" fill-opacity="0.133333" stroke="#555555" stroke-opacity="0.133333" points="159.8795,-650.3397 151.98,-657.4 162.5582,-656.8069 159.8795,-650.3397"/>
</g>
<!-- &#45;&gt;    -->
<g id="edge6" class="edge">
<title>&#45;&gt;   </title>
<path fill="none" stroke="#555555" stroke-opacity="0.133333" d="M353.87,-535.95C341,-533.43 327.27,-530.74 313.87,-528.12"/>
<polygon fill="#555555" fill-opacity="0.133333" stroke="#555555" stroke-opacity="0.133333" points="314.1963,-524.6175 303.71,-526.13 312.8508,-531.487 314.1963,-524.6175"/>
</g>
<!-- &#45;&gt;  -->
<g id="edge7" class="edge">
<title>&#45;&gt; </title>
<path fill="none" stroke="#555555" stroke-opacity="0.133333" d="M369.33,-528.33C306.39,-501.5 194.28,-453.71 130.68,-426.6"/>
<polygon fill="#555555" fill-opacity="0.133333" stroke="#555555" stroke-opacity="0.133333" points="131.8618,-423.2991 121.29,-422.6 129.1184,-429.7392 131.8618,-423.2991"/>
</g>
<!-- &#45;&gt; -->
<g id="edge8" class="edge">
<title>&#45;&gt;</title>
<path fill="none" stroke="#555555" stroke-opacity="0.133333" d="M401.73,-522.18C372.93,-468.3 306.74,-344.44 277.39,-289.53"/>
<polygon fill="#555555" fill-opacity="0.133333" stroke="#555555" stroke-opacity="0.133333" points="280.3178,-287.5825 272.52,-280.41 274.1431,-290.8798 280.3178,-287.5825"/>
</g>
<!-- &#45;&gt;  -->
<g id="edge9" class="edge">
<title>&#45;&gt; </title>
<path fill="none" stroke="#555555" stroke-opacity="0.133333" d="M482.59,-540.94C550.71,-533.75 655.78,-522.65 725.08,-515.34"/>
<polygon fill="#555555" fill-opacity="0.133333" stroke="#555555" stroke-opacity="0.133333" points="725.4571,-518.8197 735.03,-514.28 724.7155,-511.8591 725.4571,-518.8197"/>
</g>
<!-- &#45;&gt; -->
<g id="edge10" class="edge">
<title>&#45;&gt;</title>
<path fill="none" stroke="#555555" stroke-opacity="0.133333" d="M439.78,-523.14C479.91,-481.94 559.66,-400.07 599.5,-359.17"/>
<polygon fill="#555555" fill-opacity="0.133333" stroke="#555555" stroke-opacity="0.133333" points="602.2187,-361.3951 606.69,-351.79 597.2048,-356.5103 602.2187,-361.3951"/>
</g>
<!-- &#45;&gt;12  -->
<g id="edge11" class="edge">
<title>&#45;&gt;12 </title>
<path fill="none" stroke="#555555" stroke-opacity="0.133333" d="M419.1,-521.84C427.18,-462.41 446.84,-317.75 455.19,-256.33"/>
<polygon fill="#555555" fill-opacity="0.133333" stroke="#555555" stroke-opacity="0.133333" points="458.6867,-256.5912 456.57,-246.21 451.7509,-255.6454 458.6867,-256.5912"/>
</g>
<!-- &#45;&gt; -->
<g id="edge12" class="edge">
<title>&#45;&gt;</title>
<path fill="none" stroke="#555555" stroke-opacity="0.133333" d="M1092.8,-923.23C1116.2,-904.58 1149.7,-877.93 1173.3,-859.1"/>
<polygon fill="#555555" fill-opacity="0.133333" stroke="#555555" stroke-opacity="0.133333" points="1175.5708,-861.7657 1181.2,-852.79 1171.2021,-856.2962 1175.5708,-861.7657"/>
</g>
<!-- &#45;&gt;    -->
<g id="edge13" class="edge">
<title>&#45;&gt;   </title>
<path fill="none" stroke="#555555" stroke-opacity="0.133333" d="M1114.8,-946.47C1120.2,-946.6 1125.8,-946.74 1131.5,-946.88"/>
<polygon fill="#555555" fill-opacity="0.133333" stroke="#555555" stroke-opacity="0.133333" points="1131.8156,-950.3889 1141.9,-947.14 1131.9906,-943.3911 1131.8156,-950.3889"/>
</g>
<!-- &#45;&gt;  -->
<g id="edge14" class="edge">
<title>&#45;&gt; </title>
<path fill="none" stroke="#555555" stroke-opacity="0.133333" d="M1051.4,-919.94C1036,-892 1011.5,-847.19 995.87,-818.7"/>
<polygon fill="#555555" fill-opacity="0.133333" stroke="#555555" stroke-opacity="0.133333" points="998.8245,-816.8082 990.95,-809.72 992.6855,-820.1717 998.8245,-816.8082"/>
</g>
<!-- &#45;&gt;   -->
<g id="edge15" class="edge">
<title>&#45;&gt;  </title>
<path fill="none" stroke="#555555" stroke-opacity="0.133333" d="M1070.6,-918.86C1076.9,-887.34 1087.5,-834.8 1094,-802.4"/>
<polygon fill="#555555" fill-opacity="0.133333" stroke="#555555" stroke-opacity="0.133333" points="1097.5013,-802.7518 1096.1,-792.25 1090.6465,-801.3335 1097.5013,-802.7518"/>
</g>
<!-- &#45;&gt;   -->
<g id="edge16" class="edge">
<title>&#45;&gt;  </title>
<path fill="none" stroke="#555555" stroke-opacity="0.133333" d="M1023.5,-959.3C1002.6,-966.32 977.16,-974.91 954.75,-982.46"/>
<polygon fill="#555555" fill-opacity="0.133333" stroke="#555555" stroke-opacity="0.133333" points="953.384,-979.2266 945.02,-985.73 955.614,-985.8619 953.384,-979.2266"/>
</g>
<!-- &#45;&gt;  -->
<g id="edge17" class="edge">
<title>&#45;&gt; </title>
<path fill="none" stroke="#555555" stroke-opacity="0.133333" d="M1069.1,-971.41C1073.8,-1003 1081.7,-1056.1 1086.6,-1088.8"/>
<polygon fill="#555555" fill-opacity="0.133333" stroke="#555555" stroke-opacity="0.133333" points="1083.1953,-1089.7088 1088.1,-1099.1 1090.1223,-1088.7 1083.1953,-1089.7088"/>
</g>
<!-- &#45;&gt;      -->
<g id="edge18" class="edge">
<title>&#45;&gt;     </title>
<path fill="none" stroke="#555555" stroke-opacity="0.133333" d="M1090.8,-967.82C1113,-987.46 1145.2,-1015.9 1168.2,-1036.1"/>
<polygon fill="#555555" fill-opacity="0.133333" stroke="#555555" stroke-opacity="0.133333" points="1166.0876,-1038.904 1175.9,-1042.9 1170.7213,-1033.6571 1166.0876,-1038.904"/>
</g>
<!-- &#45;&gt; -->
<g id="edge19" class="edge">
<title>&#45;&gt;</title>
<path fill="none" stroke="#555555" stroke-opacity="0.133333" d="M1050,-970.18C1033.4,-997.27 1007,-1040.4 990.07,-1068"/>
<polygon fill="#555555" fill-opacity="0.133333" stroke="#555555" stroke-opacity="0.133333" points="986.9783,-1066.3464 984.73,-1076.7 992.9441,-1070.0083 986.9783,-1066.3464"/>
</g>
<!-- &#45;&gt;   -->
<g id="edge20" class="edge">
<title>&#45;&gt;  </title>
<path fill="none" stroke="#555555" stroke-opacity="0.133333" d="M1025.5,-929.63C1004.1,-921.23 977.44,-910.77 954.45,-901.75"/>
<polygon fill="#555555" fill-opacity="0.133333" stroke="#555555" stroke-opacity="0.133333" points="955.437,-898.3771 944.85,-897.97 952.8724,-904.8904 955.437,-898.3771"/>
</g>
<!--    &#45;&gt; -->
<g id="edge21" class="edge">
<title>   &#45;&gt;</title>
<path fill="none" stroke="#555555" stroke-opacity="0.133333" d="M692.19,-152.16C692.1,-152.16 692.02,-152.16 691.93,-152.16"/>
<polygon fill="#555555" fill-opacity="0.133333" stroke="#555555" stroke-opacity="0.133333" points="694.24,-148.6601 684.24,-152.16 694.24,-155.6601 694.24,-148.6601"/>
</g>
<!-- &#45;&gt;  -->
<g id="edge22" class="edge">
<title>&#45;&gt; </title>
<path fill="none" stroke="#555555" stroke-opacity="0.133333" d="M959,-518.77C929.68,-516.82 897,-514.65 868.61,-512.76"/>
<polygon fill="#555555" fill-opacity="0.133333" stroke="#555555" stroke-opacity="0.133333" points="868.5698,-509.2497 858.36,-512.08 868.1063,-516.2344 868.5698,-509.2497"/>
</g>
<!-- Teatr Slaski&#45;&gt; -->
<g id="edge23" class="edge">
<title>Teatr Slaski&#45;&gt;</title>
<path fill="none" stroke="#555555" stroke-opacity="0.133333" d="M190.56,-992.16C190.4,-992.16 190.24,-992.16 190.09,-992.16"/>
<polygon fill="#555555" fill-opacity="0.133333" stroke="#555555" stroke-opacity="0.133333" points="193.04,-988.6601 183.04,-992.16 193.04,-995.6601 193.04,-988.6601"/>
</g>
<!--  ()&#45;&gt; -->
<g id="edge24" class="edge">
<title> ()&#45;&gt;</title>
<path fill="none" stroke="#555555" stroke-opacity="0.133333" d="M783.04,-26.163C782.87,-26.163 782.7,-26.163 782.53,-26.163"/>
<polygon fill="#555555" fill-opacity="0.133333" stroke="#555555" stroke-opacity="0.133333" points="785.3,-22.6631 775.3,-26.163 785.3,-29.6631 785.3,-22.6631"/>
</g>
<!-- &#45;&gt;   -->
<g id="edge25" class="edge">
<title>&#45;&gt;  </title>
<path fill="none" stroke="#555555" stroke-opacity="0.133333" d="M589.92,-1087.9C591.54,-1112.5 593.95,-1149 595.62,-1174.2"/>
<polygon fill="#555555" fill-opacity="0.133333" stroke="#555555" stroke-opacity="0.133333" points="592.1357,-1174.5536 596.29,-1184.3 599.1203,-1174.0902 592.1357,-1174.5536"/>
</g>
<!-- &#45;&gt;  -->
<g id="edge26" class="edge">
<title>&#45;&gt; </title>
<path fill="none" stroke="#555555" stroke-opacity="0.133333" d="M534.19,-1083.4C524.79,-1087.2 515.05,-1091.1 505.8,-1094.8"/>
<polygon fill="#555555" fill-opacity="0.133333" stroke="#555555" stroke-opacity="0.133333" points="504.3371,-1091.616 496.37,-1098.6 506.9534,-1098.1086 504.3371,-1091.616"/>
</g>
<!-- &#45;&gt;  -->
<g id="edge27" class="edge">
<title>&#45;&gt; </title>
<path fill="none" stroke="#555555" stroke-opacity="0.133333" d="M566.7,-1036.2C552.3,-1019 533.41,-996.55 519.01,-979.41"/>
<polygon fill="#555555" fill-opacity="0.133333" stroke="#555555" stroke-opacity="0.133333" points="521.4521,-976.8756 512.34,-971.47 516.0923,-981.3781 521.4521,-976.8756"/>
</g>
<!-- &#45;&gt; -->
<g id="edge28" class="edge">
<title>&#45;&gt;</title>
<path fill="none" stroke="#555555" stroke-opacity="0.133333" d="M658.81,-1079.4C667.49,-1081.5 676.12,-1083.7 684.16,-1085.7"/>
<polygon fill="#555555" fill-opacity="0.133333" stroke="#555555" stroke-opacity="0.133333" points="683.4349,-1089.1257 693.98,-1088.1 685.0969,-1082.3259 683.4349,-1089.1257"/>
</g>
<!-- &#45;&gt;  -->
<g id="edge29" class="edge">
<title>&#45;&gt; </title>
<path fill="none" stroke="#555555" stroke-opacity="0.133333" d="M604.36,-1035.8C616.68,-1016 633.59,-988.79 646.04,-968.78"/>
<polygon fill="#555555" fill-opacity="0.133333" stroke="#555555" stroke-opacity="0.133333" points="649.0984,-970.4896 651.41,-960.15 643.1551,-966.7914 649.0984,-970.4896"/>
</g>
<!--   ()&#45;&gt; -->
<g id="edge30" class="edge">
<title>  ()&#45;&gt;</title>
<path fill="none" stroke="#555555" stroke-opacity="0.133333" d="M228.38,-68.163C228.22,-68.163 228.06,-68.163 227.9,-68.163"/>
<polygon fill="#555555" fill-opacity="0.133333" stroke="#555555" stroke-opacity="0.133333" points="230.86,-64.6631 220.86,-68.163 230.86,-71.6631 230.86,-64.6631"/>
</g>
<!-- Les Partisans ()&#45;&gt; &#45;   -->
<g id="edge31" class="edge">
<title>Les Partisans ()&#45;&gt; &#45;  </title>
<path fill="none" stroke="#555555" stroke-opacity="0.133333" d="M1257.1,-278.16C1257.2,-278.16 1257.4,-278.16 1257.6,-278.16"/>
<polygon fill="#555555" fill-opacity="0.133333" stroke="#555555" stroke-opacity="0.133333" points="1254.8,-281.6601 1264.8,-278.16 1254.8,-274.6601 1254.8,-281.6601"/>
</g>
<!-- Les Partisans ()&#45;&gt; -->
<g id="edge32" class="edge">
<title>Les Partisans ()&#45;&gt;</title>
<path fill="none" stroke="#555555" stroke-opacity="0.133333" d="M886.31,-278.16C874.1,-278.16 862.49,-278.16 851.96,-278.16"/>
<polygon fill="#555555" fill-opacity="0.133333" stroke="#555555" stroke-opacity="0.133333" points="851.81,-274.6601 841.81,-278.16 851.81,-281.6601 851.81,-274.6601"/>
</g>
<!--    &#45;&gt;  -->
<g id="edge33" class="edge">
<title>   &#45;&gt; </title>
<path fill="none" stroke="#555555" stroke-opacity="0.133333" d="M812.41,-404.16C812.25,-404.16 812.09,-404.16 811.93,-404.16"/>
<polygon fill="#555555" fill-opacity="0.133333" stroke="#555555" stroke-opacity="0.133333" points="814.73,-400.6601 804.73,-404.16 814.73,-407.6601 814.73,-400.6601"/>
</g>
<!--   &#39;  &#39; ()&#45;&gt;  -->
<g id="edge34" class="edge">
<title>  &#39;  &#39; ()&#45;&gt; </title>
<path fill="none" stroke="#555555" stroke-opacity="0.133333" d="M889.61,-656.16C889.45,-656.16 889.28,-656.16 889.11,-656.16"/>
<polygon fill="#555555" fill-opacity="0.133333" stroke="#555555" stroke-opacity="0.133333" points="891.73,-652.6601 881.73,-656.16 891.73,-659.6601 891.73,-652.6601"/>
</g>
<!--  -->
<g id="node1" class="node">
<title></title>
<text text-anchor="middle" x="415.54" y="-541.73" font-family="Helvetica,sans-Serif" font-weight="bold" font-size="26.00" fill="#000000"></text>
</g>
<!--  -->
<g id="node2" class="node">
<title></title>
<text text-anchor="middle" x="630.64" y="-807.26" font-family="Helvetica,sans-Serif" font-weight="bold" font-size="14.00" fill="#000000"></text>
</g>
<!--  -->
<g id="node3" class="node">
<title></title>
<text text-anchor="middle" x="619.49" y="-609.93" font-family="Helvetica,sans-Serif" font-weight="bold" font-size="14.00" fill="#000000"></text>
</g>
<!--    -->
<g id="node4" class="node">
<title>  </title>
<text text-anchor="middle" x="433.81" y="-856.96" font-family="Helvetica,sans-Serif" font-weight="bold" font-size="14.00" fill="#000000">  </text>
</g>
<!--  -->
<g id="node5" class="node">
<title></title>
<text text-anchor="middle" x="244.68" y="-821.53" font-family="Helvetica,sans-Serif" font-weight="bold" font-size="14.00" fill="#000000"></text>
</g>
<!--   -->
<g id="node6" class="node">
<title> </title>
<text text-anchor="middle" x="114.18" y="-669.39" font-family="Helvetica,sans-Serif" font-weight="bold" font-size="14.00" fill="#000000"> </text>
</g>
<!--     -->
<g id="node7" class="node">
<title>   </title>
<text text-anchor="middle" x="234.88" y="-508.95" font-family="Helvetica,sans-Serif" font-weight="bold" font-size="14.00" fill="#000000">   </text>
</g>
<!--   -->
<g id="node8" class="node">
<title> </title>
<text text-anchor="middle" x="83.193" y="-402.66" font-family="Helvetica,sans-Serif" font-weight="bold" font-size="14.00" fill="#000000"> </text>
</g>
<!--  -->
<g id="node9" class="node">
<title></title>
<text text-anchor="middle" x="262.93" y="-258.77" font-family="Helvetica,sans-Serif" font-weight="bold" font-size="14.00" fill="#000000"></text>
</g>
<!--   -->
<g id="node10" class="node">
<title> </title>
<text text-anchor="middle" x="795.46" y="-504.2" font-family="Helvetica,sans-Serif" font-weight="bold" font-size="14.00" fill="#000000"> </text>
</g>
<!--  -->
<g id="node11" class="node">
<title></title>
<text text-anchor="middle" x="623.32" y="-331.01" font-family="Helvetica,sans-Serif" font-weight="bold" font-size="14.00" fill="#000000"></text>
</g>
<!-- 12  -->
<g id="node12" class="node">
<title>12 </title>
<text text-anchor="middle" x="459.04" y="-224.3" font-family="Helvetica,sans-Serif" font-weight="bold" font-size="14.00" fill="#000000">12 </text>
</g>
<!--  -->
<g id="node13" class="node">
<title></title>
<text text-anchor="middle" x="1065.2" y="-938.94" font-family="Helvetica,sans-Serif" font-weight="bold" font-size="26.00" fill="#000000"></text>
</g>
<!--  -->
<g id="node14" class="node">
<title></title>
<text text-anchor="middle" x="1201.7" y="-832.78" font-family="Helvetica,sans-Serif" font-weight="bold" font-size="14.00" fill="#000000"></text>
</g>
<!--     -->
<g id="node15" class="node">
<title>   </title>
<text text-anchor="middle" x="1239.9" y="-945.86" font-family="Helvetica,sans-Serif" font-weight="bold" font-size="14.00" fill="#000000">   </text>
</g>
<!--   -->
<g id="node16" class="node">
<title> </title>
<text text-anchor="middle" x="981.25" y="-788.34" font-family="Helvetica,sans-Serif" font-weight="bold" font-size="14.00" fill="#000000"> </text>
</g>
<!--    -->
<g id="node17" class="node">
<title>  </title>
<text text-anchor="middle" x="1099.8" y="-770.3" font-family="Helvetica,sans-Serif" font-weight="bold" font-size="14.00" fill="#000000">  </text>
</g>
<!--    -->
<g id="node18" class="node">
<title>  </title>
<text text-anchor="middle" x="899.81" y="-997.3" font-family="Helvetica,sans-Serif" font-weight="bold" font-size="14.00" fill="#000000">  </text>
</g>
<!--   -->
<g id="node19" class="node">
<title> </title>
<text text-anchor="middle" x="1090.9" y="-1113.9" font-family="Helvetica,sans-Serif" font-weight="bold" font-size="14.00" fill="#000000"> </text>
</g>
<!--       -->
<g id="node20" class="node">
<title>     </title>
<text text-anchor="middle" x="1196.2" y="-1057.2" font-family="Helvetica,sans-Serif" font-weight="bold" font-size="14.00" fill="#000000">     </text>
</g>
<!--  -->
<g id="node21" class="node">
<title></title>
<text text-anchor="middle" x="973.99" y="-1090.5" font-family="Helvetica,sans-Serif" font-weight="bold" font-size="14.00" fill="#000000"></text>
</g>
<!--    -->
<g id="node22" class="node">
<title>  </title>
<text text-anchor="middle" x="902.64" y="-877.7" font-family="Helvetica,sans-Serif" font-weight="bold" font-size="14.00" fill="#000000">  </text>
</g>
<!--     -->
<g id="node23" class="node">
<title>   </title>
<text text-anchor="middle" x="936.17" y="-145.86" font-family="Helvetica,sans-Serif" font-weight="bold" font-size="26.00" fill="#000000">   </text>
</g>
<!--  -->
<g id="node24" class="node">
<title></title>
<text text-anchor="middle" x="636.1" y="-148.46" font-family="Helvetica,sans-Serif" font-weight="bold" font-size="14.00" fill="#000000"></text>
</g>
<!--  -->
<g id="node25" class="node">
<title></title>
<text text-anchor="middle" x="1042.7" y="-518.04" font-family="Helvetica,sans-Serif" font-weight="bold" font-size="26.00" fill="#000000"></text>
</g>
<!-- Teatr Slaski -->
<g id="node26" class="node">
<title>Teatr Slaski</title>
<text text-anchor="middle" x="290.51" y="-985.86" font-family="Helvetica,sans-Serif" font-weight="bold" font-size="26.00" fill="#000000">Teatr Slaski</text>
</g>
<!--  -->
<g id="node27" class="node">
<title></title>
<text text-anchor="middle" x="133.4" y="-988.46" font-family="Helvetica,sans-Serif" font-weight="bold" font-size="14.00" fill="#000000"></text>
</g>
<!--  () -->
<g id="node28" class="node">
<title> ()</title>
<text text-anchor="middle" x="966.96" y="-19.863" font-family="Helvetica,sans-Serif" font-weight="bold" font-size="26.00" fill="#000000"> ()</text>
</g>
<!--  -->
<g id="node29" class="node">
<title></title>
<text text-anchor="middle" x="744.55" y="-22.463" font-family="Helvetica,sans-Serif" font-weight="bold" font-size="14.00" fill="#000000"></text>
</g>
<!--  -->
<g id="node30" class="node">
<title></title>
<text text-anchor="middle" x="588.19" y="-1055.5" font-family="Helvetica,sans-Serif" font-weight="bold" font-size="26.00" fill="#000000"></text>
</g>
<!--    -->
<g id="node31" class="node">
<title>  </title>
<text text-anchor="middle" x="597.5" y="-1199" font-family="Helvetica,sans-Serif" font-weight="bold" font-size="14.00" fill="#000000">  </text>
</g>
<!--   -->
<g id="node32" class="node">
<title> </title>
<text text-anchor="middle" x="457.29" y="-1110.5" font-family="Helvetica,sans-Serif" font-weight="bold" font-size="14.00" fill="#000000"> </text>
</g>
<!--   -->
<g id="node33" class="node">
<title> </title>
<text text-anchor="middle" x="497.52" y="-950.13" font-family="Helvetica,sans-Serif" font-weight="bold" font-size="14.00" fill="#000000"> </text>
</g>
<!--  -->
<g id="node34" class="node">
<title></title>
<text text-anchor="middle" x="725.4" y="-1092.3" font-family="Helvetica,sans-Serif" font-weight="bold" font-size="14.00" fill="#000000"></text>
</g>
<!--   -->
<g id="node35" class="node">
<title> </title>
<text text-anchor="middle" x="662.7" y="-938.3" font-family="Helvetica,sans-Serif" font-weight="bold" font-size="14.00" fill="#000000"> </text>
</g>
<!--   () -->
<g id="node36" class="node">
<title>  ()</title>
<text text-anchor="middle" x="443.48" y="-61.863" font-family="Helvetica,sans-Serif" font-weight="bold" font-size="26.00" fill="#000000">  ()</text>
</g>
<!--  -->
<g id="node37" class="node">
<title></title>
<text text-anchor="middle" x="152.24" y="-64.463" font-family="Helvetica,sans-Serif" font-weight="bold" font-size="14.00" fill="#000000"></text>
</g>
<!-- Les Partisans () -->
<g id="node38" class="node">
<title>Les Partisans ()</title>
<text text-anchor="middle" x="1071.6" y="-271.86" font-family="Helvetica,sans-Serif" font-weight="bold" font-size="26.00" fill="#000000">Les Partisans ()</text>
</g>
<!--  &#45;   -->
<g id="node39" class="node">
<title> &#45;  </title>
<text text-anchor="middle" x="1342.9" y="-274.46" font-family="Helvetica,sans-Serif" font-weight="bold" font-size="14.00" fill="#000000"> &#45;  </text>
</g>
<!--  -->
<g id="node40" class="node">
<title></title>
<text text-anchor="middle" x="798.9" y="-274.46" font-family="Helvetica,sans-Serif" font-weight="bold" font-size="14.00" fill="#000000"></text>
</g>
<!--     -->
<g id="node41" class="node">
<title>   </title>
<text text-anchor="middle" x="1229.8" y="-397.86" font-family="Helvetica,sans-Serif" font-weight="bold" font-size="26.00" fill="#000000">   </text>
</g>
<!--   -->
<g id="node42" class="node">
<title> </title>
<text text-anchor="middle" x="738.29" y="-400.46" font-family="Helvetica,sans-Serif" font-weight="bold" font-size="14.00" fill="#000000"> </text>
</g>
<!--   &#39;  &#39; () -->
<g id="node43" class="node">
<title>  &#39;  &#39; ()</title>
<text text-anchor="middle" x="1331.7" y="-649.86" font-family="Helvetica,sans-Serif" font-weight="bold" font-size="26.00" fill="#000000">  &#39;  &#39; ()</text>
</g>
<!--   -->
<g id="node44" class="node">
<title> </title>
<text text-anchor="middle" x="797.84" y="-652.46" font-family="Helvetica,sans-Serif" font-weight="bold" font-size="14.00" fill="#000000"> </text>
</g>
</g>
</svg>
